ISO-10303-21;
HEADER;
/* Generated by software containing ST-Developer
 * from STEP Tools, Inc. (www.steptools.com) 
 */
/* OPTION: using custom schema-name function */

FILE_DESCRIPTION(
/* description */ (''),
/* implementation_level */ '2;1');

FILE_NAME(
/* name */ '1.stp',
/* time_stamp */ '2026-07-04T15:04:22+05:00',
/* author */ (''),
/* organization */ (''),
/* preprocessor_version */ 'ST-DEVELOPER v16',
/* originating_system */ 'SIEMENS PLM Software NX 10.0',
/* authorisation */ '');

FILE_SCHEMA (('AP203_CONFIGURATION_CONTROLLED_3D_DESIGN_OF_MECHANICAL_PARTS_AND_ASSEMBLIES_MIM_LF { 1 0 10303 403 2 1 2}'));
ENDSEC;

DATA;
#10=PROPERTY_DEFINITION_REPRESENTATION(#14,#12);
#11=PROPERTY_DEFINITION_REPRESENTATION(#15,#13);
#12=REPRESENTATION('',(#16),#703);
#13=REPRESENTATION('',(#17),#703);
#14=PROPERTY_DEFINITION('pmi validation property','',#89);
#15=PROPERTY_DEFINITION('pmi validation property','',#89);
#16=VALUE_REPRESENTATION_ITEM('number of annotations',COUNT_MEASURE(0.));
#17=VALUE_REPRESENTATION_ITEM('number of views',COUNT_MEASURE(0.));
#18=SHAPE_REPRESENTATION_RELATIONSHIP('None',
'relationship between Hi066CDEFEn317-None and Hi066CDEFEn317-None',#100,
#19);
#19=ADVANCED_BREP_SHAPE_REPRESENTATION('Hi066CDEFEn317-None',(#101),#703);
#20=CC_DESIGN_APPROVAL(#32,(#90));
#21=CC_DESIGN_APPROVAL(#33,(#92));
#22=CC_DESIGN_APPROVAL(#34,(#39));
#23=APPROVAL_PERSON_ORGANIZATION(#77,#32,#26);
#24=APPROVAL_PERSON_ORGANIZATION(#78,#33,#27);
#25=APPROVAL_PERSON_ORGANIZATION(#79,#34,#28);
#26=APPROVAL_ROLE('approver');
#27=APPROVAL_ROLE('approver');
#28=APPROVAL_ROLE('approver');
#29=APPROVAL_DATE_TIME(#47,#32);
#30=APPROVAL_DATE_TIME(#48,#33);
#31=APPROVAL_DATE_TIME(#49,#34);
#32=APPROVAL(#35,' ');
#33=APPROVAL(#36,' ');
#34=APPROVAL(#37,' ');
#35=APPROVAL_STATUS('not_yet_approved');
#36=APPROVAL_STATUS('not_yet_approved');
#37=APPROVAL_STATUS('not_yet_approved');
#38=CC_DESIGN_SECURITY_CLASSIFICATION(#39,(#92));
#39=SECURITY_CLASSIFICATION(' ',' ',#40);
#40=SECURITY_CLASSIFICATION_LEVEL('confidential');
#41=CC_DESIGN_DATE_AND_TIME_ASSIGNMENT(#45,#43,(#90));
#42=CC_DESIGN_DATE_AND_TIME_ASSIGNMENT(#46,#44,(#39));
#43=DATE_TIME_ROLE('creation_date');
#44=DATE_TIME_ROLE('classification_date');
#45=DATE_AND_TIME(#60,#50);
#46=DATE_AND_TIME(#61,#51);
#47=DATE_AND_TIME(#62,#52);
#48=DATE_AND_TIME(#63,#53);
#49=DATE_AND_TIME(#64,#54);
#50=LOCAL_TIME(0,0,0.,#55);
#51=LOCAL_TIME(0,0,0.,#56);
#52=LOCAL_TIME(0,0,0.,#57);
#53=LOCAL_TIME(0,0,0.,#58);
#54=LOCAL_TIME(0,0,0.,#59);
#55=COORDINATED_UNIVERSAL_TIME_OFFSET(0,0,.BEHIND.);
#56=COORDINATED_UNIVERSAL_TIME_OFFSET(0,0,.BEHIND.);
#57=COORDINATED_UNIVERSAL_TIME_OFFSET(0,0,.BEHIND.);
#58=COORDINATED_UNIVERSAL_TIME_OFFSET(0,0,.BEHIND.);
#59=COORDINATED_UNIVERSAL_TIME_OFFSET(0,0,.BEHIND.);
#60=CALENDAR_DATE(0,1,1);
#61=CALENDAR_DATE(0,1,1);
#62=CALENDAR_DATE(0,1,1);
#63=CALENDAR_DATE(0,1,1);
#64=CALENDAR_DATE(0,1,1);
#65=CC_DESIGN_PERSON_AND_ORGANIZATION_ASSIGNMENT(#73,#69,(#90,#92));
#66=CC_DESIGN_PERSON_AND_ORGANIZATION_ASSIGNMENT(#74,#70,(#94));
#67=CC_DESIGN_PERSON_AND_ORGANIZATION_ASSIGNMENT(#75,#71,(#92));
#68=CC_DESIGN_PERSON_AND_ORGANIZATION_ASSIGNMENT(#76,#72,(#39));
#69=PERSON_AND_ORGANIZATION_ROLE('creator');
#70=PERSON_AND_ORGANIZATION_ROLE('design_owner');
#71=PERSON_AND_ORGANIZATION_ROLE('design_supplier');
#72=PERSON_AND_ORGANIZATION_ROLE('classification_officer');
#73=PERSON_AND_ORGANIZATION(#87,#80);
#74=PERSON_AND_ORGANIZATION(#87,#81);
#75=PERSON_AND_ORGANIZATION(#87,#82);
#76=PERSON_AND_ORGANIZATION(#87,#83);
#77=PERSON_AND_ORGANIZATION(#87,#84);
#78=PERSON_AND_ORGANIZATION(#87,#85);
#79=PERSON_AND_ORGANIZATION(#87,#86);
#80=ORGANIZATION(' ',' ',' ');
#81=ORGANIZATION(' ',' ',' ');
#82=ORGANIZATION(' ',' ',' ');
#83=ORGANIZATION(' ',' ',' ');
#84=ORGANIZATION(' ',' ',' ');
#85=ORGANIZATION(' ',' ',' ');
#86=ORGANIZATION(' ',' ',' ');
#87=PERSON(' ',' ',' ',(' '),$,$);
#88=SHAPE_DEFINITION_REPRESENTATION(#89,#100);
#89=PRODUCT_DEFINITION_SHAPE('','',#90);
#90=PRODUCT_DEFINITION(' ','',#92,#91);
#91=DESIGN_CONTEXT('',#99,'design');
#92=PRODUCT_DEFINITION_FORMATION_WITH_SPECIFIED_SOURCE(' ',' ',#94,
 .NOT_KNOWN.);
#93=PRODUCT_RELATED_PRODUCT_CATEGORY('detail','',(#94));
#94=PRODUCT('Hi066CDEFEn317','Hi066CDEFEn317',' ',(#97));
#95=PRODUCT_CATEGORY('part',' ');
#96=PRODUCT_CATEGORY(' ','');
#97=MECHANICAL_CONTEXT(' ',#99,'mechanical');
#98=APPLICATION_PROTOCOL_DEFINITION('international standard',
'config_control_design',2010,#99);
#99=APPLICATION_CONTEXT(
'configuration controlled 3D designs of mechanical parts and assemblie
s');
#100=SHAPE_REPRESENTATION('Hi066CDEFEn317-None',(#449),#703);
#101=MANIFOLD_SOLID_BREP('',#102);
#102=CLOSED_SHELL('',(#118,#119,#120,#121,#122,#123,#124,#125,#126,#127,
#128,#129,#130,#131,#132,#133,#134,#135,#136));
#103=FACE_BOUND('',#173,.T.);
#104=FACE_BOUND('',#174,.T.);
#105=FACE_BOUND('',#181,.T.);
#106=FACE_BOUND('',#182,.T.);
#107=FACE_BOUND('',#183,.T.);
#108=FACE_BOUND('',#184,.T.);
#109=PLANE('',#459);
#110=PLANE('',#460);
#111=PLANE('',#464);
#112=PLANE('',#468);
#113=PLANE('',#475);
#114=PLANE('',#479);
#115=PLANE('',#483);
#116=PLANE('',#487);
#117=PLANE('',#488);
#118=ADVANCED_FACE('',(#147),#137,.F.);
#119=ADVANCED_FACE('',(#148),#138,.T.);
#120=ADVANCED_FACE('',(#149),#139,.T.);
#121=ADVANCED_FACE('',(#150),#109,.F.);
#122=ADVANCED_FACE('',(#151),#110,.F.);
#123=ADVANCED_FACE('',(#152),#140,.T.);
#124=ADVANCED_FACE('',(#153),#111,.F.);
#125=ADVANCED_FACE('',(#154),#141,.F.);
#126=ADVANCED_FACE('',(#155),#112,.F.);
#127=ADVANCED_FACE('',(#156),#142,.T.);
#128=ADVANCED_FACE('',(#103,#104),#143,.F.);
#129=ADVANCED_FACE('',(#157),#113,.F.);
#130=ADVANCED_FACE('',(#158),#144,.T.);
#131=ADVANCED_FACE('',(#159),#114,.F.);
#132=ADVANCED_FACE('',(#160),#145,.F.);
#133=ADVANCED_FACE('',(#161),#115,.F.);
#134=ADVANCED_FACE('',(#162),#146,.T.);
#135=ADVANCED_FACE('',(#105,#106),#116,.T.);
#136=ADVANCED_FACE('',(#107,#108),#117,.F.);
#137=CYLINDRICAL_SURFACE('',#452,35.);
#138=CYLINDRICAL_SURFACE('',#455,2.);
#139=CYLINDRICAL_SURFACE('',#458,2.);
#140=CYLINDRICAL_SURFACE('',#463,2.);
#141=CYLINDRICAL_SURFACE('',#467,2.);
#142=CYLINDRICAL_SURFACE('',#471,1.);
#143=CYLINDRICAL_SURFACE('',#474,4.);
#144=CYLINDRICAL_SURFACE('',#478,1.);
#145=CYLINDRICAL_SURFACE('',#482,2.);
#146=CYLINDRICAL_SURFACE('',#486,2.);
#147=FACE_OUTER_BOUND('',#163,.T.);
#148=FACE_OUTER_BOUND('',#164,.T.);
#149=FACE_OUTER_BOUND('',#165,.T.);
#150=FACE_OUTER_BOUND('',#166,.T.);
#151=FACE_OUTER_BOUND('',#167,.T.);
#152=FACE_OUTER_BOUND('',#168,.T.);
#153=FACE_OUTER_BOUND('',#169,.T.);
#154=FACE_OUTER_BOUND('',#170,.T.);
#155=FACE_OUTER_BOUND('',#171,.T.);
#156=FACE_OUTER_BOUND('',#172,.T.);
#157=FACE_OUTER_BOUND('',#175,.T.);
#158=FACE_OUTER_BOUND('',#176,.T.);
#159=FACE_OUTER_BOUND('',#177,.T.);
#160=FACE_OUTER_BOUND('',#178,.T.);
#161=FACE_OUTER_BOUND('',#179,.T.);
#162=FACE_OUTER_BOUND('',#180,.T.);
#163=EDGE_LOOP('',(#205,#206,#207,#208));
#164=EDGE_LOOP('',(#209,#210,#211,#212));
#165=EDGE_LOOP('',(#213,#214,#215,#216));
#166=EDGE_LOOP('',(#217,#218,#219,#220));
#167=EDGE_LOOP('',(#221,#222,#223,#224));
#168=EDGE_LOOP('',(#225,#226,#227,#228));
#169=EDGE_LOOP('',(#229,#230,#231,#232));
#170=EDGE_LOOP('',(#233,#234,#235,#236));
#171=EDGE_LOOP('',(#237,#238,#239,#240));
#172=EDGE_LOOP('',(#241,#242,#243,#244));
#173=EDGE_LOOP('',(#245));
#174=EDGE_LOOP('',(#246));
#175=EDGE_LOOP('',(#247,#248,#249,#250));
#176=EDGE_LOOP('',(#251,#252,#253,#254));
#177=EDGE_LOOP('',(#255,#256,#257,#258));
#178=EDGE_LOOP('',(#259,#260,#261,#262));
#179=EDGE_LOOP('',(#263,#264,#265,#266));
#180=EDGE_LOOP('',(#267,#268,#269,#270));
#181=EDGE_LOOP('',(#271));
#182=EDGE_LOOP('',(#272,#273,#274,#275,#276,#277,#278,#279,#280,#281,#282,
#283,#284,#285,#286,#287));
#183=EDGE_LOOP('',(#288,#289,#290,#291,#292,#293,#294,#295,#296,#297,#298,
#299,#300,#301,#302,#303));
#184=EDGE_LOOP('',(#304));
#185=CIRCLE('',#450,35.);
#186=CIRCLE('',#451,35.);
#187=CIRCLE('',#453,2.);
#188=CIRCLE('',#454,2.);
#189=CIRCLE('',#456,2.);
#190=CIRCLE('',#457,2.);
#191=CIRCLE('',#461,2.);
#192=CIRCLE('',#462,2.);
#193=CIRCLE('',#465,2.);
#194=CIRCLE('',#466,2.);
#195=CIRCLE('',#469,1.);
#196=CIRCLE('',#470,1.);
#197=CIRCLE('',#472,4.);
#198=CIRCLE('',#473,4.);
#199=CIRCLE('',#476,1.);
#200=CIRCLE('',#477,1.);
#201=CIRCLE('',#480,2.);
#202=CIRCLE('',#481,2.);
#203=CIRCLE('',#484,2.);
#204=CIRCLE('',#485,2.);
#205=ORIENTED_EDGE('',*,*,#339,.T.);
#206=ORIENTED_EDGE('',*,*,#340,.T.);
#207=ORIENTED_EDGE('',*,*,#341,.F.);
#208=ORIENTED_EDGE('',*,*,#342,.F.);
#209=ORIENTED_EDGE('',*,*,#343,.T.);
#210=ORIENTED_EDGE('',*,*,#339,.F.);
#211=ORIENTED_EDGE('',*,*,#344,.F.);
#212=ORIENTED_EDGE('',*,*,#345,.T.);
#213=ORIENTED_EDGE('',*,*,#341,.T.);
#214=ORIENTED_EDGE('',*,*,#346,.T.);
#215=ORIENTED_EDGE('',*,*,#347,.F.);
#216=ORIENTED_EDGE('',*,*,#348,.F.);
#217=ORIENTED_EDGE('',*,*,#349,.T.);
#218=ORIENTED_EDGE('',*,*,#345,.F.);
#219=ORIENTED_EDGE('',*,*,#350,.F.);
#220=ORIENTED_EDGE('',*,*,#351,.T.);
#221=ORIENTED_EDGE('',*,*,#352,.T.);
#222=ORIENTED_EDGE('',*,*,#353,.F.);
#223=ORIENTED_EDGE('',*,*,#354,.F.);
#224=ORIENTED_EDGE('',*,*,#347,.T.);
#225=ORIENTED_EDGE('',*,*,#355,.T.);
#226=ORIENTED_EDGE('',*,*,#356,.F.);
#227=ORIENTED_EDGE('',*,*,#357,.F.);
#228=ORIENTED_EDGE('',*,*,#353,.T.);
#229=ORIENTED_EDGE('',*,*,#358,.T.);
#230=ORIENTED_EDGE('',*,*,#359,.F.);
#231=ORIENTED_EDGE('',*,*,#360,.F.);
#232=ORIENTED_EDGE('',*,*,#356,.T.);
#233=ORIENTED_EDGE('',*,*,#361,.T.);
#234=ORIENTED_EDGE('',*,*,#362,.F.);
#235=ORIENTED_EDGE('',*,*,#363,.F.);
#236=ORIENTED_EDGE('',*,*,#359,.T.);
#237=ORIENTED_EDGE('',*,*,#364,.T.);
#238=ORIENTED_EDGE('',*,*,#365,.F.);
#239=ORIENTED_EDGE('',*,*,#366,.F.);
#240=ORIENTED_EDGE('',*,*,#362,.T.);
#241=ORIENTED_EDGE('',*,*,#367,.T.);
#242=ORIENTED_EDGE('',*,*,#368,.F.);
#243=ORIENTED_EDGE('',*,*,#369,.F.);
#244=ORIENTED_EDGE('',*,*,#365,.T.);
#245=ORIENTED_EDGE('',*,*,#370,.T.);
#246=ORIENTED_EDGE('',*,*,#371,.F.);
#247=ORIENTED_EDGE('',*,*,#372,.T.);
#248=ORIENTED_EDGE('',*,*,#373,.F.);
#249=ORIENTED_EDGE('',*,*,#374,.F.);
#250=ORIENTED_EDGE('',*,*,#368,.T.);
#251=ORIENTED_EDGE('',*,*,#375,.T.);
#252=ORIENTED_EDGE('',*,*,#376,.F.);
#253=ORIENTED_EDGE('',*,*,#377,.F.);
#254=ORIENTED_EDGE('',*,*,#373,.T.);
#255=ORIENTED_EDGE('',*,*,#378,.T.);
#256=ORIENTED_EDGE('',*,*,#379,.F.);
#257=ORIENTED_EDGE('',*,*,#380,.F.);
#258=ORIENTED_EDGE('',*,*,#376,.T.);
#259=ORIENTED_EDGE('',*,*,#381,.T.);
#260=ORIENTED_EDGE('',*,*,#382,.F.);
#261=ORIENTED_EDGE('',*,*,#383,.F.);
#262=ORIENTED_EDGE('',*,*,#379,.T.);
#263=ORIENTED_EDGE('',*,*,#384,.T.);
#264=ORIENTED_EDGE('',*,*,#385,.F.);
#265=ORIENTED_EDGE('',*,*,#386,.F.);
#266=ORIENTED_EDGE('',*,*,#382,.T.);
#267=ORIENTED_EDGE('',*,*,#387,.T.);
#268=ORIENTED_EDGE('',*,*,#351,.F.);
#269=ORIENTED_EDGE('',*,*,#388,.F.);
#270=ORIENTED_EDGE('',*,*,#385,.T.);
#271=ORIENTED_EDGE('',*,*,#371,.T.);
#272=ORIENTED_EDGE('',*,*,#350,.T.);
#273=ORIENTED_EDGE('',*,*,#344,.T.);
#274=ORIENTED_EDGE('',*,*,#342,.T.);
#275=ORIENTED_EDGE('',*,*,#348,.T.);
#276=ORIENTED_EDGE('',*,*,#354,.T.);
#277=ORIENTED_EDGE('',*,*,#357,.T.);
#278=ORIENTED_EDGE('',*,*,#360,.T.);
#279=ORIENTED_EDGE('',*,*,#363,.T.);
#280=ORIENTED_EDGE('',*,*,#366,.T.);
#281=ORIENTED_EDGE('',*,*,#369,.T.);
#282=ORIENTED_EDGE('',*,*,#374,.T.);
#283=ORIENTED_EDGE('',*,*,#377,.T.);
#284=ORIENTED_EDGE('',*,*,#380,.T.);
#285=ORIENTED_EDGE('',*,*,#383,.T.);
#286=ORIENTED_EDGE('',*,*,#386,.T.);
#287=ORIENTED_EDGE('',*,*,#388,.T.);
#288=ORIENTED_EDGE('',*,*,#372,.F.);
#289=ORIENTED_EDGE('',*,*,#367,.F.);
#290=ORIENTED_EDGE('',*,*,#364,.F.);
#291=ORIENTED_EDGE('',*,*,#361,.F.);
#292=ORIENTED_EDGE('',*,*,#358,.F.);
#293=ORIENTED_EDGE('',*,*,#355,.F.);
#294=ORIENTED_EDGE('',*,*,#352,.F.);
#295=ORIENTED_EDGE('',*,*,#346,.F.);
#296=ORIENTED_EDGE('',*,*,#340,.F.);
#297=ORIENTED_EDGE('',*,*,#343,.F.);
#298=ORIENTED_EDGE('',*,*,#349,.F.);
#299=ORIENTED_EDGE('',*,*,#387,.F.);
#300=ORIENTED_EDGE('',*,*,#384,.F.);
#301=ORIENTED_EDGE('',*,*,#381,.F.);
#302=ORIENTED_EDGE('',*,*,#378,.F.);
#303=ORIENTED_EDGE('',*,*,#375,.F.);
#304=ORIENTED_EDGE('',*,*,#370,.F.);
#305=VERTEX_POINT('',#601);
#306=VERTEX_POINT('',#602);
#307=VERTEX_POINT('',#604);
#308=VERTEX_POINT('',#606);
#309=VERTEX_POINT('',#610);
#310=VERTEX_POINT('',#612);
#311=VERTEX_POINT('',#616);
#312=VERTEX_POINT('',#618);
#313=VERTEX_POINT('',#622);
#314=VERTEX_POINT('',#624);
#315=VERTEX_POINT('',#628);
#316=VERTEX_POINT('',#630);
#317=VERTEX_POINT('',#634);
#318=VERTEX_POINT('',#636);
#319=VERTEX_POINT('',#640);
#320=VERTEX_POINT('',#642);
#321=VERTEX_POINT('',#646);
#322=VERTEX_POINT('',#648);
#323=VERTEX_POINT('',#652);
#324=VERTEX_POINT('',#654);
#325=VERTEX_POINT('',#658);
#326=VERTEX_POINT('',#660);
#327=VERTEX_POINT('',#664);
#328=VERTEX_POINT('',#666);
#329=VERTEX_POINT('',#669);
#330=VERTEX_POINT('',#671);
#331=VERTEX_POINT('',#675);
#332=VERTEX_POINT('',#677);
#333=VERTEX_POINT('',#681);
#334=VERTEX_POINT('',#683);
#335=VERTEX_POINT('',#687);
#336=VERTEX_POINT('',#689);
#337=VERTEX_POINT('',#693);
#338=VERTEX_POINT('',#695);
#339=EDGE_CURVE('',#305,#306,#389,.T.);
#340=EDGE_CURVE('',#306,#307,#185,.T.);
#341=EDGE_CURVE('',#308,#307,#390,.T.);
#342=EDGE_CURVE('',#305,#308,#186,.T.);
#343=EDGE_CURVE('',#309,#306,#187,.T.);
#344=EDGE_CURVE('',#310,#305,#188,.T.);
#345=EDGE_CURVE('',#310,#309,#391,.T.);
#346=EDGE_CURVE('',#307,#311,#189,.T.);
#347=EDGE_CURVE('',#312,#311,#392,.T.);
#348=EDGE_CURVE('',#308,#312,#190,.T.);
#349=EDGE_CURVE('',#313,#309,#393,.T.);
#350=EDGE_CURVE('',#314,#310,#394,.T.);
#351=EDGE_CURVE('',#314,#313,#395,.T.);
#352=EDGE_CURVE('',#311,#315,#396,.T.);
#353=EDGE_CURVE('',#316,#315,#397,.T.);
#354=EDGE_CURVE('',#312,#316,#398,.T.);
#355=EDGE_CURVE('',#315,#317,#191,.T.);
#356=EDGE_CURVE('',#318,#317,#399,.T.);
#357=EDGE_CURVE('',#316,#318,#192,.T.);
#358=EDGE_CURVE('',#317,#319,#400,.T.);
#359=EDGE_CURVE('',#320,#319,#401,.T.);
#360=EDGE_CURVE('',#318,#320,#402,.T.);
#361=EDGE_CURVE('',#319,#321,#193,.T.);
#362=EDGE_CURVE('',#322,#321,#403,.T.);
#363=EDGE_CURVE('',#320,#322,#194,.T.);
#364=EDGE_CURVE('',#321,#323,#404,.T.);
#365=EDGE_CURVE('',#324,#323,#405,.T.);
#366=EDGE_CURVE('',#322,#324,#406,.T.);
#367=EDGE_CURVE('',#323,#325,#195,.T.);
#368=EDGE_CURVE('',#326,#325,#407,.T.);
#369=EDGE_CURVE('',#324,#326,#196,.T.);
#370=EDGE_CURVE('',#327,#327,#197,.T.);
#371=EDGE_CURVE('',#328,#328,#198,.T.);
#372=EDGE_CURVE('',#325,#329,#408,.T.);
#373=EDGE_CURVE('',#330,#329,#409,.T.);
#374=EDGE_CURVE('',#326,#330,#410,.T.);
#375=EDGE_CURVE('',#329,#331,#199,.T.);
#376=EDGE_CURVE('',#332,#331,#411,.T.);
#377=EDGE_CURVE('',#330,#332,#200,.T.);
#378=EDGE_CURVE('',#331,#333,#412,.T.);
#379=EDGE_CURVE('',#334,#333,#413,.T.);
#380=EDGE_CURVE('',#332,#334,#414,.T.);
#381=EDGE_CURVE('',#333,#335,#201,.T.);
#382=EDGE_CURVE('',#336,#335,#415,.T.);
#383=EDGE_CURVE('',#334,#336,#202,.T.);
#384=EDGE_CURVE('',#335,#337,#416,.T.);
#385=EDGE_CURVE('',#338,#337,#417,.T.);
#386=EDGE_CURVE('',#336,#338,#418,.T.);
#387=EDGE_CURVE('',#337,#313,#203,.T.);
#388=EDGE_CURVE('',#338,#314,#204,.T.);
#389=LINE('',#600,#419);
#390=LINE('',#605,#420);
#391=LINE('',#613,#421);
#392=LINE('',#617,#422);
#393=LINE('',#621,#423);
#394=LINE('',#623,#424);
#395=LINE('',#625,#425);
#396=LINE('',#627,#426);
#397=LINE('',#629,#427);
#398=LINE('',#631,#428);
#399=LINE('',#635,#429);
#400=LINE('',#639,#430);
#401=LINE('',#641,#431);
#402=LINE('',#643,#432);
#403=LINE('',#647,#433);
#404=LINE('',#651,#434);
#405=LINE('',#653,#435);
#406=LINE('',#655,#436);
#407=LINE('',#659,#437);
#408=LINE('',#668,#438);
#409=LINE('',#670,#439);
#410=LINE('',#672,#440);
#411=LINE('',#676,#441);
#412=LINE('',#680,#442);
#413=LINE('',#682,#443);
#414=LINE('',#684,#444);
#415=LINE('',#688,#445);
#416=LINE('',#692,#446);
#417=LINE('',#694,#447);
#418=LINE('',#696,#448);
#419=VECTOR('',#491,1.);
#420=VECTOR('',#494,1.);
#421=VECTOR('',#503,1.);
#422=VECTOR('',#508,1.);
#423=VECTOR('',#513,1.);
#424=VECTOR('',#514,1.);
#425=VECTOR('',#515,1.);
#426=VECTOR('',#518,1.);
#427=VECTOR('',#519,1.);
#428=VECTOR('',#520,1.);
#429=VECTOR('',#525,1.);
#430=VECTOR('',#530,1.);
#431=VECTOR('',#531,1.);
#432=VECTOR('',#532,1.);
#433=VECTOR('',#537,1.);
#434=VECTOR('',#542,1.);
#435=VECTOR('',#543,1.);
#436=VECTOR('',#544,1.);
#437=VECTOR('',#549,1.);
#438=VECTOR('',#560,1.);
#439=VECTOR('',#561,1.);
#440=VECTOR('',#562,1.);
#441=VECTOR('',#567,1.);
#442=VECTOR('',#572,1.);
#443=VECTOR('',#573,1.);
#444=VECTOR('',#574,1.);
#445=VECTOR('',#579,1.);
#446=VECTOR('',#584,1.);
#447=VECTOR('',#585,1.);
#448=VECTOR('',#586,1.);
#449=AXIS2_PLACEMENT_3D('',#599,#489,#490);
#450=AXIS2_PLACEMENT_3D('',#603,#492,#493);
#451=AXIS2_PLACEMENT_3D('',#607,#495,#496);
#452=AXIS2_PLACEMENT_3D('',#608,#497,#498);
#453=AXIS2_PLACEMENT_3D('',#609,#499,#500);
#454=AXIS2_PLACEMENT_3D('',#611,#501,#502);
#455=AXIS2_PLACEMENT_3D('',#614,#504,#505);
#456=AXIS2_PLACEMENT_3D('',#615,#506,#507);
#457=AXIS2_PLACEMENT_3D('',#619,#509,#510);
#458=AXIS2_PLACEMENT_3D('',#620,#511,#512);
#459=AXIS2_PLACEMENT_3D('',#626,#516,#517);
#460=AXIS2_PLACEMENT_3D('',#632,#521,#522);
#461=AXIS2_PLACEMENT_3D('',#633,#523,#524);
#462=AXIS2_PLACEMENT_3D('',#637,#526,#527);
#463=AXIS2_PLACEMENT_3D('',#638,#528,#529);
#464=AXIS2_PLACEMENT_3D('',#644,#533,#534);
#465=AXIS2_PLACEMENT_3D('',#645,#535,#536);
#466=AXIS2_PLACEMENT_3D('',#649,#538,#539);
#467=AXIS2_PLACEMENT_3D('',#650,#540,#541);
#468=AXIS2_PLACEMENT_3D('',#656,#545,#546);
#469=AXIS2_PLACEMENT_3D('',#657,#547,#548);
#470=AXIS2_PLACEMENT_3D('',#661,#550,#551);
#471=AXIS2_PLACEMENT_3D('',#662,#552,#553);
#472=AXIS2_PLACEMENT_3D('',#663,#554,#555);
#473=AXIS2_PLACEMENT_3D('',#665,#556,#557);
#474=AXIS2_PLACEMENT_3D('',#667,#558,#559);
#475=AXIS2_PLACEMENT_3D('',#673,#563,#564);
#476=AXIS2_PLACEMENT_3D('',#674,#565,#566);
#477=AXIS2_PLACEMENT_3D('',#678,#568,#569);
#478=AXIS2_PLACEMENT_3D('',#679,#570,#571);
#479=AXIS2_PLACEMENT_3D('',#685,#575,#576);
#480=AXIS2_PLACEMENT_3D('',#686,#577,#578);
#481=AXIS2_PLACEMENT_3D('',#690,#580,#581);
#482=AXIS2_PLACEMENT_3D('',#691,#582,#583);
#483=AXIS2_PLACEMENT_3D('',#697,#587,#588);
#484=AXIS2_PLACEMENT_3D('',#698,#589,#590);
#485=AXIS2_PLACEMENT_3D('',#699,#591,#592);
#486=AXIS2_PLACEMENT_3D('',#700,#593,#594);
#487=AXIS2_PLACEMENT_3D('',#701,#595,#596);
#488=AXIS2_PLACEMENT_3D('',#702,#597,#598);
#489=DIRECTION('',(0.,0.,1.));
#490=DIRECTION('',(1.,0.,0.));
#491=DIRECTION('',(0.,1.,0.));
#492=DIRECTION('',(0.,1.,0.));
#493=DIRECTION('',(1.,0.,6.12323399573677E-17));
#494=DIRECTION('',(0.,1.,0.));
#495=DIRECTION('',(0.,1.,0.));
#496=DIRECTION('',(1.,0.,6.12323399573677E-17));
#497=DIRECTION('',(0.,1.,0.));
#498=DIRECTION('',(0.,0.,1.));
#499=DIRECTION('',(0.,-1.,0.));
#500=DIRECTION('',(1.,0.,0.));
#501=DIRECTION('',(0.,-1.,0.));
#502=DIRECTION('',(1.,0.,0.));
#503=DIRECTION('',(0.,1.,0.));
#504=DIRECTION('',(0.,1.,0.));
#505=DIRECTION('',(0.,0.,1.));
#506=DIRECTION('',(0.,-1.,0.));
#507=DIRECTION('',(1.,0.,0.));
#508=DIRECTION('',(0.,1.,0.));
#509=DIRECTION('',(0.,-1.,0.));
#510=DIRECTION('',(1.,0.,0.));
#511=DIRECTION('',(0.,1.,0.));
#512=DIRECTION('',(0.,0.,1.));
#513=DIRECTION('',(0.,0.,-1.));
#514=DIRECTION('',(0.,0.,-1.));
#515=DIRECTION('',(0.,1.,0.));
#516=DIRECTION('',(1.,0.,0.));
#517=DIRECTION('',(0.,0.,-1.));
#518=DIRECTION('',(0.,0.,1.));
#519=DIRECTION('',(0.,1.,0.));
#520=DIRECTION('',(0.,0.,1.));
#521=DIRECTION('',(-1.,0.,0.));
#522=DIRECTION('',(0.,0.,1.));
#523=DIRECTION('',(0.,-1.,0.));
#524=DIRECTION('',(-1.,0.,0.));
#525=DIRECTION('',(0.,1.,0.));
#526=DIRECTION('',(0.,-1.,0.));
#527=DIRECTION('',(-1.,0.,0.));
#528=DIRECTION('',(0.,1.,0.));
#529=DIRECTION('',(0.,0.,1.));
#530=DIRECTION('',(-1.,0.,0.));
#531=DIRECTION('',(0.,1.,0.));
#532=DIRECTION('',(-1.,0.,0.));
#533=DIRECTION('',(0.,0.,-1.));
#534=DIRECTION('',(-1.,0.,0.));
#535=DIRECTION('',(0.,1.,0.));
#536=DIRECTION('',(1.,0.,0.));
#537=DIRECTION('',(0.,1.,0.));
#538=DIRECTION('',(0.,1.,0.));
#539=DIRECTION('',(1.,0.,0.));
#540=DIRECTION('',(0.,1.,0.));
#541=DIRECTION('',(0.,0.,1.));
#542=DIRECTION('',(1.40202522499033E-16,0.,1.));
#543=DIRECTION('',(0.,1.,0.));
#544=DIRECTION('',(1.40202522499033E-16,0.,1.));
#545=DIRECTION('',(-1.,0.,1.40202522499033E-16));
#546=DIRECTION('',(1.40512601554121E-16,0.,1.));
#547=DIRECTION('',(0.,-1.,0.));
#548=DIRECTION('',(1.,0.,0.));
#549=DIRECTION('',(0.,1.,0.));
#550=DIRECTION('',(0.,-1.,0.));
#551=DIRECTION('',(1.,0.,0.));
#552=DIRECTION('',(0.,1.,0.));
#553=DIRECTION('',(0.,0.,1.));
#554=DIRECTION('',(0.,1.,0.));
#555=DIRECTION('',(1.,0.,0.));
#556=DIRECTION('',(0.,1.,0.));
#557=DIRECTION('',(1.,0.,0.));
#558=DIRECTION('',(0.,1.,0.));
#559=DIRECTION('',(0.,0.,1.));
#560=DIRECTION('',(-1.,0.,2.31296463463574E-15));
#561=DIRECTION('',(0.,1.,0.));
#562=DIRECTION('',(-1.,0.,-2.31296463463574E-15));
#563=DIRECTION('',(-2.31296463463574E-15,0.,-1.));
#564=DIRECTION('',(-1.,0.,2.31065167000111E-15));
#565=DIRECTION('',(0.,-1.,0.));
#566=DIRECTION('',(1.,0.,0.));
#567=DIRECTION('',(0.,1.,0.));
#568=DIRECTION('',(0.,-1.,0.));
#569=DIRECTION('',(1.,0.,0.));
#570=DIRECTION('',(0.,1.,0.));
#571=DIRECTION('',(0.,0.,1.));
#572=DIRECTION('',(1.40202522499033E-16,0.,-1.));
#573=DIRECTION('',(0.,1.,0.));
#574=DIRECTION('',(1.40202522499033E-16,0.,-1.));
#575=DIRECTION('',(1.,0.,1.40202522499033E-16));
#576=DIRECTION('',(1.40512601554121E-16,0.,-1.));
#577=DIRECTION('',(0.,1.,0.));
#578=DIRECTION('',(1.,0.,0.));
#579=DIRECTION('',(0.,1.,0.));
#580=DIRECTION('',(0.,1.,0.));
#581=DIRECTION('',(1.,0.,0.));
#582=DIRECTION('',(0.,1.,0.));
#583=DIRECTION('',(0.,0.,1.));
#584=DIRECTION('',(-1.,0.,0.));
#585=DIRECTION('',(0.,1.,0.));
#586=DIRECTION('',(-1.,0.,0.));
#587=DIRECTION('',(0.,0.,-1.));
#588=DIRECTION('',(-1.,0.,0.));
#589=DIRECTION('',(0.,-1.,0.));
#590=DIRECTION('',(1.,0.,0.));
#591=DIRECTION('',(0.,-1.,0.));
#592=DIRECTION('',(1.,0.,0.));
#593=DIRECTION('',(0.,1.,0.));
#594=DIRECTION('',(0.,0.,1.));
#595=DIRECTION('',(0.,-1.,0.));
#596=DIRECTION('',(0.,0.,-1.));
#597=DIRECTION('',(0.,-1.,0.));
#598=DIRECTION('',(0.,0.,-1.));
#599=CARTESIAN_POINT('',(0.,0.,0.));
#600=CARTESIAN_POINT('',(-12.2972972972973,-10.,32.7685287918436));
#601=CARTESIAN_POINT('',(-12.2972972972973,-10.,32.7685287918436));
#602=CARTESIAN_POINT('',(-12.2972972972973,0.,32.7685287918436));
#603=CARTESIAN_POINT('',(0.,0.,0.));
#604=CARTESIAN_POINT('',(12.2972972972973,0.,32.7685287918436));
#605=CARTESIAN_POINT('',(12.2972972972973,-10.,32.7685287918436));
#606=CARTESIAN_POINT('',(12.2972972972973,-10.,32.7685287918436));
#607=CARTESIAN_POINT('',(0.,-10.,0.));
#608=CARTESIAN_POINT('',(0.,-10.,0.));
#609=CARTESIAN_POINT('',(-13.,0.,34.6410161513775));
#610=CARTESIAN_POINT('',(-15.,0.,34.6410161513775));
#611=CARTESIAN_POINT('',(-13.,-10.,34.6410161513775));
#612=CARTESIAN_POINT('',(-15.,-10.,34.6410161513775));
#613=CARTESIAN_POINT('',(-15.,-10.,34.6410161513775));
#614=CARTESIAN_POINT('',(-13.,-10.,34.6410161513775));
#615=CARTESIAN_POINT('',(13.,0.,34.6410161513775));
#616=CARTESIAN_POINT('',(15.,0.,34.6410161513775));
#617=CARTESIAN_POINT('',(15.,-10.,34.6410161513775));
#618=CARTESIAN_POINT('',(15.,-10.,34.6410161513775));
#619=CARTESIAN_POINT('',(13.,-10.,34.6410161513775));
#620=CARTESIAN_POINT('',(13.,-10.,34.6410161513775));
#621=CARTESIAN_POINT('',(-15.,0.,36.));
#622=CARTESIAN_POINT('',(-15.,0.,36.));
#623=CARTESIAN_POINT('',(-15.,-10.,36.));
#624=CARTESIAN_POINT('',(-15.,-10.,36.));
#625=CARTESIAN_POINT('',(-15.,-10.,36.));
#626=CARTESIAN_POINT('',(-15.,-10.,36.));
#627=CARTESIAN_POINT('',(15.,0.,34.6410161513775));
#628=CARTESIAN_POINT('',(15.,0.,36.));
#629=CARTESIAN_POINT('',(15.,-10.,36.));
#630=CARTESIAN_POINT('',(15.,-10.,36.));
#631=CARTESIAN_POINT('',(15.,-10.,34.6410161513775));
#632=CARTESIAN_POINT('',(15.,-10.,34.6410161513775));
#633=CARTESIAN_POINT('',(13.,0.,36.));
#634=CARTESIAN_POINT('',(13.,0.,38.));
#635=CARTESIAN_POINT('',(13.,-10.,38.));
#636=CARTESIAN_POINT('',(13.,-10.,38.));
#637=CARTESIAN_POINT('',(13.,-10.,36.));
#638=CARTESIAN_POINT('',(13.,-10.,36.));
#639=CARTESIAN_POINT('',(13.,0.,38.));
#640=CARTESIAN_POINT('',(8.,0.,38.));
#641=CARTESIAN_POINT('',(8.,-10.,38.));
#642=CARTESIAN_POINT('',(8.,-10.,38.));
#643=CARTESIAN_POINT('',(13.,-10.,38.));
#644=CARTESIAN_POINT('',(13.,-10.,38.));
#645=CARTESIAN_POINT('',(8.,0.,40.));
#646=CARTESIAN_POINT('',(6.,0.,40.));
#647=CARTESIAN_POINT('',(6.,-10.,40.));
#648=CARTESIAN_POINT('',(6.,-10.,40.));
#649=CARTESIAN_POINT('',(8.,-10.,40.));
#650=CARTESIAN_POINT('',(8.,-10.,40.));
#651=CARTESIAN_POINT('',(6.,0.,40.));
#652=CARTESIAN_POINT('',(6.,0.,52.3729833462074));
#653=CARTESIAN_POINT('',(6.,-10.,52.3729833462074));
#654=CARTESIAN_POINT('',(6.,-10.,52.3729833462074));
#655=CARTESIAN_POINT('',(6.,-10.,40.));
#656=CARTESIAN_POINT('',(6.,-10.,40.));
#657=CARTESIAN_POINT('',(5.,0.,52.3729833462074));
#658=CARTESIAN_POINT('',(5.,0.,53.3729833462074));
#659=CARTESIAN_POINT('',(5.,-10.,53.3729833462074));
#660=CARTESIAN_POINT('',(5.,-10.,53.3729833462074));
#661=CARTESIAN_POINT('',(5.,-10.,52.3729833462074));
#662=CARTESIAN_POINT('',(5.,-10.,52.3729833462074));
#663=CARTESIAN_POINT('',(0.,0.,41.5));
#664=CARTESIAN_POINT('',(4.,0.,41.5));
#665=CARTESIAN_POINT('',(0.,-10.,41.5));
#666=CARTESIAN_POINT('',(4.,-10.,41.5));
#667=CARTESIAN_POINT('',(0.,-10.,41.5));
#668=CARTESIAN_POINT('',(-2.,0.,53.3729833462074));
#669=CARTESIAN_POINT('',(-5.,0.,53.3729833462074));
#670=CARTESIAN_POINT('',(-5.,-10.,53.3729833462074));
#671=CARTESIAN_POINT('',(-5.,-10.,53.3729833462074));
#672=CARTESIAN_POINT('',(5.,-10.,53.3729833462074));
#673=CARTESIAN_POINT('',(-2.,-10.,53.3729833462074));
#674=CARTESIAN_POINT('',(-5.,0.,52.3729833462074));
#675=CARTESIAN_POINT('',(-6.,0.,52.3729833462074));
#676=CARTESIAN_POINT('',(-6.,-10.,52.3729833462074));
#677=CARTESIAN_POINT('',(-6.,-10.,52.3729833462074));
#678=CARTESIAN_POINT('',(-5.,-10.,52.3729833462074));
#679=CARTESIAN_POINT('',(-5.,-10.,52.3729833462074));
#680=CARTESIAN_POINT('',(-6.,0.,52.3729833462074));
#681=CARTESIAN_POINT('',(-6.,0.,40.));
#682=CARTESIAN_POINT('',(-6.,-10.,40.));
#683=CARTESIAN_POINT('',(-6.,-10.,40.));
#684=CARTESIAN_POINT('',(-6.,-10.,52.3729833462074));
#685=CARTESIAN_POINT('',(-6.,-10.,52.3729833462074));
#686=CARTESIAN_POINT('',(-8.,0.,40.));
#687=CARTESIAN_POINT('',(-8.,0.,38.));
#688=CARTESIAN_POINT('',(-8.,-10.,38.));
#689=CARTESIAN_POINT('',(-8.,-10.,38.));
#690=CARTESIAN_POINT('',(-8.,-10.,40.));
#691=CARTESIAN_POINT('',(-8.,-10.,40.));
#692=CARTESIAN_POINT('',(-8.,0.,38.));
#693=CARTESIAN_POINT('',(-13.,0.,38.));
#694=CARTESIAN_POINT('',(-13.,-10.,38.));
#695=CARTESIAN_POINT('',(-13.,-10.,38.));
#696=CARTESIAN_POINT('',(-8.,-10.,38.));
#697=CARTESIAN_POINT('',(-8.,-10.,38.));
#698=CARTESIAN_POINT('',(-13.,0.,36.));
#699=CARTESIAN_POINT('',(-13.,-10.,36.));
#700=CARTESIAN_POINT('',(-13.,-10.,36.));
#701=CARTESIAN_POINT('',(-13.,-10.,34.6410161513775));
#702=CARTESIAN_POINT('',(-13.,0.,34.6410161513775));
#703=(
GEOMETRIC_REPRESENTATION_CONTEXT(3)
GLOBAL_UNCERTAINTY_ASSIGNED_CONTEXT((#704))
GLOBAL_UNIT_ASSIGNED_CONTEXT((#710,#706,#705))
REPRESENTATION_CONTEXT('1','TOP_LEVEL_ASSEMBLY_PART')
);
#704=UNCERTAINTY_MEASURE_WITH_UNIT(LENGTH_MEASURE(2.E-5),#710,
'DISTANCE_ACCURACY_VALUE','Maximum Tolerance applied to model');
#705=(
NAMED_UNIT(*)
SI_UNIT($,.STERADIAN.)
SOLID_ANGLE_UNIT()
);
#706=(
CONVERSION_BASED_UNIT('DEGREE',#708)
NAMED_UNIT(#707)
PLANE_ANGLE_UNIT()
);
#707=DIMENSIONAL_EXPONENTS(0.,0.,0.,0.,0.,0.,0.);
#708=PLANE_ANGLE_MEASURE_WITH_UNIT(PLANE_ANGLE_MEASURE(0.0174532925),#709);
#709=(
NAMED_UNIT(*)
PLANE_ANGLE_UNIT()
SI_UNIT($,.RADIAN.)
);
#710=(
LENGTH_UNIT()
NAMED_UNIT(*)
SI_UNIT(.MILLI.,.METRE.)
);
ENDSEC;
END-ISO-10303-21;
