ISO-10303-21;
HEADER;
/* Generated by software containing ST-Developer
 * from STEP Tools, Inc. (www.steptools.com) 
 */
/* OPTION: using custom schema-name function */

FILE_DESCRIPTION(
/* description */ (''),
/* implementation_level */ '2;1');

FILE_NAME(
/* name */ '2.stp',
/* time_stamp */ '2026-07-04T15:07:41+05:00',
/* author */ (''),
/* organization */ (''),
/* preprocessor_version */ 'ST-DEVELOPER v16',
/* originating_system */ 'SIEMENS PLM Software NX 10.0',
/* authorisation */ '');

FILE_SCHEMA (('AP203_CONFIGURATION_CONTROLLED_3D_DESIGN_OF_MECHANICAL_PARTS_AND_ASSEMBLIES_MIM_LF { 1 0 10303 403 2 1 2}'));
ENDSEC;

DATA;
#10=PROPERTY_DEFINITION_REPRESENTATION(#14,#12);
#11=PROPERTY_DEFINITION_REPRESENTATION(#15,#13);
#12=REPRESENTATION('',(#16),#707);
#13=REPRESENTATION('',(#17),#707);
#14=PROPERTY_DEFINITION('pmi validation property','',#89);
#15=PROPERTY_DEFINITION('pmi validation property','',#89);
#16=VALUE_REPRESENTATION_ITEM('number of annotations',COUNT_MEASURE(0.));
#17=VALUE_REPRESENTATION_ITEM('number of views',COUNT_MEASURE(0.));
#18=SHAPE_REPRESENTATION_RELATIONSHIP('None',
'relationship between Hi066CDEFEn31k-None and Hi066CDEFEn31k-None',#100,
#19);
#19=ADVANCED_BREP_SHAPE_REPRESENTATION('Hi066CDEFEn31k-None',(#101),#707);
#20=CC_DESIGN_APPROVAL(#32,(#90));
#21=CC_DESIGN_APPROVAL(#33,(#92));
#22=CC_DESIGN_APPROVAL(#34,(#39));
#23=APPROVAL_PERSON_ORGANIZATION(#77,#32,#26);
#24=APPROVAL_PERSON_ORGANIZATION(#78,#33,#27);
#25=APPROVAL_PERSON_ORGANIZATION(#79,#34,#28);
#26=APPROVAL_ROLE('approver');
#27=APPROVAL_ROLE('approver');
#28=APPROVAL_ROLE('approver');
#29=APPROVAL_DATE_TIME(#47,#32);
#30=APPROVAL_DATE_TIME(#48,#33);
#31=APPROVAL_DATE_TIME(#49,#34);
#32=APPROVAL(#35,' ');
#33=APPROVAL(#36,' ');
#34=APPROVAL(#37,' ');
#35=APPROVAL_STATUS('not_yet_approved');
#36=APPROVAL_STATUS('not_yet_approved');
#37=APPROVAL_STATUS('not_yet_approved');
#38=CC_DESIGN_SECURITY_CLASSIFICATION(#39,(#92));
#39=SECURITY_CLASSIFICATION(' ',' ',#40);
#40=SECURITY_CLASSIFICATION_LEVEL('confidential');
#41=CC_DESIGN_DATE_AND_TIME_ASSIGNMENT(#45,#43,(#90));
#42=CC_DESIGN_DATE_AND_TIME_ASSIGNMENT(#46,#44,(#39));
#43=DATE_TIME_ROLE('creation_date');
#44=DATE_TIME_ROLE('classification_date');
#45=DATE_AND_TIME(#60,#50);
#46=DATE_AND_TIME(#61,#51);
#47=DATE_AND_TIME(#62,#52);
#48=DATE_AND_TIME(#63,#53);
#49=DATE_AND_TIME(#64,#54);
#50=LOCAL_TIME(0,0,0.,#55);
#51=LOCAL_TIME(0,0,0.,#56);
#52=LOCAL_TIME(0,0,0.,#57);
#53=LOCAL_TIME(0,0,0.,#58);
#54=LOCAL_TIME(0,0,0.,#59);
#55=COORDINATED_UNIVERSAL_TIME_OFFSET(0,0,.BEHIND.);
#56=COORDINATED_UNIVERSAL_TIME_OFFSET(0,0,.BEHIND.);
#57=COORDINATED_UNIVERSAL_TIME_OFFSET(0,0,.BEHIND.);
#58=COORDINATED_UNIVERSAL_TIME_OFFSET(0,0,.BEHIND.);
#59=COORDINATED_UNIVERSAL_TIME_OFFSET(0,0,.BEHIND.);
#60=CALENDAR_DATE(0,1,1);
#61=CALENDAR_DATE(0,1,1);
#62=CALENDAR_DATE(0,1,1);
#63=CALENDAR_DATE(0,1,1);
#64=CALENDAR_DATE(0,1,1);
#65=CC_DESIGN_PERSON_AND_ORGANIZATION_ASSIGNMENT(#73,#69,(#90,#92));
#66=CC_DESIGN_PERSON_AND_ORGANIZATION_ASSIGNMENT(#74,#70,(#94));
#67=CC_DESIGN_PERSON_AND_ORGANIZATION_ASSIGNMENT(#75,#71,(#92));
#68=CC_DESIGN_PERSON_AND_ORGANIZATION_ASSIGNMENT(#76,#72,(#39));
#69=PERSON_AND_ORGANIZATION_ROLE('creator');
#70=PERSON_AND_ORGANIZATION_ROLE('design_owner');
#71=PERSON_AND_ORGANIZATION_ROLE('design_supplier');
#72=PERSON_AND_ORGANIZATION_ROLE('classification_officer');
#73=PERSON_AND_ORGANIZATION(#87,#80);
#74=PERSON_AND_ORGANIZATION(#87,#81);
#75=PERSON_AND_ORGANIZATION(#87,#82);
#76=PERSON_AND_ORGANIZATION(#87,#83);
#77=PERSON_AND_ORGANIZATION(#87,#84);
#78=PERSON_AND_ORGANIZATION(#87,#85);
#79=PERSON_AND_ORGANIZATION(#87,#86);
#80=ORGANIZATION(' ',' ',' ');
#81=ORGANIZATION(' ',' ',' ');
#82=ORGANIZATION(' ',' ',' ');
#83=ORGANIZATION(' ',' ',' ');
#84=ORGANIZATION(' ',' ',' ');
#85=ORGANIZATION(' ',' ',' ');
#86=ORGANIZATION(' ',' ',' ');
#87=PERSON(' ',' ',' ',(' '),$,$);
#88=SHAPE_DEFINITION_REPRESENTATION(#89,#100);
#89=PRODUCT_DEFINITION_SHAPE('','',#90);
#90=PRODUCT_DEFINITION(' ','',#92,#91);
#91=DESIGN_CONTEXT('',#99,'design');
#92=PRODUCT_DEFINITION_FORMATION_WITH_SPECIFIED_SOURCE(' ',' ',#94,
 .NOT_KNOWN.);
#93=PRODUCT_RELATED_PRODUCT_CATEGORY('detail','',(#94));
#94=PRODUCT('Hi066CDEFEn31k','Hi066CDEFEn31k',' ',(#97));
#95=PRODUCT_CATEGORY('part',' ');
#96=PRODUCT_CATEGORY(' ','');
#97=MECHANICAL_CONTEXT(' ',#99,'mechanical');
#98=APPLICATION_PROTOCOL_DEFINITION('international standard',
'config_control_design',2010,#99);
#99=APPLICATION_CONTEXT(
'configuration controlled 3D designs of mechanical parts and assemblie
s');
#100=SHAPE_REPRESENTATION('Hi066CDEFEn31k-None',(#445),#707);
#101=MANIFOLD_SOLID_BREP('',#102);
#102=CLOSED_SHELL('',(#116,#117,#118,#119,#120,#121,#122,#123,#124,#125,
#126,#127,#128,#129,#130,#131,#132,#133,#134));
#103=FACE_BOUND('',#171,.T.);
#104=FACE_BOUND('',#172,.T.);
#105=FACE_BOUND('',#177,.T.);
#106=FACE_BOUND('',#178,.T.);
#107=FACE_BOUND('',#179,.T.);
#108=FACE_BOUND('',#180,.T.);
#109=PLANE('',#452);
#110=PLANE('',#456);
#111=PLANE('',#460);
#112=PLANE('',#467);
#113=PLANE('',#471);
#114=PLANE('',#479);
#115=PLANE('',#484);
#116=ADVANCED_FACE('',(#147),#135,.T.);
#117=ADVANCED_FACE('',(#148),#136,.T.);
#118=ADVANCED_FACE('',(#149),#109,.F.);
#119=ADVANCED_FACE('',(#150),#137,.F.);
#120=ADVANCED_FACE('',(#151),#110,.F.);
#121=ADVANCED_FACE('',(#152),#138,.F.);
#122=ADVANCED_FACE('',(#153),#111,.F.);
#123=ADVANCED_FACE('',(#154),#139,.T.);
#124=ADVANCED_FACE('',(#103,#104),#140,.F.);
#125=ADVANCED_FACE('',(#155),#112,.F.);
#126=ADVANCED_FACE('',(#156),#141,.T.);
#127=ADVANCED_FACE('',(#157),#113,.F.);
#128=ADVANCED_FACE('',(#158),#142,.F.);
#129=ADVANCED_FACE('',(#105,#106),#114,.F.);
#130=ADVANCED_FACE('',(#107,#108),#115,.T.);
#131=ADVANCED_FACE('',(#159),#143,.T.);
#132=ADVANCED_FACE('',(#160),#144,.T.);
#133=ADVANCED_FACE('',(#161),#145,.T.);
#134=ADVANCED_FACE('',(#162),#146,.T.);
#135=CYLINDRICAL_SURFACE('',#448,37.4831333152641);
#136=CYLINDRICAL_SURFACE('',#451,37.4831333152641);
#137=CYLINDRICAL_SURFACE('',#455,28.5);
#138=CYLINDRICAL_SURFACE('',#459,4.);
#139=CYLINDRICAL_SURFACE('',#463,1.00000000000001);
#140=CYLINDRICAL_SURFACE('',#466,3.);
#141=CYLINDRICAL_SURFACE('',#470,0.999999999999999);
#142=CYLINDRICAL_SURFACE('',#474,4.);
#143=CYLINDRICAL_SURFACE('',#485,2.);
#144=CYLINDRICAL_SURFACE('',#486,2.);
#145=CYLINDRICAL_SURFACE('',#487,2.);
#146=CYLINDRICAL_SURFACE('',#488,2.);
#147=FACE_OUTER_BOUND('',#163,.T.);
#148=FACE_OUTER_BOUND('',#164,.T.);
#149=FACE_OUTER_BOUND('',#165,.T.);
#150=FACE_OUTER_BOUND('',#166,.T.);
#151=FACE_OUTER_BOUND('',#167,.T.);
#152=FACE_OUTER_BOUND('',#168,.T.);
#153=FACE_OUTER_BOUND('',#169,.T.);
#154=FACE_OUTER_BOUND('',#170,.T.);
#155=FACE_OUTER_BOUND('',#173,.T.);
#156=FACE_OUTER_BOUND('',#174,.T.);
#157=FACE_OUTER_BOUND('',#175,.T.);
#158=FACE_OUTER_BOUND('',#176,.T.);
#159=FACE_OUTER_BOUND('',#181,.T.);
#160=FACE_OUTER_BOUND('',#182,.T.);
#161=FACE_OUTER_BOUND('',#183,.T.);
#162=FACE_OUTER_BOUND('',#184,.T.);
#163=EDGE_LOOP('',(#237,#238,#239,#240));
#164=EDGE_LOOP('',(#241,#242,#243,#244));
#165=EDGE_LOOP('',(#245,#246,#247,#248));
#166=EDGE_LOOP('',(#249,#250,#251,#252));
#167=EDGE_LOOP('',(#253,#254,#255,#256));
#168=EDGE_LOOP('',(#257,#258,#259,#260));
#169=EDGE_LOOP('',(#261,#262,#263,#264));
#170=EDGE_LOOP('',(#265,#266,#267,#268));
#171=EDGE_LOOP('',(#269));
#172=EDGE_LOOP('',(#270));
#173=EDGE_LOOP('',(#271,#272,#273,#274));
#174=EDGE_LOOP('',(#275,#276,#277,#278));
#175=EDGE_LOOP('',(#279,#280,#281,#282));
#176=EDGE_LOOP('',(#283,#284,#285,#286));
#177=EDGE_LOOP('',(#287));
#178=EDGE_LOOP('',(#288,#289,#290,#291,#292,#293,#294,#295,#296,#297,#298,
#299,#300,#301,#302,#303));
#179=EDGE_LOOP('',(#304,#305,#306,#307,#308,#309,#310,#311,#312,#313,#314,
#315,#316,#317,#318,#319));
#180=EDGE_LOOP('',(#320));
#181=EDGE_LOOP('',(#321,#322,#323,#324));
#182=EDGE_LOOP('',(#325,#326,#327,#328));
#183=EDGE_LOOP('',(#329,#330,#331,#332));
#184=EDGE_LOOP('',(#333,#334,#335,#336));
#185=LINE('',#607,#211);
#186=LINE('',#611,#212);
#187=LINE('',#616,#213);
#188=LINE('',#620,#214);
#189=LINE('',#622,#215);
#190=LINE('',#625,#216);
#191=LINE('',#627,#217);
#192=LINE('',#629,#218);
#193=LINE('',#634,#219);
#194=LINE('',#638,#220);
#195=LINE('',#640,#221);
#196=LINE('',#643,#222);
#197=LINE('',#645,#223);
#198=LINE('',#647,#224);
#199=LINE('',#651,#225);
#200=LINE('',#655,#226);
#201=LINE('',#657,#227);
#202=LINE('',#659,#228);
#203=LINE('',#663,#229);
#204=LINE('',#672,#230);
#205=LINE('',#674,#231);
#206=LINE('',#676,#232);
#207=LINE('',#680,#233);
#208=LINE('',#684,#234);
#209=LINE('',#686,#235);
#210=LINE('',#688,#236);
#211=VECTOR('',#493,1.);
#212=VECTOR('',#496,1.);
#213=VECTOR('',#501,1.);
#214=VECTOR('',#504,1.);
#215=VECTOR('',#507,1.);
#216=VECTOR('',#508,1.);
#217=VECTOR('',#509,1.);
#218=VECTOR('',#510,1.);
#219=VECTOR('',#515,1.);
#220=VECTOR('',#518,1.);
#221=VECTOR('',#521,1.);
#222=VECTOR('',#522,1.);
#223=VECTOR('',#523,1.);
#224=VECTOR('',#524,1.);
#225=VECTOR('',#529,1.);
#226=VECTOR('',#534,1.);
#227=VECTOR('',#535,1.);
#228=VECTOR('',#536,1.);
#229=VECTOR('',#541,1.);
#230=VECTOR('',#552,1.);
#231=VECTOR('',#553,1.);
#232=VECTOR('',#554,1.);
#233=VECTOR('',#559,1.);
#234=VECTOR('',#564,1.);
#235=VECTOR('',#565,1.);
#236=VECTOR('',#566,1.);
#237=ORIENTED_EDGE('',*,*,#371,.T.);
#238=ORIENTED_EDGE('',*,*,#372,.T.);
#239=ORIENTED_EDGE('',*,*,#373,.F.);
#240=ORIENTED_EDGE('',*,*,#374,.T.);
#241=ORIENTED_EDGE('',*,*,#375,.F.);
#242=ORIENTED_EDGE('',*,*,#376,.T.);
#243=ORIENTED_EDGE('',*,*,#377,.T.);
#244=ORIENTED_EDGE('',*,*,#378,.F.);
#245=ORIENTED_EDGE('',*,*,#379,.F.);
#246=ORIENTED_EDGE('',*,*,#380,.T.);
#247=ORIENTED_EDGE('',*,*,#381,.T.);
#248=ORIENTED_EDGE('',*,*,#382,.T.);
#249=ORIENTED_EDGE('',*,*,#383,.T.);
#250=ORIENTED_EDGE('',*,*,#384,.T.);
#251=ORIENTED_EDGE('',*,*,#385,.F.);
#252=ORIENTED_EDGE('',*,*,#386,.T.);
#253=ORIENTED_EDGE('',*,*,#387,.T.);
#254=ORIENTED_EDGE('',*,*,#388,.T.);
#255=ORIENTED_EDGE('',*,*,#389,.F.);
#256=ORIENTED_EDGE('',*,*,#390,.T.);
#257=ORIENTED_EDGE('',*,*,#391,.T.);
#258=ORIENTED_EDGE('',*,*,#392,.F.);
#259=ORIENTED_EDGE('',*,*,#393,.F.);
#260=ORIENTED_EDGE('',*,*,#378,.T.);
#261=ORIENTED_EDGE('',*,*,#394,.T.);
#262=ORIENTED_EDGE('',*,*,#395,.F.);
#263=ORIENTED_EDGE('',*,*,#396,.F.);
#264=ORIENTED_EDGE('',*,*,#392,.T.);
#265=ORIENTED_EDGE('',*,*,#397,.T.);
#266=ORIENTED_EDGE('',*,*,#398,.F.);
#267=ORIENTED_EDGE('',*,*,#399,.F.);
#268=ORIENTED_EDGE('',*,*,#395,.T.);
#269=ORIENTED_EDGE('',*,*,#400,.T.);
#270=ORIENTED_EDGE('',*,*,#401,.F.);
#271=ORIENTED_EDGE('',*,*,#402,.T.);
#272=ORIENTED_EDGE('',*,*,#403,.F.);
#273=ORIENTED_EDGE('',*,*,#404,.F.);
#274=ORIENTED_EDGE('',*,*,#398,.T.);
#275=ORIENTED_EDGE('',*,*,#405,.T.);
#276=ORIENTED_EDGE('',*,*,#406,.F.);
#277=ORIENTED_EDGE('',*,*,#407,.F.);
#278=ORIENTED_EDGE('',*,*,#403,.T.);
#279=ORIENTED_EDGE('',*,*,#408,.T.);
#280=ORIENTED_EDGE('',*,*,#409,.F.);
#281=ORIENTED_EDGE('',*,*,#410,.F.);
#282=ORIENTED_EDGE('',*,*,#406,.T.);
#283=ORIENTED_EDGE('',*,*,#411,.T.);
#284=ORIENTED_EDGE('',*,*,#374,.F.);
#285=ORIENTED_EDGE('',*,*,#412,.F.);
#286=ORIENTED_EDGE('',*,*,#409,.T.);
#287=ORIENTED_EDGE('',*,*,#401,.T.);
#288=ORIENTED_EDGE('',*,*,#389,.T.);
#289=ORIENTED_EDGE('',*,*,#413,.T.);
#290=ORIENTED_EDGE('',*,*,#375,.T.);
#291=ORIENTED_EDGE('',*,*,#393,.T.);
#292=ORIENTED_EDGE('',*,*,#396,.T.);
#293=ORIENTED_EDGE('',*,*,#399,.T.);
#294=ORIENTED_EDGE('',*,*,#404,.T.);
#295=ORIENTED_EDGE('',*,*,#407,.T.);
#296=ORIENTED_EDGE('',*,*,#410,.T.);
#297=ORIENTED_EDGE('',*,*,#412,.T.);
#298=ORIENTED_EDGE('',*,*,#373,.T.);
#299=ORIENTED_EDGE('',*,*,#414,.T.);
#300=ORIENTED_EDGE('',*,*,#379,.T.);
#301=ORIENTED_EDGE('',*,*,#415,.T.);
#302=ORIENTED_EDGE('',*,*,#385,.T.);
#303=ORIENTED_EDGE('',*,*,#416,.T.);
#304=ORIENTED_EDGE('',*,*,#402,.F.);
#305=ORIENTED_EDGE('',*,*,#397,.F.);
#306=ORIENTED_EDGE('',*,*,#394,.F.);
#307=ORIENTED_EDGE('',*,*,#391,.F.);
#308=ORIENTED_EDGE('',*,*,#377,.F.);
#309=ORIENTED_EDGE('',*,*,#417,.T.);
#310=ORIENTED_EDGE('',*,*,#387,.F.);
#311=ORIENTED_EDGE('',*,*,#418,.T.);
#312=ORIENTED_EDGE('',*,*,#383,.F.);
#313=ORIENTED_EDGE('',*,*,#419,.T.);
#314=ORIENTED_EDGE('',*,*,#381,.F.);
#315=ORIENTED_EDGE('',*,*,#420,.T.);
#316=ORIENTED_EDGE('',*,*,#371,.F.);
#317=ORIENTED_EDGE('',*,*,#411,.F.);
#318=ORIENTED_EDGE('',*,*,#408,.F.);
#319=ORIENTED_EDGE('',*,*,#405,.F.);
#320=ORIENTED_EDGE('',*,*,#400,.F.);
#321=ORIENTED_EDGE('',*,*,#413,.F.);
#322=ORIENTED_EDGE('',*,*,#388,.F.);
#323=ORIENTED_EDGE('',*,*,#417,.F.);
#324=ORIENTED_EDGE('',*,*,#376,.F.);
#325=ORIENTED_EDGE('',*,*,#416,.F.);
#326=ORIENTED_EDGE('',*,*,#384,.F.);
#327=ORIENTED_EDGE('',*,*,#418,.F.);
#328=ORIENTED_EDGE('',*,*,#390,.F.);
#329=ORIENTED_EDGE('',*,*,#414,.F.);
#330=ORIENTED_EDGE('',*,*,#372,.F.);
#331=ORIENTED_EDGE('',*,*,#420,.F.);
#332=ORIENTED_EDGE('',*,*,#380,.F.);
#333=ORIENTED_EDGE('',*,*,#415,.F.);
#334=ORIENTED_EDGE('',*,*,#382,.F.);
#335=ORIENTED_EDGE('',*,*,#419,.F.);
#336=ORIENTED_EDGE('',*,*,#386,.F.);
#337=VERTEX_POINT('',#605);
#338=VERTEX_POINT('',#606);
#339=VERTEX_POINT('',#608);
#340=VERTEX_POINT('',#610);
#341=VERTEX_POINT('',#614);
#342=VERTEX_POINT('',#615);
#343=VERTEX_POINT('',#617);
#344=VERTEX_POINT('',#619);
#345=VERTEX_POINT('',#623);
#346=VERTEX_POINT('',#624);
#347=VERTEX_POINT('',#626);
#348=VERTEX_POINT('',#628);
#349=VERTEX_POINT('',#632);
#350=VERTEX_POINT('',#633);
#351=VERTEX_POINT('',#635);
#352=VERTEX_POINT('',#637);
#353=VERTEX_POINT('',#641);
#354=VERTEX_POINT('',#642);
#355=VERTEX_POINT('',#644);
#356=VERTEX_POINT('',#646);
#357=VERTEX_POINT('',#650);
#358=VERTEX_POINT('',#652);
#359=VERTEX_POINT('',#656);
#360=VERTEX_POINT('',#658);
#361=VERTEX_POINT('',#662);
#362=VERTEX_POINT('',#664);
#363=VERTEX_POINT('',#668);
#364=VERTEX_POINT('',#670);
#365=VERTEX_POINT('',#673);
#366=VERTEX_POINT('',#675);
#367=VERTEX_POINT('',#679);
#368=VERTEX_POINT('',#681);
#369=VERTEX_POINT('',#685);
#370=VERTEX_POINT('',#687);
#371=EDGE_CURVE('',#337,#338,#421,.T.);
#372=EDGE_CURVE('',#338,#339,#185,.T.);
#373=EDGE_CURVE('',#340,#339,#422,.T.);
#374=EDGE_CURVE('',#340,#337,#186,.T.);
#375=EDGE_CURVE('',#341,#342,#423,.T.);
#376=EDGE_CURVE('',#341,#343,#187,.T.);
#377=EDGE_CURVE('',#343,#344,#424,.T.);
#378=EDGE_CURVE('',#342,#344,#188,.T.);
#379=EDGE_CURVE('',#345,#346,#189,.T.);
#380=EDGE_CURVE('',#345,#347,#190,.T.);
#381=EDGE_CURVE('',#347,#348,#191,.T.);
#382=EDGE_CURVE('',#348,#346,#192,.T.);
#383=EDGE_CURVE('',#349,#350,#425,.T.);
#384=EDGE_CURVE('',#350,#351,#193,.T.);
#385=EDGE_CURVE('',#352,#351,#426,.T.);
#386=EDGE_CURVE('',#352,#349,#194,.T.);
#387=EDGE_CURVE('',#353,#354,#195,.T.);
#388=EDGE_CURVE('',#354,#355,#196,.T.);
#389=EDGE_CURVE('',#356,#355,#197,.T.);
#390=EDGE_CURVE('',#356,#353,#198,.T.);
#391=EDGE_CURVE('',#344,#357,#427,.T.);
#392=EDGE_CURVE('',#358,#357,#199,.T.);
#393=EDGE_CURVE('',#342,#358,#428,.T.);
#394=EDGE_CURVE('',#357,#359,#200,.T.);
#395=EDGE_CURVE('',#360,#359,#201,.T.);
#396=EDGE_CURVE('',#358,#360,#202,.T.);
#397=EDGE_CURVE('',#359,#361,#429,.T.);
#398=EDGE_CURVE('',#362,#361,#203,.T.);
#399=EDGE_CURVE('',#360,#362,#430,.T.);
#400=EDGE_CURVE('',#363,#363,#431,.T.);
#401=EDGE_CURVE('',#364,#364,#432,.T.);
#402=EDGE_CURVE('',#361,#365,#204,.T.);
#403=EDGE_CURVE('',#366,#365,#205,.T.);
#404=EDGE_CURVE('',#362,#366,#206,.T.);
#405=EDGE_CURVE('',#365,#367,#433,.T.);
#406=EDGE_CURVE('',#368,#367,#207,.T.);
#407=EDGE_CURVE('',#366,#368,#434,.T.);
#408=EDGE_CURVE('',#367,#369,#208,.T.);
#409=EDGE_CURVE('',#370,#369,#209,.T.);
#410=EDGE_CURVE('',#368,#370,#210,.T.);
#411=EDGE_CURVE('',#369,#337,#435,.T.);
#412=EDGE_CURVE('',#370,#340,#436,.T.);
#413=EDGE_CURVE('',#355,#341,#437,.T.);
#414=EDGE_CURVE('',#339,#345,#438,.T.);
#415=EDGE_CURVE('',#346,#352,#439,.T.);
#416=EDGE_CURVE('',#351,#356,#440,.T.);
#417=EDGE_CURVE('',#343,#354,#441,.T.);
#418=EDGE_CURVE('',#353,#350,#442,.T.);
#419=EDGE_CURVE('',#349,#348,#443,.T.);
#420=EDGE_CURVE('',#347,#338,#444,.T.);
#421=CIRCLE('',#446,37.4831333152641);
#422=CIRCLE('',#447,37.4831333152641);
#423=CIRCLE('',#449,37.4831333152641);
#424=CIRCLE('',#450,37.4831333152641);
#425=CIRCLE('',#453,28.5);
#426=CIRCLE('',#454,28.5);
#427=CIRCLE('',#457,4.);
#428=CIRCLE('',#458,4.);
#429=CIRCLE('',#461,1.00000000000001);
#430=CIRCLE('',#462,1.00000000000001);
#431=CIRCLE('',#464,3.);
#432=CIRCLE('',#465,3.);
#433=CIRCLE('',#468,0.999999999999999);
#434=CIRCLE('',#469,0.999999999999999);
#435=CIRCLE('',#472,4.);
#436=CIRCLE('',#473,4.);
#437=CIRCLE('',#475,2.);
#438=CIRCLE('',#476,2.);
#439=CIRCLE('',#477,2.);
#440=CIRCLE('',#478,2.);
#441=CIRCLE('',#480,2.);
#442=CIRCLE('',#481,2.);
#443=CIRCLE('',#482,2.);
#444=CIRCLE('',#483,2.);
#445=AXIS2_PLACEMENT_3D('',#603,#489,#490);
#446=AXIS2_PLACEMENT_3D('',#604,#491,#492);
#447=AXIS2_PLACEMENT_3D('',#609,#494,#495);
#448=AXIS2_PLACEMENT_3D('',#612,#497,#498);
#449=AXIS2_PLACEMENT_3D('',#613,#499,#500);
#450=AXIS2_PLACEMENT_3D('',#618,#502,#503);
#451=AXIS2_PLACEMENT_3D('',#621,#505,#506);
#452=AXIS2_PLACEMENT_3D('',#630,#511,#512);
#453=AXIS2_PLACEMENT_3D('',#631,#513,#514);
#454=AXIS2_PLACEMENT_3D('',#636,#516,#517);
#455=AXIS2_PLACEMENT_3D('',#639,#519,#520);
#456=AXIS2_PLACEMENT_3D('',#648,#525,#526);
#457=AXIS2_PLACEMENT_3D('',#649,#527,#528);
#458=AXIS2_PLACEMENT_3D('',#653,#530,#531);
#459=AXIS2_PLACEMENT_3D('',#654,#532,#533);
#460=AXIS2_PLACEMENT_3D('',#660,#537,#538);
#461=AXIS2_PLACEMENT_3D('',#661,#539,#540);
#462=AXIS2_PLACEMENT_3D('',#665,#542,#543);
#463=AXIS2_PLACEMENT_3D('',#666,#544,#545);
#464=AXIS2_PLACEMENT_3D('',#667,#546,#547);
#465=AXIS2_PLACEMENT_3D('',#669,#548,#549);
#466=AXIS2_PLACEMENT_3D('',#671,#550,#551);
#467=AXIS2_PLACEMENT_3D('',#677,#555,#556);
#468=AXIS2_PLACEMENT_3D('',#678,#557,#558);
#469=AXIS2_PLACEMENT_3D('',#682,#560,#561);
#470=AXIS2_PLACEMENT_3D('',#683,#562,#563);
#471=AXIS2_PLACEMENT_3D('',#689,#567,#568);
#472=AXIS2_PLACEMENT_3D('',#690,#569,#570);
#473=AXIS2_PLACEMENT_3D('',#691,#571,#572);
#474=AXIS2_PLACEMENT_3D('',#692,#573,#574);
#475=AXIS2_PLACEMENT_3D('',#693,#575,#576);
#476=AXIS2_PLACEMENT_3D('',#694,#577,#578);
#477=AXIS2_PLACEMENT_3D('',#695,#579,#580);
#478=AXIS2_PLACEMENT_3D('',#696,#581,#582);
#479=AXIS2_PLACEMENT_3D('',#697,#583,#584);
#480=AXIS2_PLACEMENT_3D('',#698,#585,#586);
#481=AXIS2_PLACEMENT_3D('',#699,#587,#588);
#482=AXIS2_PLACEMENT_3D('',#700,#589,#590);
#483=AXIS2_PLACEMENT_3D('',#701,#591,#592);
#484=AXIS2_PLACEMENT_3D('',#702,#593,#594);
#485=AXIS2_PLACEMENT_3D('',#703,#595,#596);
#486=AXIS2_PLACEMENT_3D('',#704,#597,#598);
#487=AXIS2_PLACEMENT_3D('',#705,#599,#600);
#488=AXIS2_PLACEMENT_3D('',#706,#601,#602);
#489=DIRECTION('',(0.,0.,1.));
#490=DIRECTION('',(1.,0.,0.));
#491=DIRECTION('',(0.,-1.,0.));
#492=DIRECTION('',(1.,0.,-6.12323399573677E-17));
#493=DIRECTION('',(0.,-1.,0.));
#494=DIRECTION('',(0.,-1.,0.));
#495=DIRECTION('',(1.,0.,-6.12323399573677E-17));
#496=DIRECTION('',(0.,1.,0.));
#497=DIRECTION('',(0.,1.,0.));
#498=DIRECTION('',(0.,0.,1.));
#499=DIRECTION('',(0.,-1.,0.));
#500=DIRECTION('',(1.,0.,-6.12323399573677E-17));
#501=DIRECTION('',(0.,1.,0.));
#502=DIRECTION('',(0.,-1.,0.));
#503=DIRECTION('',(1.,0.,-6.12323399573677E-17));
#504=DIRECTION('',(0.,1.,0.));
#505=DIRECTION('',(0.,1.,0.));
#506=DIRECTION('',(0.,0.,1.));
#507=DIRECTION('',(1.,0.,4.8186763221578E-17));
#508=DIRECTION('',(0.,1.,0.));
#509=DIRECTION('',(1.,0.,4.8186763221578E-17));
#510=DIRECTION('',(0.,-1.,0.));
#511=DIRECTION('',(-4.8186763221578E-17,0.,1.));
#512=DIRECTION('',(1.,0.,4.81385764583564E-17));
#513=DIRECTION('',(0.,1.,0.));
#514=DIRECTION('',(1.,0.,6.12323399573677E-17));
#515=DIRECTION('',(0.,-1.,0.));
#516=DIRECTION('',(0.,1.,0.));
#517=DIRECTION('',(1.,0.,6.12323399573677E-17));
#518=DIRECTION('',(0.,1.,0.));
#519=DIRECTION('',(0.,1.,0.));
#520=DIRECTION('',(0.,0.,1.));
#521=DIRECTION('',(1.,0.,-4.8186763221578E-17));
#522=DIRECTION('',(0.,-1.,0.));
#523=DIRECTION('',(1.,0.,-4.8186763221578E-17));
#524=DIRECTION('',(0.,1.,0.));
#525=DIRECTION('',(4.8186763221578E-17,0.,1.));
#526=DIRECTION('',(1.,0.,-4.81385764583564E-17));
#527=DIRECTION('',(0.,1.,0.));
#528=DIRECTION('',(1.,0.,0.));
#529=DIRECTION('',(0.,1.,0.));
#530=DIRECTION('',(0.,1.,0.));
#531=DIRECTION('',(1.,0.,0.));
#532=DIRECTION('',(0.,1.,0.));
#533=DIRECTION('',(0.,0.,1.));
#534=DIRECTION('',(-7.8362078019457E-16,0.,1.));
#535=DIRECTION('',(0.,1.,0.));
#536=DIRECTION('',(-7.8362078019457E-16,0.,1.));
#537=DIRECTION('',(-1.,0.,-7.8362078019457E-16));
#538=DIRECTION('',(-7.83227649403528E-16,0.,1.));
#539=DIRECTION('',(0.,-1.,0.));
#540=DIRECTION('',(1.,0.,0.));
#541=DIRECTION('',(0.,1.,0.));
#542=DIRECTION('',(0.,-1.,0.));
#543=DIRECTION('',(1.,0.,0.));
#544=DIRECTION('',(0.,1.,0.));
#545=DIRECTION('',(0.,0.,1.));
#546=DIRECTION('',(0.,1.,0.));
#547=DIRECTION('',(1.,0.,0.));
#548=DIRECTION('',(0.,1.,0.));
#549=DIRECTION('',(1.,0.,0.));
#550=DIRECTION('',(0.,1.,0.));
#551=DIRECTION('',(0.,0.,0.999999999999999));
#552=DIRECTION('',(-1.,0.,0.));
#553=DIRECTION('',(0.,1.,0.));
#554=DIRECTION('',(-1.,0.,0.));
#555=DIRECTION('',(0.,0.,-1.));
#556=DIRECTION('',(-1.,0.,0.));
#557=DIRECTION('',(0.,-1.,0.));
#558=DIRECTION('',(-1.,0.,0.));
#559=DIRECTION('',(0.,1.,0.));
#560=DIRECTION('',(0.,-1.,0.));
#561=DIRECTION('',(-1.,0.,0.));
#562=DIRECTION('',(0.,1.,0.));
#563=DIRECTION('',(0.,0.,1.));
#564=DIRECTION('',(-2.11577610652534E-15,0.,-1.));
#565=DIRECTION('',(0.,1.,0.));
#566=DIRECTION('',(-2.11577610652534E-15,0.,-1.));
#567=DIRECTION('',(1.,0.,-2.11577610652534E-15));
#568=DIRECTION('',(-2.11549527895372E-15,0.,-1.));
#569=DIRECTION('',(0.,1.,0.));
#570=DIRECTION('',(1.,0.,0.));
#571=DIRECTION('',(0.,1.,0.));
#572=DIRECTION('',(1.,0.,0.));
#573=DIRECTION('',(0.,1.,0.));
#574=DIRECTION('',(0.,0.,0.999999999999999));
#575=DIRECTION('',(0.,-1.,0.));
#576=DIRECTION('',(0.,0.,1.));
#577=DIRECTION('',(0.,-1.,0.));
#578=DIRECTION('',(0.,0.,1.));
#579=DIRECTION('',(0.,-1.,0.));
#580=DIRECTION('',(0.,0.,1.));
#581=DIRECTION('',(0.,-1.,0.));
#582=DIRECTION('',(0.,0.,1.));
#583=DIRECTION('',(0.,1.,0.));
#584=DIRECTION('',(0.,0.,1.));
#585=DIRECTION('',(0.,1.,0.));
#586=DIRECTION('',(0.,0.,1.));
#587=DIRECTION('',(0.,1.,0.));
#588=DIRECTION('',(0.,0.,1.));
#589=DIRECTION('',(0.,1.,0.));
#590=DIRECTION('',(0.,0.,1.));
#591=DIRECTION('',(0.,1.,0.));
#592=DIRECTION('',(0.,0.,1.));
#593=DIRECTION('',(0.,1.,0.));
#594=DIRECTION('',(0.,0.,1.));
#595=DIRECTION('',(0.,1.,0.));
#596=DIRECTION('',(0.,0.,1.));
#597=DIRECTION('',(0.,1.,0.));
#598=DIRECTION('',(0.,0.,1.));
#599=DIRECTION('',(0.,1.,0.));
#600=DIRECTION('',(0.,0.,1.));
#601=DIRECTION('',(0.,1.,0.));
#602=DIRECTION('',(0.,0.,1.));
#603=CARTESIAN_POINT('',(0.,0.,0.));
#604=CARTESIAN_POINT('',(0.,4.,0.));
#605=CARTESIAN_POINT('',(-9.03575268299993,4.,36.3777467221586));
#606=CARTESIAN_POINT('',(-37.2442046150174,4.,4.22545923238855));
#607=CARTESIAN_POINT('',(-37.2442046150174,-4.,4.22545923238855));
#608=CARTESIAN_POINT('',(-37.2442046150174,-4.,4.22545923238855));
#609=CARTESIAN_POINT('',(0.,-4.,0.));
#610=CARTESIAN_POINT('',(-9.03575268299993,-4.,36.3777467221586));
#611=CARTESIAN_POINT('',(-9.03575268299993,-4.,36.3777467221586));
#612=CARTESIAN_POINT('',(0.,-4.,0.));
#613=CARTESIAN_POINT('',(0.,-4.,0.));
#614=CARTESIAN_POINT('',(37.2442046150174,-4.,4.22545923238855));
#615=CARTESIAN_POINT('',(9.03575268299993,-4.,36.3777467221586));
#616=CARTESIAN_POINT('',(37.2442046150174,-4.,4.22545923238855));
#617=CARTESIAN_POINT('',(37.2442046150174,4.,4.22545923238855));
#618=CARTESIAN_POINT('',(0.,4.,0.));
#619=CARTESIAN_POINT('',(9.03575268299993,4.,36.3777467221586));
#620=CARTESIAN_POINT('',(9.03575268299993,-4.,36.3777467221586));
#621=CARTESIAN_POINT('',(0.,-4.,0.));
#622=CARTESIAN_POINT('',(-37.429737951659,-4.,2.));
#623=CARTESIAN_POINT('',(-35.2569532130728,-4.,2.));
#624=CARTESIAN_POINT('',(-30.2365672654817,-4.,2.));
#625=CARTESIAN_POINT('',(-35.2569532130728,-4.,2.));
#626=CARTESIAN_POINT('',(-35.2569532130728,4.,2.));
#627=CARTESIAN_POINT('',(-37.429737951659,4.,2.));
#628=CARTESIAN_POINT('',(-30.2365672654817,4.,2.));
#629=CARTESIAN_POINT('',(-30.2365672654817,-4.,2.));
#630=CARTESIAN_POINT('',(-37.429737951659,-4.,2.));
#631=CARTESIAN_POINT('',(0.,4.,0.));
#632=CARTESIAN_POINT('',(-28.253841543155,4.,3.73770491803279));
#633=CARTESIAN_POINT('',(28.253841543155,4.,3.73770491803279));
#634=CARTESIAN_POINT('',(28.253841543155,-4.,3.73770491803279));
#635=CARTESIAN_POINT('',(28.253841543155,-4.,3.73770491803279));
#636=CARTESIAN_POINT('',(0.,-4.,0.));
#637=CARTESIAN_POINT('',(-28.253841543155,-4.,3.73770491803279));
#638=CARTESIAN_POINT('',(-28.253841543155,-4.,3.73770491803279));
#639=CARTESIAN_POINT('',(0.,-4.,0.));
#640=CARTESIAN_POINT('',(28.429737951659,4.,2.));
#641=CARTESIAN_POINT('',(30.2365672654817,4.,2.));
#642=CARTESIAN_POINT('',(35.2569532130728,4.,2.));
#643=CARTESIAN_POINT('',(35.2569532130728,-4.,2.));
#644=CARTESIAN_POINT('',(35.2569532130728,-4.,2.));
#645=CARTESIAN_POINT('',(28.429737951659,-4.,2.));
#646=CARTESIAN_POINT('',(30.2365672654817,-4.,2.));
#647=CARTESIAN_POINT('',(30.2365672654817,-4.,2.));
#648=CARTESIAN_POINT('',(28.429737951659,-4.,2.));
#649=CARTESIAN_POINT('',(10.,4.,40.2597857626189));
#650=CARTESIAN_POINT('',(6.00000000000001,4.,40.259785762619));
#651=CARTESIAN_POINT('',(6.00000000000001,-4.,40.259785762619));
#652=CARTESIAN_POINT('',(6.00000000000001,-4.,40.259785762619));
#653=CARTESIAN_POINT('',(10.,-4.,40.2597857626189));
#654=CARTESIAN_POINT('',(10.,-4.,40.2597857626189));
#655=CARTESIAN_POINT('',(6.00000000000002,4.,40.259785762619));
#656=CARTESIAN_POINT('',(6.00000000000001,4.,51.3284271247462));
#657=CARTESIAN_POINT('',(6.00000000000001,-4.,51.3284271247462));
#658=CARTESIAN_POINT('',(6.00000000000001,-4.,51.3284271247462));
#659=CARTESIAN_POINT('',(6.00000000000002,-4.,40.259785762619));
#660=CARTESIAN_POINT('',(6.00000000000002,-4.,40.259785762619));
#661=CARTESIAN_POINT('',(4.99999999999999,4.,51.3284271247462));
#662=CARTESIAN_POINT('',(4.99999999999999,4.,52.3284271247462));
#663=CARTESIAN_POINT('',(4.99999999999999,-4.,52.3284271247462));
#664=CARTESIAN_POINT('',(4.99999999999999,-4.,52.3284271247462));
#665=CARTESIAN_POINT('',(4.99999999999999,-4.,51.3284271247462));
#666=CARTESIAN_POINT('',(4.99999999999999,-4.,51.3284271247462));
#667=CARTESIAN_POINT('',(0.,4.,41.5));
#668=CARTESIAN_POINT('',(3.,4.,41.5));
#669=CARTESIAN_POINT('',(0.,-4.,41.5));
#670=CARTESIAN_POINT('',(3.,-4.,41.5));
#671=CARTESIAN_POINT('',(0.,-4.,41.5));
#672=CARTESIAN_POINT('',(-1.99999999999999,4.,52.3284271247462));
#673=CARTESIAN_POINT('',(-4.99999999999999,4.,52.3284271247462));
#674=CARTESIAN_POINT('',(-4.99999999999999,-4.,52.3284271247462));
#675=CARTESIAN_POINT('',(-4.99999999999999,-4.,52.3284271247462));
#676=CARTESIAN_POINT('',(4.99999999999999,-4.,52.3284271247462));
#677=CARTESIAN_POINT('',(-1.99999999999999,-4.,52.3284271247462));
#678=CARTESIAN_POINT('',(-4.99999999999999,4.,51.3284271247462));
#679=CARTESIAN_POINT('',(-5.99999999999999,4.,51.3284271247462));
#680=CARTESIAN_POINT('',(-5.99999999999999,-4.,51.3284271247462));
#681=CARTESIAN_POINT('',(-5.99999999999999,-4.,51.3284271247462));
#682=CARTESIAN_POINT('',(-4.99999999999999,-4.,51.3284271247462));
#683=CARTESIAN_POINT('',(-4.99999999999999,-4.,51.3284271247462));
#684=CARTESIAN_POINT('',(-5.99999999999999,4.,51.3284271247462));
#685=CARTESIAN_POINT('',(-6.00000000000002,4.,40.259785762619));
#686=CARTESIAN_POINT('',(-6.00000000000002,-4.,40.259785762619));
#687=CARTESIAN_POINT('',(-6.00000000000002,-4.,40.259785762619));
#688=CARTESIAN_POINT('',(-5.99999999999999,-4.,51.3284271247462));
#689=CARTESIAN_POINT('',(-5.99999999999999,-4.,51.3284271247462));
#690=CARTESIAN_POINT('',(-10.,4.,40.2597857626189));
#691=CARTESIAN_POINT('',(-10.,-4.,40.2597857626189));
#692=CARTESIAN_POINT('',(-10.,-4.,40.2597857626189));
#693=CARTESIAN_POINT('',(35.2569532130728,-4.,4.));
#694=CARTESIAN_POINT('',(-35.2569532130728,-4.,4.));
#695=CARTESIAN_POINT('',(-30.2365672654817,-4.,4.));
#696=CARTESIAN_POINT('',(30.2365672654817,-4.,4.));
#697=CARTESIAN_POINT('',(0.,-4.,0.));
#698=CARTESIAN_POINT('',(35.2569532130728,4.,4.));
#699=CARTESIAN_POINT('',(30.2365672654817,4.,4.));
#700=CARTESIAN_POINT('',(-30.2365672654817,4.,4.));
#701=CARTESIAN_POINT('',(-35.2569532130728,4.,4.));
#702=CARTESIAN_POINT('',(0.,4.,0.));
#703=CARTESIAN_POINT('',(35.2569532130728,-4.,4.));
#704=CARTESIAN_POINT('',(30.2365672654817,-4.,4.));
#705=CARTESIAN_POINT('',(-35.2569532130728,-4.,4.));
#706=CARTESIAN_POINT('',(-30.2365672654817,-4.,4.));
#707=(
GEOMETRIC_REPRESENTATION_CONTEXT(3)
GLOBAL_UNCERTAINTY_ASSIGNED_CONTEXT((#708))
GLOBAL_UNIT_ASSIGNED_CONTEXT((#714,#710,#709))
REPRESENTATION_CONTEXT('2','TOP_LEVEL_ASSEMBLY_PART')
);
#708=UNCERTAINTY_MEASURE_WITH_UNIT(LENGTH_MEASURE(2.E-5),#714,
'DISTANCE_ACCURACY_VALUE','Maximum Tolerance applied to model');
#709=(
NAMED_UNIT(*)
SI_UNIT($,.STERADIAN.)
SOLID_ANGLE_UNIT()
);
#710=(
CONVERSION_BASED_UNIT('DEGREE',#712)
NAMED_UNIT(#711)
PLANE_ANGLE_UNIT()
);
#711=DIMENSIONAL_EXPONENTS(0.,0.,0.,0.,0.,0.,0.);
#712=PLANE_ANGLE_MEASURE_WITH_UNIT(PLANE_ANGLE_MEASURE(0.0174532925),#713);
#713=(
NAMED_UNIT(*)
PLANE_ANGLE_UNIT()
SI_UNIT($,.RADIAN.)
);
#714=(
LENGTH_UNIT()
NAMED_UNIT(*)
SI_UNIT(.MILLI.,.METRE.)
);
ENDSEC;
END-ISO-10303-21;
