ISO-10303-21;
HEADER;
/* Generated by software containing ST-Developer
 * from STEP Tools, Inc. (www.steptools.com) 
 */
/* OPTION: using custom schema-name function */

FILE_DESCRIPTION(
/* description */ (''),
/* implementation_level */ '2;1');

FILE_NAME(
/* name */ '\X2\0414043D043E\X0\_\X2\0442043E0440043C043E0437043D043E0433
043E\X0\_\X2\044104420430043A0430043D0430\X0\_\X2\043D043E0432043E0435\X0\.
stp',
/* time_stamp */ '2026-07-04T12:28:14+05:00',
/* author */ (''),
/* organization */ (''),
/* preprocessor_version */ 'ST-DEVELOPER v16',
/* originating_system */ 'SIEMENS PLM Software NX 10.0',
/* authorisation */ '');

FILE_SCHEMA (('AP203_CONFIGURATION_CONTROLLED_3D_DESIGN_OF_MECHANICAL_PARTS_AND_ASSEMBLIES_MIM_LF { 1 0 10303 403 2 1 2}'));
ENDSEC;

DATA;
#10=PROPERTY_DEFINITION_REPRESENTATION(#14,#12);
#11=PROPERTY_DEFINITION_REPRESENTATION(#15,#13);
#12=REPRESENTATION('',(#16),#785);
#13=REPRESENTATION('',(#17),#785);
#14=PROPERTY_DEFINITION('pmi validation property','',#89);
#15=PROPERTY_DEFINITION('pmi validation property','',#89);
#16=VALUE_REPRESENTATION_ITEM('number of annotations',COUNT_MEASURE(0.));
#17=VALUE_REPRESENTATION_ITEM('number of views',COUNT_MEASURE(0.));
#18=SHAPE_REPRESENTATION_RELATIONSHIP('None',
'relationship between Hi066CDEFEn2zy-None and Hi066CDEFEn2zy-None',#100,
#19);
#19=ADVANCED_BREP_SHAPE_REPRESENTATION('Hi066CDEFEn2zy-None',(#101),#785);
#20=CC_DESIGN_APPROVAL(#32,(#90));
#21=CC_DESIGN_APPROVAL(#33,(#92));
#22=CC_DESIGN_APPROVAL(#34,(#39));
#23=APPROVAL_PERSON_ORGANIZATION(#77,#32,#26);
#24=APPROVAL_PERSON_ORGANIZATION(#78,#33,#27);
#25=APPROVAL_PERSON_ORGANIZATION(#79,#34,#28);
#26=APPROVAL_ROLE('approver');
#27=APPROVAL_ROLE('approver');
#28=APPROVAL_ROLE('approver');
#29=APPROVAL_DATE_TIME(#47,#32);
#30=APPROVAL_DATE_TIME(#48,#33);
#31=APPROVAL_DATE_TIME(#49,#34);
#32=APPROVAL(#35,' ');
#33=APPROVAL(#36,' ');
#34=APPROVAL(#37,' ');
#35=APPROVAL_STATUS('not_yet_approved');
#36=APPROVAL_STATUS('not_yet_approved');
#37=APPROVAL_STATUS('not_yet_approved');
#38=CC_DESIGN_SECURITY_CLASSIFICATION(#39,(#92));
#39=SECURITY_CLASSIFICATION(' ',' ',#40);
#40=SECURITY_CLASSIFICATION_LEVEL('confidential');
#41=CC_DESIGN_DATE_AND_TIME_ASSIGNMENT(#45,#43,(#90));
#42=CC_DESIGN_DATE_AND_TIME_ASSIGNMENT(#46,#44,(#39));
#43=DATE_TIME_ROLE('creation_date');
#44=DATE_TIME_ROLE('classification_date');
#45=DATE_AND_TIME(#60,#50);
#46=DATE_AND_TIME(#61,#51);
#47=DATE_AND_TIME(#62,#52);
#48=DATE_AND_TIME(#63,#53);
#49=DATE_AND_TIME(#64,#54);
#50=LOCAL_TIME(0,0,0.,#55);
#51=LOCAL_TIME(0,0,0.,#56);
#52=LOCAL_TIME(0,0,0.,#57);
#53=LOCAL_TIME(0,0,0.,#58);
#54=LOCAL_TIME(0,0,0.,#59);
#55=COORDINATED_UNIVERSAL_TIME_OFFSET(0,0,.BEHIND.);
#56=COORDINATED_UNIVERSAL_TIME_OFFSET(0,0,.BEHIND.);
#57=COORDINATED_UNIVERSAL_TIME_OFFSET(0,0,.BEHIND.);
#58=COORDINATED_UNIVERSAL_TIME_OFFSET(0,0,.BEHIND.);
#59=COORDINATED_UNIVERSAL_TIME_OFFSET(0,0,.BEHIND.);
#60=CALENDAR_DATE(0,1,1);
#61=CALENDAR_DATE(0,1,1);
#62=CALENDAR_DATE(0,1,1);
#63=CALENDAR_DATE(0,1,1);
#64=CALENDAR_DATE(0,1,1);
#65=CC_DESIGN_PERSON_AND_ORGANIZATION_ASSIGNMENT(#73,#69,(#90,#92));
#66=CC_DESIGN_PERSON_AND_ORGANIZATION_ASSIGNMENT(#74,#70,(#94));
#67=CC_DESIGN_PERSON_AND_ORGANIZATION_ASSIGNMENT(#75,#71,(#92));
#68=CC_DESIGN_PERSON_AND_ORGANIZATION_ASSIGNMENT(#76,#72,(#39));
#69=PERSON_AND_ORGANIZATION_ROLE('creator');
#70=PERSON_AND_ORGANIZATION_ROLE('design_owner');
#71=PERSON_AND_ORGANIZATION_ROLE('design_supplier');
#72=PERSON_AND_ORGANIZATION_ROLE('classification_officer');
#73=PERSON_AND_ORGANIZATION(#87,#80);
#74=PERSON_AND_ORGANIZATION(#87,#81);
#75=PERSON_AND_ORGANIZATION(#87,#82);
#76=PERSON_AND_ORGANIZATION(#87,#83);
#77=PERSON_AND_ORGANIZATION(#87,#84);
#78=PERSON_AND_ORGANIZATION(#87,#85);
#79=PERSON_AND_ORGANIZATION(#87,#86);
#80=ORGANIZATION(' ',' ',' ');
#81=ORGANIZATION(' ',' ',' ');
#82=ORGANIZATION(' ',' ',' ');
#83=ORGANIZATION(' ',' ',' ');
#84=ORGANIZATION(' ',' ',' ');
#85=ORGANIZATION(' ',' ',' ');
#86=ORGANIZATION(' ',' ',' ');
#87=PERSON(' ',' ',' ',(' '),$,$);
#88=SHAPE_DEFINITION_REPRESENTATION(#89,#100);
#89=PRODUCT_DEFINITION_SHAPE('','',#90);
#90=PRODUCT_DEFINITION(' ','',#92,#91);
#91=DESIGN_CONTEXT('',#99,'design');
#92=PRODUCT_DEFINITION_FORMATION_WITH_SPECIFIED_SOURCE(' ',' ',#94,
 .NOT_KNOWN.);
#93=PRODUCT_RELATED_PRODUCT_CATEGORY('detail','',(#94));
#94=PRODUCT('Hi066CDEFEn2zy','Hi066CDEFEn2zy',' ',(#97));
#95=PRODUCT_CATEGORY('part',' ');
#96=PRODUCT_CATEGORY(' ','');
#97=MECHANICAL_CONTEXT(' ',#99,'mechanical');
#98=APPLICATION_PROTOCOL_DEFINITION('international standard',
'config_control_design',2010,#99);
#99=APPLICATION_CONTEXT(
'configuration controlled 3D designs of mechanical parts and assemblie
s');
#100=SHAPE_REPRESENTATION('Hi066CDEFEn2zy-None',(#470),#785);
#101=MANIFOLD_SOLID_BREP('',#102);
#102=CLOSED_SHELL('',(#130,#131,#132,#133,#134,#135,#136,#137,#138,#139,
#140,#141,#142,#143,#144,#145,#146,#147,#148,#149,#150,#151,#152,#153,#154,
#155,#156,#157));
#103=B_SPLINE_CURVE_WITH_KNOTS('',3,(#709,#710,#711,#712,#713,#714),
 .UNSPECIFIED.,.F.,.F.,(4,2,4),(0.,0.5,1.),.UNSPECIFIED.);
#104=B_SPLINE_CURVE_WITH_KNOTS('',3,(#718,#719,#720,#721,#722,#723),
 .UNSPECIFIED.,.F.,.F.,(4,2,4),(0.,0.5,1.),.UNSPECIFIED.);
#105=B_SPLINE_CURVE_WITH_KNOTS('',3,(#727,#728,#729,#730,#731,#732),
 .UNSPECIFIED.,.F.,.F.,(4,2,4),(0.,0.5,1.),.UNSPECIFIED.);
#106=B_SPLINE_CURVE_WITH_KNOTS('',3,(#736,#737,#738,#739,#740,#741),
 .UNSPECIFIED.,.F.,.F.,(4,2,4),(0.,0.5,1.),.UNSPECIFIED.);
#107=TOROIDAL_SURFACE('',#491,15.,0.5);
#108=TOROIDAL_SURFACE('',#495,18.,0.5);
#109=TOROIDAL_SURFACE('',#514,32.5,0.5);
#110=CYLINDRICAL_SURFACE('',#481,10.25);
#111=CYLINDRICAL_SURFACE('',#489,14.5);
#112=CYLINDRICAL_SURFACE('',#497,18.5);
#113=CYLINDRICAL_SURFACE('',#512,32.);
#114=CYLINDRICAL_SURFACE('',#520,35.);
#115=CYLINDRICAL_SURFACE('',#523,2.);
#116=CYLINDRICAL_SURFACE('',#526,2.);
#117=CYLINDRICAL_SURFACE('',#529,2.);
#118=CYLINDRICAL_SURFACE('',#532,2.);
#119=CONICAL_SURFACE('',#479,11.25,45.);
#120=CONICAL_SURFACE('',#483,10.25,44.9999999999999);
#121=CONICAL_SURFACE('',#487,13.5,45.);
#122=CONICAL_SURFACE('',#502,18.5,45.);
#123=CONICAL_SURFACE('',#510,31.,45.);
#124=CONICAL_SURFACE('',#518,34.,45.);
#125=CONICAL_SURFACE('',#521,35.,45.);
#126=CONICAL_SURFACE('',#524,4.,30.0000000000001);
#127=CONICAL_SURFACE('',#527,4.,30.0000000000001);
#128=CONICAL_SURFACE('',#530,4.,30.0000000000001);
#129=CONICAL_SURFACE('',#533,4.,30.0000000000001);
#130=ADVANCED_FACE('',(#163,#164,#165,#166,#167,#168),#158,.F.);
#131=ADVANCED_FACE('',(#169,#170),#119,.F.);
#132=ADVANCED_FACE('',(#171,#172),#110,.F.);
#133=ADVANCED_FACE('',(#173,#174),#120,.F.);
#134=ADVANCED_FACE('',(#175,#176),#159,.F.);
#135=ADVANCED_FACE('',(#177,#178),#121,.T.);
#136=ADVANCED_FACE('',(#179,#180),#111,.T.);
#137=ADVANCED_FACE('',(#181,#182),#107,.F.);
#138=ADVANCED_FACE('',(#183,#184),#160,.F.);
#139=ADVANCED_FACE('',(#185,#186),#108,.F.);
#140=ADVANCED_FACE('',(#187,#188),#112,.F.);
#141=ADVANCED_FACE('',(#189,#190),#122,.F.);
#142=ADVANCED_FACE('',(#191,#192),#161,.F.);
#143=ADVANCED_FACE('',(#193,#194),#123,.T.);
#144=ADVANCED_FACE('',(#195,#196),#113,.T.);
#145=ADVANCED_FACE('',(#197,#198),#109,.F.);
#146=ADVANCED_FACE('',(#199,#200),#162,.F.);
#147=ADVANCED_FACE('',(#201,#202),#124,.T.);
#148=ADVANCED_FACE('',(#203,#204),#114,.T.);
#149=ADVANCED_FACE('',(#205,#206),#125,.T.);
#150=ADVANCED_FACE('',(#207,#208),#115,.F.);
#151=ADVANCED_FACE('',(#209,#210),#126,.F.);
#152=ADVANCED_FACE('',(#211,#212),#116,.F.);
#153=ADVANCED_FACE('',(#213,#214),#127,.F.);
#154=ADVANCED_FACE('',(#215,#216),#117,.F.);
#155=ADVANCED_FACE('',(#217,#218),#128,.F.);
#156=ADVANCED_FACE('',(#219,#220),#118,.F.);
#157=ADVANCED_FACE('',(#221,#222),#129,.F.);
#158=PLANE('',#477);
#159=PLANE('',#485);
#160=PLANE('',#493);
#161=PLANE('',#508);
#162=PLANE('',#516);
#163=FACE_BOUND('',#223,.T.);
#164=FACE_BOUND('',#224,.T.);
#165=FACE_BOUND('',#225,.T.);
#166=FACE_BOUND('',#226,.T.);
#167=FACE_BOUND('',#227,.T.);
#168=FACE_BOUND('',#228,.T.);
#169=FACE_BOUND('',#229,.T.);
#170=FACE_BOUND('',#230,.T.);
#171=FACE_BOUND('',#231,.T.);
#172=FACE_BOUND('',#232,.T.);
#173=FACE_BOUND('',#233,.T.);
#174=FACE_BOUND('',#234,.T.);
#175=FACE_BOUND('',#235,.T.);
#176=FACE_BOUND('',#236,.T.);
#177=FACE_BOUND('',#237,.T.);
#178=FACE_BOUND('',#238,.T.);
#179=FACE_BOUND('',#239,.T.);
#180=FACE_BOUND('',#240,.T.);
#181=FACE_BOUND('',#241,.T.);
#182=FACE_BOUND('',#242,.T.);
#183=FACE_BOUND('',#243,.T.);
#184=FACE_BOUND('',#244,.T.);
#185=FACE_BOUND('',#245,.T.);
#186=FACE_BOUND('',#246,.T.);
#187=FACE_BOUND('',#247,.T.);
#188=FACE_BOUND('',#248,.T.);
#189=FACE_BOUND('',#249,.T.);
#190=FACE_BOUND('',#250,.T.);
#191=FACE_BOUND('',#251,.T.);
#192=FACE_BOUND('',#252,.T.);
#193=FACE_BOUND('',#253,.T.);
#194=FACE_BOUND('',#254,.T.);
#195=FACE_BOUND('',#255,.T.);
#196=FACE_BOUND('',#256,.T.);
#197=FACE_BOUND('',#257,.T.);
#198=FACE_BOUND('',#258,.T.);
#199=FACE_BOUND('',#259,.T.);
#200=FACE_BOUND('',#260,.T.);
#201=FACE_BOUND('',#261,.T.);
#202=FACE_BOUND('',#262,.T.);
#203=FACE_BOUND('',#263,.T.);
#204=FACE_BOUND('',#264,.T.);
#205=FACE_BOUND('',#265,.T.);
#206=FACE_BOUND('',#266,.T.);
#207=FACE_BOUND('',#267,.T.);
#208=FACE_BOUND('',#268,.T.);
#209=FACE_BOUND('',#269,.T.);
#210=FACE_BOUND('',#270,.T.);
#211=FACE_BOUND('',#271,.T.);
#212=FACE_BOUND('',#272,.T.);
#213=FACE_BOUND('',#273,.T.);
#214=FACE_BOUND('',#274,.T.);
#215=FACE_BOUND('',#275,.T.);
#216=FACE_BOUND('',#276,.T.);
#217=FACE_BOUND('',#277,.T.);
#218=FACE_BOUND('',#278,.T.);
#219=FACE_BOUND('',#279,.T.);
#220=FACE_BOUND('',#280,.T.);
#221=FACE_BOUND('',#281,.T.);
#222=FACE_BOUND('',#282,.T.);
#223=EDGE_LOOP('',(#283));
#224=EDGE_LOOP('',(#284));
#225=EDGE_LOOP('',(#285));
#226=EDGE_LOOP('',(#286));
#227=EDGE_LOOP('',(#287));
#228=EDGE_LOOP('',(#288));
#229=EDGE_LOOP('',(#289));
#230=EDGE_LOOP('',(#290));
#231=EDGE_LOOP('',(#291));
#232=EDGE_LOOP('',(#292));
#233=EDGE_LOOP('',(#293));
#234=EDGE_LOOP('',(#294));
#235=EDGE_LOOP('',(#295));
#236=EDGE_LOOP('',(#296));
#237=EDGE_LOOP('',(#297));
#238=EDGE_LOOP('',(#298));
#239=EDGE_LOOP('',(#299));
#240=EDGE_LOOP('',(#300));
#241=EDGE_LOOP('',(#301));
#242=EDGE_LOOP('',(#302));
#243=EDGE_LOOP('',(#303));
#244=EDGE_LOOP('',(#304));
#245=EDGE_LOOP('',(#305));
#246=EDGE_LOOP('',(#306));
#247=EDGE_LOOP('',(#307));
#248=EDGE_LOOP('',(#308));
#249=EDGE_LOOP('',(#309,#310,#311,#312,#313,#314,#315,#316));
#250=EDGE_LOOP('',(#317));
#251=EDGE_LOOP('',(#318));
#252=EDGE_LOOP('',(#319,#320,#321,#322,#323,#324,#325,#326));
#253=EDGE_LOOP('',(#327));
#254=EDGE_LOOP('',(#328));
#255=EDGE_LOOP('',(#329));
#256=EDGE_LOOP('',(#330));
#257=EDGE_LOOP('',(#331));
#258=EDGE_LOOP('',(#332));
#259=EDGE_LOOP('',(#333));
#260=EDGE_LOOP('',(#334));
#261=EDGE_LOOP('',(#335));
#262=EDGE_LOOP('',(#336));
#263=EDGE_LOOP('',(#337));
#264=EDGE_LOOP('',(#338));
#265=EDGE_LOOP('',(#339));
#266=EDGE_LOOP('',(#340));
#267=EDGE_LOOP('',(#341));
#268=EDGE_LOOP('',(#342));
#269=EDGE_LOOP('',(#343));
#270=EDGE_LOOP('',(#344,#345));
#271=EDGE_LOOP('',(#346));
#272=EDGE_LOOP('',(#347));
#273=EDGE_LOOP('',(#348));
#274=EDGE_LOOP('',(#349,#350));
#275=EDGE_LOOP('',(#351));
#276=EDGE_LOOP('',(#352));
#277=EDGE_LOOP('',(#353));
#278=EDGE_LOOP('',(#354,#355));
#279=EDGE_LOOP('',(#356));
#280=EDGE_LOOP('',(#357));
#281=EDGE_LOOP('',(#358));
#282=EDGE_LOOP('',(#359,#360));
#283=ORIENTED_EDGE('',*,*,#396,.F.);
#284=ORIENTED_EDGE('',*,*,#397,.F.);
#285=ORIENTED_EDGE('',*,*,#398,.F.);
#286=ORIENTED_EDGE('',*,*,#399,.F.);
#287=ORIENTED_EDGE('',*,*,#400,.F.);
#288=ORIENTED_EDGE('',*,*,#401,.T.);
#289=ORIENTED_EDGE('',*,*,#402,.F.);
#290=ORIENTED_EDGE('',*,*,#400,.T.);
#291=ORIENTED_EDGE('',*,*,#403,.F.);
#292=ORIENTED_EDGE('',*,*,#402,.T.);
#293=ORIENTED_EDGE('',*,*,#404,.F.);
#294=ORIENTED_EDGE('',*,*,#403,.T.);
#295=ORIENTED_EDGE('',*,*,#405,.F.);
#296=ORIENTED_EDGE('',*,*,#404,.T.);
#297=ORIENTED_EDGE('',*,*,#406,.F.);
#298=ORIENTED_EDGE('',*,*,#405,.T.);
#299=ORIENTED_EDGE('',*,*,#407,.F.);
#300=ORIENTED_EDGE('',*,*,#406,.T.);
#301=ORIENTED_EDGE('',*,*,#408,.F.);
#302=ORIENTED_EDGE('',*,*,#407,.T.);
#303=ORIENTED_EDGE('',*,*,#409,.F.);
#304=ORIENTED_EDGE('',*,*,#408,.T.);
#305=ORIENTED_EDGE('',*,*,#410,.F.);
#306=ORIENTED_EDGE('',*,*,#409,.T.);
#307=ORIENTED_EDGE('',*,*,#411,.F.);
#308=ORIENTED_EDGE('',*,*,#410,.T.);
#309=ORIENTED_EDGE('',*,*,#412,.F.);
#310=ORIENTED_EDGE('',*,*,#413,.T.);
#311=ORIENTED_EDGE('',*,*,#414,.F.);
#312=ORIENTED_EDGE('',*,*,#415,.T.);
#313=ORIENTED_EDGE('',*,*,#416,.F.);
#314=ORIENTED_EDGE('',*,*,#417,.T.);
#315=ORIENTED_EDGE('',*,*,#418,.F.);
#316=ORIENTED_EDGE('',*,*,#419,.T.);
#317=ORIENTED_EDGE('',*,*,#411,.T.);
#318=ORIENTED_EDGE('',*,*,#420,.F.);
#319=ORIENTED_EDGE('',*,*,#414,.T.);
#320=ORIENTED_EDGE('',*,*,#421,.T.);
#321=ORIENTED_EDGE('',*,*,#412,.T.);
#322=ORIENTED_EDGE('',*,*,#422,.T.);
#323=ORIENTED_EDGE('',*,*,#418,.T.);
#324=ORIENTED_EDGE('',*,*,#423,.T.);
#325=ORIENTED_EDGE('',*,*,#416,.T.);
#326=ORIENTED_EDGE('',*,*,#424,.T.);
#327=ORIENTED_EDGE('',*,*,#425,.F.);
#328=ORIENTED_EDGE('',*,*,#420,.T.);
#329=ORIENTED_EDGE('',*,*,#426,.F.);
#330=ORIENTED_EDGE('',*,*,#425,.T.);
#331=ORIENTED_EDGE('',*,*,#427,.F.);
#332=ORIENTED_EDGE('',*,*,#426,.T.);
#333=ORIENTED_EDGE('',*,*,#428,.F.);
#334=ORIENTED_EDGE('',*,*,#427,.T.);
#335=ORIENTED_EDGE('',*,*,#429,.F.);
#336=ORIENTED_EDGE('',*,*,#428,.T.);
#337=ORIENTED_EDGE('',*,*,#430,.F.);
#338=ORIENTED_EDGE('',*,*,#429,.T.);
#339=ORIENTED_EDGE('',*,*,#401,.F.);
#340=ORIENTED_EDGE('',*,*,#430,.T.);
#341=ORIENTED_EDGE('',*,*,#431,.T.);
#342=ORIENTED_EDGE('',*,*,#399,.T.);
#343=ORIENTED_EDGE('',*,*,#431,.F.);
#344=ORIENTED_EDGE('',*,*,#415,.F.);
#345=ORIENTED_EDGE('',*,*,#424,.F.);
#346=ORIENTED_EDGE('',*,*,#432,.T.);
#347=ORIENTED_EDGE('',*,*,#398,.T.);
#348=ORIENTED_EDGE('',*,*,#432,.F.);
#349=ORIENTED_EDGE('',*,*,#417,.F.);
#350=ORIENTED_EDGE('',*,*,#423,.F.);
#351=ORIENTED_EDGE('',*,*,#433,.T.);
#352=ORIENTED_EDGE('',*,*,#397,.T.);
#353=ORIENTED_EDGE('',*,*,#433,.F.);
#354=ORIENTED_EDGE('',*,*,#419,.F.);
#355=ORIENTED_EDGE('',*,*,#422,.F.);
#356=ORIENTED_EDGE('',*,*,#434,.T.);
#357=ORIENTED_EDGE('',*,*,#396,.T.);
#358=ORIENTED_EDGE('',*,*,#434,.F.);
#359=ORIENTED_EDGE('',*,*,#413,.F.);
#360=ORIENTED_EDGE('',*,*,#421,.F.);
#361=VERTEX_POINT('',#664);
#362=VERTEX_POINT('',#666);
#363=VERTEX_POINT('',#668);
#364=VERTEX_POINT('',#670);
#365=VERTEX_POINT('',#672);
#366=VERTEX_POINT('',#674);
#367=VERTEX_POINT('',#677);
#368=VERTEX_POINT('',#680);
#369=VERTEX_POINT('',#683);
#370=VERTEX_POINT('',#686);
#371=VERTEX_POINT('',#689);
#372=VERTEX_POINT('',#692);
#373=VERTEX_POINT('',#695);
#374=VERTEX_POINT('',#698);
#375=VERTEX_POINT('',#701);
#376=VERTEX_POINT('',#704);
#377=VERTEX_POINT('',#707);
#378=VERTEX_POINT('',#708);
#379=VERTEX_POINT('',#715);
#380=VERTEX_POINT('',#717);
#381=VERTEX_POINT('',#724);
#382=VERTEX_POINT('',#726);
#383=VERTEX_POINT('',#733);
#384=VERTEX_POINT('',#735);
#385=VERTEX_POINT('',#744);
#386=VERTEX_POINT('',#751);
#387=VERTEX_POINT('',#754);
#388=VERTEX_POINT('',#757);
#389=VERTEX_POINT('',#760);
#390=VERTEX_POINT('',#763);
#391=VERTEX_POINT('',#766);
#392=VERTEX_POINT('',#770);
#393=VERTEX_POINT('',#774);
#394=VERTEX_POINT('',#778);
#395=VERTEX_POINT('',#782);
#396=EDGE_CURVE('',#361,#361,#435,.T.);
#397=EDGE_CURVE('',#362,#362,#436,.T.);
#398=EDGE_CURVE('',#363,#363,#437,.T.);
#399=EDGE_CURVE('',#364,#364,#438,.T.);
#400=EDGE_CURVE('',#365,#365,#439,.T.);
#401=EDGE_CURVE('',#366,#366,#440,.T.);
#402=EDGE_CURVE('',#367,#367,#441,.T.);
#403=EDGE_CURVE('',#368,#368,#442,.T.);
#404=EDGE_CURVE('',#369,#369,#443,.T.);
#405=EDGE_CURVE('',#370,#370,#444,.T.);
#406=EDGE_CURVE('',#371,#371,#445,.T.);
#407=EDGE_CURVE('',#372,#372,#446,.T.);
#408=EDGE_CURVE('',#373,#373,#447,.T.);
#409=EDGE_CURVE('',#374,#374,#448,.T.);
#410=EDGE_CURVE('',#375,#375,#449,.T.);
#411=EDGE_CURVE('',#376,#376,#450,.T.);
#412=EDGE_CURVE('',#377,#378,#451,.T.);
#413=EDGE_CURVE('',#377,#379,#103,.T.);
#414=EDGE_CURVE('',#380,#379,#452,.T.);
#415=EDGE_CURVE('',#380,#381,#104,.T.);
#416=EDGE_CURVE('',#382,#381,#453,.T.);
#417=EDGE_CURVE('',#382,#383,#105,.T.);
#418=EDGE_CURVE('',#384,#383,#454,.T.);
#419=EDGE_CURVE('',#384,#378,#106,.T.);
#420=EDGE_CURVE('',#385,#385,#455,.T.);
#421=EDGE_CURVE('',#379,#377,#456,.T.);
#422=EDGE_CURVE('',#378,#384,#457,.T.);
#423=EDGE_CURVE('',#383,#382,#458,.T.);
#424=EDGE_CURVE('',#381,#380,#459,.T.);
#425=EDGE_CURVE('',#386,#386,#460,.T.);
#426=EDGE_CURVE('',#387,#387,#461,.T.);
#427=EDGE_CURVE('',#388,#388,#462,.T.);
#428=EDGE_CURVE('',#389,#389,#463,.T.);
#429=EDGE_CURVE('',#390,#390,#464,.T.);
#430=EDGE_CURVE('',#391,#391,#465,.T.);
#431=EDGE_CURVE('',#392,#392,#466,.T.);
#432=EDGE_CURVE('',#393,#393,#467,.T.);
#433=EDGE_CURVE('',#394,#394,#468,.T.);
#434=EDGE_CURVE('',#395,#395,#469,.T.);
#435=CIRCLE('',#471,2.);
#436=CIRCLE('',#472,2.);
#437=CIRCLE('',#473,2.);
#438=CIRCLE('',#474,2.);
#439=CIRCLE('',#475,11.25);
#440=CIRCLE('',#476,34.);
#441=CIRCLE('',#478,10.25);
#442=CIRCLE('',#480,10.25);
#443=CIRCLE('',#482,11.25);
#444=CIRCLE('',#484,13.5);
#445=CIRCLE('',#486,14.5);
#446=CIRCLE('',#488,14.5);
#447=CIRCLE('',#490,15.);
#448=CIRCLE('',#492,18.);
#449=CIRCLE('',#494,18.5);
#450=CIRCLE('',#496,18.5);
#451=CIRCLE('',#498,19.5);
#452=CIRCLE('',#499,19.5);
#453=CIRCLE('',#500,19.5);
#454=CIRCLE('',#501,19.5);
#455=CIRCLE('',#503,31.);
#456=CIRCLE('',#504,4.);
#457=CIRCLE('',#505,4.);
#458=CIRCLE('',#506,4.);
#459=CIRCLE('',#507,4.);
#460=CIRCLE('',#509,32.);
#461=CIRCLE('',#511,32.);
#462=CIRCLE('',#513,32.5);
#463=CIRCLE('',#515,34.);
#464=CIRCLE('',#517,35.);
#465=CIRCLE('',#519,35.);
#466=CIRCLE('',#522,2.);
#467=CIRCLE('',#525,2.);
#468=CIRCLE('',#528,2.);
#469=CIRCLE('',#531,2.);
#470=AXIS2_PLACEMENT_3D('',#662,#534,#535);
#471=AXIS2_PLACEMENT_3D('',#663,#536,#537);
#472=AXIS2_PLACEMENT_3D('',#665,#538,#539);
#473=AXIS2_PLACEMENT_3D('',#667,#540,#541);
#474=AXIS2_PLACEMENT_3D('',#669,#542,#543);
#475=AXIS2_PLACEMENT_3D('',#671,#544,#545);
#476=AXIS2_PLACEMENT_3D('',#673,#546,#547);
#477=AXIS2_PLACEMENT_3D('',#675,#548,#549);
#478=AXIS2_PLACEMENT_3D('',#676,#550,#551);
#479=AXIS2_PLACEMENT_3D('',#678,#552,#553);
#480=AXIS2_PLACEMENT_3D('',#679,#554,#555);
#481=AXIS2_PLACEMENT_3D('',#681,#556,#557);
#482=AXIS2_PLACEMENT_3D('',#682,#558,#559);
#483=AXIS2_PLACEMENT_3D('',#684,#560,#561);
#484=AXIS2_PLACEMENT_3D('',#685,#562,#563);
#485=AXIS2_PLACEMENT_3D('',#687,#564,#565);
#486=AXIS2_PLACEMENT_3D('',#688,#566,#567);
#487=AXIS2_PLACEMENT_3D('',#690,#568,#569);
#488=AXIS2_PLACEMENT_3D('',#691,#570,#571);
#489=AXIS2_PLACEMENT_3D('',#693,#572,#573);
#490=AXIS2_PLACEMENT_3D('',#694,#574,#575);
#491=AXIS2_PLACEMENT_3D('',#696,#576,#577);
#492=AXIS2_PLACEMENT_3D('',#697,#578,#579);
#493=AXIS2_PLACEMENT_3D('',#699,#580,#581);
#494=AXIS2_PLACEMENT_3D('',#700,#582,#583);
#495=AXIS2_PLACEMENT_3D('',#702,#584,#585);
#496=AXIS2_PLACEMENT_3D('',#703,#586,#587);
#497=AXIS2_PLACEMENT_3D('',#705,#588,#589);
#498=AXIS2_PLACEMENT_3D('',#706,#590,#591);
#499=AXIS2_PLACEMENT_3D('',#716,#592,#593);
#500=AXIS2_PLACEMENT_3D('',#725,#594,#595);
#501=AXIS2_PLACEMENT_3D('',#734,#596,#597);
#502=AXIS2_PLACEMENT_3D('',#742,#598,#599);
#503=AXIS2_PLACEMENT_3D('',#743,#600,#601);
#504=AXIS2_PLACEMENT_3D('',#745,#602,#603);
#505=AXIS2_PLACEMENT_3D('',#746,#604,#605);
#506=AXIS2_PLACEMENT_3D('',#747,#606,#607);
#507=AXIS2_PLACEMENT_3D('',#748,#608,#609);
#508=AXIS2_PLACEMENT_3D('',#749,#610,#611);
#509=AXIS2_PLACEMENT_3D('',#750,#612,#613);
#510=AXIS2_PLACEMENT_3D('',#752,#614,#615);
#511=AXIS2_PLACEMENT_3D('',#753,#616,#617);
#512=AXIS2_PLACEMENT_3D('',#755,#618,#619);
#513=AXIS2_PLACEMENT_3D('',#756,#620,#621);
#514=AXIS2_PLACEMENT_3D('',#758,#622,#623);
#515=AXIS2_PLACEMENT_3D('',#759,#624,#625);
#516=AXIS2_PLACEMENT_3D('',#761,#626,#627);
#517=AXIS2_PLACEMENT_3D('',#762,#628,#629);
#518=AXIS2_PLACEMENT_3D('',#764,#630,#631);
#519=AXIS2_PLACEMENT_3D('',#765,#632,#633);
#520=AXIS2_PLACEMENT_3D('',#767,#634,#635);
#521=AXIS2_PLACEMENT_3D('',#768,#636,#637);
#522=AXIS2_PLACEMENT_3D('',#769,#638,#639);
#523=AXIS2_PLACEMENT_3D('',#771,#640,#641);
#524=AXIS2_PLACEMENT_3D('',#772,#642,#643);
#525=AXIS2_PLACEMENT_3D('',#773,#644,#645);
#526=AXIS2_PLACEMENT_3D('',#775,#646,#647);
#527=AXIS2_PLACEMENT_3D('',#776,#648,#649);
#528=AXIS2_PLACEMENT_3D('',#777,#650,#651);
#529=AXIS2_PLACEMENT_3D('',#779,#652,#653);
#530=AXIS2_PLACEMENT_3D('',#780,#654,#655);
#531=AXIS2_PLACEMENT_3D('',#781,#656,#657);
#532=AXIS2_PLACEMENT_3D('',#783,#658,#659);
#533=AXIS2_PLACEMENT_3D('',#784,#660,#661);
#534=DIRECTION('',(0.,0.,1.));
#535=DIRECTION('',(1.,0.,0.));
#536=DIRECTION('',(-1.,0.,0.));
#537=DIRECTION('',(0.,0.,-1.));
#538=DIRECTION('',(-1.,0.,0.));
#539=DIRECTION('',(0.,-1.,0.));
#540=DIRECTION('',(-1.,0.,0.));
#541=DIRECTION('',(0.,0.,1.));
#542=DIRECTION('',(-1.,0.,0.));
#543=DIRECTION('',(0.,1.,0.));
#544=DIRECTION('',(-1.,0.,0.));
#545=DIRECTION('',(0.,0.,1.));
#546=DIRECTION('',(-1.,0.,0.));
#547=DIRECTION('',(0.,0.,1.));
#548=DIRECTION('',(1.,0.,0.));
#549=DIRECTION('',(0.,0.,-1.));
#550=DIRECTION('',(-1.,0.,0.));
#551=DIRECTION('',(0.,0.,1.));
#552=DIRECTION('',(-1.,0.,0.));
#553=DIRECTION('',(-1.23365295827124E-18,0.,1.));
#554=DIRECTION('',(-1.,0.,0.));
#555=DIRECTION('',(0.,0.,1.));
#556=DIRECTION('',(-1.,0.,0.));
#557=DIRECTION('',(0.,0.,1.));
#558=DIRECTION('',(-1.,0.,0.));
#559=DIRECTION('',(0.,0.,1.));
#560=DIRECTION('',(1.,0.,0.));
#561=DIRECTION('',(-9.61588860724588E-17,0.,-1.));
#562=DIRECTION('',(-1.,0.,0.));
#563=DIRECTION('',(0.,0.,1.));
#564=DIRECTION('',(-1.,0.,0.));
#565=DIRECTION('',(0.,0.,1.));
#566=DIRECTION('',(-1.,0.,0.));
#567=DIRECTION('',(0.,0.,1.));
#568=DIRECTION('',(-1.,0.,0.));
#569=DIRECTION('',(1.02696999071148E-17,0.,1.));
#570=DIRECTION('',(-1.,0.,0.));
#571=DIRECTION('',(0.,0.,1.));
#572=DIRECTION('',(-1.,0.,0.));
#573=DIRECTION('',(0.,0.,1.));
#574=DIRECTION('',(-1.,0.,0.));
#575=DIRECTION('',(0.,0.,1.));
#576=DIRECTION('',(-1.,0.,0.));
#577=DIRECTION('',(0.,0.,1.));
#578=DIRECTION('',(-1.,0.,0.));
#579=DIRECTION('',(0.,0.,1.));
#580=DIRECTION('',(-1.,0.,0.));
#581=DIRECTION('',(0.,0.,1.));
#582=DIRECTION('',(-1.,0.,0.));
#583=DIRECTION('',(0.,0.,1.));
#584=DIRECTION('',(-1.,0.,0.));
#585=DIRECTION('',(0.,0.,1.));
#586=DIRECTION('',(-1.,0.,0.));
#587=DIRECTION('',(0.,0.,1.));
#588=DIRECTION('',(-1.,0.,0.));
#589=DIRECTION('',(0.,0.,1.));
#590=DIRECTION('',(-1.,0.,0.));
#591=DIRECTION('',(0.,0.,1.));
#592=DIRECTION('',(-1.,0.,0.));
#593=DIRECTION('',(0.,0.,1.));
#594=DIRECTION('',(-1.,0.,0.));
#595=DIRECTION('',(0.,0.,1.));
#596=DIRECTION('',(-1.,0.,0.));
#597=DIRECTION('',(0.,0.,1.));
#598=DIRECTION('',(1.,0.,0.));
#599=DIRECTION('',(-9.70831989501011E-17,0.,-1.));
#600=DIRECTION('',(-1.,0.,0.));
#601=DIRECTION('',(0.,0.,1.));
#602=DIRECTION('',(-1.,0.,0.));
#603=DIRECTION('',(0.,0.,1.));
#604=DIRECTION('',(-1.,0.,0.));
#605=DIRECTION('',(0.,0.,1.));
#606=DIRECTION('',(-1.,0.,0.));
#607=DIRECTION('',(0.,0.,1.));
#608=DIRECTION('',(-1.,0.,0.));
#609=DIRECTION('',(0.,0.,1.));
#610=DIRECTION('',(-1.,0.,0.));
#611=DIRECTION('',(0.,0.,1.));
#612=DIRECTION('',(-1.,0.,0.));
#613=DIRECTION('',(0.,0.,1.));
#614=DIRECTION('',(-1.,0.,0.));
#615=DIRECTION('',(1.00953839533083E-17,0.,1.));
#616=DIRECTION('',(-1.,0.,0.));
#617=DIRECTION('',(0.,0.,1.));
#618=DIRECTION('',(-1.,0.,0.));
#619=DIRECTION('',(0.,0.,1.));
#620=DIRECTION('',(-1.,0.,0.));
#621=DIRECTION('',(0.,0.,1.));
#622=DIRECTION('',(-1.,0.,0.));
#623=DIRECTION('',(0.,0.,1.));
#624=DIRECTION('',(-1.,0.,0.));
#625=DIRECTION('',(0.,0.,1.));
#626=DIRECTION('',(-1.,0.,0.));
#627=DIRECTION('',(0.,0.,1.));
#628=DIRECTION('',(-1.,0.,0.));
#629=DIRECTION('',(0.,0.,1.));
#630=DIRECTION('',(-1.,0.,0.));
#631=DIRECTION('',(4.19420569626887E-18,0.,1.));
#632=DIRECTION('',(-1.,0.,0.));
#633=DIRECTION('',(0.,0.,1.));
#634=DIRECTION('',(-1.,0.,0.));
#635=DIRECTION('',(0.,0.,1.));
#636=DIRECTION('',(1.,0.,0.));
#637=DIRECTION('',(-1.04753833090387E-16,0.,-1.));
#638=DIRECTION('',(1.,0.,0.));
#639=DIRECTION('',(0.,0.,0.999999999999999));
#640=DIRECTION('',(-1.,0.,0.));
#641=DIRECTION('',(0.,0.,0.999999999999999));
#642=DIRECTION('',(1.,0.,0.));
#643=DIRECTION('',(1.79037344738303E-17,0.,-1.));
#644=DIRECTION('',(1.,0.,0.));
#645=DIRECTION('',(0.,0.,1.));
#646=DIRECTION('',(-1.,0.,0.));
#647=DIRECTION('',(0.,0.,1.));
#648=DIRECTION('',(1.,0.,0.));
#649=DIRECTION('',(1.79037344738303E-17,0.,-1.));
#650=DIRECTION('',(1.,0.,0.));
#651=DIRECTION('',(0.,0.,1.));
#652=DIRECTION('',(-1.,0.,0.));
#653=DIRECTION('',(0.,0.,1.));
#654=DIRECTION('',(1.,0.,0.));
#655=DIRECTION('',(1.79037344738303E-17,0.,-1.));
#656=DIRECTION('',(1.,0.,0.));
#657=DIRECTION('',(0.,0.,1.));
#658=DIRECTION('',(-1.,0.,0.));
#659=DIRECTION('',(0.,0.,1.));
#660=DIRECTION('',(1.,0.,0.));
#661=DIRECTION('',(1.79037344738303E-17,0.,-1.));
#662=CARTESIAN_POINT('',(0.,0.,0.));
#663=CARTESIAN_POINT('',(0.,15.5563491861039,-15.5563491861042));
#664=CARTESIAN_POINT('',(0.,15.5563491861039,-17.5563491861042));
#665=CARTESIAN_POINT('',(0.,-15.5563491861041,-15.556349186104));
#666=CARTESIAN_POINT('',(0.,-17.5563491861041,-15.556349186104));
#667=CARTESIAN_POINT('',(0.,-15.556349186104,15.556349186104));
#668=CARTESIAN_POINT('',(0.,-15.556349186104,17.556349186104));
#669=CARTESIAN_POINT('',(0.,15.556349186104,15.556349186104));
#670=CARTESIAN_POINT('',(0.,17.556349186104,15.556349186104));
#671=CARTESIAN_POINT('',(1.24753155405179E-15,0.,0.));
#672=CARTESIAN_POINT('',(1.24753155405179E-15,0.,11.25));
#673=CARTESIAN_POINT('',(-1.99706000002247E-15,0.,0.));
#674=CARTESIAN_POINT('',(-1.99706000002247E-15,0.,34.));
#675=CARTESIAN_POINT('',(-3.7476422298534E-16,0.,34.));
#676=CARTESIAN_POINT('',(1.,0.,0.));
#677=CARTESIAN_POINT('',(1.,0.,10.25));
#678=CARTESIAN_POINT('',(1.24753155405179E-15,0.,0.));
#679=CARTESIAN_POINT('',(11.,0.,0.));
#680=CARTESIAN_POINT('',(11.,0.,10.25));
#681=CARTESIAN_POINT('',(0.,0.,0.));
#682=CARTESIAN_POINT('',(12.,0.,0.));
#683=CARTESIAN_POINT('',(12.,0.,11.25));
#684=CARTESIAN_POINT('',(11.,0.,0.));
#685=CARTESIAN_POINT('',(12.,0.,0.));
#686=CARTESIAN_POINT('',(12.,0.,13.5));
#687=CARTESIAN_POINT('',(12.,0.,11.25));
#688=CARTESIAN_POINT('',(11.,0.,0.));
#689=CARTESIAN_POINT('',(11.,0.,14.5));
#690=CARTESIAN_POINT('',(12.,0.,0.));
#691=CARTESIAN_POINT('',(6.5,0.,0.));
#692=CARTESIAN_POINT('',(6.5,0.,14.5));
#693=CARTESIAN_POINT('',(0.,0.,0.));
#694=CARTESIAN_POINT('',(6.,0.,0.));
#695=CARTESIAN_POINT('',(6.,0.,15.));
#696=CARTESIAN_POINT('',(6.5,0.,0.));
#697=CARTESIAN_POINT('',(6.,0.,0.));
#698=CARTESIAN_POINT('',(6.,0.,18.));
#699=CARTESIAN_POINT('',(6.,0.,15.));
#700=CARTESIAN_POINT('',(6.5,0.,0.));
#701=CARTESIAN_POINT('',(6.5,0.,18.5));
#702=CARTESIAN_POINT('',(6.5,0.,0.));
#703=CARTESIAN_POINT('',(11.,0.,0.));
#704=CARTESIAN_POINT('',(11.,0.,18.5));
#705=CARTESIAN_POINT('',(0.,0.,0.));
#706=CARTESIAN_POINT('',(12.,0.,0.));
#707=CARTESIAN_POINT('',(12.,11.5591006440652,-15.7046869532752));
#708=CARTESIAN_POINT('',(12.,-11.5591006440653,-15.7046869532751));
#709=CARTESIAN_POINT('',(12.,11.5591006440652,-15.7046869532752));
#710=CARTESIAN_POINT('',(11.451566292357,11.8429334746009,-14.8148055061078));
#711=CARTESIAN_POINT('',(11.0501637058408,12.342622702869,-13.890876531663));
#712=CARTESIAN_POINT('',(11.0479173780918,13.8829934299945,-12.348115037407));
#713=CARTESIAN_POINT('',(11.4504828610464,14.8130475444632,-11.8434941866276));
#714=CARTESIAN_POINT('',(12.,15.704686953275,-11.5591006440654));
#715=CARTESIAN_POINT('',(12.,15.704686953275,-11.5591006440654));
#716=CARTESIAN_POINT('',(12.,0.,0.));
#717=CARTESIAN_POINT('',(12.,15.7046869532751,11.5591006440653));
#718=CARTESIAN_POINT('',(12.,15.7046869532751,11.5591006440653));
#719=CARTESIAN_POINT('',(11.451566292357,14.8148055061077,11.842933474601));
#720=CARTESIAN_POINT('',(11.0501637058408,13.8908765316629,12.3426227028691));
#721=CARTESIAN_POINT('',(11.0479173780918,12.3481150374069,13.8829934299946));
#722=CARTESIAN_POINT('',(11.4504828610464,11.8434941866275,14.8130475444633));
#723=CARTESIAN_POINT('',(12.,11.5591006440653,15.7046869532751));
#724=CARTESIAN_POINT('',(12.,11.5591006440653,15.7046869532751));
#725=CARTESIAN_POINT('',(12.,0.,0.));
#726=CARTESIAN_POINT('',(12.,-11.5591006440653,15.7046869532751));
#727=CARTESIAN_POINT('',(12.,-11.5591006440653,15.7046869532751));
#728=CARTESIAN_POINT('',(11.451566292357,-11.842933474601,14.8148055061077));
#729=CARTESIAN_POINT('',(11.0501637058408,-12.3426227028691,13.8908765316629));
#730=CARTESIAN_POINT('',(11.0479173780918,-13.8829934299946,12.3481150374069));
#731=CARTESIAN_POINT('',(11.4504828610464,-14.8130475444633,11.8434941866275));
#732=CARTESIAN_POINT('',(12.,-15.7046869532751,11.5591006440653));
#733=CARTESIAN_POINT('',(12.,-15.7046869532751,11.5591006440653));
#734=CARTESIAN_POINT('',(12.,0.,0.));
#735=CARTESIAN_POINT('',(12.,-15.7046869532751,-11.5591006440653));
#736=CARTESIAN_POINT('',(12.,-15.7046869532751,-11.5591006440653));
#737=CARTESIAN_POINT('',(11.451566292357,-14.8148055061078,-11.842933474601));
#738=CARTESIAN_POINT('',(11.0501637058408,-13.890876531663,-12.3426227028691));
#739=CARTESIAN_POINT('',(11.0479173780918,-12.3481150374069,-13.8829934299946));
#740=CARTESIAN_POINT('',(11.4504828610464,-11.8434941866275,-14.8130475444633));
#741=CARTESIAN_POINT('',(12.,-11.5591006440653,-15.7046869532751));
#742=CARTESIAN_POINT('',(11.,0.,0.));
#743=CARTESIAN_POINT('',(12.,0.,0.));
#744=CARTESIAN_POINT('',(12.,0.,31.));
#745=CARTESIAN_POINT('',(12.,15.5563491861039,-15.5563491861042));
#746=CARTESIAN_POINT('',(12.,-15.5563491861041,-15.556349186104));
#747=CARTESIAN_POINT('',(12.,-15.556349186104,15.556349186104));
#748=CARTESIAN_POINT('',(12.,15.556349186104,15.556349186104));
#749=CARTESIAN_POINT('',(12.,0.,19.5));
#750=CARTESIAN_POINT('',(11.,0.,0.));
#751=CARTESIAN_POINT('',(11.,0.,32.));
#752=CARTESIAN_POINT('',(12.,0.,0.));
#753=CARTESIAN_POINT('',(5.5,0.,0.));
#754=CARTESIAN_POINT('',(5.5,0.,32.));
#755=CARTESIAN_POINT('',(0.,0.,0.));
#756=CARTESIAN_POINT('',(5.,0.,0.));
#757=CARTESIAN_POINT('',(5.,0.,32.5));
#758=CARTESIAN_POINT('',(5.5,0.,0.));
#759=CARTESIAN_POINT('',(5.,0.,0.));
#760=CARTESIAN_POINT('',(5.,0.,34.));
#761=CARTESIAN_POINT('',(5.,0.,32.5));
#762=CARTESIAN_POINT('',(4.,0.,0.));
#763=CARTESIAN_POINT('',(4.,0.,35.));
#764=CARTESIAN_POINT('',(5.,0.,0.));
#765=CARTESIAN_POINT('',(0.999999999999998,0.,0.));
#766=CARTESIAN_POINT('',(0.999999999999998,0.,35.));
#767=CARTESIAN_POINT('',(0.,0.,0.));
#768=CARTESIAN_POINT('',(0.999999999999998,0.,0.));
#769=CARTESIAN_POINT('',(8.53589838486225,15.556349186104,15.556349186104));
#770=CARTESIAN_POINT('',(8.53589838486225,15.556349186104,17.556349186104));
#771=CARTESIAN_POINT('',(18.5,15.556349186104,15.556349186104));
#772=CARTESIAN_POINT('',(12.,15.556349186104,15.556349186104));
#773=CARTESIAN_POINT('',(8.53589838486225,-15.556349186104,15.556349186104));
#774=CARTESIAN_POINT('',(8.53589838486225,-15.556349186104,17.556349186104));
#775=CARTESIAN_POINT('',(18.5,-15.556349186104,15.556349186104));
#776=CARTESIAN_POINT('',(12.,-15.556349186104,15.556349186104));
#777=CARTESIAN_POINT('',(8.53589838486225,-15.5563491861041,-15.556349186104));
#778=CARTESIAN_POINT('',(8.53589838486225,-15.5563491861041,-13.556349186104));
#779=CARTESIAN_POINT('',(18.5,-15.5563491861041,-15.556349186104));
#780=CARTESIAN_POINT('',(12.,-15.5563491861041,-15.556349186104));
#781=CARTESIAN_POINT('',(8.53589838486225,15.5563491861039,-15.5563491861042));
#782=CARTESIAN_POINT('',(8.53589838486225,15.5563491861039,-13.5563491861042));
#783=CARTESIAN_POINT('',(18.5,15.5563491861039,-15.5563491861042));
#784=CARTESIAN_POINT('',(12.,15.5563491861039,-15.5563491861042));
#785=(
GEOMETRIC_REPRESENTATION_CONTEXT(3)
GLOBAL_UNCERTAINTY_ASSIGNED_CONTEXT((#786))
GLOBAL_UNIT_ASSIGNED_CONTEXT((#792,#788,#787))
REPRESENTATION_CONTEXT(
'\X2\0414043D043E\X0\_\X2\0442043E0440043C043E0437043D043E0433043E\X0\_
\X2\044104420430043A0430043D0430\X0\_\X2\043D043E0432043E0435\X0\',
'TOP_LEVEL_ASSEMBLY_PART')
);
#786=UNCERTAINTY_MEASURE_WITH_UNIT(LENGTH_MEASURE(0.0508),#792,
'DISTANCE_ACCURACY_VALUE','Maximum Tolerance applied to model');
#787=(
NAMED_UNIT(*)
SI_UNIT($,.STERADIAN.)
SOLID_ANGLE_UNIT()
);
#788=(
CONVERSION_BASED_UNIT('DEGREE',#790)
NAMED_UNIT(#789)
PLANE_ANGLE_UNIT()
);
#789=DIMENSIONAL_EXPONENTS(0.,0.,0.,0.,0.,0.,0.);
#790=PLANE_ANGLE_MEASURE_WITH_UNIT(PLANE_ANGLE_MEASURE(0.0174532925),#791);
#791=(
NAMED_UNIT(*)
PLANE_ANGLE_UNIT()
SI_UNIT($,.RADIAN.)
);
#792=(
LENGTH_UNIT()
NAMED_UNIT(*)
SI_UNIT(.MILLI.,.METRE.)
);
ENDSEC;
END-ISO-10303-21;
