ISO-10303-21;
HEADER;
/* Generated by software containing ST-Developer
 * from STEP Tools, Inc. (www.steptools.com) 
 */
/* OPTION: using custom schema-name function */

FILE_DESCRIPTION(
/* description */ (''),
/* implementation_level */ '2;1');

FILE_NAME(
/* name */ '\X2\041F0435044004350445043E0434043D043E0435\X0\ \X2\043A0440
0435043F043B0435043D04380435\X0\.stp',
/* time_stamp */ '2026-07-04T14:41:23+05:00',
/* author */ (''),
/* organization */ (''),
/* preprocessor_version */ 'ST-DEVELOPER v16',
/* originating_system */ 'SIEMENS PLM Software NX 10.0',
/* authorisation */ '');

FILE_SCHEMA (('AP203_CONFIGURATION_CONTROLLED_3D_DESIGN_OF_MECHANICAL_PARTS_AND_ASSEMBLIES_MIM_LF { 1 0 10303 403 2 1 2}'));
ENDSEC;

DATA;
#10=PROPERTY_DEFINITION_REPRESENTATION(#14,#12);
#11=PROPERTY_DEFINITION_REPRESENTATION(#15,#13);
#12=REPRESENTATION('',(#16),#1099);
#13=REPRESENTATION('',(#17),#1099);
#14=PROPERTY_DEFINITION('pmi validation property','',#89);
#15=PROPERTY_DEFINITION('pmi validation property','',#89);
#16=VALUE_REPRESENTATION_ITEM('number of annotations',COUNT_MEASURE(0.));
#17=VALUE_REPRESENTATION_ITEM('number of views',COUNT_MEASURE(0.));
#18=SHAPE_REPRESENTATION_RELATIONSHIP('None',
'relationship between Hi066CDEFEn30n-None and Hi066CDEFEn30n-None',#100,
#19);
#19=ADVANCED_BREP_SHAPE_REPRESENTATION('Hi066CDEFEn30n-None',(#101),#1099);
#20=CC_DESIGN_APPROVAL(#32,(#90));
#21=CC_DESIGN_APPROVAL(#33,(#92));
#22=CC_DESIGN_APPROVAL(#34,(#39));
#23=APPROVAL_PERSON_ORGANIZATION(#77,#32,#26);
#24=APPROVAL_PERSON_ORGANIZATION(#78,#33,#27);
#25=APPROVAL_PERSON_ORGANIZATION(#79,#34,#28);
#26=APPROVAL_ROLE('approver');
#27=APPROVAL_ROLE('approver');
#28=APPROVAL_ROLE('approver');
#29=APPROVAL_DATE_TIME(#47,#32);
#30=APPROVAL_DATE_TIME(#48,#33);
#31=APPROVAL_DATE_TIME(#49,#34);
#32=APPROVAL(#35,' ');
#33=APPROVAL(#36,' ');
#34=APPROVAL(#37,' ');
#35=APPROVAL_STATUS('not_yet_approved');
#36=APPROVAL_STATUS('not_yet_approved');
#37=APPROVAL_STATUS('not_yet_approved');
#38=CC_DESIGN_SECURITY_CLASSIFICATION(#39,(#92));
#39=SECURITY_CLASSIFICATION(' ',' ',#40);
#40=SECURITY_CLASSIFICATION_LEVEL('confidential');
#41=CC_DESIGN_DATE_AND_TIME_ASSIGNMENT(#45,#43,(#90));
#42=CC_DESIGN_DATE_AND_TIME_ASSIGNMENT(#46,#44,(#39));
#43=DATE_TIME_ROLE('creation_date');
#44=DATE_TIME_ROLE('classification_date');
#45=DATE_AND_TIME(#60,#50);
#46=DATE_AND_TIME(#61,#51);
#47=DATE_AND_TIME(#62,#52);
#48=DATE_AND_TIME(#63,#53);
#49=DATE_AND_TIME(#64,#54);
#50=LOCAL_TIME(0,0,0.,#55);
#51=LOCAL_TIME(0,0,0.,#56);
#52=LOCAL_TIME(0,0,0.,#57);
#53=LOCAL_TIME(0,0,0.,#58);
#54=LOCAL_TIME(0,0,0.,#59);
#55=COORDINATED_UNIVERSAL_TIME_OFFSET(0,0,.BEHIND.);
#56=COORDINATED_UNIVERSAL_TIME_OFFSET(0,0,.BEHIND.);
#57=COORDINATED_UNIVERSAL_TIME_OFFSET(0,0,.BEHIND.);
#58=COORDINATED_UNIVERSAL_TIME_OFFSET(0,0,.BEHIND.);
#59=COORDINATED_UNIVERSAL_TIME_OFFSET(0,0,.BEHIND.);
#60=CALENDAR_DATE(0,1,1);
#61=CALENDAR_DATE(0,1,1);
#62=CALENDAR_DATE(0,1,1);
#63=CALENDAR_DATE(0,1,1);
#64=CALENDAR_DATE(0,1,1);
#65=CC_DESIGN_PERSON_AND_ORGANIZATION_ASSIGNMENT(#73,#69,(#90,#92));
#66=CC_DESIGN_PERSON_AND_ORGANIZATION_ASSIGNMENT(#74,#70,(#94));
#67=CC_DESIGN_PERSON_AND_ORGANIZATION_ASSIGNMENT(#75,#71,(#92));
#68=CC_DESIGN_PERSON_AND_ORGANIZATION_ASSIGNMENT(#76,#72,(#39));
#69=PERSON_AND_ORGANIZATION_ROLE('creator');
#70=PERSON_AND_ORGANIZATION_ROLE('design_owner');
#71=PERSON_AND_ORGANIZATION_ROLE('design_supplier');
#72=PERSON_AND_ORGANIZATION_ROLE('classification_officer');
#73=PERSON_AND_ORGANIZATION(#87,#80);
#74=PERSON_AND_ORGANIZATION(#87,#81);
#75=PERSON_AND_ORGANIZATION(#87,#82);
#76=PERSON_AND_ORGANIZATION(#87,#83);
#77=PERSON_AND_ORGANIZATION(#87,#84);
#78=PERSON_AND_ORGANIZATION(#87,#85);
#79=PERSON_AND_ORGANIZATION(#87,#86);
#80=ORGANIZATION(' ',' ',' ');
#81=ORGANIZATION(' ',' ',' ');
#82=ORGANIZATION(' ',' ',' ');
#83=ORGANIZATION(' ',' ',' ');
#84=ORGANIZATION(' ',' ',' ');
#85=ORGANIZATION(' ',' ',' ');
#86=ORGANIZATION(' ',' ',' ');
#87=PERSON(' ',' ',' ',(' '),$,$);
#88=SHAPE_DEFINITION_REPRESENTATION(#89,#100);
#89=PRODUCT_DEFINITION_SHAPE('','',#90);
#90=PRODUCT_DEFINITION(' ','',#92,#91);
#91=DESIGN_CONTEXT('',#99,'design');
#92=PRODUCT_DEFINITION_FORMATION_WITH_SPECIFIED_SOURCE(' ',' ',#94,
 .NOT_KNOWN.);
#93=PRODUCT_RELATED_PRODUCT_CATEGORY('detail','',(#94));
#94=PRODUCT('Hi066CDEFEn30n','Hi066CDEFEn30n',' ',(#97));
#95=PRODUCT_CATEGORY('part',' ');
#96=PRODUCT_CATEGORY(' ','');
#97=MECHANICAL_CONTEXT(' ',#99,'mechanical');
#98=APPLICATION_PROTOCOL_DEFINITION('international standard',
'config_control_design',2010,#99);
#99=APPLICATION_CONTEXT(
'configuration controlled 3D designs of mechanical parts and assemblie
s');
#100=SHAPE_REPRESENTATION('Hi066CDEFEn30n-None',(#659),#1099);
#101=MANIFOLD_SOLID_BREP('',#102);
#102=CLOSED_SHELL('',(#133,#134,#135,#136,#137,#138,#139,#140,#141,#142,
#143,#144,#145,#146,#147,#148,#149,#150,#151,#152,#153,#154,#155,#156,#157,
#158,#159,#160,#161,#162,#163,#164,#165,#166,#167,#168,#169,#170,#171,#172,
#173,#174,#175,#176));
#103=CONICAL_SURFACE('',#708,1.55,45.);
#104=CONICAL_SURFACE('',#709,2.45,45.);
#105=CONICAL_SURFACE('',#710,1.65,45.);
#106=CONICAL_SURFACE('',#716,1.55,45.);
#107=CONICAL_SURFACE('',#717,2.45,45.);
#108=CONICAL_SURFACE('',#723,1.55,45.);
#109=CONICAL_SURFACE('',#724,2.45,45.);
#110=CONICAL_SURFACE('',#730,1.55,45.);
#111=CONICAL_SURFACE('',#731,2.45,45.);
#112=CONICAL_SURFACE('',#735,1.65,45.);
#113=CONICAL_SURFACE('',#739,1.65,45.);
#114=CONICAL_SURFACE('',#743,1.65,45.);
#115=CONICAL_SURFACE('',#744,4.7,45.);
#116=CONICAL_SURFACE('',#745,5.,45.);
#117=CONICAL_SURFACE('',#746,1.55,45.);
#118=CONICAL_SURFACE('',#747,1.95,45.);
#119=CONICAL_SURFACE('',#748,1.55,44.9999999999999);
#120=CONICAL_SURFACE('',#749,1.95,45.);
#121=CONICAL_SURFACE('',#750,1.55,45.);
#122=CONICAL_SURFACE('',#751,1.95,45.);
#123=CONICAL_SURFACE('',#752,1.55,44.9999999999999);
#124=CONICAL_SURFACE('',#753,1.95,45.);
#125=CONICAL_SURFACE('',#754,17.,45.0000000000002);
#126=CONICAL_SURFACE('',#755,16.7,45.0000000000002);
#127=PLANE('',#682);
#128=PLANE('',#696);
#129=PLANE('',#707);
#130=PLANE('',#715);
#131=PLANE('',#722);
#132=PLANE('',#729);
#133=ADVANCED_FACE('',(#191,#192),#177,.F.);
#134=ADVANCED_FACE('',(#193,#194),#178,.F.);
#135=ADVANCED_FACE('',(#195,#196),#179,.F.);
#136=ADVANCED_FACE('',(#197,#198),#180,.F.);
#137=ADVANCED_FACE('',(#199,#200,#201,#202,#203,#204,#205,#206,#207,#208),
#127,.F.);
#138=ADVANCED_FACE('',(#209,#210),#181,.F.);
#139=ADVANCED_FACE('',(#211,#212,#213,#214,#215,#216,#217,#218,#219,#220),
#128,.F.);
#140=ADVANCED_FACE('',(#221,#222),#182,.T.);
#141=ADVANCED_FACE('',(#223,#224),#183,.F.);
#142=ADVANCED_FACE('',(#225,#226),#184,.F.);
#143=ADVANCED_FACE('',(#227,#228),#129,.T.);
#144=ADVANCED_FACE('',(#229,#230),#103,.F.);
#145=ADVANCED_FACE('',(#231,#232),#104,.F.);
#146=ADVANCED_FACE('',(#233,#234),#105,.F.);
#147=ADVANCED_FACE('',(#235,#236),#185,.F.);
#148=ADVANCED_FACE('',(#237,#238),#130,.T.);
#149=ADVANCED_FACE('',(#239,#240),#106,.F.);
#150=ADVANCED_FACE('',(#241,#242),#107,.F.);
#151=ADVANCED_FACE('',(#243,#244),#186,.F.);
#152=ADVANCED_FACE('',(#245,#246),#131,.T.);
#153=ADVANCED_FACE('',(#247,#248),#108,.F.);
#154=ADVANCED_FACE('',(#249,#250),#109,.F.);
#155=ADVANCED_FACE('',(#251,#252),#187,.F.);
#156=ADVANCED_FACE('',(#253,#254),#132,.T.);
#157=ADVANCED_FACE('',(#255,#256),#110,.F.);
#158=ADVANCED_FACE('',(#257,#258),#111,.F.);
#159=ADVANCED_FACE('',(#259,#260),#188,.F.);
#160=ADVANCED_FACE('',(#261,#262),#112,.F.);
#161=ADVANCED_FACE('',(#263,#264),#189,.F.);
#162=ADVANCED_FACE('',(#265,#266),#113,.F.);
#163=ADVANCED_FACE('',(#267,#268),#190,.F.);
#164=ADVANCED_FACE('',(#269,#270),#114,.F.);
#165=ADVANCED_FACE('',(#271,#272),#115,.F.);
#166=ADVANCED_FACE('',(#273,#274),#116,.F.);
#167=ADVANCED_FACE('',(#275,#276),#117,.F.);
#168=ADVANCED_FACE('',(#277,#278),#118,.F.);
#169=ADVANCED_FACE('',(#279,#280),#119,.F.);
#170=ADVANCED_FACE('',(#281,#282),#120,.F.);
#171=ADVANCED_FACE('',(#283,#284),#121,.F.);
#172=ADVANCED_FACE('',(#285,#286),#122,.F.);
#173=ADVANCED_FACE('',(#287,#288),#123,.F.);
#174=ADVANCED_FACE('',(#289,#290),#124,.F.);
#175=ADVANCED_FACE('',(#291,#292),#125,.T.);
#176=ADVANCED_FACE('',(#293,#294),#126,.T.);
#177=CYLINDRICAL_SURFACE('',#662,1.25);
#178=CYLINDRICAL_SURFACE('',#665,1.25);
#179=CYLINDRICAL_SURFACE('',#668,1.25);
#180=CYLINDRICAL_SURFACE('',#671,1.25);
#181=CYLINDRICAL_SURFACE('',#685,4.7);
#182=CYLINDRICAL_SURFACE('',#699,17.);
#183=CYLINDRICAL_SURFACE('',#702,1.65);
#184=CYLINDRICAL_SURFACE('',#705,2.45);
#185=CYLINDRICAL_SURFACE('',#713,2.45);
#186=CYLINDRICAL_SURFACE('',#720,2.45);
#187=CYLINDRICAL_SURFACE('',#727,2.45);
#188=CYLINDRICAL_SURFACE('',#734,1.65);
#189=CYLINDRICAL_SURFACE('',#738,1.65);
#190=CYLINDRICAL_SURFACE('',#742,1.65);
#191=FACE_BOUND('',#295,.T.);
#192=FACE_BOUND('',#296,.T.);
#193=FACE_BOUND('',#297,.T.);
#194=FACE_BOUND('',#298,.T.);
#195=FACE_BOUND('',#299,.T.);
#196=FACE_BOUND('',#300,.T.);
#197=FACE_BOUND('',#301,.T.);
#198=FACE_BOUND('',#302,.T.);
#199=FACE_BOUND('',#303,.T.);
#200=FACE_BOUND('',#304,.T.);
#201=FACE_BOUND('',#305,.T.);
#202=FACE_BOUND('',#306,.T.);
#203=FACE_BOUND('',#307,.T.);
#204=FACE_BOUND('',#308,.T.);
#205=FACE_BOUND('',#309,.T.);
#206=FACE_BOUND('',#310,.T.);
#207=FACE_BOUND('',#311,.T.);
#208=FACE_BOUND('',#312,.T.);
#209=FACE_BOUND('',#313,.T.);
#210=FACE_BOUND('',#314,.T.);
#211=FACE_BOUND('',#315,.T.);
#212=FACE_BOUND('',#316,.T.);
#213=FACE_BOUND('',#317,.T.);
#214=FACE_BOUND('',#318,.T.);
#215=FACE_BOUND('',#319,.T.);
#216=FACE_BOUND('',#320,.T.);
#217=FACE_BOUND('',#321,.T.);
#218=FACE_BOUND('',#322,.T.);
#219=FACE_BOUND('',#323,.T.);
#220=FACE_BOUND('',#324,.T.);
#221=FACE_BOUND('',#325,.T.);
#222=FACE_BOUND('',#326,.T.);
#223=FACE_BOUND('',#327,.T.);
#224=FACE_BOUND('',#328,.T.);
#225=FACE_BOUND('',#329,.T.);
#226=FACE_BOUND('',#330,.T.);
#227=FACE_BOUND('',#331,.T.);
#228=FACE_BOUND('',#332,.T.);
#229=FACE_BOUND('',#333,.T.);
#230=FACE_BOUND('',#334,.T.);
#231=FACE_BOUND('',#335,.T.);
#232=FACE_BOUND('',#336,.T.);
#233=FACE_BOUND('',#337,.T.);
#234=FACE_BOUND('',#338,.T.);
#235=FACE_BOUND('',#339,.T.);
#236=FACE_BOUND('',#340,.T.);
#237=FACE_BOUND('',#341,.T.);
#238=FACE_BOUND('',#342,.T.);
#239=FACE_BOUND('',#343,.T.);
#240=FACE_BOUND('',#344,.T.);
#241=FACE_BOUND('',#345,.T.);
#242=FACE_BOUND('',#346,.T.);
#243=FACE_BOUND('',#347,.T.);
#244=FACE_BOUND('',#348,.T.);
#245=FACE_BOUND('',#349,.T.);
#246=FACE_BOUND('',#350,.T.);
#247=FACE_BOUND('',#351,.T.);
#248=FACE_BOUND('',#352,.T.);
#249=FACE_BOUND('',#353,.T.);
#250=FACE_BOUND('',#354,.T.);
#251=FACE_BOUND('',#355,.T.);
#252=FACE_BOUND('',#356,.T.);
#253=FACE_BOUND('',#357,.T.);
#254=FACE_BOUND('',#358,.T.);
#255=FACE_BOUND('',#359,.T.);
#256=FACE_BOUND('',#360,.T.);
#257=FACE_BOUND('',#361,.T.);
#258=FACE_BOUND('',#362,.T.);
#259=FACE_BOUND('',#363,.T.);
#260=FACE_BOUND('',#364,.T.);
#261=FACE_BOUND('',#365,.T.);
#262=FACE_BOUND('',#366,.T.);
#263=FACE_BOUND('',#367,.T.);
#264=FACE_BOUND('',#368,.T.);
#265=FACE_BOUND('',#369,.T.);
#266=FACE_BOUND('',#370,.T.);
#267=FACE_BOUND('',#371,.T.);
#268=FACE_BOUND('',#372,.T.);
#269=FACE_BOUND('',#373,.T.);
#270=FACE_BOUND('',#374,.T.);
#271=FACE_BOUND('',#375,.T.);
#272=FACE_BOUND('',#376,.T.);
#273=FACE_BOUND('',#377,.T.);
#274=FACE_BOUND('',#378,.T.);
#275=FACE_BOUND('',#379,.T.);
#276=FACE_BOUND('',#380,.T.);
#277=FACE_BOUND('',#381,.T.);
#278=FACE_BOUND('',#382,.T.);
#279=FACE_BOUND('',#383,.T.);
#280=FACE_BOUND('',#384,.T.);
#281=FACE_BOUND('',#385,.T.);
#282=FACE_BOUND('',#386,.T.);
#283=FACE_BOUND('',#387,.T.);
#284=FACE_BOUND('',#388,.T.);
#285=FACE_BOUND('',#389,.T.);
#286=FACE_BOUND('',#390,.T.);
#287=FACE_BOUND('',#391,.T.);
#288=FACE_BOUND('',#392,.T.);
#289=FACE_BOUND('',#393,.T.);
#290=FACE_BOUND('',#394,.T.);
#291=FACE_BOUND('',#395,.T.);
#292=FACE_BOUND('',#396,.T.);
#293=FACE_BOUND('',#397,.T.);
#294=FACE_BOUND('',#398,.T.);
#295=EDGE_LOOP('',(#399));
#296=EDGE_LOOP('',(#400));
#297=EDGE_LOOP('',(#401));
#298=EDGE_LOOP('',(#402));
#299=EDGE_LOOP('',(#403));
#300=EDGE_LOOP('',(#404));
#301=EDGE_LOOP('',(#405));
#302=EDGE_LOOP('',(#406));
#303=EDGE_LOOP('',(#407));
#304=EDGE_LOOP('',(#408));
#305=EDGE_LOOP('',(#409));
#306=EDGE_LOOP('',(#410));
#307=EDGE_LOOP('',(#411));
#308=EDGE_LOOP('',(#412));
#309=EDGE_LOOP('',(#413));
#310=EDGE_LOOP('',(#414));
#311=EDGE_LOOP('',(#415));
#312=EDGE_LOOP('',(#416));
#313=EDGE_LOOP('',(#417));
#314=EDGE_LOOP('',(#418));
#315=EDGE_LOOP('',(#419));
#316=EDGE_LOOP('',(#420));
#317=EDGE_LOOP('',(#421));
#318=EDGE_LOOP('',(#422));
#319=EDGE_LOOP('',(#423));
#320=EDGE_LOOP('',(#424));
#321=EDGE_LOOP('',(#425));
#322=EDGE_LOOP('',(#426));
#323=EDGE_LOOP('',(#427));
#324=EDGE_LOOP('',(#428));
#325=EDGE_LOOP('',(#429));
#326=EDGE_LOOP('',(#430));
#327=EDGE_LOOP('',(#431));
#328=EDGE_LOOP('',(#432));
#329=EDGE_LOOP('',(#433));
#330=EDGE_LOOP('',(#434));
#331=EDGE_LOOP('',(#435));
#332=EDGE_LOOP('',(#436));
#333=EDGE_LOOP('',(#437));
#334=EDGE_LOOP('',(#438));
#335=EDGE_LOOP('',(#439));
#336=EDGE_LOOP('',(#440));
#337=EDGE_LOOP('',(#441));
#338=EDGE_LOOP('',(#442));
#339=EDGE_LOOP('',(#443));
#340=EDGE_LOOP('',(#444));
#341=EDGE_LOOP('',(#445));
#342=EDGE_LOOP('',(#446));
#343=EDGE_LOOP('',(#447));
#344=EDGE_LOOP('',(#448));
#345=EDGE_LOOP('',(#449));
#346=EDGE_LOOP('',(#450));
#347=EDGE_LOOP('',(#451));
#348=EDGE_LOOP('',(#452));
#349=EDGE_LOOP('',(#453));
#350=EDGE_LOOP('',(#454));
#351=EDGE_LOOP('',(#455));
#352=EDGE_LOOP('',(#456));
#353=EDGE_LOOP('',(#457));
#354=EDGE_LOOP('',(#458));
#355=EDGE_LOOP('',(#459));
#356=EDGE_LOOP('',(#460));
#357=EDGE_LOOP('',(#461));
#358=EDGE_LOOP('',(#462));
#359=EDGE_LOOP('',(#463));
#360=EDGE_LOOP('',(#464));
#361=EDGE_LOOP('',(#465));
#362=EDGE_LOOP('',(#466));
#363=EDGE_LOOP('',(#467));
#364=EDGE_LOOP('',(#468));
#365=EDGE_LOOP('',(#469));
#366=EDGE_LOOP('',(#470));
#367=EDGE_LOOP('',(#471));
#368=EDGE_LOOP('',(#472));
#369=EDGE_LOOP('',(#473));
#370=EDGE_LOOP('',(#474));
#371=EDGE_LOOP('',(#475));
#372=EDGE_LOOP('',(#476));
#373=EDGE_LOOP('',(#477));
#374=EDGE_LOOP('',(#478));
#375=EDGE_LOOP('',(#479));
#376=EDGE_LOOP('',(#480));
#377=EDGE_LOOP('',(#481));
#378=EDGE_LOOP('',(#482));
#379=EDGE_LOOP('',(#483));
#380=EDGE_LOOP('',(#484));
#381=EDGE_LOOP('',(#485));
#382=EDGE_LOOP('',(#486));
#383=EDGE_LOOP('',(#487));
#384=EDGE_LOOP('',(#488));
#385=EDGE_LOOP('',(#489));
#386=EDGE_LOOP('',(#490));
#387=EDGE_LOOP('',(#491));
#388=EDGE_LOOP('',(#492));
#389=EDGE_LOOP('',(#493));
#390=EDGE_LOOP('',(#494));
#391=EDGE_LOOP('',(#495));
#392=EDGE_LOOP('',(#496));
#393=EDGE_LOOP('',(#497));
#394=EDGE_LOOP('',(#498));
#395=EDGE_LOOP('',(#499));
#396=EDGE_LOOP('',(#500));
#397=EDGE_LOOP('',(#501));
#398=EDGE_LOOP('',(#502));
#399=ORIENTED_EDGE('',*,*,#555,.T.);
#400=ORIENTED_EDGE('',*,*,#556,.T.);
#401=ORIENTED_EDGE('',*,*,#557,.T.);
#402=ORIENTED_EDGE('',*,*,#558,.T.);
#403=ORIENTED_EDGE('',*,*,#559,.T.);
#404=ORIENTED_EDGE('',*,*,#560,.T.);
#405=ORIENTED_EDGE('',*,*,#561,.T.);
#406=ORIENTED_EDGE('',*,*,#562,.T.);
#407=ORIENTED_EDGE('',*,*,#563,.T.);
#408=ORIENTED_EDGE('',*,*,#564,.T.);
#409=ORIENTED_EDGE('',*,*,#565,.T.);
#410=ORIENTED_EDGE('',*,*,#566,.T.);
#411=ORIENTED_EDGE('',*,*,#567,.T.);
#412=ORIENTED_EDGE('',*,*,#568,.T.);
#413=ORIENTED_EDGE('',*,*,#569,.T.);
#414=ORIENTED_EDGE('',*,*,#570,.T.);
#415=ORIENTED_EDGE('',*,*,#571,.T.);
#416=ORIENTED_EDGE('',*,*,#572,.T.);
#417=ORIENTED_EDGE('',*,*,#573,.T.);
#418=ORIENTED_EDGE('',*,*,#574,.T.);
#419=ORIENTED_EDGE('',*,*,#575,.T.);
#420=ORIENTED_EDGE('',*,*,#576,.T.);
#421=ORIENTED_EDGE('',*,*,#577,.T.);
#422=ORIENTED_EDGE('',*,*,#578,.T.);
#423=ORIENTED_EDGE('',*,*,#579,.T.);
#424=ORIENTED_EDGE('',*,*,#580,.T.);
#425=ORIENTED_EDGE('',*,*,#581,.T.);
#426=ORIENTED_EDGE('',*,*,#582,.T.);
#427=ORIENTED_EDGE('',*,*,#583,.T.);
#428=ORIENTED_EDGE('',*,*,#584,.T.);
#429=ORIENTED_EDGE('',*,*,#585,.T.);
#430=ORIENTED_EDGE('',*,*,#586,.T.);
#431=ORIENTED_EDGE('',*,*,#587,.T.);
#432=ORIENTED_EDGE('',*,*,#588,.T.);
#433=ORIENTED_EDGE('',*,*,#589,.T.);
#434=ORIENTED_EDGE('',*,*,#590,.T.);
#435=ORIENTED_EDGE('',*,*,#591,.T.);
#436=ORIENTED_EDGE('',*,*,#590,.F.);
#437=ORIENTED_EDGE('',*,*,#562,.F.);
#438=ORIENTED_EDGE('',*,*,#591,.F.);
#439=ORIENTED_EDGE('',*,*,#572,.F.);
#440=ORIENTED_EDGE('',*,*,#589,.F.);
#441=ORIENTED_EDGE('',*,*,#571,.F.);
#442=ORIENTED_EDGE('',*,*,#588,.F.);
#443=ORIENTED_EDGE('',*,*,#592,.T.);
#444=ORIENTED_EDGE('',*,*,#593,.T.);
#445=ORIENTED_EDGE('',*,*,#594,.T.);
#446=ORIENTED_EDGE('',*,*,#593,.F.);
#447=ORIENTED_EDGE('',*,*,#560,.F.);
#448=ORIENTED_EDGE('',*,*,#594,.F.);
#449=ORIENTED_EDGE('',*,*,#570,.F.);
#450=ORIENTED_EDGE('',*,*,#592,.F.);
#451=ORIENTED_EDGE('',*,*,#595,.T.);
#452=ORIENTED_EDGE('',*,*,#596,.T.);
#453=ORIENTED_EDGE('',*,*,#597,.T.);
#454=ORIENTED_EDGE('',*,*,#596,.F.);
#455=ORIENTED_EDGE('',*,*,#558,.F.);
#456=ORIENTED_EDGE('',*,*,#597,.F.);
#457=ORIENTED_EDGE('',*,*,#569,.F.);
#458=ORIENTED_EDGE('',*,*,#595,.F.);
#459=ORIENTED_EDGE('',*,*,#598,.T.);
#460=ORIENTED_EDGE('',*,*,#599,.T.);
#461=ORIENTED_EDGE('',*,*,#600,.T.);
#462=ORIENTED_EDGE('',*,*,#599,.F.);
#463=ORIENTED_EDGE('',*,*,#556,.F.);
#464=ORIENTED_EDGE('',*,*,#600,.F.);
#465=ORIENTED_EDGE('',*,*,#568,.F.);
#466=ORIENTED_EDGE('',*,*,#598,.F.);
#467=ORIENTED_EDGE('',*,*,#601,.T.);
#468=ORIENTED_EDGE('',*,*,#602,.T.);
#469=ORIENTED_EDGE('',*,*,#567,.F.);
#470=ORIENTED_EDGE('',*,*,#602,.F.);
#471=ORIENTED_EDGE('',*,*,#603,.T.);
#472=ORIENTED_EDGE('',*,*,#604,.T.);
#473=ORIENTED_EDGE('',*,*,#566,.F.);
#474=ORIENTED_EDGE('',*,*,#604,.F.);
#475=ORIENTED_EDGE('',*,*,#605,.T.);
#476=ORIENTED_EDGE('',*,*,#606,.T.);
#477=ORIENTED_EDGE('',*,*,#565,.F.);
#478=ORIENTED_EDGE('',*,*,#606,.F.);
#479=ORIENTED_EDGE('',*,*,#563,.F.);
#480=ORIENTED_EDGE('',*,*,#573,.F.);
#481=ORIENTED_EDGE('',*,*,#574,.F.);
#482=ORIENTED_EDGE('',*,*,#575,.F.);
#483=ORIENTED_EDGE('',*,*,#555,.F.);
#484=ORIENTED_EDGE('',*,*,#576,.F.);
#485=ORIENTED_EDGE('',*,*,#603,.F.);
#486=ORIENTED_EDGE('',*,*,#577,.F.);
#487=ORIENTED_EDGE('',*,*,#557,.F.);
#488=ORIENTED_EDGE('',*,*,#578,.F.);
#489=ORIENTED_EDGE('',*,*,#601,.F.);
#490=ORIENTED_EDGE('',*,*,#579,.F.);
#491=ORIENTED_EDGE('',*,*,#559,.F.);
#492=ORIENTED_EDGE('',*,*,#580,.F.);
#493=ORIENTED_EDGE('',*,*,#587,.F.);
#494=ORIENTED_EDGE('',*,*,#581,.F.);
#495=ORIENTED_EDGE('',*,*,#561,.F.);
#496=ORIENTED_EDGE('',*,*,#582,.F.);
#497=ORIENTED_EDGE('',*,*,#605,.F.);
#498=ORIENTED_EDGE('',*,*,#583,.F.);
#499=ORIENTED_EDGE('',*,*,#584,.F.);
#500=ORIENTED_EDGE('',*,*,#585,.F.);
#501=ORIENTED_EDGE('',*,*,#586,.F.);
#502=ORIENTED_EDGE('',*,*,#564,.F.);
#503=VERTEX_POINT('',#952);
#504=VERTEX_POINT('',#954);
#505=VERTEX_POINT('',#957);
#506=VERTEX_POINT('',#959);
#507=VERTEX_POINT('',#962);
#508=VERTEX_POINT('',#964);
#509=VERTEX_POINT('',#967);
#510=VERTEX_POINT('',#969);
#511=VERTEX_POINT('',#972);
#512=VERTEX_POINT('',#974);
#513=VERTEX_POINT('',#976);
#514=VERTEX_POINT('',#978);
#515=VERTEX_POINT('',#980);
#516=VERTEX_POINT('',#982);
#517=VERTEX_POINT('',#984);
#518=VERTEX_POINT('',#986);
#519=VERTEX_POINT('',#988);
#520=VERTEX_POINT('',#990);
#521=VERTEX_POINT('',#993);
#522=VERTEX_POINT('',#995);
#523=VERTEX_POINT('',#998);
#524=VERTEX_POINT('',#1000);
#525=VERTEX_POINT('',#1002);
#526=VERTEX_POINT('',#1004);
#527=VERTEX_POINT('',#1006);
#528=VERTEX_POINT('',#1008);
#529=VERTEX_POINT('',#1010);
#530=VERTEX_POINT('',#1012);
#531=VERTEX_POINT('',#1014);
#532=VERTEX_POINT('',#1016);
#533=VERTEX_POINT('',#1019);
#534=VERTEX_POINT('',#1021);
#535=VERTEX_POINT('',#1024);
#536=VERTEX_POINT('',#1026);
#537=VERTEX_POINT('',#1029);
#538=VERTEX_POINT('',#1031);
#539=VERTEX_POINT('',#1034);
#540=VERTEX_POINT('',#1040);
#541=VERTEX_POINT('',#1042);
#542=VERTEX_POINT('',#1045);
#543=VERTEX_POINT('',#1050);
#544=VERTEX_POINT('',#1052);
#545=VERTEX_POINT('',#1055);
#546=VERTEX_POINT('',#1060);
#547=VERTEX_POINT('',#1062);
#548=VERTEX_POINT('',#1065);
#549=VERTEX_POINT('',#1070);
#550=VERTEX_POINT('',#1072);
#551=VERTEX_POINT('',#1076);
#552=VERTEX_POINT('',#1078);
#553=VERTEX_POINT('',#1082);
#554=VERTEX_POINT('',#1084);
#555=EDGE_CURVE('',#503,#503,#607,.T.);
#556=EDGE_CURVE('',#504,#504,#608,.T.);
#557=EDGE_CURVE('',#505,#505,#609,.T.);
#558=EDGE_CURVE('',#506,#506,#610,.T.);
#559=EDGE_CURVE('',#507,#507,#611,.T.);
#560=EDGE_CURVE('',#508,#508,#612,.T.);
#561=EDGE_CURVE('',#509,#509,#613,.T.);
#562=EDGE_CURVE('',#510,#510,#614,.T.);
#563=EDGE_CURVE('',#511,#511,#615,.T.);
#564=EDGE_CURVE('',#512,#512,#616,.T.);
#565=EDGE_CURVE('',#513,#513,#617,.T.);
#566=EDGE_CURVE('',#514,#514,#618,.T.);
#567=EDGE_CURVE('',#515,#515,#619,.T.);
#568=EDGE_CURVE('',#516,#516,#620,.T.);
#569=EDGE_CURVE('',#517,#517,#621,.T.);
#570=EDGE_CURVE('',#518,#518,#622,.T.);
#571=EDGE_CURVE('',#519,#519,#623,.T.);
#572=EDGE_CURVE('',#520,#520,#624,.T.);
#573=EDGE_CURVE('',#521,#521,#625,.T.);
#574=EDGE_CURVE('',#522,#522,#626,.T.);
#575=EDGE_CURVE('',#523,#523,#627,.T.);
#576=EDGE_CURVE('',#524,#524,#628,.T.);
#577=EDGE_CURVE('',#525,#525,#629,.T.);
#578=EDGE_CURVE('',#526,#526,#630,.T.);
#579=EDGE_CURVE('',#527,#527,#631,.T.);
#580=EDGE_CURVE('',#528,#528,#632,.T.);
#581=EDGE_CURVE('',#529,#529,#633,.T.);
#582=EDGE_CURVE('',#530,#530,#634,.T.);
#583=EDGE_CURVE('',#531,#531,#635,.T.);
#584=EDGE_CURVE('',#532,#532,#636,.T.);
#585=EDGE_CURVE('',#533,#533,#637,.T.);
#586=EDGE_CURVE('',#534,#534,#638,.T.);
#587=EDGE_CURVE('',#535,#535,#639,.T.);
#588=EDGE_CURVE('',#536,#536,#640,.T.);
#589=EDGE_CURVE('',#537,#537,#641,.T.);
#590=EDGE_CURVE('',#538,#538,#642,.T.);
#591=EDGE_CURVE('',#539,#539,#643,.T.);
#592=EDGE_CURVE('',#540,#540,#644,.T.);
#593=EDGE_CURVE('',#541,#541,#645,.T.);
#594=EDGE_CURVE('',#542,#542,#646,.T.);
#595=EDGE_CURVE('',#543,#543,#647,.T.);
#596=EDGE_CURVE('',#544,#544,#648,.T.);
#597=EDGE_CURVE('',#545,#545,#649,.T.);
#598=EDGE_CURVE('',#546,#546,#650,.T.);
#599=EDGE_CURVE('',#547,#547,#651,.T.);
#600=EDGE_CURVE('',#548,#548,#652,.T.);
#601=EDGE_CURVE('',#549,#549,#653,.T.);
#602=EDGE_CURVE('',#550,#550,#654,.T.);
#603=EDGE_CURVE('',#551,#551,#655,.T.);
#604=EDGE_CURVE('',#552,#552,#656,.T.);
#605=EDGE_CURVE('',#553,#553,#657,.T.);
#606=EDGE_CURVE('',#554,#554,#658,.T.);
#607=CIRCLE('',#660,1.25);
#608=CIRCLE('',#661,1.25);
#609=CIRCLE('',#663,1.25);
#610=CIRCLE('',#664,1.25);
#611=CIRCLE('',#666,1.25);
#612=CIRCLE('',#667,1.25);
#613=CIRCLE('',#669,1.25);
#614=CIRCLE('',#670,1.25);
#615=CIRCLE('',#672,5.);
#616=CIRCLE('',#673,16.7);
#617=CIRCLE('',#674,1.95);
#618=CIRCLE('',#675,1.95);
#619=CIRCLE('',#676,1.95);
#620=CIRCLE('',#677,2.75);
#621=CIRCLE('',#678,2.75);
#622=CIRCLE('',#679,2.75);
#623=CIRCLE('',#680,1.95);
#624=CIRCLE('',#681,2.75);
#625=CIRCLE('',#683,4.7);
#626=CIRCLE('',#684,4.7);
#627=CIRCLE('',#686,5.);
#628=CIRCLE('',#687,1.55);
#629=CIRCLE('',#688,1.95);
#630=CIRCLE('',#689,1.55);
#631=CIRCLE('',#690,1.95);
#632=CIRCLE('',#691,1.55);
#633=CIRCLE('',#692,1.95);
#634=CIRCLE('',#693,1.55);
#635=CIRCLE('',#694,1.95);
#636=CIRCLE('',#695,16.7);
#637=CIRCLE('',#697,17.);
#638=CIRCLE('',#698,17.);
#639=CIRCLE('',#700,1.65);
#640=CIRCLE('',#701,1.65);
#641=CIRCLE('',#703,2.45);
#642=CIRCLE('',#704,2.45);
#643=CIRCLE('',#706,1.55);
#644=CIRCLE('',#711,2.45);
#645=CIRCLE('',#712,2.45);
#646=CIRCLE('',#714,1.55);
#647=CIRCLE('',#718,2.45);
#648=CIRCLE('',#719,2.45);
#649=CIRCLE('',#721,1.55);
#650=CIRCLE('',#725,2.45);
#651=CIRCLE('',#726,2.45);
#652=CIRCLE('',#728,1.55);
#653=CIRCLE('',#732,1.65);
#654=CIRCLE('',#733,1.65);
#655=CIRCLE('',#736,1.65);
#656=CIRCLE('',#737,1.65);
#657=CIRCLE('',#740,1.65);
#658=CIRCLE('',#741,1.65);
#659=AXIS2_PLACEMENT_3D('',#950,#756,#757);
#660=AXIS2_PLACEMENT_3D('',#951,#758,#759);
#661=AXIS2_PLACEMENT_3D('',#953,#760,#761);
#662=AXIS2_PLACEMENT_3D('',#955,#762,#763);
#663=AXIS2_PLACEMENT_3D('',#956,#764,#765);
#664=AXIS2_PLACEMENT_3D('',#958,#766,#767);
#665=AXIS2_PLACEMENT_3D('',#960,#768,#769);
#666=AXIS2_PLACEMENT_3D('',#961,#770,#771);
#667=AXIS2_PLACEMENT_3D('',#963,#772,#773);
#668=AXIS2_PLACEMENT_3D('',#965,#774,#775);
#669=AXIS2_PLACEMENT_3D('',#966,#776,#777);
#670=AXIS2_PLACEMENT_3D('',#968,#778,#779);
#671=AXIS2_PLACEMENT_3D('',#970,#780,#781);
#672=AXIS2_PLACEMENT_3D('',#971,#782,#783);
#673=AXIS2_PLACEMENT_3D('',#973,#784,#785);
#674=AXIS2_PLACEMENT_3D('',#975,#786,#787);
#675=AXIS2_PLACEMENT_3D('',#977,#788,#789);
#676=AXIS2_PLACEMENT_3D('',#979,#790,#791);
#677=AXIS2_PLACEMENT_3D('',#981,#792,#793);
#678=AXIS2_PLACEMENT_3D('',#983,#794,#795);
#679=AXIS2_PLACEMENT_3D('',#985,#796,#797);
#680=AXIS2_PLACEMENT_3D('',#987,#798,#799);
#681=AXIS2_PLACEMENT_3D('',#989,#800,#801);
#682=AXIS2_PLACEMENT_3D('',#991,#802,#803);
#683=AXIS2_PLACEMENT_3D('',#992,#804,#805);
#684=AXIS2_PLACEMENT_3D('',#994,#806,#807);
#685=AXIS2_PLACEMENT_3D('',#996,#808,#809);
#686=AXIS2_PLACEMENT_3D('',#997,#810,#811);
#687=AXIS2_PLACEMENT_3D('',#999,#812,#813);
#688=AXIS2_PLACEMENT_3D('',#1001,#814,#815);
#689=AXIS2_PLACEMENT_3D('',#1003,#816,#817);
#690=AXIS2_PLACEMENT_3D('',#1005,#818,#819);
#691=AXIS2_PLACEMENT_3D('',#1007,#820,#821);
#692=AXIS2_PLACEMENT_3D('',#1009,#822,#823);
#693=AXIS2_PLACEMENT_3D('',#1011,#824,#825);
#694=AXIS2_PLACEMENT_3D('',#1013,#826,#827);
#695=AXIS2_PLACEMENT_3D('',#1015,#828,#829);
#696=AXIS2_PLACEMENT_3D('',#1017,#830,#831);
#697=AXIS2_PLACEMENT_3D('',#1018,#832,#833);
#698=AXIS2_PLACEMENT_3D('',#1020,#834,#835);
#699=AXIS2_PLACEMENT_3D('',#1022,#836,#837);
#700=AXIS2_PLACEMENT_3D('',#1023,#838,#839);
#701=AXIS2_PLACEMENT_3D('',#1025,#840,#841);
#702=AXIS2_PLACEMENT_3D('',#1027,#842,#843);
#703=AXIS2_PLACEMENT_3D('',#1028,#844,#845);
#704=AXIS2_PLACEMENT_3D('',#1030,#846,#847);
#705=AXIS2_PLACEMENT_3D('',#1032,#848,#849);
#706=AXIS2_PLACEMENT_3D('',#1033,#850,#851);
#707=AXIS2_PLACEMENT_3D('',#1035,#852,#853);
#708=AXIS2_PLACEMENT_3D('',#1036,#854,#855);
#709=AXIS2_PLACEMENT_3D('',#1037,#856,#857);
#710=AXIS2_PLACEMENT_3D('',#1038,#858,#859);
#711=AXIS2_PLACEMENT_3D('',#1039,#860,#861);
#712=AXIS2_PLACEMENT_3D('',#1041,#862,#863);
#713=AXIS2_PLACEMENT_3D('',#1043,#864,#865);
#714=AXIS2_PLACEMENT_3D('',#1044,#866,#867);
#715=AXIS2_PLACEMENT_3D('',#1046,#868,#869);
#716=AXIS2_PLACEMENT_3D('',#1047,#870,#871);
#717=AXIS2_PLACEMENT_3D('',#1048,#872,#873);
#718=AXIS2_PLACEMENT_3D('',#1049,#874,#875);
#719=AXIS2_PLACEMENT_3D('',#1051,#876,#877);
#720=AXIS2_PLACEMENT_3D('',#1053,#878,#879);
#721=AXIS2_PLACEMENT_3D('',#1054,#880,#881);
#722=AXIS2_PLACEMENT_3D('',#1056,#882,#883);
#723=AXIS2_PLACEMENT_3D('',#1057,#884,#885);
#724=AXIS2_PLACEMENT_3D('',#1058,#886,#887);
#725=AXIS2_PLACEMENT_3D('',#1059,#888,#889);
#726=AXIS2_PLACEMENT_3D('',#1061,#890,#891);
#727=AXIS2_PLACEMENT_3D('',#1063,#892,#893);
#728=AXIS2_PLACEMENT_3D('',#1064,#894,#895);
#729=AXIS2_PLACEMENT_3D('',#1066,#896,#897);
#730=AXIS2_PLACEMENT_3D('',#1067,#898,#899);
#731=AXIS2_PLACEMENT_3D('',#1068,#900,#901);
#732=AXIS2_PLACEMENT_3D('',#1069,#902,#903);
#733=AXIS2_PLACEMENT_3D('',#1071,#904,#905);
#734=AXIS2_PLACEMENT_3D('',#1073,#906,#907);
#735=AXIS2_PLACEMENT_3D('',#1074,#908,#909);
#736=AXIS2_PLACEMENT_3D('',#1075,#910,#911);
#737=AXIS2_PLACEMENT_3D('',#1077,#912,#913);
#738=AXIS2_PLACEMENT_3D('',#1079,#914,#915);
#739=AXIS2_PLACEMENT_3D('',#1080,#916,#917);
#740=AXIS2_PLACEMENT_3D('',#1081,#918,#919);
#741=AXIS2_PLACEMENT_3D('',#1083,#920,#921);
#742=AXIS2_PLACEMENT_3D('',#1085,#922,#923);
#743=AXIS2_PLACEMENT_3D('',#1086,#924,#925);
#744=AXIS2_PLACEMENT_3D('',#1087,#926,#927);
#745=AXIS2_PLACEMENT_3D('',#1088,#928,#929);
#746=AXIS2_PLACEMENT_3D('',#1089,#930,#931);
#747=AXIS2_PLACEMENT_3D('',#1090,#932,#933);
#748=AXIS2_PLACEMENT_3D('',#1091,#934,#935);
#749=AXIS2_PLACEMENT_3D('',#1092,#936,#937);
#750=AXIS2_PLACEMENT_3D('',#1093,#938,#939);
#751=AXIS2_PLACEMENT_3D('',#1094,#940,#941);
#752=AXIS2_PLACEMENT_3D('',#1095,#942,#943);
#753=AXIS2_PLACEMENT_3D('',#1096,#944,#945);
#754=AXIS2_PLACEMENT_3D('',#1097,#946,#947);
#755=AXIS2_PLACEMENT_3D('',#1098,#948,#949);
#756=DIRECTION('',(0.,0.,1.));
#757=DIRECTION('',(1.,0.,0.));
#758=DIRECTION('',(1.,0.,0.));
#759=DIRECTION('',(0.,0.,1.));
#760=DIRECTION('',(-1.,0.,0.));
#761=DIRECTION('',(0.,0.,1.));
#762=DIRECTION('',(-1.,0.,0.));
#763=DIRECTION('',(0.,0.,1.));
#764=DIRECTION('',(1.,0.,0.));
#765=DIRECTION('',(0.,0.,0.999999999999999));
#766=DIRECTION('',(-1.,0.,0.));
#767=DIRECTION('',(0.,0.,0.999999999999999));
#768=DIRECTION('',(-1.,0.,0.));
#769=DIRECTION('',(0.,0.,0.999999999999999));
#770=DIRECTION('',(1.,0.,0.));
#771=DIRECTION('',(0.,0.,1.));
#772=DIRECTION('',(-1.,0.,0.));
#773=DIRECTION('',(0.,0.,1.));
#774=DIRECTION('',(-1.,0.,0.));
#775=DIRECTION('',(0.,0.,1.));
#776=DIRECTION('',(1.,0.,0.));
#777=DIRECTION('',(0.,0.,0.999999999999999));
#778=DIRECTION('',(-1.,0.,0.));
#779=DIRECTION('',(0.,0.,0.999999999999999));
#780=DIRECTION('',(-1.,0.,0.));
#781=DIRECTION('',(0.,0.,0.999999999999999));
#782=DIRECTION('',(1.,0.,0.));
#783=DIRECTION('',(0.,0.,-1.));
#784=DIRECTION('',(-1.,0.,0.));
#785=DIRECTION('',(0.,0.,-1.));
#786=DIRECTION('',(1.,0.,0.));
#787=DIRECTION('',(0.,0.,-1.));
#788=DIRECTION('',(1.,0.,0.));
#789=DIRECTION('',(0.,0.,-1.));
#790=DIRECTION('',(1.,0.,0.));
#791=DIRECTION('',(0.,0.,-1.));
#792=DIRECTION('',(1.,0.,0.));
#793=DIRECTION('',(0.,0.,-1.));
#794=DIRECTION('',(1.,0.,0.));
#795=DIRECTION('',(0.,0.,-1.));
#796=DIRECTION('',(1.,0.,0.));
#797=DIRECTION('',(0.,0.,-1.));
#798=DIRECTION('',(1.,0.,0.));
#799=DIRECTION('',(0.,0.,-1.));
#800=DIRECTION('',(1.,0.,0.));
#801=DIRECTION('',(0.,0.,-1.));
#802=DIRECTION('',(1.,0.,0.));
#803=DIRECTION('',(0.,0.,-1.));
#804=DIRECTION('',(-1.,0.,0.));
#805=DIRECTION('',(0.,0.,-1.));
#806=DIRECTION('',(1.,0.,0.));
#807=DIRECTION('',(0.,0.,1.));
#808=DIRECTION('',(-1.,0.,0.));
#809=DIRECTION('',(0.,0.,1.));
#810=DIRECTION('',(-1.,0.,0.));
#811=DIRECTION('',(0.,0.,1.));
#812=DIRECTION('',(-1.,0.,0.));
#813=DIRECTION('',(0.,0.,1.));
#814=DIRECTION('',(-1.,0.,0.));
#815=DIRECTION('',(0.,0.,1.));
#816=DIRECTION('',(-1.,0.,0.));
#817=DIRECTION('',(0.,0.,1.));
#818=DIRECTION('',(-1.,0.,0.));
#819=DIRECTION('',(0.,0.,1.));
#820=DIRECTION('',(-1.,0.,0.));
#821=DIRECTION('',(0.,0.,1.));
#822=DIRECTION('',(-1.,0.,0.));
#823=DIRECTION('',(0.,0.,1.));
#824=DIRECTION('',(-1.,0.,0.));
#825=DIRECTION('',(0.,0.,1.));
#826=DIRECTION('',(-1.,0.,0.));
#827=DIRECTION('',(0.,0.,1.));
#828=DIRECTION('',(1.,0.,0.));
#829=DIRECTION('',(0.,0.,1.));
#830=DIRECTION('',(-1.,0.,0.));
#831=DIRECTION('',(0.,0.,1.));
#832=DIRECTION('',(-1.,0.,0.));
#833=DIRECTION('',(0.,0.,1.));
#834=DIRECTION('',(1.,0.,0.));
#835=DIRECTION('',(0.,0.,-1.));
#836=DIRECTION('',(-1.,0.,0.));
#837=DIRECTION('',(0.,0.,1.));
#838=DIRECTION('',(1.,0.,0.));
#839=DIRECTION('',(0.,0.,1.));
#840=DIRECTION('',(-1.,0.,0.));
#841=DIRECTION('',(0.,0.,-1.));
#842=DIRECTION('',(-1.,0.,0.));
#843=DIRECTION('',(0.,0.,1.));
#844=DIRECTION('',(-1.,0.,0.));
#845=DIRECTION('',(0.,0.,-1.));
#846=DIRECTION('',(1.,0.,0.));
#847=DIRECTION('',(0.,1.,0.));
#848=DIRECTION('',(-1.,0.,0.));
#849=DIRECTION('',(0.,0.,1.));
#850=DIRECTION('',(1.,0.,0.));
#851=DIRECTION('',(0.,0.,1.));
#852=DIRECTION('',(-1.,0.,0.));
#853=DIRECTION('',(0.,0.,1.));
#854=DIRECTION('',(-1.,0.,0.));
#855=DIRECTION('',(2.42485434213722E-17,0.,1.));
#856=DIRECTION('',(-1.,0.,0.));
#857=DIRECTION('',(-3.28791920231027E-17,0.,1.));
#858=DIRECTION('',(-1.,0.,0.));
#859=DIRECTION('',(-3.29054520476807E-17,0.,1.));
#860=DIRECTION('',(-1.,0.,0.));
#861=DIRECTION('',(0.,0.,-1.));
#862=DIRECTION('',(1.,0.,0.));
#863=DIRECTION('',(0.,0.,1.));
#864=DIRECTION('',(-1.,0.,0.));
#865=DIRECTION('',(0.,0.,1.));
#866=DIRECTION('',(1.,0.,0.));
#867=DIRECTION('',(0.,0.,1.));
#868=DIRECTION('',(-1.,0.,0.));
#869=DIRECTION('',(0.,0.,1.));
#870=DIRECTION('',(-1.,0.,0.));
#871=DIRECTION('',(2.42485434213722E-17,0.,1.));
#872=DIRECTION('',(-1.,0.,0.));
#873=DIRECTION('',(-3.28791920231027E-17,0.,1.));
#874=DIRECTION('',(-1.,0.,0.));
#875=DIRECTION('',(0.,0.,-1.));
#876=DIRECTION('',(1.,0.,0.));
#877=DIRECTION('',(0.,-1.,0.));
#878=DIRECTION('',(-1.,0.,0.));
#879=DIRECTION('',(0.,0.,1.));
#880=DIRECTION('',(1.,0.,0.));
#881=DIRECTION('',(0.,0.,1.));
#882=DIRECTION('',(-1.,0.,0.));
#883=DIRECTION('',(0.,0.,1.));
#884=DIRECTION('',(-1.,0.,0.));
#885=DIRECTION('',(2.42485434213722E-17,0.,1.));
#886=DIRECTION('',(-1.,0.,0.));
#887=DIRECTION('',(-3.28791920231027E-17,0.,1.));
#888=DIRECTION('',(-1.,0.,0.));
#889=DIRECTION('',(0.,0.,-1.));
#890=DIRECTION('',(1.,0.,0.));
#891=DIRECTION('',(0.,0.,-1.));
#892=DIRECTION('',(-1.,0.,0.));
#893=DIRECTION('',(0.,0.,1.));
#894=DIRECTION('',(1.,0.,0.));
#895=DIRECTION('',(0.,0.,1.));
#896=DIRECTION('',(-1.,0.,0.));
#897=DIRECTION('',(0.,0.,1.));
#898=DIRECTION('',(-1.,0.,0.));
#899=DIRECTION('',(2.42485434213722E-17,0.,1.));
#900=DIRECTION('',(-1.,0.,0.));
#901=DIRECTION('',(-3.28791920231027E-17,0.,1.));
#902=DIRECTION('',(1.,0.,0.));
#903=DIRECTION('',(0.,0.,1.));
#904=DIRECTION('',(-1.,0.,0.));
#905=DIRECTION('',(0.,0.,-1.));
#906=DIRECTION('',(-1.,0.,0.));
#907=DIRECTION('',(0.,0.,1.));
#908=DIRECTION('',(-1.,0.,0.));
#909=DIRECTION('',(-3.29054520476807E-17,0.,1.));
#910=DIRECTION('',(1.,0.,0.));
#911=DIRECTION('',(0.,0.,1.));
#912=DIRECTION('',(-1.,0.,0.));
#913=DIRECTION('',(0.,0.,-1.));
#914=DIRECTION('',(-1.,0.,0.));
#915=DIRECTION('',(0.,0.,1.));
#916=DIRECTION('',(-1.,0.,0.));
#917=DIRECTION('',(-3.29054520476807E-17,0.,1.));
#918=DIRECTION('',(1.,0.,0.));
#919=DIRECTION('',(0.,0.,1.));
#920=DIRECTION('',(-1.,0.,0.));
#921=DIRECTION('',(0.,0.,-1.));
#922=DIRECTION('',(-1.,0.,0.));
#923=DIRECTION('',(0.,0.,1.));
#924=DIRECTION('',(-1.,0.,0.));
#925=DIRECTION('',(-3.29054520476807E-17,0.,1.));
#926=DIRECTION('',(-1.,0.,0.));
#927=DIRECTION('',(-3.28595164249862E-17,0.,1.));
#928=DIRECTION('',(1.,0.,0.));
#929=DIRECTION('',(-5.17827903276659E-17,0.,-1.));
#930=DIRECTION('',(1.,0.,0.));
#931=DIRECTION('',(-5.19611644743689E-17,0.,-1.));
#932=DIRECTION('',(1.,0.,0.));
#933=DIRECTION('',(-5.19404204594084E-17,0.,-1.));
#934=DIRECTION('',(1.,0.,0.));
#935=DIRECTION('',(-5.19611644743691E-17,0.,-1.));
#936=DIRECTION('',(1.,0.,0.));
#937=DIRECTION('',(-5.19404204594084E-17,0.,-1.));
#938=DIRECTION('',(1.,0.,0.));
#939=DIRECTION('',(-5.19611644743689E-17,0.,-1.));
#940=DIRECTION('',(1.,0.,0.));
#941=DIRECTION('',(-5.19404204594084E-17,0.,-1.));
#942=DIRECTION('',(1.,0.,0.));
#943=DIRECTION('',(-5.19611644743691E-17,0.,-1.));
#944=DIRECTION('',(1.,0.,0.));
#945=DIRECTION('',(-5.19404204594084E-17,0.,-1.));
#946=DIRECTION('',(-1.,0.,0.));
#947=DIRECTION('',(-1.87629874491099E-17,0.,1.));
#948=DIRECTION('',(1.,0.,0.));
#949=DIRECTION('',(0.,0.,-1.));
#950=CARTESIAN_POINT('',(0.,0.,0.));
#951=CARTESIAN_POINT('',(8.2,-11.,8.22010353707973E-14));
#952=CARTESIAN_POINT('',(8.2,-11.,1.25000000000008));
#953=CARTESIAN_POINT('',(3.1,-11.,8.22010353707973E-14));
#954=CARTESIAN_POINT('',(3.1,-11.,1.25000000000008));
#955=CARTESIAN_POINT('',(9.4,-11.,8.22010353707973E-14));
#956=CARTESIAN_POINT('',(8.2,0.,11.));
#957=CARTESIAN_POINT('',(8.2,0.,12.25));
#958=CARTESIAN_POINT('',(3.1,0.,11.));
#959=CARTESIAN_POINT('',(3.1,0.,12.25));
#960=CARTESIAN_POINT('',(9.4,0.,11.));
#961=CARTESIAN_POINT('',(8.2,11.,-2.57720180208155E-14));
#962=CARTESIAN_POINT('',(8.2,11.,1.24999999999997));
#963=CARTESIAN_POINT('',(3.1,11.,-2.57720180208155E-14));
#964=CARTESIAN_POINT('',(3.1,11.,1.24999999999997));
#965=CARTESIAN_POINT('',(9.4,11.,-2.57720180208155E-14));
#966=CARTESIAN_POINT('',(8.2,0.,-11.));
#967=CARTESIAN_POINT('',(8.2,0.,-9.75));
#968=CARTESIAN_POINT('',(3.1,0.,-11.));
#969=CARTESIAN_POINT('',(3.1,0.,-9.75));
#970=CARTESIAN_POINT('',(9.4,0.,-11.));
#971=CARTESIAN_POINT('',(0.,0.,0.));
#972=CARTESIAN_POINT('',(0.,0.,-5.));
#973=CARTESIAN_POINT('',(0.,0.,0.));
#974=CARTESIAN_POINT('',(0.,0.,-16.7));
#975=CARTESIAN_POINT('',(0.,-8.48528137423864,-8.4852813742385));
#976=CARTESIAN_POINT('',(0.,-8.48528137423864,-10.4352813742385));
#977=CARTESIAN_POINT('',(0.,-8.48528137423857,8.48528137423857));
#978=CARTESIAN_POINT('',(0.,-8.48528137423857,6.53528137423857));
#979=CARTESIAN_POINT('',(0.,8.48528137423859,8.48528137423855));
#980=CARTESIAN_POINT('',(0.,8.48528137423859,6.53528137423855));
#981=CARTESIAN_POINT('',(0.,-11.,8.22010353707973E-14));
#982=CARTESIAN_POINT('',(0.,-11.,-2.74999999999992));
#983=CARTESIAN_POINT('',(0.,0.,11.));
#984=CARTESIAN_POINT('',(0.,0.,8.25));
#985=CARTESIAN_POINT('',(0.,11.,-2.57720180208155E-14));
#986=CARTESIAN_POINT('',(0.,11.,-2.75000000000003));
#987=CARTESIAN_POINT('',(0.,8.48528137423856,-8.48528137423857));
#988=CARTESIAN_POINT('',(0.,8.48528137423856,-10.4352813742386));
#989=CARTESIAN_POINT('',(0.,0.,-11.));
#990=CARTESIAN_POINT('',(0.,0.,-13.75));
#991=CARTESIAN_POINT('',(0.,0.,17.));
#992=CARTESIAN_POINT('',(0.3,0.,0.));
#993=CARTESIAN_POINT('',(0.3,0.,-4.7));
#994=CARTESIAN_POINT('',(8.2,0.,0.));
#995=CARTESIAN_POINT('',(8.2,0.,4.7));
#996=CARTESIAN_POINT('',(0.,0.,0.));
#997=CARTESIAN_POINT('',(8.5,0.,0.));
#998=CARTESIAN_POINT('',(8.5,0.,5.));
#999=CARTESIAN_POINT('',(8.5,-11.,8.22010353707973E-14));
#1000=CARTESIAN_POINT('',(8.5,-11.,1.55000000000008));
#1001=CARTESIAN_POINT('',(8.5,-8.48528137423857,8.48528137423857));
#1002=CARTESIAN_POINT('',(8.5,-8.48528137423857,10.4352813742386));
#1003=CARTESIAN_POINT('',(8.5,0.,11.));
#1004=CARTESIAN_POINT('',(8.5,0.,12.55));
#1005=CARTESIAN_POINT('',(8.5,8.48528137423859,8.48528137423855));
#1006=CARTESIAN_POINT('',(8.5,8.48528137423859,10.4352813742385));
#1007=CARTESIAN_POINT('',(8.5,11.,-2.57720180208155E-14));
#1008=CARTESIAN_POINT('',(8.5,11.,1.54999999999997));
#1009=CARTESIAN_POINT('',(8.5,8.48528137423856,-8.48528137423857));
#1010=CARTESIAN_POINT('',(8.5,8.48528137423856,-6.53528137423857));
#1011=CARTESIAN_POINT('',(8.5,0.,-11.));
#1012=CARTESIAN_POINT('',(8.5,0.,-9.45));
#1013=CARTESIAN_POINT('',(8.5,-8.48528137423864,-8.4852813742385));
#1014=CARTESIAN_POINT('',(8.5,-8.48528137423864,-6.5352813742385));
#1015=CARTESIAN_POINT('',(8.5,0.,0.));
#1016=CARTESIAN_POINT('',(8.5,0.,16.7));
#1017=CARTESIAN_POINT('',(8.5,0.,4.7));
#1018=CARTESIAN_POINT('',(8.2,0.,0.));
#1019=CARTESIAN_POINT('',(8.2,0.,17.));
#1020=CARTESIAN_POINT('',(0.3,0.,0.));
#1021=CARTESIAN_POINT('',(0.3,0.,-17.));
#1022=CARTESIAN_POINT('',(0.,0.,0.));
#1023=CARTESIAN_POINT('',(8.2,8.48528137423856,-8.48528137423857));
#1024=CARTESIAN_POINT('',(8.2,8.48528137423856,-6.83528137423857));
#1025=CARTESIAN_POINT('',(0.3,8.48528137423856,-8.48528137423857));
#1026=CARTESIAN_POINT('',(0.3,8.48528137423856,-10.1352813742386));
#1027=CARTESIAN_POINT('',(8.5,8.48528137423856,-8.48528137423857));
#1028=CARTESIAN_POINT('',(0.3,0.,-11.));
#1029=CARTESIAN_POINT('',(0.3,0.,-13.45));
#1030=CARTESIAN_POINT('',(2.8,0.,-11.));
#1031=CARTESIAN_POINT('',(2.8,2.45,-11.));
#1032=CARTESIAN_POINT('',(2.8,0.,-11.));
#1033=CARTESIAN_POINT('',(2.8,0.,-11.));
#1034=CARTESIAN_POINT('',(2.8,0.,-9.45));
#1035=CARTESIAN_POINT('',(2.8,0.,-11.));
#1036=CARTESIAN_POINT('',(2.8,0.,-11.));
#1037=CARTESIAN_POINT('',(0.3,0.,-11.));
#1038=CARTESIAN_POINT('',(0.3,8.48528137423856,-8.48528137423857));
#1039=CARTESIAN_POINT('',(0.3,11.,-2.57720180208155E-14));
#1040=CARTESIAN_POINT('',(0.3,11.,-2.45000000000003));
#1041=CARTESIAN_POINT('',(2.8,11.,-2.57720180208155E-14));
#1042=CARTESIAN_POINT('',(2.8,11.,2.44999999999997));
#1043=CARTESIAN_POINT('',(2.8,11.,-2.57720180208155E-14));
#1044=CARTESIAN_POINT('',(2.8,11.,-2.57720180208155E-14));
#1045=CARTESIAN_POINT('',(2.8,11.,1.54999999999997));
#1046=CARTESIAN_POINT('',(2.8,11.,-1.16962302213137E-14));
#1047=CARTESIAN_POINT('',(2.8,11.,-2.57720180208155E-14));
#1048=CARTESIAN_POINT('',(0.3,11.,-2.57720180208155E-14));
#1049=CARTESIAN_POINT('',(0.3,0.,11.));
#1050=CARTESIAN_POINT('',(0.3,0.,8.55));
#1051=CARTESIAN_POINT('',(2.8,0.,11.));
#1052=CARTESIAN_POINT('',(2.8,-2.45,11.));
#1053=CARTESIAN_POINT('',(2.8,0.,11.));
#1054=CARTESIAN_POINT('',(2.8,0.,11.));
#1055=CARTESIAN_POINT('',(2.8,0.,12.55));
#1056=CARTESIAN_POINT('',(2.8,1.04083408558608E-14,11.));
#1057=CARTESIAN_POINT('',(2.8,0.,11.));
#1058=CARTESIAN_POINT('',(0.3,0.,11.));
#1059=CARTESIAN_POINT('',(0.3,-11.,8.22010353707973E-14));
#1060=CARTESIAN_POINT('',(0.3,-11.,-2.44999999999992));
#1061=CARTESIAN_POINT('',(2.8,-11.,8.22010353707973E-14));
#1062=CARTESIAN_POINT('',(2.8,-11.,-2.44999999999992));
#1063=CARTESIAN_POINT('',(2.8,-11.,8.22010353707973E-14));
#1064=CARTESIAN_POINT('',(2.8,-11.,8.22010353707973E-14));
#1065=CARTESIAN_POINT('',(2.8,-11.,1.55000000000008));
#1066=CARTESIAN_POINT('',(2.8,-11.,5.93026854879034E-14));
#1067=CARTESIAN_POINT('',(2.8,-11.,8.22010353707973E-14));
#1068=CARTESIAN_POINT('',(0.3,-11.,8.22010353707973E-14));
#1069=CARTESIAN_POINT('',(8.2,8.48528137423859,8.48528137423855));
#1070=CARTESIAN_POINT('',(8.2,8.48528137423859,10.1352813742385));
#1071=CARTESIAN_POINT('',(0.3,8.48528137423859,8.48528137423855));
#1072=CARTESIAN_POINT('',(0.3,8.48528137423859,6.83528137423855));
#1073=CARTESIAN_POINT('',(8.5,8.48528137423859,8.48528137423855));
#1074=CARTESIAN_POINT('',(0.3,8.48528137423859,8.48528137423855));
#1075=CARTESIAN_POINT('',(8.2,-8.48528137423857,8.48528137423857));
#1076=CARTESIAN_POINT('',(8.2,-8.48528137423857,10.1352813742386));
#1077=CARTESIAN_POINT('',(0.3,-8.48528137423857,8.48528137423857));
#1078=CARTESIAN_POINT('',(0.3,-8.48528137423857,6.83528137423857));
#1079=CARTESIAN_POINT('',(8.5,-8.48528137423857,8.48528137423857));
#1080=CARTESIAN_POINT('',(0.3,-8.48528137423857,8.48528137423857));
#1081=CARTESIAN_POINT('',(8.2,-8.48528137423864,-8.4852813742385));
#1082=CARTESIAN_POINT('',(8.2,-8.48528137423864,-6.8352813742385));
#1083=CARTESIAN_POINT('',(0.3,-8.48528137423864,-8.4852813742385));
#1084=CARTESIAN_POINT('',(0.3,-8.48528137423864,-10.1352813742385));
#1085=CARTESIAN_POINT('',(8.5,-8.48528137423864,-8.4852813742385));
#1086=CARTESIAN_POINT('',(0.3,-8.48528137423864,-8.4852813742385));
#1087=CARTESIAN_POINT('',(0.3,0.,0.));
#1088=CARTESIAN_POINT('',(8.5,0.,0.));
#1089=CARTESIAN_POINT('',(8.5,-11.,8.22010353707973E-14));
#1090=CARTESIAN_POINT('',(8.5,-8.48528137423857,8.48528137423857));
#1091=CARTESIAN_POINT('',(8.5,0.,11.));
#1092=CARTESIAN_POINT('',(8.5,8.48528137423859,8.48528137423855));
#1093=CARTESIAN_POINT('',(8.5,11.,-2.57720180208155E-14));
#1094=CARTESIAN_POINT('',(8.5,8.48528137423856,-8.48528137423857));
#1095=CARTESIAN_POINT('',(8.5,0.,-11.));
#1096=CARTESIAN_POINT('',(8.5,-8.48528137423864,-8.4852813742385));
#1097=CARTESIAN_POINT('',(8.2,0.,0.));
#1098=CARTESIAN_POINT('',(0.,0.,0.));
#1099=(
GEOMETRIC_REPRESENTATION_CONTEXT(3)
GLOBAL_UNCERTAINTY_ASSIGNED_CONTEXT((#1100))
GLOBAL_UNIT_ASSIGNED_CONTEXT((#1106,#1102,#1101))
REPRESENTATION_CONTEXT('\X2\041F0435044004350445043E0434043D043E0435\X0\ 
\X2\043A04400435043F043B0435043D04380435\X0\','TOP_LEVEL_ASSEMBLY_PART')
);
#1100=UNCERTAINTY_MEASURE_WITH_UNIT(LENGTH_MEASURE(2.E-5),#1106,
'DISTANCE_ACCURACY_VALUE','Maximum Tolerance applied to model');
#1101=(
NAMED_UNIT(*)
SI_UNIT($,.STERADIAN.)
SOLID_ANGLE_UNIT()
);
#1102=(
CONVERSION_BASED_UNIT('DEGREE',#1104)
NAMED_UNIT(#1103)
PLANE_ANGLE_UNIT()
);
#1103=DIMENSIONAL_EXPONENTS(0.,0.,0.,0.,0.,0.,0.);
#1104=PLANE_ANGLE_MEASURE_WITH_UNIT(PLANE_ANGLE_MEASURE(0.0174532925),#1105);
#1105=(
NAMED_UNIT(*)
PLANE_ANGLE_UNIT()
SI_UNIT($,.RADIAN.)
);
#1106=(
LENGTH_UNIT()
NAMED_UNIT(*)
SI_UNIT(.MILLI.,.METRE.)
);
ENDSEC;
END-ISO-10303-21;
