ISO-10303-21;
HEADER;
/* Generated by software containing ST-Developer
 * from STEP Tools, Inc. (www.steptools.com) 
 */
/* OPTION: using custom schema-name function */

FILE_DESCRIPTION(
/* description */ (''),
/* implementation_level */ '2;1');

FILE_NAME(
/* name */ '\X2\04400443043B043504320430044F\X0\ \X2\0441043E0448043A0430\X0\.
stp',
/* time_stamp */ '2026-07-04T14:40:48+05:00',
/* author */ (''),
/* organization */ (''),
/* preprocessor_version */ 'ST-DEVELOPER v16',
/* originating_system */ 'SIEMENS PLM Software NX 10.0',
/* authorisation */ '');

FILE_SCHEMA (('AP203_CONFIGURATION_CONTROLLED_3D_DESIGN_OF_MECHANICAL_PARTS_AND_ASSEMBLIES_MIM_LF { 1 0 10303 403 2 1 2}'));
ENDSEC;

DATA;
#10=PROPERTY_DEFINITION_REPRESENTATION(#14,#12);
#11=PROPERTY_DEFINITION_REPRESENTATION(#15,#13);
#12=REPRESENTATION('',(#16),#1143);
#13=REPRESENTATION('',(#17),#1143);
#14=PROPERTY_DEFINITION('pmi validation property','',#89);
#15=PROPERTY_DEFINITION('pmi validation property','',#89);
#16=VALUE_REPRESENTATION_ITEM('number of annotations',COUNT_MEASURE(0.));
#17=VALUE_REPRESENTATION_ITEM('number of views',COUNT_MEASURE(0.));
#18=SHAPE_REPRESENTATION_RELATIONSHIP('None',
'relationship between Hi066CDEFEn30h-None and Hi066CDEFEn30h-None',#100,
#19);
#19=ADVANCED_BREP_SHAPE_REPRESENTATION('Hi066CDEFEn30h-None',(#101),#1143);
#20=CC_DESIGN_APPROVAL(#32,(#90));
#21=CC_DESIGN_APPROVAL(#33,(#92));
#22=CC_DESIGN_APPROVAL(#34,(#39));
#23=APPROVAL_PERSON_ORGANIZATION(#77,#32,#26);
#24=APPROVAL_PERSON_ORGANIZATION(#78,#33,#27);
#25=APPROVAL_PERSON_ORGANIZATION(#79,#34,#28);
#26=APPROVAL_ROLE('approver');
#27=APPROVAL_ROLE('approver');
#28=APPROVAL_ROLE('approver');
#29=APPROVAL_DATE_TIME(#47,#32);
#30=APPROVAL_DATE_TIME(#48,#33);
#31=APPROVAL_DATE_TIME(#49,#34);
#32=APPROVAL(#35,' ');
#33=APPROVAL(#36,' ');
#34=APPROVAL(#37,' ');
#35=APPROVAL_STATUS('not_yet_approved');
#36=APPROVAL_STATUS('not_yet_approved');
#37=APPROVAL_STATUS('not_yet_approved');
#38=CC_DESIGN_SECURITY_CLASSIFICATION(#39,(#92));
#39=SECURITY_CLASSIFICATION(' ',' ',#40);
#40=SECURITY_CLASSIFICATION_LEVEL('confidential');
#41=CC_DESIGN_DATE_AND_TIME_ASSIGNMENT(#45,#43,(#90));
#42=CC_DESIGN_DATE_AND_TIME_ASSIGNMENT(#46,#44,(#39));
#43=DATE_TIME_ROLE('creation_date');
#44=DATE_TIME_ROLE('classification_date');
#45=DATE_AND_TIME(#60,#50);
#46=DATE_AND_TIME(#61,#51);
#47=DATE_AND_TIME(#62,#52);
#48=DATE_AND_TIME(#63,#53);
#49=DATE_AND_TIME(#64,#54);
#50=LOCAL_TIME(0,0,0.,#55);
#51=LOCAL_TIME(0,0,0.,#56);
#52=LOCAL_TIME(0,0,0.,#57);
#53=LOCAL_TIME(0,0,0.,#58);
#54=LOCAL_TIME(0,0,0.,#59);
#55=COORDINATED_UNIVERSAL_TIME_OFFSET(0,0,.BEHIND.);
#56=COORDINATED_UNIVERSAL_TIME_OFFSET(0,0,.BEHIND.);
#57=COORDINATED_UNIVERSAL_TIME_OFFSET(0,0,.BEHIND.);
#58=COORDINATED_UNIVERSAL_TIME_OFFSET(0,0,.BEHIND.);
#59=COORDINATED_UNIVERSAL_TIME_OFFSET(0,0,.BEHIND.);
#60=CALENDAR_DATE(0,1,1);
#61=CALENDAR_DATE(0,1,1);
#62=CALENDAR_DATE(0,1,1);
#63=CALENDAR_DATE(0,1,1);
#64=CALENDAR_DATE(0,1,1);
#65=CC_DESIGN_PERSON_AND_ORGANIZATION_ASSIGNMENT(#73,#69,(#90,#92));
#66=CC_DESIGN_PERSON_AND_ORGANIZATION_ASSIGNMENT(#74,#70,(#94));
#67=CC_DESIGN_PERSON_AND_ORGANIZATION_ASSIGNMENT(#75,#71,(#92));
#68=CC_DESIGN_PERSON_AND_ORGANIZATION_ASSIGNMENT(#76,#72,(#39));
#69=PERSON_AND_ORGANIZATION_ROLE('creator');
#70=PERSON_AND_ORGANIZATION_ROLE('design_owner');
#71=PERSON_AND_ORGANIZATION_ROLE('design_supplier');
#72=PERSON_AND_ORGANIZATION_ROLE('classification_officer');
#73=PERSON_AND_ORGANIZATION(#87,#80);
#74=PERSON_AND_ORGANIZATION(#87,#81);
#75=PERSON_AND_ORGANIZATION(#87,#82);
#76=PERSON_AND_ORGANIZATION(#87,#83);
#77=PERSON_AND_ORGANIZATION(#87,#84);
#78=PERSON_AND_ORGANIZATION(#87,#85);
#79=PERSON_AND_ORGANIZATION(#87,#86);
#80=ORGANIZATION(' ',' ',' ');
#81=ORGANIZATION(' ',' ',' ');
#82=ORGANIZATION(' ',' ',' ');
#83=ORGANIZATION(' ',' ',' ');
#84=ORGANIZATION(' ',' ',' ');
#85=ORGANIZATION(' ',' ',' ');
#86=ORGANIZATION(' ',' ',' ');
#87=PERSON(' ',' ',' ',(' '),$,$);
#88=SHAPE_DEFINITION_REPRESENTATION(#89,#100);
#89=PRODUCT_DEFINITION_SHAPE('','',#90);
#90=PRODUCT_DEFINITION(' ','',#92,#91);
#91=DESIGN_CONTEXT('',#99,'design');
#92=PRODUCT_DEFINITION_FORMATION_WITH_SPECIFIED_SOURCE(' ',' ',#94,
 .NOT_KNOWN.);
#93=PRODUCT_RELATED_PRODUCT_CATEGORY('detail','',(#94));
#94=PRODUCT('Hi066CDEFEn30h','Hi066CDEFEn30h',' ',(#97));
#95=PRODUCT_CATEGORY('part',' ');
#96=PRODUCT_CATEGORY(' ','');
#97=MECHANICAL_CONTEXT(' ',#99,'mechanical');
#98=APPLICATION_PROTOCOL_DEFINITION('international standard',
'config_control_design',2010,#99);
#99=APPLICATION_CONTEXT(
'configuration controlled 3D designs of mechanical parts and assemblie
s');
#100=SHAPE_REPRESENTATION('Hi066CDEFEn30h-None',(#695),#1143);
#101=MANIFOLD_SOLID_BREP('',#102);
#102=CLOSED_SHELL('',(#191,#192,#193,#194,#195,#196,#197,#198,#199,#200,
#201,#202,#203,#204,#205,#206,#207,#208,#209,#210,#211,#212,#213,#214,#215,
#216,#217,#218,#219,#220,#221,#222,#223,#224,#225,#226,#227,#228,#229,#230,
#231));
#103=CONICAL_SURFACE('',#755,4.,45.);
#104=CONICAL_SURFACE('',#756,5.,45.);
#105=CONICAL_SURFACE('',#757,2.,45.);
#106=CONICAL_SURFACE('',#758,2.,45.);
#107=CONICAL_SURFACE('',#759,2.,45.);
#108=CONICAL_SURFACE('',#760,3.5,45.0000000000001);
#109=CONICAL_SURFACE('',#761,2.,45.);
#110=CONICAL_SURFACE('',#762,4.,45.);
#111=CONICAL_SURFACE('',#763,5.,45.);
#112=CONICAL_SURFACE('',#764,4.5,45.0000000000001);
#113=CONICAL_SURFACE('',#765,3.,45.);
#114=CONICAL_SURFACE('',#766,3.,45.);
#115=CONICAL_SURFACE('',#767,3.,45.);
#116=CONICAL_SURFACE('',#768,3.,45.);
#117=CONICAL_SURFACE('',#769,19.2,44.9999999999999);
#118=CONICAL_SURFACE('',#770,35.8,45.0000000000001);
#119=CONICAL_SURFACE('',#771,35.8,45.0000000000001);
#120=CONICAL_SURFACE('',#774,9.2,45.);
#121=CONICAL_SURFACE('',#775,20.,44.9999999999999);
#122=CONICAL_SURFACE('',#776,35.,45.0000000000001);
#123=CONICAL_SURFACE('',#777,35.,44.9999999999998);
#124=CONICAL_SURFACE('',#780,10.,45.);
#125=FACE_BOUND('',#266,.T.);
#126=FACE_BOUND('',#267,.T.);
#127=FACE_BOUND('',#268,.T.);
#128=FACE_BOUND('',#269,.T.);
#129=FACE_BOUND('',#270,.T.);
#130=FACE_BOUND('',#271,.T.);
#131=FACE_BOUND('',#272,.T.);
#132=FACE_BOUND('',#273,.T.);
#133=FACE_BOUND('',#274,.T.);
#134=FACE_BOUND('',#275,.T.);
#135=FACE_BOUND('',#276,.T.);
#136=FACE_BOUND('',#277,.T.);
#137=FACE_BOUND('',#279,.T.);
#138=FACE_BOUND('',#280,.T.);
#139=FACE_BOUND('',#281,.T.);
#140=FACE_BOUND('',#282,.T.);
#141=FACE_BOUND('',#283,.T.);
#142=FACE_BOUND('',#284,.T.);
#143=FACE_BOUND('',#285,.T.);
#144=FACE_BOUND('',#286,.T.);
#145=FACE_BOUND('',#287,.T.);
#146=FACE_BOUND('',#288,.T.);
#147=FACE_BOUND('',#289,.T.);
#148=FACE_BOUND('',#290,.T.);
#149=FACE_BOUND('',#291,.T.);
#150=FACE_BOUND('',#292,.T.);
#151=FACE_BOUND('',#293,.T.);
#152=FACE_BOUND('',#294,.T.);
#153=FACE_BOUND('',#295,.T.);
#154=FACE_BOUND('',#296,.T.);
#155=FACE_BOUND('',#297,.T.);
#156=FACE_BOUND('',#298,.T.);
#157=FACE_BOUND('',#299,.T.);
#158=FACE_BOUND('',#300,.T.);
#159=FACE_BOUND('',#301,.T.);
#160=FACE_BOUND('',#302,.T.);
#161=FACE_BOUND('',#303,.T.);
#162=FACE_BOUND('',#304,.T.);
#163=FACE_BOUND('',#305,.T.);
#164=FACE_BOUND('',#306,.T.);
#165=FACE_BOUND('',#307,.T.);
#166=FACE_BOUND('',#308,.T.);
#167=FACE_BOUND('',#309,.T.);
#168=FACE_BOUND('',#310,.T.);
#169=FACE_BOUND('',#311,.T.);
#170=FACE_BOUND('',#312,.T.);
#171=FACE_BOUND('',#313,.T.);
#172=FACE_BOUND('',#314,.T.);
#173=FACE_BOUND('',#315,.T.);
#174=FACE_BOUND('',#316,.T.);
#175=FACE_BOUND('',#317,.T.);
#176=FACE_BOUND('',#318,.T.);
#177=FACE_BOUND('',#319,.T.);
#178=FACE_BOUND('',#320,.T.);
#179=FACE_BOUND('',#321,.T.);
#180=FACE_BOUND('',#322,.T.);
#181=FACE_BOUND('',#323,.T.);
#182=FACE_BOUND('',#324,.T.);
#183=PLANE('',#705);
#184=PLANE('',#727);
#185=PLANE('',#742);
#186=PLANE('',#754);
#187=PLANE('',#772);
#188=PLANE('',#773);
#189=PLANE('',#778);
#190=PLANE('',#779);
#191=ADVANCED_FACE('',(#243),#232,.F.);
#192=ADVANCED_FACE('',(#244),#233,.T.);
#193=ADVANCED_FACE('',(#245),#234,.F.);
#194=ADVANCED_FACE('',(#246),#183,.F.);
#195=ADVANCED_FACE('',(#247),#235,.T.);
#196=ADVANCED_FACE('',(#125,#126),#236,.F.);
#197=ADVANCED_FACE('',(#127,#128),#237,.F.);
#198=ADVANCED_FACE('',(#129,#130),#238,.F.);
#199=ADVANCED_FACE('',(#131,#132),#239,.F.);
#200=ADVANCED_FACE('',(#133,#134),#240,.F.);
#201=ADVANCED_FACE('',(#135,#136),#241,.F.);
#202=ADVANCED_FACE('',(#248),#184,.F.);
#203=ADVANCED_FACE('',(#137,#138),#242,.F.);
#204=ADVANCED_FACE('',(#139,#140,#141,#142,#143,#144,#145,#146),#185,.F.);
#205=ADVANCED_FACE('',(#147,#148,#149,#150,#151,#152,#153,#154),#186,.T.);
#206=ADVANCED_FACE('',(#155,#156),#103,.F.);
#207=ADVANCED_FACE('',(#157,#158),#104,.F.);
#208=ADVANCED_FACE('',(#159,#160),#105,.F.);
#209=ADVANCED_FACE('',(#161,#162),#106,.F.);
#210=ADVANCED_FACE('',(#163,#164),#107,.F.);
#211=ADVANCED_FACE('',(#165,#166),#108,.F.);
#212=ADVANCED_FACE('',(#167,#168),#109,.F.);
#213=ADVANCED_FACE('',(#169,#170),#110,.F.);
#214=ADVANCED_FACE('',(#171,#172),#111,.F.);
#215=ADVANCED_FACE('',(#173,#174),#112,.F.);
#216=ADVANCED_FACE('',(#175,#176),#113,.F.);
#217=ADVANCED_FACE('',(#177,#178),#114,.F.);
#218=ADVANCED_FACE('',(#179,#180),#115,.F.);
#219=ADVANCED_FACE('',(#181,#182),#116,.F.);
#220=ADVANCED_FACE('',(#249),#117,.T.);
#221=ADVANCED_FACE('',(#250),#118,.F.);
#222=ADVANCED_FACE('',(#251),#119,.F.);
#223=ADVANCED_FACE('',(#252),#187,.F.);
#224=ADVANCED_FACE('',(#253),#188,.F.);
#225=ADVANCED_FACE('',(#254),#120,.T.);
#226=ADVANCED_FACE('',(#255),#121,.T.);
#227=ADVANCED_FACE('',(#256),#122,.F.);
#228=ADVANCED_FACE('',(#257),#123,.F.);
#229=ADVANCED_FACE('',(#258),#189,.T.);
#230=ADVANCED_FACE('',(#259),#190,.T.);
#231=ADVANCED_FACE('',(#260),#124,.T.);
#232=CYLINDRICAL_SURFACE('',#698,35.);
#233=CYLINDRICAL_SURFACE('',#701,20.);
#234=CYLINDRICAL_SURFACE('',#704,35.);
#235=CYLINDRICAL_SURFACE('',#708,10.);
#236=CYLINDRICAL_SURFACE('',#711,2.);
#237=CYLINDRICAL_SURFACE('',#714,3.5);
#238=CYLINDRICAL_SURFACE('',#717,4.);
#239=CYLINDRICAL_SURFACE('',#720,4.);
#240=CYLINDRICAL_SURFACE('',#723,2.);
#241=CYLINDRICAL_SURFACE('',#726,2.);
#242=CYLINDRICAL_SURFACE('',#730,2.);
#243=FACE_OUTER_BOUND('',#261,.T.);
#244=FACE_OUTER_BOUND('',#262,.T.);
#245=FACE_OUTER_BOUND('',#263,.T.);
#246=FACE_OUTER_BOUND('',#264,.T.);
#247=FACE_OUTER_BOUND('',#265,.T.);
#248=FACE_OUTER_BOUND('',#278,.T.);
#249=FACE_OUTER_BOUND('',#325,.T.);
#250=FACE_OUTER_BOUND('',#326,.T.);
#251=FACE_OUTER_BOUND('',#327,.T.);
#252=FACE_OUTER_BOUND('',#328,.T.);
#253=FACE_OUTER_BOUND('',#329,.T.);
#254=FACE_OUTER_BOUND('',#330,.T.);
#255=FACE_OUTER_BOUND('',#331,.T.);
#256=FACE_OUTER_BOUND('',#332,.T.);
#257=FACE_OUTER_BOUND('',#333,.T.);
#258=FACE_OUTER_BOUND('',#334,.T.);
#259=FACE_OUTER_BOUND('',#335,.T.);
#260=FACE_OUTER_BOUND('',#336,.T.);
#261=EDGE_LOOP('',(#381,#382,#383,#384));
#262=EDGE_LOOP('',(#385,#386,#387,#388));
#263=EDGE_LOOP('',(#389,#390,#391,#392));
#264=EDGE_LOOP('',(#393,#394,#395,#396));
#265=EDGE_LOOP('',(#397,#398,#399,#400));
#266=EDGE_LOOP('',(#401));
#267=EDGE_LOOP('',(#402));
#268=EDGE_LOOP('',(#403));
#269=EDGE_LOOP('',(#404));
#270=EDGE_LOOP('',(#405));
#271=EDGE_LOOP('',(#406));
#272=EDGE_LOOP('',(#407));
#273=EDGE_LOOP('',(#408));
#274=EDGE_LOOP('',(#409));
#275=EDGE_LOOP('',(#410));
#276=EDGE_LOOP('',(#411));
#277=EDGE_LOOP('',(#412));
#278=EDGE_LOOP('',(#413,#414,#415,#416));
#279=EDGE_LOOP('',(#417));
#280=EDGE_LOOP('',(#418));
#281=EDGE_LOOP('',(#419,#420,#421,#422,#423,#424));
#282=EDGE_LOOP('',(#425));
#283=EDGE_LOOP('',(#426));
#284=EDGE_LOOP('',(#427));
#285=EDGE_LOOP('',(#428));
#286=EDGE_LOOP('',(#429));
#287=EDGE_LOOP('',(#430));
#288=EDGE_LOOP('',(#431));
#289=EDGE_LOOP('',(#432,#433,#434,#435,#436,#437));
#290=EDGE_LOOP('',(#438));
#291=EDGE_LOOP('',(#439));
#292=EDGE_LOOP('',(#440));
#293=EDGE_LOOP('',(#441));
#294=EDGE_LOOP('',(#442));
#295=EDGE_LOOP('',(#443));
#296=EDGE_LOOP('',(#444));
#297=EDGE_LOOP('',(#445));
#298=EDGE_LOOP('',(#446));
#299=EDGE_LOOP('',(#447));
#300=EDGE_LOOP('',(#448));
#301=EDGE_LOOP('',(#449));
#302=EDGE_LOOP('',(#450));
#303=EDGE_LOOP('',(#451));
#304=EDGE_LOOP('',(#452));
#305=EDGE_LOOP('',(#453));
#306=EDGE_LOOP('',(#454));
#307=EDGE_LOOP('',(#455));
#308=EDGE_LOOP('',(#456));
#309=EDGE_LOOP('',(#457));
#310=EDGE_LOOP('',(#458));
#311=EDGE_LOOP('',(#459));
#312=EDGE_LOOP('',(#460));
#313=EDGE_LOOP('',(#461));
#314=EDGE_LOOP('',(#462));
#315=EDGE_LOOP('',(#463));
#316=EDGE_LOOP('',(#464));
#317=EDGE_LOOP('',(#465));
#318=EDGE_LOOP('',(#466));
#319=EDGE_LOOP('',(#467));
#320=EDGE_LOOP('',(#468));
#321=EDGE_LOOP('',(#469));
#322=EDGE_LOOP('',(#470));
#323=EDGE_LOOP('',(#471));
#324=EDGE_LOOP('',(#472));
#325=EDGE_LOOP('',(#473,#474,#475,#476));
#326=EDGE_LOOP('',(#477,#478,#479,#480));
#327=EDGE_LOOP('',(#481,#482,#483,#484));
#328=EDGE_LOOP('',(#485,#486,#487,#488));
#329=EDGE_LOOP('',(#489,#490,#491,#492));
#330=EDGE_LOOP('',(#493,#494,#495,#496));
#331=EDGE_LOOP('',(#497,#498,#499,#500));
#332=EDGE_LOOP('',(#501,#502,#503,#504));
#333=EDGE_LOOP('',(#505,#506,#507,#508));
#334=EDGE_LOOP('',(#509,#510,#511,#512));
#335=EDGE_LOOP('',(#513,#514,#515,#516));
#336=EDGE_LOOP('',(#517,#518,#519,#520));
#337=CIRCLE('',#696,35.);
#338=CIRCLE('',#697,35.);
#339=CIRCLE('',#699,20.);
#340=CIRCLE('',#700,20.);
#341=CIRCLE('',#702,35.);
#342=CIRCLE('',#703,35.);
#343=CIRCLE('',#706,10.);
#344=CIRCLE('',#707,10.);
#345=CIRCLE('',#709,2.);
#346=CIRCLE('',#710,2.);
#347=CIRCLE('',#712,3.5);
#348=CIRCLE('',#713,3.5);
#349=CIRCLE('',#715,4.);
#350=CIRCLE('',#716,4.);
#351=CIRCLE('',#718,4.);
#352=CIRCLE('',#719,4.);
#353=CIRCLE('',#721,2.);
#354=CIRCLE('',#722,2.);
#355=CIRCLE('',#724,2.);
#356=CIRCLE('',#725,2.);
#357=CIRCLE('',#728,2.);
#358=CIRCLE('',#729,2.);
#359=CIRCLE('',#731,9.2);
#360=CIRCLE('',#732,35.8);
#361=CIRCLE('',#733,19.2);
#362=CIRCLE('',#734,35.8);
#363=CIRCLE('',#735,5.);
#364=CIRCLE('',#736,3.);
#365=CIRCLE('',#737,3.);
#366=CIRCLE('',#738,3.);
#367=CIRCLE('',#739,4.5);
#368=CIRCLE('',#740,3.);
#369=CIRCLE('',#741,5.);
#370=CIRCLE('',#743,9.2);
#371=CIRCLE('',#744,35.8);
#372=CIRCLE('',#745,19.2);
#373=CIRCLE('',#746,35.8);
#374=CIRCLE('',#747,5.);
#375=CIRCLE('',#748,5.);
#376=CIRCLE('',#749,4.5);
#377=CIRCLE('',#750,3.);
#378=CIRCLE('',#751,3.);
#379=CIRCLE('',#752,3.);
#380=CIRCLE('',#753,3.);
#381=ORIENTED_EDGE('',*,*,#573,.F.);
#382=ORIENTED_EDGE('',*,*,#574,.T.);
#383=ORIENTED_EDGE('',*,*,#575,.T.);
#384=ORIENTED_EDGE('',*,*,#576,.T.);
#385=ORIENTED_EDGE('',*,*,#577,.F.);
#386=ORIENTED_EDGE('',*,*,#578,.T.);
#387=ORIENTED_EDGE('',*,*,#573,.T.);
#388=ORIENTED_EDGE('',*,*,#579,.T.);
#389=ORIENTED_EDGE('',*,*,#580,.F.);
#390=ORIENTED_EDGE('',*,*,#581,.T.);
#391=ORIENTED_EDGE('',*,*,#577,.T.);
#392=ORIENTED_EDGE('',*,*,#582,.T.);
#393=ORIENTED_EDGE('',*,*,#583,.F.);
#394=ORIENTED_EDGE('',*,*,#584,.T.);
#395=ORIENTED_EDGE('',*,*,#580,.T.);
#396=ORIENTED_EDGE('',*,*,#585,.T.);
#397=ORIENTED_EDGE('',*,*,#586,.F.);
#398=ORIENTED_EDGE('',*,*,#587,.T.);
#399=ORIENTED_EDGE('',*,*,#583,.T.);
#400=ORIENTED_EDGE('',*,*,#588,.T.);
#401=ORIENTED_EDGE('',*,*,#589,.T.);
#402=ORIENTED_EDGE('',*,*,#590,.T.);
#403=ORIENTED_EDGE('',*,*,#591,.T.);
#404=ORIENTED_EDGE('',*,*,#592,.T.);
#405=ORIENTED_EDGE('',*,*,#593,.T.);
#406=ORIENTED_EDGE('',*,*,#594,.T.);
#407=ORIENTED_EDGE('',*,*,#595,.T.);
#408=ORIENTED_EDGE('',*,*,#596,.T.);
#409=ORIENTED_EDGE('',*,*,#597,.T.);
#410=ORIENTED_EDGE('',*,*,#598,.T.);
#411=ORIENTED_EDGE('',*,*,#599,.T.);
#412=ORIENTED_EDGE('',*,*,#600,.T.);
#413=ORIENTED_EDGE('',*,*,#575,.F.);
#414=ORIENTED_EDGE('',*,*,#601,.T.);
#415=ORIENTED_EDGE('',*,*,#586,.T.);
#416=ORIENTED_EDGE('',*,*,#602,.T.);
#417=ORIENTED_EDGE('',*,*,#603,.T.);
#418=ORIENTED_EDGE('',*,*,#604,.T.);
#419=ORIENTED_EDGE('',*,*,#605,.T.);
#420=ORIENTED_EDGE('',*,*,#606,.T.);
#421=ORIENTED_EDGE('',*,*,#607,.T.);
#422=ORIENTED_EDGE('',*,*,#608,.T.);
#423=ORIENTED_EDGE('',*,*,#609,.T.);
#424=ORIENTED_EDGE('',*,*,#610,.T.);
#425=ORIENTED_EDGE('',*,*,#611,.T.);
#426=ORIENTED_EDGE('',*,*,#612,.T.);
#427=ORIENTED_EDGE('',*,*,#613,.T.);
#428=ORIENTED_EDGE('',*,*,#614,.T.);
#429=ORIENTED_EDGE('',*,*,#615,.T.);
#430=ORIENTED_EDGE('',*,*,#616,.T.);
#431=ORIENTED_EDGE('',*,*,#617,.T.);
#432=ORIENTED_EDGE('',*,*,#618,.T.);
#433=ORIENTED_EDGE('',*,*,#619,.T.);
#434=ORIENTED_EDGE('',*,*,#620,.T.);
#435=ORIENTED_EDGE('',*,*,#621,.T.);
#436=ORIENTED_EDGE('',*,*,#622,.T.);
#437=ORIENTED_EDGE('',*,*,#623,.T.);
#438=ORIENTED_EDGE('',*,*,#624,.T.);
#439=ORIENTED_EDGE('',*,*,#625,.T.);
#440=ORIENTED_EDGE('',*,*,#626,.T.);
#441=ORIENTED_EDGE('',*,*,#627,.T.);
#442=ORIENTED_EDGE('',*,*,#628,.T.);
#443=ORIENTED_EDGE('',*,*,#629,.T.);
#444=ORIENTED_EDGE('',*,*,#630,.T.);
#445=ORIENTED_EDGE('',*,*,#611,.F.);
#446=ORIENTED_EDGE('',*,*,#595,.F.);
#447=ORIENTED_EDGE('',*,*,#596,.F.);
#448=ORIENTED_EDGE('',*,*,#624,.F.);
#449=ORIENTED_EDGE('',*,*,#612,.F.);
#450=ORIENTED_EDGE('',*,*,#597,.F.);
#451=ORIENTED_EDGE('',*,*,#613,.F.);
#452=ORIENTED_EDGE('',*,*,#599,.F.);
#453=ORIENTED_EDGE('',*,*,#614,.F.);
#454=ORIENTED_EDGE('',*,*,#589,.F.);
#455=ORIENTED_EDGE('',*,*,#615,.F.);
#456=ORIENTED_EDGE('',*,*,#591,.F.);
#457=ORIENTED_EDGE('',*,*,#616,.F.);
#458=ORIENTED_EDGE('',*,*,#603,.F.);
#459=ORIENTED_EDGE('',*,*,#617,.F.);
#460=ORIENTED_EDGE('',*,*,#593,.F.);
#461=ORIENTED_EDGE('',*,*,#594,.F.);
#462=ORIENTED_EDGE('',*,*,#625,.F.);
#463=ORIENTED_EDGE('',*,*,#592,.F.);
#464=ORIENTED_EDGE('',*,*,#626,.F.);
#465=ORIENTED_EDGE('',*,*,#604,.F.);
#466=ORIENTED_EDGE('',*,*,#627,.F.);
#467=ORIENTED_EDGE('',*,*,#590,.F.);
#468=ORIENTED_EDGE('',*,*,#628,.F.);
#469=ORIENTED_EDGE('',*,*,#600,.F.);
#470=ORIENTED_EDGE('',*,*,#629,.F.);
#471=ORIENTED_EDGE('',*,*,#598,.F.);
#472=ORIENTED_EDGE('',*,*,#630,.F.);
#473=ORIENTED_EDGE('',*,*,#631,.F.);
#474=ORIENTED_EDGE('',*,*,#578,.F.);
#475=ORIENTED_EDGE('',*,*,#632,.F.);
#476=ORIENTED_EDGE('',*,*,#609,.F.);
#477=ORIENTED_EDGE('',*,*,#632,.T.);
#478=ORIENTED_EDGE('',*,*,#581,.F.);
#479=ORIENTED_EDGE('',*,*,#633,.F.);
#480=ORIENTED_EDGE('',*,*,#610,.F.);
#481=ORIENTED_EDGE('',*,*,#631,.T.);
#482=ORIENTED_EDGE('',*,*,#608,.F.);
#483=ORIENTED_EDGE('',*,*,#634,.F.);
#484=ORIENTED_EDGE('',*,*,#574,.F.);
#485=ORIENTED_EDGE('',*,*,#633,.T.);
#486=ORIENTED_EDGE('',*,*,#584,.F.);
#487=ORIENTED_EDGE('',*,*,#635,.F.);
#488=ORIENTED_EDGE('',*,*,#605,.F.);
#489=ORIENTED_EDGE('',*,*,#634,.T.);
#490=ORIENTED_EDGE('',*,*,#607,.F.);
#491=ORIENTED_EDGE('',*,*,#636,.F.);
#492=ORIENTED_EDGE('',*,*,#601,.F.);
#493=ORIENTED_EDGE('',*,*,#635,.T.);
#494=ORIENTED_EDGE('',*,*,#587,.F.);
#495=ORIENTED_EDGE('',*,*,#636,.T.);
#496=ORIENTED_EDGE('',*,*,#606,.F.);
#497=ORIENTED_EDGE('',*,*,#637,.F.);
#498=ORIENTED_EDGE('',*,*,#622,.F.);
#499=ORIENTED_EDGE('',*,*,#638,.F.);
#500=ORIENTED_EDGE('',*,*,#579,.F.);
#501=ORIENTED_EDGE('',*,*,#638,.T.);
#502=ORIENTED_EDGE('',*,*,#621,.F.);
#503=ORIENTED_EDGE('',*,*,#639,.F.);
#504=ORIENTED_EDGE('',*,*,#582,.F.);
#505=ORIENTED_EDGE('',*,*,#637,.T.);
#506=ORIENTED_EDGE('',*,*,#576,.F.);
#507=ORIENTED_EDGE('',*,*,#640,.F.);
#508=ORIENTED_EDGE('',*,*,#623,.F.);
#509=ORIENTED_EDGE('',*,*,#639,.T.);
#510=ORIENTED_EDGE('',*,*,#620,.F.);
#511=ORIENTED_EDGE('',*,*,#641,.F.);
#512=ORIENTED_EDGE('',*,*,#585,.F.);
#513=ORIENTED_EDGE('',*,*,#640,.T.);
#514=ORIENTED_EDGE('',*,*,#602,.F.);
#515=ORIENTED_EDGE('',*,*,#642,.F.);
#516=ORIENTED_EDGE('',*,*,#618,.F.);
#517=ORIENTED_EDGE('',*,*,#641,.T.);
#518=ORIENTED_EDGE('',*,*,#619,.F.);
#519=ORIENTED_EDGE('',*,*,#642,.T.);
#520=ORIENTED_EDGE('',*,*,#588,.F.);
#521=VERTEX_POINT('',#981);
#522=VERTEX_POINT('',#982);
#523=VERTEX_POINT('',#984);
#524=VERTEX_POINT('',#986);
#525=VERTEX_POINT('',#990);
#526=VERTEX_POINT('',#991);
#527=VERTEX_POINT('',#996);
#528=VERTEX_POINT('',#997);
#529=VERTEX_POINT('',#1002);
#530=VERTEX_POINT('',#1003);
#531=VERTEX_POINT('',#1008);
#532=VERTEX_POINT('',#1009);
#533=VERTEX_POINT('',#1014);
#534=VERTEX_POINT('',#1016);
#535=VERTEX_POINT('',#1019);
#536=VERTEX_POINT('',#1021);
#537=VERTEX_POINT('',#1024);
#538=VERTEX_POINT('',#1026);
#539=VERTEX_POINT('',#1029);
#540=VERTEX_POINT('',#1031);
#541=VERTEX_POINT('',#1034);
#542=VERTEX_POINT('',#1036);
#543=VERTEX_POINT('',#1039);
#544=VERTEX_POINT('',#1041);
#545=VERTEX_POINT('',#1047);
#546=VERTEX_POINT('',#1049);
#547=VERTEX_POINT('',#1052);
#548=VERTEX_POINT('',#1053);
#549=VERTEX_POINT('',#1055);
#550=VERTEX_POINT('',#1057);
#551=VERTEX_POINT('',#1059);
#552=VERTEX_POINT('',#1061);
#553=VERTEX_POINT('',#1064);
#554=VERTEX_POINT('',#1066);
#555=VERTEX_POINT('',#1068);
#556=VERTEX_POINT('',#1070);
#557=VERTEX_POINT('',#1072);
#558=VERTEX_POINT('',#1074);
#559=VERTEX_POINT('',#1076);
#560=VERTEX_POINT('',#1079);
#561=VERTEX_POINT('',#1080);
#562=VERTEX_POINT('',#1082);
#563=VERTEX_POINT('',#1084);
#564=VERTEX_POINT('',#1086);
#565=VERTEX_POINT('',#1088);
#566=VERTEX_POINT('',#1091);
#567=VERTEX_POINT('',#1093);
#568=VERTEX_POINT('',#1095);
#569=VERTEX_POINT('',#1097);
#570=VERTEX_POINT('',#1099);
#571=VERTEX_POINT('',#1101);
#572=VERTEX_POINT('',#1103);
#573=EDGE_CURVE('',#521,#522,#643,.T.);
#574=EDGE_CURVE('',#521,#523,#337,.T.);
#575=EDGE_CURVE('',#523,#524,#644,.T.);
#576=EDGE_CURVE('',#524,#522,#338,.T.);
#577=EDGE_CURVE('',#525,#526,#645,.T.);
#578=EDGE_CURVE('',#525,#521,#339,.T.);
#579=EDGE_CURVE('',#522,#526,#340,.T.);
#580=EDGE_CURVE('',#527,#528,#646,.T.);
#581=EDGE_CURVE('',#527,#525,#341,.T.);
#582=EDGE_CURVE('',#526,#528,#342,.T.);
#583=EDGE_CURVE('',#529,#530,#647,.T.);
#584=EDGE_CURVE('',#529,#527,#648,.T.);
#585=EDGE_CURVE('',#528,#530,#649,.T.);
#586=EDGE_CURVE('',#531,#532,#650,.T.);
#587=EDGE_CURVE('',#531,#529,#343,.T.);
#588=EDGE_CURVE('',#530,#532,#344,.T.);
#589=EDGE_CURVE('',#533,#533,#345,.T.);
#590=EDGE_CURVE('',#534,#534,#346,.T.);
#591=EDGE_CURVE('',#535,#535,#347,.T.);
#592=EDGE_CURVE('',#536,#536,#348,.T.);
#593=EDGE_CURVE('',#537,#537,#349,.T.);
#594=EDGE_CURVE('',#538,#538,#350,.T.);
#595=EDGE_CURVE('',#539,#539,#351,.T.);
#596=EDGE_CURVE('',#540,#540,#352,.T.);
#597=EDGE_CURVE('',#541,#541,#353,.T.);
#598=EDGE_CURVE('',#542,#542,#354,.T.);
#599=EDGE_CURVE('',#543,#543,#355,.T.);
#600=EDGE_CURVE('',#544,#544,#356,.T.);
#601=EDGE_CURVE('',#523,#531,#651,.T.);
#602=EDGE_CURVE('',#532,#524,#652,.T.);
#603=EDGE_CURVE('',#545,#545,#357,.T.);
#604=EDGE_CURVE('',#546,#546,#358,.T.);
#605=EDGE_CURVE('',#547,#548,#653,.T.);
#606=EDGE_CURVE('',#548,#549,#359,.T.);
#607=EDGE_CURVE('',#549,#550,#654,.T.);
#608=EDGE_CURVE('',#550,#551,#360,.T.);
#609=EDGE_CURVE('',#551,#552,#361,.T.);
#610=EDGE_CURVE('',#552,#547,#362,.T.);
#611=EDGE_CURVE('',#553,#553,#363,.T.);
#612=EDGE_CURVE('',#554,#554,#364,.T.);
#613=EDGE_CURVE('',#555,#555,#365,.T.);
#614=EDGE_CURVE('',#556,#556,#366,.T.);
#615=EDGE_CURVE('',#557,#557,#367,.T.);
#616=EDGE_CURVE('',#558,#558,#368,.T.);
#617=EDGE_CURVE('',#559,#559,#369,.T.);
#618=EDGE_CURVE('',#560,#561,#655,.T.);
#619=EDGE_CURVE('',#561,#562,#370,.T.);
#620=EDGE_CURVE('',#562,#563,#656,.T.);
#621=EDGE_CURVE('',#563,#564,#371,.T.);
#622=EDGE_CURVE('',#564,#565,#372,.T.);
#623=EDGE_CURVE('',#565,#560,#373,.T.);
#624=EDGE_CURVE('',#566,#566,#374,.T.);
#625=EDGE_CURVE('',#567,#567,#375,.T.);
#626=EDGE_CURVE('',#568,#568,#376,.T.);
#627=EDGE_CURVE('',#569,#569,#377,.T.);
#628=EDGE_CURVE('',#570,#570,#378,.T.);
#629=EDGE_CURVE('',#571,#571,#379,.T.);
#630=EDGE_CURVE('',#572,#572,#380,.T.);
#631=EDGE_CURVE('',#521,#551,#657,.T.);
#632=EDGE_CURVE('',#552,#525,#658,.T.);
#633=EDGE_CURVE('',#547,#527,#659,.T.);
#634=EDGE_CURVE('',#523,#550,#660,.T.);
#635=EDGE_CURVE('',#548,#529,#661,.T.);
#636=EDGE_CURVE('',#531,#549,#662,.T.);
#637=EDGE_CURVE('',#565,#522,#663,.T.);
#638=EDGE_CURVE('',#526,#564,#664,.T.);
#639=EDGE_CURVE('',#528,#563,#665,.T.);
#640=EDGE_CURVE('',#560,#524,#666,.T.);
#641=EDGE_CURVE('',#530,#562,#667,.T.);
#642=EDGE_CURVE('',#561,#532,#668,.T.);
#643=LINE('',#980,#669);
#644=LINE('',#985,#670);
#645=LINE('',#989,#671);
#646=LINE('',#995,#672);
#647=LINE('',#1001,#673);
#648=LINE('',#1004,#674);
#649=LINE('',#1005,#675);
#650=LINE('',#1007,#676);
#651=LINE('',#1043,#677);
#652=LINE('',#1044,#678);
#653=LINE('',#1051,#679);
#654=LINE('',#1056,#680);
#655=LINE('',#1078,#681);
#656=LINE('',#1083,#682);
#657=LINE('',#1119,#683);
#658=LINE('',#1120,#684);
#659=LINE('',#1122,#685);
#660=LINE('',#1124,#686);
#661=LINE('',#1126,#687);
#662=LINE('',#1128,#688);
#663=LINE('',#1131,#689);
#664=LINE('',#1132,#690);
#665=LINE('',#1134,#691);
#666=LINE('',#1136,#692);
#667=LINE('',#1138,#693);
#668=LINE('',#1140,#694);
#669=VECTOR('',#783,1.);
#670=VECTOR('',#786,1.);
#671=VECTOR('',#791,1.);
#672=VECTOR('',#798,1.);
#673=VECTOR('',#805,1.);
#674=VECTOR('',#806,1.);
#675=VECTOR('',#807,1.);
#676=VECTOR('',#810,1.);
#677=VECTOR('',#853,1.);
#678=VECTOR('',#854,1.);
#679=VECTOR('',#863,1.);
#680=VECTOR('',#866,1.);
#681=VECTOR('',#889,1.);
#682=VECTOR('',#892,1.);
#683=VECTOR('',#943,1.);
#684=VECTOR('',#944,1.);
#685=VECTOR('',#947,1.);
#686=VECTOR('',#950,1.);
#687=VECTOR('',#953,1.);
#688=VECTOR('',#956,1.);
#689=VECTOR('',#961,1.);
#690=VECTOR('',#962,1.);
#691=VECTOR('',#965,1.);
#692=VECTOR('',#968,1.);
#693=VECTOR('',#971,1.);
#694=VECTOR('',#974,1.);
#695=AXIS2_PLACEMENT_3D('',#979,#781,#782);
#696=AXIS2_PLACEMENT_3D('',#983,#784,#785);
#697=AXIS2_PLACEMENT_3D('',#987,#787,#788);
#698=AXIS2_PLACEMENT_3D('',#988,#789,#790);
#699=AXIS2_PLACEMENT_3D('',#992,#792,#793);
#700=AXIS2_PLACEMENT_3D('',#993,#794,#795);
#701=AXIS2_PLACEMENT_3D('',#994,#796,#797);
#702=AXIS2_PLACEMENT_3D('',#998,#799,#800);
#703=AXIS2_PLACEMENT_3D('',#999,#801,#802);
#704=AXIS2_PLACEMENT_3D('',#1000,#803,#804);
#705=AXIS2_PLACEMENT_3D('',#1006,#808,#809);
#706=AXIS2_PLACEMENT_3D('',#1010,#811,#812);
#707=AXIS2_PLACEMENT_3D('',#1011,#813,#814);
#708=AXIS2_PLACEMENT_3D('',#1012,#815,#816);
#709=AXIS2_PLACEMENT_3D('',#1013,#817,#818);
#710=AXIS2_PLACEMENT_3D('',#1015,#819,#820);
#711=AXIS2_PLACEMENT_3D('',#1017,#821,#822);
#712=AXIS2_PLACEMENT_3D('',#1018,#823,#824);
#713=AXIS2_PLACEMENT_3D('',#1020,#825,#826);
#714=AXIS2_PLACEMENT_3D('',#1022,#827,#828);
#715=AXIS2_PLACEMENT_3D('',#1023,#829,#830);
#716=AXIS2_PLACEMENT_3D('',#1025,#831,#832);
#717=AXIS2_PLACEMENT_3D('',#1027,#833,#834);
#718=AXIS2_PLACEMENT_3D('',#1028,#835,#836);
#719=AXIS2_PLACEMENT_3D('',#1030,#837,#838);
#720=AXIS2_PLACEMENT_3D('',#1032,#839,#840);
#721=AXIS2_PLACEMENT_3D('',#1033,#841,#842);
#722=AXIS2_PLACEMENT_3D('',#1035,#843,#844);
#723=AXIS2_PLACEMENT_3D('',#1037,#845,#846);
#724=AXIS2_PLACEMENT_3D('',#1038,#847,#848);
#725=AXIS2_PLACEMENT_3D('',#1040,#849,#850);
#726=AXIS2_PLACEMENT_3D('',#1042,#851,#852);
#727=AXIS2_PLACEMENT_3D('',#1045,#855,#856);
#728=AXIS2_PLACEMENT_3D('',#1046,#857,#858);
#729=AXIS2_PLACEMENT_3D('',#1048,#859,#860);
#730=AXIS2_PLACEMENT_3D('',#1050,#861,#862);
#731=AXIS2_PLACEMENT_3D('',#1054,#864,#865);
#732=AXIS2_PLACEMENT_3D('',#1058,#867,#868);
#733=AXIS2_PLACEMENT_3D('',#1060,#869,#870);
#734=AXIS2_PLACEMENT_3D('',#1062,#871,#872);
#735=AXIS2_PLACEMENT_3D('',#1063,#873,#874);
#736=AXIS2_PLACEMENT_3D('',#1065,#875,#876);
#737=AXIS2_PLACEMENT_3D('',#1067,#877,#878);
#738=AXIS2_PLACEMENT_3D('',#1069,#879,#880);
#739=AXIS2_PLACEMENT_3D('',#1071,#881,#882);
#740=AXIS2_PLACEMENT_3D('',#1073,#883,#884);
#741=AXIS2_PLACEMENT_3D('',#1075,#885,#886);
#742=AXIS2_PLACEMENT_3D('',#1077,#887,#888);
#743=AXIS2_PLACEMENT_3D('',#1081,#890,#891);
#744=AXIS2_PLACEMENT_3D('',#1085,#893,#894);
#745=AXIS2_PLACEMENT_3D('',#1087,#895,#896);
#746=AXIS2_PLACEMENT_3D('',#1089,#897,#898);
#747=AXIS2_PLACEMENT_3D('',#1090,#899,#900);
#748=AXIS2_PLACEMENT_3D('',#1092,#901,#902);
#749=AXIS2_PLACEMENT_3D('',#1094,#903,#904);
#750=AXIS2_PLACEMENT_3D('',#1096,#905,#906);
#751=AXIS2_PLACEMENT_3D('',#1098,#907,#908);
#752=AXIS2_PLACEMENT_3D('',#1100,#909,#910);
#753=AXIS2_PLACEMENT_3D('',#1102,#911,#912);
#754=AXIS2_PLACEMENT_3D('',#1104,#913,#914);
#755=AXIS2_PLACEMENT_3D('',#1105,#915,#916);
#756=AXIS2_PLACEMENT_3D('',#1106,#917,#918);
#757=AXIS2_PLACEMENT_3D('',#1107,#919,#920);
#758=AXIS2_PLACEMENT_3D('',#1108,#921,#922);
#759=AXIS2_PLACEMENT_3D('',#1109,#923,#924);
#760=AXIS2_PLACEMENT_3D('',#1110,#925,#926);
#761=AXIS2_PLACEMENT_3D('',#1111,#927,#928);
#762=AXIS2_PLACEMENT_3D('',#1112,#929,#930);
#763=AXIS2_PLACEMENT_3D('',#1113,#931,#932);
#764=AXIS2_PLACEMENT_3D('',#1114,#933,#934);
#765=AXIS2_PLACEMENT_3D('',#1115,#935,#936);
#766=AXIS2_PLACEMENT_3D('',#1116,#937,#938);
#767=AXIS2_PLACEMENT_3D('',#1117,#939,#940);
#768=AXIS2_PLACEMENT_3D('',#1118,#941,#942);
#769=AXIS2_PLACEMENT_3D('',#1121,#945,#946);
#770=AXIS2_PLACEMENT_3D('',#1123,#948,#949);
#771=AXIS2_PLACEMENT_3D('',#1125,#951,#952);
#772=AXIS2_PLACEMENT_3D('',#1127,#954,#955);
#773=AXIS2_PLACEMENT_3D('',#1129,#957,#958);
#774=AXIS2_PLACEMENT_3D('',#1130,#959,#960);
#775=AXIS2_PLACEMENT_3D('',#1133,#963,#964);
#776=AXIS2_PLACEMENT_3D('',#1135,#966,#967);
#777=AXIS2_PLACEMENT_3D('',#1137,#969,#970);
#778=AXIS2_PLACEMENT_3D('',#1139,#972,#973);
#779=AXIS2_PLACEMENT_3D('',#1141,#975,#976);
#780=AXIS2_PLACEMENT_3D('',#1142,#977,#978);
#781=DIRECTION('',(0.,0.,1.));
#782=DIRECTION('',(1.,0.,0.));
#783=DIRECTION('',(0.,0.,-1.));
#784=DIRECTION('',(0.,0.,1.));
#785=DIRECTION('',(-1.,0.,0.));
#786=DIRECTION('',(0.,0.,-1.));
#787=DIRECTION('',(0.,0.,-1.));
#788=DIRECTION('',(-1.,0.,0.));
#789=DIRECTION('',(0.,0.,-1.));
#790=DIRECTION('',(-1.,0.,0.));
#791=DIRECTION('',(0.,0.,-1.));
#792=DIRECTION('',(0.,0.,-1.));
#793=DIRECTION('',(-1.,0.,0.));
#794=DIRECTION('',(0.,0.,1.));
#795=DIRECTION('',(-1.,0.,0.));
#796=DIRECTION('',(0.,0.,-1.));
#797=DIRECTION('',(-1.,0.,0.));
#798=DIRECTION('',(0.,0.,-1.));
#799=DIRECTION('',(0.,0.,1.));
#800=DIRECTION('',(-1.,0.,0.));
#801=DIRECTION('',(0.,0.,-1.));
#802=DIRECTION('',(-1.,0.,0.));
#803=DIRECTION('',(0.,0.,-1.));
#804=DIRECTION('',(-1.,0.,0.));
#805=DIRECTION('',(0.,0.,-1.));
#806=DIRECTION('',(1.60063472894228E-16,-1.,0.));
#807=DIRECTION('',(-1.60063472894228E-16,1.,0.));
#808=DIRECTION('',(-1.,-1.60063472894228E-16,0.));
#809=DIRECTION('',(1.59594559789866E-16,-1.,0.));
#810=DIRECTION('',(0.,0.,-1.));
#811=DIRECTION('',(0.,0.,-1.));
#812=DIRECTION('',(-1.,0.,0.));
#813=DIRECTION('',(0.,0.,1.));
#814=DIRECTION('',(-1.,0.,0.));
#815=DIRECTION('',(0.,0.,-1.));
#816=DIRECTION('',(-1.,0.,0.));
#817=DIRECTION('',(0.,0.,1.));
#818=DIRECTION('',(-1.,0.,0.));
#819=DIRECTION('',(0.,0.,-1.));
#820=DIRECTION('',(-1.,0.,0.));
#821=DIRECTION('',(0.,0.,-1.));
#822=DIRECTION('',(-1.,0.,0.));
#823=DIRECTION('',(0.,0.,1.));
#824=DIRECTION('',(-1.,0.,0.));
#825=DIRECTION('',(0.,0.,-1.));
#826=DIRECTION('',(-1.,0.,0.));
#827=DIRECTION('',(0.,0.,-1.));
#828=DIRECTION('',(-1.,0.,0.));
#829=DIRECTION('',(0.,0.,1.));
#830=DIRECTION('',(-1.,0.,0.));
#831=DIRECTION('',(0.,0.,-1.));
#832=DIRECTION('',(-1.,0.,0.));
#833=DIRECTION('',(0.,0.,-1.));
#834=DIRECTION('',(-1.,0.,0.));
#835=DIRECTION('',(0.,0.,1.));
#836=DIRECTION('',(-1.,0.,0.));
#837=DIRECTION('',(0.,0.,-1.));
#838=DIRECTION('',(-1.,0.,0.));
#839=DIRECTION('',(0.,0.,-1.));
#840=DIRECTION('',(-1.,0.,0.));
#841=DIRECTION('',(0.,0.,1.));
#842=DIRECTION('',(-1.,0.,0.));
#843=DIRECTION('',(0.,0.,-1.));
#844=DIRECTION('',(-1.,0.,0.));
#845=DIRECTION('',(0.,0.,-1.));
#846=DIRECTION('',(-1.,0.,0.));
#847=DIRECTION('',(0.,0.,1.));
#848=DIRECTION('',(-1.,0.,0.));
#849=DIRECTION('',(0.,0.,-1.));
#850=DIRECTION('',(-1.,0.,0.));
#851=DIRECTION('',(0.,0.,-1.));
#852=DIRECTION('',(-1.,0.,0.));
#853=DIRECTION('',(-9.60380837365368E-17,1.,0.));
#854=DIRECTION('',(9.60380837365368E-17,-1.,0.));
#855=DIRECTION('',(1.,9.60380837365368E-17,0.));
#856=DIRECTION('',(-9.54097911787244E-17,1.,0.));
#857=DIRECTION('',(0.,0.,1.));
#858=DIRECTION('',(-1.,0.,0.));
#859=DIRECTION('',(0.,0.,-1.));
#860=DIRECTION('',(-1.,0.,0.));
#861=DIRECTION('',(0.,0.,-1.));
#862=DIRECTION('',(-1.,0.,0.));
#863=DIRECTION('',(-1.60063472894228E-16,1.,0.));
#864=DIRECTION('',(0.,0.,1.));
#865=DIRECTION('',(-1.,0.,0.));
#866=DIRECTION('',(9.60380837365368E-17,-1.,0.));
#867=DIRECTION('',(0.,0.,-1.));
#868=DIRECTION('',(-1.,0.,0.));
#869=DIRECTION('',(0.,0.,1.));
#870=DIRECTION('',(-1.,0.,0.));
#871=DIRECTION('',(0.,0.,-1.));
#872=DIRECTION('',(-1.,0.,0.));
#873=DIRECTION('',(0.,0.,-1.));
#874=DIRECTION('',(-1.,0.,0.));
#875=DIRECTION('',(0.,0.,-1.));
#876=DIRECTION('',(-1.,0.,0.));
#877=DIRECTION('',(0.,0.,-1.));
#878=DIRECTION('',(-1.,0.,0.));
#879=DIRECTION('',(0.,0.,-1.));
#880=DIRECTION('',(-1.,0.,0.));
#881=DIRECTION('',(0.,0.,-1.));
#882=DIRECTION('',(-1.,0.,0.));
#883=DIRECTION('',(0.,0.,-1.));
#884=DIRECTION('',(-1.,0.,0.));
#885=DIRECTION('',(0.,0.,-1.));
#886=DIRECTION('',(-1.,0.,0.));
#887=DIRECTION('',(0.,0.,-1.));
#888=DIRECTION('',(-1.,0.,0.));
#889=DIRECTION('',(-9.60380837365368E-17,1.,0.));
#890=DIRECTION('',(0.,0.,-1.));
#891=DIRECTION('',(-1.,0.,0.));
#892=DIRECTION('',(1.60063472894228E-16,-1.,0.));
#893=DIRECTION('',(0.,0.,1.));
#894=DIRECTION('',(-1.,0.,0.));
#895=DIRECTION('',(0.,0.,-1.));
#896=DIRECTION('',(-1.,0.,0.));
#897=DIRECTION('',(0.,0.,1.));
#898=DIRECTION('',(-1.,0.,0.));
#899=DIRECTION('',(0.,0.,1.));
#900=DIRECTION('',(-1.,0.,0.));
#901=DIRECTION('',(0.,0.,1.));
#902=DIRECTION('',(-1.,0.,0.));
#903=DIRECTION('',(0.,0.,1.));
#904=DIRECTION('',(-1.,0.,0.));
#905=DIRECTION('',(0.,0.,1.));
#906=DIRECTION('',(-1.,0.,0.));
#907=DIRECTION('',(0.,0.,1.));
#908=DIRECTION('',(-1.,0.,0.));
#909=DIRECTION('',(0.,0.,1.));
#910=DIRECTION('',(-1.,0.,0.));
#911=DIRECTION('',(0.,0.,1.));
#912=DIRECTION('',(-1.,0.,0.));
#913=DIRECTION('',(0.,0.,-1.));
#914=DIRECTION('',(-1.,0.,0.));
#915=DIRECTION('',(0.,0.,1.));
#916=DIRECTION('',(1.,0.,-1.03668733624112E-16));
#917=DIRECTION('',(0.,0.,-1.));
#918=DIRECTION('',(-1.,0.,0.));
#919=DIRECTION('',(0.,0.,1.));
#920=DIRECTION('',(1.,0.,-1.0387565724412E-16));
#921=DIRECTION('',(0.,0.,1.));
#922=DIRECTION('',(1.,0.,-1.0387565724412E-16));
#923=DIRECTION('',(0.,0.,1.));
#924=DIRECTION('',(1.,0.,-1.0387565724412E-16));
#925=DIRECTION('',(0.,0.,1.));
#926=DIRECTION('',(1.,0.,-1.03720387203396E-16));
#927=DIRECTION('',(0.,0.,1.));
#928=DIRECTION('',(1.,0.,-1.0387565724412E-16));
#929=DIRECTION('',(0.,0.,1.));
#930=DIRECTION('',(1.,0.,-1.03668733624112E-16));
#931=DIRECTION('',(0.,0.,-1.));
#932=DIRECTION('',(-1.,0.,0.));
#933=DIRECTION('',(0.,0.,-1.));
#934=DIRECTION('',(-1.,0.,0.));
#935=DIRECTION('',(0.,0.,-1.));
#936=DIRECTION('',(-1.,0.,0.));
#937=DIRECTION('',(0.,0.,-1.));
#938=DIRECTION('',(-1.,0.,0.));
#939=DIRECTION('',(0.,0.,-1.));
#940=DIRECTION('',(-1.,0.,0.));
#941=DIRECTION('',(0.,0.,-1.));
#942=DIRECTION('',(-1.,0.,0.));
#943=DIRECTION('',(0.578541911879901,-0.406557814090872,0.707106781186548));
#944=DIRECTION('',(0.578541911879903,0.406557814090871,-0.707106781186547));
#945=DIRECTION('',(0.,0.,-1.));
#946=DIRECTION('',(-1.,0.,8.51022113410916E-18));
#947=DIRECTION('',(0.707106781186548,0.,-0.707106781186548));
#948=DIRECTION('',(0.,0.,1.));
#949=DIRECTION('',(1.,0.,8.37383411844373E-18));
#950=DIRECTION('',(0.707106781186548,0.,0.707106781186548));
#951=DIRECTION('',(0.,0.,1.));
#952=DIRECTION('',(1.,0.,8.37383411844373E-18));
#953=DIRECTION('',(0.707106781186548,0.,-0.707106781186548));
#954=DIRECTION('',(-0.707106781186548,-1.13181967103778E-16,-0.707106781186548));
#955=DIRECTION('',(-1.59594559789866E-16,1.,0.));
#956=DIRECTION('',(0.707106781186548,0.,0.707106781186548));
#957=DIRECTION('',(0.707106781186548,6.79091802622666E-17,-0.707106781186548));
#958=DIRECTION('',(9.54097911787244E-17,-1.,0.));
#959=DIRECTION('',(0.,0.,-1.));
#960=DIRECTION('',(-1.,0.,8.5945475424931E-18));
#961=DIRECTION('',(-0.578541911879903,0.406557814090872,0.707106781186546));
#962=DIRECTION('',(-0.578541911879905,-0.406557814090871,-0.707106781186545));
#963=DIRECTION('',(0.,0.,1.));
#964=DIRECTION('',(1.,0.,-8.67361737988406E-17));
#965=DIRECTION('',(-0.707106781186548,0.,-0.707106781186548));
#966=DIRECTION('',(0.,0.,-1.));
#967=DIRECTION('',(-1.,0.,2.17887972828004E-17));
#968=DIRECTION('',(-0.707106781186544,0.,0.707106781186551));
#969=DIRECTION('',(0.,0.,-1.));
#970=DIRECTION('',(-1.,0.,2.17887972828006E-17));
#971=DIRECTION('',(-0.707106781186548,0.,-0.707106781186548));
#972=DIRECTION('',(0.707106781186548,1.13181967103778E-16,-0.707106781186548));
#973=DIRECTION('',(1.59594559789866E-16,-1.,0.));
#974=DIRECTION('',(-0.707106781186548,0.,0.707106781186548));
#975=DIRECTION('',(-0.707106781186548,-6.79091802622666E-17,-0.707106781186548));
#976=DIRECTION('',(-9.54097911787244E-17,1.,0.));
#977=DIRECTION('',(0.,0.,1.));
#978=DIRECTION('',(1.,0.,-8.75949477968487E-17));
#979=CARTESIAN_POINT('',(0.,0.,0.));
#980=CARTESIAN_POINT('',(-16.3636363636364,11.4991914915214,10.));
#981=CARTESIAN_POINT('',(-16.3636363636364,11.4991914915214,9.2));
#982=CARTESIAN_POINT('',(-16.3636363636364,11.4991914915214,0.8));
#983=CARTESIAN_POINT('',(-45.,31.6227766016838,9.2));
#984=CARTESIAN_POINT('',(-9.99999999999998,31.6227766016838,9.2));
#985=CARTESIAN_POINT('',(-9.99999999999998,31.6227766016838,10.));
#986=CARTESIAN_POINT('',(-9.99999999999998,31.6227766016838,0.8));
#987=CARTESIAN_POINT('',(-45.,31.6227766016838,0.8));
#988=CARTESIAN_POINT('',(-45.,31.6227766016838,10.));
#989=CARTESIAN_POINT('',(16.3636363636364,11.4991914915214,10.));
#990=CARTESIAN_POINT('',(16.3636363636364,11.4991914915214,9.2));
#991=CARTESIAN_POINT('',(16.3636363636364,11.4991914915214,0.8));
#992=CARTESIAN_POINT('',(0.,0.,9.2));
#993=CARTESIAN_POINT('',(0.,0.,0.8));
#994=CARTESIAN_POINT('',(0.,0.,10.));
#995=CARTESIAN_POINT('',(10.,31.6227766016838,10.));
#996=CARTESIAN_POINT('',(10.,31.6227766016838,9.2));
#997=CARTESIAN_POINT('',(10.,31.6227766016838,0.8));
#998=CARTESIAN_POINT('',(45.,31.6227766016838,9.2));
#999=CARTESIAN_POINT('',(45.,31.6227766016838,0.8));
#1000=CARTESIAN_POINT('',(45.,31.6227766016838,10.));
#1001=CARTESIAN_POINT('',(10.,140.,10.));
#1002=CARTESIAN_POINT('',(10.,140.,9.2));
#1003=CARTESIAN_POINT('',(10.,140.,0.8));
#1004=CARTESIAN_POINT('',(10.,31.6227766016838,9.2));
#1005=CARTESIAN_POINT('',(10.,140.,0.8));
#1006=CARTESIAN_POINT('',(10.,31.6227766016838,10.));
#1007=CARTESIAN_POINT('',(-10.,140.,10.));
#1008=CARTESIAN_POINT('',(-10.,140.,9.2));
#1009=CARTESIAN_POINT('',(-10.,140.,0.8));
#1010=CARTESIAN_POINT('',(0.,140.,9.2));
#1011=CARTESIAN_POINT('',(0.,140.,0.8));
#1012=CARTESIAN_POINT('',(0.,140.,10.));
#1013=CARTESIAN_POINT('',(8.48528137423857,-8.48528137423857,9.));
#1014=CARTESIAN_POINT('',(6.48528137423857,-8.48528137423857,9.));
#1015=CARTESIAN_POINT('',(8.48528137423857,-8.48528137423857,0.999999999999999));
#1016=CARTESIAN_POINT('',(6.48528137423857,-8.48528137423857,0.999999999999999));
#1017=CARTESIAN_POINT('',(8.48528137423857,-8.48528137423857,10.));
#1018=CARTESIAN_POINT('',(0.,0.,9.));
#1019=CARTESIAN_POINT('',(-3.5,0.,9.));
#1020=CARTESIAN_POINT('',(0.,0.,0.999999999999999));
#1021=CARTESIAN_POINT('',(-3.5,0.,0.999999999999999));
#1022=CARTESIAN_POINT('',(0.,0.,10.));
#1023=CARTESIAN_POINT('',(0.,140.,9.));
#1024=CARTESIAN_POINT('',(-4.,140.,9.));
#1025=CARTESIAN_POINT('',(0.,140.,0.999999999999999));
#1026=CARTESIAN_POINT('',(-4.,140.,0.999999999999999));
#1027=CARTESIAN_POINT('',(0.,140.,10.));
#1028=CARTESIAN_POINT('',(0.,80.,9.));
#1029=CARTESIAN_POINT('',(-4.,80.,9.));
#1030=CARTESIAN_POINT('',(0.,80.,0.999999999999999));
#1031=CARTESIAN_POINT('',(-4.,80.,0.999999999999999));
#1032=CARTESIAN_POINT('',(0.,80.,10.));
#1033=CARTESIAN_POINT('',(-8.48528137423857,8.48528137423857,9.));
#1034=CARTESIAN_POINT('',(-10.4852813742386,8.48528137423857,9.));
#1035=CARTESIAN_POINT('',(-8.48528137423857,8.48528137423857,0.999999999999999));
#1036=CARTESIAN_POINT('',(-10.4852813742386,8.48528137423857,0.999999999999999));
#1037=CARTESIAN_POINT('',(-8.48528137423857,8.48528137423857,10.));
#1038=CARTESIAN_POINT('',(-8.48528137423857,-8.48528137423857,9.));
#1039=CARTESIAN_POINT('',(-10.4852813742386,-8.48528137423857,9.));
#1040=CARTESIAN_POINT('',(-8.48528137423857,-8.48528137423857,0.999999999999999));
#1041=CARTESIAN_POINT('',(-10.4852813742386,-8.48528137423857,0.999999999999999));
#1042=CARTESIAN_POINT('',(-8.48528137423857,-8.48528137423857,10.));
#1043=CARTESIAN_POINT('',(-10.,140.,9.2));
#1044=CARTESIAN_POINT('',(-9.99999999999999,31.6227766016838,0.8));
#1045=CARTESIAN_POINT('',(-10.,140.,10.));
#1046=CARTESIAN_POINT('',(8.48528137423857,8.48528137423857,9.));
#1047=CARTESIAN_POINT('',(6.48528137423857,8.48528137423857,9.));
#1048=CARTESIAN_POINT('',(8.48528137423857,8.48528137423857,0.999999999999999));
#1049=CARTESIAN_POINT('',(6.48528137423857,8.48528137423857,0.999999999999999));
#1050=CARTESIAN_POINT('',(8.48528137423857,8.48528137423857,10.));
#1051=CARTESIAN_POINT('',(9.20000000000001,31.6227766016838,10.));
#1052=CARTESIAN_POINT('',(9.20000000000001,31.6227766016838,10.));
#1053=CARTESIAN_POINT('',(9.2,140.,10.));
#1054=CARTESIAN_POINT('',(0.,140.,10.));
#1055=CARTESIAN_POINT('',(-9.2,140.,10.));
#1056=CARTESIAN_POINT('',(-9.19999999999999,31.6227766016838,10.));
#1057=CARTESIAN_POINT('',(-9.19999999999999,31.6227766016838,10.));
#1058=CARTESIAN_POINT('',(-45.,31.6227766016838,10.));
#1059=CARTESIAN_POINT('',(-15.7090909090909,11.0392238318605,10.));
#1060=CARTESIAN_POINT('',(0.,0.,10.));
#1061=CARTESIAN_POINT('',(15.7090909090909,11.0392238318605,10.));
#1062=CARTESIAN_POINT('',(45.,31.6227766016838,10.));
#1063=CARTESIAN_POINT('',(0.,80.,10.));
#1064=CARTESIAN_POINT('',(-5.,80.,10.));
#1065=CARTESIAN_POINT('',(-8.48528137423857,8.48528137423857,10.));
#1066=CARTESIAN_POINT('',(-11.4852813742386,8.48528137423857,10.));
#1067=CARTESIAN_POINT('',(-8.48528137423857,-8.48528137423857,10.));
#1068=CARTESIAN_POINT('',(-11.4852813742386,-8.48528137423857,10.));
#1069=CARTESIAN_POINT('',(8.48528137423857,-8.48528137423857,10.));
#1070=CARTESIAN_POINT('',(5.48528137423857,-8.48528137423857,10.));
#1071=CARTESIAN_POINT('',(0.,0.,10.));
#1072=CARTESIAN_POINT('',(-4.5,0.,10.));
#1073=CARTESIAN_POINT('',(8.48528137423857,8.48528137423857,10.));
#1074=CARTESIAN_POINT('',(5.48528137423857,8.48528137423857,10.));
#1075=CARTESIAN_POINT('',(0.,140.,10.));
#1076=CARTESIAN_POINT('',(-5.,140.,10.));
#1077=CARTESIAN_POINT('',(-45.,31.6227766016838,10.));
#1078=CARTESIAN_POINT('',(-9.2,140.,0.));
#1079=CARTESIAN_POINT('',(-9.19999999999999,31.6227766016838,0.));
#1080=CARTESIAN_POINT('',(-9.2,140.,0.));
#1081=CARTESIAN_POINT('',(0.,140.,0.));
#1082=CARTESIAN_POINT('',(9.2,140.,0.));
#1083=CARTESIAN_POINT('',(9.20000000000001,31.6227766016838,0.));
#1084=CARTESIAN_POINT('',(9.20000000000001,31.6227766016838,0.));
#1085=CARTESIAN_POINT('',(45.,31.6227766016838,0.));
#1086=CARTESIAN_POINT('',(15.7090909090909,11.0392238318605,0.));
#1087=CARTESIAN_POINT('',(0.,0.,0.));
#1088=CARTESIAN_POINT('',(-15.7090909090909,11.0392238318605,0.));
#1089=CARTESIAN_POINT('',(-45.,31.6227766016838,0.));
#1090=CARTESIAN_POINT('',(0.,80.,0.));
#1091=CARTESIAN_POINT('',(-5.,80.,0.));
#1092=CARTESIAN_POINT('',(0.,140.,0.));
#1093=CARTESIAN_POINT('',(-5.,140.,0.));
#1094=CARTESIAN_POINT('',(0.,0.,0.));
#1095=CARTESIAN_POINT('',(-4.5,0.,0.));
#1096=CARTESIAN_POINT('',(8.48528137423857,8.48528137423857,0.));
#1097=CARTESIAN_POINT('',(5.48528137423857,8.48528137423857,0.));
#1098=CARTESIAN_POINT('',(8.48528137423857,-8.48528137423857,0.));
#1099=CARTESIAN_POINT('',(5.48528137423857,-8.48528137423857,0.));
#1100=CARTESIAN_POINT('',(-8.48528137423857,-8.48528137423857,0.));
#1101=CARTESIAN_POINT('',(-11.4852813742386,-8.48528137423857,0.));
#1102=CARTESIAN_POINT('',(-8.48528137423857,8.48528137423857,0.));
#1103=CARTESIAN_POINT('',(-11.4852813742386,8.48528137423857,0.));
#1104=CARTESIAN_POINT('',(-45.,31.6227766016838,0.));
#1105=CARTESIAN_POINT('',(0.,80.,9.));
#1106=CARTESIAN_POINT('',(0.,80.,0.));
#1107=CARTESIAN_POINT('',(-8.48528137423857,8.48528137423857,9.));
#1108=CARTESIAN_POINT('',(-8.48528137423857,-8.48528137423857,9.));
#1109=CARTESIAN_POINT('',(8.48528137423857,-8.48528137423857,9.));
#1110=CARTESIAN_POINT('',(0.,0.,9.));
#1111=CARTESIAN_POINT('',(8.48528137423857,8.48528137423857,9.));
#1112=CARTESIAN_POINT('',(0.,140.,9.));
#1113=CARTESIAN_POINT('',(0.,140.,0.));
#1114=CARTESIAN_POINT('',(0.,0.,0.));
#1115=CARTESIAN_POINT('',(8.48528137423857,8.48528137423857,0.));
#1116=CARTESIAN_POINT('',(8.48528137423857,-8.48528137423857,0.));
#1117=CARTESIAN_POINT('',(-8.48528137423857,-8.48528137423857,0.));
#1118=CARTESIAN_POINT('',(-8.48528137423857,8.48528137423857,0.));
#1119=CARTESIAN_POINT('',(-16.3636363636364,11.4991914915214,9.2));
#1120=CARTESIAN_POINT('',(15.7090909090909,11.0392238318605,10.));
#1121=CARTESIAN_POINT('',(0.,0.,10.));
#1122=CARTESIAN_POINT('',(9.20000000000001,31.6227766016838,10.));
#1123=CARTESIAN_POINT('',(45.,31.6227766016838,10.));
#1124=CARTESIAN_POINT('',(-9.99999999999998,31.6227766016838,9.2));
#1125=CARTESIAN_POINT('',(-45.,31.6227766016838,10.));
#1126=CARTESIAN_POINT('',(9.2,140.,10.));
#1127=CARTESIAN_POINT('',(9.20000000000001,31.6227766016838,10.));
#1128=CARTESIAN_POINT('',(-10.,140.,9.2));
#1129=CARTESIAN_POINT('',(-9.19999999999999,31.6227766016838,10.));
#1130=CARTESIAN_POINT('',(0.,140.,10.));
#1131=CARTESIAN_POINT('',(-15.7090909090909,11.0392238318605,0.));
#1132=CARTESIAN_POINT('',(16.3636363636364,11.4991914915214,0.8));
#1133=CARTESIAN_POINT('',(0.,0.,0.8));
#1134=CARTESIAN_POINT('',(10.,31.6227766016838,0.8));
#1135=CARTESIAN_POINT('',(45.,31.6227766016838,0.8));
#1136=CARTESIAN_POINT('',(-9.19999999999999,31.6227766016838,0.));
#1137=CARTESIAN_POINT('',(-45.,31.6227766016838,0.8));
#1138=CARTESIAN_POINT('',(10.,140.,0.8));
#1139=CARTESIAN_POINT('',(10.,31.6227766016838,0.8));
#1140=CARTESIAN_POINT('',(-9.2,140.,0.));
#1141=CARTESIAN_POINT('',(-10.,140.,0.8));
#1142=CARTESIAN_POINT('',(0.,140.,0.8));
#1143=(
GEOMETRIC_REPRESENTATION_CONTEXT(3)
GLOBAL_UNCERTAINTY_ASSIGNED_CONTEXT((#1144))
GLOBAL_UNIT_ASSIGNED_CONTEXT((#1150,#1146,#1145))
REPRESENTATION_CONTEXT('\X2\04400443043B043504320430044F\X0\ \X2\0441043E
0448043A0430\X0\','TOP_LEVEL_ASSEMBLY_PART')
);
#1144=UNCERTAINTY_MEASURE_WITH_UNIT(LENGTH_MEASURE(2.E-5),#1150,
'DISTANCE_ACCURACY_VALUE','Maximum Tolerance applied to model');
#1145=(
NAMED_UNIT(*)
SI_UNIT($,.STERADIAN.)
SOLID_ANGLE_UNIT()
);
#1146=(
CONVERSION_BASED_UNIT('DEGREE',#1148)
NAMED_UNIT(#1147)
PLANE_ANGLE_UNIT()
);
#1147=DIMENSIONAL_EXPONENTS(0.,0.,0.,0.,0.,0.,0.);
#1148=PLANE_ANGLE_MEASURE_WITH_UNIT(PLANE_ANGLE_MEASURE(0.0174532925),#1149);
#1149=(
NAMED_UNIT(*)
PLANE_ANGLE_UNIT()
SI_UNIT($,.RADIAN.)
);
#1150=(
LENGTH_UNIT()
NAMED_UNIT(*)
SI_UNIT(.MILLI.,.METRE.)
);
ENDSEC;
END-ISO-10303-21;
