ISO-10303-21;
HEADER;
/* Generated by software containing ST-Developer
 * from STEP Tools, Inc. (www.steptools.com) 
 */
/* OPTION: using custom schema-name function */

FILE_DESCRIPTION(
/* description */ (''),
/* implementation_level */ '2;1');

FILE_NAME(
/* name */ '\X2\043A04400435043F043B0435043D04380435\X0\ \X2\0430043C043E
044004420430\X0\.stp',
/* time_stamp */ '2026-07-05T20:23:22+05:00',
/* author */ (''),
/* organization */ (''),
/* preprocessor_version */ 'ST-DEVELOPER v16',
/* originating_system */ 'SIEMENS PLM Software NX 10.0',
/* authorisation */ '');

FILE_SCHEMA (('AP203_CONFIGURATION_CONTROLLED_3D_DESIGN_OF_MECHANICAL_PARTS_AND_ASSEMBLIES_MIM_LF { 1 0 10303 403 2 1 2}'));
ENDSEC;

DATA;
#10=PROPERTY_DEFINITION_REPRESENTATION(#14,#12);
#11=PROPERTY_DEFINITION_REPRESENTATION(#15,#13);
#12=REPRESENTATION('',(#16),#802);
#13=REPRESENTATION('',(#17),#802);
#14=PROPERTY_DEFINITION('pmi validation property','',#89);
#15=PROPERTY_DEFINITION('pmi validation property','',#89);
#16=VALUE_REPRESENTATION_ITEM('number of annotations',COUNT_MEASURE(0.));
#17=VALUE_REPRESENTATION_ITEM('number of views',COUNT_MEASURE(0.));
#18=SHAPE_REPRESENTATION_RELATIONSHIP('None',
'relationship between Hi4848C266pjmj-None and Hi4848C266pjmj-None',#100,
#19);
#19=ADVANCED_BREP_SHAPE_REPRESENTATION('Hi4848C266pjmj-None',(#101),#802);
#20=CC_DESIGN_APPROVAL(#32,(#90));
#21=CC_DESIGN_APPROVAL(#33,(#92));
#22=CC_DESIGN_APPROVAL(#34,(#39));
#23=APPROVAL_PERSON_ORGANIZATION(#77,#32,#26);
#24=APPROVAL_PERSON_ORGANIZATION(#78,#33,#27);
#25=APPROVAL_PERSON_ORGANIZATION(#79,#34,#28);
#26=APPROVAL_ROLE('approver');
#27=APPROVAL_ROLE('approver');
#28=APPROVAL_ROLE('approver');
#29=APPROVAL_DATE_TIME(#47,#32);
#30=APPROVAL_DATE_TIME(#48,#33);
#31=APPROVAL_DATE_TIME(#49,#34);
#32=APPROVAL(#35,' ');
#33=APPROVAL(#36,' ');
#34=APPROVAL(#37,' ');
#35=APPROVAL_STATUS('not_yet_approved');
#36=APPROVAL_STATUS('not_yet_approved');
#37=APPROVAL_STATUS('not_yet_approved');
#38=CC_DESIGN_SECURITY_CLASSIFICATION(#39,(#92));
#39=SECURITY_CLASSIFICATION(' ',' ',#40);
#40=SECURITY_CLASSIFICATION_LEVEL('confidential');
#41=CC_DESIGN_DATE_AND_TIME_ASSIGNMENT(#45,#43,(#90));
#42=CC_DESIGN_DATE_AND_TIME_ASSIGNMENT(#46,#44,(#39));
#43=DATE_TIME_ROLE('creation_date');
#44=DATE_TIME_ROLE('classification_date');
#45=DATE_AND_TIME(#60,#50);
#46=DATE_AND_TIME(#61,#51);
#47=DATE_AND_TIME(#62,#52);
#48=DATE_AND_TIME(#63,#53);
#49=DATE_AND_TIME(#64,#54);
#50=LOCAL_TIME(0,0,0.,#55);
#51=LOCAL_TIME(0,0,0.,#56);
#52=LOCAL_TIME(0,0,0.,#57);
#53=LOCAL_TIME(0,0,0.,#58);
#54=LOCAL_TIME(0,0,0.,#59);
#55=COORDINATED_UNIVERSAL_TIME_OFFSET(0,0,.BEHIND.);
#56=COORDINATED_UNIVERSAL_TIME_OFFSET(0,0,.BEHIND.);
#57=COORDINATED_UNIVERSAL_TIME_OFFSET(0,0,.BEHIND.);
#58=COORDINATED_UNIVERSAL_TIME_OFFSET(0,0,.BEHIND.);
#59=COORDINATED_UNIVERSAL_TIME_OFFSET(0,0,.BEHIND.);
#60=CALENDAR_DATE(0,1,1);
#61=CALENDAR_DATE(0,1,1);
#62=CALENDAR_DATE(0,1,1);
#63=CALENDAR_DATE(0,1,1);
#64=CALENDAR_DATE(0,1,1);
#65=CC_DESIGN_PERSON_AND_ORGANIZATION_ASSIGNMENT(#73,#69,(#90,#92));
#66=CC_DESIGN_PERSON_AND_ORGANIZATION_ASSIGNMENT(#74,#70,(#94));
#67=CC_DESIGN_PERSON_AND_ORGANIZATION_ASSIGNMENT(#75,#71,(#92));
#68=CC_DESIGN_PERSON_AND_ORGANIZATION_ASSIGNMENT(#76,#72,(#39));
#69=PERSON_AND_ORGANIZATION_ROLE('creator');
#70=PERSON_AND_ORGANIZATION_ROLE('design_owner');
#71=PERSON_AND_ORGANIZATION_ROLE('design_supplier');
#72=PERSON_AND_ORGANIZATION_ROLE('classification_officer');
#73=PERSON_AND_ORGANIZATION(#87,#80);
#74=PERSON_AND_ORGANIZATION(#87,#81);
#75=PERSON_AND_ORGANIZATION(#87,#82);
#76=PERSON_AND_ORGANIZATION(#87,#83);
#77=PERSON_AND_ORGANIZATION(#87,#84);
#78=PERSON_AND_ORGANIZATION(#87,#85);
#79=PERSON_AND_ORGANIZATION(#87,#86);
#80=ORGANIZATION(' ',' ',' ');
#81=ORGANIZATION(' ',' ',' ');
#82=ORGANIZATION(' ',' ',' ');
#83=ORGANIZATION(' ',' ',' ');
#84=ORGANIZATION(' ',' ',' ');
#85=ORGANIZATION(' ',' ',' ');
#86=ORGANIZATION(' ',' ',' ');
#87=PERSON(' ',' ',' ',(' '),$,$);
#88=SHAPE_DEFINITION_REPRESENTATION(#89,#100);
#89=PRODUCT_DEFINITION_SHAPE('','',#90);
#90=PRODUCT_DEFINITION(' ','',#92,#91);
#91=DESIGN_CONTEXT('',#99,'design');
#92=PRODUCT_DEFINITION_FORMATION_WITH_SPECIFIED_SOURCE(' ',' ',#94,
 .NOT_KNOWN.);
#93=PRODUCT_RELATED_PRODUCT_CATEGORY('detail','',(#94));
#94=PRODUCT('Hi4848C266pjmj','Hi4848C266pjmj',' ',(#97));
#95=PRODUCT_CATEGORY('part',' ');
#96=PRODUCT_CATEGORY(' ','');
#97=MECHANICAL_CONTEXT(' ',#99,'mechanical');
#98=APPLICATION_PROTOCOL_DEFINITION('international standard',
'config_control_design',2010,#99);
#99=APPLICATION_CONTEXT(
'configuration controlled 3D designs of mechanical parts and assemblie
s');
#100=SHAPE_REPRESENTATION('Hi4848C266pjmj-None',(#494),#802);
#101=MANIFOLD_SOLID_BREP('',#102);
#102=CLOSED_SHELL('',(#135,#136,#137,#138,#139,#140,#141,#142,#143,#144,
#145,#146,#147,#148,#149,#150,#151,#152,#153,#154,#155,#156,#157));
#103=(
BOUNDED_SURFACE()
B_SPLINE_SURFACE(3,3,((#742,#743,#744,#745),(#746,#747,#748,#749),(#750,
#751,#752,#753),(#754,#755,#756,#757),(#758,#759,#760,#761),(#762,#763,
#764,#765),(#766,#767,#768,#769)),.UNSPECIFIED.,.T.,.F.,.F.)
B_SPLINE_SURFACE_WITH_KNOTS((1,3,3,3,1),(4,4),(-0.5,0.,0.5,1.,1.5),(0.,
1.),.UNSPECIFIED.)
GEOMETRIC_REPRESENTATION_ITEM()
RATIONAL_B_SPLINE_SURFACE(((1.,1.,1.,1.),(0.333333333333333,0.333333333333333,
0.333333333333333,0.333333333333333),(0.333333333333333,0.333333333333333,
0.333333333333333,0.333333333333333),(1.,1.,1.,1.),(0.333333333333333,0.333333333333333,
0.333333333333333,0.333333333333333),(0.333333333333333,0.333333333333333,
0.333333333333333,0.333333333333333),(1.,1.,1.,1.)))
REPRESENTATION_ITEM('')
SURFACE()
);
#104=(
BOUNDED_SURFACE()
B_SPLINE_SURFACE(3,3,((#771,#772,#773,#774),(#775,#776,#777,#778),(#779,
#780,#781,#782),(#783,#784,#785,#786),(#787,#788,#789,#790),(#791,#792,
#793,#794),(#795,#796,#797,#798)),.UNSPECIFIED.,.T.,.F.,.F.)
B_SPLINE_SURFACE_WITH_KNOTS((1,3,3,3,1),(4,4),(-0.5,0.,0.5,1.,1.5),(0.,
1.),.UNSPECIFIED.)
GEOMETRIC_REPRESENTATION_ITEM()
RATIONAL_B_SPLINE_SURFACE(((1.,1.,1.,1.),(0.333333333333333,0.333333333333333,
0.333333333333333,0.333333333333333),(0.333333333333333,0.333333333333333,
0.333333333333333,0.333333333333333),(1.,1.,1.,1.),(0.333333333333333,0.333333333333333,
0.333333333333333,0.333333333333333),(0.333333333333333,0.333333333333333,
0.333333333333333,0.333333333333333),(1.,1.,1.,1.)))
REPRESENTATION_ITEM('')
SURFACE()
);
#105=CYLINDRICAL_SURFACE('',#508,2.);
#106=CYLINDRICAL_SURFACE('',#511,4.);
#107=CYLINDRICAL_SURFACE('',#514,4.);
#108=CYLINDRICAL_SURFACE('',#517,2.);
#109=CYLINDRICAL_SURFACE('',#526,5.);
#110=CYLINDRICAL_SURFACE('',#527,5.);
#111=ELLIPSE('',#506,2.82842712474619,2.);
#112=ELLIPSE('',#509,4.47213595499958,4.);
#113=ELLIPSE('',#512,4.47213595499958,4.);
#114=ELLIPSE('',#515,2.82842712474619,2.);
#115=FACE_BOUND('',#191,.T.);
#116=FACE_BOUND('',#192,.T.);
#117=FACE_BOUND('',#193,.T.);
#118=FACE_BOUND('',#194,.T.);
#119=FACE_BOUND('',#195,.T.);
#120=FACE_BOUND('',#196,.T.);
#121=FACE_BOUND('',#197,.T.);
#122=FACE_BOUND('',#198,.T.);
#123=FACE_BOUND('',#215,.T.);
#124=FACE_BOUND('',#216,.T.);
#125=FACE_BOUND('',#217,.T.);
#126=FACE_BOUND('',#218,.T.);
#127=CIRCLE('',#496,5.);
#128=CIRCLE('',#498,5.);
#129=CIRCLE('',#500,5.);
#130=CIRCLE('',#502,5.);
#131=CIRCLE('',#507,2.);
#132=CIRCLE('',#510,4.);
#133=CIRCLE('',#513,4.);
#134=CIRCLE('',#516,2.);
#135=ADVANCED_FACE('',(#173),#158,.T.);
#136=ADVANCED_FACE('',(#115,#116),#159,.F.);
#137=ADVANCED_FACE('',(#117,#118),#160,.T.);
#138=ADVANCED_FACE('',(#119,#120),#161,.F.);
#139=ADVANCED_FACE('',(#121,#122),#162,.T.);
#140=ADVANCED_FACE('',(#174),#163,.T.);
#141=ADVANCED_FACE('',(#175),#164,.F.);
#142=ADVANCED_FACE('',(#176),#105,.F.);
#143=ADVANCED_FACE('',(#177),#106,.T.);
#144=ADVANCED_FACE('',(#178),#107,.T.);
#145=ADVANCED_FACE('',(#179),#108,.F.);
#146=ADVANCED_FACE('',(#180),#165,.T.);
#147=ADVANCED_FACE('',(#181),#166,.T.);
#148=ADVANCED_FACE('',(#182),#167,.T.);
#149=ADVANCED_FACE('',(#183),#168,.T.);
#150=ADVANCED_FACE('',(#184),#169,.T.);
#151=ADVANCED_FACE('',(#185),#170,.T.);
#152=ADVANCED_FACE('',(#186),#171,.T.);
#153=ADVANCED_FACE('',(#187),#103,.F.);
#154=ADVANCED_FACE('',(#188),#104,.F.);
#155=ADVANCED_FACE('',(#189),#172,.T.);
#156=ADVANCED_FACE('',(#123,#124),#109,.F.);
#157=ADVANCED_FACE('',(#125,#126),#110,.F.);
#158=PLANE('',#495);
#159=PLANE('',#497);
#160=PLANE('',#499);
#161=PLANE('',#501);
#162=PLANE('',#503);
#163=PLANE('',#504);
#164=PLANE('',#505);
#165=PLANE('',#518);
#166=PLANE('',#519);
#167=PLANE('',#520);
#168=PLANE('',#521);
#169=PLANE('',#522);
#170=PLANE('',#523);
#171=PLANE('',#524);
#172=PLANE('',#525);
#173=FACE_OUTER_BOUND('',#190,.T.);
#174=FACE_OUTER_BOUND('',#199,.T.);
#175=FACE_OUTER_BOUND('',#200,.T.);
#176=FACE_OUTER_BOUND('',#201,.T.);
#177=FACE_OUTER_BOUND('',#202,.T.);
#178=FACE_OUTER_BOUND('',#203,.T.);
#179=FACE_OUTER_BOUND('',#204,.T.);
#180=FACE_OUTER_BOUND('',#205,.T.);
#181=FACE_OUTER_BOUND('',#206,.T.);
#182=FACE_OUTER_BOUND('',#207,.T.);
#183=FACE_OUTER_BOUND('',#208,.T.);
#184=FACE_OUTER_BOUND('',#209,.T.);
#185=FACE_OUTER_BOUND('',#210,.T.);
#186=FACE_OUTER_BOUND('',#211,.T.);
#187=FACE_OUTER_BOUND('',#212,.T.);
#188=FACE_OUTER_BOUND('',#213,.T.);
#189=FACE_OUTER_BOUND('',#214,.T.);
#190=EDGE_LOOP('',(#219,#220,#221,#222));
#191=EDGE_LOOP('',(#223));
#192=EDGE_LOOP('',(#224,#225,#226,#227,#228));
#193=EDGE_LOOP('',(#229));
#194=EDGE_LOOP('',(#230,#231,#232,#233,#234));
#195=EDGE_LOOP('',(#235));
#196=EDGE_LOOP('',(#236,#237,#238,#239,#240));
#197=EDGE_LOOP('',(#241));
#198=EDGE_LOOP('',(#242,#243,#244,#245,#246));
#199=EDGE_LOOP('',(#247,#248,#249,#250,#251));
#200=EDGE_LOOP('',(#252,#253,#254,#255,#256));
#201=EDGE_LOOP('',(#257,#258,#259,#260));
#202=EDGE_LOOP('',(#261,#262,#263,#264));
#203=EDGE_LOOP('',(#265,#266,#267,#268));
#204=EDGE_LOOP('',(#269,#270,#271,#272));
#205=EDGE_LOOP('',(#273,#274,#275,#276,#277,#278,#279,#280,#281,#282,#283,
#284));
#206=EDGE_LOOP('',(#285,#286,#287,#288));
#207=EDGE_LOOP('',(#289,#290,#291,#292));
#208=EDGE_LOOP('',(#293,#294,#295,#296));
#209=EDGE_LOOP('',(#297,#298,#299,#300));
#210=EDGE_LOOP('',(#301,#302,#303,#304));
#211=EDGE_LOOP('',(#305,#306,#307,#308));
#212=EDGE_LOOP('',(#309,#310,#311,#312));
#213=EDGE_LOOP('',(#313,#314,#315,#316));
#214=EDGE_LOOP('',(#317,#318,#319,#320));
#215=EDGE_LOOP('',(#321));
#216=EDGE_LOOP('',(#322));
#217=EDGE_LOOP('',(#323));
#218=EDGE_LOOP('',(#324));
#219=ORIENTED_EDGE('',*,*,#359,.F.);
#220=ORIENTED_EDGE('',*,*,#360,.T.);
#221=ORIENTED_EDGE('',*,*,#361,.T.);
#222=ORIENTED_EDGE('',*,*,#362,.T.);
#223=ORIENTED_EDGE('',*,*,#363,.F.);
#224=ORIENTED_EDGE('',*,*,#364,.F.);
#225=ORIENTED_EDGE('',*,*,#365,.F.);
#226=ORIENTED_EDGE('',*,*,#366,.F.);
#227=ORIENTED_EDGE('',*,*,#367,.F.);
#228=ORIENTED_EDGE('',*,*,#368,.F.);
#229=ORIENTED_EDGE('',*,*,#369,.T.);
#230=ORIENTED_EDGE('',*,*,#370,.T.);
#231=ORIENTED_EDGE('',*,*,#371,.T.);
#232=ORIENTED_EDGE('',*,*,#372,.F.);
#233=ORIENTED_EDGE('',*,*,#373,.T.);
#234=ORIENTED_EDGE('',*,*,#374,.T.);
#235=ORIENTED_EDGE('',*,*,#375,.F.);
#236=ORIENTED_EDGE('',*,*,#376,.F.);
#237=ORIENTED_EDGE('',*,*,#377,.F.);
#238=ORIENTED_EDGE('',*,*,#378,.F.);
#239=ORIENTED_EDGE('',*,*,#379,.F.);
#240=ORIENTED_EDGE('',*,*,#361,.F.);
#241=ORIENTED_EDGE('',*,*,#380,.T.);
#242=ORIENTED_EDGE('',*,*,#381,.T.);
#243=ORIENTED_EDGE('',*,*,#382,.T.);
#244=ORIENTED_EDGE('',*,*,#359,.T.);
#245=ORIENTED_EDGE('',*,*,#383,.T.);
#246=ORIENTED_EDGE('',*,*,#384,.T.);
#247=ORIENTED_EDGE('',*,*,#385,.T.);
#248=ORIENTED_EDGE('',*,*,#386,.T.);
#249=ORIENTED_EDGE('',*,*,#387,.T.);
#250=ORIENTED_EDGE('',*,*,#388,.T.);
#251=ORIENTED_EDGE('',*,*,#389,.F.);
#252=ORIENTED_EDGE('',*,*,#390,.F.);
#253=ORIENTED_EDGE('',*,*,#391,.F.);
#254=ORIENTED_EDGE('',*,*,#392,.F.);
#255=ORIENTED_EDGE('',*,*,#393,.F.);
#256=ORIENTED_EDGE('',*,*,#394,.F.);
#257=ORIENTED_EDGE('',*,*,#395,.F.);
#258=ORIENTED_EDGE('',*,*,#394,.T.);
#259=ORIENTED_EDGE('',*,*,#396,.F.);
#260=ORIENTED_EDGE('',*,*,#377,.T.);
#261=ORIENTED_EDGE('',*,*,#387,.F.);
#262=ORIENTED_EDGE('',*,*,#397,.T.);
#263=ORIENTED_EDGE('',*,*,#381,.F.);
#264=ORIENTED_EDGE('',*,*,#398,.T.);
#265=ORIENTED_EDGE('',*,*,#372,.T.);
#266=ORIENTED_EDGE('',*,*,#399,.T.);
#267=ORIENTED_EDGE('',*,*,#389,.T.);
#268=ORIENTED_EDGE('',*,*,#400,.T.);
#269=ORIENTED_EDGE('',*,*,#401,.F.);
#270=ORIENTED_EDGE('',*,*,#368,.T.);
#271=ORIENTED_EDGE('',*,*,#402,.F.);
#272=ORIENTED_EDGE('',*,*,#392,.T.);
#273=ORIENTED_EDGE('',*,*,#373,.F.);
#274=ORIENTED_EDGE('',*,*,#400,.F.);
#275=ORIENTED_EDGE('',*,*,#388,.F.);
#276=ORIENTED_EDGE('',*,*,#398,.F.);
#277=ORIENTED_EDGE('',*,*,#384,.F.);
#278=ORIENTED_EDGE('',*,*,#403,.F.);
#279=ORIENTED_EDGE('',*,*,#378,.T.);
#280=ORIENTED_EDGE('',*,*,#396,.T.);
#281=ORIENTED_EDGE('',*,*,#393,.T.);
#282=ORIENTED_EDGE('',*,*,#402,.T.);
#283=ORIENTED_EDGE('',*,*,#367,.T.);
#284=ORIENTED_EDGE('',*,*,#404,.T.);
#285=ORIENTED_EDGE('',*,*,#374,.F.);
#286=ORIENTED_EDGE('',*,*,#404,.F.);
#287=ORIENTED_EDGE('',*,*,#366,.T.);
#288=ORIENTED_EDGE('',*,*,#405,.T.);
#289=ORIENTED_EDGE('',*,*,#406,.F.);
#290=ORIENTED_EDGE('',*,*,#370,.F.);
#291=ORIENTED_EDGE('',*,*,#405,.F.);
#292=ORIENTED_EDGE('',*,*,#365,.T.);
#293=ORIENTED_EDGE('',*,*,#383,.F.);
#294=ORIENTED_EDGE('',*,*,#362,.F.);
#295=ORIENTED_EDGE('',*,*,#379,.T.);
#296=ORIENTED_EDGE('',*,*,#403,.T.);
#297=ORIENTED_EDGE('',*,*,#407,.T.);
#298=ORIENTED_EDGE('',*,*,#386,.F.);
#299=ORIENTED_EDGE('',*,*,#408,.F.);
#300=ORIENTED_EDGE('',*,*,#390,.T.);
#301=ORIENTED_EDGE('',*,*,#408,.T.);
#302=ORIENTED_EDGE('',*,*,#385,.F.);
#303=ORIENTED_EDGE('',*,*,#409,.F.);
#304=ORIENTED_EDGE('',*,*,#391,.T.);
#305=ORIENTED_EDGE('',*,*,#406,.T.);
#306=ORIENTED_EDGE('',*,*,#364,.T.);
#307=ORIENTED_EDGE('',*,*,#410,.F.);
#308=ORIENTED_EDGE('',*,*,#371,.F.);
#309=ORIENTED_EDGE('',*,*,#410,.T.);
#310=ORIENTED_EDGE('',*,*,#401,.T.);
#311=ORIENTED_EDGE('',*,*,#409,.T.);
#312=ORIENTED_EDGE('',*,*,#399,.F.);
#313=ORIENTED_EDGE('',*,*,#407,.F.);
#314=ORIENTED_EDGE('',*,*,#395,.T.);
#315=ORIENTED_EDGE('',*,*,#411,.F.);
#316=ORIENTED_EDGE('',*,*,#397,.F.);
#317=ORIENTED_EDGE('',*,*,#411,.T.);
#318=ORIENTED_EDGE('',*,*,#376,.T.);
#319=ORIENTED_EDGE('',*,*,#360,.F.);
#320=ORIENTED_EDGE('',*,*,#382,.F.);
#321=ORIENTED_EDGE('',*,*,#380,.F.);
#322=ORIENTED_EDGE('',*,*,#375,.T.);
#323=ORIENTED_EDGE('',*,*,#369,.F.);
#324=ORIENTED_EDGE('',*,*,#363,.T.);
#325=VERTEX_POINT('',#639);
#326=VERTEX_POINT('',#640);
#327=VERTEX_POINT('',#642);
#328=VERTEX_POINT('',#644);
#329=VERTEX_POINT('',#648);
#330=VERTEX_POINT('',#650);
#331=VERTEX_POINT('',#651);
#332=VERTEX_POINT('',#653);
#333=VERTEX_POINT('',#655);
#334=VERTEX_POINT('',#657);
#335=VERTEX_POINT('',#661);
#336=VERTEX_POINT('',#663);
#337=VERTEX_POINT('',#664);
#338=VERTEX_POINT('',#666);
#339=VERTEX_POINT('',#668);
#340=VERTEX_POINT('',#670);
#341=VERTEX_POINT('',#674);
#342=VERTEX_POINT('',#676);
#343=VERTEX_POINT('',#678);
#344=VERTEX_POINT('',#680);
#345=VERTEX_POINT('',#684);
#346=VERTEX_POINT('',#686);
#347=VERTEX_POINT('',#687);
#348=VERTEX_POINT('',#690);
#349=VERTEX_POINT('',#694);
#350=VERTEX_POINT('',#695);
#351=VERTEX_POINT('',#697);
#352=VERTEX_POINT('',#699);
#353=VERTEX_POINT('',#701);
#354=VERTEX_POINT('',#705);
#355=VERTEX_POINT('',#706);
#356=VERTEX_POINT('',#708);
#357=VERTEX_POINT('',#710);
#358=VERTEX_POINT('',#712);
#359=EDGE_CURVE('',#325,#326,#412,.T.);
#360=EDGE_CURVE('',#325,#327,#413,.T.);
#361=EDGE_CURVE('',#327,#328,#414,.T.);
#362=EDGE_CURVE('',#328,#326,#415,.T.);
#363=EDGE_CURVE('',#329,#329,#127,.T.);
#364=EDGE_CURVE('',#330,#331,#416,.T.);
#365=EDGE_CURVE('',#332,#330,#417,.T.);
#366=EDGE_CURVE('',#333,#332,#418,.T.);
#367=EDGE_CURVE('',#334,#333,#419,.T.);
#368=EDGE_CURVE('',#331,#334,#420,.T.);
#369=EDGE_CURVE('',#335,#335,#128,.T.);
#370=EDGE_CURVE('',#336,#337,#421,.T.);
#371=EDGE_CURVE('',#337,#338,#422,.T.);
#372=EDGE_CURVE('',#339,#338,#423,.T.);
#373=EDGE_CURVE('',#339,#340,#424,.T.);
#374=EDGE_CURVE('',#340,#336,#425,.T.);
#375=EDGE_CURVE('',#341,#341,#129,.T.);
#376=EDGE_CURVE('',#342,#327,#426,.T.);
#377=EDGE_CURVE('',#343,#342,#427,.T.);
#378=EDGE_CURVE('',#344,#343,#428,.T.);
#379=EDGE_CURVE('',#328,#344,#429,.T.);
#380=EDGE_CURVE('',#345,#345,#130,.T.);
#381=EDGE_CURVE('',#346,#347,#430,.T.);
#382=EDGE_CURVE('',#347,#325,#431,.T.);
#383=EDGE_CURVE('',#326,#348,#432,.T.);
#384=EDGE_CURVE('',#348,#346,#433,.T.);
#385=EDGE_CURVE('',#349,#350,#434,.T.);
#386=EDGE_CURVE('',#350,#351,#435,.T.);
#387=EDGE_CURVE('',#351,#352,#436,.T.);
#388=EDGE_CURVE('',#352,#353,#437,.T.);
#389=EDGE_CURVE('',#349,#353,#438,.T.);
#390=EDGE_CURVE('',#354,#355,#439,.T.);
#391=EDGE_CURVE('',#356,#354,#440,.T.);
#392=EDGE_CURVE('',#357,#356,#441,.T.);
#393=EDGE_CURVE('',#358,#357,#442,.T.);
#394=EDGE_CURVE('',#355,#358,#443,.T.);
#395=EDGE_CURVE('',#355,#342,#111,.T.);
#396=EDGE_CURVE('',#343,#358,#131,.T.);
#397=EDGE_CURVE('',#351,#347,#112,.T.);
#398=EDGE_CURVE('',#346,#352,#132,.T.);
#399=EDGE_CURVE('',#338,#349,#113,.T.);
#400=EDGE_CURVE('',#353,#339,#133,.T.);
#401=EDGE_CURVE('',#331,#356,#114,.T.);
#402=EDGE_CURVE('',#357,#334,#134,.T.);
#403=EDGE_CURVE('',#344,#348,#444,.T.);
#404=EDGE_CURVE('',#333,#340,#445,.T.);
#405=EDGE_CURVE('',#332,#336,#446,.T.);
#406=EDGE_CURVE('',#337,#330,#447,.T.);
#407=EDGE_CURVE('',#355,#351,#448,.T.);
#408=EDGE_CURVE('',#354,#350,#449,.T.);
#409=EDGE_CURVE('',#356,#349,#450,.T.);
#410=EDGE_CURVE('',#338,#331,#451,.T.);
#411=EDGE_CURVE('',#347,#342,#452,.T.);
#412=LINE('',#638,#453);
#413=LINE('',#641,#454);
#414=LINE('',#643,#455);
#415=LINE('',#645,#456);
#416=LINE('',#649,#457);
#417=LINE('',#652,#458);
#418=LINE('',#654,#459);
#419=LINE('',#656,#460);
#420=LINE('',#658,#461);
#421=LINE('',#662,#462);
#422=LINE('',#665,#463);
#423=LINE('',#667,#464);
#424=LINE('',#669,#465);
#425=LINE('',#671,#466);
#426=LINE('',#675,#467);
#427=LINE('',#677,#468);
#428=LINE('',#679,#469);
#429=LINE('',#681,#470);
#430=LINE('',#685,#471);
#431=LINE('',#688,#472);
#432=LINE('',#689,#473);
#433=LINE('',#691,#474);
#434=LINE('',#693,#475);
#435=LINE('',#696,#476);
#436=LINE('',#698,#477);
#437=LINE('',#700,#478);
#438=LINE('',#702,#479);
#439=LINE('',#704,#480);
#440=LINE('',#707,#481);
#441=LINE('',#709,#482);
#442=LINE('',#711,#483);
#443=LINE('',#713,#484);
#444=LINE('',#727,#485);
#445=LINE('',#728,#486);
#446=LINE('',#730,#487);
#447=LINE('',#732,#488);
#448=LINE('',#735,#489);
#449=LINE('',#736,#490);
#450=LINE('',#738,#491);
#451=LINE('',#740,#492);
#452=LINE('',#770,#493);
#453=VECTOR('',#530,1.);
#454=VECTOR('',#531,1.);
#455=VECTOR('',#532,1.);
#456=VECTOR('',#533,1.);
#457=VECTOR('',#538,1.);
#458=VECTOR('',#539,1.);
#459=VECTOR('',#540,1.);
#460=VECTOR('',#541,1.);
#461=VECTOR('',#542,1.);
#462=VECTOR('',#547,1.);
#463=VECTOR('',#548,1.);
#464=VECTOR('',#549,1.);
#465=VECTOR('',#550,1.);
#466=VECTOR('',#551,1.);
#467=VECTOR('',#556,1.);
#468=VECTOR('',#557,1.);
#469=VECTOR('',#558,1.);
#470=VECTOR('',#559,1.);
#471=VECTOR('',#564,1.);
#472=VECTOR('',#565,1.);
#473=VECTOR('',#566,1.);
#474=VECTOR('',#567,1.);
#475=VECTOR('',#570,1.);
#476=VECTOR('',#571,1.);
#477=VECTOR('',#572,1.);
#478=VECTOR('',#573,1.);
#479=VECTOR('',#574,1.);
#480=VECTOR('',#577,1.);
#481=VECTOR('',#578,1.);
#482=VECTOR('',#579,1.);
#483=VECTOR('',#580,1.);
#484=VECTOR('',#581,1.);
#485=VECTOR('',#608,1.);
#486=VECTOR('',#609,1.);
#487=VECTOR('',#612,1.);
#488=VECTOR('',#615,1.);
#489=VECTOR('',#620,1.);
#490=VECTOR('',#621,1.);
#491=VECTOR('',#624,1.);
#492=VECTOR('',#627,1.);
#493=VECTOR('',#630,1.);
#494=AXIS2_PLACEMENT_3D('',#637,#528,#529);
#495=AXIS2_PLACEMENT_3D('',#646,#534,#535);
#496=AXIS2_PLACEMENT_3D('',#647,#536,#537);
#497=AXIS2_PLACEMENT_3D('',#659,#543,#544);
#498=AXIS2_PLACEMENT_3D('',#660,#545,#546);
#499=AXIS2_PLACEMENT_3D('',#672,#552,#553);
#500=AXIS2_PLACEMENT_3D('',#673,#554,#555);
#501=AXIS2_PLACEMENT_3D('',#682,#560,#561);
#502=AXIS2_PLACEMENT_3D('',#683,#562,#563);
#503=AXIS2_PLACEMENT_3D('',#692,#568,#569);
#504=AXIS2_PLACEMENT_3D('',#703,#575,#576);
#505=AXIS2_PLACEMENT_3D('',#714,#582,#583);
#506=AXIS2_PLACEMENT_3D('',#715,#584,#585);
#507=AXIS2_PLACEMENT_3D('',#716,#586,#587);
#508=AXIS2_PLACEMENT_3D('',#717,#588,#589);
#509=AXIS2_PLACEMENT_3D('',#718,#590,#591);
#510=AXIS2_PLACEMENT_3D('',#719,#592,#593);
#511=AXIS2_PLACEMENT_3D('',#720,#594,#595);
#512=AXIS2_PLACEMENT_3D('',#721,#596,#597);
#513=AXIS2_PLACEMENT_3D('',#722,#598,#599);
#514=AXIS2_PLACEMENT_3D('',#723,#600,#601);
#515=AXIS2_PLACEMENT_3D('',#724,#602,#603);
#516=AXIS2_PLACEMENT_3D('',#725,#604,#605);
#517=AXIS2_PLACEMENT_3D('',#726,#606,#607);
#518=AXIS2_PLACEMENT_3D('',#729,#610,#611);
#519=AXIS2_PLACEMENT_3D('',#731,#613,#614);
#520=AXIS2_PLACEMENT_3D('',#733,#616,#617);
#521=AXIS2_PLACEMENT_3D('',#734,#618,#619);
#522=AXIS2_PLACEMENT_3D('',#737,#622,#623);
#523=AXIS2_PLACEMENT_3D('',#739,#625,#626);
#524=AXIS2_PLACEMENT_3D('',#741,#628,#629);
#525=AXIS2_PLACEMENT_3D('',#799,#631,#632);
#526=AXIS2_PLACEMENT_3D('',#800,#633,#634);
#527=AXIS2_PLACEMENT_3D('',#801,#635,#636);
#528=DIRECTION('',(0.,0.,1.));
#529=DIRECTION('',(1.,0.,0.));
#530=DIRECTION('',(5.6392280615881E-17,-6.60610396485168E-32,1.));
#531=DIRECTION('',(1.17145536458252E-15,1.,0.));
#532=DIRECTION('',(5.6392280615881E-17,-6.60610396485168E-32,1.));
#533=DIRECTION('',(-1.17145536458252E-15,-1.,0.));
#534=DIRECTION('',(1.,-1.17145536458252E-15,-5.6392280615881E-17));
#535=DIRECTION('',(5.55111512312578E-17,0.,1.));
#536=DIRECTION('',(1.17145536458252E-15,-1.,0.));
#537=DIRECTION('',(-1.,0.,0.));
#538=DIRECTION('',(-1.,-1.17145536458252E-15,1.17145536458252E-15));
#539=DIRECTION('',(2.20282346155785E-16,2.58050936127019E-31,-1.));
#540=DIRECTION('',(0.707106781186547,8.28344032153662E-16,-0.707106781186547));
#541=DIRECTION('',(1.,1.17145536458252E-15,0.));
#542=DIRECTION('',(-9.91270557701033E-17,-1.16122921257159E-31,1.));
#543=DIRECTION('',(-1.17145536458252E-15,1.,0.));
#544=DIRECTION('',(0.,0.,1.));
#545=DIRECTION('',(1.17145536458252E-15,-1.,0.));
#546=DIRECTION('',(-1.,0.,0.));
#547=DIRECTION('',(2.20282346155785E-16,2.58050936127019E-31,-1.));
#548=DIRECTION('',(-1.,-1.17145536458252E-15,0.));
#549=DIRECTION('',(9.91270557701033E-17,1.16122921257159E-31,-1.));
#550=DIRECTION('',(1.,1.17145536458252E-15,0.));
#551=DIRECTION('',(0.707106781186547,8.28344032153662E-16,-0.707106781186547));
#552=DIRECTION('',(-1.17145536458252E-15,1.,0.));
#553=DIRECTION('',(0.,0.,1.));
#554=DIRECTION('',(1.17145536458252E-15,1.,0.));
#555=DIRECTION('',(1.,0.,0.));
#556=DIRECTION('',(1.,-1.17145536458252E-15,-1.17145536458252E-15));
#557=DIRECTION('',(1.48690583655155E-16,-1.74184381885738E-31,-1.));
#558=DIRECTION('',(-1.,1.17145536458252E-15,0.));
#559=DIRECTION('',(-0.707106781186547,8.28344032153662E-16,0.707106781186548));
#560=DIRECTION('',(-1.17145536458252E-15,-1.,0.));
#561=DIRECTION('',(0.,0.,1.));
#562=DIRECTION('',(1.17145536458252E-15,1.,0.));
#563=DIRECTION('',(1.,0.,0.));
#564=DIRECTION('',(1.48690583655155E-16,-1.74184381885738E-31,-1.));
#565=DIRECTION('',(1.,-1.17145536458252E-15,0.));
#566=DIRECTION('',(-0.707106781186547,8.28344032153662E-16,0.707106781186548));
#567=DIRECTION('',(-1.,1.17145536458252E-15,0.));
#568=DIRECTION('',(-1.17145536458252E-15,-1.,0.));
#569=DIRECTION('',(0.,0.,1.));
#570=DIRECTION('',(0.,-0.707106781186547,0.707106781186548));
#571=DIRECTION('',(0.,-0.707106781186547,-0.707106781186548));
#572=DIRECTION('',(0.,1.48690583655155E-16,1.));
#573=DIRECTION('',(0.,1.,0.));
#574=DIRECTION('',(0.,-9.91270557701033E-17,1.));
#575=DIRECTION('',(-1.,0.,0.));
#576=DIRECTION('',(0.,0.,1.));
#577=DIRECTION('',(0.,-0.707106781186547,-0.707106781186548));
#578=DIRECTION('',(0.,-0.707106781186547,0.707106781186548));
#579=DIRECTION('',(0.,9.91270557701033E-17,-1.));
#580=DIRECTION('',(0.,1.,0.));
#581=DIRECTION('',(0.,1.48690583655155E-16,1.));
#582=DIRECTION('',(-1.,0.,0.));
#583=DIRECTION('',(0.,0.,1.));
#584=DIRECTION('',(0.,-0.707106781186548,0.707106781186547));
#585=DIRECTION('',(0.,0.707106781186547,0.707106781186548));
#586=DIRECTION('',(0.,0.,-1.));
#587=DIRECTION('',(0.,1.,0.));
#588=DIRECTION('',(0.,0.,1.));
#589=DIRECTION('',(1.,0.,0.));
#590=DIRECTION('',(0.,-0.447213595499959,0.894427190999916));
#591=DIRECTION('',(0.,0.894427190999916,0.447213595499958));
#592=DIRECTION('',(0.,0.,-1.));
#593=DIRECTION('',(1.,0.,0.));
#594=DIRECTION('',(0.,0.,1.));
#595=DIRECTION('',(1.,0.,0.));
#596=DIRECTION('',(0.,0.447213595499958,0.894427190999915));
#597=DIRECTION('',(0.,0.894427190999916,-0.447213595499958));
#598=DIRECTION('',(0.,0.,-1.));
#599=DIRECTION('',(1.,0.,0.));
#600=DIRECTION('',(0.,0.,-1.));
#601=DIRECTION('',(1.,0.,0.));
#602=DIRECTION('',(0.,0.707106781186548,0.707106781186547));
#603=DIRECTION('',(0.,0.707106781186547,-0.707106781186548));
#604=DIRECTION('',(0.,0.,-1.));
#605=DIRECTION('',(0.,-1.,0.));
#606=DIRECTION('',(0.,0.,-1.));
#607=DIRECTION('',(1.,0.,0.));
#608=DIRECTION('',(-1.17145536458252E-15,-1.,0.));
#609=DIRECTION('',(-1.17145536458252E-15,1.,0.));
#610=DIRECTION('',(0.,0.,1.));
#611=DIRECTION('',(1.,1.16573417585641E-15,0.));
#612=DIRECTION('',(-1.17145536458252E-15,1.,0.));
#613=DIRECTION('',(0.707106781186547,8.28344032153662E-16,0.707106781186547));
#614=DIRECTION('',(0.707106781186547,8.32667268468867E-16,-0.707106781186548));
#615=DIRECTION('',(1.17145536458252E-15,-1.,0.));
#616=DIRECTION('',(1.,1.17145536458252E-15,2.20282346155785E-16));
#617=DIRECTION('',(2.22044604925031E-16,0.,-1.));
#618=DIRECTION('',(0.707106781186548,-8.28344032153662E-16,0.707106781186547));
#619=DIRECTION('',(-0.707106781186547,8.32667268468867E-16,0.707106781186548));
#620=DIRECTION('',(-1.,0.,0.));
#621=DIRECTION('',(-1.,0.,0.));
#622=DIRECTION('',(0.,0.707106781186548,-0.707106781186547));
#623=DIRECTION('',(0.,-0.707106781186547,-0.707106781186548));
#624=DIRECTION('',(-1.,0.,0.));
#625=DIRECTION('',(0.,-0.707106781186548,-0.707106781186547));
#626=DIRECTION('',(0.,-0.707106781186547,0.707106781186548));
#627=DIRECTION('',(3.90312782094781E-15,-1.,0.));
#628=DIRECTION('',(-1.17145536458252E-15,-1.37230767120917E-30,-1.));
#629=DIRECTION('',(-1.,-1.16573417585641E-15,1.17267306976032E-15));
#630=DIRECTION('',(1.17145536458252E-15,1.,0.));
#631=DIRECTION('',(-1.17145536458252E-15,1.37230767120917E-30,-1.));
#632=DIRECTION('',(1.,-1.16573417585641E-15,-1.17267306976032E-15));
#633=DIRECTION('',(-1.17145536458252E-15,-1.,0.));
#634=DIRECTION('',(1.,0.,0.));
#635=DIRECTION('',(-1.17145536458252E-15,1.,0.));
#636=DIRECTION('',(-1.,0.,0.));
#637=CARTESIAN_POINT('',(0.,0.,0.));
#638=CARTESIAN_POINT('',(-149.178318229274,322.5,-61.2132034355963));
#639=CARTESIAN_POINT('',(-149.178318229274,322.5,-21.715728752538));
#640=CARTESIAN_POINT('',(-149.178318229274,322.5,1.78679656440371));
#641=CARTESIAN_POINT('',(-149.178318229274,324.5,-21.715728752538));
#642=CARTESIAN_POINT('',(-149.178318229274,324.5,-21.715728752538));
#643=CARTESIAN_POINT('',(-149.178318229274,324.5,-61.2132034355963));
#644=CARTESIAN_POINT('',(-149.178318229274,324.5,1.78679656440371));
#645=CARTESIAN_POINT('',(-149.178318229274,324.5,1.78679656440371));
#646=CARTESIAN_POINT('',(-149.178318229274,324.5,-61.2132034355963));
#647=CARTESIAN_POINT('',(-161.178318229274,344.5,-6.2132034355963));
#648=CARTESIAN_POINT('',(-166.178318229274,344.5,-6.2132034355963));
#649=CARTESIAN_POINT('',(-229.178318229274,344.5,-21.7157287525379));
#650=CARTESIAN_POINT('',(-149.178318229274,344.5,-21.715728752538));
#651=CARTESIAN_POINT('',(-177.,344.5,-21.715728752538));
#652=CARTESIAN_POINT('',(-149.178318229274,344.5,1.78679656440371));
#653=CARTESIAN_POINT('',(-149.178318229274,344.5,1.78679656440371));
#654=CARTESIAN_POINT('',(-156.178318229274,344.5,8.78679656440372));
#655=CARTESIAN_POINT('',(-156.178318229274,344.5,8.78679656440372));
#656=CARTESIAN_POINT('',(-222.178318229274,344.5,8.78679656440372));
#657=CARTESIAN_POINT('',(-177.,344.5,8.78679656440372));
#658=CARTESIAN_POINT('',(-177.,344.5,8.78679656440372));
#659=CARTESIAN_POINT('',(-229.178318229274,344.5,-61.2132034355963));
#660=CARTESIAN_POINT('',(-161.178318229274,346.5,-6.2132034355963));
#661=CARTESIAN_POINT('',(-166.178318229274,346.5,-6.2132034355963));
#662=CARTESIAN_POINT('',(-149.178318229274,346.5,1.78679656440371));
#663=CARTESIAN_POINT('',(-149.178318229274,346.5,1.78679656440371));
#664=CARTESIAN_POINT('',(-149.178318229274,346.5,-21.715728752538));
#665=CARTESIAN_POINT('',(-229.178318229274,346.5,-21.715728752538));
#666=CARTESIAN_POINT('',(-177.,346.5,-21.715728752538));
#667=CARTESIAN_POINT('',(-177.,346.5,8.78679656440372));
#668=CARTESIAN_POINT('',(-177.,346.5,8.78679656440372));
#669=CARTESIAN_POINT('',(-222.178318229274,346.5,8.78679656440372));
#670=CARTESIAN_POINT('',(-156.178318229274,346.5,8.78679656440372));
#671=CARTESIAN_POINT('',(-156.178318229274,346.5,8.78679656440372));
#672=CARTESIAN_POINT('',(-229.178318229274,346.5,-61.2132034355963));
#673=CARTESIAN_POINT('',(-161.178318229274,324.5,-6.2132034355963));
#674=CARTESIAN_POINT('',(-156.178318229274,324.5,-6.2132034355963));
#675=CARTESIAN_POINT('',(-149.178318229274,324.5,-21.715728752538));
#676=CARTESIAN_POINT('',(-177.,324.5,-21.715728752538));
#677=CARTESIAN_POINT('',(-177.,324.5,8.78679656440372));
#678=CARTESIAN_POINT('',(-177.,324.5,8.78679656440372));
#679=CARTESIAN_POINT('',(-156.178318229274,324.5,8.78679656440372));
#680=CARTESIAN_POINT('',(-156.178318229274,324.5,8.78679656440372));
#681=CARTESIAN_POINT('',(-149.178318229274,324.5,1.78679656440371));
#682=CARTESIAN_POINT('',(-149.178318229274,324.5,-61.2132034355963));
#683=CARTESIAN_POINT('',(-161.178318229274,322.5,-6.2132034355963));
#684=CARTESIAN_POINT('',(-156.178318229274,322.5,-6.2132034355963));
#685=CARTESIAN_POINT('',(-177.,322.5,8.78679656440372));
#686=CARTESIAN_POINT('',(-177.,322.5,8.78679656440372));
#687=CARTESIAN_POINT('',(-177.,322.5,-21.715728752538));
#688=CARTESIAN_POINT('',(-149.178318229274,322.5,-21.715728752538));
#689=CARTESIAN_POINT('',(-149.178318229274,322.5,1.78679656440371));
#690=CARTESIAN_POINT('',(-156.178318229274,322.5,8.78679656440372));
#691=CARTESIAN_POINT('',(-156.178318229274,322.5,8.78679656440372));
#692=CARTESIAN_POINT('',(-149.178318229274,322.5,-61.2132034355963));
#693=CARTESIAN_POINT('',(-181.,339.248737341529,-16.4644660940671));
#694=CARTESIAN_POINT('',(-181.,342.5,-19.715728752538));
#695=CARTESIAN_POINT('',(-181.,334.5,-11.715728752538));
#696=CARTESIAN_POINT('',(-181.,289.751262658471,-56.4644660940671));
#697=CARTESIAN_POINT('',(-181.,326.5,-19.715728752538));
#698=CARTESIAN_POINT('',(-181.,326.5,8.78679656440372));
#699=CARTESIAN_POINT('',(-181.,326.5,8.78679656440372));
#700=CARTESIAN_POINT('',(-181.,301.5,8.78679656440372));
#701=CARTESIAN_POINT('',(-181.,342.5,8.78679656440372));
#702=CARTESIAN_POINT('',(-181.,342.5,8.78679656440372));
#703=CARTESIAN_POINT('',(-181.,294.5,-61.2132034355963));
#704=CARTESIAN_POINT('',(-179.,289.751262658471,-56.4644660940671));
#705=CARTESIAN_POINT('',(-179.,334.5,-11.715728752538));
#706=CARTESIAN_POINT('',(-179.,326.5,-19.715728752538));
#707=CARTESIAN_POINT('',(-179.,339.248737341529,-16.4644660940671));
#708=CARTESIAN_POINT('',(-179.,342.5,-19.715728752538));
#709=CARTESIAN_POINT('',(-179.,342.5,8.78679656440372));
#710=CARTESIAN_POINT('',(-179.,342.5,8.78679656440372));
#711=CARTESIAN_POINT('',(-179.,301.5,8.78679656440372));
#712=CARTESIAN_POINT('',(-179.,326.5,8.78679656440372));
#713=CARTESIAN_POINT('',(-179.,326.5,8.78679656440372));
#714=CARTESIAN_POINT('',(-179.,294.5,-61.2132034355963));
#715=CARTESIAN_POINT('',(-177.,326.5,-19.715728752538));
#716=CARTESIAN_POINT('',(-177.,326.5,8.78679656440372));
#717=CARTESIAN_POINT('',(-177.,326.5,-61.2132034355963));
#718=CARTESIAN_POINT('',(-177.,326.5,-19.715728752538));
#719=CARTESIAN_POINT('',(-177.,326.5,8.78679656440372));
#720=CARTESIAN_POINT('',(-177.,326.5,-61.2132034355963));
#721=CARTESIAN_POINT('',(-177.,342.5,-19.715728752538));
#722=CARTESIAN_POINT('',(-177.,342.5,8.78679656440372));
#723=CARTESIAN_POINT('',(-177.,342.5,8.78679656440372));
#724=CARTESIAN_POINT('',(-177.,342.5,-19.715728752538));
#725=CARTESIAN_POINT('',(-177.,342.5,8.78679656440372));
#726=CARTESIAN_POINT('',(-177.,342.5,8.78679656440372));
#727=CARTESIAN_POINT('',(-156.178318229274,324.5,8.78679656440372));
#728=CARTESIAN_POINT('',(-156.178318229274,344.5,8.78679656440372));
#729=CARTESIAN_POINT('',(-222.178318229274,344.5,8.78679656440372));
#730=CARTESIAN_POINT('',(-149.178318229274,344.5,1.78679656440371));
#731=CARTESIAN_POINT('',(-156.178318229274,344.5,8.78679656440372));
#732=CARTESIAN_POINT('',(-149.178318229274,344.5,-21.715728752538));
#733=CARTESIAN_POINT('',(-149.178318229274,344.5,1.78679656440371));
#734=CARTESIAN_POINT('',(-149.178318229274,324.5,1.78679656440371));
#735=CARTESIAN_POINT('',(-181.,326.5,-19.715728752538));
#736=CARTESIAN_POINT('',(-181.,334.5,-11.715728752538));
#737=CARTESIAN_POINT('',(-181.,289.751262658471,-56.4644660940671));
#738=CARTESIAN_POINT('',(-181.,342.5,-19.715728752538));
#739=CARTESIAN_POINT('',(-181.,339.248737341529,-16.4644660940671));
#740=CARTESIAN_POINT('',(-177.,344.5,-21.715728752538));
#741=CARTESIAN_POINT('',(-229.178318229274,344.5,-21.7157287525379));
#742=CARTESIAN_POINT('',(-177.,346.5,-21.715728752538));
#743=CARTESIAN_POINT('',(-177.,345.833333333333,-21.715728752538));
#744=CARTESIAN_POINT('',(-177.,345.166666666667,-21.715728752538));
#745=CARTESIAN_POINT('',(-177.,344.5,-21.715728752538));
#746=CARTESIAN_POINT('',(-185.,346.5,-21.715728752538));
#747=CARTESIAN_POINT('',(-183.666666666667,345.833333333333,-21.715728752538));
#748=CARTESIAN_POINT('',(-182.333333333333,345.166666666667,-21.715728752538));
#749=CARTESIAN_POINT('',(-181.,344.5,-21.715728752538));
#750=CARTESIAN_POINT('',(-185.,338.5,-17.715728752538));
#751=CARTESIAN_POINT('',(-183.666666666667,339.166666666667,-17.715728752538));
#752=CARTESIAN_POINT('',(-182.333333333333,339.833333333333,-17.715728752538));
#753=CARTESIAN_POINT('',(-181.,340.5,-17.715728752538));
#754=CARTESIAN_POINT('',(-177.,338.5,-17.715728752538));
#755=CARTESIAN_POINT('',(-177.,339.166666666667,-17.715728752538));
#756=CARTESIAN_POINT('',(-177.,339.833333333333,-17.715728752538));
#757=CARTESIAN_POINT('',(-177.,340.5,-17.715728752538));
#758=CARTESIAN_POINT('',(-169.,338.5,-17.715728752538));
#759=CARTESIAN_POINT('',(-170.333333333333,339.166666666667,-17.715728752538));
#760=CARTESIAN_POINT('',(-171.666666666667,339.833333333333,-17.715728752538));
#761=CARTESIAN_POINT('',(-173.,340.5,-17.715728752538));
#762=CARTESIAN_POINT('',(-169.,346.5,-21.715728752538));
#763=CARTESIAN_POINT('',(-170.333333333333,345.833333333333,-21.715728752538));
#764=CARTESIAN_POINT('',(-171.666666666667,345.166666666667,-21.715728752538));
#765=CARTESIAN_POINT('',(-173.,344.5,-21.715728752538));
#766=CARTESIAN_POINT('',(-177.,346.5,-21.715728752538));
#767=CARTESIAN_POINT('',(-177.,345.833333333333,-21.715728752538));
#768=CARTESIAN_POINT('',(-177.,345.166666666667,-21.715728752538));
#769=CARTESIAN_POINT('',(-177.,344.5,-21.715728752538));
#770=CARTESIAN_POINT('',(-177.,324.5,-21.715728752538));
#771=CARTESIAN_POINT('',(-177.,330.5,-17.715728752538));
#772=CARTESIAN_POINT('',(-177.,329.833333333333,-17.715728752538));
#773=CARTESIAN_POINT('',(-177.,329.166666666667,-17.715728752538));
#774=CARTESIAN_POINT('',(-177.,328.5,-17.715728752538));
#775=CARTESIAN_POINT('',(-185.,330.5,-17.715728752538));
#776=CARTESIAN_POINT('',(-183.666666666667,329.833333333333,-17.715728752538));
#777=CARTESIAN_POINT('',(-182.333333333333,329.166666666667,-17.715728752538));
#778=CARTESIAN_POINT('',(-181.,328.5,-17.715728752538));
#779=CARTESIAN_POINT('',(-185.,322.5,-21.715728752538));
#780=CARTESIAN_POINT('',(-183.666666666667,323.166666666667,-21.715728752538));
#781=CARTESIAN_POINT('',(-182.333333333333,323.833333333333,-21.715728752538));
#782=CARTESIAN_POINT('',(-181.,324.5,-21.715728752538));
#783=CARTESIAN_POINT('',(-177.,322.5,-21.715728752538));
#784=CARTESIAN_POINT('',(-177.,323.166666666667,-21.715728752538));
#785=CARTESIAN_POINT('',(-177.,323.833333333333,-21.715728752538));
#786=CARTESIAN_POINT('',(-177.,324.5,-21.715728752538));
#787=CARTESIAN_POINT('',(-169.,322.5,-21.715728752538));
#788=CARTESIAN_POINT('',(-170.333333333333,323.166666666667,-21.715728752538));
#789=CARTESIAN_POINT('',(-171.666666666667,323.833333333333,-21.715728752538));
#790=CARTESIAN_POINT('',(-173.,324.5,-21.715728752538));
#791=CARTESIAN_POINT('',(-169.,330.5,-17.715728752538));
#792=CARTESIAN_POINT('',(-170.333333333333,329.833333333333,-17.715728752538));
#793=CARTESIAN_POINT('',(-171.666666666667,329.166666666667,-17.715728752538));
#794=CARTESIAN_POINT('',(-173.,328.5,-17.715728752538));
#795=CARTESIAN_POINT('',(-177.,330.5,-17.715728752538));
#796=CARTESIAN_POINT('',(-177.,329.833333333333,-17.715728752538));
#797=CARTESIAN_POINT('',(-177.,329.166666666667,-17.715728752538));
#798=CARTESIAN_POINT('',(-177.,328.5,-17.715728752538));
#799=CARTESIAN_POINT('',(-149.178318229274,324.5,-21.715728752538));
#800=CARTESIAN_POINT('',(-161.178318229274,322.5,-6.2132034355963));
#801=CARTESIAN_POINT('',(-161.178318229274,346.5,-6.2132034355963));
#802=(
GEOMETRIC_REPRESENTATION_CONTEXT(3)
GLOBAL_UNCERTAINTY_ASSIGNED_CONTEXT((#803))
GLOBAL_UNIT_ASSIGNED_CONTEXT((#809,#805,#804))
REPRESENTATION_CONTEXT('\X2\043A04400435043F043B0435043D04380435\X0\ \X2\0430
043C043E044004420430\X0\','TOP_LEVEL_ASSEMBLY_PART')
);
#803=UNCERTAINTY_MEASURE_WITH_UNIT(LENGTH_MEASURE(2.E-5),#809,
'DISTANCE_ACCURACY_VALUE','Maximum Tolerance applied to model');
#804=(
NAMED_UNIT(*)
SI_UNIT($,.STERADIAN.)
SOLID_ANGLE_UNIT()
);
#805=(
CONVERSION_BASED_UNIT('DEGREE',#807)
NAMED_UNIT(#806)
PLANE_ANGLE_UNIT()
);
#806=DIMENSIONAL_EXPONENTS(0.,0.,0.,0.,0.,0.,0.);
#807=PLANE_ANGLE_MEASURE_WITH_UNIT(PLANE_ANGLE_MEASURE(0.0174532925),#808);
#808=(
NAMED_UNIT(*)
PLANE_ANGLE_UNIT()
SI_UNIT($,.RADIAN.)
);
#809=(
LENGTH_UNIT()
NAMED_UNIT(*)
SI_UNIT(.MILLI.,.METRE.)
);
ENDSEC;
END-ISO-10303-21;
