ISO-10303-21;
HEADER;
/* Generated by software containing ST-Developer
 * from STEP Tools, Inc. (www.steptools.com) 
 */
/* OPTION: using custom schema-name function */

FILE_DESCRIPTION(
/* description */ (''),
/* implementation_level */ '2;1');

FILE_NAME(
/* name */ '\X2\041F043B0430044104420438043D0430\X0\_\X2\044104420430043B
044C043D0430044F\X0\.stp',
/* time_stamp */ '2026-07-05T20:18:37+05:00',
/* author */ (''),
/* organization */ (''),
/* preprocessor_version */ 'ST-DEVELOPER v16',
/* originating_system */ 'SIEMENS PLM Software NX 10.0',
/* authorisation */ '');

FILE_SCHEMA (('AP203_CONFIGURATION_CONTROLLED_3D_DESIGN_OF_MECHANICAL_PARTS_AND_ASSEMBLIES_MIM_LF { 1 0 10303 403 2 1 2}'));
ENDSEC;

DATA;
#10=PROPERTY_DEFINITION_REPRESENTATION(#14,#12);
#11=PROPERTY_DEFINITION_REPRESENTATION(#15,#13);
#12=REPRESENTATION('',(#16),#645);
#13=REPRESENTATION('',(#17),#645);
#14=PROPERTY_DEFINITION('pmi validation property','',#89);
#15=PROPERTY_DEFINITION('pmi validation property','',#89);
#16=VALUE_REPRESENTATION_ITEM('number of annotations',COUNT_MEASURE(0.));
#17=VALUE_REPRESENTATION_ITEM('number of views',COUNT_MEASURE(0.));
#18=SHAPE_REPRESENTATION_RELATIONSHIP('None',
'relationship between Hi4848C266pjm5-None and Hi4848C266pjm5-None',#100,
#19);
#19=ADVANCED_BREP_SHAPE_REPRESENTATION('Hi4848C266pjm5-None',(#101),#645);
#20=CC_DESIGN_APPROVAL(#32,(#90));
#21=CC_DESIGN_APPROVAL(#33,(#92));
#22=CC_DESIGN_APPROVAL(#34,(#39));
#23=APPROVAL_PERSON_ORGANIZATION(#77,#32,#26);
#24=APPROVAL_PERSON_ORGANIZATION(#78,#33,#27);
#25=APPROVAL_PERSON_ORGANIZATION(#79,#34,#28);
#26=APPROVAL_ROLE('approver');
#27=APPROVAL_ROLE('approver');
#28=APPROVAL_ROLE('approver');
#29=APPROVAL_DATE_TIME(#47,#32);
#30=APPROVAL_DATE_TIME(#48,#33);
#31=APPROVAL_DATE_TIME(#49,#34);
#32=APPROVAL(#35,' ');
#33=APPROVAL(#36,' ');
#34=APPROVAL(#37,' ');
#35=APPROVAL_STATUS('not_yet_approved');
#36=APPROVAL_STATUS('not_yet_approved');
#37=APPROVAL_STATUS('not_yet_approved');
#38=CC_DESIGN_SECURITY_CLASSIFICATION(#39,(#92));
#39=SECURITY_CLASSIFICATION(' ',' ',#40);
#40=SECURITY_CLASSIFICATION_LEVEL('confidential');
#41=CC_DESIGN_DATE_AND_TIME_ASSIGNMENT(#45,#43,(#90));
#42=CC_DESIGN_DATE_AND_TIME_ASSIGNMENT(#46,#44,(#39));
#43=DATE_TIME_ROLE('creation_date');
#44=DATE_TIME_ROLE('classification_date');
#45=DATE_AND_TIME(#60,#50);
#46=DATE_AND_TIME(#61,#51);
#47=DATE_AND_TIME(#62,#52);
#48=DATE_AND_TIME(#63,#53);
#49=DATE_AND_TIME(#64,#54);
#50=LOCAL_TIME(0,0,0.,#55);
#51=LOCAL_TIME(0,0,0.,#56);
#52=LOCAL_TIME(0,0,0.,#57);
#53=LOCAL_TIME(0,0,0.,#58);
#54=LOCAL_TIME(0,0,0.,#59);
#55=COORDINATED_UNIVERSAL_TIME_OFFSET(0,0,.BEHIND.);
#56=COORDINATED_UNIVERSAL_TIME_OFFSET(0,0,.BEHIND.);
#57=COORDINATED_UNIVERSAL_TIME_OFFSET(0,0,.BEHIND.);
#58=COORDINATED_UNIVERSAL_TIME_OFFSET(0,0,.BEHIND.);
#59=COORDINATED_UNIVERSAL_TIME_OFFSET(0,0,.BEHIND.);
#60=CALENDAR_DATE(0,1,1);
#61=CALENDAR_DATE(0,1,1);
#62=CALENDAR_DATE(0,1,1);
#63=CALENDAR_DATE(0,1,1);
#64=CALENDAR_DATE(0,1,1);
#65=CC_DESIGN_PERSON_AND_ORGANIZATION_ASSIGNMENT(#73,#69,(#90,#92));
#66=CC_DESIGN_PERSON_AND_ORGANIZATION_ASSIGNMENT(#74,#70,(#94));
#67=CC_DESIGN_PERSON_AND_ORGANIZATION_ASSIGNMENT(#75,#71,(#92));
#68=CC_DESIGN_PERSON_AND_ORGANIZATION_ASSIGNMENT(#76,#72,(#39));
#69=PERSON_AND_ORGANIZATION_ROLE('creator');
#70=PERSON_AND_ORGANIZATION_ROLE('design_owner');
#71=PERSON_AND_ORGANIZATION_ROLE('design_supplier');
#72=PERSON_AND_ORGANIZATION_ROLE('classification_officer');
#73=PERSON_AND_ORGANIZATION(#87,#80);
#74=PERSON_AND_ORGANIZATION(#87,#81);
#75=PERSON_AND_ORGANIZATION(#87,#82);
#76=PERSON_AND_ORGANIZATION(#87,#83);
#77=PERSON_AND_ORGANIZATION(#87,#84);
#78=PERSON_AND_ORGANIZATION(#87,#85);
#79=PERSON_AND_ORGANIZATION(#87,#86);
#80=ORGANIZATION(' ',' ',' ');
#81=ORGANIZATION(' ',' ',' ');
#82=ORGANIZATION(' ',' ',' ');
#83=ORGANIZATION(' ',' ',' ');
#84=ORGANIZATION(' ',' ',' ');
#85=ORGANIZATION(' ',' ',' ');
#86=ORGANIZATION(' ',' ',' ');
#87=PERSON(' ',' ',' ',(' '),$,$);
#88=SHAPE_DEFINITION_REPRESENTATION(#89,#100);
#89=PRODUCT_DEFINITION_SHAPE('','',#90);
#90=PRODUCT_DEFINITION(' ','',#92,#91);
#91=DESIGN_CONTEXT('',#99,'design');
#92=PRODUCT_DEFINITION_FORMATION_WITH_SPECIFIED_SOURCE(' ',' ',#94,
 .NOT_KNOWN.);
#93=PRODUCT_RELATED_PRODUCT_CATEGORY('detail','',(#94));
#94=PRODUCT('Hi4848C266pjm5','Hi4848C266pjm5',' ',(#97));
#95=PRODUCT_CATEGORY('part',' ');
#96=PRODUCT_CATEGORY(' ','');
#97=MECHANICAL_CONTEXT(' ',#99,'mechanical');
#98=APPLICATION_PROTOCOL_DEFINITION('international standard',
'config_control_design',2010,#99);
#99=APPLICATION_CONTEXT(
'configuration controlled 3D designs of mechanical parts and assemblie
s');
#100=SHAPE_REPRESENTATION('Hi4848C266pjm5-None',(#415),#645);
#101=MANIFOLD_SOLID_BREP('',#102);
#102=CLOSED_SHELL('',(#168,#169,#170,#171,#172,#173,#174,#175,#176,#177,
#178,#179,#180,#181,#182,#183,#184,#185,#186));
#103=CONICAL_SURFACE('',#453,2.,45.);
#104=CONICAL_SURFACE('',#454,2.,45.);
#105=CONICAL_SURFACE('',#455,2.,45.);
#106=CONICAL_SURFACE('',#456,2.,45.);
#107=FACE_BOUND('',#208,.T.);
#108=FACE_BOUND('',#209,.T.);
#109=FACE_BOUND('',#210,.T.);
#110=FACE_BOUND('',#211,.T.);
#111=FACE_BOUND('',#212,.T.);
#112=FACE_BOUND('',#213,.T.);
#113=FACE_BOUND('',#214,.T.);
#114=FACE_BOUND('',#215,.T.);
#115=FACE_BOUND('',#217,.T.);
#116=FACE_BOUND('',#218,.T.);
#117=FACE_BOUND('',#219,.T.);
#118=FACE_BOUND('',#220,.T.);
#119=FACE_BOUND('',#221,.T.);
#120=FACE_BOUND('',#222,.T.);
#121=FACE_BOUND('',#223,.T.);
#122=FACE_BOUND('',#224,.T.);
#123=FACE_BOUND('',#225,.T.);
#124=FACE_BOUND('',#226,.T.);
#125=FACE_BOUND('',#227,.T.);
#126=FACE_BOUND('',#228,.T.);
#127=FACE_BOUND('',#229,.T.);
#128=FACE_BOUND('',#230,.T.);
#129=FACE_BOUND('',#231,.T.);
#130=FACE_BOUND('',#232,.T.);
#131=FACE_BOUND('',#233,.T.);
#132=FACE_BOUND('',#234,.T.);
#133=FACE_BOUND('',#235,.T.);
#134=FACE_BOUND('',#236,.T.);
#135=FACE_BOUND('',#237,.T.);
#136=FACE_BOUND('',#238,.T.);
#137=CYLINDRICAL_SURFACE('',#419,5.99999999999998);
#138=CYLINDRICAL_SURFACE('',#423,6.);
#139=CYLINDRICAL_SURFACE('',#427,5.99999999999998);
#140=CYLINDRICAL_SURFACE('',#431,9.5);
#141=CYLINDRICAL_SURFACE('',#434,2.);
#142=CYLINDRICAL_SURFACE('',#437,2.);
#143=CYLINDRICAL_SURFACE('',#440,2.);
#144=CYLINDRICAL_SURFACE('',#443,6.);
#145=CYLINDRICAL_SURFACE('',#446,2.);
#146=CIRCLE('',#417,5.99999999999998);
#147=CIRCLE('',#418,5.99999999999998);
#148=CIRCLE('',#421,6.);
#149=CIRCLE('',#422,6.);
#150=CIRCLE('',#425,5.99999999999998);
#151=CIRCLE('',#426,5.99999999999998);
#152=CIRCLE('',#429,9.5);
#153=CIRCLE('',#430,9.5);
#154=CIRCLE('',#432,2.);
#155=CIRCLE('',#433,2.);
#156=CIRCLE('',#435,2.);
#157=CIRCLE('',#436,2.);
#158=CIRCLE('',#438,2.);
#159=CIRCLE('',#439,2.);
#160=CIRCLE('',#441,6.);
#161=CIRCLE('',#442,6.);
#162=CIRCLE('',#444,2.);
#163=CIRCLE('',#445,2.);
#164=CIRCLE('',#447,4.5);
#165=CIRCLE('',#448,4.5);
#166=CIRCLE('',#449,4.5);
#167=CIRCLE('',#450,4.5);
#168=ADVANCED_FACE('',(#193),#187,.F.);
#169=ADVANCED_FACE('',(#194),#137,.T.);
#170=ADVANCED_FACE('',(#195),#188,.F.);
#171=ADVANCED_FACE('',(#196),#138,.T.);
#172=ADVANCED_FACE('',(#197),#189,.F.);
#173=ADVANCED_FACE('',(#198),#139,.T.);
#174=ADVANCED_FACE('',(#199),#190,.F.);
#175=ADVANCED_FACE('',(#107,#108),#140,.F.);
#176=ADVANCED_FACE('',(#109,#110),#141,.F.);
#177=ADVANCED_FACE('',(#111,#112),#142,.F.);
#178=ADVANCED_FACE('',(#113,#114),#143,.F.);
#179=ADVANCED_FACE('',(#200),#144,.T.);
#180=ADVANCED_FACE('',(#115,#116),#145,.F.);
#181=ADVANCED_FACE('',(#117,#118,#119,#120,#121,#122),#191,.T.);
#182=ADVANCED_FACE('',(#123,#124,#125,#126,#127,#128),#192,.F.);
#183=ADVANCED_FACE('',(#129,#130),#103,.F.);
#184=ADVANCED_FACE('',(#131,#132),#104,.F.);
#185=ADVANCED_FACE('',(#133,#134),#105,.F.);
#186=ADVANCED_FACE('',(#135,#136),#106,.F.);
#187=PLANE('',#416);
#188=PLANE('',#420);
#189=PLANE('',#424);
#190=PLANE('',#428);
#191=PLANE('',#451);
#192=PLANE('',#452);
#193=FACE_OUTER_BOUND('',#201,.T.);
#194=FACE_OUTER_BOUND('',#202,.T.);
#195=FACE_OUTER_BOUND('',#203,.T.);
#196=FACE_OUTER_BOUND('',#204,.T.);
#197=FACE_OUTER_BOUND('',#205,.T.);
#198=FACE_OUTER_BOUND('',#206,.T.);
#199=FACE_OUTER_BOUND('',#207,.T.);
#200=FACE_OUTER_BOUND('',#216,.T.);
#201=EDGE_LOOP('',(#239,#240,#241,#242));
#202=EDGE_LOOP('',(#243,#244,#245,#246));
#203=EDGE_LOOP('',(#247,#248,#249,#250));
#204=EDGE_LOOP('',(#251,#252,#253,#254));
#205=EDGE_LOOP('',(#255,#256,#257,#258));
#206=EDGE_LOOP('',(#259,#260,#261,#262));
#207=EDGE_LOOP('',(#263,#264,#265,#266));
#208=EDGE_LOOP('',(#267));
#209=EDGE_LOOP('',(#268));
#210=EDGE_LOOP('',(#269));
#211=EDGE_LOOP('',(#270));
#212=EDGE_LOOP('',(#271));
#213=EDGE_LOOP('',(#272));
#214=EDGE_LOOP('',(#273));
#215=EDGE_LOOP('',(#274));
#216=EDGE_LOOP('',(#275,#276,#277,#278));
#217=EDGE_LOOP('',(#279));
#218=EDGE_LOOP('',(#280));
#219=EDGE_LOOP('',(#281));
#220=EDGE_LOOP('',(#282));
#221=EDGE_LOOP('',(#283));
#222=EDGE_LOOP('',(#284));
#223=EDGE_LOOP('',(#285,#286,#287,#288,#289,#290,#291,#292));
#224=EDGE_LOOP('',(#293));
#225=EDGE_LOOP('',(#294,#295,#296,#297,#298,#299,#300,#301));
#226=EDGE_LOOP('',(#302));
#227=EDGE_LOOP('',(#303));
#228=EDGE_LOOP('',(#304));
#229=EDGE_LOOP('',(#305));
#230=EDGE_LOOP('',(#306));
#231=EDGE_LOOP('',(#307));
#232=EDGE_LOOP('',(#308));
#233=EDGE_LOOP('',(#309));
#234=EDGE_LOOP('',(#310));
#235=EDGE_LOOP('',(#311));
#236=EDGE_LOOP('',(#312));
#237=EDGE_LOOP('',(#313));
#238=EDGE_LOOP('',(#314));
#239=ORIENTED_EDGE('',*,*,#345,.T.);
#240=ORIENTED_EDGE('',*,*,#346,.F.);
#241=ORIENTED_EDGE('',*,*,#347,.F.);
#242=ORIENTED_EDGE('',*,*,#348,.T.);
#243=ORIENTED_EDGE('',*,*,#349,.T.);
#244=ORIENTED_EDGE('',*,*,#350,.F.);
#245=ORIENTED_EDGE('',*,*,#351,.F.);
#246=ORIENTED_EDGE('',*,*,#346,.T.);
#247=ORIENTED_EDGE('',*,*,#352,.T.);
#248=ORIENTED_EDGE('',*,*,#353,.F.);
#249=ORIENTED_EDGE('',*,*,#354,.F.);
#250=ORIENTED_EDGE('',*,*,#350,.T.);
#251=ORIENTED_EDGE('',*,*,#355,.T.);
#252=ORIENTED_EDGE('',*,*,#356,.F.);
#253=ORIENTED_EDGE('',*,*,#357,.F.);
#254=ORIENTED_EDGE('',*,*,#353,.T.);
#255=ORIENTED_EDGE('',*,*,#358,.T.);
#256=ORIENTED_EDGE('',*,*,#359,.F.);
#257=ORIENTED_EDGE('',*,*,#360,.F.);
#258=ORIENTED_EDGE('',*,*,#356,.T.);
#259=ORIENTED_EDGE('',*,*,#361,.T.);
#260=ORIENTED_EDGE('',*,*,#362,.F.);
#261=ORIENTED_EDGE('',*,*,#363,.F.);
#262=ORIENTED_EDGE('',*,*,#359,.T.);
#263=ORIENTED_EDGE('',*,*,#364,.T.);
#264=ORIENTED_EDGE('',*,*,#365,.F.);
#265=ORIENTED_EDGE('',*,*,#366,.F.);
#266=ORIENTED_EDGE('',*,*,#362,.T.);
#267=ORIENTED_EDGE('',*,*,#367,.T.);
#268=ORIENTED_EDGE('',*,*,#368,.F.);
#269=ORIENTED_EDGE('',*,*,#369,.T.);
#270=ORIENTED_EDGE('',*,*,#370,.F.);
#271=ORIENTED_EDGE('',*,*,#371,.T.);
#272=ORIENTED_EDGE('',*,*,#372,.F.);
#273=ORIENTED_EDGE('',*,*,#373,.T.);
#274=ORIENTED_EDGE('',*,*,#374,.F.);
#275=ORIENTED_EDGE('',*,*,#375,.T.);
#276=ORIENTED_EDGE('',*,*,#348,.F.);
#277=ORIENTED_EDGE('',*,*,#376,.F.);
#278=ORIENTED_EDGE('',*,*,#365,.T.);
#279=ORIENTED_EDGE('',*,*,#377,.T.);
#280=ORIENTED_EDGE('',*,*,#378,.F.);
#281=ORIENTED_EDGE('',*,*,#379,.T.);
#282=ORIENTED_EDGE('',*,*,#380,.T.);
#283=ORIENTED_EDGE('',*,*,#381,.T.);
#284=ORIENTED_EDGE('',*,*,#382,.T.);
#285=ORIENTED_EDGE('',*,*,#347,.T.);
#286=ORIENTED_EDGE('',*,*,#351,.T.);
#287=ORIENTED_EDGE('',*,*,#354,.T.);
#288=ORIENTED_EDGE('',*,*,#357,.T.);
#289=ORIENTED_EDGE('',*,*,#360,.T.);
#290=ORIENTED_EDGE('',*,*,#363,.T.);
#291=ORIENTED_EDGE('',*,*,#366,.T.);
#292=ORIENTED_EDGE('',*,*,#376,.T.);
#293=ORIENTED_EDGE('',*,*,#367,.F.);
#294=ORIENTED_EDGE('',*,*,#345,.F.);
#295=ORIENTED_EDGE('',*,*,#375,.F.);
#296=ORIENTED_EDGE('',*,*,#364,.F.);
#297=ORIENTED_EDGE('',*,*,#361,.F.);
#298=ORIENTED_EDGE('',*,*,#358,.F.);
#299=ORIENTED_EDGE('',*,*,#355,.F.);
#300=ORIENTED_EDGE('',*,*,#352,.F.);
#301=ORIENTED_EDGE('',*,*,#349,.F.);
#302=ORIENTED_EDGE('',*,*,#374,.T.);
#303=ORIENTED_EDGE('',*,*,#372,.T.);
#304=ORIENTED_EDGE('',*,*,#370,.T.);
#305=ORIENTED_EDGE('',*,*,#368,.T.);
#306=ORIENTED_EDGE('',*,*,#378,.T.);
#307=ORIENTED_EDGE('',*,*,#379,.F.);
#308=ORIENTED_EDGE('',*,*,#369,.F.);
#309=ORIENTED_EDGE('',*,*,#380,.F.);
#310=ORIENTED_EDGE('',*,*,#373,.F.);
#311=ORIENTED_EDGE('',*,*,#381,.F.);
#312=ORIENTED_EDGE('',*,*,#377,.F.);
#313=ORIENTED_EDGE('',*,*,#382,.F.);
#314=ORIENTED_EDGE('',*,*,#371,.F.);
#315=VERTEX_POINT('',#559);
#316=VERTEX_POINT('',#560);
#317=VERTEX_POINT('',#562);
#318=VERTEX_POINT('',#564);
#319=VERTEX_POINT('',#568);
#320=VERTEX_POINT('',#570);
#321=VERTEX_POINT('',#574);
#322=VERTEX_POINT('',#576);
#323=VERTEX_POINT('',#580);
#324=VERTEX_POINT('',#582);
#325=VERTEX_POINT('',#586);
#326=VERTEX_POINT('',#588);
#327=VERTEX_POINT('',#592);
#328=VERTEX_POINT('',#594);
#329=VERTEX_POINT('',#598);
#330=VERTEX_POINT('',#600);
#331=VERTEX_POINT('',#604);
#332=VERTEX_POINT('',#606);
#333=VERTEX_POINT('',#609);
#334=VERTEX_POINT('',#611);
#335=VERTEX_POINT('',#614);
#336=VERTEX_POINT('',#616);
#337=VERTEX_POINT('',#619);
#338=VERTEX_POINT('',#621);
#339=VERTEX_POINT('',#627);
#340=VERTEX_POINT('',#629);
#341=VERTEX_POINT('',#632);
#342=VERTEX_POINT('',#634);
#343=VERTEX_POINT('',#636);
#344=VERTEX_POINT('',#638);
#345=EDGE_CURVE('',#315,#316,#383,.T.);
#346=EDGE_CURVE('',#317,#316,#384,.T.);
#347=EDGE_CURVE('',#318,#317,#385,.T.);
#348=EDGE_CURVE('',#318,#315,#386,.T.);
#349=EDGE_CURVE('',#316,#319,#146,.T.);
#350=EDGE_CURVE('',#320,#319,#387,.T.);
#351=EDGE_CURVE('',#317,#320,#147,.T.);
#352=EDGE_CURVE('',#319,#321,#388,.T.);
#353=EDGE_CURVE('',#322,#321,#389,.T.);
#354=EDGE_CURVE('',#320,#322,#390,.T.);
#355=EDGE_CURVE('',#321,#323,#148,.T.);
#356=EDGE_CURVE('',#324,#323,#391,.T.);
#357=EDGE_CURVE('',#322,#324,#149,.T.);
#358=EDGE_CURVE('',#323,#325,#392,.T.);
#359=EDGE_CURVE('',#326,#325,#393,.T.);
#360=EDGE_CURVE('',#324,#326,#394,.T.);
#361=EDGE_CURVE('',#325,#327,#150,.T.);
#362=EDGE_CURVE('',#328,#327,#395,.T.);
#363=EDGE_CURVE('',#326,#328,#151,.T.);
#364=EDGE_CURVE('',#327,#329,#396,.T.);
#365=EDGE_CURVE('',#330,#329,#397,.T.);
#366=EDGE_CURVE('',#328,#330,#398,.T.);
#367=EDGE_CURVE('',#331,#331,#152,.T.);
#368=EDGE_CURVE('',#332,#332,#153,.T.);
#369=EDGE_CURVE('',#333,#333,#154,.T.);
#370=EDGE_CURVE('',#334,#334,#155,.T.);
#371=EDGE_CURVE('',#335,#335,#156,.T.);
#372=EDGE_CURVE('',#336,#336,#157,.T.);
#373=EDGE_CURVE('',#337,#337,#158,.T.);
#374=EDGE_CURVE('',#338,#338,#159,.T.);
#375=EDGE_CURVE('',#329,#315,#160,.T.);
#376=EDGE_CURVE('',#330,#318,#161,.T.);
#377=EDGE_CURVE('',#339,#339,#162,.T.);
#378=EDGE_CURVE('',#340,#340,#163,.T.);
#379=EDGE_CURVE('',#341,#341,#164,.T.);
#380=EDGE_CURVE('',#342,#342,#165,.T.);
#381=EDGE_CURVE('',#343,#343,#166,.T.);
#382=EDGE_CURVE('',#344,#344,#167,.T.);
#383=LINE('',#558,#399);
#384=LINE('',#561,#400);
#385=LINE('',#563,#401);
#386=LINE('',#565,#402);
#387=LINE('',#569,#403);
#388=LINE('',#573,#404);
#389=LINE('',#575,#405);
#390=LINE('',#577,#406);
#391=LINE('',#581,#407);
#392=LINE('',#585,#408);
#393=LINE('',#587,#409);
#394=LINE('',#589,#410);
#395=LINE('',#593,#411);
#396=LINE('',#597,#412);
#397=LINE('',#599,#413);
#398=LINE('',#601,#414);
#399=VECTOR('',#459,1.);
#400=VECTOR('',#460,1.);
#401=VECTOR('',#461,1.);
#402=VECTOR('',#462,1.);
#403=VECTOR('',#467,1.);
#404=VECTOR('',#472,1.);
#405=VECTOR('',#473,1.);
#406=VECTOR('',#474,1.);
#407=VECTOR('',#479,1.);
#408=VECTOR('',#484,1.);
#409=VECTOR('',#485,1.);
#410=VECTOR('',#486,1.);
#411=VECTOR('',#491,1.);
#412=VECTOR('',#496,1.);
#413=VECTOR('',#497,1.);
#414=VECTOR('',#498,1.);
#415=AXIS2_PLACEMENT_3D('',#557,#457,#458);
#416=AXIS2_PLACEMENT_3D('',#566,#463,#464);
#417=AXIS2_PLACEMENT_3D('',#567,#465,#466);
#418=AXIS2_PLACEMENT_3D('',#571,#468,#469);
#419=AXIS2_PLACEMENT_3D('',#572,#470,#471);
#420=AXIS2_PLACEMENT_3D('',#578,#475,#476);
#421=AXIS2_PLACEMENT_3D('',#579,#477,#478);
#422=AXIS2_PLACEMENT_3D('',#583,#480,#481);
#423=AXIS2_PLACEMENT_3D('',#584,#482,#483);
#424=AXIS2_PLACEMENT_3D('',#590,#487,#488);
#425=AXIS2_PLACEMENT_3D('',#591,#489,#490);
#426=AXIS2_PLACEMENT_3D('',#595,#492,#493);
#427=AXIS2_PLACEMENT_3D('',#596,#494,#495);
#428=AXIS2_PLACEMENT_3D('',#602,#499,#500);
#429=AXIS2_PLACEMENT_3D('',#603,#501,#502);
#430=AXIS2_PLACEMENT_3D('',#605,#503,#504);
#431=AXIS2_PLACEMENT_3D('',#607,#505,#506);
#432=AXIS2_PLACEMENT_3D('',#608,#507,#508);
#433=AXIS2_PLACEMENT_3D('',#610,#509,#510);
#434=AXIS2_PLACEMENT_3D('',#612,#511,#512);
#435=AXIS2_PLACEMENT_3D('',#613,#513,#514);
#436=AXIS2_PLACEMENT_3D('',#615,#515,#516);
#437=AXIS2_PLACEMENT_3D('',#617,#517,#518);
#438=AXIS2_PLACEMENT_3D('',#618,#519,#520);
#439=AXIS2_PLACEMENT_3D('',#620,#521,#522);
#440=AXIS2_PLACEMENT_3D('',#622,#523,#524);
#441=AXIS2_PLACEMENT_3D('',#623,#525,#526);
#442=AXIS2_PLACEMENT_3D('',#624,#527,#528);
#443=AXIS2_PLACEMENT_3D('',#625,#529,#530);
#444=AXIS2_PLACEMENT_3D('',#626,#531,#532);
#445=AXIS2_PLACEMENT_3D('',#628,#533,#534);
#446=AXIS2_PLACEMENT_3D('',#630,#535,#536);
#447=AXIS2_PLACEMENT_3D('',#631,#537,#538);
#448=AXIS2_PLACEMENT_3D('',#633,#539,#540);
#449=AXIS2_PLACEMENT_3D('',#635,#541,#542);
#450=AXIS2_PLACEMENT_3D('',#637,#543,#544);
#451=AXIS2_PLACEMENT_3D('',#639,#545,#546);
#452=AXIS2_PLACEMENT_3D('',#640,#547,#548);
#453=AXIS2_PLACEMENT_3D('',#641,#549,#550);
#454=AXIS2_PLACEMENT_3D('',#642,#551,#552);
#455=AXIS2_PLACEMENT_3D('',#643,#553,#554);
#456=AXIS2_PLACEMENT_3D('',#644,#555,#556);
#457=DIRECTION('',(0.,0.,1.));
#458=DIRECTION('',(1.,0.,0.));
#459=DIRECTION('',(0.,-1.,0.));
#460=DIRECTION('',(-1.,0.,0.));
#461=DIRECTION('',(0.,-1.,0.));
#462=DIRECTION('',(-1.,0.,0.));
#463=DIRECTION('',(0.,0.,-1.));
#464=DIRECTION('',(0.,-1.,0.));
#465=DIRECTION('',(1.,0.,0.));
#466=DIRECTION('',(0.,0.,-1.));
#467=DIRECTION('',(-1.,0.,0.));
#468=DIRECTION('',(1.,0.,0.));
#469=DIRECTION('',(0.,0.,-1.));
#470=DIRECTION('',(-1.,0.,0.));
#471=DIRECTION('',(0.,1.,0.));
#472=DIRECTION('',(0.,1.44560289664734E-16,-1.));
#473=DIRECTION('',(-1.,0.,0.));
#474=DIRECTION('',(0.,1.44560289664734E-16,-1.));
#475=DIRECTION('',(0.,1.,1.44560289664734E-16));
#476=DIRECTION('',(0.,1.66533453693773E-16,-1.));
#477=DIRECTION('',(1.,0.,0.));
#478=DIRECTION('',(0.,0.,-0.999999999999999));
#479=DIRECTION('',(-1.,0.,0.));
#480=DIRECTION('',(1.,0.,0.));
#481=DIRECTION('',(0.,0.,-0.999999999999999));
#482=DIRECTION('',(-1.,0.,0.));
#483=DIRECTION('',(0.,1.,0.));
#484=DIRECTION('',(0.,1.,0.));
#485=DIRECTION('',(-1.,0.,0.));
#486=DIRECTION('',(0.,1.,0.));
#487=DIRECTION('',(0.,0.,1.));
#488=DIRECTION('',(0.,1.,0.));
#489=DIRECTION('',(1.,0.,0.));
#490=DIRECTION('',(0.,0.,-1.));
#491=DIRECTION('',(-1.,0.,0.));
#492=DIRECTION('',(1.,0.,0.));
#493=DIRECTION('',(0.,0.,-1.));
#494=DIRECTION('',(-1.,0.,0.));
#495=DIRECTION('',(0.,1.,0.));
#496=DIRECTION('',(0.,0.,1.));
#497=DIRECTION('',(-1.,0.,0.));
#498=DIRECTION('',(0.,0.,1.));
#499=DIRECTION('',(0.,-1.,0.));
#500=DIRECTION('',(0.,0.,1.));
#501=DIRECTION('',(1.,0.,0.));
#502=DIRECTION('',(0.,0.,-1.));
#503=DIRECTION('',(1.,0.,0.));
#504=DIRECTION('',(0.,0.,-1.));
#505=DIRECTION('',(-1.,0.,0.));
#506=DIRECTION('',(0.,1.,0.));
#507=DIRECTION('',(1.,0.,0.));
#508=DIRECTION('',(0.,-1.,0.));
#509=DIRECTION('',(1.,0.,0.));
#510=DIRECTION('',(0.,0.,-0.999999999999999));
#511=DIRECTION('',(-1.,0.,0.));
#512=DIRECTION('',(0.,1.,0.));
#513=DIRECTION('',(1.,0.,0.));
#514=DIRECTION('',(0.,-1.,0.));
#515=DIRECTION('',(1.,0.,0.));
#516=DIRECTION('',(0.,0.,-1.));
#517=DIRECTION('',(-1.,0.,0.));
#518=DIRECTION('',(0.,1.,0.));
#519=DIRECTION('',(1.,0.,0.));
#520=DIRECTION('',(0.,-1.,0.));
#521=DIRECTION('',(1.,0.,0.));
#522=DIRECTION('',(0.,0.,-1.));
#523=DIRECTION('',(-1.,0.,0.));
#524=DIRECTION('',(0.,1.,0.));
#525=DIRECTION('',(1.,0.,0.));
#526=DIRECTION('',(0.,0.,-1.));
#527=DIRECTION('',(1.,0.,0.));
#528=DIRECTION('',(0.,0.,-1.));
#529=DIRECTION('',(-1.,0.,0.));
#530=DIRECTION('',(0.,1.,0.));
#531=DIRECTION('',(1.,0.,0.));
#532=DIRECTION('',(0.,-1.,0.));
#533=DIRECTION('',(1.,0.,0.));
#534=DIRECTION('',(0.,0.,-1.));
#535=DIRECTION('',(-1.,0.,0.));
#536=DIRECTION('',(0.,1.,0.));
#537=DIRECTION('',(-1.,0.,0.));
#538=DIRECTION('',(0.,-1.,0.));
#539=DIRECTION('',(-1.,0.,0.));
#540=DIRECTION('',(0.,-1.,0.));
#541=DIRECTION('',(-1.,0.,0.));
#542=DIRECTION('',(0.,-1.,0.));
#543=DIRECTION('',(-1.,0.,0.));
#544=DIRECTION('',(0.,-1.,0.));
#545=DIRECTION('',(1.,0.,0.));
#546=DIRECTION('',(0.,-1.,0.));
#547=DIRECTION('',(1.,0.,0.));
#548=DIRECTION('',(0.,-1.,0.));
#549=DIRECTION('',(1.,0.,0.));
#550=DIRECTION('',(-5.54003505301974E-17,-1.,0.));
#551=DIRECTION('',(1.,0.,0.));
#552=DIRECTION('',(-5.54003505301974E-17,-1.,0.));
#553=DIRECTION('',(1.,0.,0.));
#554=DIRECTION('',(-5.54003505301974E-17,-1.,0.));
#555=DIRECTION('',(1.,0.,0.));
#556=DIRECTION('',(-5.54003505301974E-17,-1.,0.));
#557=CARTESIAN_POINT('',(0.,0.,0.));
#558=CARTESIAN_POINT('',(-181.,429.,-20.));
#559=CARTESIAN_POINT('',(-181.,429.,-20.));
#560=CARTESIAN_POINT('',(-181.,381.,-20.));
#561=CARTESIAN_POINT('',(-178.,381.,-20.));
#562=CARTESIAN_POINT('',(-178.,381.,-20.));
#563=CARTESIAN_POINT('',(-178.,429.,-20.));
#564=CARTESIAN_POINT('',(-178.,429.,-20.));
#565=CARTESIAN_POINT('',(-178.,429.,-20.));
#566=CARTESIAN_POINT('',(-178.,429.,-20.));
#567=CARTESIAN_POINT('',(-181.,381.,-26.));
#568=CARTESIAN_POINT('',(-181.,375.,-26.));
#569=CARTESIAN_POINT('',(-178.,375.,-26.));
#570=CARTESIAN_POINT('',(-178.,375.,-26.));
#571=CARTESIAN_POINT('',(-178.,381.,-26.));
#572=CARTESIAN_POINT('',(-178.,381.,-26.));
#573=CARTESIAN_POINT('',(-181.,375.,-26.));
#574=CARTESIAN_POINT('',(-181.,375.,-74.));
#575=CARTESIAN_POINT('',(-178.,375.,-74.));
#576=CARTESIAN_POINT('',(-178.,375.,-74.));
#577=CARTESIAN_POINT('',(-178.,375.,-26.));
#578=CARTESIAN_POINT('',(-178.,375.,-26.));
#579=CARTESIAN_POINT('',(-181.,381.,-74.));
#580=CARTESIAN_POINT('',(-181.,381.,-80.));
#581=CARTESIAN_POINT('',(-178.,381.,-80.));
#582=CARTESIAN_POINT('',(-178.,381.,-80.));
#583=CARTESIAN_POINT('',(-178.,381.,-74.));
#584=CARTESIAN_POINT('',(-178.,381.,-74.));
#585=CARTESIAN_POINT('',(-181.,381.,-80.));
#586=CARTESIAN_POINT('',(-181.,429.,-80.));
#587=CARTESIAN_POINT('',(-178.,429.,-80.));
#588=CARTESIAN_POINT('',(-178.,429.,-80.));
#589=CARTESIAN_POINT('',(-178.,381.,-80.));
#590=CARTESIAN_POINT('',(-178.,381.,-80.));
#591=CARTESIAN_POINT('',(-181.,429.,-74.));
#592=CARTESIAN_POINT('',(-181.,435.,-74.));
#593=CARTESIAN_POINT('',(-178.,435.,-74.));
#594=CARTESIAN_POINT('',(-178.,435.,-74.));
#595=CARTESIAN_POINT('',(-178.,429.,-74.));
#596=CARTESIAN_POINT('',(-178.,429.,-74.));
#597=CARTESIAN_POINT('',(-181.,435.,-74.));
#598=CARTESIAN_POINT('',(-181.,435.,-26.));
#599=CARTESIAN_POINT('',(-178.,435.,-26.));
#600=CARTESIAN_POINT('',(-178.,435.,-26.));
#601=CARTESIAN_POINT('',(-178.,435.,-74.));
#602=CARTESIAN_POINT('',(-178.,435.,-74.));
#603=CARTESIAN_POINT('',(-178.,405.,-50.));
#604=CARTESIAN_POINT('',(-178.,405.,-59.5));
#605=CARTESIAN_POINT('',(-181.,405.,-50.));
#606=CARTESIAN_POINT('',(-181.,405.,-59.5));
#607=CARTESIAN_POINT('',(-178.,405.,-50.));
#608=CARTESIAN_POINT('',(-180.5,381.43,-26.43));
#609=CARTESIAN_POINT('',(-180.5,379.43,-26.43));
#610=CARTESIAN_POINT('',(-181.,381.43,-26.43));
#611=CARTESIAN_POINT('',(-181.,381.43,-28.43));
#612=CARTESIAN_POINT('',(-178.,381.43,-26.43));
#613=CARTESIAN_POINT('',(-180.5,428.57,-26.43));
#614=CARTESIAN_POINT('',(-180.5,426.57,-26.43));
#615=CARTESIAN_POINT('',(-181.,428.57,-26.43));
#616=CARTESIAN_POINT('',(-181.,428.57,-28.43));
#617=CARTESIAN_POINT('',(-178.,428.57,-26.43));
#618=CARTESIAN_POINT('',(-180.5,381.43,-73.57));
#619=CARTESIAN_POINT('',(-180.5,379.43,-73.57));
#620=CARTESIAN_POINT('',(-181.,381.43,-73.57));
#621=CARTESIAN_POINT('',(-181.,381.43,-75.57));
#622=CARTESIAN_POINT('',(-178.,381.43,-73.57));
#623=CARTESIAN_POINT('',(-181.,429.,-26.));
#624=CARTESIAN_POINT('',(-178.,429.,-26.));
#625=CARTESIAN_POINT('',(-178.,429.,-26.));
#626=CARTESIAN_POINT('',(-180.5,428.57,-73.57));
#627=CARTESIAN_POINT('',(-180.5,426.57,-73.57));
#628=CARTESIAN_POINT('',(-181.,428.57,-73.57));
#629=CARTESIAN_POINT('',(-181.,428.57,-75.57));
#630=CARTESIAN_POINT('',(-178.,428.57,-73.57));
#631=CARTESIAN_POINT('',(-178.,381.43,-26.43));
#632=CARTESIAN_POINT('',(-178.,376.93,-26.43));
#633=CARTESIAN_POINT('',(-178.,381.43,-73.57));
#634=CARTESIAN_POINT('',(-178.,376.93,-73.57));
#635=CARTESIAN_POINT('',(-178.,428.57,-73.57));
#636=CARTESIAN_POINT('',(-178.,424.07,-73.57));
#637=CARTESIAN_POINT('',(-178.,428.57,-26.43));
#638=CARTESIAN_POINT('',(-178.,424.07,-26.43));
#639=CARTESIAN_POINT('',(-178.,381.,-26.));
#640=CARTESIAN_POINT('',(-181.,381.,-26.));
#641=CARTESIAN_POINT('',(-180.5,381.43,-26.43));
#642=CARTESIAN_POINT('',(-180.5,381.43,-73.57));
#643=CARTESIAN_POINT('',(-180.5,428.57,-73.57));
#644=CARTESIAN_POINT('',(-180.5,428.57,-26.43));
#645=(
GEOMETRIC_REPRESENTATION_CONTEXT(3)
GLOBAL_UNCERTAINTY_ASSIGNED_CONTEXT((#646))
GLOBAL_UNIT_ASSIGNED_CONTEXT((#652,#648,#647))
REPRESENTATION_CONTEXT('\X2\041F043B0430044104420438043D0430\X0\_\X2\0441
04420430043B044C043D0430044F\X0\','TOP_LEVEL_ASSEMBLY_PART')
);
#646=UNCERTAINTY_MEASURE_WITH_UNIT(LENGTH_MEASURE(2.E-5),#652,
'DISTANCE_ACCURACY_VALUE','Maximum Tolerance applied to model');
#647=(
NAMED_UNIT(*)
SI_UNIT($,.STERADIAN.)
SOLID_ANGLE_UNIT()
);
#648=(
CONVERSION_BASED_UNIT('DEGREE',#650)
NAMED_UNIT(#649)
PLANE_ANGLE_UNIT()
);
#649=DIMENSIONAL_EXPONENTS(0.,0.,0.,0.,0.,0.,0.);
#650=PLANE_ANGLE_MEASURE_WITH_UNIT(PLANE_ANGLE_MEASURE(0.0174532925),#651);
#651=(
NAMED_UNIT(*)
PLANE_ANGLE_UNIT()
SI_UNIT($,.RADIAN.)
);
#652=(
LENGTH_UNIT()
NAMED_UNIT(*)
SI_UNIT(.MILLI.,.METRE.)
);
ENDSEC;
END-ISO-10303-21;
