ISO-10303-21;
HEADER;
/* Generated by software containing ST-Developer
 * from STEP Tools, Inc. (www.steptools.com) 
 */
/* OPTION: using custom schema-name function */

FILE_DESCRIPTION(
/* description */ (''),
/* implementation_level */ '2;1');

FILE_NAME(
/* name */ '\X2\042104420443043F043804460430\X0\.stp',
/* time_stamp */ '2026-06-30T20:05:03+03:00',
/* author */ (''),
/* organization */ (''),
/* preprocessor_version */ 'ST-DEVELOPER v16',
/* originating_system */ 'SIEMENS PLM Software NX 10.0',
/* authorisation */ '');

FILE_SCHEMA (('AP203_CONFIGURATION_CONTROLLED_3D_DESIGN_OF_MECHANICAL_PARTS_AND_ASSEMBLIES_MIM_LF { 1 0 10303 403 2 1 2}'));
ENDSEC;

DATA;
#10=PROPERTY_DEFINITION_REPRESENTATION(#14,#12);
#11=PROPERTY_DEFINITION_REPRESENTATION(#15,#13);
#12=REPRESENTATION('',(#16),#623);
#13=REPRESENTATION('',(#17),#623);
#14=PROPERTY_DEFINITION('pmi validation property','',#89);
#15=PROPERTY_DEFINITION('pmi validation property','',#89);
#16=VALUE_REPRESENTATION_ITEM('number of annotations',COUNT_MEASURE(0.));
#17=VALUE_REPRESENTATION_ITEM('number of views',COUNT_MEASURE(0.));
#18=SHAPE_REPRESENTATION_RELATIONSHIP('None',
'relationship between Hi63D05924gfcz-None and Hi63D05924gfcz-None',#100,
#19);
#19=ADVANCED_BREP_SHAPE_REPRESENTATION('Hi63D05924gfcz-None',(#101),#623);
#20=CC_DESIGN_APPROVAL(#32,(#90));
#21=CC_DESIGN_APPROVAL(#33,(#92));
#22=CC_DESIGN_APPROVAL(#34,(#39));
#23=APPROVAL_PERSON_ORGANIZATION(#77,#32,#26);
#24=APPROVAL_PERSON_ORGANIZATION(#78,#33,#27);
#25=APPROVAL_PERSON_ORGANIZATION(#79,#34,#28);
#26=APPROVAL_ROLE('approver');
#27=APPROVAL_ROLE('approver');
#28=APPROVAL_ROLE('approver');
#29=APPROVAL_DATE_TIME(#47,#32);
#30=APPROVAL_DATE_TIME(#48,#33);
#31=APPROVAL_DATE_TIME(#49,#34);
#32=APPROVAL(#35,' ');
#33=APPROVAL(#36,' ');
#34=APPROVAL(#37,' ');
#35=APPROVAL_STATUS('not_yet_approved');
#36=APPROVAL_STATUS('not_yet_approved');
#37=APPROVAL_STATUS('not_yet_approved');
#38=CC_DESIGN_SECURITY_CLASSIFICATION(#39,(#92));
#39=SECURITY_CLASSIFICATION(' ',' ',#40);
#40=SECURITY_CLASSIFICATION_LEVEL('confidential');
#41=CC_DESIGN_DATE_AND_TIME_ASSIGNMENT(#45,#43,(#90));
#42=CC_DESIGN_DATE_AND_TIME_ASSIGNMENT(#46,#44,(#39));
#43=DATE_TIME_ROLE('creation_date');
#44=DATE_TIME_ROLE('classification_date');
#45=DATE_AND_TIME(#60,#50);
#46=DATE_AND_TIME(#61,#51);
#47=DATE_AND_TIME(#62,#52);
#48=DATE_AND_TIME(#63,#53);
#49=DATE_AND_TIME(#64,#54);
#50=LOCAL_TIME(0,0,0.,#55);
#51=LOCAL_TIME(0,0,0.,#56);
#52=LOCAL_TIME(0,0,0.,#57);
#53=LOCAL_TIME(0,0,0.,#58);
#54=LOCAL_TIME(0,0,0.,#59);
#55=COORDINATED_UNIVERSAL_TIME_OFFSET(0,0,.BEHIND.);
#56=COORDINATED_UNIVERSAL_TIME_OFFSET(0,0,.BEHIND.);
#57=COORDINATED_UNIVERSAL_TIME_OFFSET(0,0,.BEHIND.);
#58=COORDINATED_UNIVERSAL_TIME_OFFSET(0,0,.BEHIND.);
#59=COORDINATED_UNIVERSAL_TIME_OFFSET(0,0,.BEHIND.);
#60=CALENDAR_DATE(0,1,1);
#61=CALENDAR_DATE(0,1,1);
#62=CALENDAR_DATE(0,1,1);
#63=CALENDAR_DATE(0,1,1);
#64=CALENDAR_DATE(0,1,1);
#65=CC_DESIGN_PERSON_AND_ORGANIZATION_ASSIGNMENT(#73,#69,(#90,#92));
#66=CC_DESIGN_PERSON_AND_ORGANIZATION_ASSIGNMENT(#74,#70,(#94));
#67=CC_DESIGN_PERSON_AND_ORGANIZATION_ASSIGNMENT(#75,#71,(#92));
#68=CC_DESIGN_PERSON_AND_ORGANIZATION_ASSIGNMENT(#76,#72,(#39));
#69=PERSON_AND_ORGANIZATION_ROLE('creator');
#70=PERSON_AND_ORGANIZATION_ROLE('design_owner');
#71=PERSON_AND_ORGANIZATION_ROLE('design_supplier');
#72=PERSON_AND_ORGANIZATION_ROLE('classification_officer');
#73=PERSON_AND_ORGANIZATION(#87,#80);
#74=PERSON_AND_ORGANIZATION(#87,#81);
#75=PERSON_AND_ORGANIZATION(#87,#82);
#76=PERSON_AND_ORGANIZATION(#87,#83);
#77=PERSON_AND_ORGANIZATION(#87,#84);
#78=PERSON_AND_ORGANIZATION(#87,#85);
#79=PERSON_AND_ORGANIZATION(#87,#86);
#80=ORGANIZATION(' ',' ',' ');
#81=ORGANIZATION(' ',' ',' ');
#82=ORGANIZATION(' ',' ',' ');
#83=ORGANIZATION(' ',' ',' ');
#84=ORGANIZATION(' ',' ',' ');
#85=ORGANIZATION(' ',' ',' ');
#86=ORGANIZATION(' ',' ',' ');
#87=PERSON(' ',' ',' ',(' '),$,$);
#88=SHAPE_DEFINITION_REPRESENTATION(#89,#100);
#89=PRODUCT_DEFINITION_SHAPE('','',#90);
#90=PRODUCT_DEFINITION(' ','',#92,#91);
#91=DESIGN_CONTEXT('',#99,'design');
#92=PRODUCT_DEFINITION_FORMATION_WITH_SPECIFIED_SOURCE(' ',' ',#94,
 .NOT_KNOWN.);
#93=PRODUCT_RELATED_PRODUCT_CATEGORY('detail','',(#94));
#94=PRODUCT('Hi63D05924gfcz','Hi63D05924gfcz',' ',(#97));
#95=PRODUCT_CATEGORY('part',' ');
#96=PRODUCT_CATEGORY(' ','');
#97=MECHANICAL_CONTEXT(' ',#99,'mechanical');
#98=APPLICATION_PROTOCOL_DEFINITION('international standard',
'config_control_design',2010,#99);
#99=APPLICATION_CONTEXT(
'configuration controlled 3D designs of mechanical parts and assemblie
s');
#100=SHAPE_REPRESENTATION('Hi63D05924gfcz-None',(#392),#623);
#101=MANIFOLD_SOLID_BREP('',#102);
#102=CLOSED_SHELL('',(#123,#124,#125,#126,#127,#128,#129,#130,#131,#132,
#133,#134,#135,#136,#137,#138,#139,#140,#141,#142,#143,#144,#145));
#103=CONICAL_SURFACE('',#421,5.80000000000001,45.0000000000001);
#104=CONICAL_SURFACE('',#422,5.80000000000001,45.0000000000001);
#105=CONICAL_SURFACE('',#426,5.80000000000001,45.0000000000001);
#106=CONICAL_SURFACE('',#427,5.80000000000001,45.0000000000001);
#107=CONICAL_SURFACE('',#431,5.80000000000001,45.0000000000001);
#108=CONICAL_SURFACE('',#432,5.80000000000001,45.0000000000001);
#109=CONICAL_SURFACE('',#436,5.80000000000001,45.0000000000001);
#110=CONICAL_SURFACE('',#437,5.80000000000001,45.0000000000001);
#111=CONICAL_SURFACE('',#438,13.,45.);
#112=CONICAL_SURFACE('',#439,12.5,45.);
#113=CONICAL_SURFACE('',#440,70.,45.);
#114=CONICAL_SURFACE('',#441,69.5,45.);
#115=CONICAL_SURFACE('',#442,34.4,45.);
#116=CYLINDRICAL_SURFACE('',#402,70.);
#117=CYLINDRICAL_SURFACE('',#412,12.5);
#118=CYLINDRICAL_SURFACE('',#417,34.9);
#119=CYLINDRICAL_SURFACE('',#420,5.3);
#120=CYLINDRICAL_SURFACE('',#425,5.3);
#121=CYLINDRICAL_SURFACE('',#430,5.3);
#122=CYLINDRICAL_SURFACE('',#435,5.3);
#123=ADVANCED_FACE('',(#149,#150,#151,#152,#153,#154),#146,.T.);
#124=ADVANCED_FACE('',(#155,#156),#116,.T.);
#125=ADVANCED_FACE('',(#157,#158,#159,#160,#161,#162),#147,.T.);
#126=ADVANCED_FACE('',(#163,#164),#117,.F.);
#127=ADVANCED_FACE('',(#165,#166),#148,.T.);
#128=ADVANCED_FACE('',(#167,#168),#118,.T.);
#129=ADVANCED_FACE('',(#169,#170),#119,.F.);
#130=ADVANCED_FACE('',(#171,#172),#103,.F.);
#131=ADVANCED_FACE('',(#173,#174),#104,.F.);
#132=ADVANCED_FACE('',(#175,#176),#120,.F.);
#133=ADVANCED_FACE('',(#177,#178),#105,.F.);
#134=ADVANCED_FACE('',(#179,#180),#106,.F.);
#135=ADVANCED_FACE('',(#181,#182),#121,.F.);
#136=ADVANCED_FACE('',(#183,#184),#107,.F.);
#137=ADVANCED_FACE('',(#185,#186),#108,.F.);
#138=ADVANCED_FACE('',(#187,#188),#122,.F.);
#139=ADVANCED_FACE('',(#189,#190),#109,.F.);
#140=ADVANCED_FACE('',(#191,#192),#110,.F.);
#141=ADVANCED_FACE('',(#193,#194),#111,.F.);
#142=ADVANCED_FACE('',(#195,#196),#112,.F.);
#143=ADVANCED_FACE('',(#197,#198),#113,.T.);
#144=ADVANCED_FACE('',(#199,#200),#114,.T.);
#145=ADVANCED_FACE('',(#201,#202),#115,.T.);
#146=PLANE('',#399);
#147=PLANE('',#409);
#148=PLANE('',#415);
#149=FACE_BOUND('',#203,.T.);
#150=FACE_BOUND('',#204,.T.);
#151=FACE_BOUND('',#205,.T.);
#152=FACE_BOUND('',#206,.T.);
#153=FACE_BOUND('',#207,.T.);
#154=FACE_BOUND('',#208,.T.);
#155=FACE_BOUND('',#209,.T.);
#156=FACE_BOUND('',#210,.T.);
#157=FACE_BOUND('',#211,.T.);
#158=FACE_BOUND('',#212,.T.);
#159=FACE_BOUND('',#213,.T.);
#160=FACE_BOUND('',#214,.T.);
#161=FACE_BOUND('',#215,.T.);
#162=FACE_BOUND('',#216,.T.);
#163=FACE_BOUND('',#217,.T.);
#164=FACE_BOUND('',#218,.T.);
#165=FACE_BOUND('',#219,.T.);
#166=FACE_BOUND('',#220,.T.);
#167=FACE_BOUND('',#221,.T.);
#168=FACE_BOUND('',#222,.T.);
#169=FACE_BOUND('',#223,.T.);
#170=FACE_BOUND('',#224,.T.);
#171=FACE_BOUND('',#225,.T.);
#172=FACE_BOUND('',#226,.T.);
#173=FACE_BOUND('',#227,.T.);
#174=FACE_BOUND('',#228,.T.);
#175=FACE_BOUND('',#229,.T.);
#176=FACE_BOUND('',#230,.T.);
#177=FACE_BOUND('',#231,.T.);
#178=FACE_BOUND('',#232,.T.);
#179=FACE_BOUND('',#233,.T.);
#180=FACE_BOUND('',#234,.T.);
#181=FACE_BOUND('',#235,.T.);
#182=FACE_BOUND('',#236,.T.);
#183=FACE_BOUND('',#237,.T.);
#184=FACE_BOUND('',#238,.T.);
#185=FACE_BOUND('',#239,.T.);
#186=FACE_BOUND('',#240,.T.);
#187=FACE_BOUND('',#241,.T.);
#188=FACE_BOUND('',#242,.T.);
#189=FACE_BOUND('',#243,.T.);
#190=FACE_BOUND('',#244,.T.);
#191=FACE_BOUND('',#245,.T.);
#192=FACE_BOUND('',#246,.T.);
#193=FACE_BOUND('',#247,.T.);
#194=FACE_BOUND('',#248,.T.);
#195=FACE_BOUND('',#249,.T.);
#196=FACE_BOUND('',#250,.T.);
#197=FACE_BOUND('',#251,.T.);
#198=FACE_BOUND('',#252,.T.);
#199=FACE_BOUND('',#253,.T.);
#200=FACE_BOUND('',#254,.T.);
#201=FACE_BOUND('',#255,.T.);
#202=FACE_BOUND('',#256,.T.);
#203=EDGE_LOOP('',(#257));
#204=EDGE_LOOP('',(#258));
#205=EDGE_LOOP('',(#259));
#206=EDGE_LOOP('',(#260));
#207=EDGE_LOOP('',(#261));
#208=EDGE_LOOP('',(#262));
#209=EDGE_LOOP('',(#263));
#210=EDGE_LOOP('',(#264));
#211=EDGE_LOOP('',(#265));
#212=EDGE_LOOP('',(#266));
#213=EDGE_LOOP('',(#267));
#214=EDGE_LOOP('',(#268));
#215=EDGE_LOOP('',(#269));
#216=EDGE_LOOP('',(#270));
#217=EDGE_LOOP('',(#271));
#218=EDGE_LOOP('',(#272));
#219=EDGE_LOOP('',(#273));
#220=EDGE_LOOP('',(#274));
#221=EDGE_LOOP('',(#275));
#222=EDGE_LOOP('',(#276));
#223=EDGE_LOOP('',(#277));
#224=EDGE_LOOP('',(#278));
#225=EDGE_LOOP('',(#279));
#226=EDGE_LOOP('',(#280));
#227=EDGE_LOOP('',(#281));
#228=EDGE_LOOP('',(#282));
#229=EDGE_LOOP('',(#283));
#230=EDGE_LOOP('',(#284));
#231=EDGE_LOOP('',(#285));
#232=EDGE_LOOP('',(#286));
#233=EDGE_LOOP('',(#287));
#234=EDGE_LOOP('',(#288));
#235=EDGE_LOOP('',(#289));
#236=EDGE_LOOP('',(#290));
#237=EDGE_LOOP('',(#291));
#238=EDGE_LOOP('',(#292));
#239=EDGE_LOOP('',(#293));
#240=EDGE_LOOP('',(#294));
#241=EDGE_LOOP('',(#295));
#242=EDGE_LOOP('',(#296));
#243=EDGE_LOOP('',(#297));
#244=EDGE_LOOP('',(#298));
#245=EDGE_LOOP('',(#299));
#246=EDGE_LOOP('',(#300));
#247=EDGE_LOOP('',(#301));
#248=EDGE_LOOP('',(#302));
#249=EDGE_LOOP('',(#303));
#250=EDGE_LOOP('',(#304));
#251=EDGE_LOOP('',(#305));
#252=EDGE_LOOP('',(#306));
#253=EDGE_LOOP('',(#307));
#254=EDGE_LOOP('',(#308));
#255=EDGE_LOOP('',(#309));
#256=EDGE_LOOP('',(#310));
#257=ORIENTED_EDGE('',*,*,#338,.T.);
#258=ORIENTED_EDGE('',*,*,#339,.T.);
#259=ORIENTED_EDGE('',*,*,#340,.T.);
#260=ORIENTED_EDGE('',*,*,#341,.T.);
#261=ORIENTED_EDGE('',*,*,#342,.T.);
#262=ORIENTED_EDGE('',*,*,#343,.F.);
#263=ORIENTED_EDGE('',*,*,#344,.T.);
#264=ORIENTED_EDGE('',*,*,#345,.T.);
#265=ORIENTED_EDGE('',*,*,#346,.T.);
#266=ORIENTED_EDGE('',*,*,#347,.T.);
#267=ORIENTED_EDGE('',*,*,#348,.T.);
#268=ORIENTED_EDGE('',*,*,#349,.T.);
#269=ORIENTED_EDGE('',*,*,#350,.T.);
#270=ORIENTED_EDGE('',*,*,#351,.T.);
#271=ORIENTED_EDGE('',*,*,#352,.T.);
#272=ORIENTED_EDGE('',*,*,#353,.T.);
#273=ORIENTED_EDGE('',*,*,#354,.T.);
#274=ORIENTED_EDGE('',*,*,#355,.T.);
#275=ORIENTED_EDGE('',*,*,#356,.T.);
#276=ORIENTED_EDGE('',*,*,#343,.T.);
#277=ORIENTED_EDGE('',*,*,#357,.T.);
#278=ORIENTED_EDGE('',*,*,#358,.T.);
#279=ORIENTED_EDGE('',*,*,#357,.F.);
#280=ORIENTED_EDGE('',*,*,#351,.F.);
#281=ORIENTED_EDGE('',*,*,#358,.F.);
#282=ORIENTED_EDGE('',*,*,#342,.F.);
#283=ORIENTED_EDGE('',*,*,#359,.T.);
#284=ORIENTED_EDGE('',*,*,#360,.T.);
#285=ORIENTED_EDGE('',*,*,#359,.F.);
#286=ORIENTED_EDGE('',*,*,#350,.F.);
#287=ORIENTED_EDGE('',*,*,#360,.F.);
#288=ORIENTED_EDGE('',*,*,#341,.F.);
#289=ORIENTED_EDGE('',*,*,#361,.T.);
#290=ORIENTED_EDGE('',*,*,#362,.T.);
#291=ORIENTED_EDGE('',*,*,#361,.F.);
#292=ORIENTED_EDGE('',*,*,#349,.F.);
#293=ORIENTED_EDGE('',*,*,#362,.F.);
#294=ORIENTED_EDGE('',*,*,#340,.F.);
#295=ORIENTED_EDGE('',*,*,#363,.T.);
#296=ORIENTED_EDGE('',*,*,#364,.T.);
#297=ORIENTED_EDGE('',*,*,#363,.F.);
#298=ORIENTED_EDGE('',*,*,#348,.F.);
#299=ORIENTED_EDGE('',*,*,#364,.F.);
#300=ORIENTED_EDGE('',*,*,#339,.F.);
#301=ORIENTED_EDGE('',*,*,#352,.F.);
#302=ORIENTED_EDGE('',*,*,#346,.F.);
#303=ORIENTED_EDGE('',*,*,#354,.F.);
#304=ORIENTED_EDGE('',*,*,#353,.F.);
#305=ORIENTED_EDGE('',*,*,#347,.F.);
#306=ORIENTED_EDGE('',*,*,#344,.F.);
#307=ORIENTED_EDGE('',*,*,#345,.F.);
#308=ORIENTED_EDGE('',*,*,#338,.F.);
#309=ORIENTED_EDGE('',*,*,#356,.F.);
#310=ORIENTED_EDGE('',*,*,#355,.F.);
#311=VERTEX_POINT('',#547);
#312=VERTEX_POINT('',#549);
#313=VERTEX_POINT('',#551);
#314=VERTEX_POINT('',#553);
#315=VERTEX_POINT('',#555);
#316=VERTEX_POINT('',#557);
#317=VERTEX_POINT('',#560);
#318=VERTEX_POINT('',#562);
#319=VERTEX_POINT('',#565);
#320=VERTEX_POINT('',#567);
#321=VERTEX_POINT('',#569);
#322=VERTEX_POINT('',#571);
#323=VERTEX_POINT('',#573);
#324=VERTEX_POINT('',#575);
#325=VERTEX_POINT('',#578);
#326=VERTEX_POINT('',#580);
#327=VERTEX_POINT('',#583);
#328=VERTEX_POINT('',#585);
#329=VERTEX_POINT('',#588);
#330=VERTEX_POINT('',#591);
#331=VERTEX_POINT('',#593);
#332=VERTEX_POINT('',#598);
#333=VERTEX_POINT('',#600);
#334=VERTEX_POINT('',#605);
#335=VERTEX_POINT('',#607);
#336=VERTEX_POINT('',#612);
#337=VERTEX_POINT('',#614);
#338=EDGE_CURVE('',#311,#311,#365,.T.);
#339=EDGE_CURVE('',#312,#312,#366,.T.);
#340=EDGE_CURVE('',#313,#313,#367,.T.);
#341=EDGE_CURVE('',#314,#314,#368,.T.);
#342=EDGE_CURVE('',#315,#315,#369,.T.);
#343=EDGE_CURVE('',#316,#316,#370,.T.);
#344=EDGE_CURVE('',#317,#317,#371,.T.);
#345=EDGE_CURVE('',#318,#318,#372,.T.);
#346=EDGE_CURVE('',#319,#319,#373,.T.);
#347=EDGE_CURVE('',#320,#320,#374,.T.);
#348=EDGE_CURVE('',#321,#321,#375,.T.);
#349=EDGE_CURVE('',#322,#322,#376,.T.);
#350=EDGE_CURVE('',#323,#323,#377,.T.);
#351=EDGE_CURVE('',#324,#324,#378,.T.);
#352=EDGE_CURVE('',#325,#325,#379,.T.);
#353=EDGE_CURVE('',#326,#326,#380,.T.);
#354=EDGE_CURVE('',#327,#327,#381,.T.);
#355=EDGE_CURVE('',#328,#328,#382,.T.);
#356=EDGE_CURVE('',#329,#329,#383,.T.);
#357=EDGE_CURVE('',#330,#330,#384,.T.);
#358=EDGE_CURVE('',#331,#331,#385,.T.);
#359=EDGE_CURVE('',#332,#332,#386,.T.);
#360=EDGE_CURVE('',#333,#333,#387,.T.);
#361=EDGE_CURVE('',#334,#334,#388,.T.);
#362=EDGE_CURVE('',#335,#335,#389,.T.);
#363=EDGE_CURVE('',#336,#336,#390,.T.);
#364=EDGE_CURVE('',#337,#337,#391,.T.);
#365=CIRCLE('',#393,69.5);
#366=CIRCLE('',#394,5.80000000000001);
#367=CIRCLE('',#395,5.80000000000001);
#368=CIRCLE('',#396,5.80000000000001);
#369=CIRCLE('',#397,5.80000000000001);
#370=CIRCLE('',#398,34.9);
#371=CIRCLE('',#400,70.);
#372=CIRCLE('',#401,70.);
#373=CIRCLE('',#403,13.);
#374=CIRCLE('',#404,69.5);
#375=CIRCLE('',#405,5.80000000000001);
#376=CIRCLE('',#406,5.80000000000001);
#377=CIRCLE('',#407,5.80000000000001);
#378=CIRCLE('',#408,5.80000000000001);
#379=CIRCLE('',#410,12.5);
#380=CIRCLE('',#411,12.5);
#381=CIRCLE('',#413,13.);
#382=CIRCLE('',#414,34.4);
#383=CIRCLE('',#416,34.9);
#384=CIRCLE('',#418,5.3);
#385=CIRCLE('',#419,5.3);
#386=CIRCLE('',#423,5.3);
#387=CIRCLE('',#424,5.3);
#388=CIRCLE('',#428,5.3);
#389=CIRCLE('',#429,5.3);
#390=CIRCLE('',#433,5.3);
#391=CIRCLE('',#434,5.3);
#392=AXIS2_PLACEMENT_3D('',#545,#443,#444);
#393=AXIS2_PLACEMENT_3D('',#546,#445,#446);
#394=AXIS2_PLACEMENT_3D('',#548,#447,#448);
#395=AXIS2_PLACEMENT_3D('',#550,#449,#450);
#396=AXIS2_PLACEMENT_3D('',#552,#451,#452);
#397=AXIS2_PLACEMENT_3D('',#554,#453,#454);
#398=AXIS2_PLACEMENT_3D('',#556,#455,#456);
#399=AXIS2_PLACEMENT_3D('',#558,#457,#458);
#400=AXIS2_PLACEMENT_3D('',#559,#459,#460);
#401=AXIS2_PLACEMENT_3D('',#561,#461,#462);
#402=AXIS2_PLACEMENT_3D('',#563,#463,#464);
#403=AXIS2_PLACEMENT_3D('',#564,#465,#466);
#404=AXIS2_PLACEMENT_3D('',#566,#467,#468);
#405=AXIS2_PLACEMENT_3D('',#568,#469,#470);
#406=AXIS2_PLACEMENT_3D('',#570,#471,#472);
#407=AXIS2_PLACEMENT_3D('',#572,#473,#474);
#408=AXIS2_PLACEMENT_3D('',#574,#475,#476);
#409=AXIS2_PLACEMENT_3D('',#576,#477,#478);
#410=AXIS2_PLACEMENT_3D('',#577,#479,#480);
#411=AXIS2_PLACEMENT_3D('',#579,#481,#482);
#412=AXIS2_PLACEMENT_3D('',#581,#483,#484);
#413=AXIS2_PLACEMENT_3D('',#582,#485,#486);
#414=AXIS2_PLACEMENT_3D('',#584,#487,#488);
#415=AXIS2_PLACEMENT_3D('',#586,#489,#490);
#416=AXIS2_PLACEMENT_3D('',#587,#491,#492);
#417=AXIS2_PLACEMENT_3D('',#589,#493,#494);
#418=AXIS2_PLACEMENT_3D('',#590,#495,#496);
#419=AXIS2_PLACEMENT_3D('',#592,#497,#498);
#420=AXIS2_PLACEMENT_3D('',#594,#499,#500);
#421=AXIS2_PLACEMENT_3D('',#595,#501,#502);
#422=AXIS2_PLACEMENT_3D('',#596,#503,#504);
#423=AXIS2_PLACEMENT_3D('',#597,#505,#506);
#424=AXIS2_PLACEMENT_3D('',#599,#507,#508);
#425=AXIS2_PLACEMENT_3D('',#601,#509,#510);
#426=AXIS2_PLACEMENT_3D('',#602,#511,#512);
#427=AXIS2_PLACEMENT_3D('',#603,#513,#514);
#428=AXIS2_PLACEMENT_3D('',#604,#515,#516);
#429=AXIS2_PLACEMENT_3D('',#606,#517,#518);
#430=AXIS2_PLACEMENT_3D('',#608,#519,#520);
#431=AXIS2_PLACEMENT_3D('',#609,#521,#522);
#432=AXIS2_PLACEMENT_3D('',#610,#523,#524);
#433=AXIS2_PLACEMENT_3D('',#611,#525,#526);
#434=AXIS2_PLACEMENT_3D('',#613,#527,#528);
#435=AXIS2_PLACEMENT_3D('',#615,#529,#530);
#436=AXIS2_PLACEMENT_3D('',#616,#531,#532);
#437=AXIS2_PLACEMENT_3D('',#617,#533,#534);
#438=AXIS2_PLACEMENT_3D('',#618,#535,#536);
#439=AXIS2_PLACEMENT_3D('',#619,#537,#538);
#440=AXIS2_PLACEMENT_3D('',#620,#539,#540);
#441=AXIS2_PLACEMENT_3D('',#621,#541,#542);
#442=AXIS2_PLACEMENT_3D('',#622,#543,#544);
#443=DIRECTION('',(0.,0.,1.));
#444=DIRECTION('',(1.,0.,0.));
#445=DIRECTION('',(-1.,0.,0.));
#446=DIRECTION('',(0.,0.,1.));
#447=DIRECTION('',(1.,0.,0.));
#448=DIRECTION('',(0.,0.,1.));
#449=DIRECTION('',(1.,0.,0.));
#450=DIRECTION('',(0.,0.,1.));
#451=DIRECTION('',(1.,0.,0.));
#452=DIRECTION('',(0.,0.,1.));
#453=DIRECTION('',(1.,0.,0.));
#454=DIRECTION('',(0.,0.,1.));
#455=DIRECTION('',(-1.,0.,0.));
#456=DIRECTION('',(0.,0.,1.));
#457=DIRECTION('',(-1.,0.,0.));
#458=DIRECTION('',(0.,0.,1.));
#459=DIRECTION('',(-1.,0.,0.));
#460=DIRECTION('',(0.,0.,-1.));
#461=DIRECTION('',(1.,0.,0.));
#462=DIRECTION('',(0.,0.,1.));
#463=DIRECTION('',(-1.,0.,0.));
#464=DIRECTION('',(0.,0.,1.));
#465=DIRECTION('',(-1.,0.,0.));
#466=DIRECTION('',(0.,0.,-1.));
#467=DIRECTION('',(1.,0.,0.));
#468=DIRECTION('',(0.,0.,-1.));
#469=DIRECTION('',(-1.,0.,0.));
#470=DIRECTION('',(0.,0.,-1.));
#471=DIRECTION('',(-1.,0.,0.));
#472=DIRECTION('',(0.,0.,-1.));
#473=DIRECTION('',(-1.,0.,0.));
#474=DIRECTION('',(0.,0.,-1.));
#475=DIRECTION('',(-1.,0.,0.));
#476=DIRECTION('',(0.,0.,-1.));
#477=DIRECTION('',(1.,0.,0.));
#478=DIRECTION('',(0.,0.,-1.));
#479=DIRECTION('',(1.,0.,0.));
#480=DIRECTION('',(0.,0.,-1.));
#481=DIRECTION('',(-1.,0.,0.));
#482=DIRECTION('',(0.,0.,1.));
#483=DIRECTION('',(-1.,0.,0.));
#484=DIRECTION('',(0.,0.,1.));
#485=DIRECTION('',(1.,0.,0.));
#486=DIRECTION('',(0.,0.,1.));
#487=DIRECTION('',(-1.,0.,0.));
#488=DIRECTION('',(0.,0.,1.));
#489=DIRECTION('',(-1.,0.,0.));
#490=DIRECTION('',(0.,0.,1.));
#491=DIRECTION('',(1.,0.,0.));
#492=DIRECTION('',(0.,0.,1.));
#493=DIRECTION('',(-1.,0.,0.));
#494=DIRECTION('',(0.,0.,1.));
#495=DIRECTION('',(1.,0.,0.));
#496=DIRECTION('',(0.,0.,-1.));
#497=DIRECTION('',(-1.,0.,0.));
#498=DIRECTION('',(0.,0.,1.));
#499=DIRECTION('',(-1.,0.,0.));
#500=DIRECTION('',(0.,0.,1.));
#501=DIRECTION('',(1.,0.,0.));
#502=DIRECTION('',(-1.00033765765216E-16,0.,-1.));
#503=DIRECTION('',(-1.,0.,0.));
#504=DIRECTION('',(6.89888039760112E-18,0.,1.));
#505=DIRECTION('',(1.,0.,0.));
#506=DIRECTION('',(0.,0.,-1.));
#507=DIRECTION('',(-1.,0.,0.));
#508=DIRECTION('',(0.,0.,1.));
#509=DIRECTION('',(-1.,0.,0.));
#510=DIRECTION('',(0.,0.,1.));
#511=DIRECTION('',(1.,0.,0.));
#512=DIRECTION('',(-1.00033765765216E-16,0.,-1.));
#513=DIRECTION('',(-1.,0.,0.));
#514=DIRECTION('',(6.89888039760112E-18,0.,1.));
#515=DIRECTION('',(1.,0.,0.));
#516=DIRECTION('',(0.,0.,-1.));
#517=DIRECTION('',(-1.,0.,0.));
#518=DIRECTION('',(0.,0.,1.));
#519=DIRECTION('',(-1.,0.,0.));
#520=DIRECTION('',(0.,0.,1.));
#521=DIRECTION('',(1.,0.,0.));
#522=DIRECTION('',(-1.00033765765216E-16,0.,-1.));
#523=DIRECTION('',(-1.,0.,0.));
#524=DIRECTION('',(6.89888039760112E-18,0.,1.));
#525=DIRECTION('',(1.,0.,0.));
#526=DIRECTION('',(0.,0.,-1.));
#527=DIRECTION('',(-1.,0.,0.));
#528=DIRECTION('',(0.,0.,1.));
#529=DIRECTION('',(-1.,0.,0.));
#530=DIRECTION('',(0.,0.,1.));
#531=DIRECTION('',(1.,0.,0.));
#532=DIRECTION('',(-1.00033765765216E-16,0.,-1.));
#533=DIRECTION('',(-1.,0.,0.));
#534=DIRECTION('',(6.89888039760112E-18,0.,1.));
#535=DIRECTION('',(1.,0.,0.));
#536=DIRECTION('',(-9.93227656531637E-17,0.,-1.));
#537=DIRECTION('',(-1.,0.,0.));
#538=DIRECTION('',(-5.43975015923591E-17,0.,1.));
#539=DIRECTION('',(-1.,0.,0.));
#540=DIRECTION('',(-4.2152159229343E-17,0.,1.));
#541=DIRECTION('',(1.,0.,0.));
#542=DIRECTION('',(6.48797933979171E-18,0.,-1.));
#543=DIRECTION('',(1.,0.,0.));
#544=DIRECTION('',(0.,0.,-1.));
#545=CARTESIAN_POINT('',(0.,0.,0.));
#546=CARTESIAN_POINT('',(6.,0.,0.));
#547=CARTESIAN_POINT('',(6.,0.,69.5));
#548=CARTESIAN_POINT('',(6.,38.89087296526,-38.8908729652603));
#549=CARTESIAN_POINT('',(6.,38.89087296526,-33.0908729652603));
#550=CARTESIAN_POINT('',(6.,-38.8908729652602,-38.89087296526));
#551=CARTESIAN_POINT('',(6.,-38.8908729652602,-33.09087296526));
#552=CARTESIAN_POINT('',(6.,-38.8908729652601,38.8908729652601));
#553=CARTESIAN_POINT('',(6.,-38.8908729652601,44.6908729652601));
#554=CARTESIAN_POINT('',(6.,38.8908729652601,38.8908729652601));
#555=CARTESIAN_POINT('',(6.,38.8908729652601,44.6908729652601));
#556=CARTESIAN_POINT('',(6.,0.,0.));
#557=CARTESIAN_POINT('',(6.,0.,34.9));
#558=CARTESIAN_POINT('',(6.,0.,34.9));
#559=CARTESIAN_POINT('',(14.5,0.,0.));
#560=CARTESIAN_POINT('',(14.5,0.,-70.));
#561=CARTESIAN_POINT('',(6.5,0.,0.));
#562=CARTESIAN_POINT('',(6.5,0.,70.));
#563=CARTESIAN_POINT('',(0.,0.,0.));
#564=CARTESIAN_POINT('',(15.,0.,0.));
#565=CARTESIAN_POINT('',(15.,0.,-13.));
#566=CARTESIAN_POINT('',(15.,0.,0.));
#567=CARTESIAN_POINT('',(15.,0.,-69.5));
#568=CARTESIAN_POINT('',(15.,38.89087296526,-38.8908729652603));
#569=CARTESIAN_POINT('',(15.,38.89087296526,-44.6908729652603));
#570=CARTESIAN_POINT('',(15.,-38.8908729652602,-38.89087296526));
#571=CARTESIAN_POINT('',(15.,-38.8908729652602,-44.69087296526));
#572=CARTESIAN_POINT('',(15.,-38.8908729652601,38.8908729652601));
#573=CARTESIAN_POINT('',(15.,-38.8908729652601,33.0908729652601));
#574=CARTESIAN_POINT('',(15.,38.8908729652601,38.8908729652601));
#575=CARTESIAN_POINT('',(15.,38.8908729652601,33.0908729652601));
#576=CARTESIAN_POINT('',(15.,0.,70.));
#577=CARTESIAN_POINT('',(14.5,0.,0.));
#578=CARTESIAN_POINT('',(14.5,0.,-12.5));
#579=CARTESIAN_POINT('',(0.5,0.,0.));
#580=CARTESIAN_POINT('',(0.5,0.,12.5));
#581=CARTESIAN_POINT('',(0.,0.,0.));
#582=CARTESIAN_POINT('',(0.,0.,0.));
#583=CARTESIAN_POINT('',(0.,0.,13.));
#584=CARTESIAN_POINT('',(0.,0.,0.));
#585=CARTESIAN_POINT('',(0.,0.,34.4));
#586=CARTESIAN_POINT('',(0.,0.,12.5));
#587=CARTESIAN_POINT('',(0.5,0.,0.));
#588=CARTESIAN_POINT('',(0.5,0.,34.9));
#589=CARTESIAN_POINT('',(0.,0.,0.));
#590=CARTESIAN_POINT('',(14.5,38.8908729652601,38.8908729652601));
#591=CARTESIAN_POINT('',(14.5,38.8908729652601,33.5908729652601));
#592=CARTESIAN_POINT('',(6.5,38.8908729652601,38.8908729652601));
#593=CARTESIAN_POINT('',(6.5,38.8908729652601,44.1908729652601));
#594=CARTESIAN_POINT('',(40.,38.8908729652601,38.8908729652601));
#595=CARTESIAN_POINT('',(15.,38.8908729652601,38.8908729652601));
#596=CARTESIAN_POINT('',(6.,38.8908729652601,38.8908729652601));
#597=CARTESIAN_POINT('',(14.5,-38.8908729652601,38.8908729652601));
#598=CARTESIAN_POINT('',(14.5,-38.8908729652601,33.5908729652601));
#599=CARTESIAN_POINT('',(6.5,-38.8908729652601,38.8908729652601));
#600=CARTESIAN_POINT('',(6.5,-38.8908729652601,44.1908729652601));
#601=CARTESIAN_POINT('',(40.,-38.8908729652601,38.8908729652601));
#602=CARTESIAN_POINT('',(15.,-38.8908729652601,38.8908729652601));
#603=CARTESIAN_POINT('',(6.,-38.8908729652601,38.8908729652601));
#604=CARTESIAN_POINT('',(14.5,-38.8908729652602,-38.89087296526));
#605=CARTESIAN_POINT('',(14.5,-38.8908729652602,-44.19087296526));
#606=CARTESIAN_POINT('',(6.5,-38.8908729652602,-38.89087296526));
#607=CARTESIAN_POINT('',(6.5,-38.8908729652602,-33.59087296526));
#608=CARTESIAN_POINT('',(40.,-38.8908729652602,-38.89087296526));
#609=CARTESIAN_POINT('',(15.,-38.8908729652602,-38.89087296526));
#610=CARTESIAN_POINT('',(6.,-38.8908729652602,-38.89087296526));
#611=CARTESIAN_POINT('',(14.5,38.89087296526,-38.8908729652603));
#612=CARTESIAN_POINT('',(14.5,38.89087296526,-44.1908729652603));
#613=CARTESIAN_POINT('',(6.5,38.89087296526,-38.8908729652603));
#614=CARTESIAN_POINT('',(6.5,38.89087296526,-33.5908729652603));
#615=CARTESIAN_POINT('',(40.,38.89087296526,-38.8908729652603));
#616=CARTESIAN_POINT('',(15.,38.89087296526,-38.8908729652603));
#617=CARTESIAN_POINT('',(6.,38.89087296526,-38.8908729652603));
#618=CARTESIAN_POINT('',(15.,0.,0.));
#619=CARTESIAN_POINT('',(0.5,0.,0.));
#620=CARTESIAN_POINT('',(14.5,0.,0.));
#621=CARTESIAN_POINT('',(6.,0.,0.));
#622=CARTESIAN_POINT('',(0.,0.,0.));
#623=(
GEOMETRIC_REPRESENTATION_CONTEXT(3)
GLOBAL_UNCERTAINTY_ASSIGNED_CONTEXT((#624))
GLOBAL_UNIT_ASSIGNED_CONTEXT((#630,#626,#625))
REPRESENTATION_CONTEXT('\X2\042104420443043F043804460430\X0\',
'TOP_LEVEL_ASSEMBLY_PART')
);
#624=UNCERTAINTY_MEASURE_WITH_UNIT(LENGTH_MEASURE(2.E-5),#630,
'DISTANCE_ACCURACY_VALUE','Maximum Tolerance applied to model');
#625=(
NAMED_UNIT(*)
SI_UNIT($,.STERADIAN.)
SOLID_ANGLE_UNIT()
);
#626=(
CONVERSION_BASED_UNIT('DEGREE',#628)
NAMED_UNIT(#627)
PLANE_ANGLE_UNIT()
);
#627=DIMENSIONAL_EXPONENTS(0.,0.,0.,0.,0.,0.,0.);
#628=PLANE_ANGLE_MEASURE_WITH_UNIT(PLANE_ANGLE_MEASURE(0.0174532925),#629);
#629=(
NAMED_UNIT(*)
PLANE_ANGLE_UNIT()
SI_UNIT($,.RADIAN.)
);
#630=(
LENGTH_UNIT()
NAMED_UNIT(*)
SI_UNIT(.MILLI.,.METRE.)
);
ENDSEC;
END-ISO-10303-21;
