ISO-10303-21;
HEADER;
/* Generated by software containing ST-Developer
 * from STEP Tools, Inc. (www.steptools.com) 
 */
/* OPTION: using custom schema-name function */

FILE_DESCRIPTION(
/* description */ (''),
/* implementation_level */ '2;1');

FILE_NAME(
/* name */ 'sd.stp',
/* time_stamp */ '2026-06-14T13:33:12+03:00',
/* author */ (''),
/* organization */ (''),
/* preprocessor_version */ 'ST-DEVELOPER v16',
/* originating_system */ 'SIEMENS PLM Software NX 10.0',
/* authorisation */ '');

FILE_SCHEMA (('CONFIG_CONTROL_DESIGN'));
ENDSEC;

DATA;
#10=SHAPE_REPRESENTATION_RELATIONSHIP('None',
'relationship between \X2\041704300433043E0442043E0432043A0430\X0\ 20x
40x100-None and \X2\041704300433043E0442043E0432043A0430\X0\ 20x40x100
-None',#92,#11);
#11=ADVANCED_BREP_SHAPE_REPRESENTATION(
'\X2\041704300433043E0442043E0432043A0430\X0\ 20x40x100-None',(#93),#663);
#12=CC_DESIGN_APPROVAL(#24,(#82));
#13=CC_DESIGN_APPROVAL(#25,(#84));
#14=CC_DESIGN_APPROVAL(#26,(#31));
#15=APPROVAL_PERSON_ORGANIZATION(#69,#24,#18);
#16=APPROVAL_PERSON_ORGANIZATION(#70,#25,#19);
#17=APPROVAL_PERSON_ORGANIZATION(#71,#26,#20);
#18=APPROVAL_ROLE('approver');
#19=APPROVAL_ROLE('approver');
#20=APPROVAL_ROLE('approver');
#21=APPROVAL_DATE_TIME(#39,#24);
#22=APPROVAL_DATE_TIME(#40,#25);
#23=APPROVAL_DATE_TIME(#41,#26);
#24=APPROVAL(#27,' ');
#25=APPROVAL(#28,' ');
#26=APPROVAL(#29,' ');
#27=APPROVAL_STATUS('not_yet_approved');
#28=APPROVAL_STATUS('not_yet_approved');
#29=APPROVAL_STATUS('not_yet_approved');
#30=CC_DESIGN_SECURITY_CLASSIFICATION(#31,(#84));
#31=SECURITY_CLASSIFICATION(' ',' ',#32);
#32=SECURITY_CLASSIFICATION_LEVEL('confidential');
#33=CC_DESIGN_DATE_AND_TIME_ASSIGNMENT(#37,#35,(#82));
#34=CC_DESIGN_DATE_AND_TIME_ASSIGNMENT(#38,#36,(#31));
#35=DATE_TIME_ROLE('creation_date');
#36=DATE_TIME_ROLE('classification_date');
#37=DATE_AND_TIME(#52,#42);
#38=DATE_AND_TIME(#53,#43);
#39=DATE_AND_TIME(#54,#44);
#40=DATE_AND_TIME(#55,#45);
#41=DATE_AND_TIME(#56,#46);
#42=LOCAL_TIME(0,0,0.,#47);
#43=LOCAL_TIME(0,0,0.,#48);
#44=LOCAL_TIME(0,0,0.,#49);
#45=LOCAL_TIME(0,0,0.,#50);
#46=LOCAL_TIME(0,0,0.,#51);
#47=COORDINATED_UNIVERSAL_TIME_OFFSET(0,0,.BEHIND.);
#48=COORDINATED_UNIVERSAL_TIME_OFFSET(0,0,.BEHIND.);
#49=COORDINATED_UNIVERSAL_TIME_OFFSET(0,0,.BEHIND.);
#50=COORDINATED_UNIVERSAL_TIME_OFFSET(0,0,.BEHIND.);
#51=COORDINATED_UNIVERSAL_TIME_OFFSET(0,0,.BEHIND.);
#52=CALENDAR_DATE(0,1,1);
#53=CALENDAR_DATE(0,1,1);
#54=CALENDAR_DATE(0,1,1);
#55=CALENDAR_DATE(0,1,1);
#56=CALENDAR_DATE(0,1,1);
#57=CC_DESIGN_PERSON_AND_ORGANIZATION_ASSIGNMENT(#65,#61,(#82,#84));
#58=CC_DESIGN_PERSON_AND_ORGANIZATION_ASSIGNMENT(#66,#62,(#86));
#59=CC_DESIGN_PERSON_AND_ORGANIZATION_ASSIGNMENT(#67,#63,(#84));
#60=CC_DESIGN_PERSON_AND_ORGANIZATION_ASSIGNMENT(#68,#64,(#31));
#61=PERSON_AND_ORGANIZATION_ROLE('creator');
#62=PERSON_AND_ORGANIZATION_ROLE('design_owner');
#63=PERSON_AND_ORGANIZATION_ROLE('design_supplier');
#64=PERSON_AND_ORGANIZATION_ROLE('classification_officer');
#65=PERSON_AND_ORGANIZATION(#79,#72);
#66=PERSON_AND_ORGANIZATION(#79,#73);
#67=PERSON_AND_ORGANIZATION(#79,#74);
#68=PERSON_AND_ORGANIZATION(#79,#75);
#69=PERSON_AND_ORGANIZATION(#79,#76);
#70=PERSON_AND_ORGANIZATION(#79,#77);
#71=PERSON_AND_ORGANIZATION(#79,#78);
#72=ORGANIZATION(' ',' ',' ');
#73=ORGANIZATION(' ',' ',' ');
#74=ORGANIZATION(' ',' ',' ');
#75=ORGANIZATION(' ',' ',' ');
#76=ORGANIZATION(' ',' ',' ');
#77=ORGANIZATION(' ',' ',' ');
#78=ORGANIZATION(' ',' ',' ');
#79=PERSON(' ',' ',' ',(' '),$,$);
#80=SHAPE_DEFINITION_REPRESENTATION(#81,#92);
#81=PRODUCT_DEFINITION_SHAPE('','',#82);
#82=PRODUCT_DEFINITION(' ','',#84,#83);
#83=DESIGN_CONTEXT('',#91,'design');
#84=PRODUCT_DEFINITION_FORMATION_WITH_SPECIFIED_SOURCE(' ',' ',#86,
 .NOT_KNOWN.);
#85=PRODUCT_RELATED_PRODUCT_CATEGORY('detail','',(#86));
#86=PRODUCT('\X2\041704300433043E0442043E0432043A0430\X0\ 20x40x100',
'\X2\041704300433043E0442043E0432043A0430\X0\ 20x40x100',' ',(#89));
#87=PRODUCT_CATEGORY('part',' ');
#88=PRODUCT_CATEGORY(' ','');
#89=MECHANICAL_CONTEXT(' ',#91,'mechanical');
#90=APPLICATION_PROTOCOL_DEFINITION('international standard',
'config_control_design',2010,#91);
#91=APPLICATION_CONTEXT(
'configuration controlled 3D designs of mechanical parts and assemblie
s');
#92=SHAPE_REPRESENTATION('\X2\041704300433043E0442043E0432043A0430\X0\ 
20x40x100-None',(#427),#663);
#93=MANIFOLD_SOLID_BREP('',#94);
#94=CLOSED_SHELL('',(#123,#124,#125,#126,#127,#128,#129,#130,#131,#132,
#133,#134,#135,#136,#137,#138,#139,#140));
#95=FACE_BOUND('',#183,.T.);
#96=FACE_BOUND('',#184,.T.);
#97=FACE_BOUND('',#185,.T.);
#98=FACE_BOUND('',#186,.T.);
#99=CYLINDRICAL_SURFACE('',#431,1.5);
#100=CYLINDRICAL_SURFACE('',#435,1.5);
#101=CYLINDRICAL_SURFACE('',#439,1.5);
#102=CYLINDRICAL_SURFACE('',#444,1.5);
#103=CYLINDRICAL_SURFACE('',#448,1.5);
#104=CYLINDRICAL_SURFACE('',#452,1.5);
#105=CYLINDRICAL_SURFACE('',#456,1.5);
#106=CYLINDRICAL_SURFACE('',#459,1.5);
#107=CIRCLE('',#429,1.5);
#108=CIRCLE('',#430,1.5);
#109=CIRCLE('',#433,1.5);
#110=CIRCLE('',#434,1.5);
#111=CIRCLE('',#437,1.5);
#112=CIRCLE('',#438,1.5);
#113=CIRCLE('',#442,1.5);
#114=CIRCLE('',#443,1.5);
#115=CIRCLE('',#446,1.5);
#116=CIRCLE('',#447,1.5);
#117=CIRCLE('',#450,1.5);
#118=CIRCLE('',#451,1.5);
#119=CIRCLE('',#454,1.5);
#120=CIRCLE('',#455,1.5);
#121=CIRCLE('',#457,1.5);
#122=CIRCLE('',#458,1.5);
#123=ADVANCED_FACE('',(#151),#141,.F.);
#124=ADVANCED_FACE('',(#152),#99,.F.);
#125=ADVANCED_FACE('',(#153),#142,.F.);
#126=ADVANCED_FACE('',(#154),#100,.F.);
#127=ADVANCED_FACE('',(#155),#143,.F.);
#128=ADVANCED_FACE('',(#156),#101,.F.);
#129=ADVANCED_FACE('',(#157),#144,.F.);
#130=ADVANCED_FACE('',(#158),#145,.F.);
#131=ADVANCED_FACE('',(#159),#102,.T.);
#132=ADVANCED_FACE('',(#160),#146,.F.);
#133=ADVANCED_FACE('',(#161),#103,.T.);
#134=ADVANCED_FACE('',(#162),#147,.F.);
#135=ADVANCED_FACE('',(#163),#104,.T.);
#136=ADVANCED_FACE('',(#164),#148,.F.);
#137=ADVANCED_FACE('',(#165),#105,.T.);
#138=ADVANCED_FACE('',(#166),#106,.F.);
#139=ADVANCED_FACE('',(#95,#96),#149,.T.);
#140=ADVANCED_FACE('',(#97,#98),#150,.F.);
#141=PLANE('',#428);
#142=PLANE('',#432);
#143=PLANE('',#436);
#144=PLANE('',#440);
#145=PLANE('',#441);
#146=PLANE('',#445);
#147=PLANE('',#449);
#148=PLANE('',#453);
#149=PLANE('',#460);
#150=PLANE('',#461);
#151=FACE_OUTER_BOUND('',#167,.T.);
#152=FACE_OUTER_BOUND('',#168,.T.);
#153=FACE_OUTER_BOUND('',#169,.T.);
#154=FACE_OUTER_BOUND('',#170,.T.);
#155=FACE_OUTER_BOUND('',#171,.T.);
#156=FACE_OUTER_BOUND('',#172,.T.);
#157=FACE_OUTER_BOUND('',#173,.T.);
#158=FACE_OUTER_BOUND('',#174,.T.);
#159=FACE_OUTER_BOUND('',#175,.T.);
#160=FACE_OUTER_BOUND('',#176,.T.);
#161=FACE_OUTER_BOUND('',#177,.T.);
#162=FACE_OUTER_BOUND('',#178,.T.);
#163=FACE_OUTER_BOUND('',#179,.T.);
#164=FACE_OUTER_BOUND('',#180,.T.);
#165=FACE_OUTER_BOUND('',#181,.T.);
#166=FACE_OUTER_BOUND('',#182,.T.);
#167=EDGE_LOOP('',(#187,#188,#189,#190));
#168=EDGE_LOOP('',(#191,#192,#193,#194));
#169=EDGE_LOOP('',(#195,#196,#197,#198));
#170=EDGE_LOOP('',(#199,#200,#201,#202));
#171=EDGE_LOOP('',(#203,#204,#205,#206));
#172=EDGE_LOOP('',(#207,#208,#209,#210));
#173=EDGE_LOOP('',(#211,#212,#213,#214));
#174=EDGE_LOOP('',(#215,#216,#217,#218));
#175=EDGE_LOOP('',(#219,#220,#221,#222));
#176=EDGE_LOOP('',(#223,#224,#225,#226));
#177=EDGE_LOOP('',(#227,#228,#229,#230));
#178=EDGE_LOOP('',(#231,#232,#233,#234));
#179=EDGE_LOOP('',(#235,#236,#237,#238));
#180=EDGE_LOOP('',(#239,#240,#241,#242));
#181=EDGE_LOOP('',(#243,#244,#245,#246));
#182=EDGE_LOOP('',(#247,#248,#249,#250));
#183=EDGE_LOOP('',(#251,#252,#253,#254,#255,#256,#257,#258));
#184=EDGE_LOOP('',(#259,#260,#261,#262,#263,#264,#265,#266));
#185=EDGE_LOOP('',(#267,#268,#269,#270,#271,#272,#273,#274));
#186=EDGE_LOOP('',(#275,#276,#277,#278,#279,#280,#281,#282));
#187=ORIENTED_EDGE('',*,*,#315,.T.);
#188=ORIENTED_EDGE('',*,*,#316,.F.);
#189=ORIENTED_EDGE('',*,*,#317,.F.);
#190=ORIENTED_EDGE('',*,*,#318,.T.);
#191=ORIENTED_EDGE('',*,*,#319,.T.);
#192=ORIENTED_EDGE('',*,*,#320,.F.);
#193=ORIENTED_EDGE('',*,*,#321,.F.);
#194=ORIENTED_EDGE('',*,*,#316,.T.);
#195=ORIENTED_EDGE('',*,*,#322,.T.);
#196=ORIENTED_EDGE('',*,*,#323,.F.);
#197=ORIENTED_EDGE('',*,*,#324,.F.);
#198=ORIENTED_EDGE('',*,*,#320,.T.);
#199=ORIENTED_EDGE('',*,*,#325,.T.);
#200=ORIENTED_EDGE('',*,*,#326,.F.);
#201=ORIENTED_EDGE('',*,*,#327,.F.);
#202=ORIENTED_EDGE('',*,*,#323,.T.);
#203=ORIENTED_EDGE('',*,*,#328,.T.);
#204=ORIENTED_EDGE('',*,*,#329,.F.);
#205=ORIENTED_EDGE('',*,*,#330,.F.);
#206=ORIENTED_EDGE('',*,*,#326,.T.);
#207=ORIENTED_EDGE('',*,*,#331,.T.);
#208=ORIENTED_EDGE('',*,*,#332,.F.);
#209=ORIENTED_EDGE('',*,*,#333,.F.);
#210=ORIENTED_EDGE('',*,*,#329,.T.);
#211=ORIENTED_EDGE('',*,*,#334,.T.);
#212=ORIENTED_EDGE('',*,*,#335,.F.);
#213=ORIENTED_EDGE('',*,*,#336,.F.);
#214=ORIENTED_EDGE('',*,*,#332,.T.);
#215=ORIENTED_EDGE('',*,*,#337,.T.);
#216=ORIENTED_EDGE('',*,*,#338,.F.);
#217=ORIENTED_EDGE('',*,*,#339,.F.);
#218=ORIENTED_EDGE('',*,*,#340,.T.);
#219=ORIENTED_EDGE('',*,*,#341,.T.);
#220=ORIENTED_EDGE('',*,*,#342,.F.);
#221=ORIENTED_EDGE('',*,*,#343,.F.);
#222=ORIENTED_EDGE('',*,*,#338,.T.);
#223=ORIENTED_EDGE('',*,*,#344,.T.);
#224=ORIENTED_EDGE('',*,*,#345,.F.);
#225=ORIENTED_EDGE('',*,*,#346,.F.);
#226=ORIENTED_EDGE('',*,*,#342,.T.);
#227=ORIENTED_EDGE('',*,*,#347,.T.);
#228=ORIENTED_EDGE('',*,*,#348,.F.);
#229=ORIENTED_EDGE('',*,*,#349,.F.);
#230=ORIENTED_EDGE('',*,*,#345,.T.);
#231=ORIENTED_EDGE('',*,*,#350,.T.);
#232=ORIENTED_EDGE('',*,*,#351,.F.);
#233=ORIENTED_EDGE('',*,*,#352,.F.);
#234=ORIENTED_EDGE('',*,*,#348,.T.);
#235=ORIENTED_EDGE('',*,*,#353,.T.);
#236=ORIENTED_EDGE('',*,*,#354,.F.);
#237=ORIENTED_EDGE('',*,*,#355,.F.);
#238=ORIENTED_EDGE('',*,*,#351,.T.);
#239=ORIENTED_EDGE('',*,*,#356,.T.);
#240=ORIENTED_EDGE('',*,*,#357,.F.);
#241=ORIENTED_EDGE('',*,*,#358,.F.);
#242=ORIENTED_EDGE('',*,*,#354,.T.);
#243=ORIENTED_EDGE('',*,*,#359,.T.);
#244=ORIENTED_EDGE('',*,*,#340,.F.);
#245=ORIENTED_EDGE('',*,*,#360,.F.);
#246=ORIENTED_EDGE('',*,*,#357,.T.);
#247=ORIENTED_EDGE('',*,*,#361,.T.);
#248=ORIENTED_EDGE('',*,*,#318,.F.);
#249=ORIENTED_EDGE('',*,*,#362,.F.);
#250=ORIENTED_EDGE('',*,*,#335,.T.);
#251=ORIENTED_EDGE('',*,*,#339,.T.);
#252=ORIENTED_EDGE('',*,*,#343,.T.);
#253=ORIENTED_EDGE('',*,*,#346,.T.);
#254=ORIENTED_EDGE('',*,*,#349,.T.);
#255=ORIENTED_EDGE('',*,*,#352,.T.);
#256=ORIENTED_EDGE('',*,*,#355,.T.);
#257=ORIENTED_EDGE('',*,*,#358,.T.);
#258=ORIENTED_EDGE('',*,*,#360,.T.);
#259=ORIENTED_EDGE('',*,*,#317,.T.);
#260=ORIENTED_EDGE('',*,*,#321,.T.);
#261=ORIENTED_EDGE('',*,*,#324,.T.);
#262=ORIENTED_EDGE('',*,*,#327,.T.);
#263=ORIENTED_EDGE('',*,*,#330,.T.);
#264=ORIENTED_EDGE('',*,*,#333,.T.);
#265=ORIENTED_EDGE('',*,*,#336,.T.);
#266=ORIENTED_EDGE('',*,*,#362,.T.);
#267=ORIENTED_EDGE('',*,*,#337,.F.);
#268=ORIENTED_EDGE('',*,*,#359,.F.);
#269=ORIENTED_EDGE('',*,*,#356,.F.);
#270=ORIENTED_EDGE('',*,*,#353,.F.);
#271=ORIENTED_EDGE('',*,*,#350,.F.);
#272=ORIENTED_EDGE('',*,*,#347,.F.);
#273=ORIENTED_EDGE('',*,*,#344,.F.);
#274=ORIENTED_EDGE('',*,*,#341,.F.);
#275=ORIENTED_EDGE('',*,*,#315,.F.);
#276=ORIENTED_EDGE('',*,*,#361,.F.);
#277=ORIENTED_EDGE('',*,*,#334,.F.);
#278=ORIENTED_EDGE('',*,*,#331,.F.);
#279=ORIENTED_EDGE('',*,*,#328,.F.);
#280=ORIENTED_EDGE('',*,*,#325,.F.);
#281=ORIENTED_EDGE('',*,*,#322,.F.);
#282=ORIENTED_EDGE('',*,*,#319,.F.);
#283=VERTEX_POINT('',#566);
#284=VERTEX_POINT('',#567);
#285=VERTEX_POINT('',#569);
#286=VERTEX_POINT('',#571);
#287=VERTEX_POINT('',#575);
#288=VERTEX_POINT('',#577);
#289=VERTEX_POINT('',#581);
#290=VERTEX_POINT('',#583);
#291=VERTEX_POINT('',#587);
#292=VERTEX_POINT('',#589);
#293=VERTEX_POINT('',#593);
#294=VERTEX_POINT('',#595);
#295=VERTEX_POINT('',#599);
#296=VERTEX_POINT('',#601);
#297=VERTEX_POINT('',#605);
#298=VERTEX_POINT('',#607);
#299=VERTEX_POINT('',#611);
#300=VERTEX_POINT('',#612);
#301=VERTEX_POINT('',#614);
#302=VERTEX_POINT('',#616);
#303=VERTEX_POINT('',#620);
#304=VERTEX_POINT('',#622);
#305=VERTEX_POINT('',#626);
#306=VERTEX_POINT('',#628);
#307=VERTEX_POINT('',#632);
#308=VERTEX_POINT('',#634);
#309=VERTEX_POINT('',#638);
#310=VERTEX_POINT('',#640);
#311=VERTEX_POINT('',#644);
#312=VERTEX_POINT('',#646);
#313=VERTEX_POINT('',#650);
#314=VERTEX_POINT('',#652);
#315=EDGE_CURVE('',#283,#284,#363,.T.);
#316=EDGE_CURVE('',#285,#284,#364,.T.);
#317=EDGE_CURVE('',#286,#285,#365,.T.);
#318=EDGE_CURVE('',#286,#283,#366,.T.);
#319=EDGE_CURVE('',#284,#287,#107,.T.);
#320=EDGE_CURVE('',#288,#287,#367,.T.);
#321=EDGE_CURVE('',#285,#288,#108,.T.);
#322=EDGE_CURVE('',#287,#289,#368,.T.);
#323=EDGE_CURVE('',#290,#289,#369,.T.);
#324=EDGE_CURVE('',#288,#290,#370,.T.);
#325=EDGE_CURVE('',#289,#291,#109,.T.);
#326=EDGE_CURVE('',#292,#291,#371,.T.);
#327=EDGE_CURVE('',#290,#292,#110,.T.);
#328=EDGE_CURVE('',#291,#293,#372,.T.);
#329=EDGE_CURVE('',#294,#293,#373,.T.);
#330=EDGE_CURVE('',#292,#294,#374,.T.);
#331=EDGE_CURVE('',#293,#295,#111,.T.);
#332=EDGE_CURVE('',#296,#295,#375,.T.);
#333=EDGE_CURVE('',#294,#296,#112,.T.);
#334=EDGE_CURVE('',#295,#297,#376,.T.);
#335=EDGE_CURVE('',#298,#297,#377,.T.);
#336=EDGE_CURVE('',#296,#298,#378,.T.);
#337=EDGE_CURVE('',#299,#300,#379,.T.);
#338=EDGE_CURVE('',#301,#300,#380,.T.);
#339=EDGE_CURVE('',#302,#301,#381,.T.);
#340=EDGE_CURVE('',#302,#299,#382,.T.);
#341=EDGE_CURVE('',#300,#303,#113,.T.);
#342=EDGE_CURVE('',#304,#303,#383,.T.);
#343=EDGE_CURVE('',#301,#304,#114,.T.);
#344=EDGE_CURVE('',#303,#305,#384,.T.);
#345=EDGE_CURVE('',#306,#305,#385,.T.);
#346=EDGE_CURVE('',#304,#306,#386,.T.);
#347=EDGE_CURVE('',#305,#307,#115,.T.);
#348=EDGE_CURVE('',#308,#307,#387,.T.);
#349=EDGE_CURVE('',#306,#308,#116,.T.);
#350=EDGE_CURVE('',#307,#309,#388,.T.);
#351=EDGE_CURVE('',#310,#309,#389,.T.);
#352=EDGE_CURVE('',#308,#310,#390,.T.);
#353=EDGE_CURVE('',#309,#311,#117,.T.);
#354=EDGE_CURVE('',#312,#311,#391,.T.);
#355=EDGE_CURVE('',#310,#312,#118,.T.);
#356=EDGE_CURVE('',#311,#313,#392,.T.);
#357=EDGE_CURVE('',#314,#313,#393,.T.);
#358=EDGE_CURVE('',#312,#314,#394,.T.);
#359=EDGE_CURVE('',#313,#299,#119,.T.);
#360=EDGE_CURVE('',#314,#302,#120,.T.);
#361=EDGE_CURVE('',#297,#283,#121,.T.);
#362=EDGE_CURVE('',#298,#286,#122,.T.);
#363=LINE('',#565,#395);
#364=LINE('',#568,#396);
#365=LINE('',#570,#397);
#366=LINE('',#572,#398);
#367=LINE('',#576,#399);
#368=LINE('',#580,#400);
#369=LINE('',#582,#401);
#370=LINE('',#584,#402);
#371=LINE('',#588,#403);
#372=LINE('',#592,#404);
#373=LINE('',#594,#405);
#374=LINE('',#596,#406);
#375=LINE('',#600,#407);
#376=LINE('',#604,#408);
#377=LINE('',#606,#409);
#378=LINE('',#608,#410);
#379=LINE('',#610,#411);
#380=LINE('',#613,#412);
#381=LINE('',#615,#413);
#382=LINE('',#617,#414);
#383=LINE('',#621,#415);
#384=LINE('',#625,#416);
#385=LINE('',#627,#417);
#386=LINE('',#629,#418);
#387=LINE('',#633,#419);
#388=LINE('',#637,#420);
#389=LINE('',#639,#421);
#390=LINE('',#641,#422);
#391=LINE('',#645,#423);
#392=LINE('',#649,#424);
#393=LINE('',#651,#425);
#394=LINE('',#653,#426);
#395=VECTOR('',#464,1.);
#396=VECTOR('',#465,1.);
#397=VECTOR('',#466,1.);
#398=VECTOR('',#467,1.);
#399=VECTOR('',#472,1.);
#400=VECTOR('',#477,1.);
#401=VECTOR('',#478,1.);
#402=VECTOR('',#479,1.);
#403=VECTOR('',#484,1.);
#404=VECTOR('',#489,1.);
#405=VECTOR('',#490,1.);
#406=VECTOR('',#491,1.);
#407=VECTOR('',#496,1.);
#408=VECTOR('',#501,1.);
#409=VECTOR('',#502,1.);
#410=VECTOR('',#503,1.);
#411=VECTOR('',#506,1.);
#412=VECTOR('',#507,1.);
#413=VECTOR('',#508,1.);
#414=VECTOR('',#509,1.);
#415=VECTOR('',#514,1.);
#416=VECTOR('',#519,1.);
#417=VECTOR('',#520,1.);
#418=VECTOR('',#521,1.);
#419=VECTOR('',#526,1.);
#420=VECTOR('',#531,1.);
#421=VECTOR('',#532,1.);
#422=VECTOR('',#533,1.);
#423=VECTOR('',#538,1.);
#424=VECTOR('',#543,1.);
#425=VECTOR('',#544,1.);
#426=VECTOR('',#545,1.);
#427=AXIS2_PLACEMENT_3D('',#564,#462,#463);
#428=AXIS2_PLACEMENT_3D('',#573,#468,#469);
#429=AXIS2_PLACEMENT_3D('',#574,#470,#471);
#430=AXIS2_PLACEMENT_3D('',#578,#473,#474);
#431=AXIS2_PLACEMENT_3D('',#579,#475,#476);
#432=AXIS2_PLACEMENT_3D('',#585,#480,#481);
#433=AXIS2_PLACEMENT_3D('',#586,#482,#483);
#434=AXIS2_PLACEMENT_3D('',#590,#485,#486);
#435=AXIS2_PLACEMENT_3D('',#591,#487,#488);
#436=AXIS2_PLACEMENT_3D('',#597,#492,#493);
#437=AXIS2_PLACEMENT_3D('',#598,#494,#495);
#438=AXIS2_PLACEMENT_3D('',#602,#497,#498);
#439=AXIS2_PLACEMENT_3D('',#603,#499,#500);
#440=AXIS2_PLACEMENT_3D('',#609,#504,#505);
#441=AXIS2_PLACEMENT_3D('',#618,#510,#511);
#442=AXIS2_PLACEMENT_3D('',#619,#512,#513);
#443=AXIS2_PLACEMENT_3D('',#623,#515,#516);
#444=AXIS2_PLACEMENT_3D('',#624,#517,#518);
#445=AXIS2_PLACEMENT_3D('',#630,#522,#523);
#446=AXIS2_PLACEMENT_3D('',#631,#524,#525);
#447=AXIS2_PLACEMENT_3D('',#635,#527,#528);
#448=AXIS2_PLACEMENT_3D('',#636,#529,#530);
#449=AXIS2_PLACEMENT_3D('',#642,#534,#535);
#450=AXIS2_PLACEMENT_3D('',#643,#536,#537);
#451=AXIS2_PLACEMENT_3D('',#647,#539,#540);
#452=AXIS2_PLACEMENT_3D('',#648,#541,#542);
#453=AXIS2_PLACEMENT_3D('',#654,#546,#547);
#454=AXIS2_PLACEMENT_3D('',#655,#548,#549);
#455=AXIS2_PLACEMENT_3D('',#656,#550,#551);
#456=AXIS2_PLACEMENT_3D('',#657,#552,#553);
#457=AXIS2_PLACEMENT_3D('',#658,#554,#555);
#458=AXIS2_PLACEMENT_3D('',#659,#556,#557);
#459=AXIS2_PLACEMENT_3D('',#660,#558,#559);
#460=AXIS2_PLACEMENT_3D('',#661,#560,#561);
#461=AXIS2_PLACEMENT_3D('',#662,#562,#563);
#462=DIRECTION('',(0.,0.,1.));
#463=DIRECTION('',(1.,0.,0.));
#464=DIRECTION('',(0.,0.,1.));
#465=DIRECTION('',(0.,1.,0.));
#466=DIRECTION('',(0.,0.,1.));
#467=DIRECTION('',(0.,1.,0.));
#468=DIRECTION('',(-1.,0.,0.));
#469=DIRECTION('',(0.,0.,1.));
#470=DIRECTION('',(0.,1.,0.));
#471=DIRECTION('',(1.,0.,0.));
#472=DIRECTION('',(0.,1.,0.));
#473=DIRECTION('',(0.,1.,0.));
#474=DIRECTION('',(1.,0.,0.));
#475=DIRECTION('',(0.,1.,0.));
#476=DIRECTION('',(0.,0.,1.));
#477=DIRECTION('',(1.,0.,0.));
#478=DIRECTION('',(0.,1.,0.));
#479=DIRECTION('',(1.,0.,0.));
#480=DIRECTION('',(0.,0.,1.));
#481=DIRECTION('',(1.,0.,0.));
#482=DIRECTION('',(0.,1.,0.));
#483=DIRECTION('',(1.,0.,0.));
#484=DIRECTION('',(0.,1.,0.));
#485=DIRECTION('',(0.,1.,0.));
#486=DIRECTION('',(1.,0.,0.));
#487=DIRECTION('',(0.,1.,0.));
#488=DIRECTION('',(0.,0.,1.));
#489=DIRECTION('',(0.,0.,-1.));
#490=DIRECTION('',(0.,1.,0.));
#491=DIRECTION('',(0.,0.,-1.));
#492=DIRECTION('',(1.,0.,0.));
#493=DIRECTION('',(0.,0.,-1.));
#494=DIRECTION('',(0.,1.,0.));
#495=DIRECTION('',(0.999999999999999,0.,0.));
#496=DIRECTION('',(0.,1.,0.));
#497=DIRECTION('',(0.,1.,0.));
#498=DIRECTION('',(0.999999999999999,0.,0.));
#499=DIRECTION('',(0.,1.,0.));
#500=DIRECTION('',(0.,0.,1.));
#501=DIRECTION('',(-1.,0.,0.));
#502=DIRECTION('',(0.,1.,0.));
#503=DIRECTION('',(-1.,0.,0.));
#504=DIRECTION('',(0.,0.,-1.));
#505=DIRECTION('',(-1.,0.,0.));
#506=DIRECTION('',(0.,0.,-1.));
#507=DIRECTION('',(0.,1.,0.));
#508=DIRECTION('',(0.,0.,-1.));
#509=DIRECTION('',(0.,1.,0.));
#510=DIRECTION('',(1.,0.,0.));
#511=DIRECTION('',(0.,0.,-1.));
#512=DIRECTION('',(0.,-1.,0.));
#513=DIRECTION('',(1.,0.,0.));
#514=DIRECTION('',(0.,1.,0.));
#515=DIRECTION('',(0.,-1.,0.));
#516=DIRECTION('',(1.,0.,0.));
#517=DIRECTION('',(0.,1.,0.));
#518=DIRECTION('',(0.,0.,1.));
#519=DIRECTION('',(1.,0.,0.));
#520=DIRECTION('',(0.,1.,0.));
#521=DIRECTION('',(1.,0.,0.));
#522=DIRECTION('',(0.,0.,1.));
#523=DIRECTION('',(1.,0.,0.));
#524=DIRECTION('',(0.,-1.,0.));
#525=DIRECTION('',(1.,0.,0.));
#526=DIRECTION('',(0.,1.,0.));
#527=DIRECTION('',(0.,-1.,0.));
#528=DIRECTION('',(1.,0.,0.));
#529=DIRECTION('',(0.,1.,0.));
#530=DIRECTION('',(0.,0.,1.));
#531=DIRECTION('',(0.,0.,1.));
#532=DIRECTION('',(0.,1.,0.));
#533=DIRECTION('',(0.,0.,1.));
#534=DIRECTION('',(-1.,0.,0.));
#535=DIRECTION('',(0.,0.,1.));
#536=DIRECTION('',(0.,-1.,0.));
#537=DIRECTION('',(1.,0.,0.));
#538=DIRECTION('',(0.,1.,0.));
#539=DIRECTION('',(0.,-1.,0.));
#540=DIRECTION('',(1.,0.,0.));
#541=DIRECTION('',(0.,1.,0.));
#542=DIRECTION('',(0.,0.,1.));
#543=DIRECTION('',(-1.,0.,0.));
#544=DIRECTION('',(0.,1.,0.));
#545=DIRECTION('',(-1.,0.,0.));
#546=DIRECTION('',(0.,0.,-1.));
#547=DIRECTION('',(-1.,0.,0.));
#548=DIRECTION('',(0.,-1.,0.));
#549=DIRECTION('',(1.,0.,0.));
#550=DIRECTION('',(0.,-1.,0.));
#551=DIRECTION('',(1.,0.,0.));
#552=DIRECTION('',(0.,1.,0.));
#553=DIRECTION('',(0.,0.,1.));
#554=DIRECTION('',(0.,1.,0.));
#555=DIRECTION('',(1.,0.,0.));
#556=DIRECTION('',(0.,1.,0.));
#557=DIRECTION('',(1.,0.,0.));
#558=DIRECTION('',(0.,1.,0.));
#559=DIRECTION('',(0.,0.,1.));
#560=DIRECTION('',(0.,-1.,0.));
#561=DIRECTION('',(0.,0.,-1.));
#562=DIRECTION('',(0.,-1.,0.));
#563=DIRECTION('',(0.,0.,-1.));
#564=CARTESIAN_POINT('',(0.,0.,0.));
#565=CARTESIAN_POINT('',(-18.,0.,-6.50000000000001));
#566=CARTESIAN_POINT('',(-18.,0.,-6.50000000000001));
#567=CARTESIAN_POINT('',(-18.,0.,6.50000000000001));
#568=CARTESIAN_POINT('',(-18.,-100.,6.50000000000001));
#569=CARTESIAN_POINT('',(-18.,-100.,6.50000000000001));
#570=CARTESIAN_POINT('',(-18.,-100.,-6.50000000000001));
#571=CARTESIAN_POINT('',(-18.,-100.,-6.50000000000001));
#572=CARTESIAN_POINT('',(-18.,-100.,-6.50000000000001));
#573=CARTESIAN_POINT('',(-18.,-100.,-6.50000000000001));
#574=CARTESIAN_POINT('',(-16.5,0.,6.50000000000001));
#575=CARTESIAN_POINT('',(-16.5,0.,8.00000000000002));
#576=CARTESIAN_POINT('',(-16.5,-100.,8.00000000000002));
#577=CARTESIAN_POINT('',(-16.5,-100.,8.00000000000002));
#578=CARTESIAN_POINT('',(-16.5,-100.,6.50000000000001));
#579=CARTESIAN_POINT('',(-16.5,-100.,6.50000000000001));
#580=CARTESIAN_POINT('',(-16.5,0.,8.00000000000002));
#581=CARTESIAN_POINT('',(16.5,0.,8.00000000000002));
#582=CARTESIAN_POINT('',(16.5,-100.,8.00000000000002));
#583=CARTESIAN_POINT('',(16.5,-100.,8.00000000000002));
#584=CARTESIAN_POINT('',(-16.5,-100.,8.00000000000002));
#585=CARTESIAN_POINT('',(-16.5,-100.,8.00000000000002));
#586=CARTESIAN_POINT('',(16.5,0.,6.50000000000001));
#587=CARTESIAN_POINT('',(18.,0.,6.50000000000001));
#588=CARTESIAN_POINT('',(18.,-100.,6.50000000000001));
#589=CARTESIAN_POINT('',(18.,-100.,6.50000000000001));
#590=CARTESIAN_POINT('',(16.5,-100.,6.50000000000001));
#591=CARTESIAN_POINT('',(16.5,-100.,6.50000000000001));
#592=CARTESIAN_POINT('',(18.,0.,6.50000000000001));
#593=CARTESIAN_POINT('',(18.,0.,-6.50000000000001));
#594=CARTESIAN_POINT('',(18.,-100.,-6.50000000000001));
#595=CARTESIAN_POINT('',(18.,-100.,-6.50000000000001));
#596=CARTESIAN_POINT('',(18.,-100.,6.50000000000001));
#597=CARTESIAN_POINT('',(18.,-100.,6.50000000000001));
#598=CARTESIAN_POINT('',(16.5,0.,-6.50000000000001));
#599=CARTESIAN_POINT('',(16.5,0.,-8.00000000000002));
#600=CARTESIAN_POINT('',(16.5,-100.,-8.00000000000002));
#601=CARTESIAN_POINT('',(16.5,-100.,-8.00000000000002));
#602=CARTESIAN_POINT('',(16.5,-100.,-6.50000000000001));
#603=CARTESIAN_POINT('',(16.5,-100.,-6.50000000000001));
#604=CARTESIAN_POINT('',(16.5,0.,-8.00000000000002));
#605=CARTESIAN_POINT('',(-16.5,0.,-8.00000000000002));
#606=CARTESIAN_POINT('',(-16.5,-100.,-8.00000000000002));
#607=CARTESIAN_POINT('',(-16.5,-100.,-8.00000000000002));
#608=CARTESIAN_POINT('',(16.5,-100.,-8.00000000000002));
#609=CARTESIAN_POINT('',(16.5,-100.,-8.00000000000002));
#610=CARTESIAN_POINT('',(-20.,0.,8.50000000000001));
#611=CARTESIAN_POINT('',(-20.,0.,8.50000000000001));
#612=CARTESIAN_POINT('',(-20.,0.,-8.50000000000001));
#613=CARTESIAN_POINT('',(-20.,-100.,-8.50000000000001));
#614=CARTESIAN_POINT('',(-20.,-100.,-8.50000000000001));
#615=CARTESIAN_POINT('',(-20.,-100.,8.50000000000001));
#616=CARTESIAN_POINT('',(-20.,-100.,8.50000000000001));
#617=CARTESIAN_POINT('',(-20.,-100.,8.50000000000001));
#618=CARTESIAN_POINT('',(-20.,-100.,8.50000000000001));
#619=CARTESIAN_POINT('',(-18.5,0.,-8.50000000000001));
#620=CARTESIAN_POINT('',(-18.5,0.,-10.));
#621=CARTESIAN_POINT('',(-18.5,-100.,-10.));
#622=CARTESIAN_POINT('',(-18.5,-100.,-10.));
#623=CARTESIAN_POINT('',(-18.5,-100.,-8.50000000000001));
#624=CARTESIAN_POINT('',(-18.5,-100.,-8.50000000000001));
#625=CARTESIAN_POINT('',(-18.5,0.,-10.));
#626=CARTESIAN_POINT('',(18.5,0.,-10.));
#627=CARTESIAN_POINT('',(18.5,-100.,-10.));
#628=CARTESIAN_POINT('',(18.5,-100.,-10.));
#629=CARTESIAN_POINT('',(-18.5,-100.,-10.));
#630=CARTESIAN_POINT('',(-18.5,-100.,-10.));
#631=CARTESIAN_POINT('',(18.5,0.,-8.50000000000001));
#632=CARTESIAN_POINT('',(20.,0.,-8.50000000000001));
#633=CARTESIAN_POINT('',(20.,-100.,-8.50000000000001));
#634=CARTESIAN_POINT('',(20.,-100.,-8.50000000000001));
#635=CARTESIAN_POINT('',(18.5,-100.,-8.50000000000001));
#636=CARTESIAN_POINT('',(18.5,-100.,-8.50000000000001));
#637=CARTESIAN_POINT('',(20.,0.,-8.50000000000001));
#638=CARTESIAN_POINT('',(20.,0.,8.50000000000001));
#639=CARTESIAN_POINT('',(20.,-100.,8.50000000000001));
#640=CARTESIAN_POINT('',(20.,-100.,8.50000000000001));
#641=CARTESIAN_POINT('',(20.,-100.,-8.50000000000001));
#642=CARTESIAN_POINT('',(20.,-100.,-8.50000000000001));
#643=CARTESIAN_POINT('',(18.5,0.,8.50000000000001));
#644=CARTESIAN_POINT('',(18.5,0.,10.));
#645=CARTESIAN_POINT('',(18.5,-100.,10.));
#646=CARTESIAN_POINT('',(18.5,-100.,10.));
#647=CARTESIAN_POINT('',(18.5,-100.,8.50000000000001));
#648=CARTESIAN_POINT('',(18.5,-100.,8.50000000000001));
#649=CARTESIAN_POINT('',(18.5,0.,10.));
#650=CARTESIAN_POINT('',(-18.5,0.,10.));
#651=CARTESIAN_POINT('',(-18.5,-100.,10.));
#652=CARTESIAN_POINT('',(-18.5,-100.,10.));
#653=CARTESIAN_POINT('',(18.5,-100.,10.));
#654=CARTESIAN_POINT('',(18.5,-100.,10.));
#655=CARTESIAN_POINT('',(-18.5,0.,8.50000000000001));
#656=CARTESIAN_POINT('',(-18.5,-100.,8.50000000000001));
#657=CARTESIAN_POINT('',(-18.5,-100.,8.50000000000001));
#658=CARTESIAN_POINT('',(-16.5,0.,-6.50000000000001));
#659=CARTESIAN_POINT('',(-16.5,-100.,-6.50000000000001));
#660=CARTESIAN_POINT('',(-16.5,-100.,-6.50000000000001));
#661=CARTESIAN_POINT('',(-18.5,-100.,-8.50000000000001));
#662=CARTESIAN_POINT('',(-18.5,0.,-8.50000000000001));
#663=(
GEOMETRIC_REPRESENTATION_CONTEXT(3)
GLOBAL_UNCERTAINTY_ASSIGNED_CONTEXT((#664))
GLOBAL_UNIT_ASSIGNED_CONTEXT((#670,#666,#665))
REPRESENTATION_CONTEXT('sd','TOP_LEVEL_ASSEMBLY_PART')
);
#664=UNCERTAINTY_MEASURE_WITH_UNIT(LENGTH_MEASURE(2.E-5),#670,
'DISTANCE_ACCURACY_VALUE','Maximum Tolerance applied to model');
#665=(
NAMED_UNIT(*)
SI_UNIT($,.STERADIAN.)
SOLID_ANGLE_UNIT()
);
#666=(
CONVERSION_BASED_UNIT('DEGREE',#668)
NAMED_UNIT(#667)
PLANE_ANGLE_UNIT()
);
#667=DIMENSIONAL_EXPONENTS(0.,0.,0.,0.,0.,0.,0.);
#668=PLANE_ANGLE_MEASURE_WITH_UNIT(PLANE_ANGLE_MEASURE(0.0174532925),#669);
#669=(
NAMED_UNIT(*)
PLANE_ANGLE_UNIT()
SI_UNIT($,.RADIAN.)
);
#670=(
LENGTH_UNIT()
NAMED_UNIT(*)
SI_UNIT(.MILLI.,.METRE.)
);
ENDSEC;
END-ISO-10303-21;
