ISO-10303-21;
HEADER;
/* Generated by software containing ST-Developer
 * from STEP Tools, Inc. (www.steptools.com) 
 */
/* OPTION: using custom schema-name function */

FILE_DESCRIPTION(
/* description */ (''),
/* implementation_level */ '2;1');

FILE_NAME(
/* name */ '\X2\041A04400435043F043B0435043D04380435\X0\3.stp',
/* time_stamp */ '2026-06-25T22:04:20+03:00',
/* author */ (''),
/* organization */ (''),
/* preprocessor_version */ 'ST-DEVELOPER v16',
/* originating_system */ 'SIEMENS PLM Software NX 10.0',
/* authorisation */ '');

FILE_SCHEMA (('AP203_CONFIGURATION_CONTROLLED_3D_DESIGN_OF_MECHANICAL_PARTS_AND_ASSEMBLIES_MIM_LF { 1 0 10303 403 2 1 2}'));
ENDSEC;

DATA;
#10=PROPERTY_DEFINITION_REPRESENTATION(#14,#12);
#11=PROPERTY_DEFINITION_REPRESENTATION(#15,#13);
#12=REPRESENTATION('',(#16),#1274);
#13=REPRESENTATION('',(#17),#1274);
#14=PROPERTY_DEFINITION('pmi validation property','',#89);
#15=PROPERTY_DEFINITION('pmi validation property','',#89);
#16=VALUE_REPRESENTATION_ITEM('number of annotations',COUNT_MEASURE(0.));
#17=VALUE_REPRESENTATION_ITEM('number of views',COUNT_MEASURE(0.));
#18=SHAPE_REPRESENTATION_RELATIONSHIP('None',
'relationship between Hi6C8432B17315-None and Hi6C8432B17315-None',#100,
#19);
#19=ADVANCED_BREP_SHAPE_REPRESENTATION('Hi6C8432B17315-None',(#101),#1274);
#20=CC_DESIGN_APPROVAL(#32,(#90));
#21=CC_DESIGN_APPROVAL(#33,(#92));
#22=CC_DESIGN_APPROVAL(#34,(#39));
#23=APPROVAL_PERSON_ORGANIZATION(#77,#32,#26);
#24=APPROVAL_PERSON_ORGANIZATION(#78,#33,#27);
#25=APPROVAL_PERSON_ORGANIZATION(#79,#34,#28);
#26=APPROVAL_ROLE('approver');
#27=APPROVAL_ROLE('approver');
#28=APPROVAL_ROLE('approver');
#29=APPROVAL_DATE_TIME(#47,#32);
#30=APPROVAL_DATE_TIME(#48,#33);
#31=APPROVAL_DATE_TIME(#49,#34);
#32=APPROVAL(#35,' ');
#33=APPROVAL(#36,' ');
#34=APPROVAL(#37,' ');
#35=APPROVAL_STATUS('not_yet_approved');
#36=APPROVAL_STATUS('not_yet_approved');
#37=APPROVAL_STATUS('not_yet_approved');
#38=CC_DESIGN_SECURITY_CLASSIFICATION(#39,(#92));
#39=SECURITY_CLASSIFICATION(' ',' ',#40);
#40=SECURITY_CLASSIFICATION_LEVEL('confidential');
#41=CC_DESIGN_DATE_AND_TIME_ASSIGNMENT(#45,#43,(#90));
#42=CC_DESIGN_DATE_AND_TIME_ASSIGNMENT(#46,#44,(#39));
#43=DATE_TIME_ROLE('creation_date');
#44=DATE_TIME_ROLE('classification_date');
#45=DATE_AND_TIME(#60,#50);
#46=DATE_AND_TIME(#61,#51);
#47=DATE_AND_TIME(#62,#52);
#48=DATE_AND_TIME(#63,#53);
#49=DATE_AND_TIME(#64,#54);
#50=LOCAL_TIME(0,0,0.,#55);
#51=LOCAL_TIME(0,0,0.,#56);
#52=LOCAL_TIME(0,0,0.,#57);
#53=LOCAL_TIME(0,0,0.,#58);
#54=LOCAL_TIME(0,0,0.,#59);
#55=COORDINATED_UNIVERSAL_TIME_OFFSET(0,0,.BEHIND.);
#56=COORDINATED_UNIVERSAL_TIME_OFFSET(0,0,.BEHIND.);
#57=COORDINATED_UNIVERSAL_TIME_OFFSET(0,0,.BEHIND.);
#58=COORDINATED_UNIVERSAL_TIME_OFFSET(0,0,.BEHIND.);
#59=COORDINATED_UNIVERSAL_TIME_OFFSET(0,0,.BEHIND.);
#60=CALENDAR_DATE(0,1,1);
#61=CALENDAR_DATE(0,1,1);
#62=CALENDAR_DATE(0,1,1);
#63=CALENDAR_DATE(0,1,1);
#64=CALENDAR_DATE(0,1,1);
#65=CC_DESIGN_PERSON_AND_ORGANIZATION_ASSIGNMENT(#73,#69,(#90,#92));
#66=CC_DESIGN_PERSON_AND_ORGANIZATION_ASSIGNMENT(#74,#70,(#94));
#67=CC_DESIGN_PERSON_AND_ORGANIZATION_ASSIGNMENT(#75,#71,(#92));
#68=CC_DESIGN_PERSON_AND_ORGANIZATION_ASSIGNMENT(#76,#72,(#39));
#69=PERSON_AND_ORGANIZATION_ROLE('creator');
#70=PERSON_AND_ORGANIZATION_ROLE('design_owner');
#71=PERSON_AND_ORGANIZATION_ROLE('design_supplier');
#72=PERSON_AND_ORGANIZATION_ROLE('classification_officer');
#73=PERSON_AND_ORGANIZATION(#87,#80);
#74=PERSON_AND_ORGANIZATION(#87,#81);
#75=PERSON_AND_ORGANIZATION(#87,#82);
#76=PERSON_AND_ORGANIZATION(#87,#83);
#77=PERSON_AND_ORGANIZATION(#87,#84);
#78=PERSON_AND_ORGANIZATION(#87,#85);
#79=PERSON_AND_ORGANIZATION(#87,#86);
#80=ORGANIZATION(' ',' ',' ');
#81=ORGANIZATION(' ',' ',' ');
#82=ORGANIZATION(' ',' ',' ');
#83=ORGANIZATION(' ',' ',' ');
#84=ORGANIZATION(' ',' ',' ');
#85=ORGANIZATION(' ',' ',' ');
#86=ORGANIZATION(' ',' ',' ');
#87=PERSON(' ',' ',' ',(' '),$,$);
#88=SHAPE_DEFINITION_REPRESENTATION(#89,#100);
#89=PRODUCT_DEFINITION_SHAPE('','',#90);
#90=PRODUCT_DEFINITION(' ','',#92,#91);
#91=DESIGN_CONTEXT('',#99,'design');
#92=PRODUCT_DEFINITION_FORMATION_WITH_SPECIFIED_SOURCE(' ',' ',#94,
 .NOT_KNOWN.);
#93=PRODUCT_RELATED_PRODUCT_CATEGORY('detail','',(#94));
#94=PRODUCT('Hi6C8432B17315','Hi6C8432B17315',' ',(#97));
#95=PRODUCT_CATEGORY('part',' ');
#96=PRODUCT_CATEGORY(' ','');
#97=MECHANICAL_CONTEXT(' ',#99,'mechanical');
#98=APPLICATION_PROTOCOL_DEFINITION('international standard',
'config_control_design',2010,#99);
#99=APPLICATION_CONTEXT(
'configuration controlled 3D designs of mechanical parts and assemblie
s');
#100=SHAPE_REPRESENTATION('Hi6C8432B17315-None',(#716),#1274);
#101=MANIFOLD_SOLID_BREP('',#102);
#102=CLOSED_SHELL('',(#233,#234,#235,#236,#237,#238,#239,#240,#241,#242,
#243,#244,#245,#246,#247,#248,#249,#250,#251,#252,#253,#254,#255,#256,#257,
#258,#259,#260,#261,#262,#263,#264,#265));
#103=CONICAL_SURFACE('',#785,1.65,45.);
#104=CONICAL_SURFACE('',#786,2.,60.);
#105=PLANE('',#729);
#106=PLANE('',#730);
#107=PLANE('',#735);
#108=PLANE('',#740);
#109=PLANE('',#744);
#110=PLANE('',#748);
#111=PLANE('',#759);
#112=PLANE('',#763);
#113=PLANE('',#768);
#114=PLANE('',#773);
#115=PLANE('',#777);
#116=PLANE('',#778);
#117=FACE_OUTER_BOUND('',#313,.T.);
#118=FACE_OUTER_BOUND('',#314,.T.);
#119=FACE_OUTER_BOUND('',#315,.T.);
#120=FACE_OUTER_BOUND('',#316,.T.);
#121=FACE_OUTER_BOUND('',#317,.T.);
#122=FACE_OUTER_BOUND('',#318,.T.);
#123=FACE_OUTER_BOUND('',#321,.T.);
#124=FACE_OUTER_BOUND('',#324,.T.);
#125=FACE_OUTER_BOUND('',#325,.T.);
#126=FACE_OUTER_BOUND('',#326,.T.);
#127=FACE_OUTER_BOUND('',#329,.T.);
#128=FACE_OUTER_BOUND('',#330,.T.);
#129=FACE_OUTER_BOUND('',#331,.T.);
#130=FACE_OUTER_BOUND('',#334,.T.);
#131=FACE_OUTER_BOUND('',#335,.T.);
#132=FACE_OUTER_BOUND('',#336,.T.);
#133=FACE_OUTER_BOUND('',#339,.T.);
#134=FACE_OUTER_BOUND('',#342,.T.);
#135=FACE_OUTER_BOUND('',#343,.T.);
#136=FACE_OUTER_BOUND('',#344,.T.);
#137=LINE('',#1035,#183);
#138=LINE('',#1039,#184);
#139=LINE('',#1091,#185);
#140=LINE('',#1095,#186);
#141=LINE('',#1109,#187);
#142=LINE('',#1125,#188);
#143=LINE('',#1129,#189);
#144=LINE('',#1131,#190);
#145=LINE('',#1133,#191);
#146=LINE('',#1135,#192);
#147=LINE('',#1137,#193);
#148=LINE('',#1139,#194);
#149=LINE('',#1143,#195);
#150=LINE('',#1149,#196);
#151=LINE('',#1151,#197);
#152=LINE('',#1153,#198);
#153=LINE('',#1157,#199);
#154=LINE('',#1163,#200);
#155=LINE('',#1165,#201);
#156=LINE('',#1167,#202);
#157=LINE('',#1171,#203);
#158=LINE('',#1175,#204);
#159=LINE('',#1177,#205);
#160=LINE('',#1179,#206);
#161=LINE('',#1183,#207);
#162=LINE('',#1187,#208);
#163=LINE('',#1189,#209);
#164=LINE('',#1191,#210);
#165=LINE('',#1195,#211);
#166=LINE('',#1201,#212);
#167=LINE('',#1207,#213);
#168=LINE('',#1213,#214);
#169=LINE('',#1215,#215);
#170=LINE('',#1217,#216);
#171=LINE('',#1221,#217);
#172=LINE('',#1225,#218);
#173=LINE('',#1227,#219);
#174=LINE('',#1229,#220);
#175=LINE('',#1233,#221);
#176=LINE('',#1239,#222);
#177=LINE('',#1241,#223);
#178=LINE('',#1243,#224);
#179=LINE('',#1247,#225);
#180=LINE('',#1253,#226);
#181=LINE('',#1255,#227);
#182=LINE('',#1257,#228);
#183=VECTOR('',#795,1.);
#184=VECTOR('',#798,1.);
#185=VECTOR('',#799,1.);
#186=VECTOR('',#802,1.);
#187=VECTOR('',#807,1.);
#188=VECTOR('',#814,1.);
#189=VECTOR('',#819,1.);
#190=VECTOR('',#820,1.);
#191=VECTOR('',#821,1.);
#192=VECTOR('',#824,1.);
#193=VECTOR('',#825,1.);
#194=VECTOR('',#826,1.);
#195=VECTOR('',#831,1.);
#196=VECTOR('',#838,1.);
#197=VECTOR('',#839,1.);
#198=VECTOR('',#840,1.);
#199=VECTOR('',#845,1.);
#200=VECTOR('',#852,1.);
#201=VECTOR('',#853,1.);
#202=VECTOR('',#854,1.);
#203=VECTOR('',#859,1.);
#204=VECTOR('',#864,1.);
#205=VECTOR('',#865,1.);
#206=VECTOR('',#866,1.);
#207=VECTOR('',#871,1.);
#208=VECTOR('',#876,1.);
#209=VECTOR('',#877,1.);
#210=VECTOR('',#878,1.);
#211=VECTOR('',#883,1.);
#212=VECTOR('',#890,1.);
#213=VECTOR('',#897,1.);
#214=VECTOR('',#904,1.);
#215=VECTOR('',#905,1.);
#216=VECTOR('',#906,1.);
#217=VECTOR('',#911,1.);
#218=VECTOR('',#916,1.);
#219=VECTOR('',#917,1.);
#220=VECTOR('',#918,1.);
#221=VECTOR('',#923,1.);
#222=VECTOR('',#930,1.);
#223=VECTOR('',#931,1.);
#224=VECTOR('',#932,1.);
#225=VECTOR('',#937,1.);
#226=VECTOR('',#944,1.);
#227=VECTOR('',#945,1.);
#228=VECTOR('',#946,1.);
#229=B_SPLINE_CURVE_WITH_KNOTS('',3,(#981,#982,#983,#984,#985,#986,#987,
#988,#989,#990,#991,#992,#993,#994,#995,#996,#997,#998,#999,#1000,#1001,
#1002,#1003,#1004,#1005,#1006,#1007,#1008,#1009,#1010,#1011,#1012,#1013,
#1014,#1015,#1016,#1017,#1018,#1019,#1020,#1021,#1022,#1023,#1024,#1025,
#1026,#1027,#1028,#1029,#1030,#1031,#1032),.UNSPECIFIED.,.F.,.F.,(4,3,3,
3,3,3,3,3,3,3,3,3,3,3,3,3,3,4),(0.,0.0337880411994319,0.093650405576757,
0.157222545608653,0.223769985022244,0.291051754474421,0.35677401887611,
0.419937076627173,0.480857135656438,0.540437538485135,0.599661392951102,
0.65946620800434,0.720742229678033,0.784213497629047,0.850063270102057,
0.917357092019335,0.983795190585973,1.),.UNSPECIFIED.);
#230=B_SPLINE_CURVE_WITH_KNOTS('',3,(#1041,#1042,#1043,#1044,#1045,#1046,
#1047,#1048,#1049,#1050,#1051,#1052,#1053,#1054,#1055,#1056,#1057,#1058,
#1059,#1060,#1061,#1062,#1063,#1064,#1065,#1066,#1067,#1068,#1069,#1070,
#1071,#1072,#1073,#1074,#1075,#1076,#1077,#1078,#1079,#1080,#1081,#1082,
#1083,#1084,#1085,#1086,#1087,#1088,#1089),.UNSPECIFIED.,.F.,.F.,(4,3,3,
3,3,3,3,3,3,3,3,3,3,3,3,3,4),(0.,0.0626534870774291,0.12512343776237,0.19037953706143,
0.257627393743776,0.324357950366218,0.388832893006154,0.450785094163047,
0.510915761878312,0.57020329595165,0.629609251657505,0.690050570231347,
0.752363345524119,0.817065248773832,0.883851915490569,0.951075012784689,
1.),.UNSPECIFIED.);
#231=B_SPLINE_CURVE_WITH_KNOTS('',3,(#1097,#1098,#1099,#1100,#1101,#1102,
#1103,#1104,#1105,#1106),.UNSPECIFIED.,.F.,.F.,(4,3,3,4),(0.,0.35203203126681,
0.703416850169445,1.),.UNSPECIFIED.);
#232=B_SPLINE_CURVE_WITH_KNOTS('',3,(#1113,#1114,#1115,#1116,#1117,#1118,
#1119,#1120,#1121,#1122),.UNSPECIFIED.,.F.,.F.,(4,3,3,4),(0.,0.352032031266795,
0.703416850169429,1.),.UNSPECIFIED.);
#233=ADVANCED_FACE('',(#285,#286),#266,.F.);
#234=ADVANCED_FACE('',(#117),#267,.F.);
#235=ADVANCED_FACE('',(#118),#268,.T.);
#236=ADVANCED_FACE('',(#119),#269,.T.);
#237=ADVANCED_FACE('',(#120),#105,.F.);
#238=ADVANCED_FACE('',(#121),#106,.F.);
#239=ADVANCED_FACE('',(#122),#270,.T.);
#240=ADVANCED_FACE('',(#287,#288),#107,.F.);
#241=ADVANCED_FACE('',(#123),#271,.F.);
#242=ADVANCED_FACE('',(#289,#290),#108,.F.);
#243=ADVANCED_FACE('',(#124),#272,.T.);
#244=ADVANCED_FACE('',(#125),#109,.F.);
#245=ADVANCED_FACE('',(#126),#273,.T.);
#246=ADVANCED_FACE('',(#291,#292),#110,.F.);
#247=ADVANCED_FACE('',(#127),#274,.T.);
#248=ADVANCED_FACE('',(#128),#275,.F.);
#249=ADVANCED_FACE('',(#129),#276,.T.);
#250=ADVANCED_FACE('',(#293,#294),#111,.F.);
#251=ADVANCED_FACE('',(#130),#277,.T.);
#252=ADVANCED_FACE('',(#131),#112,.F.);
#253=ADVANCED_FACE('',(#132),#278,.T.);
#254=ADVANCED_FACE('',(#295,#296),#113,.F.);
#255=ADVANCED_FACE('',(#133),#279,.F.);
#256=ADVANCED_FACE('',(#297,#298),#114,.F.);
#257=ADVANCED_FACE('',(#134),#280,.T.);
#258=ADVANCED_FACE('',(#135),#115,.T.);
#259=ADVANCED_FACE('',(#136),#116,.F.);
#260=ADVANCED_FACE('',(#299,#300),#281,.F.);
#261=ADVANCED_FACE('',(#301,#302),#282,.F.);
#262=ADVANCED_FACE('',(#303,#304),#283,.F.);
#263=ADVANCED_FACE('',(#305,#306),#284,.F.);
#264=ADVANCED_FACE('',(#307,#308),#103,.F.);
#265=ADVANCED_FACE('',(#309,#310),#104,.F.);
#266=CYLINDRICAL_SURFACE('',#719,2.);
#267=CYLINDRICAL_SURFACE('',#722,35.);
#268=CYLINDRICAL_SURFACE('',#725,2.);
#269=CYLINDRICAL_SURFACE('',#728,2.);
#270=CYLINDRICAL_SURFACE('',#733,2.);
#271=CYLINDRICAL_SURFACE('',#738,2.);
#272=CYLINDRICAL_SURFACE('',#743,1.);
#273=CYLINDRICAL_SURFACE('',#747,0.999999999999993);
#274=CYLINDRICAL_SURFACE('',#751,0.999999999999997);
#275=CYLINDRICAL_SURFACE('',#754,4.);
#276=CYLINDRICAL_SURFACE('',#757,1.);
#277=CYLINDRICAL_SURFACE('',#762,1.);
#278=CYLINDRICAL_SURFACE('',#766,1.);
#279=CYLINDRICAL_SURFACE('',#771,2.);
#280=CYLINDRICAL_SURFACE('',#776,2.);
#281=CYLINDRICAL_SURFACE('',#779,2.);
#282=CYLINDRICAL_SURFACE('',#780,2.);
#283=CYLINDRICAL_SURFACE('',#782,1.65);
#284=CYLINDRICAL_SURFACE('',#784,3.5);
#285=FACE_BOUND('',#311,.T.);
#286=FACE_BOUND('',#312,.T.);
#287=FACE_BOUND('',#319,.T.);
#288=FACE_BOUND('',#320,.T.);
#289=FACE_BOUND('',#322,.T.);
#290=FACE_BOUND('',#323,.T.);
#291=FACE_BOUND('',#327,.T.);
#292=FACE_BOUND('',#328,.T.);
#293=FACE_BOUND('',#332,.T.);
#294=FACE_BOUND('',#333,.T.);
#295=FACE_BOUND('',#337,.T.);
#296=FACE_BOUND('',#338,.T.);
#297=FACE_BOUND('',#340,.T.);
#298=FACE_BOUND('',#341,.T.);
#299=FACE_BOUND('',#345,.T.);
#300=FACE_BOUND('',#346,.T.);
#301=FACE_BOUND('',#347,.T.);
#302=FACE_BOUND('',#348,.T.);
#303=FACE_BOUND('',#349,.T.);
#304=FACE_BOUND('',#350,.T.);
#305=FACE_BOUND('',#351,.T.);
#306=FACE_BOUND('',#352,.T.);
#307=FACE_BOUND('',#353,.T.);
#308=FACE_BOUND('',#354,.T.);
#309=FACE_BOUND('',#355,.T.);
#310=FACE_BOUND('',#356,.T.);
#311=EDGE_LOOP('',(#357));
#312=EDGE_LOOP('',(#358));
#313=EDGE_LOOP('',(#359,#360,#361,#362,#363,#364,#365,#366));
#314=EDGE_LOOP('',(#367,#368,#369,#370,#371,#372));
#315=EDGE_LOOP('',(#373,#374,#375,#376,#377,#378));
#316=EDGE_LOOP('',(#379,#380,#381,#382));
#317=EDGE_LOOP('',(#383,#384,#385,#386));
#318=EDGE_LOOP('',(#387,#388,#389,#390));
#319=EDGE_LOOP('',(#391));
#320=EDGE_LOOP('',(#392,#393,#394,#395));
#321=EDGE_LOOP('',(#396,#397,#398,#399));
#322=EDGE_LOOP('',(#400));
#323=EDGE_LOOP('',(#401,#402,#403,#404));
#324=EDGE_LOOP('',(#405,#406,#407,#408));
#325=EDGE_LOOP('',(#409,#410,#411,#412));
#326=EDGE_LOOP('',(#413,#414,#415,#416));
#327=EDGE_LOOP('',(#417));
#328=EDGE_LOOP('',(#418,#419,#420,#421));
#329=EDGE_LOOP('',(#422,#423,#424,#425));
#330=EDGE_LOOP('',(#426,#427,#428,#429));
#331=EDGE_LOOP('',(#430,#431,#432,#433));
#332=EDGE_LOOP('',(#434));
#333=EDGE_LOOP('',(#435,#436,#437,#438));
#334=EDGE_LOOP('',(#439,#440,#441,#442));
#335=EDGE_LOOP('',(#443,#444,#445,#446));
#336=EDGE_LOOP('',(#447,#448,#449,#450));
#337=EDGE_LOOP('',(#451));
#338=EDGE_LOOP('',(#452,#453,#454,#455));
#339=EDGE_LOOP('',(#456,#457,#458,#459));
#340=EDGE_LOOP('',(#460));
#341=EDGE_LOOP('',(#461,#462,#463,#464));
#342=EDGE_LOOP('',(#465,#466,#467,#468));
#343=EDGE_LOOP('',(#469,#470,#471,#472,#473,#474,#475,#476,#477,#478,#479,
#480,#481,#482,#483,#484,#485,#486,#487,#488,#489,#490,#491,#492));
#344=EDGE_LOOP('',(#493,#494,#495,#496,#497,#498,#499,#500,#501,#502,#503,
#504,#505,#506,#507,#508,#509,#510,#511,#512,#513,#514,#515,#516));
#345=EDGE_LOOP('',(#517));
#346=EDGE_LOOP('',(#518,#519));
#347=EDGE_LOOP('',(#520));
#348=EDGE_LOOP('',(#521,#522));
#349=EDGE_LOOP('',(#523));
#350=EDGE_LOOP('',(#524));
#351=EDGE_LOOP('',(#525));
#352=EDGE_LOOP('',(#526));
#353=EDGE_LOOP('',(#527));
#354=EDGE_LOOP('',(#528));
#355=EDGE_LOOP('',(#529));
#356=EDGE_LOOP('',(#530));
#357=ORIENTED_EDGE('',*,*,#592,.T.);
#358=ORIENTED_EDGE('',*,*,#593,.T.);
#359=ORIENTED_EDGE('',*,*,#594,.F.);
#360=ORIENTED_EDGE('',*,*,#595,.T.);
#361=ORIENTED_EDGE('',*,*,#596,.T.);
#362=ORIENTED_EDGE('',*,*,#597,.F.);
#363=ORIENTED_EDGE('',*,*,#598,.F.);
#364=ORIENTED_EDGE('',*,*,#599,.F.);
#365=ORIENTED_EDGE('',*,*,#600,.F.);
#366=ORIENTED_EDGE('',*,*,#601,.T.);
#367=ORIENTED_EDGE('',*,*,#602,.F.);
#368=ORIENTED_EDGE('',*,*,#601,.F.);
#369=ORIENTED_EDGE('',*,*,#603,.F.);
#370=ORIENTED_EDGE('',*,*,#604,.T.);
#371=ORIENTED_EDGE('',*,*,#605,.T.);
#372=ORIENTED_EDGE('',*,*,#595,.F.);
#373=ORIENTED_EDGE('',*,*,#606,.F.);
#374=ORIENTED_EDGE('',*,*,#597,.T.);
#375=ORIENTED_EDGE('',*,*,#607,.T.);
#376=ORIENTED_EDGE('',*,*,#608,.F.);
#377=ORIENTED_EDGE('',*,*,#609,.F.);
#378=ORIENTED_EDGE('',*,*,#599,.T.);
#379=ORIENTED_EDGE('',*,*,#610,.T.);
#380=ORIENTED_EDGE('',*,*,#604,.F.);
#381=ORIENTED_EDGE('',*,*,#611,.F.);
#382=ORIENTED_EDGE('',*,*,#612,.T.);
#383=ORIENTED_EDGE('',*,*,#613,.T.);
#384=ORIENTED_EDGE('',*,*,#614,.F.);
#385=ORIENTED_EDGE('',*,*,#615,.F.);
#386=ORIENTED_EDGE('',*,*,#608,.T.);
#387=ORIENTED_EDGE('',*,*,#616,.T.);
#388=ORIENTED_EDGE('',*,*,#617,.F.);
#389=ORIENTED_EDGE('',*,*,#618,.F.);
#390=ORIENTED_EDGE('',*,*,#614,.T.);
#391=ORIENTED_EDGE('',*,*,#619,.F.);
#392=ORIENTED_EDGE('',*,*,#620,.T.);
#393=ORIENTED_EDGE('',*,*,#621,.F.);
#394=ORIENTED_EDGE('',*,*,#622,.F.);
#395=ORIENTED_EDGE('',*,*,#617,.T.);
#396=ORIENTED_EDGE('',*,*,#623,.T.);
#397=ORIENTED_EDGE('',*,*,#624,.F.);
#398=ORIENTED_EDGE('',*,*,#625,.F.);
#399=ORIENTED_EDGE('',*,*,#621,.T.);
#400=ORIENTED_EDGE('',*,*,#626,.F.);
#401=ORIENTED_EDGE('',*,*,#627,.T.);
#402=ORIENTED_EDGE('',*,*,#628,.F.);
#403=ORIENTED_EDGE('',*,*,#629,.F.);
#404=ORIENTED_EDGE('',*,*,#624,.T.);
#405=ORIENTED_EDGE('',*,*,#630,.T.);
#406=ORIENTED_EDGE('',*,*,#631,.F.);
#407=ORIENTED_EDGE('',*,*,#632,.F.);
#408=ORIENTED_EDGE('',*,*,#628,.T.);
#409=ORIENTED_EDGE('',*,*,#633,.T.);
#410=ORIENTED_EDGE('',*,*,#634,.F.);
#411=ORIENTED_EDGE('',*,*,#635,.F.);
#412=ORIENTED_EDGE('',*,*,#631,.T.);
#413=ORIENTED_EDGE('',*,*,#636,.T.);
#414=ORIENTED_EDGE('',*,*,#637,.F.);
#415=ORIENTED_EDGE('',*,*,#638,.F.);
#416=ORIENTED_EDGE('',*,*,#634,.T.);
#417=ORIENTED_EDGE('',*,*,#593,.F.);
#418=ORIENTED_EDGE('',*,*,#639,.T.);
#419=ORIENTED_EDGE('',*,*,#640,.F.);
#420=ORIENTED_EDGE('',*,*,#641,.F.);
#421=ORIENTED_EDGE('',*,*,#637,.T.);
#422=ORIENTED_EDGE('',*,*,#642,.T.);
#423=ORIENTED_EDGE('',*,*,#643,.F.);
#424=ORIENTED_EDGE('',*,*,#644,.F.);
#425=ORIENTED_EDGE('',*,*,#640,.T.);
#426=ORIENTED_EDGE('',*,*,#645,.T.);
#427=ORIENTED_EDGE('',*,*,#646,.F.);
#428=ORIENTED_EDGE('',*,*,#647,.F.);
#429=ORIENTED_EDGE('',*,*,#643,.T.);
#430=ORIENTED_EDGE('',*,*,#648,.T.);
#431=ORIENTED_EDGE('',*,*,#649,.F.);
#432=ORIENTED_EDGE('',*,*,#650,.F.);
#433=ORIENTED_EDGE('',*,*,#646,.T.);
#434=ORIENTED_EDGE('',*,*,#651,.F.);
#435=ORIENTED_EDGE('',*,*,#652,.T.);
#436=ORIENTED_EDGE('',*,*,#653,.F.);
#437=ORIENTED_EDGE('',*,*,#654,.F.);
#438=ORIENTED_EDGE('',*,*,#649,.T.);
#439=ORIENTED_EDGE('',*,*,#655,.T.);
#440=ORIENTED_EDGE('',*,*,#656,.F.);
#441=ORIENTED_EDGE('',*,*,#657,.F.);
#442=ORIENTED_EDGE('',*,*,#653,.T.);
#443=ORIENTED_EDGE('',*,*,#658,.T.);
#444=ORIENTED_EDGE('',*,*,#659,.F.);
#445=ORIENTED_EDGE('',*,*,#660,.F.);
#446=ORIENTED_EDGE('',*,*,#656,.T.);
#447=ORIENTED_EDGE('',*,*,#661,.T.);
#448=ORIENTED_EDGE('',*,*,#662,.F.);
#449=ORIENTED_EDGE('',*,*,#663,.F.);
#450=ORIENTED_EDGE('',*,*,#659,.T.);
#451=ORIENTED_EDGE('',*,*,#664,.T.);
#452=ORIENTED_EDGE('',*,*,#665,.T.);
#453=ORIENTED_EDGE('',*,*,#666,.F.);
#454=ORIENTED_EDGE('',*,*,#667,.F.);
#455=ORIENTED_EDGE('',*,*,#662,.T.);
#456=ORIENTED_EDGE('',*,*,#668,.T.);
#457=ORIENTED_EDGE('',*,*,#669,.F.);
#458=ORIENTED_EDGE('',*,*,#670,.F.);
#459=ORIENTED_EDGE('',*,*,#666,.T.);
#460=ORIENTED_EDGE('',*,*,#671,.F.);
#461=ORIENTED_EDGE('',*,*,#672,.T.);
#462=ORIENTED_EDGE('',*,*,#673,.F.);
#463=ORIENTED_EDGE('',*,*,#674,.F.);
#464=ORIENTED_EDGE('',*,*,#669,.T.);
#465=ORIENTED_EDGE('',*,*,#675,.T.);
#466=ORIENTED_EDGE('',*,*,#612,.F.);
#467=ORIENTED_EDGE('',*,*,#676,.F.);
#468=ORIENTED_EDGE('',*,*,#673,.T.);
#469=ORIENTED_EDGE('',*,*,#611,.T.);
#470=ORIENTED_EDGE('',*,*,#603,.T.);
#471=ORIENTED_EDGE('',*,*,#600,.T.);
#472=ORIENTED_EDGE('',*,*,#609,.T.);
#473=ORIENTED_EDGE('',*,*,#615,.T.);
#474=ORIENTED_EDGE('',*,*,#618,.T.);
#475=ORIENTED_EDGE('',*,*,#622,.T.);
#476=ORIENTED_EDGE('',*,*,#625,.T.);
#477=ORIENTED_EDGE('',*,*,#629,.T.);
#478=ORIENTED_EDGE('',*,*,#632,.T.);
#479=ORIENTED_EDGE('',*,*,#635,.T.);
#480=ORIENTED_EDGE('',*,*,#638,.T.);
#481=ORIENTED_EDGE('',*,*,#641,.T.);
#482=ORIENTED_EDGE('',*,*,#644,.T.);
#483=ORIENTED_EDGE('',*,*,#647,.T.);
#484=ORIENTED_EDGE('',*,*,#650,.T.);
#485=ORIENTED_EDGE('',*,*,#654,.T.);
#486=ORIENTED_EDGE('',*,*,#657,.T.);
#487=ORIENTED_EDGE('',*,*,#660,.T.);
#488=ORIENTED_EDGE('',*,*,#663,.T.);
#489=ORIENTED_EDGE('',*,*,#667,.T.);
#490=ORIENTED_EDGE('',*,*,#670,.T.);
#491=ORIENTED_EDGE('',*,*,#674,.T.);
#492=ORIENTED_EDGE('',*,*,#676,.T.);
#493=ORIENTED_EDGE('',*,*,#610,.F.);
#494=ORIENTED_EDGE('',*,*,#675,.F.);
#495=ORIENTED_EDGE('',*,*,#672,.F.);
#496=ORIENTED_EDGE('',*,*,#668,.F.);
#497=ORIENTED_EDGE('',*,*,#665,.F.);
#498=ORIENTED_EDGE('',*,*,#661,.F.);
#499=ORIENTED_EDGE('',*,*,#658,.F.);
#500=ORIENTED_EDGE('',*,*,#655,.F.);
#501=ORIENTED_EDGE('',*,*,#652,.F.);
#502=ORIENTED_EDGE('',*,*,#648,.F.);
#503=ORIENTED_EDGE('',*,*,#645,.F.);
#504=ORIENTED_EDGE('',*,*,#642,.F.);
#505=ORIENTED_EDGE('',*,*,#639,.F.);
#506=ORIENTED_EDGE('',*,*,#636,.F.);
#507=ORIENTED_EDGE('',*,*,#633,.F.);
#508=ORIENTED_EDGE('',*,*,#630,.F.);
#509=ORIENTED_EDGE('',*,*,#627,.F.);
#510=ORIENTED_EDGE('',*,*,#623,.F.);
#511=ORIENTED_EDGE('',*,*,#620,.F.);
#512=ORIENTED_EDGE('',*,*,#616,.F.);
#513=ORIENTED_EDGE('',*,*,#613,.F.);
#514=ORIENTED_EDGE('',*,*,#607,.F.);
#515=ORIENTED_EDGE('',*,*,#596,.F.);
#516=ORIENTED_EDGE('',*,*,#605,.F.);
#517=ORIENTED_EDGE('',*,*,#619,.T.);
#518=ORIENTED_EDGE('',*,*,#598,.T.);
#519=ORIENTED_EDGE('',*,*,#606,.T.);
#520=ORIENTED_EDGE('',*,*,#671,.T.);
#521=ORIENTED_EDGE('',*,*,#594,.T.);
#522=ORIENTED_EDGE('',*,*,#602,.T.);
#523=ORIENTED_EDGE('',*,*,#677,.T.);
#524=ORIENTED_EDGE('',*,*,#651,.T.);
#525=ORIENTED_EDGE('',*,*,#678,.T.);
#526=ORIENTED_EDGE('',*,*,#626,.T.);
#527=ORIENTED_EDGE('',*,*,#664,.F.);
#528=ORIENTED_EDGE('',*,*,#677,.F.);
#529=ORIENTED_EDGE('',*,*,#678,.F.);
#530=ORIENTED_EDGE('',*,*,#592,.F.);
#531=VERTEX_POINT('',#977);
#532=VERTEX_POINT('',#979);
#533=VERTEX_POINT('',#1033);
#534=VERTEX_POINT('',#1034);
#535=VERTEX_POINT('',#1036);
#536=VERTEX_POINT('',#1038);
#537=VERTEX_POINT('',#1040);
#538=VERTEX_POINT('',#1090);
#539=VERTEX_POINT('',#1092);
#540=VERTEX_POINT('',#1094);
#541=VERTEX_POINT('',#1108);
#542=VERTEX_POINT('',#1110);
#543=VERTEX_POINT('',#1124);
#544=VERTEX_POINT('',#1126);
#545=VERTEX_POINT('',#1130);
#546=VERTEX_POINT('',#1132);
#547=VERTEX_POINT('',#1136);
#548=VERTEX_POINT('',#1138);
#549=VERTEX_POINT('',#1142);
#550=VERTEX_POINT('',#1144);
#551=VERTEX_POINT('',#1148);
#552=VERTEX_POINT('',#1150);
#553=VERTEX_POINT('',#1152);
#554=VERTEX_POINT('',#1156);
#555=VERTEX_POINT('',#1158);
#556=VERTEX_POINT('',#1162);
#557=VERTEX_POINT('',#1164);
#558=VERTEX_POINT('',#1166);
#559=VERTEX_POINT('',#1170);
#560=VERTEX_POINT('',#1172);
#561=VERTEX_POINT('',#1176);
#562=VERTEX_POINT('',#1178);
#563=VERTEX_POINT('',#1182);
#564=VERTEX_POINT('',#1184);
#565=VERTEX_POINT('',#1188);
#566=VERTEX_POINT('',#1190);
#567=VERTEX_POINT('',#1194);
#568=VERTEX_POINT('',#1196);
#569=VERTEX_POINT('',#1200);
#570=VERTEX_POINT('',#1202);
#571=VERTEX_POINT('',#1206);
#572=VERTEX_POINT('',#1208);
#573=VERTEX_POINT('',#1212);
#574=VERTEX_POINT('',#1214);
#575=VERTEX_POINT('',#1216);
#576=VERTEX_POINT('',#1220);
#577=VERTEX_POINT('',#1222);
#578=VERTEX_POINT('',#1226);
#579=VERTEX_POINT('',#1228);
#580=VERTEX_POINT('',#1232);
#581=VERTEX_POINT('',#1234);
#582=VERTEX_POINT('',#1238);
#583=VERTEX_POINT('',#1240);
#584=VERTEX_POINT('',#1242);
#585=VERTEX_POINT('',#1246);
#586=VERTEX_POINT('',#1248);
#587=VERTEX_POINT('',#1252);
#588=VERTEX_POINT('',#1254);
#589=VERTEX_POINT('',#1256);
#590=VERTEX_POINT('',#1267);
#591=VERTEX_POINT('',#1270);
#592=EDGE_CURVE('',#531,#531,#679,.T.);
#593=EDGE_CURVE('',#532,#532,#680,.T.);
#594=EDGE_CURVE('',#533,#534,#229,.T.);
#595=EDGE_CURVE('',#533,#535,#137,.T.);
#596=EDGE_CURVE('',#535,#536,#681,.T.);
#597=EDGE_CURVE('',#537,#536,#138,.T.);
#598=EDGE_CURVE('',#538,#537,#230,.T.);
#599=EDGE_CURVE('',#539,#538,#139,.T.);
#600=EDGE_CURVE('',#540,#539,#682,.T.);
#601=EDGE_CURVE('',#540,#534,#140,.T.);
#602=EDGE_CURVE('',#534,#533,#231,.T.);
#603=EDGE_CURVE('',#541,#540,#683,.T.);
#604=EDGE_CURVE('',#541,#542,#141,.T.);
#605=EDGE_CURVE('',#542,#535,#684,.T.);
#606=EDGE_CURVE('',#537,#538,#232,.T.);
#607=EDGE_CURVE('',#536,#543,#685,.T.);
#608=EDGE_CURVE('',#544,#543,#142,.T.);
#609=EDGE_CURVE('',#539,#544,#686,.T.);
#610=EDGE_CURVE('',#545,#542,#143,.T.);
#611=EDGE_CURVE('',#546,#541,#144,.T.);
#612=EDGE_CURVE('',#546,#545,#145,.T.);
#613=EDGE_CURVE('',#543,#547,#146,.T.);
#614=EDGE_CURVE('',#548,#547,#147,.T.);
#615=EDGE_CURVE('',#544,#548,#148,.T.);
#616=EDGE_CURVE('',#547,#549,#687,.T.);
#617=EDGE_CURVE('',#550,#549,#149,.T.);
#618=EDGE_CURVE('',#548,#550,#688,.T.);
#619=EDGE_CURVE('',#551,#551,#689,.T.);
#620=EDGE_CURVE('',#549,#552,#150,.T.);
#621=EDGE_CURVE('',#553,#552,#151,.T.);
#622=EDGE_CURVE('',#550,#553,#152,.T.);
#623=EDGE_CURVE('',#552,#554,#690,.T.);
#624=EDGE_CURVE('',#555,#554,#153,.T.);
#625=EDGE_CURVE('',#553,#555,#691,.T.);
#626=EDGE_CURVE('',#556,#556,#692,.T.);
#627=EDGE_CURVE('',#554,#557,#154,.T.);
#628=EDGE_CURVE('',#558,#557,#155,.T.);
#629=EDGE_CURVE('',#555,#558,#156,.T.);
#630=EDGE_CURVE('',#557,#559,#693,.T.);
#631=EDGE_CURVE('',#560,#559,#157,.T.);
#632=EDGE_CURVE('',#558,#560,#694,.T.);
#633=EDGE_CURVE('',#559,#561,#158,.T.);
#634=EDGE_CURVE('',#562,#561,#159,.T.);
#635=EDGE_CURVE('',#560,#562,#160,.T.);
#636=EDGE_CURVE('',#561,#563,#695,.T.);
#637=EDGE_CURVE('',#564,#563,#161,.T.);
#638=EDGE_CURVE('',#562,#564,#696,.T.);
#639=EDGE_CURVE('',#563,#565,#162,.T.);
#640=EDGE_CURVE('',#566,#565,#163,.T.);
#641=EDGE_CURVE('',#564,#566,#164,.T.);
#642=EDGE_CURVE('',#565,#567,#697,.T.);
#643=EDGE_CURVE('',#568,#567,#165,.T.);
#644=EDGE_CURVE('',#566,#568,#698,.T.);
#645=EDGE_CURVE('',#567,#569,#699,.T.);
#646=EDGE_CURVE('',#570,#569,#166,.T.);
#647=EDGE_CURVE('',#568,#570,#700,.T.);
#648=EDGE_CURVE('',#569,#571,#701,.T.);
#649=EDGE_CURVE('',#572,#571,#167,.T.);
#650=EDGE_CURVE('',#570,#572,#702,.T.);
#651=EDGE_CURVE('',#573,#573,#703,.T.);
#652=EDGE_CURVE('',#571,#574,#168,.T.);
#653=EDGE_CURVE('',#575,#574,#169,.T.);
#654=EDGE_CURVE('',#572,#575,#170,.T.);
#655=EDGE_CURVE('',#574,#576,#704,.T.);
#656=EDGE_CURVE('',#577,#576,#171,.T.);
#657=EDGE_CURVE('',#575,#577,#705,.T.);
#658=EDGE_CURVE('',#576,#578,#172,.T.);
#659=EDGE_CURVE('',#579,#578,#173,.T.);
#660=EDGE_CURVE('',#577,#579,#174,.T.);
#661=EDGE_CURVE('',#578,#580,#706,.T.);
#662=EDGE_CURVE('',#581,#580,#175,.T.);
#663=EDGE_CURVE('',#579,#581,#707,.T.);
#664=EDGE_CURVE('',#582,#582,#708,.T.);
#665=EDGE_CURVE('',#580,#583,#176,.T.);
#666=EDGE_CURVE('',#584,#583,#177,.T.);
#667=EDGE_CURVE('',#581,#584,#178,.T.);
#668=EDGE_CURVE('',#583,#585,#709,.T.);
#669=EDGE_CURVE('',#586,#585,#179,.T.);
#670=EDGE_CURVE('',#584,#586,#710,.T.);
#671=EDGE_CURVE('',#587,#587,#711,.T.);
#672=EDGE_CURVE('',#585,#588,#180,.T.);
#673=EDGE_CURVE('',#589,#588,#181,.T.);
#674=EDGE_CURVE('',#586,#589,#182,.T.);
#675=EDGE_CURVE('',#588,#545,#712,.T.);
#676=EDGE_CURVE('',#589,#546,#713,.T.);
#677=EDGE_CURVE('',#590,#590,#714,.T.);
#678=EDGE_CURVE('',#591,#591,#715,.T.);
#679=CIRCLE('',#717,2.);
#680=CIRCLE('',#718,2.);
#681=CIRCLE('',#720,35.);
#682=CIRCLE('',#721,35.);
#683=CIRCLE('',#723,2.);
#684=CIRCLE('',#724,2.);
#685=CIRCLE('',#726,2.);
#686=CIRCLE('',#727,2.);
#687=CIRCLE('',#731,2.);
#688=CIRCLE('',#732,2.);
#689=CIRCLE('',#734,2.);
#690=CIRCLE('',#736,2.);
#691=CIRCLE('',#737,2.);
#692=CIRCLE('',#739,3.5);
#693=CIRCLE('',#741,1.);
#694=CIRCLE('',#742,1.);
#695=CIRCLE('',#745,0.999999999999993);
#696=CIRCLE('',#746,0.999999999999993);
#697=CIRCLE('',#749,0.999999999999997);
#698=CIRCLE('',#750,0.999999999999997);
#699=CIRCLE('',#752,4.);
#700=CIRCLE('',#753,4.);
#701=CIRCLE('',#755,1.);
#702=CIRCLE('',#756,1.);
#703=CIRCLE('',#758,1.65);
#704=CIRCLE('',#760,1.);
#705=CIRCLE('',#761,1.);
#706=CIRCLE('',#764,1.);
#707=CIRCLE('',#765,1.);
#708=CIRCLE('',#767,2.35);
#709=CIRCLE('',#769,2.);
#710=CIRCLE('',#770,2.);
#711=CIRCLE('',#772,2.);
#712=CIRCLE('',#774,2.);
#713=CIRCLE('',#775,2.);
#714=CIRCLE('',#781,1.65);
#715=CIRCLE('',#783,3.5);
#716=AXIS2_PLACEMENT_3D('',#975,#787,#788);
#717=AXIS2_PLACEMENT_3D('',#976,#789,#790);
#718=AXIS2_PLACEMENT_3D('',#978,#791,#792);
#719=AXIS2_PLACEMENT_3D('',#980,#793,#794);
#720=AXIS2_PLACEMENT_3D('',#1037,#796,#797);
#721=AXIS2_PLACEMENT_3D('',#1093,#800,#801);
#722=AXIS2_PLACEMENT_3D('',#1096,#803,#804);
#723=AXIS2_PLACEMENT_3D('',#1107,#805,#806);
#724=AXIS2_PLACEMENT_3D('',#1111,#808,#809);
#725=AXIS2_PLACEMENT_3D('',#1112,#810,#811);
#726=AXIS2_PLACEMENT_3D('',#1123,#812,#813);
#727=AXIS2_PLACEMENT_3D('',#1127,#815,#816);
#728=AXIS2_PLACEMENT_3D('',#1128,#817,#818);
#729=AXIS2_PLACEMENT_3D('',#1134,#822,#823);
#730=AXIS2_PLACEMENT_3D('',#1140,#827,#828);
#731=AXIS2_PLACEMENT_3D('',#1141,#829,#830);
#732=AXIS2_PLACEMENT_3D('',#1145,#832,#833);
#733=AXIS2_PLACEMENT_3D('',#1146,#834,#835);
#734=AXIS2_PLACEMENT_3D('',#1147,#836,#837);
#735=AXIS2_PLACEMENT_3D('',#1154,#841,#842);
#736=AXIS2_PLACEMENT_3D('',#1155,#843,#844);
#737=AXIS2_PLACEMENT_3D('',#1159,#846,#847);
#738=AXIS2_PLACEMENT_3D('',#1160,#848,#849);
#739=AXIS2_PLACEMENT_3D('',#1161,#850,#851);
#740=AXIS2_PLACEMENT_3D('',#1168,#855,#856);
#741=AXIS2_PLACEMENT_3D('',#1169,#857,#858);
#742=AXIS2_PLACEMENT_3D('',#1173,#860,#861);
#743=AXIS2_PLACEMENT_3D('',#1174,#862,#863);
#744=AXIS2_PLACEMENT_3D('',#1180,#867,#868);
#745=AXIS2_PLACEMENT_3D('',#1181,#869,#870);
#746=AXIS2_PLACEMENT_3D('',#1185,#872,#873);
#747=AXIS2_PLACEMENT_3D('',#1186,#874,#875);
#748=AXIS2_PLACEMENT_3D('',#1192,#879,#880);
#749=AXIS2_PLACEMENT_3D('',#1193,#881,#882);
#750=AXIS2_PLACEMENT_3D('',#1197,#884,#885);
#751=AXIS2_PLACEMENT_3D('',#1198,#886,#887);
#752=AXIS2_PLACEMENT_3D('',#1199,#888,#889);
#753=AXIS2_PLACEMENT_3D('',#1203,#891,#892);
#754=AXIS2_PLACEMENT_3D('',#1204,#893,#894);
#755=AXIS2_PLACEMENT_3D('',#1205,#895,#896);
#756=AXIS2_PLACEMENT_3D('',#1209,#898,#899);
#757=AXIS2_PLACEMENT_3D('',#1210,#900,#901);
#758=AXIS2_PLACEMENT_3D('',#1211,#902,#903);
#759=AXIS2_PLACEMENT_3D('',#1218,#907,#908);
#760=AXIS2_PLACEMENT_3D('',#1219,#909,#910);
#761=AXIS2_PLACEMENT_3D('',#1223,#912,#913);
#762=AXIS2_PLACEMENT_3D('',#1224,#914,#915);
#763=AXIS2_PLACEMENT_3D('',#1230,#919,#920);
#764=AXIS2_PLACEMENT_3D('',#1231,#921,#922);
#765=AXIS2_PLACEMENT_3D('',#1235,#924,#925);
#766=AXIS2_PLACEMENT_3D('',#1236,#926,#927);
#767=AXIS2_PLACEMENT_3D('',#1237,#928,#929);
#768=AXIS2_PLACEMENT_3D('',#1244,#933,#934);
#769=AXIS2_PLACEMENT_3D('',#1245,#935,#936);
#770=AXIS2_PLACEMENT_3D('',#1249,#938,#939);
#771=AXIS2_PLACEMENT_3D('',#1250,#940,#941);
#772=AXIS2_PLACEMENT_3D('',#1251,#942,#943);
#773=AXIS2_PLACEMENT_3D('',#1258,#947,#948);
#774=AXIS2_PLACEMENT_3D('',#1259,#949,#950);
#775=AXIS2_PLACEMENT_3D('',#1260,#951,#952);
#776=AXIS2_PLACEMENT_3D('',#1261,#953,#954);
#777=AXIS2_PLACEMENT_3D('',#1262,#955,#956);
#778=AXIS2_PLACEMENT_3D('',#1263,#957,#958);
#779=AXIS2_PLACEMENT_3D('',#1264,#959,#960);
#780=AXIS2_PLACEMENT_3D('',#1265,#961,#962);
#781=AXIS2_PLACEMENT_3D('',#1266,#963,#964);
#782=AXIS2_PLACEMENT_3D('',#1268,#965,#966);
#783=AXIS2_PLACEMENT_3D('',#1269,#967,#968);
#784=AXIS2_PLACEMENT_3D('',#1271,#969,#970);
#785=AXIS2_PLACEMENT_3D('',#1272,#971,#972);
#786=AXIS2_PLACEMENT_3D('',#1273,#973,#974);
#787=DIRECTION('',(0.,0.,1.));
#788=DIRECTION('',(1.,0.,0.));
#789=DIRECTION('',(1.,0.,0.));
#790=DIRECTION('',(0.,0.,-1.));
#791=DIRECTION('',(-1.,0.,-2.06829617270312E-16));
#792=DIRECTION('',(0.,0.,-1.));
#793=DIRECTION('',(-1.,0.,0.));
#794=DIRECTION('',(0.,0.,1.));
#795=DIRECTION('',(0.,1.,0.));
#796=DIRECTION('',(0.,1.,0.));
#797=DIRECTION('',(1.,0.,6.12323399573677E-17));
#798=DIRECTION('',(0.,1.,0.));
#799=DIRECTION('',(0.,1.,0.));
#800=DIRECTION('',(0.,1.,0.));
#801=DIRECTION('',(1.,0.,6.12323399573677E-17));
#802=DIRECTION('',(0.,1.,0.));
#803=DIRECTION('',(0.,1.,0.));
#804=DIRECTION('',(0.,0.,1.));
#805=DIRECTION('',(0.,-1.,0.));
#806=DIRECTION('',(1.,0.,0.));
#807=DIRECTION('',(0.,1.,0.));
#808=DIRECTION('',(0.,-1.,0.));
#809=DIRECTION('',(1.,0.,0.));
#810=DIRECTION('',(0.,1.,0.));
#811=DIRECTION('',(0.,0.,1.));
#812=DIRECTION('',(0.,-1.,0.));
#813=DIRECTION('',(1.,0.,0.));
#814=DIRECTION('',(0.,1.,0.));
#815=DIRECTION('',(0.,-1.,0.));
#816=DIRECTION('',(1.,0.,0.));
#817=DIRECTION('',(0.,1.,0.));
#818=DIRECTION('',(0.,0.,1.));
#819=DIRECTION('',(0.,0.,-1.));
#820=DIRECTION('',(0.,0.,-1.));
#821=DIRECTION('',(0.,1.,0.));
#822=DIRECTION('',(1.,0.,0.));
#823=DIRECTION('',(0.,0.,-1.));
#824=DIRECTION('',(0.,0.,1.));
#825=DIRECTION('',(0.,1.,0.));
#826=DIRECTION('',(0.,0.,1.));
#827=DIRECTION('',(-1.,0.,0.));
#828=DIRECTION('',(0.,0.,1.));
#829=DIRECTION('',(0.,-1.,0.));
#830=DIRECTION('',(-1.,0.,0.));
#831=DIRECTION('',(0.,1.,0.));
#832=DIRECTION('',(0.,-1.,0.));
#833=DIRECTION('',(-1.,0.,0.));
#834=DIRECTION('',(0.,1.,0.));
#835=DIRECTION('',(0.,0.,1.));
#836=DIRECTION('',(0.,0.,1.));
#837=DIRECTION('',(1.,0.,0.));
#838=DIRECTION('',(-1.,0.,0.));
#839=DIRECTION('',(0.,1.,0.));
#840=DIRECTION('',(-1.,0.,0.));
#841=DIRECTION('',(0.,0.,-1.));
#842=DIRECTION('',(-1.,0.,0.));
#843=DIRECTION('',(0.,1.,0.));
#844=DIRECTION('',(1.,0.,0.));
#845=DIRECTION('',(0.,1.,0.));
#846=DIRECTION('',(0.,1.,0.));
#847=DIRECTION('',(1.,0.,0.));
#848=DIRECTION('',(0.,1.,0.));
#849=DIRECTION('',(0.,0.,1.));
#850=DIRECTION('',(1.,0.,-1.40202522499033E-16));
#851=DIRECTION('',(0.,0.,1.));
#852=DIRECTION('',(1.40202522499033E-16,0.,1.));
#853=DIRECTION('',(0.,1.,0.));
#854=DIRECTION('',(1.40202522499033E-16,0.,1.));
#855=DIRECTION('',(-1.,0.,1.40202522499033E-16));
#856=DIRECTION('',(1.38777878078145E-16,0.,1.));
#857=DIRECTION('',(0.,-1.,0.));
#858=DIRECTION('',(1.,0.,0.));
#859=DIRECTION('',(0.,1.,0.));
#860=DIRECTION('',(0.,-1.,0.));
#861=DIRECTION('',(1.,0.,0.));
#862=DIRECTION('',(0.,1.,0.));
#863=DIRECTION('',(0.,0.,1.));
#864=DIRECTION('',(-1.,0.,-2.31296463463574E-15));
#865=DIRECTION('',(0.,1.,0.));
#866=DIRECTION('',(-1.,0.,-2.31296463463574E-15));
#867=DIRECTION('',(2.31296463463574E-15,0.,-1.));
#868=DIRECTION('',(-1.,0.,-2.31065167000111E-15));
#869=DIRECTION('',(0.,-1.,0.));
#870=DIRECTION('',(0.999999999999994,0.,0.));
#871=DIRECTION('',(0.,1.,0.));
#872=DIRECTION('',(0.,-1.,0.));
#873=DIRECTION('',(0.999999999999994,0.,0.));
#874=DIRECTION('',(0.,1.,0.));
#875=DIRECTION('',(0.,0.,1.));
#876=DIRECTION('',(2.06829617270312E-16,0.,-1.));
#877=DIRECTION('',(0.,1.,0.));
#878=DIRECTION('',(2.06829617270312E-16,0.,-1.));
#879=DIRECTION('',(1.,0.,2.06829617270312E-16));
#880=DIRECTION('',(2.08166817117217E-16,0.,-1.));
#881=DIRECTION('',(0.,-1.,0.));
#882=DIRECTION('',(1.,0.,0.));
#883=DIRECTION('',(0.,1.,0.));
#884=DIRECTION('',(0.,-1.,0.));
#885=DIRECTION('',(1.,0.,0.));
#886=DIRECTION('',(0.,1.,0.));
#887=DIRECTION('',(0.,0.,0.999999999999997));
#888=DIRECTION('',(0.,1.,0.));
#889=DIRECTION('',(1.,0.,0.));
#890=DIRECTION('',(0.,1.,0.));
#891=DIRECTION('',(0.,1.,0.));
#892=DIRECTION('',(1.,0.,0.));
#893=DIRECTION('',(0.,1.,0.));
#894=DIRECTION('',(0.,0.,1.));
#895=DIRECTION('',(0.,-1.,0.));
#896=DIRECTION('',(0.999999999999997,0.,0.));
#897=DIRECTION('',(0.,1.,0.));
#898=DIRECTION('',(0.,-1.,0.));
#899=DIRECTION('',(0.999999999999997,0.,0.));
#900=DIRECTION('',(0.,1.,0.));
#901=DIRECTION('',(0.,0.,1.));
#902=DIRECTION('',(1.,0.,-2.06829617270312E-16));
#903=DIRECTION('',(0.,0.,0.999999999999999));
#904=DIRECTION('',(2.06829617270312E-16,0.,1.));
#905=DIRECTION('',(0.,1.,0.));
#906=DIRECTION('',(2.06829617270312E-16,0.,1.));
#907=DIRECTION('',(-1.,0.,2.06829617270312E-16));
#908=DIRECTION('',(2.08166817117217E-16,0.,1.));
#909=DIRECTION('',(0.,-1.,0.));
#910=DIRECTION('',(1.,0.,0.));
#911=DIRECTION('',(0.,1.,0.));
#912=DIRECTION('',(0.,-1.,0.));
#913=DIRECTION('',(1.,0.,0.));
#914=DIRECTION('',(0.,1.,0.));
#915=DIRECTION('',(0.,0.,1.));
#916=DIRECTION('',(-1.,0.,2.31296463463574E-15));
#917=DIRECTION('',(0.,1.,0.));
#918=DIRECTION('',(-1.,0.,2.31296463463574E-15));
#919=DIRECTION('',(-2.31296463463574E-15,0.,-1.));
#920=DIRECTION('',(-1.,0.,2.31065167000111E-15));
#921=DIRECTION('',(0.,-1.,0.));
#922=DIRECTION('',(1.,0.,0.));
#923=DIRECTION('',(0.,1.,0.));
#924=DIRECTION('',(0.,-1.,0.));
#925=DIRECTION('',(1.,0.,0.));
#926=DIRECTION('',(0.,1.,0.));
#927=DIRECTION('',(0.,0.,1.));
#928=DIRECTION('',(1.,0.,1.40202522499033E-16));
#929=DIRECTION('',(0.,0.,-1.));
#930=DIRECTION('',(1.40202522499033E-16,0.,-1.));
#931=DIRECTION('',(0.,1.,0.));
#932=DIRECTION('',(1.40202522499033E-16,0.,-1.));
#933=DIRECTION('',(1.,0.,1.40202522499033E-16));
#934=DIRECTION('',(1.38777878078145E-16,0.,-1.));
#935=DIRECTION('',(0.,1.,0.));
#936=DIRECTION('',(1.,0.,0.));
#937=DIRECTION('',(0.,1.,0.));
#938=DIRECTION('',(0.,1.,0.));
#939=DIRECTION('',(1.,0.,0.));
#940=DIRECTION('',(0.,1.,0.));
#941=DIRECTION('',(0.,0.,1.));
#942=DIRECTION('',(0.,0.,1.));
#943=DIRECTION('',(1.,0.,0.));
#944=DIRECTION('',(-1.,0.,0.));
#945=DIRECTION('',(0.,1.,0.));
#946=DIRECTION('',(-1.,0.,0.));
#947=DIRECTION('',(0.,0.,-1.));
#948=DIRECTION('',(-1.,0.,0.));
#949=DIRECTION('',(0.,-1.,0.));
#950=DIRECTION('',(1.,0.,0.));
#951=DIRECTION('',(0.,-1.,0.));
#952=DIRECTION('',(1.,0.,0.));
#953=DIRECTION('',(0.,1.,0.));
#954=DIRECTION('',(0.,0.,1.));
#955=DIRECTION('',(0.,-1.,0.));
#956=DIRECTION('',(0.,0.,-1.));
#957=DIRECTION('',(0.,-1.,0.));
#958=DIRECTION('',(0.,0.,-1.));
#959=DIRECTION('',(0.,0.,-1.));
#960=DIRECTION('',(-1.,0.,0.));
#961=DIRECTION('',(0.,0.,-1.));
#962=DIRECTION('',(-1.,0.,0.));
#963=DIRECTION('',(-1.,0.,0.));
#964=DIRECTION('',(0.,0.,-0.999999999999999));
#965=DIRECTION('',(-1.,0.,0.));
#966=DIRECTION('',(0.,0.,0.999999999999999));
#967=DIRECTION('',(-1.,0.,0.));
#968=DIRECTION('',(0.,0.,-1.));
#969=DIRECTION('',(-1.,0.,0.));
#970=DIRECTION('',(0.,0.,1.));
#971=DIRECTION('',(-1.,0.,0.));
#972=DIRECTION('',(2.77098543559417E-17,0.,1.));
#973=DIRECTION('',(1.,0.,0.));
#974=DIRECTION('',(-8.0031033388641E-18,0.,-1.));
#975=CARTESIAN_POINT('',(0.,0.,0.));
#976=CARTESIAN_POINT('',(73.6,-136.,48.3729833462074));
#977=CARTESIAN_POINT('',(73.6,-136.,46.3729833462074));
#978=CARTESIAN_POINT('',(71.5,-136.,48.3729833462074));
#979=CARTESIAN_POINT('',(71.5,-136.,46.3729833462074));
#980=CARTESIAN_POINT('',(78.5,-136.,48.3729833462074));
#981=CARTESIAN_POINT('',(58.2027027027027,-135.12266173848,32.7685287918436));
#982=CARTESIAN_POINT('',(58.2565075259508,-135.012438273202,32.7887205408145));
#983=CARTESIAN_POINT('',(58.320507472269,-134.907275440638,32.8125874203169));
#984=CARTESIAN_POINT('',(58.392768694954,-134.809702754737,32.83922882965));
#985=CARTESIAN_POINT('',(58.5205272905876,-134.637193228055,32.88633111931));
#986=CARTESIAN_POINT('',(58.6769716066839,-134.485345357577,32.9431260224923));
#987=CARTESIAN_POINT('',(58.8496994766256,-134.363904432521,33.0040981957554));
#988=CARTESIAN_POINT('',(59.0329908571426,-134.235036550272,33.0687992414771));
#989=CARTESIAN_POINT('',(59.2393600249899,-134.137001053054,33.139835331672));
#990=CARTESIAN_POINT('',(59.4530135259367,-134.076252148229,33.2109031771475));
#991=CARTESIAN_POINT('',(59.6764310988058,-134.012726988051,33.2852188587291));
#992=CARTESIAN_POINT('',(59.9139311907694,-133.98831245532,33.3615696609664));
#993=CARTESIAN_POINT('',(60.1463188329803,-134.005359481231,33.4335353543669));
#994=CARTESIAN_POINT('',(60.3810863349086,-134.022581084112,33.5062380415814));
#995=CARTESIAN_POINT('',(60.6173263710369,-134.082780583122,33.5765331676296));
#996=CARTESIAN_POINT('',(60.8339867275192,-134.182180939059,33.6387899219967));
#997=CARTESIAN_POINT('',(61.0456047840268,-134.279267967258,33.699597785408));
#998=CARTESIAN_POINT('',(61.2446393501817,-134.416727289675,33.7545308170218));
#999=CARTESIAN_POINT('',(61.4120470370591,-134.58362322628,33.7995430582038));
#1000=CARTESIAN_POINT('',(61.5730145095939,-134.7440986357,33.8428236675434));
#1001=CARTESIAN_POINT('',(61.7093441448778,-134.936495278128,33.8782332435232));
#1002=CARTESIAN_POINT('',(61.8077396195556,-135.144384743071,33.9034601402063));
#1003=CARTESIAN_POINT('',(61.9027032901821,-135.345023509643,33.9278071817282));
#1004=CARTESIAN_POINT('',(61.9650200026187,-135.565801988524,33.9434045556356));
#1005=CARTESIAN_POINT('',(61.9887078746701,-135.787771375105,33.9493432389685));
#1006=CARTESIAN_POINT('',(62.0118874846204,-136.004978044858,33.9551544981216));
#1007=CARTESIAN_POINT('',(61.9987488434043,-136.229358327746,33.9518954227608));
#1008=CARTESIAN_POINT('',(61.9505160259109,-136.442139381491,33.9397454878023));
#1009=CARTESIAN_POINT('',(61.9025543655123,-136.653724214584,33.927663857812));
#1010=CARTESIAN_POINT('',(61.8186415921698,-136.85959705117,33.906451936961));
#1011=CARTESIAN_POINT('',(61.7063176786131,-137.043302439206,33.8772955123417));
#1012=CARTESIAN_POINT('',(61.592870919204,-137.228844237908,33.8478476255625));
#1013=CARTESIAN_POINT('',(61.4474938803013,-137.396746384136,33.8094856226809));
#1014=CARTESIAN_POINT('',(61.2826879088355,-137.534506998527,33.7644955213916));
#1015=CARTESIAN_POINT('',(61.1138306853802,-137.675654037317,33.7183994757258));
#1016=CARTESIAN_POINT('',(60.9202176787821,-137.788933623687,33.6641094925188));
#1017=CARTESIAN_POINT('',(60.7176806732406,-137.866797913877,33.605151816192));
#1018=CARTESIAN_POINT('',(60.5079472775964,-137.947428818523,33.5440993007652));
#1019=CARTESIAN_POINT('',(60.2831807321777,-137.992286790055,33.4764211782587));
#1020=CARTESIAN_POINT('',(60.0610276616429,-137.999068689294,33.407003105921));
#1021=CARTESIAN_POINT('',(59.8306904024879,-138.006100435822,33.3350276500805));
#1022=CARTESIAN_POINT('',(59.5969687612207,-137.972430484766,33.259240554628));
#1023=CARTESIAN_POINT('',(59.3783286541519,-137.900927336263,33.1859673126299));
#1024=CARTESIAN_POINT('',(59.1550891999235,-137.827920036452,33.1111526833631));
#1025=CARTESIAN_POINT('',(58.9412673288243,-137.713319809367,33.0368677207427));
#1026=CARTESIAN_POINT('',(58.7554011101604,-137.565558559559,32.9706596372711));
#1027=CARTESIAN_POINT('',(58.5720267994646,-137.41977834449,32.905339205423));
#1028=CARTESIAN_POINT('',(58.4105129792409,-137.237161185315,32.8460289316459));
#1029=CARTESIAN_POINT('',(58.2872043279248,-137.032633035362,32.8001161868695));
#1030=CARTESIAN_POINT('',(58.2568506723985,-136.982286389422,32.7888143063905));
#1031=CARTESIAN_POINT('',(58.2286150163728,-136.930421699652,32.7782531046709));
#1032=CARTESIAN_POINT('',(58.2027027027027,-136.877338261521,32.7685287918436));
#1033=CARTESIAN_POINT('',(58.2027027027027,-135.12266173848,32.7685287918436));
#1034=CARTESIAN_POINT('',(58.2027027027027,-136.877338261521,32.7685287918436));
#1035=CARTESIAN_POINT('',(58.2027027027027,-141.,32.7685287918436));
#1036=CARTESIAN_POINT('',(58.2027027027027,-131.,32.7685287918436));
#1037=CARTESIAN_POINT('',(70.5,-131.,0.));
#1038=CARTESIAN_POINT('',(82.7972972972973,-131.,32.7685287918436));
#1039=CARTESIAN_POINT('',(82.7972972972973,-141.,32.7685287918436));
#1040=CARTESIAN_POINT('',(82.7972972972973,-135.12266173848,32.7685287918436));
#1041=CARTESIAN_POINT('',(82.7972972972973,-136.877338261521,32.7685287918436));
#1042=CARTESIAN_POINT('',(82.6979216486599,-137.080917191731,32.8058222542132));
#1043=CARTESIAN_POINT('',(82.5625725381408,-137.267990205721,32.8560905326672));
#1044=CARTESIAN_POINT('',(82.4042604262022,-137.424097136927,32.9133496275471));
#1045=CARTESIAN_POINT('',(82.2462310332757,-137.579925287205,32.9705064672392));
#1046=CARTESIAN_POINT('',(82.0611850008731,-137.709331621464,33.0360800498592));
#1047=CARTESIAN_POINT('',(81.8637279737414,-137.803877486798,33.1038621091076));
#1048=CARTESIAN_POINT('',(81.657597272724,-137.902576458329,33.1746216236826));
#1049=CARTESIAN_POINT('',(81.4324279639713,-137.965945176117,33.2496422155342));
#1050=CARTESIAN_POINT('',(81.2057458822206,-137.989389009709,33.3224699730575));
#1051=CARTESIAN_POINT('',(80.9723786661815,-138.01352423088,33.3974455110106));
#1052=CARTESIAN_POINT('',(80.7308674414035,-137.995886207157,33.4721756031205));
#1053=CARTESIAN_POINT('',(80.5016989487959,-137.936929545019,33.5405130869767));
#1054=CARTESIAN_POINT('',(80.2743987862798,-137.878453535806,33.6082934393703));
#1055=CARTESIAN_POINT('',(80.052706721847,-137.777462472557,33.6717529897289));
#1056=CARTESIAN_POINT('',(79.8572239159192,-137.641360052412,33.7259893937502));
#1057=CARTESIAN_POINT('',(79.6683031342975,-137.509826358323,33.7784051742145));
#1058=CARTESIAN_POINT('',(79.4984336501713,-137.341566892114,33.8237707463998));
#1059=CARTESIAN_POINT('',(79.3641231813013,-137.150611591305,33.8589326504353));
#1060=CARTESIAN_POINT('',(79.2349875170583,-136.967013545536,33.8927398128396));
#1061=CARTESIAN_POINT('',(79.1350516685907,-136.757137400524,33.9181344762357));
#1062=CARTESIAN_POINT('',(79.07401231312,-136.539046779033,33.9335573268478));
#1063=CARTESIAN_POINT('',(79.0147308945415,-136.327237179786,33.9485359984895));
#1064=CARTESIAN_POINT('',(78.9904620676162,-136.101727987458,33.9545613226317));
#1065=CARTESIAN_POINT('',(79.0035029871427,-135.881679766516,33.951295070257));
#1066=CARTESIAN_POINT('',(79.0163669145681,-135.664618052536,33.9480731476451));
#1067=CARTESIAN_POINT('',(79.0658476022603,-135.446905414314,33.9357236627963));
#1068=CARTESIAN_POINT('',(79.1474143364542,-135.246391109909,33.9149262905537));
#1069=CARTESIAN_POINT('',(79.2291664600432,-135.045421065478,33.8940816488905));
#1070=CARTESIAN_POINT('',(79.345284792324,-134.856305905833,33.8641698544161));
#1071=CARTESIAN_POINT('',(79.4855513886861,-134.693690157853,33.8269103856867));
#1072=CARTESIAN_POINT('',(79.6282753885542,-134.528225459948,33.7889981489323));
#1073=CARTESIAN_POINT('',(79.7996938922064,-134.385776760836,33.7424499084357));
#1074=CARTESIAN_POINT('',(79.9854294197979,-134.276443636608,33.6901562584983));
#1075=CARTESIAN_POINT('',(80.176888759794,-134.163741193108,33.6362510749676));
#1076=CARTESIAN_POINT('',(80.3885140148259,-134.083192362346,33.5748069951287));
#1077=CARTESIAN_POINT('',(80.6034012478793,-134.03971700262,33.5100176547902));
#1078=CARTESIAN_POINT('',(80.8264284740144,-133.994594783179,33.4427740747343));
#1079=CARTESIAN_POINT('',(81.0588550489995,-133.988138079172,33.370134253159));
#1080=CARTESIAN_POINT('',(81.2825366699779,-134.020057316456,33.2977011663055));
#1081=CARTESIAN_POINT('',(81.5132485612606,-134.052979769227,33.2229915214705));
#1082=CARTESIAN_POINT('',(81.7410101069969,-134.127647082326,33.1464522030831));
#1083=CARTESIAN_POINT('',(81.9471894177132,-134.23851420472,33.0750941712189));
#1084=CARTESIAN_POINT('',(82.1545343213918,-134.35000809193,33.0033327311782));
#1085=CARTESIAN_POINT('',(82.3460368547739,-134.501520826894,32.9347781897763));
#1086=CARTESIAN_POINT('',(82.5037902091802,-134.681434489009,32.8771808495496));
#1087=CARTESIAN_POINT('',(82.6193698580748,-134.813250119662,32.8349815544175));
#1088=CARTESIAN_POINT('',(82.7192476236052,-134.962770766281,32.7978190919192));
#1089=CARTESIAN_POINT('',(82.7972972972973,-135.12266173848,32.7685287918436));
#1090=CARTESIAN_POINT('',(82.7972972972973,-136.877338261521,32.7685287918436));
#1091=CARTESIAN_POINT('',(82.7972972972973,-141.,32.7685287918436));
#1092=CARTESIAN_POINT('',(82.7972972972973,-141.,32.7685287918436));
#1093=CARTESIAN_POINT('',(70.5,-141.,0.));
#1094=CARTESIAN_POINT('',(58.2027027027027,-141.,32.7685287918436));
#1095=CARTESIAN_POINT('',(58.2027027027027,-141.,32.7685287918436));
#1096=CARTESIAN_POINT('',(70.5,-141.,0.));
#1097=CARTESIAN_POINT('',(58.2027027027027,-136.877338261521,32.7685287918436));
#1098=CARTESIAN_POINT('',(58.1106460795725,-136.688752937927,32.7339819963494));
#1099=CARTESIAN_POINT('',(58.046862907051,-136.480030020072,32.7170047796014));
#1100=CARTESIAN_POINT('',(58.0182308509031,-136.269427243774,32.709323426027));
#1101=CARTESIAN_POINT('',(57.989635182564,-136.059092117607,32.7016518345047));
#1102=CARTESIAN_POINT('',(57.9950814610102,-135.840932835108,32.7028388647457));
#1103=CARTESIAN_POINT('',(58.0340702737574,-135.632412851863,32.7136425646828));
#1104=CARTESIAN_POINT('',(58.0670930461544,-135.4558004479,32.7227930901523));
#1105=CARTESIAN_POINT('',(58.1248316089396,-135.282186875472,32.7393055088286));
#1106=CARTESIAN_POINT('',(58.2027027027027,-135.12266173848,32.7685287918436));
#1107=CARTESIAN_POINT('',(57.5,-141.,34.6410161513775));
#1108=CARTESIAN_POINT('',(55.5,-141.,34.6410161513775));
#1109=CARTESIAN_POINT('',(55.5,-141.,34.6410161513775));
#1110=CARTESIAN_POINT('',(55.5,-131.,34.6410161513775));
#1111=CARTESIAN_POINT('',(57.5,-131.,34.6410161513775));
#1112=CARTESIAN_POINT('',(57.5,-141.,34.6410161513775));
#1113=CARTESIAN_POINT('',(82.7972972972973,-135.12266173848,32.7685287918436));
#1114=CARTESIAN_POINT('',(82.8893539204275,-135.311247062073,32.7339819963494));
#1115=CARTESIAN_POINT('',(82.953137092949,-135.519969979928,32.7170047796014));
#1116=CARTESIAN_POINT('',(82.9817691490969,-135.730572756226,32.709323426027));
#1117=CARTESIAN_POINT('',(83.010364817436,-135.940907882393,32.7016518345047));
#1118=CARTESIAN_POINT('',(83.0049185389898,-136.159067164892,32.7028388647457));
#1119=CARTESIAN_POINT('',(82.9659297262426,-136.367587148137,32.7136425646828));
#1120=CARTESIAN_POINT('',(82.9329069538456,-136.5441995521,32.7227930901523));
#1121=CARTESIAN_POINT('',(82.8751683910604,-136.717813124528,32.7393055088286));
#1122=CARTESIAN_POINT('',(82.7972972972973,-136.877338261521,32.7685287918436));
#1123=CARTESIAN_POINT('',(83.5,-131.,34.6410161513775));
#1124=CARTESIAN_POINT('',(85.5,-131.,34.6410161513775));
#1125=CARTESIAN_POINT('',(85.5,-141.,34.6410161513775));
#1126=CARTESIAN_POINT('',(85.5,-141.,34.6410161513775));
#1127=CARTESIAN_POINT('',(83.5,-141.,34.6410161513775));
#1128=CARTESIAN_POINT('',(83.5,-141.,34.6410161513775));
#1129=CARTESIAN_POINT('',(55.5,-131.,36.));
#1130=CARTESIAN_POINT('',(55.5,-131.,36.));
#1131=CARTESIAN_POINT('',(55.5,-141.,36.));
#1132=CARTESIAN_POINT('',(55.5,-141.,36.));
#1133=CARTESIAN_POINT('',(55.5,-141.,36.));
#1134=CARTESIAN_POINT('',(55.5,-141.,36.));
#1135=CARTESIAN_POINT('',(85.5,-131.,34.6410161513775));
#1136=CARTESIAN_POINT('',(85.5,-131.,36.));
#1137=CARTESIAN_POINT('',(85.5,-141.,36.));
#1138=CARTESIAN_POINT('',(85.5,-141.,36.));
#1139=CARTESIAN_POINT('',(85.5,-141.,34.6410161513775));
#1140=CARTESIAN_POINT('',(85.5,-141.,34.6410161513775));
#1141=CARTESIAN_POINT('',(83.5,-131.,36.));
#1142=CARTESIAN_POINT('',(83.5,-131.,38.));
#1143=CARTESIAN_POINT('',(83.5,-141.,38.));
#1144=CARTESIAN_POINT('',(83.5,-141.,38.));
#1145=CARTESIAN_POINT('',(83.5,-141.,36.));
#1146=CARTESIAN_POINT('',(83.5,-141.,36.));
#1147=CARTESIAN_POINT('',(81.,-136.,38.));
#1148=CARTESIAN_POINT('',(83.,-136.,38.));
#1149=CARTESIAN_POINT('',(83.5,-131.,38.));
#1150=CARTESIAN_POINT('',(78.5,-131.,38.));
#1151=CARTESIAN_POINT('',(78.5,-141.,38.));
#1152=CARTESIAN_POINT('',(78.5,-141.,38.));
#1153=CARTESIAN_POINT('',(83.5,-141.,38.));
#1154=CARTESIAN_POINT('',(83.5,-141.,38.));
#1155=CARTESIAN_POINT('',(78.5,-131.,40.));
#1156=CARTESIAN_POINT('',(76.5,-131.,40.));
#1157=CARTESIAN_POINT('',(76.5,-141.,40.));
#1158=CARTESIAN_POINT('',(76.5,-141.,40.));
#1159=CARTESIAN_POINT('',(78.5,-141.,40.));
#1160=CARTESIAN_POINT('',(78.5,-141.,40.));
#1161=CARTESIAN_POINT('',(76.5,-136.,48.3729833462074));
#1162=CARTESIAN_POINT('',(76.5,-136.,51.8729833462074));
#1163=CARTESIAN_POINT('',(76.5,-131.,40.));
#1164=CARTESIAN_POINT('',(76.5,-131.,52.3729833462074));
#1165=CARTESIAN_POINT('',(76.5,-141.,52.3729833462074));
#1166=CARTESIAN_POINT('',(76.5,-141.,52.3729833462074));
#1167=CARTESIAN_POINT('',(76.5,-141.,40.));
#1168=CARTESIAN_POINT('',(76.5,-141.,40.));
#1169=CARTESIAN_POINT('',(75.5,-131.,52.3729833462074));
#1170=CARTESIAN_POINT('',(75.5,-131.,53.3729833462074));
#1171=CARTESIAN_POINT('',(75.5,-141.,53.3729833462074));
#1172=CARTESIAN_POINT('',(75.5,-141.,53.3729833462074));
#1173=CARTESIAN_POINT('',(75.5,-141.,52.3729833462074));
#1174=CARTESIAN_POINT('',(75.5,-141.,52.3729833462074));
#1175=CARTESIAN_POINT('',(75.5,-131.,53.3729833462074));
#1176=CARTESIAN_POINT('',(72.5,-131.,53.3729833462074));
#1177=CARTESIAN_POINT('',(72.5,-141.,53.3729833462074));
#1178=CARTESIAN_POINT('',(72.5,-141.,53.3729833462074));
#1179=CARTESIAN_POINT('',(75.5,-141.,53.3729833462074));
#1180=CARTESIAN_POINT('',(75.5,-141.,53.3729833462074));
#1181=CARTESIAN_POINT('',(72.5,-131.,52.3729833462074));
#1182=CARTESIAN_POINT('',(71.5,-131.,52.3729833462074));
#1183=CARTESIAN_POINT('',(71.5,-141.,52.3729833462074));
#1184=CARTESIAN_POINT('',(71.5,-141.,52.3729833462074));
#1185=CARTESIAN_POINT('',(72.5,-141.,52.3729833462074));
#1186=CARTESIAN_POINT('',(72.5,-141.,52.3729833462074));
#1187=CARTESIAN_POINT('',(71.5,-131.,52.3729833462074));
#1188=CARTESIAN_POINT('',(71.5,-131.,46.0825756949558));
#1189=CARTESIAN_POINT('',(71.5,-141.,46.0825756949558));
#1190=CARTESIAN_POINT('',(71.5,-141.,46.0825756949558));
#1191=CARTESIAN_POINT('',(71.5,-141.,52.3729833462074));
#1192=CARTESIAN_POINT('',(71.5,-141.,52.3729833462074));
#1193=CARTESIAN_POINT('',(72.5,-131.,46.0825756949558));
#1194=CARTESIAN_POINT('',(72.1,-131.,45.1660605559647));
#1195=CARTESIAN_POINT('',(72.1,-141.,45.1660605559647));
#1196=CARTESIAN_POINT('',(72.1,-141.,45.1660605559647));
#1197=CARTESIAN_POINT('',(72.5,-141.,46.0825756949558));
#1198=CARTESIAN_POINT('',(72.5,-141.,46.0825756949558));
#1199=CARTESIAN_POINT('',(70.5,-131.,41.5));
#1200=CARTESIAN_POINT('',(68.9,-131.,45.1660605559647));
#1201=CARTESIAN_POINT('',(68.9,-141.,45.1660605559647));
#1202=CARTESIAN_POINT('',(68.9,-141.,45.1660605559647));
#1203=CARTESIAN_POINT('',(70.5,-141.,41.5));
#1204=CARTESIAN_POINT('',(70.5,-141.,41.5));
#1205=CARTESIAN_POINT('',(68.5,-131.,46.0825756949558));
#1206=CARTESIAN_POINT('',(69.5,-131.,46.0825756949558));
#1207=CARTESIAN_POINT('',(69.5,-141.,46.0825756949558));
#1208=CARTESIAN_POINT('',(69.5,-141.,46.0825756949558));
#1209=CARTESIAN_POINT('',(68.5,-141.,46.0825756949558));
#1210=CARTESIAN_POINT('',(68.5,-141.,46.0825756949558));
#1211=CARTESIAN_POINT('',(69.5,-136.,48.3729833462074));
#1212=CARTESIAN_POINT('',(69.5,-136.,50.0229833462074));
#1213=CARTESIAN_POINT('',(69.5,-131.,46.0825756949558));
#1214=CARTESIAN_POINT('',(69.5,-131.,52.3729833462074));
#1215=CARTESIAN_POINT('',(69.5,-141.,52.3729833462074));
#1216=CARTESIAN_POINT('',(69.5,-141.,52.3729833462074));
#1217=CARTESIAN_POINT('',(69.5,-141.,46.0825756949558));
#1218=CARTESIAN_POINT('',(69.5,-141.,46.0825756949558));
#1219=CARTESIAN_POINT('',(68.5,-131.,52.3729833462074));
#1220=CARTESIAN_POINT('',(68.5,-131.,53.3729833462074));
#1221=CARTESIAN_POINT('',(68.5,-141.,53.3729833462074));
#1222=CARTESIAN_POINT('',(68.5,-141.,53.3729833462074));
#1223=CARTESIAN_POINT('',(68.5,-141.,52.3729833462074));
#1224=CARTESIAN_POINT('',(68.5,-141.,52.3729833462074));
#1225=CARTESIAN_POINT('',(68.5,-131.,53.3729833462074));
#1226=CARTESIAN_POINT('',(65.5,-131.,53.3729833462074));
#1227=CARTESIAN_POINT('',(65.5,-141.,53.3729833462074));
#1228=CARTESIAN_POINT('',(65.5,-141.,53.3729833462074));
#1229=CARTESIAN_POINT('',(68.5,-141.,53.3729833462074));
#1230=CARTESIAN_POINT('',(68.5,-141.,53.3729833462074));
#1231=CARTESIAN_POINT('',(65.5,-131.,52.3729833462074));
#1232=CARTESIAN_POINT('',(64.5,-131.,52.3729833462074));
#1233=CARTESIAN_POINT('',(64.5,-141.,52.3729833462074));
#1234=CARTESIAN_POINT('',(64.5,-141.,52.3729833462074));
#1235=CARTESIAN_POINT('',(65.5,-141.,52.3729833462074));
#1236=CARTESIAN_POINT('',(65.5,-141.,52.3729833462074));
#1237=CARTESIAN_POINT('',(64.5,-136.,48.3729833462074));
#1238=CARTESIAN_POINT('',(64.5,-136.,46.0229833462074));
#1239=CARTESIAN_POINT('',(64.5,-131.,52.3729833462074));
#1240=CARTESIAN_POINT('',(64.5,-131.,40.));
#1241=CARTESIAN_POINT('',(64.5,-141.,40.));
#1242=CARTESIAN_POINT('',(64.5,-141.,40.));
#1243=CARTESIAN_POINT('',(64.5,-141.,52.3729833462074));
#1244=CARTESIAN_POINT('',(64.5,-141.,52.3729833462074));
#1245=CARTESIAN_POINT('',(62.5,-131.,40.));
#1246=CARTESIAN_POINT('',(62.5,-131.,38.));
#1247=CARTESIAN_POINT('',(62.5,-141.,38.));
#1248=CARTESIAN_POINT('',(62.5,-141.,38.));
#1249=CARTESIAN_POINT('',(62.5,-141.,40.));
#1250=CARTESIAN_POINT('',(62.5,-141.,40.));
#1251=CARTESIAN_POINT('',(60.,-136.,38.));
#1252=CARTESIAN_POINT('',(62.,-136.,38.));
#1253=CARTESIAN_POINT('',(62.5,-131.,38.));
#1254=CARTESIAN_POINT('',(57.5,-131.,38.));
#1255=CARTESIAN_POINT('',(57.5,-141.,38.));
#1256=CARTESIAN_POINT('',(57.5,-141.,38.));
#1257=CARTESIAN_POINT('',(62.5,-141.,38.));
#1258=CARTESIAN_POINT('',(62.5,-141.,38.));
#1259=CARTESIAN_POINT('',(57.5,-131.,36.));
#1260=CARTESIAN_POINT('',(57.5,-141.,36.));
#1261=CARTESIAN_POINT('',(57.5,-141.,36.));
#1262=CARTESIAN_POINT('',(57.5,-141.,34.6410161513775));
#1263=CARTESIAN_POINT('',(57.5,-131.,34.6410161513775));
#1264=CARTESIAN_POINT('',(81.,-136.,38.));
#1265=CARTESIAN_POINT('',(60.,-136.,38.));
#1266=CARTESIAN_POINT('',(65.2,-136.,48.3729833462074));
#1267=CARTESIAN_POINT('',(65.2,-136.,46.7229833462074));
#1268=CARTESIAN_POINT('',(78.5,-136.,48.3729833462074));
#1269=CARTESIAN_POINT('',(74.4660254037844,-136.,48.3729833462074));
#1270=CARTESIAN_POINT('',(74.4660254037844,-136.,44.8729833462074));
#1271=CARTESIAN_POINT('',(78.5,-136.,48.3729833462074));
#1272=CARTESIAN_POINT('',(65.2,-136.,48.3729833462074));
#1273=CARTESIAN_POINT('',(73.6,-136.,48.3729833462074));
#1274=(
GEOMETRIC_REPRESENTATION_CONTEXT(3)
GLOBAL_UNCERTAINTY_ASSIGNED_CONTEXT((#1275))
GLOBAL_UNIT_ASSIGNED_CONTEXT((#1281,#1277,#1276))
REPRESENTATION_CONTEXT('\X2\041A04400435043F043B0435043D04380435\X0\3',
'TOP_LEVEL_ASSEMBLY_PART')
);
#1275=UNCERTAINTY_MEASURE_WITH_UNIT(LENGTH_MEASURE(0.0508),#1281,
'DISTANCE_ACCURACY_VALUE','Maximum Tolerance applied to model');
#1276=(
NAMED_UNIT(*)
SI_UNIT($,.STERADIAN.)
SOLID_ANGLE_UNIT()
);
#1277=(
CONVERSION_BASED_UNIT('DEGREE',#1279)
NAMED_UNIT(#1278)
PLANE_ANGLE_UNIT()
);
#1278=DIMENSIONAL_EXPONENTS(0.,0.,0.,0.,0.,0.,0.);
#1279=PLANE_ANGLE_MEASURE_WITH_UNIT(PLANE_ANGLE_MEASURE(0.0174532925),#1280);
#1280=(
NAMED_UNIT(*)
PLANE_ANGLE_UNIT()
SI_UNIT($,.RADIAN.)
);
#1281=(
LENGTH_UNIT()
NAMED_UNIT(*)
SI_UNIT(.MILLI.,.METRE.)
);
ENDSEC;
END-ISO-10303-21;
