ISO-10303-21;
HEADER;
/* Generated by software containing ST-Developer
 * from STEP Tools, Inc. (www.steptools.com) 
 */
/* OPTION: using custom schema-name function */

FILE_DESCRIPTION(
/* description */ (''),
/* implementation_level */ '2;1');

FILE_NAME(
/* name */ '\X2\041A04400435043F043B0435043D04380435\X0\1.stp',
/* time_stamp */ '2026-06-25T22:02:47+03:00',
/* author */ (''),
/* organization */ (''),
/* preprocessor_version */ 'ST-DEVELOPER v16',
/* originating_system */ 'SIEMENS PLM Software NX 10.0',
/* authorisation */ '');

FILE_SCHEMA (('AP203_CONFIGURATION_CONTROLLED_3D_DESIGN_OF_MECHANICAL_PARTS_AND_ASSEMBLIES_MIM_LF { 1 0 10303 403 2 1 2}'));
ENDSEC;

DATA;
#10=PROPERTY_DEFINITION_REPRESENTATION(#14,#12);
#11=PROPERTY_DEFINITION_REPRESENTATION(#15,#13);
#12=REPRESENTATION('',(#16),#1027);
#13=REPRESENTATION('',(#17),#1027);
#14=PROPERTY_DEFINITION('pmi validation property','',#89);
#15=PROPERTY_DEFINITION('pmi validation property','',#89);
#16=VALUE_REPRESENTATION_ITEM('number of annotations',COUNT_MEASURE(0.));
#17=VALUE_REPRESENTATION_ITEM('number of views',COUNT_MEASURE(0.));
#18=SHAPE_REPRESENTATION_RELATIONSHIP('None',
'relationship between Hi6C8432B1730r-None and Hi6C8432B1730r-None',#100,
#19);
#19=ADVANCED_BREP_SHAPE_REPRESENTATION('Hi6C8432B1730r-None',(#101),#1027);
#20=CC_DESIGN_APPROVAL(#32,(#90));
#21=CC_DESIGN_APPROVAL(#33,(#92));
#22=CC_DESIGN_APPROVAL(#34,(#39));
#23=APPROVAL_PERSON_ORGANIZATION(#77,#32,#26);
#24=APPROVAL_PERSON_ORGANIZATION(#78,#33,#27);
#25=APPROVAL_PERSON_ORGANIZATION(#79,#34,#28);
#26=APPROVAL_ROLE('approver');
#27=APPROVAL_ROLE('approver');
#28=APPROVAL_ROLE('approver');
#29=APPROVAL_DATE_TIME(#47,#32);
#30=APPROVAL_DATE_TIME(#48,#33);
#31=APPROVAL_DATE_TIME(#49,#34);
#32=APPROVAL(#35,' ');
#33=APPROVAL(#36,' ');
#34=APPROVAL(#37,' ');
#35=APPROVAL_STATUS('not_yet_approved');
#36=APPROVAL_STATUS('not_yet_approved');
#37=APPROVAL_STATUS('not_yet_approved');
#38=CC_DESIGN_SECURITY_CLASSIFICATION(#39,(#92));
#39=SECURITY_CLASSIFICATION(' ',' ',#40);
#40=SECURITY_CLASSIFICATION_LEVEL('confidential');
#41=CC_DESIGN_DATE_AND_TIME_ASSIGNMENT(#45,#43,(#90));
#42=CC_DESIGN_DATE_AND_TIME_ASSIGNMENT(#46,#44,(#39));
#43=DATE_TIME_ROLE('creation_date');
#44=DATE_TIME_ROLE('classification_date');
#45=DATE_AND_TIME(#60,#50);
#46=DATE_AND_TIME(#61,#51);
#47=DATE_AND_TIME(#62,#52);
#48=DATE_AND_TIME(#63,#53);
#49=DATE_AND_TIME(#64,#54);
#50=LOCAL_TIME(0,0,0.,#55);
#51=LOCAL_TIME(0,0,0.,#56);
#52=LOCAL_TIME(0,0,0.,#57);
#53=LOCAL_TIME(0,0,0.,#58);
#54=LOCAL_TIME(0,0,0.,#59);
#55=COORDINATED_UNIVERSAL_TIME_OFFSET(0,0,.BEHIND.);
#56=COORDINATED_UNIVERSAL_TIME_OFFSET(0,0,.BEHIND.);
#57=COORDINATED_UNIVERSAL_TIME_OFFSET(0,0,.BEHIND.);
#58=COORDINATED_UNIVERSAL_TIME_OFFSET(0,0,.BEHIND.);
#59=COORDINATED_UNIVERSAL_TIME_OFFSET(0,0,.BEHIND.);
#60=CALENDAR_DATE(0,1,1);
#61=CALENDAR_DATE(0,1,1);
#62=CALENDAR_DATE(0,1,1);
#63=CALENDAR_DATE(0,1,1);
#64=CALENDAR_DATE(0,1,1);
#65=CC_DESIGN_PERSON_AND_ORGANIZATION_ASSIGNMENT(#73,#69,(#90,#92));
#66=CC_DESIGN_PERSON_AND_ORGANIZATION_ASSIGNMENT(#74,#70,(#94));
#67=CC_DESIGN_PERSON_AND_ORGANIZATION_ASSIGNMENT(#75,#71,(#92));
#68=CC_DESIGN_PERSON_AND_ORGANIZATION_ASSIGNMENT(#76,#72,(#39));
#69=PERSON_AND_ORGANIZATION_ROLE('creator');
#70=PERSON_AND_ORGANIZATION_ROLE('design_owner');
#71=PERSON_AND_ORGANIZATION_ROLE('design_supplier');
#72=PERSON_AND_ORGANIZATION_ROLE('classification_officer');
#73=PERSON_AND_ORGANIZATION(#87,#80);
#74=PERSON_AND_ORGANIZATION(#87,#81);
#75=PERSON_AND_ORGANIZATION(#87,#82);
#76=PERSON_AND_ORGANIZATION(#87,#83);
#77=PERSON_AND_ORGANIZATION(#87,#84);
#78=PERSON_AND_ORGANIZATION(#87,#85);
#79=PERSON_AND_ORGANIZATION(#87,#86);
#80=ORGANIZATION(' ',' ',' ');
#81=ORGANIZATION(' ',' ',' ');
#82=ORGANIZATION(' ',' ',' ');
#83=ORGANIZATION(' ',' ',' ');
#84=ORGANIZATION(' ',' ',' ');
#85=ORGANIZATION(' ',' ',' ');
#86=ORGANIZATION(' ',' ',' ');
#87=PERSON(' ',' ',' ',(' '),$,$);
#88=SHAPE_DEFINITION_REPRESENTATION(#89,#100);
#89=PRODUCT_DEFINITION_SHAPE('','',#90);
#90=PRODUCT_DEFINITION(' ','',#92,#91);
#91=DESIGN_CONTEXT('',#99,'design');
#92=PRODUCT_DEFINITION_FORMATION_WITH_SPECIFIED_SOURCE(' ',' ',#94,
 .NOT_KNOWN.);
#93=PRODUCT_RELATED_PRODUCT_CATEGORY('detail','',(#94));
#94=PRODUCT('Hi6C8432B1730r','Hi6C8432B1730r',' ',(#97));
#95=PRODUCT_CATEGORY('part',' ');
#96=PRODUCT_CATEGORY(' ','');
#97=MECHANICAL_CONTEXT(' ',#99,'mechanical');
#98=APPLICATION_PROTOCOL_DEFINITION('international standard',
'config_control_design',2010,#99);
#99=APPLICATION_CONTEXT(
'configuration controlled 3D designs of mechanical parts and assemblie
s');
#100=SHAPE_REPRESENTATION('Hi6C8432B1730r-None',(#635),#1027);
#101=MANIFOLD_SOLID_BREP('',#102);
#102=CLOSED_SHELL('',(#208,#209,#210,#211,#212,#213,#214,#215,#216,#217,
#218,#219,#220,#221,#222,#223,#224,#225,#226,#227,#228,#229,#230,#231,#232,
#233,#234,#235,#236,#237,#238));
#103=CONICAL_SURFACE('',#699,4.,59.9999999999999);
#104=CONICAL_SURFACE('',#700,4.,59.9999999999999);
#105=ELLIPSE('',#648,27.7101312320927,6.5);
#106=ELLIPSE('',#657,27.7101312320928,6.5);
#107=CYLINDRICAL_SURFACE('',#641,30.);
#108=CYLINDRICAL_SURFACE('',#647,40.);
#109=CYLINDRICAL_SURFACE('',#652,10.);
#110=CYLINDRICAL_SURFACE('',#656,10.);
#111=CYLINDRICAL_SURFACE('',#661,3.);
#112=CYLINDRICAL_SURFACE('',#664,26.);
#113=CYLINDRICAL_SURFACE('',#667,3.);
#114=CYLINDRICAL_SURFACE('',#670,3.);
#115=CYLINDRICAL_SURFACE('',#673,40.);
#116=CYLINDRICAL_SURFACE('',#676,3.);
#117=CYLINDRICAL_SURFACE('',#689,20.5);
#118=CYLINDRICAL_SURFACE('',#692,4.);
#119=CYLINDRICAL_SURFACE('',#694,4.);
#120=CYLINDRICAL_SURFACE('',#696,6.5);
#121=CYLINDRICAL_SURFACE('',#698,6.5);
#122=CYLINDRICAL_SURFACE('',#701,5.);
#123=CYLINDRICAL_SURFACE('',#702,5.);
#124=CYLINDRICAL_SURFACE('',#703,5.);
#125=CYLINDRICAL_SURFACE('',#704,5.);
#126=FACE_BOUND('',#262,.T.);
#127=FACE_BOUND('',#263,.T.);
#128=FACE_BOUND('',#265,.T.);
#129=FACE_BOUND('',#266,.T.);
#130=FACE_BOUND('',#269,.T.);
#131=FACE_BOUND('',#270,.T.);
#132=FACE_BOUND('',#274,.T.);
#133=FACE_BOUND('',#275,.T.);
#134=FACE_BOUND('',#276,.T.);
#135=FACE_BOUND('',#277,.T.);
#136=FACE_BOUND('',#278,.T.);
#137=FACE_BOUND('',#279,.T.);
#138=FACE_BOUND('',#280,.T.);
#139=FACE_BOUND('',#281,.T.);
#140=FACE_BOUND('',#282,.T.);
#141=FACE_BOUND('',#283,.T.);
#142=FACE_BOUND('',#285,.T.);
#143=FACE_BOUND('',#286,.T.);
#144=FACE_BOUND('',#287,.T.);
#145=FACE_BOUND('',#288,.T.);
#146=FACE_BOUND('',#289,.T.);
#147=FACE_BOUND('',#290,.T.);
#148=FACE_BOUND('',#291,.T.);
#149=FACE_BOUND('',#292,.T.);
#150=FACE_BOUND('',#293,.T.);
#151=FACE_BOUND('',#294,.T.);
#152=FACE_BOUND('',#295,.T.);
#153=FACE_BOUND('',#296,.T.);
#154=FACE_BOUND('',#297,.T.);
#155=FACE_BOUND('',#298,.T.);
#156=FACE_BOUND('',#299,.T.);
#157=FACE_BOUND('',#300,.T.);
#158=FACE_BOUND('',#301,.T.);
#159=FACE_BOUND('',#302,.T.);
#160=FACE_BOUND('',#303,.T.);
#161=FACE_BOUND('',#304,.T.);
#162=FACE_BOUND('',#305,.T.);
#163=FACE_BOUND('',#306,.T.);
#164=FACE_BOUND('',#307,.T.);
#165=FACE_BOUND('',#308,.T.);
#166=FACE_BOUND('',#309,.T.);
#167=FACE_BOUND('',#310,.T.);
#168=FACE_BOUND('',#311,.T.);
#169=FACE_BOUND('',#312,.T.);
#170=FACE_BOUND('',#313,.T.);
#171=FACE_BOUND('',#314,.T.);
#172=CIRCLE('',#637,4.);
#173=CIRCLE('',#639,30.);
#174=CIRCLE('',#640,30.);
#175=CIRCLE('',#642,4.);
#176=CIRCLE('',#645,40.);
#177=CIRCLE('',#646,40.);
#178=CIRCLE('',#650,10.);
#179=CIRCLE('',#651,10.);
#180=CIRCLE('',#654,10.);
#181=CIRCLE('',#655,10.);
#182=CIRCLE('',#659,3.);
#183=CIRCLE('',#660,3.);
#184=CIRCLE('',#662,26.);
#185=CIRCLE('',#663,26.);
#186=CIRCLE('',#665,3.);
#187=CIRCLE('',#666,3.);
#188=CIRCLE('',#668,3.);
#189=CIRCLE('',#669,3.);
#190=CIRCLE('',#671,40.);
#191=CIRCLE('',#672,40.);
#192=CIRCLE('',#674,3.);
#193=CIRCLE('',#675,3.);
#194=CIRCLE('',#677,5.);
#195=CIRCLE('',#678,5.);
#196=CIRCLE('',#679,5.);
#197=CIRCLE('',#680,5.);
#198=CIRCLE('',#682,5.);
#199=CIRCLE('',#683,5.);
#200=CIRCLE('',#684,5.);
#201=CIRCLE('',#685,5.);
#202=CIRCLE('',#686,20.5);
#203=CIRCLE('',#688,20.5);
#204=CIRCLE('',#691,4.);
#205=CIRCLE('',#693,4.);
#206=CIRCLE('',#695,6.5);
#207=CIRCLE('',#697,6.5);
#208=ADVANCED_FACE('',(#249),#239,.F.);
#209=ADVANCED_FACE('',(#126,#127),#240,.F.);
#210=ADVANCED_FACE('',(#250),#107,.F.);
#211=ADVANCED_FACE('',(#128,#129),#241,.F.);
#212=ADVANCED_FACE('',(#251),#242,.F.);
#213=ADVANCED_FACE('',(#252),#108,.T.);
#214=ADVANCED_FACE('',(#130,#131),#243,.F.);
#215=ADVANCED_FACE('',(#253),#109,.T.);
#216=ADVANCED_FACE('',(#254),#244,.F.);
#217=ADVANCED_FACE('',(#255),#110,.T.);
#218=ADVANCED_FACE('',(#132,#133),#245,.F.);
#219=ADVANCED_FACE('',(#134,#135),#111,.F.);
#220=ADVANCED_FACE('',(#136,#137),#112,.F.);
#221=ADVANCED_FACE('',(#138,#139),#113,.F.);
#222=ADVANCED_FACE('',(#140,#141),#114,.F.);
#223=ADVANCED_FACE('',(#256),#115,.T.);
#224=ADVANCED_FACE('',(#142,#143),#116,.F.);
#225=ADVANCED_FACE('',(#144,#145,#146,#147,#148,#149),#246,.F.);
#226=ADVANCED_FACE('',(#150,#151,#152,#153,#154,#155),#247,.T.);
#227=ADVANCED_FACE('',(#156,#157),#117,.F.);
#228=ADVANCED_FACE('',(#158,#159),#248,.T.);
#229=ADVANCED_FACE('',(#160,#161),#118,.F.);
#230=ADVANCED_FACE('',(#162,#163),#119,.F.);
#231=ADVANCED_FACE('',(#164,#165),#120,.F.);
#232=ADVANCED_FACE('',(#166,#167),#121,.F.);
#233=ADVANCED_FACE('',(#168,#169),#103,.F.);
#234=ADVANCED_FACE('',(#170,#171),#104,.F.);
#235=ADVANCED_FACE('',(#257),#122,.T.);
#236=ADVANCED_FACE('',(#258),#123,.T.);
#237=ADVANCED_FACE('',(#259),#124,.T.);
#238=ADVANCED_FACE('',(#260),#125,.T.);
#239=PLANE('',#636);
#240=PLANE('',#638);
#241=PLANE('',#643);
#242=PLANE('',#644);
#243=PLANE('',#649);
#244=PLANE('',#653);
#245=PLANE('',#658);
#246=PLANE('',#681);
#247=PLANE('',#687);
#248=PLANE('',#690);
#249=FACE_OUTER_BOUND('',#261,.T.);
#250=FACE_OUTER_BOUND('',#264,.T.);
#251=FACE_OUTER_BOUND('',#267,.T.);
#252=FACE_OUTER_BOUND('',#268,.T.);
#253=FACE_OUTER_BOUND('',#271,.T.);
#254=FACE_OUTER_BOUND('',#272,.T.);
#255=FACE_OUTER_BOUND('',#273,.T.);
#256=FACE_OUTER_BOUND('',#284,.T.);
#257=FACE_OUTER_BOUND('',#315,.T.);
#258=FACE_OUTER_BOUND('',#316,.T.);
#259=FACE_OUTER_BOUND('',#317,.T.);
#260=FACE_OUTER_BOUND('',#318,.T.);
#261=EDGE_LOOP('',(#319,#320,#321,#322));
#262=EDGE_LOOP('',(#323));
#263=EDGE_LOOP('',(#324,#325,#326,#327));
#264=EDGE_LOOP('',(#328,#329,#330,#331));
#265=EDGE_LOOP('',(#332));
#266=EDGE_LOOP('',(#333,#334,#335,#336));
#267=EDGE_LOOP('',(#337,#338,#339,#340));
#268=EDGE_LOOP('',(#341,#342,#343,#344));
#269=EDGE_LOOP('',(#345));
#270=EDGE_LOOP('',(#346,#347,#348,#349));
#271=EDGE_LOOP('',(#350,#351,#352,#353));
#272=EDGE_LOOP('',(#354,#355,#356,#357));
#273=EDGE_LOOP('',(#358,#359,#360,#361));
#274=EDGE_LOOP('',(#362));
#275=EDGE_LOOP('',(#363,#364,#365,#366));
#276=EDGE_LOOP('',(#367));
#277=EDGE_LOOP('',(#368));
#278=EDGE_LOOP('',(#369));
#279=EDGE_LOOP('',(#370));
#280=EDGE_LOOP('',(#371));
#281=EDGE_LOOP('',(#372));
#282=EDGE_LOOP('',(#373));
#283=EDGE_LOOP('',(#374));
#284=EDGE_LOOP('',(#375,#376,#377,#378));
#285=EDGE_LOOP('',(#379));
#286=EDGE_LOOP('',(#380));
#287=EDGE_LOOP('',(#381,#382,#383,#384,#385,#386,#387,#388,#389,#390,#391,
#392,#393,#394,#395,#396));
#288=EDGE_LOOP('',(#397));
#289=EDGE_LOOP('',(#398));
#290=EDGE_LOOP('',(#399));
#291=EDGE_LOOP('',(#400));
#292=EDGE_LOOP('',(#401));
#293=EDGE_LOOP('',(#402,#403,#404,#405,#406,#407,#408,#409,#410,#411,#412,
#413,#414,#415,#416,#417));
#294=EDGE_LOOP('',(#418));
#295=EDGE_LOOP('',(#419));
#296=EDGE_LOOP('',(#420));
#297=EDGE_LOOP('',(#421));
#298=EDGE_LOOP('',(#422));
#299=EDGE_LOOP('',(#423));
#300=EDGE_LOOP('',(#424));
#301=EDGE_LOOP('',(#425));
#302=EDGE_LOOP('',(#426));
#303=EDGE_LOOP('',(#427));
#304=EDGE_LOOP('',(#428));
#305=EDGE_LOOP('',(#429));
#306=EDGE_LOOP('',(#430));
#307=EDGE_LOOP('',(#431));
#308=EDGE_LOOP('',(#432));
#309=EDGE_LOOP('',(#433));
#310=EDGE_LOOP('',(#434));
#311=EDGE_LOOP('',(#435));
#312=EDGE_LOOP('',(#436));
#313=EDGE_LOOP('',(#437));
#314=EDGE_LOOP('',(#438));
#315=EDGE_LOOP('',(#439,#440,#441,#442));
#316=EDGE_LOOP('',(#443,#444,#445,#446));
#317=EDGE_LOOP('',(#447,#448,#449,#450));
#318=EDGE_LOOP('',(#451,#452,#453,#454));
#319=ORIENTED_EDGE('',*,*,#507,.T.);
#320=ORIENTED_EDGE('',*,*,#508,.T.);
#321=ORIENTED_EDGE('',*,*,#509,.F.);
#322=ORIENTED_EDGE('',*,*,#510,.T.);
#323=ORIENTED_EDGE('',*,*,#511,.F.);
#324=ORIENTED_EDGE('',*,*,#512,.T.);
#325=ORIENTED_EDGE('',*,*,#513,.T.);
#326=ORIENTED_EDGE('',*,*,#514,.F.);
#327=ORIENTED_EDGE('',*,*,#515,.T.);
#328=ORIENTED_EDGE('',*,*,#516,.T.);
#329=ORIENTED_EDGE('',*,*,#517,.T.);
#330=ORIENTED_EDGE('',*,*,#518,.F.);
#331=ORIENTED_EDGE('',*,*,#519,.T.);
#332=ORIENTED_EDGE('',*,*,#520,.F.);
#333=ORIENTED_EDGE('',*,*,#521,.T.);
#334=ORIENTED_EDGE('',*,*,#522,.T.);
#335=ORIENTED_EDGE('',*,*,#523,.F.);
#336=ORIENTED_EDGE('',*,*,#524,.T.);
#337=ORIENTED_EDGE('',*,*,#525,.F.);
#338=ORIENTED_EDGE('',*,*,#526,.T.);
#339=ORIENTED_EDGE('',*,*,#527,.T.);
#340=ORIENTED_EDGE('',*,*,#528,.F.);
#341=ORIENTED_EDGE('',*,*,#529,.T.);
#342=ORIENTED_EDGE('',*,*,#530,.F.);
#343=ORIENTED_EDGE('',*,*,#531,.F.);
#344=ORIENTED_EDGE('',*,*,#528,.T.);
#345=ORIENTED_EDGE('',*,*,#532,.F.);
#346=ORIENTED_EDGE('',*,*,#533,.T.);
#347=ORIENTED_EDGE('',*,*,#534,.F.);
#348=ORIENTED_EDGE('',*,*,#535,.F.);
#349=ORIENTED_EDGE('',*,*,#530,.T.);
#350=ORIENTED_EDGE('',*,*,#536,.T.);
#351=ORIENTED_EDGE('',*,*,#537,.F.);
#352=ORIENTED_EDGE('',*,*,#538,.F.);
#353=ORIENTED_EDGE('',*,*,#534,.T.);
#354=ORIENTED_EDGE('',*,*,#539,.T.);
#355=ORIENTED_EDGE('',*,*,#540,.F.);
#356=ORIENTED_EDGE('',*,*,#541,.F.);
#357=ORIENTED_EDGE('',*,*,#537,.T.);
#358=ORIENTED_EDGE('',*,*,#542,.T.);
#359=ORIENTED_EDGE('',*,*,#543,.F.);
#360=ORIENTED_EDGE('',*,*,#544,.F.);
#361=ORIENTED_EDGE('',*,*,#540,.T.);
#362=ORIENTED_EDGE('',*,*,#545,.F.);
#363=ORIENTED_EDGE('',*,*,#546,.T.);
#364=ORIENTED_EDGE('',*,*,#547,.F.);
#365=ORIENTED_EDGE('',*,*,#548,.F.);
#366=ORIENTED_EDGE('',*,*,#543,.T.);
#367=ORIENTED_EDGE('',*,*,#549,.T.);
#368=ORIENTED_EDGE('',*,*,#550,.F.);
#369=ORIENTED_EDGE('',*,*,#551,.F.);
#370=ORIENTED_EDGE('',*,*,#552,.T.);
#371=ORIENTED_EDGE('',*,*,#553,.T.);
#372=ORIENTED_EDGE('',*,*,#554,.F.);
#373=ORIENTED_EDGE('',*,*,#555,.T.);
#374=ORIENTED_EDGE('',*,*,#556,.F.);
#375=ORIENTED_EDGE('',*,*,#557,.T.);
#376=ORIENTED_EDGE('',*,*,#510,.F.);
#377=ORIENTED_EDGE('',*,*,#558,.F.);
#378=ORIENTED_EDGE('',*,*,#547,.T.);
#379=ORIENTED_EDGE('',*,*,#559,.T.);
#380=ORIENTED_EDGE('',*,*,#560,.F.);
#381=ORIENTED_EDGE('',*,*,#523,.T.);
#382=ORIENTED_EDGE('',*,*,#561,.T.);
#383=ORIENTED_EDGE('',*,*,#525,.T.);
#384=ORIENTED_EDGE('',*,*,#531,.T.);
#385=ORIENTED_EDGE('',*,*,#535,.T.);
#386=ORIENTED_EDGE('',*,*,#538,.T.);
#387=ORIENTED_EDGE('',*,*,#541,.T.);
#388=ORIENTED_EDGE('',*,*,#544,.T.);
#389=ORIENTED_EDGE('',*,*,#548,.T.);
#390=ORIENTED_EDGE('',*,*,#558,.T.);
#391=ORIENTED_EDGE('',*,*,#509,.T.);
#392=ORIENTED_EDGE('',*,*,#562,.T.);
#393=ORIENTED_EDGE('',*,*,#514,.T.);
#394=ORIENTED_EDGE('',*,*,#563,.T.);
#395=ORIENTED_EDGE('',*,*,#518,.T.);
#396=ORIENTED_EDGE('',*,*,#564,.T.);
#397=ORIENTED_EDGE('',*,*,#555,.F.);
#398=ORIENTED_EDGE('',*,*,#553,.F.);
#399=ORIENTED_EDGE('',*,*,#552,.F.);
#400=ORIENTED_EDGE('',*,*,#549,.F.);
#401=ORIENTED_EDGE('',*,*,#559,.F.);
#402=ORIENTED_EDGE('',*,*,#527,.F.);
#403=ORIENTED_EDGE('',*,*,#565,.T.);
#404=ORIENTED_EDGE('',*,*,#521,.F.);
#405=ORIENTED_EDGE('',*,*,#566,.T.);
#406=ORIENTED_EDGE('',*,*,#516,.F.);
#407=ORIENTED_EDGE('',*,*,#567,.T.);
#408=ORIENTED_EDGE('',*,*,#512,.F.);
#409=ORIENTED_EDGE('',*,*,#568,.T.);
#410=ORIENTED_EDGE('',*,*,#507,.F.);
#411=ORIENTED_EDGE('',*,*,#557,.F.);
#412=ORIENTED_EDGE('',*,*,#546,.F.);
#413=ORIENTED_EDGE('',*,*,#542,.F.);
#414=ORIENTED_EDGE('',*,*,#539,.F.);
#415=ORIENTED_EDGE('',*,*,#536,.F.);
#416=ORIENTED_EDGE('',*,*,#533,.F.);
#417=ORIENTED_EDGE('',*,*,#529,.F.);
#418=ORIENTED_EDGE('',*,*,#556,.T.);
#419=ORIENTED_EDGE('',*,*,#554,.T.);
#420=ORIENTED_EDGE('',*,*,#550,.T.);
#421=ORIENTED_EDGE('',*,*,#560,.T.);
#422=ORIENTED_EDGE('',*,*,#569,.T.);
#423=ORIENTED_EDGE('',*,*,#570,.T.);
#424=ORIENTED_EDGE('',*,*,#569,.F.);
#425=ORIENTED_EDGE('',*,*,#551,.T.);
#426=ORIENTED_EDGE('',*,*,#570,.F.);
#427=ORIENTED_EDGE('',*,*,#571,.T.);
#428=ORIENTED_EDGE('',*,*,#511,.T.);
#429=ORIENTED_EDGE('',*,*,#572,.T.);
#430=ORIENTED_EDGE('',*,*,#520,.T.);
#431=ORIENTED_EDGE('',*,*,#573,.T.);
#432=ORIENTED_EDGE('',*,*,#545,.T.);
#433=ORIENTED_EDGE('',*,*,#574,.T.);
#434=ORIENTED_EDGE('',*,*,#532,.T.);
#435=ORIENTED_EDGE('',*,*,#573,.F.);
#436=ORIENTED_EDGE('',*,*,#571,.F.);
#437=ORIENTED_EDGE('',*,*,#574,.F.);
#438=ORIENTED_EDGE('',*,*,#572,.F.);
#439=ORIENTED_EDGE('',*,*,#561,.F.);
#440=ORIENTED_EDGE('',*,*,#522,.F.);
#441=ORIENTED_EDGE('',*,*,#565,.F.);
#442=ORIENTED_EDGE('',*,*,#526,.F.);
#443=ORIENTED_EDGE('',*,*,#564,.F.);
#444=ORIENTED_EDGE('',*,*,#517,.F.);
#445=ORIENTED_EDGE('',*,*,#566,.F.);
#446=ORIENTED_EDGE('',*,*,#524,.F.);
#447=ORIENTED_EDGE('',*,*,#563,.F.);
#448=ORIENTED_EDGE('',*,*,#513,.F.);
#449=ORIENTED_EDGE('',*,*,#567,.F.);
#450=ORIENTED_EDGE('',*,*,#519,.F.);
#451=ORIENTED_EDGE('',*,*,#562,.F.);
#452=ORIENTED_EDGE('',*,*,#508,.F.);
#453=ORIENTED_EDGE('',*,*,#568,.F.);
#454=ORIENTED_EDGE('',*,*,#515,.F.);
#455=VERTEX_POINT('',#877);
#456=VERTEX_POINT('',#878);
#457=VERTEX_POINT('',#880);
#458=VERTEX_POINT('',#882);
#459=VERTEX_POINT('',#886);
#460=VERTEX_POINT('',#888);
#461=VERTEX_POINT('',#889);
#462=VERTEX_POINT('',#891);
#463=VERTEX_POINT('',#893);
#464=VERTEX_POINT('',#897);
#465=VERTEX_POINT('',#898);
#466=VERTEX_POINT('',#900);
#467=VERTEX_POINT('',#902);
#468=VERTEX_POINT('',#906);
#469=VERTEX_POINT('',#908);
#470=VERTEX_POINT('',#909);
#471=VERTEX_POINT('',#911);
#472=VERTEX_POINT('',#913);
#473=VERTEX_POINT('',#917);
#474=VERTEX_POINT('',#918);
#475=VERTEX_POINT('',#920);
#476=VERTEX_POINT('',#922);
#477=VERTEX_POINT('',#926);
#478=VERTEX_POINT('',#928);
#479=VERTEX_POINT('',#932);
#480=VERTEX_POINT('',#934);
#481=VERTEX_POINT('',#936);
#482=VERTEX_POINT('',#940);
#483=VERTEX_POINT('',#942);
#484=VERTEX_POINT('',#946);
#485=VERTEX_POINT('',#948);
#486=VERTEX_POINT('',#952);
#487=VERTEX_POINT('',#954);
#488=VERTEX_POINT('',#958);
#489=VERTEX_POINT('',#960);
#490=VERTEX_POINT('',#962);
#491=VERTEX_POINT('',#966);
#492=VERTEX_POINT('',#968);
#493=VERTEX_POINT('',#971);
#494=VERTEX_POINT('',#973);
#495=VERTEX_POINT('',#976);
#496=VERTEX_POINT('',#978);
#497=VERTEX_POINT('',#981);
#498=VERTEX_POINT('',#983);
#499=VERTEX_POINT('',#989);
#500=VERTEX_POINT('',#991);
#501=VERTEX_POINT('',#1003);
#502=VERTEX_POINT('',#1006);
#503=VERTEX_POINT('',#1010);
#504=VERTEX_POINT('',#1013);
#505=VERTEX_POINT('',#1016);
#506=VERTEX_POINT('',#1019);
#507=EDGE_CURVE('',#455,#456,#575,.T.);
#508=EDGE_CURVE('',#456,#457,#576,.T.);
#509=EDGE_CURVE('',#458,#457,#577,.T.);
#510=EDGE_CURVE('',#458,#455,#578,.T.);
#511=EDGE_CURVE('',#459,#459,#172,.T.);
#512=EDGE_CURVE('',#460,#461,#579,.T.);
#513=EDGE_CURVE('',#461,#462,#580,.T.);
#514=EDGE_CURVE('',#463,#462,#581,.T.);
#515=EDGE_CURVE('',#463,#460,#582,.T.);
#516=EDGE_CURVE('',#464,#465,#173,.T.);
#517=EDGE_CURVE('',#465,#466,#583,.T.);
#518=EDGE_CURVE('',#467,#466,#174,.T.);
#519=EDGE_CURVE('',#467,#464,#584,.T.);
#520=EDGE_CURVE('',#468,#468,#175,.T.);
#521=EDGE_CURVE('',#469,#470,#585,.T.);
#522=EDGE_CURVE('',#470,#471,#586,.T.);
#523=EDGE_CURVE('',#472,#471,#587,.T.);
#524=EDGE_CURVE('',#472,#469,#588,.T.);
#525=EDGE_CURVE('',#473,#474,#589,.T.);
#526=EDGE_CURVE('',#473,#475,#590,.T.);
#527=EDGE_CURVE('',#475,#476,#591,.T.);
#528=EDGE_CURVE('',#474,#476,#592,.T.);
#529=EDGE_CURVE('',#476,#477,#176,.T.);
#530=EDGE_CURVE('',#478,#477,#593,.T.);
#531=EDGE_CURVE('',#474,#478,#177,.T.);
#532=EDGE_CURVE('',#479,#479,#105,.T.);
#533=EDGE_CURVE('',#477,#480,#594,.T.);
#534=EDGE_CURVE('',#481,#480,#595,.T.);
#535=EDGE_CURVE('',#478,#481,#596,.T.);
#536=EDGE_CURVE('',#480,#482,#178,.T.);
#537=EDGE_CURVE('',#483,#482,#597,.T.);
#538=EDGE_CURVE('',#481,#483,#179,.T.);
#539=EDGE_CURVE('',#482,#484,#598,.T.);
#540=EDGE_CURVE('',#485,#484,#599,.T.);
#541=EDGE_CURVE('',#483,#485,#600,.T.);
#542=EDGE_CURVE('',#484,#486,#180,.T.);
#543=EDGE_CURVE('',#487,#486,#601,.T.);
#544=EDGE_CURVE('',#485,#487,#181,.T.);
#545=EDGE_CURVE('',#488,#488,#106,.T.);
#546=EDGE_CURVE('',#486,#489,#602,.T.);
#547=EDGE_CURVE('',#490,#489,#603,.T.);
#548=EDGE_CURVE('',#487,#490,#604,.T.);
#549=EDGE_CURVE('',#491,#491,#182,.T.);
#550=EDGE_CURVE('',#492,#492,#183,.T.);
#551=EDGE_CURVE('',#493,#493,#184,.T.);
#552=EDGE_CURVE('',#494,#494,#185,.T.);
#553=EDGE_CURVE('',#495,#495,#186,.T.);
#554=EDGE_CURVE('',#496,#496,#187,.T.);
#555=EDGE_CURVE('',#497,#497,#188,.T.);
#556=EDGE_CURVE('',#498,#498,#189,.T.);
#557=EDGE_CURVE('',#489,#455,#190,.T.);
#558=EDGE_CURVE('',#490,#458,#191,.T.);
#559=EDGE_CURVE('',#499,#499,#192,.T.);
#560=EDGE_CURVE('',#500,#500,#193,.T.);
#561=EDGE_CURVE('',#471,#473,#194,.T.);
#562=EDGE_CURVE('',#457,#463,#195,.T.);
#563=EDGE_CURVE('',#462,#467,#196,.T.);
#564=EDGE_CURVE('',#466,#472,#197,.T.);
#565=EDGE_CURVE('',#475,#470,#198,.T.);
#566=EDGE_CURVE('',#469,#465,#199,.T.);
#567=EDGE_CURVE('',#464,#461,#200,.T.);
#568=EDGE_CURVE('',#460,#456,#201,.T.);
#569=EDGE_CURVE('',#501,#501,#202,.T.);
#570=EDGE_CURVE('',#502,#502,#203,.T.);
#571=EDGE_CURVE('',#503,#503,#204,.T.);
#572=EDGE_CURVE('',#504,#504,#205,.T.);
#573=EDGE_CURVE('',#505,#505,#206,.T.);
#574=EDGE_CURVE('',#506,#506,#207,.T.);
#575=LINE('',#876,#605);
#576=LINE('',#879,#606);
#577=LINE('',#881,#607);
#578=LINE('',#883,#608);
#579=LINE('',#887,#609);
#580=LINE('',#890,#610);
#581=LINE('',#892,#611);
#582=LINE('',#894,#612);
#583=LINE('',#899,#613);
#584=LINE('',#903,#614);
#585=LINE('',#907,#615);
#586=LINE('',#910,#616);
#587=LINE('',#912,#617);
#588=LINE('',#914,#618);
#589=LINE('',#916,#619);
#590=LINE('',#919,#620);
#591=LINE('',#921,#621);
#592=LINE('',#923,#622);
#593=LINE('',#927,#623);
#594=LINE('',#933,#624);
#595=LINE('',#935,#625);
#596=LINE('',#937,#626);
#597=LINE('',#941,#627);
#598=LINE('',#945,#628);
#599=LINE('',#947,#629);
#600=LINE('',#949,#630);
#601=LINE('',#953,#631);
#602=LINE('',#959,#632);
#603=LINE('',#961,#633);
#604=LINE('',#963,#634);
#605=VECTOR('',#707,1.);
#606=VECTOR('',#708,1.);
#607=VECTOR('',#709,1.);
#608=VECTOR('',#710,1.);
#609=VECTOR('',#715,1.);
#610=VECTOR('',#716,1.);
#611=VECTOR('',#717,1.);
#612=VECTOR('',#718,1.);
#613=VECTOR('',#723,1.);
#614=VECTOR('',#726,1.);
#615=VECTOR('',#731,1.);
#616=VECTOR('',#732,1.);
#617=VECTOR('',#733,1.);
#618=VECTOR('',#734,1.);
#619=VECTOR('',#737,1.);
#620=VECTOR('',#738,1.);
#621=VECTOR('',#739,1.);
#622=VECTOR('',#740,1.);
#623=VECTOR('',#745,1.);
#624=VECTOR('',#752,1.);
#625=VECTOR('',#753,1.);
#626=VECTOR('',#754,1.);
#627=VECTOR('',#759,1.);
#628=VECTOR('',#764,1.);
#629=VECTOR('',#765,1.);
#630=VECTOR('',#766,1.);
#631=VECTOR('',#771,1.);
#632=VECTOR('',#778,1.);
#633=VECTOR('',#779,1.);
#634=VECTOR('',#780,1.);
#635=AXIS2_PLACEMENT_3D('',#875,#705,#706);
#636=AXIS2_PLACEMENT_3D('',#884,#711,#712);
#637=AXIS2_PLACEMENT_3D('',#885,#713,#714);
#638=AXIS2_PLACEMENT_3D('',#895,#719,#720);
#639=AXIS2_PLACEMENT_3D('',#896,#721,#722);
#640=AXIS2_PLACEMENT_3D('',#901,#724,#725);
#641=AXIS2_PLACEMENT_3D('',#904,#727,#728);
#642=AXIS2_PLACEMENT_3D('',#905,#729,#730);
#643=AXIS2_PLACEMENT_3D('',#915,#735,#736);
#644=AXIS2_PLACEMENT_3D('',#924,#741,#742);
#645=AXIS2_PLACEMENT_3D('',#925,#743,#744);
#646=AXIS2_PLACEMENT_3D('',#929,#746,#747);
#647=AXIS2_PLACEMENT_3D('',#930,#748,#749);
#648=AXIS2_PLACEMENT_3D('',#931,#750,#751);
#649=AXIS2_PLACEMENT_3D('',#938,#755,#756);
#650=AXIS2_PLACEMENT_3D('',#939,#757,#758);
#651=AXIS2_PLACEMENT_3D('',#943,#760,#761);
#652=AXIS2_PLACEMENT_3D('',#944,#762,#763);
#653=AXIS2_PLACEMENT_3D('',#950,#767,#768);
#654=AXIS2_PLACEMENT_3D('',#951,#769,#770);
#655=AXIS2_PLACEMENT_3D('',#955,#772,#773);
#656=AXIS2_PLACEMENT_3D('',#956,#774,#775);
#657=AXIS2_PLACEMENT_3D('',#957,#776,#777);
#658=AXIS2_PLACEMENT_3D('',#964,#781,#782);
#659=AXIS2_PLACEMENT_3D('',#965,#783,#784);
#660=AXIS2_PLACEMENT_3D('',#967,#785,#786);
#661=AXIS2_PLACEMENT_3D('',#969,#787,#788);
#662=AXIS2_PLACEMENT_3D('',#970,#789,#790);
#663=AXIS2_PLACEMENT_3D('',#972,#791,#792);
#664=AXIS2_PLACEMENT_3D('',#974,#793,#794);
#665=AXIS2_PLACEMENT_3D('',#975,#795,#796);
#666=AXIS2_PLACEMENT_3D('',#977,#797,#798);
#667=AXIS2_PLACEMENT_3D('',#979,#799,#800);
#668=AXIS2_PLACEMENT_3D('',#980,#801,#802);
#669=AXIS2_PLACEMENT_3D('',#982,#803,#804);
#670=AXIS2_PLACEMENT_3D('',#984,#805,#806);
#671=AXIS2_PLACEMENT_3D('',#985,#807,#808);
#672=AXIS2_PLACEMENT_3D('',#986,#809,#810);
#673=AXIS2_PLACEMENT_3D('',#987,#811,#812);
#674=AXIS2_PLACEMENT_3D('',#988,#813,#814);
#675=AXIS2_PLACEMENT_3D('',#990,#815,#816);
#676=AXIS2_PLACEMENT_3D('',#992,#817,#818);
#677=AXIS2_PLACEMENT_3D('',#993,#819,#820);
#678=AXIS2_PLACEMENT_3D('',#994,#821,#822);
#679=AXIS2_PLACEMENT_3D('',#995,#823,#824);
#680=AXIS2_PLACEMENT_3D('',#996,#825,#826);
#681=AXIS2_PLACEMENT_3D('',#997,#827,#828);
#682=AXIS2_PLACEMENT_3D('',#998,#829,#830);
#683=AXIS2_PLACEMENT_3D('',#999,#831,#832);
#684=AXIS2_PLACEMENT_3D('',#1000,#833,#834);
#685=AXIS2_PLACEMENT_3D('',#1001,#835,#836);
#686=AXIS2_PLACEMENT_3D('',#1002,#837,#838);
#687=AXIS2_PLACEMENT_3D('',#1004,#839,#840);
#688=AXIS2_PLACEMENT_3D('',#1005,#841,#842);
#689=AXIS2_PLACEMENT_3D('',#1007,#843,#844);
#690=AXIS2_PLACEMENT_3D('',#1008,#845,#846);
#691=AXIS2_PLACEMENT_3D('',#1009,#847,#848);
#692=AXIS2_PLACEMENT_3D('',#1011,#849,#850);
#693=AXIS2_PLACEMENT_3D('',#1012,#851,#852);
#694=AXIS2_PLACEMENT_3D('',#1014,#853,#854);
#695=AXIS2_PLACEMENT_3D('',#1015,#855,#856);
#696=AXIS2_PLACEMENT_3D('',#1017,#857,#858);
#697=AXIS2_PLACEMENT_3D('',#1018,#859,#860);
#698=AXIS2_PLACEMENT_3D('',#1020,#861,#862);
#699=AXIS2_PLACEMENT_3D('',#1021,#863,#864);
#700=AXIS2_PLACEMENT_3D('',#1022,#865,#866);
#701=AXIS2_PLACEMENT_3D('',#1023,#867,#868);
#702=AXIS2_PLACEMENT_3D('',#1024,#869,#870);
#703=AXIS2_PLACEMENT_3D('',#1025,#871,#872);
#704=AXIS2_PLACEMENT_3D('',#1026,#873,#874);
#705=DIRECTION('',(0.,0.,1.));
#706=DIRECTION('',(1.,0.,0.));
#707=DIRECTION('',(-1.,0.,0.));
#708=DIRECTION('',(0.,-1.,0.));
#709=DIRECTION('',(-1.,0.,0.));
#710=DIRECTION('',(0.,1.,0.));
#711=DIRECTION('',(0.,0.,-1.));
#712=DIRECTION('',(1.,0.,0.));
#713=DIRECTION('',(-1.,0.,7.30409884621813E-16));
#714=DIRECTION('',(0.,1.,0.));
#715=DIRECTION('',(7.30409884621813E-16,0.,-1.));
#716=DIRECTION('',(0.,-1.,0.));
#717=DIRECTION('',(7.30409884621813E-16,0.,-1.));
#718=DIRECTION('',(0.,1.,0.));
#719=DIRECTION('',(1.,0.,7.30409884621813E-16));
#720=DIRECTION('',(-7.30318583386236E-16,0.,1.));
#721=DIRECTION('',(0.,1.,0.));
#722=DIRECTION('',(6.12323399573676E-17,0.,-1.));
#723=DIRECTION('',(0.,-1.,0.));
#724=DIRECTION('',(0.,1.,0.));
#725=DIRECTION('',(6.12323399573676E-17,0.,-1.));
#726=DIRECTION('',(0.,1.,0.));
#727=DIRECTION('',(0.,1.,0.));
#728=DIRECTION('',(1.,0.,0.));
#729=DIRECTION('',(-1.,0.,7.30409884621813E-16));
#730=DIRECTION('',(0.,1.,0.));
#731=DIRECTION('',(-7.30409884621813E-16,0.,-1.));
#732=DIRECTION('',(0.,-1.,0.));
#733=DIRECTION('',(-7.30409884621813E-16,0.,-1.));
#734=DIRECTION('',(0.,1.,0.));
#735=DIRECTION('',(1.,0.,-7.30409884621813E-16));
#736=DIRECTION('',(7.30318583386236E-16,0.,1.));
#737=DIRECTION('',(1.,0.,0.));
#738=DIRECTION('',(0.,1.,0.));
#739=DIRECTION('',(1.,0.,0.));
#740=DIRECTION('',(0.,1.,0.));
#741=DIRECTION('',(0.,0.,1.));
#742=DIRECTION('',(-1.,0.,0.));
#743=DIRECTION('',(0.,-1.,0.));
#744=DIRECTION('',(1.73472347597681E-16,0.,1.));
#745=DIRECTION('',(0.,1.,0.));
#746=DIRECTION('',(0.,-1.,0.));
#747=DIRECTION('',(1.73472347597681E-16,0.,1.));
#748=DIRECTION('',(0.,1.,0.));
#749=DIRECTION('',(1.,0.,0.));
#750=DIRECTION('',(0.234571245641449,0.,-0.972098930520047));
#751=DIRECTION('',(-0.972098930520047,0.,-0.234571245641449));
#752=DIRECTION('',(0.972098930520047,0.,0.234571245641449));
#753=DIRECTION('',(0.,1.,0.));
#754=DIRECTION('',(0.972098930520047,0.,0.234571245641449));
#755=DIRECTION('',(-0.234571245641449,0.,0.972098930520047));
#756=DIRECTION('',(-0.972098930520047,0.,-0.234571245641449));
#757=DIRECTION('',(0.,-1.,0.));
#758=DIRECTION('',(0.,0.,1.));
#759=DIRECTION('',(0.,1.,0.));
#760=DIRECTION('',(0.,-1.,0.));
#761=DIRECTION('',(0.,0.,1.));
#762=DIRECTION('',(0.,1.,0.));
#763=DIRECTION('',(1.,0.,0.));
#764=DIRECTION('',(0.,0.,1.));
#765=DIRECTION('',(0.,1.,0.));
#766=DIRECTION('',(0.,0.,1.));
#767=DIRECTION('',(-1.,0.,0.));
#768=DIRECTION('',(0.,1.,0.));
#769=DIRECTION('',(0.,-1.,0.));
#770=DIRECTION('',(0.,0.,-1.));
#771=DIRECTION('',(0.,1.,0.));
#772=DIRECTION('',(0.,-1.,0.));
#773=DIRECTION('',(0.,0.,-1.));
#774=DIRECTION('',(0.,1.,0.));
#775=DIRECTION('',(1.,0.,0.));
#776=DIRECTION('',(0.234571245641449,0.,0.972098930520047));
#777=DIRECTION('',(-0.972098930520047,0.,0.234571245641449));
#778=DIRECTION('',(-0.972098930520047,0.,0.234571245641449));
#779=DIRECTION('',(0.,1.,0.));
#780=DIRECTION('',(-0.972098930520047,0.,0.234571245641449));
#781=DIRECTION('',(-0.234571245641449,0.,-0.972098930520047));
#782=DIRECTION('',(0.972098930520047,0.,-0.234571245641449));
#783=DIRECTION('',(0.,-1.,0.));
#784=DIRECTION('',(0.,0.,-1.));
#785=DIRECTION('',(0.,-1.,0.));
#786=DIRECTION('',(0.,0.,-1.));
#787=DIRECTION('',(0.,1.,0.));
#788=DIRECTION('',(1.,0.,0.));
#789=DIRECTION('',(0.,-1.,0.));
#790=DIRECTION('',(0.,0.,-1.));
#791=DIRECTION('',(0.,-1.,0.));
#792=DIRECTION('',(0.,0.,-1.));
#793=DIRECTION('',(0.,1.,0.));
#794=DIRECTION('',(1.,0.,0.));
#795=DIRECTION('',(0.,-1.,0.));
#796=DIRECTION('',(0.,0.,-1.));
#797=DIRECTION('',(0.,-1.,0.));
#798=DIRECTION('',(0.,0.,-1.));
#799=DIRECTION('',(0.,1.,0.));
#800=DIRECTION('',(1.,0.,0.));
#801=DIRECTION('',(0.,-1.,0.));
#802=DIRECTION('',(0.,0.,-1.));
#803=DIRECTION('',(0.,-1.,0.));
#804=DIRECTION('',(0.,0.,-1.));
#805=DIRECTION('',(0.,1.,0.));
#806=DIRECTION('',(1.,0.,0.));
#807=DIRECTION('',(0.,-1.,0.));
#808=DIRECTION('',(-8.67361737988403E-17,0.,-1.));
#809=DIRECTION('',(0.,-1.,0.));
#810=DIRECTION('',(-8.67361737988403E-17,0.,-1.));
#811=DIRECTION('',(0.,1.,0.));
#812=DIRECTION('',(1.,0.,0.));
#813=DIRECTION('',(0.,-1.,0.));
#814=DIRECTION('',(0.,0.,-1.));
#815=DIRECTION('',(0.,-1.,0.));
#816=DIRECTION('',(0.,0.,-1.));
#817=DIRECTION('',(0.,1.,0.));
#818=DIRECTION('',(1.,0.,0.));
#819=DIRECTION('',(0.,-1.,0.));
#820=DIRECTION('',(1.,0.,0.));
#821=DIRECTION('',(0.,-1.,0.));
#822=DIRECTION('',(1.,0.,0.));
#823=DIRECTION('',(0.,-1.,0.));
#824=DIRECTION('',(1.,0.,0.));
#825=DIRECTION('',(0.,-1.,0.));
#826=DIRECTION('',(1.,0.,0.));
#827=DIRECTION('',(0.,1.,0.));
#828=DIRECTION('',(1.,0.,0.));
#829=DIRECTION('',(0.,1.,0.));
#830=DIRECTION('',(1.,0.,0.));
#831=DIRECTION('',(0.,1.,0.));
#832=DIRECTION('',(1.,0.,0.));
#833=DIRECTION('',(0.,1.,0.));
#834=DIRECTION('',(1.,0.,0.));
#835=DIRECTION('',(0.,1.,0.));
#836=DIRECTION('',(1.,0.,0.));
#837=DIRECTION('',(0.,-1.,0.));
#838=DIRECTION('',(0.,0.,-1.));
#839=DIRECTION('',(0.,1.,0.));
#840=DIRECTION('',(1.,0.,0.));
#841=DIRECTION('',(0.,-1.,0.));
#842=DIRECTION('',(0.,0.,-1.));
#843=DIRECTION('',(0.,1.,0.));
#844=DIRECTION('',(1.,0.,0.));
#845=DIRECTION('',(0.,-1.,0.));
#846=DIRECTION('',(-1.,0.,0.));
#847=DIRECTION('',(1.,0.,-3.46944695195361E-15));
#848=DIRECTION('',(-3.46944695195361E-15,0.,-0.999999999999999));
#849=DIRECTION('',(-1.,0.,7.30409884621813E-16));
#850=DIRECTION('',(0.,0.,-1.));
#851=DIRECTION('',(1.,0.,-3.46944695195361E-15));
#852=DIRECTION('',(-3.46944695195361E-15,0.,-0.999999999999999));
#853=DIRECTION('',(-1.,0.,7.30409884621813E-16));
#854=DIRECTION('',(0.,0.,-1.));
#855=DIRECTION('',(-1.,0.,3.46944695195361E-15));
#856=DIRECTION('',(3.20256641718795E-15,0.,1.));
#857=DIRECTION('',(-1.,0.,7.30409884621813E-16));
#858=DIRECTION('',(0.,0.,-1.));
#859=DIRECTION('',(-1.,0.,3.46944695195361E-15));
#860=DIRECTION('',(3.20256641718795E-15,0.,1.));
#861=DIRECTION('',(-1.,0.,7.30409884621813E-16));
#862=DIRECTION('',(0.,0.,-1.));
#863=DIRECTION('',(1.,0.,-3.46944695195361E-15));
#864=DIRECTION('',(3.41338823040275E-15,0.,1.));
#865=DIRECTION('',(1.,0.,-3.46944695195361E-15));
#866=DIRECTION('',(3.42937599728988E-15,0.,1.));
#867=DIRECTION('',(0.,1.,0.));
#868=DIRECTION('',(1.,0.,0.));
#869=DIRECTION('',(0.,1.,0.));
#870=DIRECTION('',(1.,0.,0.));
#871=DIRECTION('',(0.,1.,0.));
#872=DIRECTION('',(1.,0.,0.));
#873=DIRECTION('',(0.,1.,0.));
#874=DIRECTION('',(1.,0.,0.));
#875=CARTESIAN_POINT('',(0.,0.,0.));
#876=CARTESIAN_POINT('',(25.2422012504293,-259.3,48.5803989154981));
#877=CARTESIAN_POINT('',(25.2422012504293,-259.3,48.5803989154981));
#878=CARTESIAN_POINT('',(10.,-259.3,48.5803989154981));
#879=CARTESIAN_POINT('',(10.,-279.3,48.5803989154981));
#880=CARTESIAN_POINT('',(10.,-279.3,48.5803989154981));
#881=CARTESIAN_POINT('',(25.2422012504293,-279.3,48.5803989154981));
#882=CARTESIAN_POINT('',(25.2422012504293,-279.3,48.5803989154981));
#883=CARTESIAN_POINT('',(25.2422012504293,-279.3,48.5803989154981));
#884=CARTESIAN_POINT('',(25.2422012504293,-279.3,48.5803989154981));
#885=CARTESIAN_POINT('',(5.00000000000009,-269.3,39.0803989154982));
#886=CARTESIAN_POINT('',(5.00000000000009,-265.3,39.0803989154982));
#887=CARTESIAN_POINT('',(5.,-259.3,48.5803989154981));
#888=CARTESIAN_POINT('',(5.,-259.3,43.5803989154981));
#889=CARTESIAN_POINT('',(5.00000000000002,-259.3,33.5410196624968));
#890=CARTESIAN_POINT('',(5.00000000000002,-279.3,33.5410196624968));
#891=CARTESIAN_POINT('',(5.00000000000002,-279.3,33.5410196624968));
#892=CARTESIAN_POINT('',(5.,-279.3,48.5803989154981));
#893=CARTESIAN_POINT('',(5.,-279.3,43.5803989154981));
#894=CARTESIAN_POINT('',(5.,-279.3,43.5803989154981));
#895=CARTESIAN_POINT('',(5.,-279.3,48.5803989154981));
#896=CARTESIAN_POINT('',(1.38777878078145E-14,-259.3,0.));
#897=CARTESIAN_POINT('',(8.57142857142858,-259.3,28.7494454249973));
#898=CARTESIAN_POINT('',(8.57142857142858,-259.3,-28.7494454249973));
#899=CARTESIAN_POINT('',(8.57142857142858,-279.3,-28.7494454249973));
#900=CARTESIAN_POINT('',(8.57142857142858,-279.3,-28.7494454249973));
#901=CARTESIAN_POINT('',(1.38777878078145E-14,-279.3,0.));
#902=CARTESIAN_POINT('',(8.57142857142858,-279.3,28.7494454249973));
#903=CARTESIAN_POINT('',(8.57142857142858,-279.3,28.7494454249973));
#904=CARTESIAN_POINT('',(1.38777878078145E-14,-279.3,0.));
#905=CARTESIAN_POINT('',(5.00000000000006,-269.3,-39.0803989154981));
#906=CARTESIAN_POINT('',(5.00000000000006,-265.3,-39.0803989154981));
#907=CARTESIAN_POINT('',(5.00000000000002,-259.3,-29.5803989154981));
#908=CARTESIAN_POINT('',(5.00000000000002,-259.3,-33.5410196624968));
#909=CARTESIAN_POINT('',(5.,-259.3,-43.5803989154981));
#910=CARTESIAN_POINT('',(5.,-279.3,-43.5803989154981));
#911=CARTESIAN_POINT('',(5.,-279.3,-43.5803989154981));
#912=CARTESIAN_POINT('',(5.00000000000002,-279.3,-29.5803989154981));
#913=CARTESIAN_POINT('',(5.00000000000002,-279.3,-33.5410196624968));
#914=CARTESIAN_POINT('',(5.00000000000002,-279.3,-33.5410196624968));
#915=CARTESIAN_POINT('',(5.00000000000002,-279.3,-29.5803989154981));
#916=CARTESIAN_POINT('',(5.,-279.3,-48.5803989154981));
#917=CARTESIAN_POINT('',(10.,-279.3,-48.5803989154981));
#918=CARTESIAN_POINT('',(25.2422012504293,-279.3,-48.5803989154981));
#919=CARTESIAN_POINT('',(10.,-279.3,-48.5803989154981));
#920=CARTESIAN_POINT('',(10.,-259.3,-48.5803989154981));
#921=CARTESIAN_POINT('',(5.,-259.3,-48.5803989154981));
#922=CARTESIAN_POINT('',(25.2422012504293,-259.3,-48.5803989154981));
#923=CARTESIAN_POINT('',(25.2422012504293,-279.3,-48.5803989154981));
#924=CARTESIAN_POINT('',(5.,-279.3,-48.5803989154981));
#925=CARTESIAN_POINT('',(25.2422012504293,-259.3,-8.58039891549808));
#926=CARTESIAN_POINT('',(34.6250510760872,-259.3,-47.4643561363));
#927=CARTESIAN_POINT('',(34.6250510760872,-279.3,-47.4643561363));
#928=CARTESIAN_POINT('',(34.6250510760872,-279.3,-47.4643561363));
#929=CARTESIAN_POINT('',(25.2422012504293,-279.3,-8.58039891549808));
#930=CARTESIAN_POINT('',(25.2422012504293,-279.3,-8.58039891549808));
#931=CARTESIAN_POINT('',(69.3694453669586,-269.3,-39.0803989154981));
#932=CARTESIAN_POINT('',(42.4324564316712,-269.3,-45.5803989154981));
#933=CARTESIAN_POINT('',(34.6250510760872,-259.3,-47.4643561363));
#934=CARTESIAN_POINT('',(99.3457124564145,-259.3,-31.8470092983604));
#935=CARTESIAN_POINT('',(99.3457124564145,-279.3,-31.8470092983604));
#936=CARTESIAN_POINT('',(99.3457124564145,-279.3,-31.8470092983604));
#937=CARTESIAN_POINT('',(34.6250510760872,-279.3,-47.4643561363));
#938=CARTESIAN_POINT('',(34.6250510760872,-279.3,-47.4643561363));
#939=CARTESIAN_POINT('',(97.,-259.3,-22.1260199931599));
#940=CARTESIAN_POINT('',(107.,-259.3,-22.1260199931599));
#941=CARTESIAN_POINT('',(107.,-279.3,-22.1260199931599));
#942=CARTESIAN_POINT('',(107.,-279.3,-22.1260199931599));
#943=CARTESIAN_POINT('',(97.,-279.3,-22.1260199931599));
#944=CARTESIAN_POINT('',(97.,-279.3,-22.1260199931599));
#945=CARTESIAN_POINT('',(107.,-259.3,0.));
#946=CARTESIAN_POINT('',(107.,-259.3,22.1260199931599));
#947=CARTESIAN_POINT('',(107.,-279.3,22.1260199931599));
#948=CARTESIAN_POINT('',(107.,-279.3,22.1260199931599));
#949=CARTESIAN_POINT('',(107.,-279.3,-22.1260199931599));
#950=CARTESIAN_POINT('',(107.,-279.3,0.));
#951=CARTESIAN_POINT('',(97.,-259.3,22.1260199931599));
#952=CARTESIAN_POINT('',(99.3457124564145,-259.3,31.8470092983604));
#953=CARTESIAN_POINT('',(99.3457124564145,-279.3,31.8470092983604));
#954=CARTESIAN_POINT('',(99.3457124564145,-279.3,31.8470092983604));
#955=CARTESIAN_POINT('',(97.,-279.3,22.1260199931599));
#956=CARTESIAN_POINT('',(97.,-279.3,22.1260199931599));
#957=CARTESIAN_POINT('',(69.3694453669585,-269.3,39.0803989154981));
#958=CARTESIAN_POINT('',(42.4324564316709,-269.3,45.5803989154982));
#959=CARTESIAN_POINT('',(99.3457124564145,-259.3,31.8470092983604));
#960=CARTESIAN_POINT('',(34.6250510760873,-259.3,47.4643561363));
#961=CARTESIAN_POINT('',(34.6250510760873,-279.3,47.4643561363));
#962=CARTESIAN_POINT('',(34.6250510760873,-279.3,47.4643561363));
#963=CARTESIAN_POINT('',(99.3457124564145,-279.3,31.8470092983604));
#964=CARTESIAN_POINT('',(99.3457124564145,-279.3,31.8470092983604));
#965=CARTESIAN_POINT('',(46.93,-279.3,-23.57));
#966=CARTESIAN_POINT('',(46.93,-279.3,-26.57));
#967=CARTESIAN_POINT('',(46.93,-259.3,-23.57));
#968=CARTESIAN_POINT('',(46.93,-259.3,-26.57));
#969=CARTESIAN_POINT('',(46.93,-279.3,-23.57));
#970=CARTESIAN_POINT('',(70.5,-263.7,0.));
#971=CARTESIAN_POINT('',(70.5,-263.7,-26.));
#972=CARTESIAN_POINT('',(70.5,-279.3,0.));
#973=CARTESIAN_POINT('',(70.5,-279.3,-26.));
#974=CARTESIAN_POINT('',(70.5,-279.3,0.));
#975=CARTESIAN_POINT('',(94.07,-279.3,23.57));
#976=CARTESIAN_POINT('',(94.07,-279.3,20.57));
#977=CARTESIAN_POINT('',(94.07,-259.3,23.57));
#978=CARTESIAN_POINT('',(94.07,-259.3,20.57));
#979=CARTESIAN_POINT('',(94.07,-279.3,23.57));
#980=CARTESIAN_POINT('',(46.93,-279.3,23.57));
#981=CARTESIAN_POINT('',(46.93,-279.3,20.57));
#982=CARTESIAN_POINT('',(46.93,-259.3,23.57));
#983=CARTESIAN_POINT('',(46.93,-259.3,20.57));
#984=CARTESIAN_POINT('',(46.93,-279.3,23.57));
#985=CARTESIAN_POINT('',(25.2422012504293,-259.3,8.58039891549808));
#986=CARTESIAN_POINT('',(25.2422012504293,-279.3,8.58039891549808));
#987=CARTESIAN_POINT('',(25.2422012504293,-279.3,8.58039891549808));
#988=CARTESIAN_POINT('',(94.07,-279.3,-23.57));
#989=CARTESIAN_POINT('',(94.07,-279.3,-26.57));
#990=CARTESIAN_POINT('',(94.07,-259.3,-23.57));
#991=CARTESIAN_POINT('',(94.07,-259.3,-26.57));
#992=CARTESIAN_POINT('',(94.07,-279.3,-23.57));
#993=CARTESIAN_POINT('',(10.,-279.3,-43.5803989154981));
#994=CARTESIAN_POINT('',(10.,-279.3,43.5803989154981));
#995=CARTESIAN_POINT('',(10.,-279.3,33.5410196624969));
#996=CARTESIAN_POINT('',(10.,-279.3,-33.5410196624969));
#997=CARTESIAN_POINT('',(1.38777878078145E-14,-279.3,0.));
#998=CARTESIAN_POINT('',(10.,-259.3,-43.5803989154981));
#999=CARTESIAN_POINT('',(10.,-259.3,-33.5410196624969));
#1000=CARTESIAN_POINT('',(10.,-259.3,33.5410196624969));
#1001=CARTESIAN_POINT('',(10.,-259.3,43.5803989154981));
#1002=CARTESIAN_POINT('',(70.5,-259.3,0.));
#1003=CARTESIAN_POINT('',(70.5,-259.3,-20.5));
#1004=CARTESIAN_POINT('',(1.38777878078145E-14,-259.3,0.));
#1005=CARTESIAN_POINT('',(70.5,-263.7,0.));
#1006=CARTESIAN_POINT('',(70.5,-263.7,-20.5));
#1007=CARTESIAN_POINT('',(70.5,-263.7,0.));
#1008=CARTESIAN_POINT('',(70.5,-263.7,0.));
#1009=CARTESIAN_POINT('',(16.0000000000001,-269.3,39.0803989154982));
#1010=CARTESIAN_POINT('',(16.0000000000001,-269.3,35.0803989154982));
#1011=CARTESIAN_POINT('',(117.2,-269.3,39.0803989154981));
#1012=CARTESIAN_POINT('',(16.0000000000001,-269.3,-39.0803989154981));
#1013=CARTESIAN_POINT('',(16.,-269.3,-43.0803989154981));
#1014=CARTESIAN_POINT('',(117.2,-269.3,-39.0803989154982));
#1015=CARTESIAN_POINT('',(17.4433756729742,-269.3,39.0803989154982));
#1016=CARTESIAN_POINT('',(17.4433756729742,-269.3,45.5803989154982));
#1017=CARTESIAN_POINT('',(117.2,-269.3,39.0803989154981));
#1018=CARTESIAN_POINT('',(17.4433756729741,-269.3,-39.0803989154981));
#1019=CARTESIAN_POINT('',(17.4433756729741,-269.3,-32.5803989154981));
#1020=CARTESIAN_POINT('',(117.2,-269.3,-39.0803989154982));
#1021=CARTESIAN_POINT('',(16.0000000000001,-269.3,39.0803989154982));
#1022=CARTESIAN_POINT('',(16.0000000000001,-269.3,-39.0803989154981));
#1023=CARTESIAN_POINT('',(10.,-279.3,-43.5803989154981));
#1024=CARTESIAN_POINT('',(10.,-279.3,-33.5410196624969));
#1025=CARTESIAN_POINT('',(10.,-279.3,33.5410196624969));
#1026=CARTESIAN_POINT('',(10.,-279.3,43.5803989154981));
#1027=(
GEOMETRIC_REPRESENTATION_CONTEXT(3)
GLOBAL_UNCERTAINTY_ASSIGNED_CONTEXT((#1028))
GLOBAL_UNIT_ASSIGNED_CONTEXT((#1034,#1030,#1029))
REPRESENTATION_CONTEXT('\X2\041A04400435043F043B0435043D04380435\X0\1',
'TOP_LEVEL_ASSEMBLY_PART')
);
#1028=UNCERTAINTY_MEASURE_WITH_UNIT(LENGTH_MEASURE(2.E-5),#1034,
'DISTANCE_ACCURACY_VALUE','Maximum Tolerance applied to model');
#1029=(
NAMED_UNIT(*)
SI_UNIT($,.STERADIAN.)
SOLID_ANGLE_UNIT()
);
#1030=(
CONVERSION_BASED_UNIT('DEGREE',#1032)
NAMED_UNIT(#1031)
PLANE_ANGLE_UNIT()
);
#1031=DIMENSIONAL_EXPONENTS(0.,0.,0.,0.,0.,0.,0.);
#1032=PLANE_ANGLE_MEASURE_WITH_UNIT(PLANE_ANGLE_MEASURE(0.0174532925),#1033);
#1033=(
NAMED_UNIT(*)
PLANE_ANGLE_UNIT()
SI_UNIT($,.RADIAN.)
);
#1034=(
LENGTH_UNIT()
NAMED_UNIT(*)
SI_UNIT(.MILLI.,.METRE.)
);
ENDSEC;
END-ISO-10303-21;
