ISO-10303-21;
HEADER;
/* Generated by software containing ST-Developer
 * from STEP Tools, Inc. (www.steptools.com) 
 */
/* OPTION: using custom schema-name function */

FILE_DESCRIPTION(
/* description */ (''),
/* implementation_level */ '2;1');

FILE_NAME(
/* name */ '\X2\041A04400435043F043B0435043D04380435\X0\.stp',
/* time_stamp */ '2026-06-25T22:02:27+03:00',
/* author */ (''),
/* organization */ (''),
/* preprocessor_version */ 'ST-DEVELOPER v16',
/* originating_system */ 'SIEMENS PLM Software NX 10.0',
/* authorisation */ '');

FILE_SCHEMA (('AP203_CONFIGURATION_CONTROLLED_3D_DESIGN_OF_MECHANICAL_PARTS_AND_ASSEMBLIES_MIM_LF { 1 0 10303 403 2 1 2}'));
ENDSEC;

DATA;
#10=PROPERTY_DEFINITION_REPRESENTATION(#14,#12);
#11=PROPERTY_DEFINITION_REPRESENTATION(#15,#13);
#12=REPRESENTATION('',(#16),#1565);
#13=REPRESENTATION('',(#17),#1565);
#14=PROPERTY_DEFINITION('pmi validation property','',#89);
#15=PROPERTY_DEFINITION('pmi validation property','',#89);
#16=VALUE_REPRESENTATION_ITEM('number of annotations',COUNT_MEASURE(0.));
#17=VALUE_REPRESENTATION_ITEM('number of views',COUNT_MEASURE(0.));
#18=SHAPE_REPRESENTATION_RELATIONSHIP('None',
'relationship between Hi6C8432B1730k-None and Hi6C8432B1730k-None',#100,
#19);
#19=ADVANCED_BREP_SHAPE_REPRESENTATION('Hi6C8432B1730k-None',(#101),#1565);
#20=CC_DESIGN_APPROVAL(#32,(#90));
#21=CC_DESIGN_APPROVAL(#33,(#92));
#22=CC_DESIGN_APPROVAL(#34,(#39));
#23=APPROVAL_PERSON_ORGANIZATION(#77,#32,#26);
#24=APPROVAL_PERSON_ORGANIZATION(#78,#33,#27);
#25=APPROVAL_PERSON_ORGANIZATION(#79,#34,#28);
#26=APPROVAL_ROLE('approver');
#27=APPROVAL_ROLE('approver');
#28=APPROVAL_ROLE('approver');
#29=APPROVAL_DATE_TIME(#47,#32);
#30=APPROVAL_DATE_TIME(#48,#33);
#31=APPROVAL_DATE_TIME(#49,#34);
#32=APPROVAL(#35,' ');
#33=APPROVAL(#36,' ');
#34=APPROVAL(#37,' ');
#35=APPROVAL_STATUS('not_yet_approved');
#36=APPROVAL_STATUS('not_yet_approved');
#37=APPROVAL_STATUS('not_yet_approved');
#38=CC_DESIGN_SECURITY_CLASSIFICATION(#39,(#92));
#39=SECURITY_CLASSIFICATION(' ',' ',#40);
#40=SECURITY_CLASSIFICATION_LEVEL('confidential');
#41=CC_DESIGN_DATE_AND_TIME_ASSIGNMENT(#45,#43,(#90));
#42=CC_DESIGN_DATE_AND_TIME_ASSIGNMENT(#46,#44,(#39));
#43=DATE_TIME_ROLE('creation_date');
#44=DATE_TIME_ROLE('classification_date');
#45=DATE_AND_TIME(#60,#50);
#46=DATE_AND_TIME(#61,#51);
#47=DATE_AND_TIME(#62,#52);
#48=DATE_AND_TIME(#63,#53);
#49=DATE_AND_TIME(#64,#54);
#50=LOCAL_TIME(0,0,0.,#55);
#51=LOCAL_TIME(0,0,0.,#56);
#52=LOCAL_TIME(0,0,0.,#57);
#53=LOCAL_TIME(0,0,0.,#58);
#54=LOCAL_TIME(0,0,0.,#59);
#55=COORDINATED_UNIVERSAL_TIME_OFFSET(0,0,.BEHIND.);
#56=COORDINATED_UNIVERSAL_TIME_OFFSET(0,0,.BEHIND.);
#57=COORDINATED_UNIVERSAL_TIME_OFFSET(0,0,.BEHIND.);
#58=COORDINATED_UNIVERSAL_TIME_OFFSET(0,0,.BEHIND.);
#59=COORDINATED_UNIVERSAL_TIME_OFFSET(0,0,.BEHIND.);
#60=CALENDAR_DATE(0,1,1);
#61=CALENDAR_DATE(0,1,1);
#62=CALENDAR_DATE(0,1,1);
#63=CALENDAR_DATE(0,1,1);
#64=CALENDAR_DATE(0,1,1);
#65=CC_DESIGN_PERSON_AND_ORGANIZATION_ASSIGNMENT(#73,#69,(#90,#92));
#66=CC_DESIGN_PERSON_AND_ORGANIZATION_ASSIGNMENT(#74,#70,(#94));
#67=CC_DESIGN_PERSON_AND_ORGANIZATION_ASSIGNMENT(#75,#71,(#92));
#68=CC_DESIGN_PERSON_AND_ORGANIZATION_ASSIGNMENT(#76,#72,(#39));
#69=PERSON_AND_ORGANIZATION_ROLE('creator');
#70=PERSON_AND_ORGANIZATION_ROLE('design_owner');
#71=PERSON_AND_ORGANIZATION_ROLE('design_supplier');
#72=PERSON_AND_ORGANIZATION_ROLE('classification_officer');
#73=PERSON_AND_ORGANIZATION(#87,#80);
#74=PERSON_AND_ORGANIZATION(#87,#81);
#75=PERSON_AND_ORGANIZATION(#87,#82);
#76=PERSON_AND_ORGANIZATION(#87,#83);
#77=PERSON_AND_ORGANIZATION(#87,#84);
#78=PERSON_AND_ORGANIZATION(#87,#85);
#79=PERSON_AND_ORGANIZATION(#87,#86);
#80=ORGANIZATION(' ',' ',' ');
#81=ORGANIZATION(' ',' ',' ');
#82=ORGANIZATION(' ',' ',' ');
#83=ORGANIZATION(' ',' ',' ');
#84=ORGANIZATION(' ',' ',' ');
#85=ORGANIZATION(' ',' ',' ');
#86=ORGANIZATION(' ',' ',' ');
#87=PERSON(' ',' ',' ',(' '),$,$);
#88=SHAPE_DEFINITION_REPRESENTATION(#89,#100);
#89=PRODUCT_DEFINITION_SHAPE('','',#90);
#90=PRODUCT_DEFINITION(' ','',#92,#91);
#91=DESIGN_CONTEXT('',#99,'design');
#92=PRODUCT_DEFINITION_FORMATION_WITH_SPECIFIED_SOURCE(' ',' ',#94,
 .NOT_KNOWN.);
#93=PRODUCT_RELATED_PRODUCT_CATEGORY('detail','',(#94));
#94=PRODUCT('Hi6C8432B1730k','Hi6C8432B1730k',' ',(#97));
#95=PRODUCT_CATEGORY('part',' ');
#96=PRODUCT_CATEGORY(' ','');
#97=MECHANICAL_CONTEXT(' ',#99,'mechanical');
#98=APPLICATION_PROTOCOL_DEFINITION('international standard',
'config_control_design',2010,#99);
#99=APPLICATION_CONTEXT(
'configuration controlled 3D designs of mechanical parts and assemblie
s');
#100=SHAPE_REPRESENTATION('Hi6C8432B1730k-None',(#947),#1565);
#101=MANIFOLD_SOLID_BREP('',#102);
#102=CLOSED_SHELL('',(#239,#240,#241,#242,#243,#244,#245,#246,#247,#248,
#249,#250,#251,#252,#253,#254,#255,#256,#257,#258,#259,#260,#261,#262,#263,
#264,#265,#266,#267,#268,#269,#270,#271,#272,#273,#274,#275,#276,#277,#278,
#279,#280,#281,#282,#283,#284,#285,#286,#287,#288));
#103=CONICAL_SURFACE('',#1016,4.,59.9999999999999);
#104=CONICAL_SURFACE('',#1017,4.,59.9999999999999);
#105=CONICAL_SURFACE('',#1048,2.35,45.);
#106=CONICAL_SURFACE('',#1051,2.35,45.);
#107=CONICAL_SURFACE('',#1054,2.35,45.);
#108=CONICAL_SURFACE('',#1057,2.35,45.);
#109=ELLIPSE('',#963,27.7101312320927,6.5);
#110=ELLIPSE('',#972,27.7101312320928,6.5);
#111=PLANE('',#951);
#112=PLANE('',#953);
#113=PLANE('',#958);
#114=PLANE('',#959);
#115=PLANE('',#964);
#116=PLANE('',#968);
#117=PLANE('',#973);
#118=PLANE('',#998);
#119=PLANE('',#1007);
#120=PLANE('',#1022);
#121=PLANE('',#1025);
#122=PLANE('',#1028);
#123=PLANE('',#1031);
#124=PLANE('',#1035);
#125=PLANE('',#1038);
#126=PLANE('',#1047);
#127=FACE_OUTER_BOUND('',#395,.T.);
#128=FACE_OUTER_BOUND('',#398,.T.);
#129=FACE_OUTER_BOUND('',#401,.T.);
#130=FACE_OUTER_BOUND('',#402,.T.);
#131=FACE_OUTER_BOUND('',#405,.T.);
#132=FACE_OUTER_BOUND('',#406,.T.);
#133=FACE_OUTER_BOUND('',#407,.T.);
#134=FACE_OUTER_BOUND('',#416,.T.);
#135=FACE_OUTER_BOUND('',#443,.T.);
#136=FACE_OUTER_BOUND('',#444,.T.);
#137=FACE_OUTER_BOUND('',#445,.T.);
#138=FACE_OUTER_BOUND('',#446,.T.);
#139=FACE_OUTER_BOUND('',#447,.T.);
#140=FACE_OUTER_BOUND('',#448,.T.);
#141=FACE_OUTER_BOUND('',#449,.T.);
#142=FACE_OUTER_BOUND('',#450,.T.);
#143=FACE_OUTER_BOUND('',#451,.T.);
#144=FACE_OUTER_BOUND('',#452,.T.);
#145=FACE_OUTER_BOUND('',#453,.T.);
#146=FACE_OUTER_BOUND('',#454,.T.);
#147=LINE('',#1332,#193);
#148=LINE('',#1335,#194);
#149=LINE('',#1337,#195);
#150=LINE('',#1339,#196);
#151=LINE('',#1343,#197);
#152=LINE('',#1346,#198);
#153=LINE('',#1348,#199);
#154=LINE('',#1350,#200);
#155=LINE('',#1355,#201);
#156=LINE('',#1359,#202);
#157=LINE('',#1363,#203);
#158=LINE('',#1366,#204);
#159=LINE('',#1368,#205);
#160=LINE('',#1370,#206);
#161=LINE('',#1372,#207);
#162=LINE('',#1375,#208);
#163=LINE('',#1377,#209);
#164=LINE('',#1379,#210);
#165=LINE('',#1383,#211);
#166=LINE('',#1389,#212);
#167=LINE('',#1391,#213);
#168=LINE('',#1393,#214);
#169=LINE('',#1397,#215);
#170=LINE('',#1401,#216);
#171=LINE('',#1403,#217);
#172=LINE('',#1405,#218);
#173=LINE('',#1409,#219);
#174=LINE('',#1415,#220);
#175=LINE('',#1417,#221);
#176=LINE('',#1419,#222);
#177=LINE('',#1459,#223);
#178=LINE('',#1464,#224);
#179=LINE('',#1468,#225);
#180=LINE('',#1472,#226);
#181=LINE('',#1498,#227);
#182=LINE('',#1500,#228);
#183=LINE('',#1502,#229);
#184=LINE('',#1504,#230);
#185=LINE('',#1508,#231);
#186=LINE('',#1510,#232);
#187=LINE('',#1512,#233);
#188=LINE('',#1516,#234);
#189=LINE('',#1518,#235);
#190=LINE('',#1520,#236);
#191=LINE('',#1524,#237);
#192=LINE('',#1526,#238);
#193=VECTOR('',#1066,1.);
#194=VECTOR('',#1067,1.);
#195=VECTOR('',#1068,1.);
#196=VECTOR('',#1069,1.);
#197=VECTOR('',#1074,1.);
#198=VECTOR('',#1075,1.);
#199=VECTOR('',#1076,1.);
#200=VECTOR('',#1077,1.);
#201=VECTOR('',#1082,1.);
#202=VECTOR('',#1085,1.);
#203=VECTOR('',#1090,1.);
#204=VECTOR('',#1091,1.);
#205=VECTOR('',#1092,1.);
#206=VECTOR('',#1093,1.);
#207=VECTOR('',#1096,1.);
#208=VECTOR('',#1097,1.);
#209=VECTOR('',#1098,1.);
#210=VECTOR('',#1099,1.);
#211=VECTOR('',#1104,1.);
#212=VECTOR('',#1111,1.);
#213=VECTOR('',#1112,1.);
#214=VECTOR('',#1113,1.);
#215=VECTOR('',#1118,1.);
#216=VECTOR('',#1123,1.);
#217=VECTOR('',#1124,1.);
#218=VECTOR('',#1125,1.);
#219=VECTOR('',#1130,1.);
#220=VECTOR('',#1137,1.);
#221=VECTOR('',#1138,1.);
#222=VECTOR('',#1139,1.);
#223=VECTOR('',#1192,1.);
#224=VECTOR('',#1195,1.);
#225=VECTOR('',#1198,1.);
#226=VECTOR('',#1201,1.);
#227=VECTOR('',#1242,1.);
#228=VECTOR('',#1243,1.);
#229=VECTOR('',#1244,1.);
#230=VECTOR('',#1247,1.);
#231=VECTOR('',#1252,1.);
#232=VECTOR('',#1253,1.);
#233=VECTOR('',#1256,1.);
#234=VECTOR('',#1261,1.);
#235=VECTOR('',#1262,1.);
#236=VECTOR('',#1265,1.);
#237=VECTOR('',#1270,1.);
#238=VECTOR('',#1271,1.);
#239=ADVANCED_FACE('',(#317,#318),#289,.F.);
#240=ADVANCED_FACE('',(#127),#111,.F.);
#241=ADVANCED_FACE('',(#319,#320),#112,.F.);
#242=ADVANCED_FACE('',(#128),#290,.F.);
#243=ADVANCED_FACE('',(#321,#322),#113,.F.);
#244=ADVANCED_FACE('',(#129),#114,.F.);
#245=ADVANCED_FACE('',(#130),#291,.T.);
#246=ADVANCED_FACE('',(#323,#324),#115,.F.);
#247=ADVANCED_FACE('',(#131),#292,.T.);
#248=ADVANCED_FACE('',(#132),#116,.F.);
#249=ADVANCED_FACE('',(#133),#293,.T.);
#250=ADVANCED_FACE('',(#325,#326),#117,.F.);
#251=ADVANCED_FACE('',(#327,#328),#294,.F.);
#252=ADVANCED_FACE('',(#329,#330),#295,.F.);
#253=ADVANCED_FACE('',(#331,#332),#296,.F.);
#254=ADVANCED_FACE('',(#134),#297,.T.);
#255=ADVANCED_FACE('',(#333,#334),#298,.F.);
#256=ADVANCED_FACE('',(#335,#336,#337,#338,#339,#340,#341,#342,#343,#344),
#118,.F.);
#257=ADVANCED_FACE('',(#345,#346),#119,.T.);
#258=ADVANCED_FACE('',(#347,#348),#299,.F.);
#259=ADVANCED_FACE('',(#349,#350),#300,.F.);
#260=ADVANCED_FACE('',(#351,#352),#301,.F.);
#261=ADVANCED_FACE('',(#353,#354),#302,.F.);
#262=ADVANCED_FACE('',(#355,#356),#103,.F.);
#263=ADVANCED_FACE('',(#357,#358),#104,.F.);
#264=ADVANCED_FACE('',(#135),#303,.T.);
#265=ADVANCED_FACE('',(#136),#304,.T.);
#266=ADVANCED_FACE('',(#137),#305,.T.);
#267=ADVANCED_FACE('',(#138),#306,.T.);
#268=ADVANCED_FACE('',(#139),#120,.F.);
#269=ADVANCED_FACE('',(#140),#307,.F.);
#270=ADVANCED_FACE('',(#141),#121,.F.);
#271=ADVANCED_FACE('',(#142),#308,.F.);
#272=ADVANCED_FACE('',(#143),#122,.F.);
#273=ADVANCED_FACE('',(#144),#309,.F.);
#274=ADVANCED_FACE('',(#145),#123,.F.);
#275=ADVANCED_FACE('',(#146),#310,.F.);
#276=ADVANCED_FACE('',(#359,#360,#361,#362,#363,#364),#124,.T.);
#277=ADVANCED_FACE('',(#365,#366),#311,.F.);
#278=ADVANCED_FACE('',(#367,#368),#125,.F.);
#279=ADVANCED_FACE('',(#369,#370),#312,.F.);
#280=ADVANCED_FACE('',(#371,#372),#313,.F.);
#281=ADVANCED_FACE('',(#373,#374,#375,#376,#377,#378),#126,.F.);
#282=ADVANCED_FACE('',(#379,#380),#105,.F.);
#283=ADVANCED_FACE('',(#381,#382),#314,.F.);
#284=ADVANCED_FACE('',(#383,#384),#106,.F.);
#285=ADVANCED_FACE('',(#385,#386),#315,.F.);
#286=ADVANCED_FACE('',(#387,#388),#107,.F.);
#287=ADVANCED_FACE('',(#389,#390),#316,.F.);
#288=ADVANCED_FACE('',(#391,#392),#108,.F.);
#289=CYLINDRICAL_SURFACE('',#950,13.);
#290=CYLINDRICAL_SURFACE('',#956,30.);
#291=CYLINDRICAL_SURFACE('',#962,40.);
#292=CYLINDRICAL_SURFACE('',#967,10.);
#293=CYLINDRICAL_SURFACE('',#971,10.);
#294=CYLINDRICAL_SURFACE('',#976,2.);
#295=CYLINDRICAL_SURFACE('',#979,2.);
#296=CYLINDRICAL_SURFACE('',#982,2.);
#297=CYLINDRICAL_SURFACE('',#985,40.);
#298=CYLINDRICAL_SURFACE('',#988,2.);
#299=CYLINDRICAL_SURFACE('',#1009,4.);
#300=CYLINDRICAL_SURFACE('',#1011,4.);
#301=CYLINDRICAL_SURFACE('',#1013,6.5);
#302=CYLINDRICAL_SURFACE('',#1015,6.5);
#303=CYLINDRICAL_SURFACE('',#1018,5.);
#304=CYLINDRICAL_SURFACE('',#1019,5.);
#305=CYLINDRICAL_SURFACE('',#1020,5.);
#306=CYLINDRICAL_SURFACE('',#1021,5.);
#307=CYLINDRICAL_SURFACE('',#1024,2.99999999999999);
#308=CYLINDRICAL_SURFACE('',#1027,3.);
#309=CYLINDRICAL_SURFACE('',#1030,3.);
#310=CYLINDRICAL_SURFACE('',#1033,3.);
#311=CYLINDRICAL_SURFACE('',#1037,11.);
#312=CYLINDRICAL_SURFACE('',#1040,1.65);
#313=CYLINDRICAL_SURFACE('',#1042,20.5);
#314=CYLINDRICAL_SURFACE('',#1050,1.65);
#315=CYLINDRICAL_SURFACE('',#1053,1.65);
#316=CYLINDRICAL_SURFACE('',#1056,1.65);
#317=FACE_BOUND('',#393,.T.);
#318=FACE_BOUND('',#394,.T.);
#319=FACE_BOUND('',#396,.T.);
#320=FACE_BOUND('',#397,.T.);
#321=FACE_BOUND('',#399,.T.);
#322=FACE_BOUND('',#400,.T.);
#323=FACE_BOUND('',#403,.T.);
#324=FACE_BOUND('',#404,.T.);
#325=FACE_BOUND('',#408,.T.);
#326=FACE_BOUND('',#409,.T.);
#327=FACE_BOUND('',#410,.T.);
#328=FACE_BOUND('',#411,.T.);
#329=FACE_BOUND('',#412,.T.);
#330=FACE_BOUND('',#413,.T.);
#331=FACE_BOUND('',#414,.T.);
#332=FACE_BOUND('',#415,.T.);
#333=FACE_BOUND('',#417,.T.);
#334=FACE_BOUND('',#418,.T.);
#335=FACE_BOUND('',#419,.T.);
#336=FACE_BOUND('',#420,.T.);
#337=FACE_BOUND('',#421,.T.);
#338=FACE_BOUND('',#422,.T.);
#339=FACE_BOUND('',#423,.T.);
#340=FACE_BOUND('',#424,.T.);
#341=FACE_BOUND('',#425,.T.);
#342=FACE_BOUND('',#426,.T.);
#343=FACE_BOUND('',#427,.T.);
#344=FACE_BOUND('',#428,.T.);
#345=FACE_BOUND('',#429,.T.);
#346=FACE_BOUND('',#430,.T.);
#347=FACE_BOUND('',#431,.T.);
#348=FACE_BOUND('',#432,.T.);
#349=FACE_BOUND('',#433,.T.);
#350=FACE_BOUND('',#434,.T.);
#351=FACE_BOUND('',#435,.T.);
#352=FACE_BOUND('',#436,.T.);
#353=FACE_BOUND('',#437,.T.);
#354=FACE_BOUND('',#438,.T.);
#355=FACE_BOUND('',#439,.T.);
#356=FACE_BOUND('',#440,.T.);
#357=FACE_BOUND('',#441,.T.);
#358=FACE_BOUND('',#442,.T.);
#359=FACE_BOUND('',#455,.T.);
#360=FACE_BOUND('',#456,.T.);
#361=FACE_BOUND('',#457,.T.);
#362=FACE_BOUND('',#458,.T.);
#363=FACE_BOUND('',#459,.T.);
#364=FACE_BOUND('',#460,.T.);
#365=FACE_BOUND('',#461,.T.);
#366=FACE_BOUND('',#462,.T.);
#367=FACE_BOUND('',#463,.T.);
#368=FACE_BOUND('',#464,.T.);
#369=FACE_BOUND('',#465,.T.);
#370=FACE_BOUND('',#466,.T.);
#371=FACE_BOUND('',#467,.T.);
#372=FACE_BOUND('',#468,.T.);
#373=FACE_BOUND('',#469,.T.);
#374=FACE_BOUND('',#470,.T.);
#375=FACE_BOUND('',#471,.T.);
#376=FACE_BOUND('',#472,.T.);
#377=FACE_BOUND('',#473,.T.);
#378=FACE_BOUND('',#474,.T.);
#379=FACE_BOUND('',#475,.T.);
#380=FACE_BOUND('',#476,.T.);
#381=FACE_BOUND('',#477,.T.);
#382=FACE_BOUND('',#478,.T.);
#383=FACE_BOUND('',#479,.T.);
#384=FACE_BOUND('',#480,.T.);
#385=FACE_BOUND('',#481,.T.);
#386=FACE_BOUND('',#482,.T.);
#387=FACE_BOUND('',#483,.T.);
#388=FACE_BOUND('',#484,.T.);
#389=FACE_BOUND('',#485,.T.);
#390=FACE_BOUND('',#486,.T.);
#391=FACE_BOUND('',#487,.T.);
#392=FACE_BOUND('',#488,.T.);
#393=EDGE_LOOP('',(#489));
#394=EDGE_LOOP('',(#490));
#395=EDGE_LOOP('',(#491,#492,#493,#494));
#396=EDGE_LOOP('',(#495));
#397=EDGE_LOOP('',(#496,#497,#498,#499));
#398=EDGE_LOOP('',(#500,#501,#502,#503));
#399=EDGE_LOOP('',(#504));
#400=EDGE_LOOP('',(#505,#506,#507,#508));
#401=EDGE_LOOP('',(#509,#510,#511,#512));
#402=EDGE_LOOP('',(#513,#514,#515,#516));
#403=EDGE_LOOP('',(#517));
#404=EDGE_LOOP('',(#518,#519,#520,#521));
#405=EDGE_LOOP('',(#522,#523,#524,#525));
#406=EDGE_LOOP('',(#526,#527,#528,#529));
#407=EDGE_LOOP('',(#530,#531,#532,#533));
#408=EDGE_LOOP('',(#534));
#409=EDGE_LOOP('',(#535,#536,#537,#538));
#410=EDGE_LOOP('',(#539));
#411=EDGE_LOOP('',(#540));
#412=EDGE_LOOP('',(#541));
#413=EDGE_LOOP('',(#542));
#414=EDGE_LOOP('',(#543));
#415=EDGE_LOOP('',(#544));
#416=EDGE_LOOP('',(#545,#546,#547,#548));
#417=EDGE_LOOP('',(#549));
#418=EDGE_LOOP('',(#550));
#419=EDGE_LOOP('',(#551));
#420=EDGE_LOOP('',(#552));
#421=EDGE_LOOP('',(#553));
#422=EDGE_LOOP('',(#554));
#423=EDGE_LOOP('',(#555,#556,#557,#558,#559,#560,#561,#562,#563,#564,#565,
#566,#567,#568,#569,#570));
#424=EDGE_LOOP('',(#571));
#425=EDGE_LOOP('',(#572));
#426=EDGE_LOOP('',(#573));
#427=EDGE_LOOP('',(#574));
#428=EDGE_LOOP('',(#575));
#429=EDGE_LOOP('',(#576,#577,#578,#579,#580,#581,#582,#583));
#430=EDGE_LOOP('',(#584,#585,#586,#587,#588,#589,#590,#591,#592,#593,#594,
#595,#596,#597,#598,#599));
#431=EDGE_LOOP('',(#600));
#432=EDGE_LOOP('',(#601));
#433=EDGE_LOOP('',(#602));
#434=EDGE_LOOP('',(#603));
#435=EDGE_LOOP('',(#604));
#436=EDGE_LOOP('',(#605));
#437=EDGE_LOOP('',(#606));
#438=EDGE_LOOP('',(#607));
#439=EDGE_LOOP('',(#608));
#440=EDGE_LOOP('',(#609));
#441=EDGE_LOOP('',(#610));
#442=EDGE_LOOP('',(#611));
#443=EDGE_LOOP('',(#612,#613,#614,#615));
#444=EDGE_LOOP('',(#616,#617,#618,#619));
#445=EDGE_LOOP('',(#620,#621,#622,#623));
#446=EDGE_LOOP('',(#624,#625,#626,#627));
#447=EDGE_LOOP('',(#628,#629,#630,#631));
#448=EDGE_LOOP('',(#632,#633,#634,#635));
#449=EDGE_LOOP('',(#636,#637,#638,#639));
#450=EDGE_LOOP('',(#640,#641,#642,#643));
#451=EDGE_LOOP('',(#644,#645,#646,#647));
#452=EDGE_LOOP('',(#648,#649,#650,#651));
#453=EDGE_LOOP('',(#652,#653,#654,#655));
#454=EDGE_LOOP('',(#656,#657,#658,#659));
#455=EDGE_LOOP('',(#660));
#456=EDGE_LOOP('',(#661,#662,#663,#664,#665,#666,#667,#668));
#457=EDGE_LOOP('',(#669));
#458=EDGE_LOOP('',(#670));
#459=EDGE_LOOP('',(#671));
#460=EDGE_LOOP('',(#672));
#461=EDGE_LOOP('',(#673));
#462=EDGE_LOOP('',(#674));
#463=EDGE_LOOP('',(#675));
#464=EDGE_LOOP('',(#676));
#465=EDGE_LOOP('',(#677));
#466=EDGE_LOOP('',(#678));
#467=EDGE_LOOP('',(#679));
#468=EDGE_LOOP('',(#680));
#469=EDGE_LOOP('',(#681));
#470=EDGE_LOOP('',(#682));
#471=EDGE_LOOP('',(#683));
#472=EDGE_LOOP('',(#684));
#473=EDGE_LOOP('',(#685));
#474=EDGE_LOOP('',(#686));
#475=EDGE_LOOP('',(#687));
#476=EDGE_LOOP('',(#688));
#477=EDGE_LOOP('',(#689));
#478=EDGE_LOOP('',(#690));
#479=EDGE_LOOP('',(#691));
#480=EDGE_LOOP('',(#692));
#481=EDGE_LOOP('',(#693));
#482=EDGE_LOOP('',(#694));
#483=EDGE_LOOP('',(#695));
#484=EDGE_LOOP('',(#696));
#485=EDGE_LOOP('',(#697));
#486=EDGE_LOOP('',(#698));
#487=EDGE_LOOP('',(#699));
#488=EDGE_LOOP('',(#700));
#489=ORIENTED_EDGE('',*,*,#783,.F.);
#490=ORIENTED_EDGE('',*,*,#784,.T.);
#491=ORIENTED_EDGE('',*,*,#785,.T.);
#492=ORIENTED_EDGE('',*,*,#786,.T.);
#493=ORIENTED_EDGE('',*,*,#787,.F.);
#494=ORIENTED_EDGE('',*,*,#788,.T.);
#495=ORIENTED_EDGE('',*,*,#789,.F.);
#496=ORIENTED_EDGE('',*,*,#790,.T.);
#497=ORIENTED_EDGE('',*,*,#791,.T.);
#498=ORIENTED_EDGE('',*,*,#792,.F.);
#499=ORIENTED_EDGE('',*,*,#793,.T.);
#500=ORIENTED_EDGE('',*,*,#794,.T.);
#501=ORIENTED_EDGE('',*,*,#795,.T.);
#502=ORIENTED_EDGE('',*,*,#796,.F.);
#503=ORIENTED_EDGE('',*,*,#797,.T.);
#504=ORIENTED_EDGE('',*,*,#798,.F.);
#505=ORIENTED_EDGE('',*,*,#799,.T.);
#506=ORIENTED_EDGE('',*,*,#800,.T.);
#507=ORIENTED_EDGE('',*,*,#801,.F.);
#508=ORIENTED_EDGE('',*,*,#802,.T.);
#509=ORIENTED_EDGE('',*,*,#803,.F.);
#510=ORIENTED_EDGE('',*,*,#804,.T.);
#511=ORIENTED_EDGE('',*,*,#805,.T.);
#512=ORIENTED_EDGE('',*,*,#806,.F.);
#513=ORIENTED_EDGE('',*,*,#807,.T.);
#514=ORIENTED_EDGE('',*,*,#808,.F.);
#515=ORIENTED_EDGE('',*,*,#809,.F.);
#516=ORIENTED_EDGE('',*,*,#806,.T.);
#517=ORIENTED_EDGE('',*,*,#810,.F.);
#518=ORIENTED_EDGE('',*,*,#811,.T.);
#519=ORIENTED_EDGE('',*,*,#812,.F.);
#520=ORIENTED_EDGE('',*,*,#813,.F.);
#521=ORIENTED_EDGE('',*,*,#808,.T.);
#522=ORIENTED_EDGE('',*,*,#814,.T.);
#523=ORIENTED_EDGE('',*,*,#815,.F.);
#524=ORIENTED_EDGE('',*,*,#816,.F.);
#525=ORIENTED_EDGE('',*,*,#812,.T.);
#526=ORIENTED_EDGE('',*,*,#817,.T.);
#527=ORIENTED_EDGE('',*,*,#818,.F.);
#528=ORIENTED_EDGE('',*,*,#819,.F.);
#529=ORIENTED_EDGE('',*,*,#815,.T.);
#530=ORIENTED_EDGE('',*,*,#820,.T.);
#531=ORIENTED_EDGE('',*,*,#821,.F.);
#532=ORIENTED_EDGE('',*,*,#822,.F.);
#533=ORIENTED_EDGE('',*,*,#818,.T.);
#534=ORIENTED_EDGE('',*,*,#823,.F.);
#535=ORIENTED_EDGE('',*,*,#824,.T.);
#536=ORIENTED_EDGE('',*,*,#825,.F.);
#537=ORIENTED_EDGE('',*,*,#826,.F.);
#538=ORIENTED_EDGE('',*,*,#821,.T.);
#539=ORIENTED_EDGE('',*,*,#827,.F.);
#540=ORIENTED_EDGE('',*,*,#828,.T.);
#541=ORIENTED_EDGE('',*,*,#829,.F.);
#542=ORIENTED_EDGE('',*,*,#830,.T.);
#543=ORIENTED_EDGE('',*,*,#831,.F.);
#544=ORIENTED_EDGE('',*,*,#832,.T.);
#545=ORIENTED_EDGE('',*,*,#833,.T.);
#546=ORIENTED_EDGE('',*,*,#788,.F.);
#547=ORIENTED_EDGE('',*,*,#834,.F.);
#548=ORIENTED_EDGE('',*,*,#825,.T.);
#549=ORIENTED_EDGE('',*,*,#835,.F.);
#550=ORIENTED_EDGE('',*,*,#836,.T.);
#551=ORIENTED_EDGE('',*,*,#837,.F.);
#552=ORIENTED_EDGE('',*,*,#838,.F.);
#553=ORIENTED_EDGE('',*,*,#839,.F.);
#554=ORIENTED_EDGE('',*,*,#840,.F.);
#555=ORIENTED_EDGE('',*,*,#801,.T.);
#556=ORIENTED_EDGE('',*,*,#841,.T.);
#557=ORIENTED_EDGE('',*,*,#803,.T.);
#558=ORIENTED_EDGE('',*,*,#809,.T.);
#559=ORIENTED_EDGE('',*,*,#813,.T.);
#560=ORIENTED_EDGE('',*,*,#816,.T.);
#561=ORIENTED_EDGE('',*,*,#819,.T.);
#562=ORIENTED_EDGE('',*,*,#822,.T.);
#563=ORIENTED_EDGE('',*,*,#826,.T.);
#564=ORIENTED_EDGE('',*,*,#834,.T.);
#565=ORIENTED_EDGE('',*,*,#787,.T.);
#566=ORIENTED_EDGE('',*,*,#842,.T.);
#567=ORIENTED_EDGE('',*,*,#792,.T.);
#568=ORIENTED_EDGE('',*,*,#843,.T.);
#569=ORIENTED_EDGE('',*,*,#796,.T.);
#570=ORIENTED_EDGE('',*,*,#844,.T.);
#571=ORIENTED_EDGE('',*,*,#832,.F.);
#572=ORIENTED_EDGE('',*,*,#830,.F.);
#573=ORIENTED_EDGE('',*,*,#828,.F.);
#574=ORIENTED_EDGE('',*,*,#836,.F.);
#575=ORIENTED_EDGE('',*,*,#845,.F.);
#576=ORIENTED_EDGE('',*,*,#846,.F.);
#577=ORIENTED_EDGE('',*,*,#847,.F.);
#578=ORIENTED_EDGE('',*,*,#848,.F.);
#579=ORIENTED_EDGE('',*,*,#849,.F.);
#580=ORIENTED_EDGE('',*,*,#850,.F.);
#581=ORIENTED_EDGE('',*,*,#851,.F.);
#582=ORIENTED_EDGE('',*,*,#852,.F.);
#583=ORIENTED_EDGE('',*,*,#853,.F.);
#584=ORIENTED_EDGE('',*,*,#805,.F.);
#585=ORIENTED_EDGE('',*,*,#854,.T.);
#586=ORIENTED_EDGE('',*,*,#799,.F.);
#587=ORIENTED_EDGE('',*,*,#855,.T.);
#588=ORIENTED_EDGE('',*,*,#794,.F.);
#589=ORIENTED_EDGE('',*,*,#856,.T.);
#590=ORIENTED_EDGE('',*,*,#790,.F.);
#591=ORIENTED_EDGE('',*,*,#857,.T.);
#592=ORIENTED_EDGE('',*,*,#785,.F.);
#593=ORIENTED_EDGE('',*,*,#833,.F.);
#594=ORIENTED_EDGE('',*,*,#824,.F.);
#595=ORIENTED_EDGE('',*,*,#820,.F.);
#596=ORIENTED_EDGE('',*,*,#817,.F.);
#597=ORIENTED_EDGE('',*,*,#814,.F.);
#598=ORIENTED_EDGE('',*,*,#811,.F.);
#599=ORIENTED_EDGE('',*,*,#807,.F.);
#600=ORIENTED_EDGE('',*,*,#858,.T.);
#601=ORIENTED_EDGE('',*,*,#789,.T.);
#602=ORIENTED_EDGE('',*,*,#859,.T.);
#603=ORIENTED_EDGE('',*,*,#798,.T.);
#604=ORIENTED_EDGE('',*,*,#860,.T.);
#605=ORIENTED_EDGE('',*,*,#823,.T.);
#606=ORIENTED_EDGE('',*,*,#861,.T.);
#607=ORIENTED_EDGE('',*,*,#810,.T.);
#608=ORIENTED_EDGE('',*,*,#860,.F.);
#609=ORIENTED_EDGE('',*,*,#858,.F.);
#610=ORIENTED_EDGE('',*,*,#861,.F.);
#611=ORIENTED_EDGE('',*,*,#859,.F.);
#612=ORIENTED_EDGE('',*,*,#841,.F.);
#613=ORIENTED_EDGE('',*,*,#800,.F.);
#614=ORIENTED_EDGE('',*,*,#854,.F.);
#615=ORIENTED_EDGE('',*,*,#804,.F.);
#616=ORIENTED_EDGE('',*,*,#844,.F.);
#617=ORIENTED_EDGE('',*,*,#795,.F.);
#618=ORIENTED_EDGE('',*,*,#855,.F.);
#619=ORIENTED_EDGE('',*,*,#802,.F.);
#620=ORIENTED_EDGE('',*,*,#843,.F.);
#621=ORIENTED_EDGE('',*,*,#791,.F.);
#622=ORIENTED_EDGE('',*,*,#856,.F.);
#623=ORIENTED_EDGE('',*,*,#797,.F.);
#624=ORIENTED_EDGE('',*,*,#842,.F.);
#625=ORIENTED_EDGE('',*,*,#786,.F.);
#626=ORIENTED_EDGE('',*,*,#857,.F.);
#627=ORIENTED_EDGE('',*,*,#793,.F.);
#628=ORIENTED_EDGE('',*,*,#846,.T.);
#629=ORIENTED_EDGE('',*,*,#862,.T.);
#630=ORIENTED_EDGE('',*,*,#863,.T.);
#631=ORIENTED_EDGE('',*,*,#864,.F.);
#632=ORIENTED_EDGE('',*,*,#853,.T.);
#633=ORIENTED_EDGE('',*,*,#865,.T.);
#634=ORIENTED_EDGE('',*,*,#866,.T.);
#635=ORIENTED_EDGE('',*,*,#862,.F.);
#636=ORIENTED_EDGE('',*,*,#852,.T.);
#637=ORIENTED_EDGE('',*,*,#867,.T.);
#638=ORIENTED_EDGE('',*,*,#868,.T.);
#639=ORIENTED_EDGE('',*,*,#865,.F.);
#640=ORIENTED_EDGE('',*,*,#851,.T.);
#641=ORIENTED_EDGE('',*,*,#869,.T.);
#642=ORIENTED_EDGE('',*,*,#870,.T.);
#643=ORIENTED_EDGE('',*,*,#867,.F.);
#644=ORIENTED_EDGE('',*,*,#850,.T.);
#645=ORIENTED_EDGE('',*,*,#871,.T.);
#646=ORIENTED_EDGE('',*,*,#872,.T.);
#647=ORIENTED_EDGE('',*,*,#869,.F.);
#648=ORIENTED_EDGE('',*,*,#849,.T.);
#649=ORIENTED_EDGE('',*,*,#873,.T.);
#650=ORIENTED_EDGE('',*,*,#874,.T.);
#651=ORIENTED_EDGE('',*,*,#871,.F.);
#652=ORIENTED_EDGE('',*,*,#848,.T.);
#653=ORIENTED_EDGE('',*,*,#875,.T.);
#654=ORIENTED_EDGE('',*,*,#876,.T.);
#655=ORIENTED_EDGE('',*,*,#873,.F.);
#656=ORIENTED_EDGE('',*,*,#847,.T.);
#657=ORIENTED_EDGE('',*,*,#864,.T.);
#658=ORIENTED_EDGE('',*,*,#877,.T.);
#659=ORIENTED_EDGE('',*,*,#875,.F.);
#660=ORIENTED_EDGE('',*,*,#878,.T.);
#661=ORIENTED_EDGE('',*,*,#863,.F.);
#662=ORIENTED_EDGE('',*,*,#866,.F.);
#663=ORIENTED_EDGE('',*,*,#868,.F.);
#664=ORIENTED_EDGE('',*,*,#870,.F.);
#665=ORIENTED_EDGE('',*,*,#872,.F.);
#666=ORIENTED_EDGE('',*,*,#874,.F.);
#667=ORIENTED_EDGE('',*,*,#876,.F.);
#668=ORIENTED_EDGE('',*,*,#877,.F.);
#669=ORIENTED_EDGE('',*,*,#835,.T.);
#670=ORIENTED_EDGE('',*,*,#827,.T.);
#671=ORIENTED_EDGE('',*,*,#829,.T.);
#672=ORIENTED_EDGE('',*,*,#831,.T.);
#673=ORIENTED_EDGE('',*,*,#879,.F.);
#674=ORIENTED_EDGE('',*,*,#845,.T.);
#675=ORIENTED_EDGE('',*,*,#784,.F.);
#676=ORIENTED_EDGE('',*,*,#879,.T.);
#677=ORIENTED_EDGE('',*,*,#880,.T.);
#678=ORIENTED_EDGE('',*,*,#840,.T.);
#679=ORIENTED_EDGE('',*,*,#878,.F.);
#680=ORIENTED_EDGE('',*,*,#881,.F.);
#681=ORIENTED_EDGE('',*,*,#882,.T.);
#682=ORIENTED_EDGE('',*,*,#883,.T.);
#683=ORIENTED_EDGE('',*,*,#884,.T.);
#684=ORIENTED_EDGE('',*,*,#885,.T.);
#685=ORIENTED_EDGE('',*,*,#881,.T.);
#686=ORIENTED_EDGE('',*,*,#783,.T.);
#687=ORIENTED_EDGE('',*,*,#880,.F.);
#688=ORIENTED_EDGE('',*,*,#885,.F.);
#689=ORIENTED_EDGE('',*,*,#886,.T.);
#690=ORIENTED_EDGE('',*,*,#839,.T.);
#691=ORIENTED_EDGE('',*,*,#886,.F.);
#692=ORIENTED_EDGE('',*,*,#884,.F.);
#693=ORIENTED_EDGE('',*,*,#887,.T.);
#694=ORIENTED_EDGE('',*,*,#838,.T.);
#695=ORIENTED_EDGE('',*,*,#887,.F.);
#696=ORIENTED_EDGE('',*,*,#883,.F.);
#697=ORIENTED_EDGE('',*,*,#888,.T.);
#698=ORIENTED_EDGE('',*,*,#837,.T.);
#699=ORIENTED_EDGE('',*,*,#888,.F.);
#700=ORIENTED_EDGE('',*,*,#882,.F.);
#701=VERTEX_POINT('',#1328);
#702=VERTEX_POINT('',#1330);
#703=VERTEX_POINT('',#1333);
#704=VERTEX_POINT('',#1334);
#705=VERTEX_POINT('',#1336);
#706=VERTEX_POINT('',#1338);
#707=VERTEX_POINT('',#1342);
#708=VERTEX_POINT('',#1344);
#709=VERTEX_POINT('',#1345);
#710=VERTEX_POINT('',#1347);
#711=VERTEX_POINT('',#1349);
#712=VERTEX_POINT('',#1353);
#713=VERTEX_POINT('',#1354);
#714=VERTEX_POINT('',#1356);
#715=VERTEX_POINT('',#1358);
#716=VERTEX_POINT('',#1362);
#717=VERTEX_POINT('',#1364);
#718=VERTEX_POINT('',#1365);
#719=VERTEX_POINT('',#1367);
#720=VERTEX_POINT('',#1369);
#721=VERTEX_POINT('',#1373);
#722=VERTEX_POINT('',#1374);
#723=VERTEX_POINT('',#1376);
#724=VERTEX_POINT('',#1378);
#725=VERTEX_POINT('',#1382);
#726=VERTEX_POINT('',#1384);
#727=VERTEX_POINT('',#1388);
#728=VERTEX_POINT('',#1390);
#729=VERTEX_POINT('',#1392);
#730=VERTEX_POINT('',#1396);
#731=VERTEX_POINT('',#1398);
#732=VERTEX_POINT('',#1402);
#733=VERTEX_POINT('',#1404);
#734=VERTEX_POINT('',#1408);
#735=VERTEX_POINT('',#1410);
#736=VERTEX_POINT('',#1414);
#737=VERTEX_POINT('',#1416);
#738=VERTEX_POINT('',#1418);
#739=VERTEX_POINT('',#1422);
#740=VERTEX_POINT('',#1424);
#741=VERTEX_POINT('',#1427);
#742=VERTEX_POINT('',#1429);
#743=VERTEX_POINT('',#1432);
#744=VERTEX_POINT('',#1434);
#745=VERTEX_POINT('',#1440);
#746=VERTEX_POINT('',#1442);
#747=VERTEX_POINT('',#1445);
#748=VERTEX_POINT('',#1447);
#749=VERTEX_POINT('',#1449);
#750=VERTEX_POINT('',#1451);
#751=VERTEX_POINT('',#1457);
#752=VERTEX_POINT('',#1460);
#753=VERTEX_POINT('',#1461);
#754=VERTEX_POINT('',#1463);
#755=VERTEX_POINT('',#1465);
#756=VERTEX_POINT('',#1467);
#757=VERTEX_POINT('',#1469);
#758=VERTEX_POINT('',#1471);
#759=VERTEX_POINT('',#1473);
#760=VERTEX_POINT('',#1481);
#761=VERTEX_POINT('',#1484);
#762=VERTEX_POINT('',#1487);
#763=VERTEX_POINT('',#1490);
#764=VERTEX_POINT('',#1499);
#765=VERTEX_POINT('',#1501);
#766=VERTEX_POINT('',#1505);
#767=VERTEX_POINT('',#1509);
#768=VERTEX_POINT('',#1513);
#769=VERTEX_POINT('',#1517);
#770=VERTEX_POINT('',#1521);
#771=VERTEX_POINT('',#1525);
#772=VERTEX_POINT('',#1531);
#773=VERTEX_POINT('',#1534);
#774=VERTEX_POINT('',#1538);
#775=VERTEX_POINT('',#1541);
#776=VERTEX_POINT('',#1544);
#777=VERTEX_POINT('',#1546);
#778=VERTEX_POINT('',#1548);
#779=VERTEX_POINT('',#1550);
#780=VERTEX_POINT('',#1554);
#781=VERTEX_POINT('',#1558);
#782=VERTEX_POINT('',#1562);
#783=EDGE_CURVE('',#701,#701,#889,.T.);
#784=EDGE_CURVE('',#702,#702,#890,.T.);
#785=EDGE_CURVE('',#703,#704,#147,.T.);
#786=EDGE_CURVE('',#704,#705,#148,.T.);
#787=EDGE_CURVE('',#706,#705,#149,.T.);
#788=EDGE_CURVE('',#706,#703,#150,.T.);
#789=EDGE_CURVE('',#707,#707,#891,.T.);
#790=EDGE_CURVE('',#708,#709,#151,.T.);
#791=EDGE_CURVE('',#709,#710,#152,.T.);
#792=EDGE_CURVE('',#711,#710,#153,.T.);
#793=EDGE_CURVE('',#711,#708,#154,.T.);
#794=EDGE_CURVE('',#712,#713,#892,.T.);
#795=EDGE_CURVE('',#713,#714,#155,.T.);
#796=EDGE_CURVE('',#715,#714,#893,.T.);
#797=EDGE_CURVE('',#715,#712,#156,.T.);
#798=EDGE_CURVE('',#716,#716,#894,.T.);
#799=EDGE_CURVE('',#717,#718,#157,.T.);
#800=EDGE_CURVE('',#718,#719,#158,.T.);
#801=EDGE_CURVE('',#720,#719,#159,.T.);
#802=EDGE_CURVE('',#720,#717,#160,.T.);
#803=EDGE_CURVE('',#721,#722,#161,.T.);
#804=EDGE_CURVE('',#721,#723,#162,.T.);
#805=EDGE_CURVE('',#723,#724,#163,.T.);
#806=EDGE_CURVE('',#722,#724,#164,.T.);
#807=EDGE_CURVE('',#724,#725,#895,.T.);
#808=EDGE_CURVE('',#726,#725,#165,.T.);
#809=EDGE_CURVE('',#722,#726,#896,.T.);
#810=EDGE_CURVE('',#727,#727,#109,.T.);
#811=EDGE_CURVE('',#725,#728,#166,.T.);
#812=EDGE_CURVE('',#729,#728,#167,.T.);
#813=EDGE_CURVE('',#726,#729,#168,.T.);
#814=EDGE_CURVE('',#728,#730,#897,.T.);
#815=EDGE_CURVE('',#731,#730,#169,.T.);
#816=EDGE_CURVE('',#729,#731,#898,.T.);
#817=EDGE_CURVE('',#730,#732,#170,.T.);
#818=EDGE_CURVE('',#733,#732,#171,.T.);
#819=EDGE_CURVE('',#731,#733,#172,.T.);
#820=EDGE_CURVE('',#732,#734,#899,.T.);
#821=EDGE_CURVE('',#735,#734,#173,.T.);
#822=EDGE_CURVE('',#733,#735,#900,.T.);
#823=EDGE_CURVE('',#736,#736,#110,.T.);
#824=EDGE_CURVE('',#734,#737,#174,.T.);
#825=EDGE_CURVE('',#738,#737,#175,.T.);
#826=EDGE_CURVE('',#735,#738,#176,.T.);
#827=EDGE_CURVE('',#739,#739,#901,.T.);
#828=EDGE_CURVE('',#740,#740,#902,.T.);
#829=EDGE_CURVE('',#741,#741,#903,.T.);
#830=EDGE_CURVE('',#742,#742,#904,.T.);
#831=EDGE_CURVE('',#743,#743,#905,.T.);
#832=EDGE_CURVE('',#744,#744,#906,.T.);
#833=EDGE_CURVE('',#737,#703,#907,.T.);
#834=EDGE_CURVE('',#738,#706,#908,.T.);
#835=EDGE_CURVE('',#745,#745,#909,.T.);
#836=EDGE_CURVE('',#746,#746,#910,.T.);
#837=EDGE_CURVE('',#747,#747,#911,.T.);
#838=EDGE_CURVE('',#748,#748,#912,.T.);
#839=EDGE_CURVE('',#749,#749,#913,.T.);
#840=EDGE_CURVE('',#750,#750,#914,.T.);
#841=EDGE_CURVE('',#719,#721,#915,.T.);
#842=EDGE_CURVE('',#705,#711,#916,.T.);
#843=EDGE_CURVE('',#710,#715,#917,.T.);
#844=EDGE_CURVE('',#714,#720,#918,.T.);
#845=EDGE_CURVE('',#751,#751,#919,.T.);
#846=EDGE_CURVE('',#752,#753,#177,.T.);
#847=EDGE_CURVE('',#754,#752,#920,.T.);
#848=EDGE_CURVE('',#755,#754,#178,.T.);
#849=EDGE_CURVE('',#756,#755,#921,.T.);
#850=EDGE_CURVE('',#757,#756,#179,.T.);
#851=EDGE_CURVE('',#758,#757,#922,.T.);
#852=EDGE_CURVE('',#759,#758,#180,.T.);
#853=EDGE_CURVE('',#753,#759,#923,.T.);
#854=EDGE_CURVE('',#723,#718,#924,.T.);
#855=EDGE_CURVE('',#717,#713,#925,.T.);
#856=EDGE_CURVE('',#712,#709,#926,.T.);
#857=EDGE_CURVE('',#708,#704,#927,.T.);
#858=EDGE_CURVE('',#760,#760,#928,.T.);
#859=EDGE_CURVE('',#761,#761,#929,.T.);
#860=EDGE_CURVE('',#762,#762,#930,.T.);
#861=EDGE_CURVE('',#763,#763,#931,.T.);
#862=EDGE_CURVE('',#753,#764,#181,.T.);
#863=EDGE_CURVE('',#764,#765,#182,.T.);
#864=EDGE_CURVE('',#752,#765,#183,.T.);
#865=EDGE_CURVE('',#759,#766,#184,.T.);
#866=EDGE_CURVE('',#766,#764,#932,.T.);
#867=EDGE_CURVE('',#758,#767,#185,.T.);
#868=EDGE_CURVE('',#767,#766,#186,.T.);
#869=EDGE_CURVE('',#757,#768,#187,.T.);
#870=EDGE_CURVE('',#768,#767,#933,.T.);
#871=EDGE_CURVE('',#756,#769,#188,.T.);
#872=EDGE_CURVE('',#769,#768,#189,.T.);
#873=EDGE_CURVE('',#755,#770,#190,.T.);
#874=EDGE_CURVE('',#770,#769,#934,.T.);
#875=EDGE_CURVE('',#754,#771,#191,.T.);
#876=EDGE_CURVE('',#771,#770,#192,.T.);
#877=EDGE_CURVE('',#765,#771,#935,.T.);
#878=EDGE_CURVE('',#772,#772,#936,.T.);
#879=EDGE_CURVE('',#773,#773,#937,.T.);
#880=EDGE_CURVE('',#774,#774,#938,.T.);
#881=EDGE_CURVE('',#775,#775,#939,.T.);
#882=EDGE_CURVE('',#776,#776,#940,.T.);
#883=EDGE_CURVE('',#777,#777,#941,.T.);
#884=EDGE_CURVE('',#778,#778,#942,.T.);
#885=EDGE_CURVE('',#779,#779,#943,.T.);
#886=EDGE_CURVE('',#780,#780,#944,.T.);
#887=EDGE_CURVE('',#781,#781,#945,.T.);
#888=EDGE_CURVE('',#782,#782,#946,.T.);
#889=CIRCLE('',#948,13.);
#890=CIRCLE('',#949,13.);
#891=CIRCLE('',#952,4.);
#892=CIRCLE('',#954,30.);
#893=CIRCLE('',#955,30.);
#894=CIRCLE('',#957,4.);
#895=CIRCLE('',#960,40.);
#896=CIRCLE('',#961,40.);
#897=CIRCLE('',#965,10.);
#898=CIRCLE('',#966,10.);
#899=CIRCLE('',#969,10.);
#900=CIRCLE('',#970,10.);
#901=CIRCLE('',#974,2.);
#902=CIRCLE('',#975,2.);
#903=CIRCLE('',#977,2.);
#904=CIRCLE('',#978,2.);
#905=CIRCLE('',#980,2.);
#906=CIRCLE('',#981,2.);
#907=CIRCLE('',#983,40.);
#908=CIRCLE('',#984,40.);
#909=CIRCLE('',#986,2.);
#910=CIRCLE('',#987,2.);
#911=CIRCLE('',#989,1.65);
#912=CIRCLE('',#990,1.65);
#913=CIRCLE('',#991,1.65);
#914=CIRCLE('',#992,1.65);
#915=CIRCLE('',#993,5.);
#916=CIRCLE('',#994,5.);
#917=CIRCLE('',#995,5.);
#918=CIRCLE('',#996,5.);
#919=CIRCLE('',#997,11.);
#920=CIRCLE('',#999,3.);
#921=CIRCLE('',#1000,3.);
#922=CIRCLE('',#1001,3.);
#923=CIRCLE('',#1002,2.99999999999999);
#924=CIRCLE('',#1003,5.);
#925=CIRCLE('',#1004,5.);
#926=CIRCLE('',#1005,5.);
#927=CIRCLE('',#1006,5.);
#928=CIRCLE('',#1008,4.);
#929=CIRCLE('',#1010,4.);
#930=CIRCLE('',#1012,6.5);
#931=CIRCLE('',#1014,6.5);
#932=CIRCLE('',#1023,2.99999999999999);
#933=CIRCLE('',#1026,3.);
#934=CIRCLE('',#1029,3.);
#935=CIRCLE('',#1032,3.);
#936=CIRCLE('',#1034,20.5);
#937=CIRCLE('',#1036,11.);
#938=CIRCLE('',#1039,1.65);
#939=CIRCLE('',#1041,20.5);
#940=CIRCLE('',#1043,2.35);
#941=CIRCLE('',#1044,2.35);
#942=CIRCLE('',#1045,2.35);
#943=CIRCLE('',#1046,2.35);
#944=CIRCLE('',#1049,1.65);
#945=CIRCLE('',#1052,1.65);
#946=CIRCLE('',#1055,1.65);
#947=AXIS2_PLACEMENT_3D('',#1326,#1058,#1059);
#948=AXIS2_PLACEMENT_3D('',#1327,#1060,#1061);
#949=AXIS2_PLACEMENT_3D('',#1329,#1062,#1063);
#950=AXIS2_PLACEMENT_3D('',#1331,#1064,#1065);
#951=AXIS2_PLACEMENT_3D('',#1340,#1070,#1071);
#952=AXIS2_PLACEMENT_3D('',#1341,#1072,#1073);
#953=AXIS2_PLACEMENT_3D('',#1351,#1078,#1079);
#954=AXIS2_PLACEMENT_3D('',#1352,#1080,#1081);
#955=AXIS2_PLACEMENT_3D('',#1357,#1083,#1084);
#956=AXIS2_PLACEMENT_3D('',#1360,#1086,#1087);
#957=AXIS2_PLACEMENT_3D('',#1361,#1088,#1089);
#958=AXIS2_PLACEMENT_3D('',#1371,#1094,#1095);
#959=AXIS2_PLACEMENT_3D('',#1380,#1100,#1101);
#960=AXIS2_PLACEMENT_3D('',#1381,#1102,#1103);
#961=AXIS2_PLACEMENT_3D('',#1385,#1105,#1106);
#962=AXIS2_PLACEMENT_3D('',#1386,#1107,#1108);
#963=AXIS2_PLACEMENT_3D('',#1387,#1109,#1110);
#964=AXIS2_PLACEMENT_3D('',#1394,#1114,#1115);
#965=AXIS2_PLACEMENT_3D('',#1395,#1116,#1117);
#966=AXIS2_PLACEMENT_3D('',#1399,#1119,#1120);
#967=AXIS2_PLACEMENT_3D('',#1400,#1121,#1122);
#968=AXIS2_PLACEMENT_3D('',#1406,#1126,#1127);
#969=AXIS2_PLACEMENT_3D('',#1407,#1128,#1129);
#970=AXIS2_PLACEMENT_3D('',#1411,#1131,#1132);
#971=AXIS2_PLACEMENT_3D('',#1412,#1133,#1134);
#972=AXIS2_PLACEMENT_3D('',#1413,#1135,#1136);
#973=AXIS2_PLACEMENT_3D('',#1420,#1140,#1141);
#974=AXIS2_PLACEMENT_3D('',#1421,#1142,#1143);
#975=AXIS2_PLACEMENT_3D('',#1423,#1144,#1145);
#976=AXIS2_PLACEMENT_3D('',#1425,#1146,#1147);
#977=AXIS2_PLACEMENT_3D('',#1426,#1148,#1149);
#978=AXIS2_PLACEMENT_3D('',#1428,#1150,#1151);
#979=AXIS2_PLACEMENT_3D('',#1430,#1152,#1153);
#980=AXIS2_PLACEMENT_3D('',#1431,#1154,#1155);
#981=AXIS2_PLACEMENT_3D('',#1433,#1156,#1157);
#982=AXIS2_PLACEMENT_3D('',#1435,#1158,#1159);
#983=AXIS2_PLACEMENT_3D('',#1436,#1160,#1161);
#984=AXIS2_PLACEMENT_3D('',#1437,#1162,#1163);
#985=AXIS2_PLACEMENT_3D('',#1438,#1164,#1165);
#986=AXIS2_PLACEMENT_3D('',#1439,#1166,#1167);
#987=AXIS2_PLACEMENT_3D('',#1441,#1168,#1169);
#988=AXIS2_PLACEMENT_3D('',#1443,#1170,#1171);
#989=AXIS2_PLACEMENT_3D('',#1444,#1172,#1173);
#990=AXIS2_PLACEMENT_3D('',#1446,#1174,#1175);
#991=AXIS2_PLACEMENT_3D('',#1448,#1176,#1177);
#992=AXIS2_PLACEMENT_3D('',#1450,#1178,#1179);
#993=AXIS2_PLACEMENT_3D('',#1452,#1180,#1181);
#994=AXIS2_PLACEMENT_3D('',#1453,#1182,#1183);
#995=AXIS2_PLACEMENT_3D('',#1454,#1184,#1185);
#996=AXIS2_PLACEMENT_3D('',#1455,#1186,#1187);
#997=AXIS2_PLACEMENT_3D('',#1456,#1188,#1189);
#998=AXIS2_PLACEMENT_3D('',#1458,#1190,#1191);
#999=AXIS2_PLACEMENT_3D('',#1462,#1193,#1194);
#1000=AXIS2_PLACEMENT_3D('',#1466,#1196,#1197);
#1001=AXIS2_PLACEMENT_3D('',#1470,#1199,#1200);
#1002=AXIS2_PLACEMENT_3D('',#1474,#1202,#1203);
#1003=AXIS2_PLACEMENT_3D('',#1475,#1204,#1205);
#1004=AXIS2_PLACEMENT_3D('',#1476,#1206,#1207);
#1005=AXIS2_PLACEMENT_3D('',#1477,#1208,#1209);
#1006=AXIS2_PLACEMENT_3D('',#1478,#1210,#1211);
#1007=AXIS2_PLACEMENT_3D('',#1479,#1212,#1213);
#1008=AXIS2_PLACEMENT_3D('',#1480,#1214,#1215);
#1009=AXIS2_PLACEMENT_3D('',#1482,#1216,#1217);
#1010=AXIS2_PLACEMENT_3D('',#1483,#1218,#1219);
#1011=AXIS2_PLACEMENT_3D('',#1485,#1220,#1221);
#1012=AXIS2_PLACEMENT_3D('',#1486,#1222,#1223);
#1013=AXIS2_PLACEMENT_3D('',#1488,#1224,#1225);
#1014=AXIS2_PLACEMENT_3D('',#1489,#1226,#1227);
#1015=AXIS2_PLACEMENT_3D('',#1491,#1228,#1229);
#1016=AXIS2_PLACEMENT_3D('',#1492,#1230,#1231);
#1017=AXIS2_PLACEMENT_3D('',#1493,#1232,#1233);
#1018=AXIS2_PLACEMENT_3D('',#1494,#1234,#1235);
#1019=AXIS2_PLACEMENT_3D('',#1495,#1236,#1237);
#1020=AXIS2_PLACEMENT_3D('',#1496,#1238,#1239);
#1021=AXIS2_PLACEMENT_3D('',#1497,#1240,#1241);
#1022=AXIS2_PLACEMENT_3D('',#1503,#1245,#1246);
#1023=AXIS2_PLACEMENT_3D('',#1506,#1248,#1249);
#1024=AXIS2_PLACEMENT_3D('',#1507,#1250,#1251);
#1025=AXIS2_PLACEMENT_3D('',#1511,#1254,#1255);
#1026=AXIS2_PLACEMENT_3D('',#1514,#1257,#1258);
#1027=AXIS2_PLACEMENT_3D('',#1515,#1259,#1260);
#1028=AXIS2_PLACEMENT_3D('',#1519,#1263,#1264);
#1029=AXIS2_PLACEMENT_3D('',#1522,#1266,#1267);
#1030=AXIS2_PLACEMENT_3D('',#1523,#1268,#1269);
#1031=AXIS2_PLACEMENT_3D('',#1527,#1272,#1273);
#1032=AXIS2_PLACEMENT_3D('',#1528,#1274,#1275);
#1033=AXIS2_PLACEMENT_3D('',#1529,#1276,#1277);
#1034=AXIS2_PLACEMENT_3D('',#1530,#1278,#1279);
#1035=AXIS2_PLACEMENT_3D('',#1532,#1280,#1281);
#1036=AXIS2_PLACEMENT_3D('',#1533,#1282,#1283);
#1037=AXIS2_PLACEMENT_3D('',#1535,#1284,#1285);
#1038=AXIS2_PLACEMENT_3D('',#1536,#1286,#1287);
#1039=AXIS2_PLACEMENT_3D('',#1537,#1288,#1289);
#1040=AXIS2_PLACEMENT_3D('',#1539,#1290,#1291);
#1041=AXIS2_PLACEMENT_3D('',#1540,#1292,#1293);
#1042=AXIS2_PLACEMENT_3D('',#1542,#1294,#1295);
#1043=AXIS2_PLACEMENT_3D('',#1543,#1296,#1297);
#1044=AXIS2_PLACEMENT_3D('',#1545,#1298,#1299);
#1045=AXIS2_PLACEMENT_3D('',#1547,#1300,#1301);
#1046=AXIS2_PLACEMENT_3D('',#1549,#1302,#1303);
#1047=AXIS2_PLACEMENT_3D('',#1551,#1304,#1305);
#1048=AXIS2_PLACEMENT_3D('',#1552,#1306,#1307);
#1049=AXIS2_PLACEMENT_3D('',#1553,#1308,#1309);
#1050=AXIS2_PLACEMENT_3D('',#1555,#1310,#1311);
#1051=AXIS2_PLACEMENT_3D('',#1556,#1312,#1313);
#1052=AXIS2_PLACEMENT_3D('',#1557,#1314,#1315);
#1053=AXIS2_PLACEMENT_3D('',#1559,#1316,#1317);
#1054=AXIS2_PLACEMENT_3D('',#1560,#1318,#1319);
#1055=AXIS2_PLACEMENT_3D('',#1561,#1320,#1321);
#1056=AXIS2_PLACEMENT_3D('',#1563,#1322,#1323);
#1057=AXIS2_PLACEMENT_3D('',#1564,#1324,#1325);
#1058=DIRECTION('',(0.,0.,1.));
#1059=DIRECTION('',(1.,0.,0.));
#1060=DIRECTION('',(0.,1.,0.));
#1061=DIRECTION('',(0.,0.,1.));
#1062=DIRECTION('',(0.,1.,0.));
#1063=DIRECTION('',(0.,0.,1.));
#1064=DIRECTION('',(0.,-1.,0.));
#1065=DIRECTION('',(1.,0.,0.));
#1066=DIRECTION('',(-1.,0.,0.));
#1067=DIRECTION('',(0.,1.,0.));
#1068=DIRECTION('',(-1.,0.,0.));
#1069=DIRECTION('',(0.,-1.,0.));
#1070=DIRECTION('',(0.,0.,1.));
#1071=DIRECTION('',(1.,0.,0.));
#1072=DIRECTION('',(-1.,0.,-7.30409884621813E-16));
#1073=DIRECTION('',(0.,-1.,0.));
#1074=DIRECTION('',(7.30409884621813E-16,0.,1.));
#1075=DIRECTION('',(0.,1.,0.));
#1076=DIRECTION('',(7.30409884621813E-16,0.,1.));
#1077=DIRECTION('',(0.,-1.,0.));
#1078=DIRECTION('',(1.,0.,-7.30409884621813E-16));
#1079=DIRECTION('',(-7.30318583386236E-16,0.,-1.));
#1080=DIRECTION('',(0.,-1.,0.));
#1081=DIRECTION('',(6.12323399573676E-17,0.,1.));
#1082=DIRECTION('',(0.,1.,0.));
#1083=DIRECTION('',(0.,-1.,0.));
#1084=DIRECTION('',(6.12323399573676E-17,0.,1.));
#1085=DIRECTION('',(0.,-1.,0.));
#1086=DIRECTION('',(0.,-1.,0.));
#1087=DIRECTION('',(1.,0.,0.));
#1088=DIRECTION('',(-1.,0.,-7.30409884621813E-16));
#1089=DIRECTION('',(0.,-1.,0.));
#1090=DIRECTION('',(-7.30409884621813E-16,0.,1.));
#1091=DIRECTION('',(0.,1.,0.));
#1092=DIRECTION('',(-7.30409884621813E-16,0.,1.));
#1093=DIRECTION('',(0.,-1.,0.));
#1094=DIRECTION('',(1.,0.,7.30409884621813E-16));
#1095=DIRECTION('',(7.30318583386236E-16,0.,-1.));
#1096=DIRECTION('',(1.,0.,0.));
#1097=DIRECTION('',(0.,-1.,0.));
#1098=DIRECTION('',(1.,0.,0.));
#1099=DIRECTION('',(0.,-1.,0.));
#1100=DIRECTION('',(0.,0.,-1.));
#1101=DIRECTION('',(-1.,0.,0.));
#1102=DIRECTION('',(0.,1.,0.));
#1103=DIRECTION('',(1.73472347597681E-16,0.,-1.));
#1104=DIRECTION('',(0.,-1.,0.));
#1105=DIRECTION('',(0.,1.,0.));
#1106=DIRECTION('',(1.73472347597681E-16,0.,-1.));
#1107=DIRECTION('',(0.,-1.,0.));
#1108=DIRECTION('',(1.,0.,0.));
#1109=DIRECTION('',(0.234571245641449,0.,0.972098930520047));
#1110=DIRECTION('',(-0.972098930520047,0.,0.234571245641449));
#1111=DIRECTION('',(0.972098930520047,0.,-0.234571245641449));
#1112=DIRECTION('',(0.,-1.,0.));
#1113=DIRECTION('',(0.972098930520047,0.,-0.234571245641449));
#1114=DIRECTION('',(-0.234571245641449,0.,-0.972098930520047));
#1115=DIRECTION('',(-0.972098930520047,0.,0.234571245641449));
#1116=DIRECTION('',(0.,1.,0.));
#1117=DIRECTION('',(0.,0.,-1.));
#1118=DIRECTION('',(0.,-1.,0.));
#1119=DIRECTION('',(0.,1.,0.));
#1120=DIRECTION('',(0.,0.,-1.));
#1121=DIRECTION('',(0.,-1.,0.));
#1122=DIRECTION('',(1.,0.,0.));
#1123=DIRECTION('',(0.,0.,-1.));
#1124=DIRECTION('',(0.,-1.,0.));
#1125=DIRECTION('',(0.,0.,-1.));
#1126=DIRECTION('',(-1.,0.,0.));
#1127=DIRECTION('',(0.,-1.,0.));
#1128=DIRECTION('',(0.,1.,0.));
#1129=DIRECTION('',(0.,0.,1.));
#1130=DIRECTION('',(0.,-1.,0.));
#1131=DIRECTION('',(0.,1.,0.));
#1132=DIRECTION('',(0.,0.,1.));
#1133=DIRECTION('',(0.,-1.,0.));
#1134=DIRECTION('',(1.,0.,0.));
#1135=DIRECTION('',(0.234571245641449,0.,-0.972098930520047));
#1136=DIRECTION('',(-0.972098930520047,0.,-0.234571245641449));
#1137=DIRECTION('',(-0.972098930520047,0.,-0.234571245641449));
#1138=DIRECTION('',(0.,-1.,0.));
#1139=DIRECTION('',(-0.972098930520047,0.,-0.234571245641449));
#1140=DIRECTION('',(-0.234571245641449,0.,0.972098930520047));
#1141=DIRECTION('',(0.972098930520047,0.,0.234571245641449));
#1142=DIRECTION('',(0.,1.,0.));
#1143=DIRECTION('',(0.,0.,0.999999999999999));
#1144=DIRECTION('',(0.,1.,0.));
#1145=DIRECTION('',(0.,0.,1.));
#1146=DIRECTION('',(0.,-1.,0.));
#1147=DIRECTION('',(1.,0.,0.));
#1148=DIRECTION('',(0.,1.,0.));
#1149=DIRECTION('',(0.,0.,0.999999999999999));
#1150=DIRECTION('',(0.,1.,0.));
#1151=DIRECTION('',(0.,0.,1.));
#1152=DIRECTION('',(0.,-1.,0.));
#1153=DIRECTION('',(1.,0.,0.));
#1154=DIRECTION('',(0.,1.,0.));
#1155=DIRECTION('',(0.,0.,1.));
#1156=DIRECTION('',(0.,1.,0.));
#1157=DIRECTION('',(0.,0.,0.999999999999999));
#1158=DIRECTION('',(0.,-1.,0.));
#1159=DIRECTION('',(1.,0.,0.));
#1160=DIRECTION('',(0.,1.,0.));
#1161=DIRECTION('',(-8.67361737988403E-17,0.,1.));
#1162=DIRECTION('',(0.,1.,0.));
#1163=DIRECTION('',(-8.67361737988403E-17,0.,1.));
#1164=DIRECTION('',(0.,-1.,0.));
#1165=DIRECTION('',(1.,0.,0.));
#1166=DIRECTION('',(0.,1.,0.));
#1167=DIRECTION('',(0.,0.,1.));
#1168=DIRECTION('',(0.,1.,0.));
#1169=DIRECTION('',(0.,0.,0.999999999999999));
#1170=DIRECTION('',(0.,-1.,0.));
#1171=DIRECTION('',(1.,0.,0.));
#1172=DIRECTION('',(0.,1.,0.));
#1173=DIRECTION('',(0.999999999999999,0.,0.));
#1174=DIRECTION('',(0.,1.,0.));
#1175=DIRECTION('',(0.999999999999999,0.,0.));
#1176=DIRECTION('',(0.,1.,0.));
#1177=DIRECTION('',(0.999999999999999,0.,0.));
#1178=DIRECTION('',(0.,1.,0.));
#1179=DIRECTION('',(0.999999999999999,0.,0.));
#1180=DIRECTION('',(0.,1.,0.));
#1181=DIRECTION('',(1.,0.,0.));
#1182=DIRECTION('',(0.,1.,0.));
#1183=DIRECTION('',(1.,0.,0.));
#1184=DIRECTION('',(0.,1.,0.));
#1185=DIRECTION('',(1.,0.,0.));
#1186=DIRECTION('',(0.,1.,0.));
#1187=DIRECTION('',(1.,0.,0.));
#1188=DIRECTION('',(0.,1.,0.));
#1189=DIRECTION('',(0.,0.,1.));
#1190=DIRECTION('',(0.,-1.,0.));
#1191=DIRECTION('',(1.,0.,0.));
#1192=DIRECTION('',(1.,0.,0.));
#1193=DIRECTION('',(0.,-1.,0.));
#1194=DIRECTION('',(0.,0.,1.));
#1195=DIRECTION('',(0.,0.,-1.));
#1196=DIRECTION('',(0.,-1.,0.));
#1197=DIRECTION('',(0.,0.,1.));
#1198=DIRECTION('',(-1.,0.,0.));
#1199=DIRECTION('',(0.,-1.,0.));
#1200=DIRECTION('',(0.,0.,1.));
#1201=DIRECTION('',(0.,0.,1.));
#1202=DIRECTION('',(0.,-1.,0.));
#1203=DIRECTION('',(0.,0.,1.));
#1204=DIRECTION('',(0.,-1.,0.));
#1205=DIRECTION('',(1.,0.,0.));
#1206=DIRECTION('',(0.,-1.,0.));
#1207=DIRECTION('',(1.,0.,0.));
#1208=DIRECTION('',(0.,-1.,0.));
#1209=DIRECTION('',(1.,0.,0.));
#1210=DIRECTION('',(0.,-1.,0.));
#1211=DIRECTION('',(1.,0.,0.));
#1212=DIRECTION('',(0.,-1.,0.));
#1213=DIRECTION('',(1.,0.,0.));
#1214=DIRECTION('',(1.,0.,3.46944695195361E-15));
#1215=DIRECTION('',(-3.46944695195361E-15,0.,0.999999999999999));
#1216=DIRECTION('',(-1.,0.,-7.30409884621813E-16));
#1217=DIRECTION('',(0.,0.,1.));
#1218=DIRECTION('',(1.,0.,3.46944695195361E-15));
#1219=DIRECTION('',(-3.46944695195361E-15,0.,0.999999999999999));
#1220=DIRECTION('',(-1.,0.,-7.30409884621813E-16));
#1221=DIRECTION('',(0.,0.,1.));
#1222=DIRECTION('',(-1.,0.,-3.46944695195361E-15));
#1223=DIRECTION('',(3.20256641718795E-15,0.,-1.));
#1224=DIRECTION('',(-1.,0.,-7.30409884621813E-16));
#1225=DIRECTION('',(0.,0.,1.));
#1226=DIRECTION('',(-1.,0.,-3.46944695195361E-15));
#1227=DIRECTION('',(3.20256641718795E-15,0.,-1.));
#1228=DIRECTION('',(-1.,0.,-7.30409884621813E-16));
#1229=DIRECTION('',(0.,0.,1.));
#1230=DIRECTION('',(1.,0.,3.46944695195361E-15));
#1231=DIRECTION('',(3.42937599728988E-15,0.,-1.));
#1232=DIRECTION('',(1.,0.,3.46944695195361E-15));
#1233=DIRECTION('',(3.44536376417701E-15,0.,-1.));
#1234=DIRECTION('',(0.,-1.,0.));
#1235=DIRECTION('',(1.,0.,0.));
#1236=DIRECTION('',(0.,-1.,0.));
#1237=DIRECTION('',(1.,0.,0.));
#1238=DIRECTION('',(0.,-1.,0.));
#1239=DIRECTION('',(1.,0.,0.));
#1240=DIRECTION('',(0.,-1.,0.));
#1241=DIRECTION('',(1.,0.,0.));
#1242=DIRECTION('',(0.,1.,0.));
#1243=DIRECTION('',(-1.,0.,0.));
#1244=DIRECTION('',(0.,1.,0.));
#1245=DIRECTION('',(0.,0.,-1.));
#1246=DIRECTION('',(-1.,0.,0.));
#1247=DIRECTION('',(0.,1.,0.));
#1248=DIRECTION('',(0.,1.,0.));
#1249=DIRECTION('',(0.,0.,1.));
#1250=DIRECTION('',(0.,-1.,0.));
#1251=DIRECTION('',(1.,0.,0.));
#1252=DIRECTION('',(0.,1.,0.));
#1253=DIRECTION('',(0.,0.,-1.));
#1254=DIRECTION('',(1.,0.,0.));
#1255=DIRECTION('',(0.,1.,0.));
#1256=DIRECTION('',(0.,1.,0.));
#1257=DIRECTION('',(0.,1.,0.));
#1258=DIRECTION('',(0.,0.,1.));
#1259=DIRECTION('',(0.,-1.,0.));
#1260=DIRECTION('',(1.,0.,0.));
#1261=DIRECTION('',(0.,1.,0.));
#1262=DIRECTION('',(1.,0.,0.));
#1263=DIRECTION('',(0.,0.,1.));
#1264=DIRECTION('',(1.,0.,0.));
#1265=DIRECTION('',(0.,1.,0.));
#1266=DIRECTION('',(0.,1.,0.));
#1267=DIRECTION('',(0.,0.,1.));
#1268=DIRECTION('',(0.,-1.,0.));
#1269=DIRECTION('',(1.,0.,0.));
#1270=DIRECTION('',(0.,1.,0.));
#1271=DIRECTION('',(0.,0.,1.));
#1272=DIRECTION('',(-1.,0.,0.));
#1273=DIRECTION('',(0.,-1.,0.));
#1274=DIRECTION('',(0.,1.,0.));
#1275=DIRECTION('',(0.,0.,1.));
#1276=DIRECTION('',(0.,-1.,0.));
#1277=DIRECTION('',(1.,0.,0.));
#1278=DIRECTION('',(0.,1.,0.));
#1279=DIRECTION('',(1.,0.,0.));
#1280=DIRECTION('',(0.,-1.,0.));
#1281=DIRECTION('',(1.,0.,0.));
#1282=DIRECTION('',(0.,1.,0.));
#1283=DIRECTION('',(0.,0.,1.));
#1284=DIRECTION('',(0.,1.,0.));
#1285=DIRECTION('',(-1.,0.,0.));
#1286=DIRECTION('',(0.,1.,0.));
#1287=DIRECTION('',(-1.,0.,0.));
#1288=DIRECTION('',(0.,-1.,0.));
#1289=DIRECTION('',(-0.999999999999999,0.,0.));
#1290=DIRECTION('',(0.,-1.,0.));
#1291=DIRECTION('',(0.999999999999999,0.,0.));
#1292=DIRECTION('',(0.,-1.,0.));
#1293=DIRECTION('',(0.,0.,1.));
#1294=DIRECTION('',(0.,-1.,0.));
#1295=DIRECTION('',(1.,0.,0.));
#1296=DIRECTION('',(0.,1.,0.));
#1297=DIRECTION('',(-1.,0.,0.));
#1298=DIRECTION('',(0.,1.,0.));
#1299=DIRECTION('',(-1.,0.,0.));
#1300=DIRECTION('',(0.,1.,0.));
#1301=DIRECTION('',(-1.,0.,0.));
#1302=DIRECTION('',(0.,1.,0.));
#1303=DIRECTION('',(-1.,0.,0.));
#1304=DIRECTION('',(0.,1.,0.));
#1305=DIRECTION('',(-1.,0.,0.));
#1306=DIRECTION('',(0.,-1.,0.));
#1307=DIRECTION('',(1.,-8.30715088012038E-17,0.));
#1308=DIRECTION('',(0.,-1.,0.));
#1309=DIRECTION('',(-0.999999999999999,0.,0.));
#1310=DIRECTION('',(0.,-1.,0.));
#1311=DIRECTION('',(0.999999999999999,0.,0.));
#1312=DIRECTION('',(0.,-1.,0.));
#1313=DIRECTION('',(1.,-8.30715088012038E-17,0.));
#1314=DIRECTION('',(0.,-1.,0.));
#1315=DIRECTION('',(-0.999999999999999,0.,0.));
#1316=DIRECTION('',(0.,-1.,0.));
#1317=DIRECTION('',(0.999999999999999,0.,0.));
#1318=DIRECTION('',(0.,-1.,0.));
#1319=DIRECTION('',(1.,-8.30715088012039E-17,0.));
#1320=DIRECTION('',(0.,-1.,0.));
#1321=DIRECTION('',(-0.999999999999999,0.,0.));
#1322=DIRECTION('',(0.,-1.,0.));
#1323=DIRECTION('',(0.999999999999999,0.,0.));
#1324=DIRECTION('',(0.,-1.,0.));
#1325=DIRECTION('',(1.,-8.30715088012038E-17,0.));
#1326=CARTESIAN_POINT('',(0.,0.,0.));
#1327=CARTESIAN_POINT('',(70.5,-190.,0.));
#1328=CARTESIAN_POINT('',(70.5,-190.,13.));
#1329=CARTESIAN_POINT('',(70.5,-185.,0.));
#1330=CARTESIAN_POINT('',(70.5,-185.,13.));
#1331=CARTESIAN_POINT('',(70.5,-181.,0.));
#1332=CARTESIAN_POINT('',(25.2422012504293,-198.,-48.5803989154981));
#1333=CARTESIAN_POINT('',(25.2422012504293,-198.,-48.5803989154981));
#1334=CARTESIAN_POINT('',(10.,-198.,-48.5803989154981));
#1335=CARTESIAN_POINT('',(10.,-181.,-48.5803989154981));
#1336=CARTESIAN_POINT('',(10.,-181.,-48.5803989154981));
#1337=CARTESIAN_POINT('',(25.2422012504293,-181.,-48.5803989154981));
#1338=CARTESIAN_POINT('',(25.2422012504293,-181.,-48.5803989154981));
#1339=CARTESIAN_POINT('',(25.2422012504293,-181.,-48.5803989154981));
#1340=CARTESIAN_POINT('',(25.2422012504293,-181.,-48.5803989154981));
#1341=CARTESIAN_POINT('',(5.00000000000006,-189.5,-39.0803989154982));
#1342=CARTESIAN_POINT('',(5.00000000000006,-193.5,-39.0803989154982));
#1343=CARTESIAN_POINT('',(5.,-198.,-48.5803989154981));
#1344=CARTESIAN_POINT('',(5.,-198.,-43.5803989154981));
#1345=CARTESIAN_POINT('',(5.00000000000002,-198.,-33.5410196624968));
#1346=CARTESIAN_POINT('',(5.00000000000002,-181.,-33.5410196624968));
#1347=CARTESIAN_POINT('',(5.00000000000002,-181.,-33.5410196624968));
#1348=CARTESIAN_POINT('',(5.,-181.,-48.5803989154981));
#1349=CARTESIAN_POINT('',(5.,-181.,-43.5803989154981));
#1350=CARTESIAN_POINT('',(5.,-181.,-43.5803989154981));
#1351=CARTESIAN_POINT('',(5.,-181.,-48.5803989154981));
#1352=CARTESIAN_POINT('',(1.38777878078145E-14,-198.,0.));
#1353=CARTESIAN_POINT('',(8.57142857142858,-198.,-28.7494454249973));
#1354=CARTESIAN_POINT('',(8.57142857142858,-198.,28.7494454249973));
#1355=CARTESIAN_POINT('',(8.57142857142858,-181.,28.7494454249973));
#1356=CARTESIAN_POINT('',(8.57142857142858,-181.,28.7494454249973));
#1357=CARTESIAN_POINT('',(1.38777878078145E-14,-181.,0.));
#1358=CARTESIAN_POINT('',(8.57142857142858,-181.,-28.7494454249973));
#1359=CARTESIAN_POINT('',(8.57142857142858,-181.,-28.7494454249973));
#1360=CARTESIAN_POINT('',(1.38777878078145E-14,-181.,0.));
#1361=CARTESIAN_POINT('',(5.00000000000003,-189.5,39.0803989154981));
#1362=CARTESIAN_POINT('',(5.00000000000003,-193.5,39.0803989154981));
#1363=CARTESIAN_POINT('',(5.00000000000002,-198.,29.5803989154981));
#1364=CARTESIAN_POINT('',(5.00000000000002,-198.,33.5410196624968));
#1365=CARTESIAN_POINT('',(5.,-198.,43.5803989154981));
#1366=CARTESIAN_POINT('',(5.,-181.,43.5803989154981));
#1367=CARTESIAN_POINT('',(5.,-181.,43.5803989154981));
#1368=CARTESIAN_POINT('',(5.00000000000002,-181.,29.5803989154981));
#1369=CARTESIAN_POINT('',(5.00000000000002,-181.,33.5410196624968));
#1370=CARTESIAN_POINT('',(5.00000000000002,-181.,33.5410196624968));
#1371=CARTESIAN_POINT('',(5.00000000000002,-181.,29.5803989154981));
#1372=CARTESIAN_POINT('',(5.,-181.,48.5803989154981));
#1373=CARTESIAN_POINT('',(10.,-181.,48.5803989154981));
#1374=CARTESIAN_POINT('',(25.2422012504293,-181.,48.5803989154981));
#1375=CARTESIAN_POINT('',(10.,-181.,48.5803989154981));
#1376=CARTESIAN_POINT('',(10.,-198.,48.5803989154981));
#1377=CARTESIAN_POINT('',(5.,-198.,48.5803989154981));
#1378=CARTESIAN_POINT('',(25.2422012504293,-198.,48.5803989154981));
#1379=CARTESIAN_POINT('',(25.2422012504293,-181.,48.5803989154981));
#1380=CARTESIAN_POINT('',(5.,-181.,48.5803989154981));
#1381=CARTESIAN_POINT('',(25.2422012504293,-198.,8.58039891549808));
#1382=CARTESIAN_POINT('',(34.6250510760872,-198.,47.4643561363));
#1383=CARTESIAN_POINT('',(34.6250510760872,-181.,47.4643561363));
#1384=CARTESIAN_POINT('',(34.6250510760872,-181.,47.4643561363));
#1385=CARTESIAN_POINT('',(25.2422012504293,-181.,8.58039891549808));
#1386=CARTESIAN_POINT('',(25.2422012504293,-181.,8.58039891549808));
#1387=CARTESIAN_POINT('',(69.3694453669586,-189.5,39.0803989154981));
#1388=CARTESIAN_POINT('',(42.4324564316711,-189.5,45.5803989154981));
#1389=CARTESIAN_POINT('',(34.6250510760872,-198.,47.4643561363));
#1390=CARTESIAN_POINT('',(99.3457124564145,-198.,31.8470092983604));
#1391=CARTESIAN_POINT('',(99.3457124564145,-181.,31.8470092983604));
#1392=CARTESIAN_POINT('',(99.3457124564145,-181.,31.8470092983604));
#1393=CARTESIAN_POINT('',(34.6250510760872,-181.,47.4643561363));
#1394=CARTESIAN_POINT('',(34.6250510760872,-181.,47.4643561363));
#1395=CARTESIAN_POINT('',(97.,-198.,22.1260199931599));
#1396=CARTESIAN_POINT('',(107.,-198.,22.1260199931599));
#1397=CARTESIAN_POINT('',(107.,-181.,22.1260199931599));
#1398=CARTESIAN_POINT('',(107.,-181.,22.1260199931599));
#1399=CARTESIAN_POINT('',(97.,-181.,22.1260199931599));
#1400=CARTESIAN_POINT('',(97.,-181.,22.1260199931599));
#1401=CARTESIAN_POINT('',(107.,-198.,0.));
#1402=CARTESIAN_POINT('',(107.,-198.,-22.1260199931599));
#1403=CARTESIAN_POINT('',(107.,-181.,-22.1260199931599));
#1404=CARTESIAN_POINT('',(107.,-181.,-22.1260199931599));
#1405=CARTESIAN_POINT('',(107.,-181.,22.1260199931599));
#1406=CARTESIAN_POINT('',(107.,-181.,0.));
#1407=CARTESIAN_POINT('',(97.,-198.,-22.1260199931599));
#1408=CARTESIAN_POINT('',(99.3457124564145,-198.,-31.8470092983604));
#1409=CARTESIAN_POINT('',(99.3457124564145,-181.,-31.8470092983604));
#1410=CARTESIAN_POINT('',(99.3457124564145,-181.,-31.8470092983604));
#1411=CARTESIAN_POINT('',(97.,-181.,-22.1260199931599));
#1412=CARTESIAN_POINT('',(97.,-181.,-22.1260199931599));
#1413=CARTESIAN_POINT('',(69.3694453669585,-189.5,-39.0803989154981));
#1414=CARTESIAN_POINT('',(42.4324564316709,-189.5,-45.5803989154982));
#1415=CARTESIAN_POINT('',(99.3457124564145,-198.,-31.8470092983604));
#1416=CARTESIAN_POINT('',(34.6250510760873,-198.,-47.4643561363));
#1417=CARTESIAN_POINT('',(34.6250510760873,-181.,-47.4643561363));
#1418=CARTESIAN_POINT('',(34.6250510760873,-181.,-47.4643561363));
#1419=CARTESIAN_POINT('',(99.3457124564145,-181.,-31.8470092983604));
#1420=CARTESIAN_POINT('',(99.3457124564145,-181.,-31.8470092983604));
#1421=CARTESIAN_POINT('',(46.93,-193.,23.57));
#1422=CARTESIAN_POINT('',(46.93,-193.,25.57));
#1423=CARTESIAN_POINT('',(46.93,-181.,23.57));
#1424=CARTESIAN_POINT('',(46.93,-181.,25.57));
#1425=CARTESIAN_POINT('',(46.93,-181.,23.57));
#1426=CARTESIAN_POINT('',(94.07,-193.,-23.57));
#1427=CARTESIAN_POINT('',(94.07,-193.,-21.57));
#1428=CARTESIAN_POINT('',(94.07,-181.,-23.57));
#1429=CARTESIAN_POINT('',(94.07,-181.,-21.57));
#1430=CARTESIAN_POINT('',(94.07,-181.,-23.57));
#1431=CARTESIAN_POINT('',(46.93,-193.,-23.57));
#1432=CARTESIAN_POINT('',(46.93,-193.,-21.57));
#1433=CARTESIAN_POINT('',(46.93,-181.,-23.57));
#1434=CARTESIAN_POINT('',(46.93,-181.,-21.57));
#1435=CARTESIAN_POINT('',(46.93,-181.,-23.57));
#1436=CARTESIAN_POINT('',(25.2422012504293,-198.,-8.58039891549808));
#1437=CARTESIAN_POINT('',(25.2422012504293,-181.,-8.58039891549808));
#1438=CARTESIAN_POINT('',(25.2422012504293,-181.,-8.58039891549808));
#1439=CARTESIAN_POINT('',(94.07,-193.,23.57));
#1440=CARTESIAN_POINT('',(94.07,-193.,25.57));
#1441=CARTESIAN_POINT('',(94.07,-181.,23.57));
#1442=CARTESIAN_POINT('',(94.07,-181.,25.57));
#1443=CARTESIAN_POINT('',(94.07,-181.,23.57));
#1444=CARTESIAN_POINT('',(70.5,-181.,16.));
#1445=CARTESIAN_POINT('',(72.1499999999999,-181.,16.));
#1446=CARTESIAN_POINT('',(54.5,-181.,0.));
#1447=CARTESIAN_POINT('',(56.15,-181.,0.));
#1448=CARTESIAN_POINT('',(70.5,-181.,-16.));
#1449=CARTESIAN_POINT('',(72.15,-181.,-16.));
#1450=CARTESIAN_POINT('',(86.5,-181.,0.));
#1451=CARTESIAN_POINT('',(88.15,-181.,0.));
#1452=CARTESIAN_POINT('',(10.,-181.,43.5803989154981));
#1453=CARTESIAN_POINT('',(10.,-181.,-43.5803989154981));
#1454=CARTESIAN_POINT('',(10.,-181.,-33.5410196624969));
#1455=CARTESIAN_POINT('',(10.,-181.,33.5410196624969));
#1456=CARTESIAN_POINT('',(70.5,-181.,0.));
#1457=CARTESIAN_POINT('',(70.5,-181.,11.));
#1458=CARTESIAN_POINT('',(1.38777878078145E-14,-181.,0.));
#1459=CARTESIAN_POINT('',(45.,-198.,-28.5));
#1460=CARTESIAN_POINT('',(45.,-198.,-28.5));
#1461=CARTESIAN_POINT('',(96.,-198.,-28.5));
#1462=CARTESIAN_POINT('',(45.,-198.,-25.5));
#1463=CARTESIAN_POINT('',(42.,-198.,-25.5));
#1464=CARTESIAN_POINT('',(42.,-198.,25.5));
#1465=CARTESIAN_POINT('',(42.,-198.,25.5));
#1466=CARTESIAN_POINT('',(45.,-198.,25.5));
#1467=CARTESIAN_POINT('',(45.,-198.,28.5));
#1468=CARTESIAN_POINT('',(96.,-198.,28.5));
#1469=CARTESIAN_POINT('',(96.,-198.,28.5));
#1470=CARTESIAN_POINT('',(96.,-198.,25.5));
#1471=CARTESIAN_POINT('',(99.,-198.,25.5));
#1472=CARTESIAN_POINT('',(99.,-198.,-25.5));
#1473=CARTESIAN_POINT('',(99.,-198.,-25.5));
#1474=CARTESIAN_POINT('',(96.,-198.,-25.5));
#1475=CARTESIAN_POINT('',(10.,-198.,43.5803989154981));
#1476=CARTESIAN_POINT('',(10.,-198.,33.5410196624969));
#1477=CARTESIAN_POINT('',(10.,-198.,-33.5410196624969));
#1478=CARTESIAN_POINT('',(10.,-198.,-43.5803989154981));
#1479=CARTESIAN_POINT('',(1.38777878078145E-14,-198.,0.));
#1480=CARTESIAN_POINT('',(16.0000000000001,-189.5,-39.0803989154982));
#1481=CARTESIAN_POINT('',(16.,-189.5,-35.0803989154982));
#1482=CARTESIAN_POINT('',(117.2,-189.5,-39.0803989154981));
#1483=CARTESIAN_POINT('',(16.,-189.5,39.0803989154981));
#1484=CARTESIAN_POINT('',(16.,-189.5,43.0803989154981));
#1485=CARTESIAN_POINT('',(117.2,-189.5,39.0803989154982));
#1486=CARTESIAN_POINT('',(17.4433756729741,-189.5,-39.0803989154982));
#1487=CARTESIAN_POINT('',(17.4433756729741,-189.5,-45.5803989154982));
#1488=CARTESIAN_POINT('',(117.2,-189.5,-39.0803989154981));
#1489=CARTESIAN_POINT('',(17.4433756729741,-189.5,39.0803989154981));
#1490=CARTESIAN_POINT('',(17.4433756729741,-189.5,32.5803989154981));
#1491=CARTESIAN_POINT('',(117.2,-189.5,39.0803989154982));
#1492=CARTESIAN_POINT('',(16.0000000000001,-189.5,-39.0803989154982));
#1493=CARTESIAN_POINT('',(16.,-189.5,39.0803989154981));
#1494=CARTESIAN_POINT('',(10.,-181.,43.5803989154981));
#1495=CARTESIAN_POINT('',(10.,-181.,33.5410196624969));
#1496=CARTESIAN_POINT('',(10.,-181.,-33.5410196624969));
#1497=CARTESIAN_POINT('',(10.,-181.,-43.5803989154981));
#1498=CARTESIAN_POINT('',(96.,-193.,-28.5));
#1499=CARTESIAN_POINT('',(96.,-193.,-28.5));
#1500=CARTESIAN_POINT('',(45.,-193.,-28.5));
#1501=CARTESIAN_POINT('',(45.,-193.,-28.5));
#1502=CARTESIAN_POINT('',(45.,-193.,-28.5));
#1503=CARTESIAN_POINT('',(45.,-193.,-28.5));
#1504=CARTESIAN_POINT('',(99.,-193.,-25.5));
#1505=CARTESIAN_POINT('',(99.,-193.,-25.5));
#1506=CARTESIAN_POINT('',(96.,-193.,-25.5));
#1507=CARTESIAN_POINT('',(96.,-193.,-25.5));
#1508=CARTESIAN_POINT('',(99.,-193.,25.5));
#1509=CARTESIAN_POINT('',(99.,-193.,25.5));
#1510=CARTESIAN_POINT('',(99.,-193.,-25.5));
#1511=CARTESIAN_POINT('',(99.,-193.,-25.5));
#1512=CARTESIAN_POINT('',(96.,-193.,28.5));
#1513=CARTESIAN_POINT('',(96.,-193.,28.5));
#1514=CARTESIAN_POINT('',(96.,-193.,25.5));
#1515=CARTESIAN_POINT('',(96.,-193.,25.5));
#1516=CARTESIAN_POINT('',(45.,-193.,28.5));
#1517=CARTESIAN_POINT('',(45.,-193.,28.5));
#1518=CARTESIAN_POINT('',(96.,-193.,28.5));
#1519=CARTESIAN_POINT('',(96.,-193.,28.5));
#1520=CARTESIAN_POINT('',(42.,-193.,25.5));
#1521=CARTESIAN_POINT('',(42.,-193.,25.5));
#1522=CARTESIAN_POINT('',(45.,-193.,25.5));
#1523=CARTESIAN_POINT('',(45.,-193.,25.5));
#1524=CARTESIAN_POINT('',(42.,-193.,-25.5));
#1525=CARTESIAN_POINT('',(42.,-193.,-25.5));
#1526=CARTESIAN_POINT('',(42.,-193.,25.5));
#1527=CARTESIAN_POINT('',(42.,-193.,25.5));
#1528=CARTESIAN_POINT('',(45.,-193.,-25.5));
#1529=CARTESIAN_POINT('',(45.,-193.,-25.5));
#1530=CARTESIAN_POINT('',(70.5,-193.,0.));
#1531=CARTESIAN_POINT('',(91.,-193.,0.));
#1532=CARTESIAN_POINT('',(96.,-193.,-25.5));
#1533=CARTESIAN_POINT('',(70.5,-185.,0.));
#1534=CARTESIAN_POINT('',(70.5,-185.,11.));
#1535=CARTESIAN_POINT('',(70.5,-185.,0.));
#1536=CARTESIAN_POINT('',(70.5,-185.,0.));
#1537=CARTESIAN_POINT('',(86.5,-189.3,0.));
#1538=CARTESIAN_POINT('',(84.85,-189.3,0.));
#1539=CARTESIAN_POINT('',(86.5,-176.5,0.));
#1540=CARTESIAN_POINT('',(70.5,-190.,0.));
#1541=CARTESIAN_POINT('',(70.5,-190.,20.5));
#1542=CARTESIAN_POINT('',(70.5,-190.,0.));
#1543=CARTESIAN_POINT('',(70.5,-190.,16.));
#1544=CARTESIAN_POINT('',(68.1499999999999,-190.,16.));
#1545=CARTESIAN_POINT('',(54.5,-190.,0.));
#1546=CARTESIAN_POINT('',(52.15,-190.,0.));
#1547=CARTESIAN_POINT('',(70.5,-190.,-16.));
#1548=CARTESIAN_POINT('',(68.15,-190.,-16.));
#1549=CARTESIAN_POINT('',(86.5,-190.,0.));
#1550=CARTESIAN_POINT('',(84.15,-190.,0.));
#1551=CARTESIAN_POINT('',(78.5,-190.,0.));
#1552=CARTESIAN_POINT('',(86.5,-190.,0.));
#1553=CARTESIAN_POINT('',(70.5,-189.3,-16.));
#1554=CARTESIAN_POINT('',(68.85,-189.3,-16.));
#1555=CARTESIAN_POINT('',(70.5,-176.5,-16.));
#1556=CARTESIAN_POINT('',(70.5,-190.,-16.));
#1557=CARTESIAN_POINT('',(54.5,-189.3,0.));
#1558=CARTESIAN_POINT('',(52.85,-189.3,0.));
#1559=CARTESIAN_POINT('',(54.5,-176.5,0.));
#1560=CARTESIAN_POINT('',(54.5,-190.,0.));
#1561=CARTESIAN_POINT('',(70.5,-189.3,16.));
#1562=CARTESIAN_POINT('',(68.85,-189.3,16.));
#1563=CARTESIAN_POINT('',(70.5,-176.5,16.));
#1564=CARTESIAN_POINT('',(70.5,-190.,16.));
#1565=(
GEOMETRIC_REPRESENTATION_CONTEXT(3)
GLOBAL_UNCERTAINTY_ASSIGNED_CONTEXT((#1566))
GLOBAL_UNIT_ASSIGNED_CONTEXT((#1572,#1568,#1567))
REPRESENTATION_CONTEXT('\X2\041A04400435043F043B0435043D04380435\X0\',
'TOP_LEVEL_ASSEMBLY_PART')
);
#1566=UNCERTAINTY_MEASURE_WITH_UNIT(LENGTH_MEASURE(2.E-5),#1572,
'DISTANCE_ACCURACY_VALUE','Maximum Tolerance applied to model');
#1567=(
NAMED_UNIT(*)
SI_UNIT($,.STERADIAN.)
SOLID_ANGLE_UNIT()
);
#1568=(
CONVERSION_BASED_UNIT('DEGREE',#1570)
NAMED_UNIT(#1569)
PLANE_ANGLE_UNIT()
);
#1569=DIMENSIONAL_EXPONENTS(0.,0.,0.,0.,0.,0.,0.);
#1570=PLANE_ANGLE_MEASURE_WITH_UNIT(PLANE_ANGLE_MEASURE(0.0174532925),#1571);
#1571=(
NAMED_UNIT(*)
PLANE_ANGLE_UNIT()
SI_UNIT($,.RADIAN.)
);
#1572=(
LENGTH_UNIT()
NAMED_UNIT(*)
SI_UNIT(.MILLI.,.METRE.)
);
ENDSEC;
END-ISO-10303-21;
