ISO-10303-21;
HEADER;
/* Generated by software containing ST-Developer
 * from STEP Tools, Inc. (www.steptools.com) 
 */
/* OPTION: using custom schema-name function */

FILE_DESCRIPTION(
/* description */ (''),
/* implementation_level */ '2;1');

FILE_NAME(
/* name */ '\X2\041A04400435043F043B0435043D04380435\X0\5.stp',
/* time_stamp */ '2026-06-25T22:04:50+03:00',
/* author */ (''),
/* organization */ (''),
/* preprocessor_version */ 'ST-DEVELOPER v16',
/* originating_system */ 'SIEMENS PLM Software NX 10.0',
/* authorisation */ '');

FILE_SCHEMA (('AP203_CONFIGURATION_CONTROLLED_3D_DESIGN_OF_MECHANICAL_PARTS_AND_ASSEMBLIES_MIM_LF { 1 0 10303 403 2 1 2}'));
ENDSEC;

DATA;
#10=PROPERTY_DEFINITION_REPRESENTATION(#14,#12);
#11=PROPERTY_DEFINITION_REPRESENTATION(#15,#13);
#12=REPRESENTATION('',(#16),#685);
#13=REPRESENTATION('',(#17),#685);
#14=PROPERTY_DEFINITION('pmi validation property','',#89);
#15=PROPERTY_DEFINITION('pmi validation property','',#89);
#16=VALUE_REPRESENTATION_ITEM('number of annotations',COUNT_MEASURE(0.));
#17=VALUE_REPRESENTATION_ITEM('number of views',COUNT_MEASURE(0.));
#18=SHAPE_REPRESENTATION_RELATIONSHIP('None',
'relationship between Hi6C8432B1731j-None and Hi6C8432B1731j-None',#100,
#19);
#19=ADVANCED_BREP_SHAPE_REPRESENTATION('Hi6C8432B1731j-None',(#101),#685);
#20=CC_DESIGN_APPROVAL(#32,(#90));
#21=CC_DESIGN_APPROVAL(#33,(#92));
#22=CC_DESIGN_APPROVAL(#34,(#39));
#23=APPROVAL_PERSON_ORGANIZATION(#77,#32,#26);
#24=APPROVAL_PERSON_ORGANIZATION(#78,#33,#27);
#25=APPROVAL_PERSON_ORGANIZATION(#79,#34,#28);
#26=APPROVAL_ROLE('approver');
#27=APPROVAL_ROLE('approver');
#28=APPROVAL_ROLE('approver');
#29=APPROVAL_DATE_TIME(#47,#32);
#30=APPROVAL_DATE_TIME(#48,#33);
#31=APPROVAL_DATE_TIME(#49,#34);
#32=APPROVAL(#35,' ');
#33=APPROVAL(#36,' ');
#34=APPROVAL(#37,' ');
#35=APPROVAL_STATUS('not_yet_approved');
#36=APPROVAL_STATUS('not_yet_approved');
#37=APPROVAL_STATUS('not_yet_approved');
#38=CC_DESIGN_SECURITY_CLASSIFICATION(#39,(#92));
#39=SECURITY_CLASSIFICATION(' ',' ',#40);
#40=SECURITY_CLASSIFICATION_LEVEL('confidential');
#41=CC_DESIGN_DATE_AND_TIME_ASSIGNMENT(#45,#43,(#90));
#42=CC_DESIGN_DATE_AND_TIME_ASSIGNMENT(#46,#44,(#39));
#43=DATE_TIME_ROLE('creation_date');
#44=DATE_TIME_ROLE('classification_date');
#45=DATE_AND_TIME(#60,#50);
#46=DATE_AND_TIME(#61,#51);
#47=DATE_AND_TIME(#62,#52);
#48=DATE_AND_TIME(#63,#53);
#49=DATE_AND_TIME(#64,#54);
#50=LOCAL_TIME(0,0,0.,#55);
#51=LOCAL_TIME(0,0,0.,#56);
#52=LOCAL_TIME(0,0,0.,#57);
#53=LOCAL_TIME(0,0,0.,#58);
#54=LOCAL_TIME(0,0,0.,#59);
#55=COORDINATED_UNIVERSAL_TIME_OFFSET(0,0,.BEHIND.);
#56=COORDINATED_UNIVERSAL_TIME_OFFSET(0,0,.BEHIND.);
#57=COORDINATED_UNIVERSAL_TIME_OFFSET(0,0,.BEHIND.);
#58=COORDINATED_UNIVERSAL_TIME_OFFSET(0,0,.BEHIND.);
#59=COORDINATED_UNIVERSAL_TIME_OFFSET(0,0,.BEHIND.);
#60=CALENDAR_DATE(0,1,1);
#61=CALENDAR_DATE(0,1,1);
#62=CALENDAR_DATE(0,1,1);
#63=CALENDAR_DATE(0,1,1);
#64=CALENDAR_DATE(0,1,1);
#65=CC_DESIGN_PERSON_AND_ORGANIZATION_ASSIGNMENT(#73,#69,(#90,#92));
#66=CC_DESIGN_PERSON_AND_ORGANIZATION_ASSIGNMENT(#74,#70,(#94));
#67=CC_DESIGN_PERSON_AND_ORGANIZATION_ASSIGNMENT(#75,#71,(#92));
#68=CC_DESIGN_PERSON_AND_ORGANIZATION_ASSIGNMENT(#76,#72,(#39));
#69=PERSON_AND_ORGANIZATION_ROLE('creator');
#70=PERSON_AND_ORGANIZATION_ROLE('design_owner');
#71=PERSON_AND_ORGANIZATION_ROLE('design_supplier');
#72=PERSON_AND_ORGANIZATION_ROLE('classification_officer');
#73=PERSON_AND_ORGANIZATION(#87,#80);
#74=PERSON_AND_ORGANIZATION(#87,#81);
#75=PERSON_AND_ORGANIZATION(#87,#82);
#76=PERSON_AND_ORGANIZATION(#87,#83);
#77=PERSON_AND_ORGANIZATION(#87,#84);
#78=PERSON_AND_ORGANIZATION(#87,#85);
#79=PERSON_AND_ORGANIZATION(#87,#86);
#80=ORGANIZATION(' ',' ',' ');
#81=ORGANIZATION(' ',' ',' ');
#82=ORGANIZATION(' ',' ',' ');
#83=ORGANIZATION(' ',' ',' ');
#84=ORGANIZATION(' ',' ',' ');
#85=ORGANIZATION(' ',' ',' ');
#86=ORGANIZATION(' ',' ',' ');
#87=PERSON(' ',' ',' ',(' '),$,$);
#88=SHAPE_DEFINITION_REPRESENTATION(#89,#100);
#89=PRODUCT_DEFINITION_SHAPE('','',#90);
#90=PRODUCT_DEFINITION(' ','',#92,#91);
#91=DESIGN_CONTEXT('',#99,'design');
#92=PRODUCT_DEFINITION_FORMATION_WITH_SPECIFIED_SOURCE(' ',' ',#94,
 .NOT_KNOWN.);
#93=PRODUCT_RELATED_PRODUCT_CATEGORY('detail','',(#94));
#94=PRODUCT('Hi6C8432B1731j','Hi6C8432B1731j',' ',(#97));
#95=PRODUCT_CATEGORY('part',' ');
#96=PRODUCT_CATEGORY(' ','');
#97=MECHANICAL_CONTEXT(' ',#99,'mechanical');
#98=APPLICATION_PROTOCOL_DEFINITION('international standard',
'config_control_design',2010,#99);
#99=APPLICATION_CONTEXT(
'configuration controlled 3D designs of mechanical parts and assemblie
s');
#100=SHAPE_REPRESENTATION('Hi6C8432B1731j-None',(#437),#685);
#101=MANIFOLD_SOLID_BREP('',#102);
#102=CLOSED_SHELL('',(#154,#155,#156,#157,#158,#159,#160,#161,#162,#163,
#164,#165,#166,#167,#168,#169,#170,#171,#172,#173,#174));
#103=CONICAL_SURFACE('',#474,3.,45.);
#104=CONICAL_SURFACE('',#475,3.,45.);
#105=CONICAL_SURFACE('',#476,3.,45.);
#106=CONICAL_SURFACE('',#477,3.,45.);
#107=PLANE('',#441);
#108=PLANE('',#442);
#109=PLANE('',#446);
#110=PLANE('',#450);
#111=PLANE('',#470);
#112=PLANE('',#473);
#113=PLANE('',#480);
#114=FACE_OUTER_BOUND('',#221,.T.);
#115=FACE_OUTER_BOUND('',#222,.T.);
#116=FACE_OUTER_BOUND('',#223,.T.);
#117=FACE_OUTER_BOUND('',#224,.T.);
#118=FACE_OUTER_BOUND('',#225,.T.);
#119=FACE_OUTER_BOUND('',#226,.T.);
#120=FACE_OUTER_BOUND('',#259,.T.);
#121=FACE_OUTER_BOUND('',#260,.T.);
#122=LINE('',#597,#138);
#123=LINE('',#600,#139);
#124=LINE('',#602,#140);
#125=LINE('',#604,#141);
#126=LINE('',#606,#142);
#127=LINE('',#609,#143);
#128=LINE('',#611,#144);
#129=LINE('',#613,#145);
#130=LINE('',#617,#146);
#131=LINE('',#621,#147);
#132=LINE('',#623,#148);
#133=LINE('',#625,#149);
#134=LINE('',#629,#150);
#135=LINE('',#633,#151);
#136=LINE('',#635,#152);
#137=LINE('',#637,#153);
#138=VECTOR('',#491,1.);
#139=VECTOR('',#492,1.);
#140=VECTOR('',#493,1.);
#141=VECTOR('',#494,1.);
#142=VECTOR('',#497,1.);
#143=VECTOR('',#498,1.);
#144=VECTOR('',#499,1.);
#145=VECTOR('',#500,1.);
#146=VECTOR('',#505,1.);
#147=VECTOR('',#510,1.);
#148=VECTOR('',#511,1.);
#149=VECTOR('',#512,1.);
#150=VECTOR('',#517,1.);
#151=VECTOR('',#522,1.);
#152=VECTOR('',#523,1.);
#153=VECTOR('',#524,1.);
#154=ADVANCED_FACE('',(#185,#186),#175,.F.);
#155=ADVANCED_FACE('',(#114),#107,.F.);
#156=ADVANCED_FACE('',(#115),#108,.F.);
#157=ADVANCED_FACE('',(#116),#176,.T.);
#158=ADVANCED_FACE('',(#117),#109,.F.);
#159=ADVANCED_FACE('',(#118),#177,.T.);
#160=ADVANCED_FACE('',(#119),#110,.F.);
#161=ADVANCED_FACE('',(#187,#188),#178,.F.);
#162=ADVANCED_FACE('',(#189,#190),#179,.F.);
#163=ADVANCED_FACE('',(#191,#192),#180,.F.);
#164=ADVANCED_FACE('',(#193,#194),#181,.F.);
#165=ADVANCED_FACE('',(#195,#196,#197,#198,#199,#200),#111,.T.);
#166=ADVANCED_FACE('',(#201,#202,#203,#204,#205,#206),#112,.F.);
#167=ADVANCED_FACE('',(#207,#208),#103,.F.);
#168=ADVANCED_FACE('',(#209,#210),#104,.F.);
#169=ADVANCED_FACE('',(#211,#212),#105,.F.);
#170=ADVANCED_FACE('',(#213,#214),#106,.F.);
#171=ADVANCED_FACE('',(#215,#216),#182,.F.);
#172=ADVANCED_FACE('',(#217,#218),#113,.F.);
#173=ADVANCED_FACE('',(#120),#183,.T.);
#174=ADVANCED_FACE('',(#121),#184,.T.);
#175=CYLINDRICAL_SURFACE('',#440,26.);
#176=CYLINDRICAL_SURFACE('',#445,10.);
#177=CYLINDRICAL_SURFACE('',#449,10.);
#178=CYLINDRICAL_SURFACE('',#453,3.);
#179=CYLINDRICAL_SURFACE('',#456,3.);
#180=CYLINDRICAL_SURFACE('',#459,3.);
#181=CYLINDRICAL_SURFACE('',#462,3.);
#182=CYLINDRICAL_SURFACE('',#479,20.5);
#183=CYLINDRICAL_SURFACE('',#481,20.);
#184=CYLINDRICAL_SURFACE('',#482,20.);
#185=FACE_BOUND('',#219,.T.);
#186=FACE_BOUND('',#220,.T.);
#187=FACE_BOUND('',#227,.T.);
#188=FACE_BOUND('',#228,.T.);
#189=FACE_BOUND('',#229,.T.);
#190=FACE_BOUND('',#230,.T.);
#191=FACE_BOUND('',#231,.T.);
#192=FACE_BOUND('',#232,.T.);
#193=FACE_BOUND('',#233,.T.);
#194=FACE_BOUND('',#234,.T.);
#195=FACE_BOUND('',#235,.T.);
#196=FACE_BOUND('',#236,.T.);
#197=FACE_BOUND('',#237,.T.);
#198=FACE_BOUND('',#238,.T.);
#199=FACE_BOUND('',#239,.T.);
#200=FACE_BOUND('',#240,.T.);
#201=FACE_BOUND('',#241,.T.);
#202=FACE_BOUND('',#242,.T.);
#203=FACE_BOUND('',#243,.T.);
#204=FACE_BOUND('',#244,.T.);
#205=FACE_BOUND('',#245,.T.);
#206=FACE_BOUND('',#246,.T.);
#207=FACE_BOUND('',#247,.T.);
#208=FACE_BOUND('',#248,.T.);
#209=FACE_BOUND('',#249,.T.);
#210=FACE_BOUND('',#250,.T.);
#211=FACE_BOUND('',#251,.T.);
#212=FACE_BOUND('',#252,.T.);
#213=FACE_BOUND('',#253,.T.);
#214=FACE_BOUND('',#254,.T.);
#215=FACE_BOUND('',#255,.T.);
#216=FACE_BOUND('',#256,.T.);
#217=FACE_BOUND('',#257,.T.);
#218=FACE_BOUND('',#258,.T.);
#219=EDGE_LOOP('',(#261));
#220=EDGE_LOOP('',(#262));
#221=EDGE_LOOP('',(#263,#264,#265,#266));
#222=EDGE_LOOP('',(#267,#268,#269,#270));
#223=EDGE_LOOP('',(#271,#272,#273,#274));
#224=EDGE_LOOP('',(#275,#276,#277,#278));
#225=EDGE_LOOP('',(#279,#280,#281,#282));
#226=EDGE_LOOP('',(#283,#284,#285,#286));
#227=EDGE_LOOP('',(#287));
#228=EDGE_LOOP('',(#288));
#229=EDGE_LOOP('',(#289));
#230=EDGE_LOOP('',(#290));
#231=EDGE_LOOP('',(#291));
#232=EDGE_LOOP('',(#292));
#233=EDGE_LOOP('',(#293));
#234=EDGE_LOOP('',(#294));
#235=EDGE_LOOP('',(#295));
#236=EDGE_LOOP('',(#296));
#237=EDGE_LOOP('',(#297));
#238=EDGE_LOOP('',(#298));
#239=EDGE_LOOP('',(#299,#300,#301,#302,#303,#304,#305,#306));
#240=EDGE_LOOP('',(#307));
#241=EDGE_LOOP('',(#308,#309,#310,#311,#312,#313,#314,#315));
#242=EDGE_LOOP('',(#316));
#243=EDGE_LOOP('',(#317));
#244=EDGE_LOOP('',(#318));
#245=EDGE_LOOP('',(#319));
#246=EDGE_LOOP('',(#320));
#247=EDGE_LOOP('',(#321));
#248=EDGE_LOOP('',(#322));
#249=EDGE_LOOP('',(#323));
#250=EDGE_LOOP('',(#324));
#251=EDGE_LOOP('',(#325));
#252=EDGE_LOOP('',(#326));
#253=EDGE_LOOP('',(#327));
#254=EDGE_LOOP('',(#328));
#255=EDGE_LOOP('',(#329));
#256=EDGE_LOOP('',(#330));
#257=EDGE_LOOP('',(#331));
#258=EDGE_LOOP('',(#332));
#259=EDGE_LOOP('',(#333,#334,#335,#336));
#260=EDGE_LOOP('',(#337,#338,#339,#340));
#261=ORIENTED_EDGE('',*,*,#373,.F.);
#262=ORIENTED_EDGE('',*,*,#374,.T.);
#263=ORIENTED_EDGE('',*,*,#375,.T.);
#264=ORIENTED_EDGE('',*,*,#376,.T.);
#265=ORIENTED_EDGE('',*,*,#377,.F.);
#266=ORIENTED_EDGE('',*,*,#378,.T.);
#267=ORIENTED_EDGE('',*,*,#379,.F.);
#268=ORIENTED_EDGE('',*,*,#380,.T.);
#269=ORIENTED_EDGE('',*,*,#381,.T.);
#270=ORIENTED_EDGE('',*,*,#382,.F.);
#271=ORIENTED_EDGE('',*,*,#383,.T.);
#272=ORIENTED_EDGE('',*,*,#384,.F.);
#273=ORIENTED_EDGE('',*,*,#385,.F.);
#274=ORIENTED_EDGE('',*,*,#382,.T.);
#275=ORIENTED_EDGE('',*,*,#386,.T.);
#276=ORIENTED_EDGE('',*,*,#387,.F.);
#277=ORIENTED_EDGE('',*,*,#388,.F.);
#278=ORIENTED_EDGE('',*,*,#384,.T.);
#279=ORIENTED_EDGE('',*,*,#389,.T.);
#280=ORIENTED_EDGE('',*,*,#390,.F.);
#281=ORIENTED_EDGE('',*,*,#391,.F.);
#282=ORIENTED_EDGE('',*,*,#387,.T.);
#283=ORIENTED_EDGE('',*,*,#392,.T.);
#284=ORIENTED_EDGE('',*,*,#393,.T.);
#285=ORIENTED_EDGE('',*,*,#394,.F.);
#286=ORIENTED_EDGE('',*,*,#390,.T.);
#287=ORIENTED_EDGE('',*,*,#395,.T.);
#288=ORIENTED_EDGE('',*,*,#396,.F.);
#289=ORIENTED_EDGE('',*,*,#397,.T.);
#290=ORIENTED_EDGE('',*,*,#398,.F.);
#291=ORIENTED_EDGE('',*,*,#399,.T.);
#292=ORIENTED_EDGE('',*,*,#400,.F.);
#293=ORIENTED_EDGE('',*,*,#401,.T.);
#294=ORIENTED_EDGE('',*,*,#402,.F.);
#295=ORIENTED_EDGE('',*,*,#403,.T.);
#296=ORIENTED_EDGE('',*,*,#404,.T.);
#297=ORIENTED_EDGE('',*,*,#405,.T.);
#298=ORIENTED_EDGE('',*,*,#406,.T.);
#299=ORIENTED_EDGE('',*,*,#377,.T.);
#300=ORIENTED_EDGE('',*,*,#407,.T.);
#301=ORIENTED_EDGE('',*,*,#379,.T.);
#302=ORIENTED_EDGE('',*,*,#385,.T.);
#303=ORIENTED_EDGE('',*,*,#388,.T.);
#304=ORIENTED_EDGE('',*,*,#391,.T.);
#305=ORIENTED_EDGE('',*,*,#394,.T.);
#306=ORIENTED_EDGE('',*,*,#408,.T.);
#307=ORIENTED_EDGE('',*,*,#409,.F.);
#308=ORIENTED_EDGE('',*,*,#381,.F.);
#309=ORIENTED_EDGE('',*,*,#410,.T.);
#310=ORIENTED_EDGE('',*,*,#375,.F.);
#311=ORIENTED_EDGE('',*,*,#411,.T.);
#312=ORIENTED_EDGE('',*,*,#392,.F.);
#313=ORIENTED_EDGE('',*,*,#389,.F.);
#314=ORIENTED_EDGE('',*,*,#386,.F.);
#315=ORIENTED_EDGE('',*,*,#383,.F.);
#316=ORIENTED_EDGE('',*,*,#400,.T.);
#317=ORIENTED_EDGE('',*,*,#398,.T.);
#318=ORIENTED_EDGE('',*,*,#373,.T.);
#319=ORIENTED_EDGE('',*,*,#396,.T.);
#320=ORIENTED_EDGE('',*,*,#402,.T.);
#321=ORIENTED_EDGE('',*,*,#403,.F.);
#322=ORIENTED_EDGE('',*,*,#395,.F.);
#323=ORIENTED_EDGE('',*,*,#404,.F.);
#324=ORIENTED_EDGE('',*,*,#401,.F.);
#325=ORIENTED_EDGE('',*,*,#405,.F.);
#326=ORIENTED_EDGE('',*,*,#397,.F.);
#327=ORIENTED_EDGE('',*,*,#406,.F.);
#328=ORIENTED_EDGE('',*,*,#399,.F.);
#329=ORIENTED_EDGE('',*,*,#412,.F.);
#330=ORIENTED_EDGE('',*,*,#409,.T.);
#331=ORIENTED_EDGE('',*,*,#374,.F.);
#332=ORIENTED_EDGE('',*,*,#412,.T.);
#333=ORIENTED_EDGE('',*,*,#407,.F.);
#334=ORIENTED_EDGE('',*,*,#376,.F.);
#335=ORIENTED_EDGE('',*,*,#410,.F.);
#336=ORIENTED_EDGE('',*,*,#380,.F.);
#337=ORIENTED_EDGE('',*,*,#408,.F.);
#338=ORIENTED_EDGE('',*,*,#393,.F.);
#339=ORIENTED_EDGE('',*,*,#411,.F.);
#340=ORIENTED_EDGE('',*,*,#378,.F.);
#341=VERTEX_POINT('',#593);
#342=VERTEX_POINT('',#595);
#343=VERTEX_POINT('',#598);
#344=VERTEX_POINT('',#599);
#345=VERTEX_POINT('',#601);
#346=VERTEX_POINT('',#603);
#347=VERTEX_POINT('',#607);
#348=VERTEX_POINT('',#608);
#349=VERTEX_POINT('',#610);
#350=VERTEX_POINT('',#612);
#351=VERTEX_POINT('',#616);
#352=VERTEX_POINT('',#618);
#353=VERTEX_POINT('',#622);
#354=VERTEX_POINT('',#624);
#355=VERTEX_POINT('',#628);
#356=VERTEX_POINT('',#630);
#357=VERTEX_POINT('',#634);
#358=VERTEX_POINT('',#636);
#359=VERTEX_POINT('',#640);
#360=VERTEX_POINT('',#642);
#361=VERTEX_POINT('',#645);
#362=VERTEX_POINT('',#647);
#363=VERTEX_POINT('',#650);
#364=VERTEX_POINT('',#652);
#365=VERTEX_POINT('',#655);
#366=VERTEX_POINT('',#657);
#367=VERTEX_POINT('',#660);
#368=VERTEX_POINT('',#662);
#369=VERTEX_POINT('',#664);
#370=VERTEX_POINT('',#666);
#371=VERTEX_POINT('',#670);
#372=VERTEX_POINT('',#680);
#373=EDGE_CURVE('',#341,#341,#413,.T.);
#374=EDGE_CURVE('',#342,#342,#414,.T.);
#375=EDGE_CURVE('',#343,#344,#122,.T.);
#376=EDGE_CURVE('',#344,#345,#123,.T.);
#377=EDGE_CURVE('',#346,#345,#124,.T.);
#378=EDGE_CURVE('',#346,#343,#125,.T.);
#379=EDGE_CURVE('',#347,#348,#126,.T.);
#380=EDGE_CURVE('',#347,#349,#127,.T.);
#381=EDGE_CURVE('',#349,#350,#128,.T.);
#382=EDGE_CURVE('',#348,#350,#129,.T.);
#383=EDGE_CURVE('',#350,#351,#415,.T.);
#384=EDGE_CURVE('',#352,#351,#130,.T.);
#385=EDGE_CURVE('',#348,#352,#416,.T.);
#386=EDGE_CURVE('',#351,#353,#131,.T.);
#387=EDGE_CURVE('',#354,#353,#132,.T.);
#388=EDGE_CURVE('',#352,#354,#133,.T.);
#389=EDGE_CURVE('',#353,#355,#417,.T.);
#390=EDGE_CURVE('',#356,#355,#134,.T.);
#391=EDGE_CURVE('',#354,#356,#418,.T.);
#392=EDGE_CURVE('',#355,#357,#135,.T.);
#393=EDGE_CURVE('',#357,#358,#136,.T.);
#394=EDGE_CURVE('',#356,#358,#137,.T.);
#395=EDGE_CURVE('',#359,#359,#419,.T.);
#396=EDGE_CURVE('',#360,#360,#420,.T.);
#397=EDGE_CURVE('',#361,#361,#421,.T.);
#398=EDGE_CURVE('',#362,#362,#422,.T.);
#399=EDGE_CURVE('',#363,#363,#423,.T.);
#400=EDGE_CURVE('',#364,#364,#424,.T.);
#401=EDGE_CURVE('',#365,#365,#425,.T.);
#402=EDGE_CURVE('',#366,#366,#426,.T.);
#403=EDGE_CURVE('',#367,#367,#427,.T.);
#404=EDGE_CURVE('',#368,#368,#428,.T.);
#405=EDGE_CURVE('',#369,#369,#429,.T.);
#406=EDGE_CURVE('',#370,#370,#430,.T.);
#407=EDGE_CURVE('',#345,#347,#431,.T.);
#408=EDGE_CURVE('',#358,#346,#432,.T.);
#409=EDGE_CURVE('',#371,#371,#433,.T.);
#410=EDGE_CURVE('',#349,#344,#434,.T.);
#411=EDGE_CURVE('',#343,#357,#435,.T.);
#412=EDGE_CURVE('',#372,#372,#436,.T.);
#413=CIRCLE('',#438,26.);
#414=CIRCLE('',#439,26.);
#415=CIRCLE('',#443,10.);
#416=CIRCLE('',#444,10.);
#417=CIRCLE('',#447,10.);
#418=CIRCLE('',#448,10.);
#419=CIRCLE('',#451,3.);
#420=CIRCLE('',#452,3.);
#421=CIRCLE('',#454,3.);
#422=CIRCLE('',#455,3.);
#423=CIRCLE('',#457,3.);
#424=CIRCLE('',#458,3.);
#425=CIRCLE('',#460,3.);
#426=CIRCLE('',#461,3.);
#427=CIRCLE('',#463,6.8);
#428=CIRCLE('',#464,6.8);
#429=CIRCLE('',#465,6.8);
#430=CIRCLE('',#466,6.8);
#431=CIRCLE('',#467,20.);
#432=CIRCLE('',#468,20.);
#433=CIRCLE('',#469,20.5);
#434=CIRCLE('',#471,20.);
#435=CIRCLE('',#472,20.);
#436=CIRCLE('',#478,20.5);
#437=AXIS2_PLACEMENT_3D('',#591,#483,#484);
#438=AXIS2_PLACEMENT_3D('',#592,#485,#486);
#439=AXIS2_PLACEMENT_3D('',#594,#487,#488);
#440=AXIS2_PLACEMENT_3D('',#596,#489,#490);
#441=AXIS2_PLACEMENT_3D('',#605,#495,#496);
#442=AXIS2_PLACEMENT_3D('',#614,#501,#502);
#443=AXIS2_PLACEMENT_3D('',#615,#503,#504);
#444=AXIS2_PLACEMENT_3D('',#619,#506,#507);
#445=AXIS2_PLACEMENT_3D('',#620,#508,#509);
#446=AXIS2_PLACEMENT_3D('',#626,#513,#514);
#447=AXIS2_PLACEMENT_3D('',#627,#515,#516);
#448=AXIS2_PLACEMENT_3D('',#631,#518,#519);
#449=AXIS2_PLACEMENT_3D('',#632,#520,#521);
#450=AXIS2_PLACEMENT_3D('',#638,#525,#526);
#451=AXIS2_PLACEMENT_3D('',#639,#527,#528);
#452=AXIS2_PLACEMENT_3D('',#641,#529,#530);
#453=AXIS2_PLACEMENT_3D('',#643,#531,#532);
#454=AXIS2_PLACEMENT_3D('',#644,#533,#534);
#455=AXIS2_PLACEMENT_3D('',#646,#535,#536);
#456=AXIS2_PLACEMENT_3D('',#648,#537,#538);
#457=AXIS2_PLACEMENT_3D('',#649,#539,#540);
#458=AXIS2_PLACEMENT_3D('',#651,#541,#542);
#459=AXIS2_PLACEMENT_3D('',#653,#543,#544);
#460=AXIS2_PLACEMENT_3D('',#654,#545,#546);
#461=AXIS2_PLACEMENT_3D('',#656,#547,#548);
#462=AXIS2_PLACEMENT_3D('',#658,#549,#550);
#463=AXIS2_PLACEMENT_3D('',#659,#551,#552);
#464=AXIS2_PLACEMENT_3D('',#661,#553,#554);
#465=AXIS2_PLACEMENT_3D('',#663,#555,#556);
#466=AXIS2_PLACEMENT_3D('',#665,#557,#558);
#467=AXIS2_PLACEMENT_3D('',#667,#559,#560);
#468=AXIS2_PLACEMENT_3D('',#668,#561,#562);
#469=AXIS2_PLACEMENT_3D('',#669,#563,#564);
#470=AXIS2_PLACEMENT_3D('',#671,#565,#566);
#471=AXIS2_PLACEMENT_3D('',#672,#567,#568);
#472=AXIS2_PLACEMENT_3D('',#673,#569,#570);
#473=AXIS2_PLACEMENT_3D('',#674,#571,#572);
#474=AXIS2_PLACEMENT_3D('',#675,#573,#574);
#475=AXIS2_PLACEMENT_3D('',#676,#575,#576);
#476=AXIS2_PLACEMENT_3D('',#677,#577,#578);
#477=AXIS2_PLACEMENT_3D('',#678,#579,#580);
#478=AXIS2_PLACEMENT_3D('',#679,#581,#582);
#479=AXIS2_PLACEMENT_3D('',#681,#583,#584);
#480=AXIS2_PLACEMENT_3D('',#682,#585,#586);
#481=AXIS2_PLACEMENT_3D('',#683,#587,#588);
#482=AXIS2_PLACEMENT_3D('',#684,#589,#590);
#483=DIRECTION('',(0.,0.,1.));
#484=DIRECTION('',(1.,0.,0.));
#485=DIRECTION('',(0.,-1.,0.));
#486=DIRECTION('',(0.,0.,-1.));
#487=DIRECTION('',(0.,-1.,0.));
#488=DIRECTION('',(0.,0.,-1.));
#489=DIRECTION('',(0.,1.,0.));
#490=DIRECTION('',(1.,0.,0.));
#491=DIRECTION('',(0.,0.,-1.));
#492=DIRECTION('',(0.,-1.,0.));
#493=DIRECTION('',(0.,0.,-1.));
#494=DIRECTION('',(0.,1.,0.));
#495=DIRECTION('',(1.,0.,0.));
#496=DIRECTION('',(0.,-1.,0.));
#497=DIRECTION('',(0.972098930520047,0.,0.234571245641449));
#498=DIRECTION('',(0.,1.,0.));
#499=DIRECTION('',(0.972098930520047,0.,0.234571245641449));
#500=DIRECTION('',(0.,1.,0.));
#501=DIRECTION('',(-0.234571245641449,0.,0.972098930520047));
#502=DIRECTION('',(-0.972098930520047,0.,-0.234571245641449));
#503=DIRECTION('',(0.,-1.,0.));
#504=DIRECTION('',(0.,0.,1.));
#505=DIRECTION('',(0.,1.,0.));
#506=DIRECTION('',(0.,-1.,0.));
#507=DIRECTION('',(0.,0.,1.));
#508=DIRECTION('',(0.,1.,0.));
#509=DIRECTION('',(1.,0.,0.));
#510=DIRECTION('',(0.,0.,1.));
#511=DIRECTION('',(0.,1.,0.));
#512=DIRECTION('',(0.,0.,1.));
#513=DIRECTION('',(-1.,0.,0.));
#514=DIRECTION('',(0.,1.,0.));
#515=DIRECTION('',(0.,-1.,0.));
#516=DIRECTION('',(0.,0.,-1.));
#517=DIRECTION('',(0.,1.,0.));
#518=DIRECTION('',(0.,-1.,0.));
#519=DIRECTION('',(0.,0.,-1.));
#520=DIRECTION('',(0.,1.,0.));
#521=DIRECTION('',(1.,0.,0.));
#522=DIRECTION('',(-0.972098930520047,0.,0.234571245641449));
#523=DIRECTION('',(0.,-1.,0.));
#524=DIRECTION('',(-0.972098930520047,0.,0.234571245641449));
#525=DIRECTION('',(-0.234571245641449,0.,-0.972098930520047));
#526=DIRECTION('',(0.972098930520047,0.,-0.234571245641449));
#527=DIRECTION('',(0.,-1.,0.));
#528=DIRECTION('',(-1.,0.,0.));
#529=DIRECTION('',(0.,-1.,0.));
#530=DIRECTION('',(0.,0.,-1.));
#531=DIRECTION('',(0.,1.,0.));
#532=DIRECTION('',(1.,0.,0.));
#533=DIRECTION('',(0.,-1.,0.));
#534=DIRECTION('',(-1.,0.,0.));
#535=DIRECTION('',(0.,-1.,0.));
#536=DIRECTION('',(0.,0.,-1.));
#537=DIRECTION('',(0.,1.,0.));
#538=DIRECTION('',(1.,0.,0.));
#539=DIRECTION('',(0.,-1.,0.));
#540=DIRECTION('',(-1.,0.,0.));
#541=DIRECTION('',(0.,-1.,0.));
#542=DIRECTION('',(0.,0.,-1.));
#543=DIRECTION('',(0.,1.,0.));
#544=DIRECTION('',(1.,0.,0.));
#545=DIRECTION('',(0.,-1.,0.));
#546=DIRECTION('',(-1.,0.,0.));
#547=DIRECTION('',(0.,-1.,0.));
#548=DIRECTION('',(0.,0.,-1.));
#549=DIRECTION('',(0.,1.,0.));
#550=DIRECTION('',(1.,0.,0.));
#551=DIRECTION('',(0.,1.,0.));
#552=DIRECTION('',(-1.,0.,0.));
#553=DIRECTION('',(0.,1.,0.));
#554=DIRECTION('',(-1.,0.,0.));
#555=DIRECTION('',(0.,1.,0.));
#556=DIRECTION('',(-1.,0.,0.));
#557=DIRECTION('',(0.,1.,0.));
#558=DIRECTION('',(-1.,0.,0.));
#559=DIRECTION('',(0.,-1.,0.));
#560=DIRECTION('',(-1.,0.,0.));
#561=DIRECTION('',(0.,-1.,0.));
#562=DIRECTION('',(-1.,0.,0.));
#563=DIRECTION('',(0.,-1.,0.));
#564=DIRECTION('',(0.,0.,-1.));
#565=DIRECTION('',(0.,-1.,0.));
#566=DIRECTION('',(-1.,0.,0.));
#567=DIRECTION('',(0.,1.,0.));
#568=DIRECTION('',(-1.,0.,0.));
#569=DIRECTION('',(0.,1.,0.));
#570=DIRECTION('',(-1.,0.,0.));
#571=DIRECTION('',(0.,-1.,0.));
#572=DIRECTION('',(-1.,0.,0.));
#573=DIRECTION('',(0.,-1.,0.));
#574=DIRECTION('',(-1.,-5.5345115883607E-17,0.));
#575=DIRECTION('',(0.,-1.,0.));
#576=DIRECTION('',(-1.,-5.5345115883607E-17,0.));
#577=DIRECTION('',(0.,-1.,0.));
#578=DIRECTION('',(-1.,-5.5345115883607E-17,0.));
#579=DIRECTION('',(0.,-1.,0.));
#580=DIRECTION('',(-1.,-5.5345115883607E-17,0.));
#581=DIRECTION('',(0.,-1.,0.));
#582=DIRECTION('',(0.,0.,-1.));
#583=DIRECTION('',(0.,-1.,0.));
#584=DIRECTION('',(-1.,0.,0.));
#585=DIRECTION('',(0.,-1.,0.));
#586=DIRECTION('',(-1.,0.,0.));
#587=DIRECTION('',(0.,1.,0.));
#588=DIRECTION('',(1.,0.,0.));
#589=DIRECTION('',(0.,1.,0.));
#590=DIRECTION('',(1.,0.,0.));
#591=CARTESIAN_POINT('',(0.,0.,0.));
#592=CARTESIAN_POINT('',(70.5,-297.3,0.));
#593=CARTESIAN_POINT('',(70.5,-297.3,-26.));
#594=CARTESIAN_POINT('',(70.5,-299.9,0.));
#595=CARTESIAN_POINT('',(70.5,-299.9,-26.));
#596=CARTESIAN_POINT('',(70.5,-302.9,0.));
#597=CARTESIAN_POINT('',(34.,-297.3,47.6098872680504));
#598=CARTESIAN_POINT('',(34.,-297.3,22.2150680929618));
#599=CARTESIAN_POINT('',(34.,-297.3,-22.2150680929618));
#600=CARTESIAN_POINT('',(34.,-302.9,-22.2150680929618));
#601=CARTESIAN_POINT('',(34.,-302.9,-22.2150680929618));
#602=CARTESIAN_POINT('',(34.,-302.9,47.6098872680504));
#603=CARTESIAN_POINT('',(34.,-302.9,22.2150680929618));
#604=CARTESIAN_POINT('',(34.,-302.9,22.2150680929618));
#605=CARTESIAN_POINT('',(34.,-302.9,47.6098872680504));
#606=CARTESIAN_POINT('',(34.6250510760872,-302.9,-47.4643561363));
#607=CARTESIAN_POINT('',(58.691424912829,-302.9,-41.6570467033627));
#608=CARTESIAN_POINT('',(99.3457124564145,-302.9,-31.8470092983604));
#609=CARTESIAN_POINT('',(58.691424912829,-302.9,-41.6570467033627));
#610=CARTESIAN_POINT('',(58.691424912829,-297.3,-41.6570467033627));
#611=CARTESIAN_POINT('',(34.6250510760872,-297.3,-47.4643561363));
#612=CARTESIAN_POINT('',(99.3457124564145,-297.3,-31.8470092983604));
#613=CARTESIAN_POINT('',(99.3457124564145,-302.9,-31.8470092983604));
#614=CARTESIAN_POINT('',(34.6250510760872,-302.9,-47.4643561363));
#615=CARTESIAN_POINT('',(97.,-297.3,-22.1260199931599));
#616=CARTESIAN_POINT('',(107.,-297.3,-22.1260199931599));
#617=CARTESIAN_POINT('',(107.,-302.9,-22.1260199931599));
#618=CARTESIAN_POINT('',(107.,-302.9,-22.1260199931599));
#619=CARTESIAN_POINT('',(97.,-302.9,-22.1260199931599));
#620=CARTESIAN_POINT('',(97.,-302.9,-22.1260199931599));
#621=CARTESIAN_POINT('',(107.,-297.3,0.));
#622=CARTESIAN_POINT('',(107.,-297.3,22.1260199931599));
#623=CARTESIAN_POINT('',(107.,-302.9,22.1260199931599));
#624=CARTESIAN_POINT('',(107.,-302.9,22.1260199931599));
#625=CARTESIAN_POINT('',(107.,-302.9,-22.1260199931599));
#626=CARTESIAN_POINT('',(107.,-302.9,0.));
#627=CARTESIAN_POINT('',(97.,-297.3,22.1260199931599));
#628=CARTESIAN_POINT('',(99.3457124564145,-297.3,31.8470092983604));
#629=CARTESIAN_POINT('',(99.3457124564145,-302.9,31.8470092983604));
#630=CARTESIAN_POINT('',(99.3457124564145,-302.9,31.8470092983604));
#631=CARTESIAN_POINT('',(97.,-302.9,22.1260199931599));
#632=CARTESIAN_POINT('',(97.,-302.9,22.1260199931599));
#633=CARTESIAN_POINT('',(99.3457124564145,-297.3,31.8470092983604));
#634=CARTESIAN_POINT('',(58.691424912829,-297.3,41.6570467033627));
#635=CARTESIAN_POINT('',(58.691424912829,-302.9,41.6570467033627));
#636=CARTESIAN_POINT('',(58.691424912829,-302.9,41.6570467033627));
#637=CARTESIAN_POINT('',(99.3457124564145,-302.9,31.8470092983604));
#638=CARTESIAN_POINT('',(99.3457124564145,-302.9,31.8470092983604));
#639=CARTESIAN_POINT('',(46.93,-299.1,-23.57));
#640=CARTESIAN_POINT('',(43.93,-299.1,-23.57));
#641=CARTESIAN_POINT('',(46.93,-297.3,-23.57));
#642=CARTESIAN_POINT('',(46.93,-297.3,-26.57));
#643=CARTESIAN_POINT('',(46.93,-302.9,-23.57));
#644=CARTESIAN_POINT('',(94.07,-299.1,23.57));
#645=CARTESIAN_POINT('',(91.07,-299.1,23.57));
#646=CARTESIAN_POINT('',(94.07,-297.3,23.57));
#647=CARTESIAN_POINT('',(94.07,-297.3,20.57));
#648=CARTESIAN_POINT('',(94.07,-302.9,23.57));
#649=CARTESIAN_POINT('',(46.93,-299.1,23.57));
#650=CARTESIAN_POINT('',(43.93,-299.1,23.57));
#651=CARTESIAN_POINT('',(46.93,-297.3,23.57));
#652=CARTESIAN_POINT('',(46.93,-297.3,20.57));
#653=CARTESIAN_POINT('',(46.93,-302.9,23.57));
#654=CARTESIAN_POINT('',(94.07,-299.1,-23.57));
#655=CARTESIAN_POINT('',(91.07,-299.1,-23.57));
#656=CARTESIAN_POINT('',(94.07,-297.3,-23.57));
#657=CARTESIAN_POINT('',(94.07,-297.3,-26.57));
#658=CARTESIAN_POINT('',(94.07,-302.9,-23.57));
#659=CARTESIAN_POINT('',(46.93,-302.9,-23.57));
#660=CARTESIAN_POINT('',(40.13,-302.9,-23.57));
#661=CARTESIAN_POINT('',(94.07,-302.9,-23.57));
#662=CARTESIAN_POINT('',(87.27,-302.9,-23.57));
#663=CARTESIAN_POINT('',(94.07,-302.9,23.57));
#664=CARTESIAN_POINT('',(87.27,-302.9,23.57));
#665=CARTESIAN_POINT('',(46.93,-302.9,23.57));
#666=CARTESIAN_POINT('',(40.13,-302.9,23.57));
#667=CARTESIAN_POINT('',(54.,-302.9,-22.2150680929618));
#668=CARTESIAN_POINT('',(54.,-302.9,22.2150680929618));
#669=CARTESIAN_POINT('',(70.5,-302.9,0.));
#670=CARTESIAN_POINT('',(70.5,-302.9,-20.5));
#671=CARTESIAN_POINT('',(25.2422012504293,-302.9,-8.58039891549808));
#672=CARTESIAN_POINT('',(54.,-297.3,-22.2150680929618));
#673=CARTESIAN_POINT('',(54.,-297.3,22.2150680929618));
#674=CARTESIAN_POINT('',(25.2422012504293,-297.3,-8.58039891549808));
#675=CARTESIAN_POINT('',(46.93,-299.1,-23.57));
#676=CARTESIAN_POINT('',(94.07,-299.1,-23.57));
#677=CARTESIAN_POINT('',(94.07,-299.1,23.57));
#678=CARTESIAN_POINT('',(46.93,-299.1,23.57));
#679=CARTESIAN_POINT('',(70.5,-299.9,0.));
#680=CARTESIAN_POINT('',(70.5,-299.9,-20.5));
#681=CARTESIAN_POINT('',(70.5,-299.9,0.));
#682=CARTESIAN_POINT('',(70.5,-299.9,0.));
#683=CARTESIAN_POINT('',(54.,-302.9,-22.2150680929618));
#684=CARTESIAN_POINT('',(54.,-302.9,22.2150680929618));
#685=(
GEOMETRIC_REPRESENTATION_CONTEXT(3)
GLOBAL_UNCERTAINTY_ASSIGNED_CONTEXT((#686))
GLOBAL_UNIT_ASSIGNED_CONTEXT((#692,#688,#687))
REPRESENTATION_CONTEXT('\X2\041A04400435043F043B0435043D04380435\X0\5',
'TOP_LEVEL_ASSEMBLY_PART')
);
#686=UNCERTAINTY_MEASURE_WITH_UNIT(LENGTH_MEASURE(2.E-5),#692,
'DISTANCE_ACCURACY_VALUE','Maximum Tolerance applied to model');
#687=(
NAMED_UNIT(*)
SI_UNIT($,.STERADIAN.)
SOLID_ANGLE_UNIT()
);
#688=(
CONVERSION_BASED_UNIT('DEGREE',#690)
NAMED_UNIT(#689)
PLANE_ANGLE_UNIT()
);
#689=DIMENSIONAL_EXPONENTS(0.,0.,0.,0.,0.,0.,0.);
#690=PLANE_ANGLE_MEASURE_WITH_UNIT(PLANE_ANGLE_MEASURE(0.0174532925),#691);
#691=(
NAMED_UNIT(*)
PLANE_ANGLE_UNIT()
SI_UNIT($,.RADIAN.)
);
#692=(
LENGTH_UNIT()
NAMED_UNIT(*)
SI_UNIT(.MILLI.,.METRE.)
);
ENDSEC;
END-ISO-10303-21;
