ISO-10303-21;
HEADER;
/* Generated by software containing ST-Developer
 * from STEP Tools, Inc. (www.steptools.com) 
 */
/* OPTION: using custom schema-name function */

FILE_DESCRIPTION(
/* description */ (''),
/* implementation_level */ '2;1');

FILE_NAME(
/* name */ '\X2\041A04400435043F043B0435043D04380435\X0\2.stp',
/* time_stamp */ '2026-06-25T22:03:04+03:00',
/* author */ (''),
/* organization */ (''),
/* preprocessor_version */ 'ST-DEVELOPER v16',
/* originating_system */ 'SIEMENS PLM Software NX 10.0',
/* authorisation */ '');

FILE_SCHEMA (('AP203_CONFIGURATION_CONTROLLED_3D_DESIGN_OF_MECHANICAL_PARTS_AND_ASSEMBLIES_MIM_LF { 1 0 10303 403 2 1 2}'));
ENDSEC;

DATA;
#10=PROPERTY_DEFINITION_REPRESENTATION(#14,#12);
#11=PROPERTY_DEFINITION_REPRESENTATION(#15,#13);
#12=REPRESENTATION('',(#16),#975);
#13=REPRESENTATION('',(#17),#975);
#14=PROPERTY_DEFINITION('pmi validation property','',#89);
#15=PROPERTY_DEFINITION('pmi validation property','',#89);
#16=VALUE_REPRESENTATION_ITEM('number of annotations',COUNT_MEASURE(0.));
#17=VALUE_REPRESENTATION_ITEM('number of views',COUNT_MEASURE(0.));
#18=SHAPE_REPRESENTATION_RELATIONSHIP('None',
'relationship between Hi6C8432B1730y-None and Hi6C8432B1730y-None',#100,
#19);
#19=ADVANCED_BREP_SHAPE_REPRESENTATION('Hi6C8432B1730y-None',(#101),#975);
#20=CC_DESIGN_APPROVAL(#32,(#90));
#21=CC_DESIGN_APPROVAL(#33,(#92));
#22=CC_DESIGN_APPROVAL(#34,(#39));
#23=APPROVAL_PERSON_ORGANIZATION(#77,#32,#26);
#24=APPROVAL_PERSON_ORGANIZATION(#78,#33,#27);
#25=APPROVAL_PERSON_ORGANIZATION(#79,#34,#28);
#26=APPROVAL_ROLE('approver');
#27=APPROVAL_ROLE('approver');
#28=APPROVAL_ROLE('approver');
#29=APPROVAL_DATE_TIME(#47,#32);
#30=APPROVAL_DATE_TIME(#48,#33);
#31=APPROVAL_DATE_TIME(#49,#34);
#32=APPROVAL(#35,' ');
#33=APPROVAL(#36,' ');
#34=APPROVAL(#37,' ');
#35=APPROVAL_STATUS('not_yet_approved');
#36=APPROVAL_STATUS('not_yet_approved');
#37=APPROVAL_STATUS('not_yet_approved');
#38=CC_DESIGN_SECURITY_CLASSIFICATION(#39,(#92));
#39=SECURITY_CLASSIFICATION(' ',' ',#40);
#40=SECURITY_CLASSIFICATION_LEVEL('confidential');
#41=CC_DESIGN_DATE_AND_TIME_ASSIGNMENT(#45,#43,(#90));
#42=CC_DESIGN_DATE_AND_TIME_ASSIGNMENT(#46,#44,(#39));
#43=DATE_TIME_ROLE('creation_date');
#44=DATE_TIME_ROLE('classification_date');
#45=DATE_AND_TIME(#60,#50);
#46=DATE_AND_TIME(#61,#51);
#47=DATE_AND_TIME(#62,#52);
#48=DATE_AND_TIME(#63,#53);
#49=DATE_AND_TIME(#64,#54);
#50=LOCAL_TIME(0,0,0.,#55);
#51=LOCAL_TIME(0,0,0.,#56);
#52=LOCAL_TIME(0,0,0.,#57);
#53=LOCAL_TIME(0,0,0.,#58);
#54=LOCAL_TIME(0,0,0.,#59);
#55=COORDINATED_UNIVERSAL_TIME_OFFSET(0,0,.BEHIND.);
#56=COORDINATED_UNIVERSAL_TIME_OFFSET(0,0,.BEHIND.);
#57=COORDINATED_UNIVERSAL_TIME_OFFSET(0,0,.BEHIND.);
#58=COORDINATED_UNIVERSAL_TIME_OFFSET(0,0,.BEHIND.);
#59=COORDINATED_UNIVERSAL_TIME_OFFSET(0,0,.BEHIND.);
#60=CALENDAR_DATE(0,1,1);
#61=CALENDAR_DATE(0,1,1);
#62=CALENDAR_DATE(0,1,1);
#63=CALENDAR_DATE(0,1,1);
#64=CALENDAR_DATE(0,1,1);
#65=CC_DESIGN_PERSON_AND_ORGANIZATION_ASSIGNMENT(#73,#69,(#90,#92));
#66=CC_DESIGN_PERSON_AND_ORGANIZATION_ASSIGNMENT(#74,#70,(#94));
#67=CC_DESIGN_PERSON_AND_ORGANIZATION_ASSIGNMENT(#75,#71,(#92));
#68=CC_DESIGN_PERSON_AND_ORGANIZATION_ASSIGNMENT(#76,#72,(#39));
#69=PERSON_AND_ORGANIZATION_ROLE('creator');
#70=PERSON_AND_ORGANIZATION_ROLE('design_owner');
#71=PERSON_AND_ORGANIZATION_ROLE('design_supplier');
#72=PERSON_AND_ORGANIZATION_ROLE('classification_officer');
#73=PERSON_AND_ORGANIZATION(#87,#80);
#74=PERSON_AND_ORGANIZATION(#87,#81);
#75=PERSON_AND_ORGANIZATION(#87,#82);
#76=PERSON_AND_ORGANIZATION(#87,#83);
#77=PERSON_AND_ORGANIZATION(#87,#84);
#78=PERSON_AND_ORGANIZATION(#87,#85);
#79=PERSON_AND_ORGANIZATION(#87,#86);
#80=ORGANIZATION(' ',' ',' ');
#81=ORGANIZATION(' ',' ',' ');
#82=ORGANIZATION(' ',' ',' ');
#83=ORGANIZATION(' ',' ',' ');
#84=ORGANIZATION(' ',' ',' ');
#85=ORGANIZATION(' ',' ',' ');
#86=ORGANIZATION(' ',' ',' ');
#87=PERSON(' ',' ',' ',(' '),$,$);
#88=SHAPE_DEFINITION_REPRESENTATION(#89,#100);
#89=PRODUCT_DEFINITION_SHAPE('','',#90);
#90=PRODUCT_DEFINITION(' ','',#92,#91);
#91=DESIGN_CONTEXT('',#99,'design');
#92=PRODUCT_DEFINITION_FORMATION_WITH_SPECIFIED_SOURCE(' ',' ',#94,
 .NOT_KNOWN.);
#93=PRODUCT_RELATED_PRODUCT_CATEGORY('detail','',(#94));
#94=PRODUCT('Hi6C8432B1730y','Hi6C8432B1730y',' ',(#97));
#95=PRODUCT_CATEGORY('part',' ');
#96=PRODUCT_CATEGORY(' ','');
#97=MECHANICAL_CONTEXT(' ',#99,'mechanical');
#98=APPLICATION_PROTOCOL_DEFINITION('international standard',
'config_control_design',2010,#99);
#99=APPLICATION_CONTEXT(
'configuration controlled 3D designs of mechanical parts and assemblie
s');
#100=SHAPE_REPRESENTATION('Hi6C8432B1730y-None',(#609),#975);
#101=MANIFOLD_SOLID_BREP('',#102);
#102=CLOSED_SHELL('',(#173,#174,#175,#176,#177,#178,#179,#180,#181,#182,
#183,#184,#185,#186,#187,#188,#189,#190,#191,#192,#193,#194,#195,#196,#197,
#198,#199));
#103=FACE_BOUND('',#238,.T.);
#104=FACE_BOUND('',#239,.T.);
#105=FACE_BOUND('',#240,.T.);
#106=FACE_BOUND('',#241,.T.);
#107=FACE_BOUND('',#242,.T.);
#108=FACE_BOUND('',#243,.T.);
#109=FACE_BOUND('',#244,.T.);
#110=FACE_BOUND('',#245,.T.);
#111=FACE_BOUND('',#247,.T.);
#112=FACE_BOUND('',#248,.T.);
#113=FACE_BOUND('',#249,.T.);
#114=FACE_BOUND('',#250,.T.);
#115=FACE_BOUND('',#251,.T.);
#116=FACE_BOUND('',#252,.T.);
#117=FACE_BOUND('',#253,.T.);
#118=FACE_BOUND('',#254,.T.);
#119=FACE_BOUND('',#255,.T.);
#120=FACE_BOUND('',#256,.T.);
#121=FACE_BOUND('',#257,.T.);
#122=FACE_BOUND('',#258,.T.);
#123=FACE_BOUND('',#259,.T.);
#124=FACE_BOUND('',#260,.T.);
#125=CYLINDRICAL_SURFACE('',#613,40.);
#126=CYLINDRICAL_SURFACE('',#617,10.);
#127=CYLINDRICAL_SURFACE('',#621,10.);
#128=CYLINDRICAL_SURFACE('',#625,3.);
#129=CYLINDRICAL_SURFACE('',#628,26.);
#130=CYLINDRICAL_SURFACE('',#631,3.);
#131=CYLINDRICAL_SURFACE('',#634,3.);
#132=CYLINDRICAL_SURFACE('',#637,40.);
#133=CYLINDRICAL_SURFACE('',#640,3.);
#134=CYLINDRICAL_SURFACE('',#653,30.);
#135=CYLINDRICAL_SURFACE('',#663,20.);
#136=CYLINDRICAL_SURFACE('',#664,20.);
#137=CYLINDRICAL_SURFACE('',#665,5.);
#138=CYLINDRICAL_SURFACE('',#666,5.);
#139=CYLINDRICAL_SURFACE('',#667,5.);
#140=CYLINDRICAL_SURFACE('',#668,5.);
#141=CIRCLE('',#611,40.);
#142=CIRCLE('',#612,40.);
#143=CIRCLE('',#615,10.);
#144=CIRCLE('',#616,10.);
#145=CIRCLE('',#619,10.);
#146=CIRCLE('',#620,10.);
#147=CIRCLE('',#623,3.);
#148=CIRCLE('',#624,3.);
#149=CIRCLE('',#626,26.);
#150=CIRCLE('',#627,26.);
#151=CIRCLE('',#629,3.);
#152=CIRCLE('',#630,3.);
#153=CIRCLE('',#632,3.);
#154=CIRCLE('',#633,3.);
#155=CIRCLE('',#635,40.);
#156=CIRCLE('',#636,40.);
#157=CIRCLE('',#638,3.);
#158=CIRCLE('',#639,3.);
#159=CIRCLE('',#641,20.);
#160=CIRCLE('',#642,20.);
#161=CIRCLE('',#644,5.);
#162=CIRCLE('',#645,5.);
#163=CIRCLE('',#646,30.);
#164=CIRCLE('',#647,5.);
#165=CIRCLE('',#648,5.);
#166=CIRCLE('',#652,30.);
#167=CIRCLE('',#656,5.);
#168=CIRCLE('',#657,20.);
#169=CIRCLE('',#658,20.);
#170=CIRCLE('',#659,5.);
#171=CIRCLE('',#660,5.);
#172=CIRCLE('',#661,5.);
#173=ADVANCED_FACE('',(#211),#200,.F.);
#174=ADVANCED_FACE('',(#212),#125,.T.);
#175=ADVANCED_FACE('',(#213),#201,.F.);
#176=ADVANCED_FACE('',(#214),#126,.T.);
#177=ADVANCED_FACE('',(#215),#202,.F.);
#178=ADVANCED_FACE('',(#216),#127,.T.);
#179=ADVANCED_FACE('',(#217),#203,.F.);
#180=ADVANCED_FACE('',(#103,#104),#128,.F.);
#181=ADVANCED_FACE('',(#105,#106),#129,.F.);
#182=ADVANCED_FACE('',(#107,#108),#130,.F.);
#183=ADVANCED_FACE('',(#109,#110),#131,.F.);
#184=ADVANCED_FACE('',(#218),#132,.T.);
#185=ADVANCED_FACE('',(#111,#112),#133,.F.);
#186=ADVANCED_FACE('',(#113,#114,#115,#116,#117,#118),#204,.T.);
#187=ADVANCED_FACE('',(#119,#120,#121,#122,#123,#124),#205,.F.);
#188=ADVANCED_FACE('',(#219),#206,.F.);
#189=ADVANCED_FACE('',(#220),#207,.F.);
#190=ADVANCED_FACE('',(#221),#134,.F.);
#191=ADVANCED_FACE('',(#222),#208,.F.);
#192=ADVANCED_FACE('',(#223),#209,.F.);
#193=ADVANCED_FACE('',(#224),#210,.F.);
#194=ADVANCED_FACE('',(#225),#135,.T.);
#195=ADVANCED_FACE('',(#226),#136,.T.);
#196=ADVANCED_FACE('',(#227),#137,.T.);
#197=ADVANCED_FACE('',(#228),#138,.T.);
#198=ADVANCED_FACE('',(#229),#139,.T.);
#199=ADVANCED_FACE('',(#230),#140,.T.);
#200=PLANE('',#610);
#201=PLANE('',#614);
#202=PLANE('',#618);
#203=PLANE('',#622);
#204=PLANE('',#643);
#205=PLANE('',#649);
#206=PLANE('',#650);
#207=PLANE('',#651);
#208=PLANE('',#654);
#209=PLANE('',#655);
#210=PLANE('',#662);
#211=FACE_OUTER_BOUND('',#231,.T.);
#212=FACE_OUTER_BOUND('',#232,.T.);
#213=FACE_OUTER_BOUND('',#233,.T.);
#214=FACE_OUTER_BOUND('',#234,.T.);
#215=FACE_OUTER_BOUND('',#235,.T.);
#216=FACE_OUTER_BOUND('',#236,.T.);
#217=FACE_OUTER_BOUND('',#237,.T.);
#218=FACE_OUTER_BOUND('',#246,.T.);
#219=FACE_OUTER_BOUND('',#261,.T.);
#220=FACE_OUTER_BOUND('',#262,.T.);
#221=FACE_OUTER_BOUND('',#263,.T.);
#222=FACE_OUTER_BOUND('',#264,.T.);
#223=FACE_OUTER_BOUND('',#265,.T.);
#224=FACE_OUTER_BOUND('',#266,.T.);
#225=FACE_OUTER_BOUND('',#267,.T.);
#226=FACE_OUTER_BOUND('',#268,.T.);
#227=FACE_OUTER_BOUND('',#269,.T.);
#228=FACE_OUTER_BOUND('',#270,.T.);
#229=FACE_OUTER_BOUND('',#271,.T.);
#230=FACE_OUTER_BOUND('',#272,.T.);
#231=EDGE_LOOP('',(#273,#274,#275,#276));
#232=EDGE_LOOP('',(#277,#278,#279,#280));
#233=EDGE_LOOP('',(#281,#282,#283,#284,#285,#286));
#234=EDGE_LOOP('',(#287,#288,#289,#290));
#235=EDGE_LOOP('',(#291,#292,#293,#294));
#236=EDGE_LOOP('',(#295,#296,#297,#298));
#237=EDGE_LOOP('',(#299,#300,#301,#302,#303,#304));
#238=EDGE_LOOP('',(#305));
#239=EDGE_LOOP('',(#306));
#240=EDGE_LOOP('',(#307));
#241=EDGE_LOOP('',(#308));
#242=EDGE_LOOP('',(#309));
#243=EDGE_LOOP('',(#310));
#244=EDGE_LOOP('',(#311));
#245=EDGE_LOOP('',(#312));
#246=EDGE_LOOP('',(#313,#314,#315,#316));
#247=EDGE_LOOP('',(#317));
#248=EDGE_LOOP('',(#318));
#249=EDGE_LOOP('',(#319,#320,#321,#322,#323,#324,#325,#326));
#250=EDGE_LOOP('',(#327));
#251=EDGE_LOOP('',(#328));
#252=EDGE_LOOP('',(#329));
#253=EDGE_LOOP('',(#330));
#254=EDGE_LOOP('',(#331));
#255=EDGE_LOOP('',(#332,#333,#334,#335,#336,#337,#338,#339,#340,#341,#342,
#343,#344,#345,#346,#347));
#256=EDGE_LOOP('',(#348));
#257=EDGE_LOOP('',(#349));
#258=EDGE_LOOP('',(#350));
#259=EDGE_LOOP('',(#351));
#260=EDGE_LOOP('',(#352));
#261=EDGE_LOOP('',(#353,#354,#355,#356));
#262=EDGE_LOOP('',(#357,#358,#359,#360));
#263=EDGE_LOOP('',(#361,#362,#363,#364));
#264=EDGE_LOOP('',(#365,#366,#367,#368));
#265=EDGE_LOOP('',(#369,#370,#371,#372));
#266=EDGE_LOOP('',(#373,#374,#375,#376,#377,#378,#379,#380,#381,#382,#383,
#384,#385,#386,#387,#388));
#267=EDGE_LOOP('',(#389,#390,#391,#392));
#268=EDGE_LOOP('',(#393,#394,#395,#396));
#269=EDGE_LOOP('',(#397,#398,#399,#400));
#270=EDGE_LOOP('',(#401,#402,#403,#404));
#271=EDGE_LOOP('',(#405,#406,#407,#408));
#272=EDGE_LOOP('',(#409,#410,#411,#412));
#273=ORIENTED_EDGE('',*,*,#463,.F.);
#274=ORIENTED_EDGE('',*,*,#464,.T.);
#275=ORIENTED_EDGE('',*,*,#465,.F.);
#276=ORIENTED_EDGE('',*,*,#466,.T.);
#277=ORIENTED_EDGE('',*,*,#467,.F.);
#278=ORIENTED_EDGE('',*,*,#468,.F.);
#279=ORIENTED_EDGE('',*,*,#469,.T.);
#280=ORIENTED_EDGE('',*,*,#470,.T.);
#281=ORIENTED_EDGE('',*,*,#471,.F.);
#282=ORIENTED_EDGE('',*,*,#472,.T.);
#283=ORIENTED_EDGE('',*,*,#473,.T.);
#284=ORIENTED_EDGE('',*,*,#467,.T.);
#285=ORIENTED_EDGE('',*,*,#474,.T.);
#286=ORIENTED_EDGE('',*,*,#475,.F.);
#287=ORIENTED_EDGE('',*,*,#476,.T.);
#288=ORIENTED_EDGE('',*,*,#477,.F.);
#289=ORIENTED_EDGE('',*,*,#478,.F.);
#290=ORIENTED_EDGE('',*,*,#475,.T.);
#291=ORIENTED_EDGE('',*,*,#479,.T.);
#292=ORIENTED_EDGE('',*,*,#480,.F.);
#293=ORIENTED_EDGE('',*,*,#481,.F.);
#294=ORIENTED_EDGE('',*,*,#477,.T.);
#295=ORIENTED_EDGE('',*,*,#482,.T.);
#296=ORIENTED_EDGE('',*,*,#483,.F.);
#297=ORIENTED_EDGE('',*,*,#484,.F.);
#298=ORIENTED_EDGE('',*,*,#480,.T.);
#299=ORIENTED_EDGE('',*,*,#485,.F.);
#300=ORIENTED_EDGE('',*,*,#486,.T.);
#301=ORIENTED_EDGE('',*,*,#487,.T.);
#302=ORIENTED_EDGE('',*,*,#488,.F.);
#303=ORIENTED_EDGE('',*,*,#483,.T.);
#304=ORIENTED_EDGE('',*,*,#489,.T.);
#305=ORIENTED_EDGE('',*,*,#490,.T.);
#306=ORIENTED_EDGE('',*,*,#491,.F.);
#307=ORIENTED_EDGE('',*,*,#492,.T.);
#308=ORIENTED_EDGE('',*,*,#493,.F.);
#309=ORIENTED_EDGE('',*,*,#494,.T.);
#310=ORIENTED_EDGE('',*,*,#495,.F.);
#311=ORIENTED_EDGE('',*,*,#496,.T.);
#312=ORIENTED_EDGE('',*,*,#497,.F.);
#313=ORIENTED_EDGE('',*,*,#498,.F.);
#314=ORIENTED_EDGE('',*,*,#485,.T.);
#315=ORIENTED_EDGE('',*,*,#499,.T.);
#316=ORIENTED_EDGE('',*,*,#500,.F.);
#317=ORIENTED_EDGE('',*,*,#501,.T.);
#318=ORIENTED_EDGE('',*,*,#502,.F.);
#319=ORIENTED_EDGE('',*,*,#465,.T.);
#320=ORIENTED_EDGE('',*,*,#503,.T.);
#321=ORIENTED_EDGE('',*,*,#471,.T.);
#322=ORIENTED_EDGE('',*,*,#478,.T.);
#323=ORIENTED_EDGE('',*,*,#481,.T.);
#324=ORIENTED_EDGE('',*,*,#484,.T.);
#325=ORIENTED_EDGE('',*,*,#488,.T.);
#326=ORIENTED_EDGE('',*,*,#504,.T.);
#327=ORIENTED_EDGE('',*,*,#496,.F.);
#328=ORIENTED_EDGE('',*,*,#494,.F.);
#329=ORIENTED_EDGE('',*,*,#492,.F.);
#330=ORIENTED_EDGE('',*,*,#490,.F.);
#331=ORIENTED_EDGE('',*,*,#501,.F.);
#332=ORIENTED_EDGE('',*,*,#505,.F.);
#333=ORIENTED_EDGE('',*,*,#506,.T.);
#334=ORIENTED_EDGE('',*,*,#507,.F.);
#335=ORIENTED_EDGE('',*,*,#508,.T.);
#336=ORIENTED_EDGE('',*,*,#509,.F.);
#337=ORIENTED_EDGE('',*,*,#510,.T.);
#338=ORIENTED_EDGE('',*,*,#511,.F.);
#339=ORIENTED_EDGE('',*,*,#512,.T.);
#340=ORIENTED_EDGE('',*,*,#513,.F.);
#341=ORIENTED_EDGE('',*,*,#499,.F.);
#342=ORIENTED_EDGE('',*,*,#489,.F.);
#343=ORIENTED_EDGE('',*,*,#482,.F.);
#344=ORIENTED_EDGE('',*,*,#479,.F.);
#345=ORIENTED_EDGE('',*,*,#476,.F.);
#346=ORIENTED_EDGE('',*,*,#474,.F.);
#347=ORIENTED_EDGE('',*,*,#470,.F.);
#348=ORIENTED_EDGE('',*,*,#497,.T.);
#349=ORIENTED_EDGE('',*,*,#495,.T.);
#350=ORIENTED_EDGE('',*,*,#493,.T.);
#351=ORIENTED_EDGE('',*,*,#491,.T.);
#352=ORIENTED_EDGE('',*,*,#502,.T.);
#353=ORIENTED_EDGE('',*,*,#513,.T.);
#354=ORIENTED_EDGE('',*,*,#514,.T.);
#355=ORIENTED_EDGE('',*,*,#515,.F.);
#356=ORIENTED_EDGE('',*,*,#500,.T.);
#357=ORIENTED_EDGE('',*,*,#511,.T.);
#358=ORIENTED_EDGE('',*,*,#516,.T.);
#359=ORIENTED_EDGE('',*,*,#517,.F.);
#360=ORIENTED_EDGE('',*,*,#518,.T.);
#361=ORIENTED_EDGE('',*,*,#509,.T.);
#362=ORIENTED_EDGE('',*,*,#519,.T.);
#363=ORIENTED_EDGE('',*,*,#520,.F.);
#364=ORIENTED_EDGE('',*,*,#521,.T.);
#365=ORIENTED_EDGE('',*,*,#507,.T.);
#366=ORIENTED_EDGE('',*,*,#522,.T.);
#367=ORIENTED_EDGE('',*,*,#523,.F.);
#368=ORIENTED_EDGE('',*,*,#524,.T.);
#369=ORIENTED_EDGE('',*,*,#525,.F.);
#370=ORIENTED_EDGE('',*,*,#526,.T.);
#371=ORIENTED_EDGE('',*,*,#505,.T.);
#372=ORIENTED_EDGE('',*,*,#469,.F.);
#373=ORIENTED_EDGE('',*,*,#523,.T.);
#374=ORIENTED_EDGE('',*,*,#527,.T.);
#375=ORIENTED_EDGE('',*,*,#525,.T.);
#376=ORIENTED_EDGE('',*,*,#468,.T.);
#377=ORIENTED_EDGE('',*,*,#473,.F.);
#378=ORIENTED_EDGE('',*,*,#528,.T.);
#379=ORIENTED_EDGE('',*,*,#463,.T.);
#380=ORIENTED_EDGE('',*,*,#529,.T.);
#381=ORIENTED_EDGE('',*,*,#486,.F.);
#382=ORIENTED_EDGE('',*,*,#498,.T.);
#383=ORIENTED_EDGE('',*,*,#515,.T.);
#384=ORIENTED_EDGE('',*,*,#530,.T.);
#385=ORIENTED_EDGE('',*,*,#517,.T.);
#386=ORIENTED_EDGE('',*,*,#531,.T.);
#387=ORIENTED_EDGE('',*,*,#520,.T.);
#388=ORIENTED_EDGE('',*,*,#532,.T.);
#389=ORIENTED_EDGE('',*,*,#503,.F.);
#390=ORIENTED_EDGE('',*,*,#464,.F.);
#391=ORIENTED_EDGE('',*,*,#528,.F.);
#392=ORIENTED_EDGE('',*,*,#472,.F.);
#393=ORIENTED_EDGE('',*,*,#504,.F.);
#394=ORIENTED_EDGE('',*,*,#487,.F.);
#395=ORIENTED_EDGE('',*,*,#529,.F.);
#396=ORIENTED_EDGE('',*,*,#466,.F.);
#397=ORIENTED_EDGE('',*,*,#527,.F.);
#398=ORIENTED_EDGE('',*,*,#522,.F.);
#399=ORIENTED_EDGE('',*,*,#506,.F.);
#400=ORIENTED_EDGE('',*,*,#526,.F.);
#401=ORIENTED_EDGE('',*,*,#532,.F.);
#402=ORIENTED_EDGE('',*,*,#519,.F.);
#403=ORIENTED_EDGE('',*,*,#508,.F.);
#404=ORIENTED_EDGE('',*,*,#524,.F.);
#405=ORIENTED_EDGE('',*,*,#531,.F.);
#406=ORIENTED_EDGE('',*,*,#516,.F.);
#407=ORIENTED_EDGE('',*,*,#510,.F.);
#408=ORIENTED_EDGE('',*,*,#521,.F.);
#409=ORIENTED_EDGE('',*,*,#530,.F.);
#410=ORIENTED_EDGE('',*,*,#514,.F.);
#411=ORIENTED_EDGE('',*,*,#512,.F.);
#412=ORIENTED_EDGE('',*,*,#518,.F.);
#413=VERTEX_POINT('',#829);
#414=VERTEX_POINT('',#830);
#415=VERTEX_POINT('',#832);
#416=VERTEX_POINT('',#834);
#417=VERTEX_POINT('',#838);
#418=VERTEX_POINT('',#839);
#419=VERTEX_POINT('',#841);
#420=VERTEX_POINT('',#843);
#421=VERTEX_POINT('',#847);
#422=VERTEX_POINT('',#848);
#423=VERTEX_POINT('',#850);
#424=VERTEX_POINT('',#853);
#425=VERTEX_POINT('',#857);
#426=VERTEX_POINT('',#859);
#427=VERTEX_POINT('',#863);
#428=VERTEX_POINT('',#865);
#429=VERTEX_POINT('',#869);
#430=VERTEX_POINT('',#871);
#431=VERTEX_POINT('',#875);
#432=VERTEX_POINT('',#876);
#433=VERTEX_POINT('',#878);
#434=VERTEX_POINT('',#880);
#435=VERTEX_POINT('',#885);
#436=VERTEX_POINT('',#887);
#437=VERTEX_POINT('',#890);
#438=VERTEX_POINT('',#892);
#439=VERTEX_POINT('',#895);
#440=VERTEX_POINT('',#897);
#441=VERTEX_POINT('',#900);
#442=VERTEX_POINT('',#902);
#443=VERTEX_POINT('',#905);
#444=VERTEX_POINT('',#907);
#445=VERTEX_POINT('',#911);
#446=VERTEX_POINT('',#913);
#447=VERTEX_POINT('',#919);
#448=VERTEX_POINT('',#921);
#449=VERTEX_POINT('',#923);
#450=VERTEX_POINT('',#925);
#451=VERTEX_POINT('',#927);
#452=VERTEX_POINT('',#929);
#453=VERTEX_POINT('',#931);
#454=VERTEX_POINT('',#933);
#455=VERTEX_POINT('',#937);
#456=VERTEX_POINT('',#941);
#457=VERTEX_POINT('',#943);
#458=VERTEX_POINT('',#947);
#459=VERTEX_POINT('',#949);
#460=VERTEX_POINT('',#953);
#461=VERTEX_POINT('',#955);
#462=VERTEX_POINT('',#959);
#463=EDGE_CURVE('',#413,#414,#533,.T.);
#464=EDGE_CURVE('',#413,#415,#534,.T.);
#465=EDGE_CURVE('',#416,#415,#535,.T.);
#466=EDGE_CURVE('',#416,#414,#536,.T.);
#467=EDGE_CURVE('',#417,#418,#537,.T.);
#468=EDGE_CURVE('',#419,#417,#141,.T.);
#469=EDGE_CURVE('',#419,#420,#538,.T.);
#470=EDGE_CURVE('',#420,#418,#142,.T.);
#471=EDGE_CURVE('',#421,#422,#539,.T.);
#472=EDGE_CURVE('',#421,#423,#540,.T.);
#473=EDGE_CURVE('',#423,#417,#541,.T.);
#474=EDGE_CURVE('',#418,#424,#542,.T.);
#475=EDGE_CURVE('',#422,#424,#543,.T.);
#476=EDGE_CURVE('',#424,#425,#143,.T.);
#477=EDGE_CURVE('',#426,#425,#544,.T.);
#478=EDGE_CURVE('',#422,#426,#144,.T.);
#479=EDGE_CURVE('',#425,#427,#545,.T.);
#480=EDGE_CURVE('',#428,#427,#546,.T.);
#481=EDGE_CURVE('',#426,#428,#547,.T.);
#482=EDGE_CURVE('',#427,#429,#145,.T.);
#483=EDGE_CURVE('',#430,#429,#548,.T.);
#484=EDGE_CURVE('',#428,#430,#146,.T.);
#485=EDGE_CURVE('',#431,#432,#549,.T.);
#486=EDGE_CURVE('',#431,#433,#550,.T.);
#487=EDGE_CURVE('',#433,#434,#551,.T.);
#488=EDGE_CURVE('',#430,#434,#552,.T.);
#489=EDGE_CURVE('',#429,#432,#553,.T.);
#490=EDGE_CURVE('',#435,#435,#147,.T.);
#491=EDGE_CURVE('',#436,#436,#148,.T.);
#492=EDGE_CURVE('',#437,#437,#149,.T.);
#493=EDGE_CURVE('',#438,#438,#150,.T.);
#494=EDGE_CURVE('',#439,#439,#151,.T.);
#495=EDGE_CURVE('',#440,#440,#152,.T.);
#496=EDGE_CURVE('',#441,#441,#153,.T.);
#497=EDGE_CURVE('',#442,#442,#154,.T.);
#498=EDGE_CURVE('',#431,#443,#155,.T.);
#499=EDGE_CURVE('',#432,#444,#156,.T.);
#500=EDGE_CURVE('',#443,#444,#554,.T.);
#501=EDGE_CURVE('',#445,#445,#157,.T.);
#502=EDGE_CURVE('',#446,#446,#158,.T.);
#503=EDGE_CURVE('',#415,#421,#159,.T.);
#504=EDGE_CURVE('',#434,#416,#160,.T.);
#505=EDGE_CURVE('',#447,#420,#555,.T.);
#506=EDGE_CURVE('',#447,#448,#161,.T.);
#507=EDGE_CURVE('',#449,#448,#556,.T.);
#508=EDGE_CURVE('',#449,#450,#162,.T.);
#509=EDGE_CURVE('',#451,#450,#163,.T.);
#510=EDGE_CURVE('',#451,#452,#164,.T.);
#511=EDGE_CURVE('',#453,#452,#557,.T.);
#512=EDGE_CURVE('',#453,#454,#165,.T.);
#513=EDGE_CURVE('',#444,#454,#558,.T.);
#514=EDGE_CURVE('',#454,#455,#559,.T.);
#515=EDGE_CURVE('',#443,#455,#560,.T.);
#516=EDGE_CURVE('',#452,#456,#561,.T.);
#517=EDGE_CURVE('',#457,#456,#562,.T.);
#518=EDGE_CURVE('',#457,#453,#563,.T.);
#519=EDGE_CURVE('',#450,#458,#564,.T.);
#520=EDGE_CURVE('',#459,#458,#166,.T.);
#521=EDGE_CURVE('',#459,#451,#565,.T.);
#522=EDGE_CURVE('',#448,#460,#566,.T.);
#523=EDGE_CURVE('',#461,#460,#567,.T.);
#524=EDGE_CURVE('',#461,#449,#568,.T.);
#525=EDGE_CURVE('',#462,#419,#569,.T.);
#526=EDGE_CURVE('',#462,#447,#570,.T.);
#527=EDGE_CURVE('',#460,#462,#167,.T.);
#528=EDGE_CURVE('',#423,#413,#168,.T.);
#529=EDGE_CURVE('',#414,#433,#169,.T.);
#530=EDGE_CURVE('',#455,#457,#170,.T.);
#531=EDGE_CURVE('',#456,#459,#171,.T.);
#532=EDGE_CURVE('',#458,#461,#172,.T.);
#533=LINE('',#828,#571);
#534=LINE('',#831,#572);
#535=LINE('',#833,#573);
#536=LINE('',#835,#574);
#537=LINE('',#837,#575);
#538=LINE('',#842,#576);
#539=LINE('',#846,#577);
#540=LINE('',#849,#578);
#541=LINE('',#851,#579);
#542=LINE('',#852,#580);
#543=LINE('',#854,#581);
#544=LINE('',#858,#582);
#545=LINE('',#862,#583);
#546=LINE('',#864,#584);
#547=LINE('',#866,#585);
#548=LINE('',#870,#586);
#549=LINE('',#874,#587);
#550=LINE('',#877,#588);
#551=LINE('',#879,#589);
#552=LINE('',#881,#590);
#553=LINE('',#882,#591);
#554=LINE('',#908,#592);
#555=LINE('',#918,#593);
#556=LINE('',#922,#594);
#557=LINE('',#930,#595);
#558=LINE('',#934,#596);
#559=LINE('',#936,#597);
#560=LINE('',#938,#598);
#561=LINE('',#940,#599);
#562=LINE('',#942,#600);
#563=LINE('',#944,#601);
#564=LINE('',#946,#602);
#565=LINE('',#950,#603);
#566=LINE('',#952,#604);
#567=LINE('',#954,#605);
#568=LINE('',#956,#606);
#569=LINE('',#958,#607);
#570=LINE('',#960,#608);
#571=VECTOR('',#671,1.);
#572=VECTOR('',#672,1.);
#573=VECTOR('',#673,1.);
#574=VECTOR('',#674,1.);
#575=VECTOR('',#677,1.);
#576=VECTOR('',#680,1.);
#577=VECTOR('',#685,1.);
#578=VECTOR('',#686,1.);
#579=VECTOR('',#687,1.);
#580=VECTOR('',#688,1.);
#581=VECTOR('',#689,1.);
#582=VECTOR('',#694,1.);
#583=VECTOR('',#699,1.);
#584=VECTOR('',#700,1.);
#585=VECTOR('',#701,1.);
#586=VECTOR('',#706,1.);
#587=VECTOR('',#711,1.);
#588=VECTOR('',#712,1.);
#589=VECTOR('',#713,1.);
#590=VECTOR('',#714,1.);
#591=VECTOR('',#715,1.);
#592=VECTOR('',#746,1.);
#593=VECTOR('',#761,1.);
#594=VECTOR('',#764,1.);
#595=VECTOR('',#771,1.);
#596=VECTOR('',#774,1.);
#597=VECTOR('',#777,1.);
#598=VECTOR('',#778,1.);
#599=VECTOR('',#781,1.);
#600=VECTOR('',#782,1.);
#601=VECTOR('',#783,1.);
#602=VECTOR('',#786,1.);
#603=VECTOR('',#789,1.);
#604=VECTOR('',#792,1.);
#605=VECTOR('',#793,1.);
#606=VECTOR('',#794,1.);
#607=VECTOR('',#797,1.);
#608=VECTOR('',#798,1.);
#609=AXIS2_PLACEMENT_3D('',#827,#669,#670);
#610=AXIS2_PLACEMENT_3D('',#836,#675,#676);
#611=AXIS2_PLACEMENT_3D('',#840,#678,#679);
#612=AXIS2_PLACEMENT_3D('',#844,#681,#682);
#613=AXIS2_PLACEMENT_3D('',#845,#683,#684);
#614=AXIS2_PLACEMENT_3D('',#855,#690,#691);
#615=AXIS2_PLACEMENT_3D('',#856,#692,#693);
#616=AXIS2_PLACEMENT_3D('',#860,#695,#696);
#617=AXIS2_PLACEMENT_3D('',#861,#697,#698);
#618=AXIS2_PLACEMENT_3D('',#867,#702,#703);
#619=AXIS2_PLACEMENT_3D('',#868,#704,#705);
#620=AXIS2_PLACEMENT_3D('',#872,#707,#708);
#621=AXIS2_PLACEMENT_3D('',#873,#709,#710);
#622=AXIS2_PLACEMENT_3D('',#883,#716,#717);
#623=AXIS2_PLACEMENT_3D('',#884,#718,#719);
#624=AXIS2_PLACEMENT_3D('',#886,#720,#721);
#625=AXIS2_PLACEMENT_3D('',#888,#722,#723);
#626=AXIS2_PLACEMENT_3D('',#889,#724,#725);
#627=AXIS2_PLACEMENT_3D('',#891,#726,#727);
#628=AXIS2_PLACEMENT_3D('',#893,#728,#729);
#629=AXIS2_PLACEMENT_3D('',#894,#730,#731);
#630=AXIS2_PLACEMENT_3D('',#896,#732,#733);
#631=AXIS2_PLACEMENT_3D('',#898,#734,#735);
#632=AXIS2_PLACEMENT_3D('',#899,#736,#737);
#633=AXIS2_PLACEMENT_3D('',#901,#738,#739);
#634=AXIS2_PLACEMENT_3D('',#903,#740,#741);
#635=AXIS2_PLACEMENT_3D('',#904,#742,#743);
#636=AXIS2_PLACEMENT_3D('',#906,#744,#745);
#637=AXIS2_PLACEMENT_3D('',#909,#747,#748);
#638=AXIS2_PLACEMENT_3D('',#910,#749,#750);
#639=AXIS2_PLACEMENT_3D('',#912,#751,#752);
#640=AXIS2_PLACEMENT_3D('',#914,#753,#754);
#641=AXIS2_PLACEMENT_3D('',#915,#755,#756);
#642=AXIS2_PLACEMENT_3D('',#916,#757,#758);
#643=AXIS2_PLACEMENT_3D('',#917,#759,#760);
#644=AXIS2_PLACEMENT_3D('',#920,#762,#763);
#645=AXIS2_PLACEMENT_3D('',#924,#765,#766);
#646=AXIS2_PLACEMENT_3D('',#926,#767,#768);
#647=AXIS2_PLACEMENT_3D('',#928,#769,#770);
#648=AXIS2_PLACEMENT_3D('',#932,#772,#773);
#649=AXIS2_PLACEMENT_3D('',#935,#775,#776);
#650=AXIS2_PLACEMENT_3D('',#939,#779,#780);
#651=AXIS2_PLACEMENT_3D('',#945,#784,#785);
#652=AXIS2_PLACEMENT_3D('',#948,#787,#788);
#653=AXIS2_PLACEMENT_3D('',#951,#790,#791);
#654=AXIS2_PLACEMENT_3D('',#957,#795,#796);
#655=AXIS2_PLACEMENT_3D('',#961,#799,#800);
#656=AXIS2_PLACEMENT_3D('',#962,#801,#802);
#657=AXIS2_PLACEMENT_3D('',#963,#803,#804);
#658=AXIS2_PLACEMENT_3D('',#964,#805,#806);
#659=AXIS2_PLACEMENT_3D('',#965,#807,#808);
#660=AXIS2_PLACEMENT_3D('',#966,#809,#810);
#661=AXIS2_PLACEMENT_3D('',#967,#811,#812);
#662=AXIS2_PLACEMENT_3D('',#968,#813,#814);
#663=AXIS2_PLACEMENT_3D('',#969,#815,#816);
#664=AXIS2_PLACEMENT_3D('',#970,#817,#818);
#665=AXIS2_PLACEMENT_3D('',#971,#819,#820);
#666=AXIS2_PLACEMENT_3D('',#972,#821,#822);
#667=AXIS2_PLACEMENT_3D('',#973,#823,#824);
#668=AXIS2_PLACEMENT_3D('',#974,#825,#826);
#669=DIRECTION('',(0.,0.,1.));
#670=DIRECTION('',(1.,0.,0.));
#671=DIRECTION('',(0.,0.,1.));
#672=DIRECTION('',(0.,-1.,0.));
#673=DIRECTION('',(0.,0.,-1.));
#674=DIRECTION('',(0.,1.,0.));
#675=DIRECTION('',(1.,0.,0.));
#676=DIRECTION('',(0.,-1.,0.));
#677=DIRECTION('',(0.,1.,0.));
#678=DIRECTION('',(0.,-1.,0.));
#679=DIRECTION('',(1.73472347597681E-16,0.,1.));
#680=DIRECTION('',(0.,1.,0.));
#681=DIRECTION('',(0.,-1.,0.));
#682=DIRECTION('',(1.73472347597681E-16,0.,1.));
#683=DIRECTION('',(0.,1.,0.));
#684=DIRECTION('',(1.,0.,0.));
#685=DIRECTION('',(0.972098930520047,0.,0.234571245641449));
#686=DIRECTION('',(0.,1.,0.));
#687=DIRECTION('',(-0.972098930520047,0.,-0.234571245641449));
#688=DIRECTION('',(0.972098930520047,0.,0.234571245641449));
#689=DIRECTION('',(0.,1.,0.));
#690=DIRECTION('',(-0.234571245641449,0.,0.972098930520047));
#691=DIRECTION('',(-0.972098930520047,0.,-0.234571245641449));
#692=DIRECTION('',(0.,-1.,0.));
#693=DIRECTION('',(0.,0.,1.));
#694=DIRECTION('',(0.,1.,0.));
#695=DIRECTION('',(0.,-1.,0.));
#696=DIRECTION('',(0.,0.,1.));
#697=DIRECTION('',(0.,1.,0.));
#698=DIRECTION('',(1.,0.,0.));
#699=DIRECTION('',(0.,0.,1.));
#700=DIRECTION('',(0.,1.,0.));
#701=DIRECTION('',(0.,0.,1.));
#702=DIRECTION('',(-1.,0.,0.));
#703=DIRECTION('',(0.,1.,0.));
#704=DIRECTION('',(0.,-1.,0.));
#705=DIRECTION('',(0.,0.,-1.));
#706=DIRECTION('',(0.,1.,0.));
#707=DIRECTION('',(0.,-1.,0.));
#708=DIRECTION('',(0.,0.,-1.));
#709=DIRECTION('',(0.,1.,0.));
#710=DIRECTION('',(1.,0.,0.));
#711=DIRECTION('',(0.,1.,0.));
#712=DIRECTION('',(0.972098930520047,0.,-0.234571245641449));
#713=DIRECTION('',(0.,-1.,0.));
#714=DIRECTION('',(-0.972098930520047,0.,0.234571245641449));
#715=DIRECTION('',(-0.972098930520047,0.,0.234571245641449));
#716=DIRECTION('',(-0.234571245641449,0.,-0.972098930520047));
#717=DIRECTION('',(0.972098930520047,0.,-0.234571245641449));
#718=DIRECTION('',(0.,-1.,0.));
#719=DIRECTION('',(0.,0.,-1.));
#720=DIRECTION('',(0.,-1.,0.));
#721=DIRECTION('',(0.,0.,-1.));
#722=DIRECTION('',(0.,1.,0.));
#723=DIRECTION('',(1.,0.,0.));
#724=DIRECTION('',(0.,-1.,0.));
#725=DIRECTION('',(0.,0.,-1.));
#726=DIRECTION('',(0.,-1.,0.));
#727=DIRECTION('',(0.,0.,-1.));
#728=DIRECTION('',(0.,1.,0.));
#729=DIRECTION('',(1.,0.,0.));
#730=DIRECTION('',(0.,-1.,0.));
#731=DIRECTION('',(0.,0.,-1.));
#732=DIRECTION('',(0.,-1.,0.));
#733=DIRECTION('',(0.,0.,-1.));
#734=DIRECTION('',(0.,1.,0.));
#735=DIRECTION('',(1.,0.,0.));
#736=DIRECTION('',(0.,-1.,0.));
#737=DIRECTION('',(0.,0.,-1.));
#738=DIRECTION('',(0.,-1.,0.));
#739=DIRECTION('',(0.,0.,-1.));
#740=DIRECTION('',(0.,1.,0.));
#741=DIRECTION('',(1.,0.,0.));
#742=DIRECTION('',(0.,-1.,0.));
#743=DIRECTION('',(-8.67361737988403E-17,0.,-1.));
#744=DIRECTION('',(0.,-1.,0.));
#745=DIRECTION('',(-8.67361737988403E-17,0.,-1.));
#746=DIRECTION('',(0.,1.,0.));
#747=DIRECTION('',(0.,1.,0.));
#748=DIRECTION('',(1.,0.,0.));
#749=DIRECTION('',(0.,-1.,0.));
#750=DIRECTION('',(0.,0.,-1.));
#751=DIRECTION('',(0.,-1.,0.));
#752=DIRECTION('',(0.,0.,-1.));
#753=DIRECTION('',(0.,1.,0.));
#754=DIRECTION('',(1.,0.,0.));
#755=DIRECTION('',(0.,-1.,0.));
#756=DIRECTION('',(-1.,0.,0.));
#757=DIRECTION('',(0.,-1.,0.));
#758=DIRECTION('',(-1.,0.,0.));
#759=DIRECTION('',(0.,-1.,0.));
#760=DIRECTION('',(-1.,0.,0.));
#761=DIRECTION('',(1.,0.,0.));
#762=DIRECTION('',(0.,1.,0.));
#763=DIRECTION('',(-1.,0.,0.));
#764=DIRECTION('',(-7.30409884621813E-16,0.,-1.));
#765=DIRECTION('',(0.,1.,0.));
#766=DIRECTION('',(-1.,0.,0.));
#767=DIRECTION('',(0.,1.,0.));
#768=DIRECTION('',(6.12323399573676E-17,0.,-1.));
#769=DIRECTION('',(0.,1.,0.));
#770=DIRECTION('',(-1.,0.,0.));
#771=DIRECTION('',(7.30409884621813E-16,0.,-1.));
#772=DIRECTION('',(0.,1.,0.));
#773=DIRECTION('',(-1.,0.,0.));
#774=DIRECTION('',(-1.,0.,0.));
#775=DIRECTION('',(0.,-1.,0.));
#776=DIRECTION('',(-1.,0.,0.));
#777=DIRECTION('',(0.,-1.,0.));
#778=DIRECTION('',(-1.,0.,0.));
#779=DIRECTION('',(0.,0.,-1.));
#780=DIRECTION('',(1.,0.,0.));
#781=DIRECTION('',(0.,-1.,0.));
#782=DIRECTION('',(7.30409884621813E-16,0.,-1.));
#783=DIRECTION('',(0.,1.,0.));
#784=DIRECTION('',(1.,0.,7.30409884621813E-16));
#785=DIRECTION('',(-7.30318583386236E-16,0.,1.));
#786=DIRECTION('',(0.,-1.,0.));
#787=DIRECTION('',(0.,1.,0.));
#788=DIRECTION('',(6.12323399573676E-17,0.,-1.));
#789=DIRECTION('',(0.,1.,0.));
#790=DIRECTION('',(0.,1.,0.));
#791=DIRECTION('',(1.,0.,0.));
#792=DIRECTION('',(0.,-1.,0.));
#793=DIRECTION('',(-7.30409884621813E-16,0.,-1.));
#794=DIRECTION('',(0.,1.,0.));
#795=DIRECTION('',(1.,0.,-7.30409884621813E-16));
#796=DIRECTION('',(7.30318583386236E-16,0.,1.));
#797=DIRECTION('',(1.,0.,0.));
#798=DIRECTION('',(0.,1.,0.));
#799=DIRECTION('',(0.,0.,1.));
#800=DIRECTION('',(-1.,0.,0.));
#801=DIRECTION('',(0.,-1.,0.));
#802=DIRECTION('',(1.,0.,0.));
#803=DIRECTION('',(0.,1.,0.));
#804=DIRECTION('',(1.,0.,0.));
#805=DIRECTION('',(0.,1.,0.));
#806=DIRECTION('',(1.,0.,0.));
#807=DIRECTION('',(0.,-1.,0.));
#808=DIRECTION('',(1.,0.,0.));
#809=DIRECTION('',(0.,-1.,0.));
#810=DIRECTION('',(1.,0.,0.));
#811=DIRECTION('',(0.,-1.,0.));
#812=DIRECTION('',(1.,0.,0.));
#813=DIRECTION('',(0.,1.,0.));
#814=DIRECTION('',(1.,0.,0.));
#815=DIRECTION('',(0.,1.,0.));
#816=DIRECTION('',(1.,0.,0.));
#817=DIRECTION('',(0.,1.,0.));
#818=DIRECTION('',(1.,0.,0.));
#819=DIRECTION('',(0.,1.,0.));
#820=DIRECTION('',(1.,0.,0.));
#821=DIRECTION('',(0.,1.,0.));
#822=DIRECTION('',(1.,0.,0.));
#823=DIRECTION('',(0.,1.,0.));
#824=DIRECTION('',(1.,0.,0.));
#825=DIRECTION('',(0.,1.,0.));
#826=DIRECTION('',(1.,0.,0.));
#827=CARTESIAN_POINT('',(0.,0.,0.));
#828=CARTESIAN_POINT('',(34.,-289.3,-47.6098872680505));
#829=CARTESIAN_POINT('',(34.,-289.3,-22.2150680929618));
#830=CARTESIAN_POINT('',(34.,-289.3,22.2150680929618));
#831=CARTESIAN_POINT('',(34.,-297.3,-22.2150680929618));
#832=CARTESIAN_POINT('',(34.,-297.3,-22.2150680929618));
#833=CARTESIAN_POINT('',(34.,-297.3,47.6098872680504));
#834=CARTESIAN_POINT('',(34.,-297.3,22.2150680929618));
#835=CARTESIAN_POINT('',(34.,-297.3,22.2150680929618));
#836=CARTESIAN_POINT('',(34.,-297.3,47.6098872680504));
#837=CARTESIAN_POINT('',(34.6250510760872,-297.3,-47.4643561363));
#838=CARTESIAN_POINT('',(34.6250510760872,-289.3,-47.4643561363));
#839=CARTESIAN_POINT('',(34.6250510760872,-279.3,-47.4643561363));
#840=CARTESIAN_POINT('',(25.2422012504293,-289.3,-8.58039891549808));
#841=CARTESIAN_POINT('',(25.2422012504293,-289.3,-48.5803989154981));
#842=CARTESIAN_POINT('',(25.2422012504293,-289.3,-48.5803989154981));
#843=CARTESIAN_POINT('',(25.2422012504293,-279.3,-48.5803989154981));
#844=CARTESIAN_POINT('',(25.2422012504293,-279.3,-8.58039891549808));
#845=CARTESIAN_POINT('',(25.2422012504293,-297.3,-8.58039891549808));
#846=CARTESIAN_POINT('',(34.6250510760872,-297.3,-47.4643561363));
#847=CARTESIAN_POINT('',(58.691424912829,-297.3,-41.6570467033627));
#848=CARTESIAN_POINT('',(99.3457124564145,-297.3,-31.8470092983604));
#849=CARTESIAN_POINT('',(58.691424912829,-297.3,-41.6570467033627));
#850=CARTESIAN_POINT('',(58.691424912829,-289.3,-41.6570467033627));
#851=CARTESIAN_POINT('',(34.6250510760872,-289.3,-47.4643561363));
#852=CARTESIAN_POINT('',(34.6250510760872,-279.3,-47.4643561363));
#853=CARTESIAN_POINT('',(99.3457124564145,-279.3,-31.8470092983604));
#854=CARTESIAN_POINT('',(99.3457124564145,-297.3,-31.8470092983604));
#855=CARTESIAN_POINT('',(34.6250510760872,-297.3,-47.4643561363));
#856=CARTESIAN_POINT('',(97.,-279.3,-22.1260199931599));
#857=CARTESIAN_POINT('',(107.,-279.3,-22.1260199931599));
#858=CARTESIAN_POINT('',(107.,-297.3,-22.1260199931599));
#859=CARTESIAN_POINT('',(107.,-297.3,-22.1260199931599));
#860=CARTESIAN_POINT('',(97.,-297.3,-22.1260199931599));
#861=CARTESIAN_POINT('',(97.,-297.3,-22.1260199931599));
#862=CARTESIAN_POINT('',(107.,-279.3,0.));
#863=CARTESIAN_POINT('',(107.,-279.3,22.1260199931599));
#864=CARTESIAN_POINT('',(107.,-297.3,22.1260199931599));
#865=CARTESIAN_POINT('',(107.,-297.3,22.1260199931599));
#866=CARTESIAN_POINT('',(107.,-297.3,-22.1260199931599));
#867=CARTESIAN_POINT('',(107.,-297.3,0.));
#868=CARTESIAN_POINT('',(97.,-279.3,22.1260199931599));
#869=CARTESIAN_POINT('',(99.3457124564145,-279.3,31.8470092983604));
#870=CARTESIAN_POINT('',(99.3457124564145,-297.3,31.8470092983604));
#871=CARTESIAN_POINT('',(99.3457124564145,-297.3,31.8470092983604));
#872=CARTESIAN_POINT('',(97.,-297.3,22.1260199931599));
#873=CARTESIAN_POINT('',(97.,-297.3,22.1260199931599));
#874=CARTESIAN_POINT('',(34.6250510760873,-297.3,47.4643561363));
#875=CARTESIAN_POINT('',(34.6250510760873,-289.3,47.4643561363));
#876=CARTESIAN_POINT('',(34.6250510760873,-279.3,47.4643561363));
#877=CARTESIAN_POINT('',(99.3457124564145,-289.3,31.8470092983604));
#878=CARTESIAN_POINT('',(58.691424912829,-289.3,41.6570467033628));
#879=CARTESIAN_POINT('',(58.691424912829,-297.3,41.6570467033627));
#880=CARTESIAN_POINT('',(58.691424912829,-297.3,41.6570467033627));
#881=CARTESIAN_POINT('',(99.3457124564145,-297.3,31.8470092983604));
#882=CARTESIAN_POINT('',(99.3457124564145,-279.3,31.8470092983604));
#883=CARTESIAN_POINT('',(99.3457124564145,-297.3,31.8470092983604));
#884=CARTESIAN_POINT('',(46.93,-297.3,-23.57));
#885=CARTESIAN_POINT('',(46.93,-297.3,-26.57));
#886=CARTESIAN_POINT('',(46.93,-279.3,-23.57));
#887=CARTESIAN_POINT('',(46.93,-279.3,-26.57));
#888=CARTESIAN_POINT('',(46.93,-297.3,-23.57));
#889=CARTESIAN_POINT('',(70.5,-297.3,0.));
#890=CARTESIAN_POINT('',(70.5,-297.3,-26.));
#891=CARTESIAN_POINT('',(70.5,-279.3,0.));
#892=CARTESIAN_POINT('',(70.5,-279.3,-26.));
#893=CARTESIAN_POINT('',(70.5,-297.3,0.));
#894=CARTESIAN_POINT('',(94.07,-297.3,23.57));
#895=CARTESIAN_POINT('',(94.07,-297.3,20.57));
#896=CARTESIAN_POINT('',(94.07,-279.3,23.57));
#897=CARTESIAN_POINT('',(94.07,-279.3,20.57));
#898=CARTESIAN_POINT('',(94.07,-297.3,23.57));
#899=CARTESIAN_POINT('',(46.93,-297.3,23.57));
#900=CARTESIAN_POINT('',(46.93,-297.3,20.57));
#901=CARTESIAN_POINT('',(46.93,-279.3,23.57));
#902=CARTESIAN_POINT('',(46.93,-279.3,20.57));
#903=CARTESIAN_POINT('',(46.93,-297.3,23.57));
#904=CARTESIAN_POINT('',(25.2422012504293,-289.3,8.58039891549808));
#905=CARTESIAN_POINT('',(25.2422012504293,-289.3,48.5803989154981));
#906=CARTESIAN_POINT('',(25.2422012504293,-279.3,8.58039891549808));
#907=CARTESIAN_POINT('',(25.2422012504293,-279.3,48.5803989154981));
#908=CARTESIAN_POINT('',(25.2422012504293,-289.3,48.5803989154981));
#909=CARTESIAN_POINT('',(25.2422012504293,-297.3,8.58039891549808));
#910=CARTESIAN_POINT('',(94.07,-297.3,-23.57));
#911=CARTESIAN_POINT('',(94.07,-297.3,-26.57));
#912=CARTESIAN_POINT('',(94.07,-279.3,-23.57));
#913=CARTESIAN_POINT('',(94.07,-279.3,-26.57));
#914=CARTESIAN_POINT('',(94.07,-297.3,-23.57));
#915=CARTESIAN_POINT('',(54.,-297.3,-22.2150680929618));
#916=CARTESIAN_POINT('',(54.,-297.3,22.2150680929618));
#917=CARTESIAN_POINT('',(25.2422012504293,-297.3,-8.58039891549808));
#918=CARTESIAN_POINT('',(5.,-279.3,-48.5803989154981));
#919=CARTESIAN_POINT('',(10.,-279.3,-48.5803989154981));
#920=CARTESIAN_POINT('',(10.,-279.3,-43.5803989154981));
#921=CARTESIAN_POINT('',(5.,-279.3,-43.5803989154981));
#922=CARTESIAN_POINT('',(5.00000000000002,-279.3,-29.5803989154981));
#923=CARTESIAN_POINT('',(5.00000000000002,-279.3,-33.5410196624968));
#924=CARTESIAN_POINT('',(10.,-279.3,-33.5410196624969));
#925=CARTESIAN_POINT('',(8.57142857142858,-279.3,-28.7494454249973));
#926=CARTESIAN_POINT('',(1.38777878078145E-14,-279.3,0.));
#927=CARTESIAN_POINT('',(8.57142857142858,-279.3,28.7494454249973));
#928=CARTESIAN_POINT('',(10.,-279.3,33.5410196624969));
#929=CARTESIAN_POINT('',(5.00000000000002,-279.3,33.5410196624968));
#930=CARTESIAN_POINT('',(5.,-279.3,48.5803989154981));
#931=CARTESIAN_POINT('',(5.,-279.3,43.5803989154981));
#932=CARTESIAN_POINT('',(10.,-279.3,43.5803989154981));
#933=CARTESIAN_POINT('',(10.,-279.3,48.5803989154981));
#934=CARTESIAN_POINT('',(25.2422012504293,-279.3,48.5803989154981));
#935=CARTESIAN_POINT('',(25.2422012504293,-279.3,-8.58039891549808));
#936=CARTESIAN_POINT('',(10.,-289.3,48.5803989154981));
#937=CARTESIAN_POINT('',(10.,-289.3,48.5803989154981));
#938=CARTESIAN_POINT('',(25.2422012504293,-289.3,48.5803989154981));
#939=CARTESIAN_POINT('',(25.2422012504293,-289.3,48.5803989154981));
#940=CARTESIAN_POINT('',(5.00000000000002,-289.3,33.5410196624968));
#941=CARTESIAN_POINT('',(5.00000000000002,-289.3,33.5410196624968));
#942=CARTESIAN_POINT('',(5.,-289.3,48.5803989154981));
#943=CARTESIAN_POINT('',(5.,-289.3,43.5803989154981));
#944=CARTESIAN_POINT('',(5.,-289.3,43.5803989154981));
#945=CARTESIAN_POINT('',(5.,-289.3,48.5803989154981));
#946=CARTESIAN_POINT('',(8.57142857142858,-289.3,-28.7494454249973));
#947=CARTESIAN_POINT('',(8.57142857142858,-289.3,-28.7494454249973));
#948=CARTESIAN_POINT('',(1.38777878078145E-14,-289.3,0.));
#949=CARTESIAN_POINT('',(8.57142857142858,-289.3,28.7494454249973));
#950=CARTESIAN_POINT('',(8.57142857142858,-289.3,28.7494454249973));
#951=CARTESIAN_POINT('',(1.38777878078145E-14,-289.3,0.));
#952=CARTESIAN_POINT('',(5.,-289.3,-43.5803989154981));
#953=CARTESIAN_POINT('',(5.,-289.3,-43.5803989154981));
#954=CARTESIAN_POINT('',(5.00000000000002,-289.3,-29.5803989154981));
#955=CARTESIAN_POINT('',(5.00000000000002,-289.3,-33.5410196624968));
#956=CARTESIAN_POINT('',(5.00000000000002,-289.3,-33.5410196624968));
#957=CARTESIAN_POINT('',(5.00000000000002,-289.3,-29.5803989154981));
#958=CARTESIAN_POINT('',(5.,-289.3,-48.5803989154981));
#959=CARTESIAN_POINT('',(10.,-289.3,-48.5803989154981));
#960=CARTESIAN_POINT('',(10.,-289.3,-48.5803989154981));
#961=CARTESIAN_POINT('',(5.,-289.3,-48.5803989154981));
#962=CARTESIAN_POINT('',(10.,-289.3,-43.5803989154981));
#963=CARTESIAN_POINT('',(54.,-289.3,-22.2150680929618));
#964=CARTESIAN_POINT('',(54.,-289.3,22.2150680929618));
#965=CARTESIAN_POINT('',(10.,-289.3,43.5803989154981));
#966=CARTESIAN_POINT('',(10.,-289.3,33.5410196624969));
#967=CARTESIAN_POINT('',(10.,-289.3,-33.5410196624969));
#968=CARTESIAN_POINT('',(1.38777878078145E-14,-289.3,0.));
#969=CARTESIAN_POINT('',(54.,-297.3,-22.2150680929618));
#970=CARTESIAN_POINT('',(54.,-297.3,22.2150680929618));
#971=CARTESIAN_POINT('',(10.,-289.3,-43.5803989154981));
#972=CARTESIAN_POINT('',(10.,-289.3,-33.5410196624969));
#973=CARTESIAN_POINT('',(10.,-289.3,33.5410196624969));
#974=CARTESIAN_POINT('',(10.,-289.3,43.5803989154981));
#975=(
GEOMETRIC_REPRESENTATION_CONTEXT(3)
GLOBAL_UNCERTAINTY_ASSIGNED_CONTEXT((#976))
GLOBAL_UNIT_ASSIGNED_CONTEXT((#982,#978,#977))
REPRESENTATION_CONTEXT('\X2\041A04400435043F043B0435043D04380435\X0\2',
'TOP_LEVEL_ASSEMBLY_PART')
);
#976=UNCERTAINTY_MEASURE_WITH_UNIT(LENGTH_MEASURE(2.E-5),#982,
'DISTANCE_ACCURACY_VALUE','Maximum Tolerance applied to model');
#977=(
NAMED_UNIT(*)
SI_UNIT($,.STERADIAN.)
SOLID_ANGLE_UNIT()
);
#978=(
CONVERSION_BASED_UNIT('DEGREE',#980)
NAMED_UNIT(#979)
PLANE_ANGLE_UNIT()
);
#979=DIMENSIONAL_EXPONENTS(0.,0.,0.,0.,0.,0.,0.);
#980=PLANE_ANGLE_MEASURE_WITH_UNIT(PLANE_ANGLE_MEASURE(0.0174532925),#981);
#981=(
NAMED_UNIT(*)
PLANE_ANGLE_UNIT()
SI_UNIT($,.RADIAN.)
);
#982=(
LENGTH_UNIT()
NAMED_UNIT(*)
SI_UNIT(.MILLI.,.METRE.)
);
ENDSEC;
END-ISO-10303-21;
