ISO-10303-21;
HEADER;
/* Generated by software containing ST-Developer
 * from STEP Tools, Inc. (www.steptools.com) 
 */
/* OPTION: using custom schema-name function */

FILE_DESCRIPTION(
/* description */ (''),
/* implementation_level */ '2;1');

FILE_NAME(
/* name */ '\X2\041A04400435043F043B0435043D04380435\X0\4.stp',
/* time_stamp */ '2026-06-25T22:04:36+03:00',
/* author */ (''),
/* organization */ (''),
/* preprocessor_version */ 'ST-DEVELOPER v16',
/* originating_system */ 'SIEMENS PLM Software NX 10.0',
/* authorisation */ '');

FILE_SCHEMA (('AP203_CONFIGURATION_CONTROLLED_3D_DESIGN_OF_MECHANICAL_PARTS_AND_ASSEMBLIES_MIM_LF { 1 0 10303 403 2 1 2}'));
ENDSEC;

DATA;
#10=PROPERTY_DEFINITION_REPRESENTATION(#14,#12);
#11=PROPERTY_DEFINITION_REPRESENTATION(#15,#13);
#12=REPRESENTATION('',(#16),#1321);
#13=REPRESENTATION('',(#17),#1321);
#14=PROPERTY_DEFINITION('pmi validation property','',#89);
#15=PROPERTY_DEFINITION('pmi validation property','',#89);
#16=VALUE_REPRESENTATION_ITEM('number of annotations',COUNT_MEASURE(0.));
#17=VALUE_REPRESENTATION_ITEM('number of views',COUNT_MEASURE(0.));
#18=SHAPE_REPRESENTATION_RELATIONSHIP('None',
'relationship between Hi6C8432B1731c-None and Hi6C8432B1731c-None',#100,
#19);
#19=ADVANCED_BREP_SHAPE_REPRESENTATION('Hi6C8432B1731c-None',(#101),#1321);
#20=CC_DESIGN_APPROVAL(#32,(#90));
#21=CC_DESIGN_APPROVAL(#33,(#92));
#22=CC_DESIGN_APPROVAL(#34,(#39));
#23=APPROVAL_PERSON_ORGANIZATION(#77,#32,#26);
#24=APPROVAL_PERSON_ORGANIZATION(#78,#33,#27);
#25=APPROVAL_PERSON_ORGANIZATION(#79,#34,#28);
#26=APPROVAL_ROLE('approver');
#27=APPROVAL_ROLE('approver');
#28=APPROVAL_ROLE('approver');
#29=APPROVAL_DATE_TIME(#47,#32);
#30=APPROVAL_DATE_TIME(#48,#33);
#31=APPROVAL_DATE_TIME(#49,#34);
#32=APPROVAL(#35,' ');
#33=APPROVAL(#36,' ');
#34=APPROVAL(#37,' ');
#35=APPROVAL_STATUS('not_yet_approved');
#36=APPROVAL_STATUS('not_yet_approved');
#37=APPROVAL_STATUS('not_yet_approved');
#38=CC_DESIGN_SECURITY_CLASSIFICATION(#39,(#92));
#39=SECURITY_CLASSIFICATION(' ',' ',#40);
#40=SECURITY_CLASSIFICATION_LEVEL('confidential');
#41=CC_DESIGN_DATE_AND_TIME_ASSIGNMENT(#45,#43,(#90));
#42=CC_DESIGN_DATE_AND_TIME_ASSIGNMENT(#46,#44,(#39));
#43=DATE_TIME_ROLE('creation_date');
#44=DATE_TIME_ROLE('classification_date');
#45=DATE_AND_TIME(#60,#50);
#46=DATE_AND_TIME(#61,#51);
#47=DATE_AND_TIME(#62,#52);
#48=DATE_AND_TIME(#63,#53);
#49=DATE_AND_TIME(#64,#54);
#50=LOCAL_TIME(0,0,0.,#55);
#51=LOCAL_TIME(0,0,0.,#56);
#52=LOCAL_TIME(0,0,0.,#57);
#53=LOCAL_TIME(0,0,0.,#58);
#54=LOCAL_TIME(0,0,0.,#59);
#55=COORDINATED_UNIVERSAL_TIME_OFFSET(0,0,.BEHIND.);
#56=COORDINATED_UNIVERSAL_TIME_OFFSET(0,0,.BEHIND.);
#57=COORDINATED_UNIVERSAL_TIME_OFFSET(0,0,.BEHIND.);
#58=COORDINATED_UNIVERSAL_TIME_OFFSET(0,0,.BEHIND.);
#59=COORDINATED_UNIVERSAL_TIME_OFFSET(0,0,.BEHIND.);
#60=CALENDAR_DATE(0,1,1);
#61=CALENDAR_DATE(0,1,1);
#62=CALENDAR_DATE(0,1,1);
#63=CALENDAR_DATE(0,1,1);
#64=CALENDAR_DATE(0,1,1);
#65=CC_DESIGN_PERSON_AND_ORGANIZATION_ASSIGNMENT(#73,#69,(#90,#92));
#66=CC_DESIGN_PERSON_AND_ORGANIZATION_ASSIGNMENT(#74,#70,(#94));
#67=CC_DESIGN_PERSON_AND_ORGANIZATION_ASSIGNMENT(#75,#71,(#92));
#68=CC_DESIGN_PERSON_AND_ORGANIZATION_ASSIGNMENT(#76,#72,(#39));
#69=PERSON_AND_ORGANIZATION_ROLE('creator');
#70=PERSON_AND_ORGANIZATION_ROLE('design_owner');
#71=PERSON_AND_ORGANIZATION_ROLE('design_supplier');
#72=PERSON_AND_ORGANIZATION_ROLE('classification_officer');
#73=PERSON_AND_ORGANIZATION(#87,#80);
#74=PERSON_AND_ORGANIZATION(#87,#81);
#75=PERSON_AND_ORGANIZATION(#87,#82);
#76=PERSON_AND_ORGANIZATION(#87,#83);
#77=PERSON_AND_ORGANIZATION(#87,#84);
#78=PERSON_AND_ORGANIZATION(#87,#85);
#79=PERSON_AND_ORGANIZATION(#87,#86);
#80=ORGANIZATION(' ',' ',' ');
#81=ORGANIZATION(' ',' ',' ');
#82=ORGANIZATION(' ',' ',' ');
#83=ORGANIZATION(' ',' ',' ');
#84=ORGANIZATION(' ',' ',' ');
#85=ORGANIZATION(' ',' ',' ');
#86=ORGANIZATION(' ',' ',' ');
#87=PERSON(' ',' ',' ',(' '),$,$);
#88=SHAPE_DEFINITION_REPRESENTATION(#89,#100);
#89=PRODUCT_DEFINITION_SHAPE('','',#90);
#90=PRODUCT_DEFINITION(' ','',#92,#91);
#91=DESIGN_CONTEXT('',#99,'design');
#92=PRODUCT_DEFINITION_FORMATION_WITH_SPECIFIED_SOURCE(' ',' ',#94,
 .NOT_KNOWN.);
#93=PRODUCT_RELATED_PRODUCT_CATEGORY('detail','',(#94));
#94=PRODUCT('Hi6C8432B1731c','Hi6C8432B1731c',' ',(#97));
#95=PRODUCT_CATEGORY('part',' ');
#96=PRODUCT_CATEGORY(' ','');
#97=MECHANICAL_CONTEXT(' ',#99,'mechanical');
#98=APPLICATION_PROTOCOL_DEFINITION('international standard',
'config_control_design',2010,#99);
#99=APPLICATION_CONTEXT(
'configuration controlled 3D designs of mechanical parts and assemblie
s');
#100=SHAPE_REPRESENTATION('Hi6C8432B1731c-None',(#764),#1321);
#101=MANIFOLD_SOLID_BREP('',#102);
#102=CLOSED_SHELL('',(#237,#238,#239,#240,#241,#242,#243,#244,#245,#246,
#247,#248,#249,#250,#251,#252,#253,#254,#255,#256,#257,#258,#259,#260,#261,
#262,#263,#264,#265,#266,#267,#268,#269,#270,#271,#272,#273));
#103=B_SPLINE_SURFACE_WITH_KNOTS('',1,3,((#1300,#1301,#1302,#1303),(#1304,
#1305,#1306,#1307)),.UNSPECIFIED.,.F.,.F.,.F.,(2,2),(4,4),(0.,1.),(0.,1.),
 .UNSPECIFIED.);
#104=B_SPLINE_SURFACE_WITH_KNOTS('',1,3,((#1313,#1314,#1315,#1316),(#1317,
#1318,#1319,#1320)),.UNSPECIFIED.,.F.,.F.,.F.,(2,2),(4,4),(0.,1.),(0.,1.),
 .UNSPECIFIED.);
#105=CONICAL_SURFACE('',#839,3.5,60.);
#106=CONICAL_SURFACE('',#840,1.65,45.);
#107=CONICAL_SURFACE('',#841,1.65,45.);
#108=CONICAL_SURFACE('',#842,1.65,45.);
#109=PLANE('',#775);
#110=PLANE('',#780);
#111=PLANE('',#785);
#112=PLANE('',#789);
#113=PLANE('',#794);
#114=PLANE('',#804);
#115=PLANE('',#808);
#116=PLANE('',#813);
#117=PLANE('',#821);
#118=PLANE('',#826);
#119=FACE_OUTER_BOUND('',#327,.T.);
#120=FACE_OUTER_BOUND('',#328,.T.);
#121=FACE_OUTER_BOUND('',#329,.T.);
#122=FACE_OUTER_BOUND('',#330,.T.);
#123=FACE_OUTER_BOUND('',#333,.T.);
#124=FACE_OUTER_BOUND('',#334,.T.);
#125=FACE_OUTER_BOUND('',#335,.T.);
#126=FACE_OUTER_BOUND('',#338,.T.);
#127=FACE_OUTER_BOUND('',#339,.T.);
#128=FACE_OUTER_BOUND('',#340,.T.);
#129=FACE_OUTER_BOUND('',#343,.T.);
#130=FACE_OUTER_BOUND('',#344,.T.);
#131=FACE_OUTER_BOUND('',#345,.T.);
#132=FACE_OUTER_BOUND('',#348,.T.);
#133=FACE_OUTER_BOUND('',#349,.T.);
#134=FACE_OUTER_BOUND('',#350,.T.);
#135=FACE_OUTER_BOUND('',#355,.T.);
#136=FACE_OUTER_BOUND('',#356,.T.);
#137=FACE_OUTER_BOUND('',#357,.T.);
#138=FACE_OUTER_BOUND('',#358,.T.);
#139=FACE_OUTER_BOUND('',#367,.T.);
#140=FACE_OUTER_BOUND('',#368,.T.);
#141=FACE_OUTER_BOUND('',#369,.T.);
#142=FACE_OUTER_BOUND('',#370,.T.);
#143=B_SPLINE_CURVE_WITH_KNOTS('',3,(#1057,#1058,#1059,#1060,#1061,#1062,
#1063,#1064,#1065,#1066,#1067,#1068,#1069,#1070,#1071,#1072,#1073,#1074,
#1075,#1076,#1077,#1078,#1079,#1080,#1081,#1082),.UNSPECIFIED.,.T.,.F.,
(2,2,2,2,2,2,2,2,2,2,2,2,2,2,2),(-0.0625000000000002,0.,0.0625000000000014,
0.125000000000003,0.250000000000003,0.375000000000003,0.437500000000003,
0.500000000000002,0.562500000000002,0.625000000000001,0.75,0.874999999999999,
0.9375,1.,1.0625),.UNSPECIFIED.);
#144=B_SPLINE_CURVE_WITH_KNOTS('',3,(#1093,#1094,#1095,#1096,#1097,#1098,
#1099,#1100,#1101,#1102,#1103,#1104,#1105,#1106,#1107,#1108,#1109,#1110,
#1111,#1112,#1113,#1114,#1115,#1116,#1117,#1118),.UNSPECIFIED.,.T.,.F.,
(2,2,2,2,2,2,2,2,2,2,2,2,2,2,2),(-0.0624999999999984,0.,0.0625000000000012,
0.125000000000003,0.250000000000003,0.375000000000004,0.437500000000004,
0.500000000000004,0.562500000000004,0.625000000000004,0.750000000000004,
0.875000000000003,0.937500000000002,1.,1.0625),.UNSPECIFIED.);
#145=B_SPLINE_CURVE_WITH_KNOTS('',3,(#1262,#1263,#1264,#1265),
 .UNSPECIFIED.,.F.,.F.,(4,4),(0.,1.),.UNSPECIFIED.);
#146=B_SPLINE_CURVE_WITH_KNOTS('',3,(#1270,#1271,#1272,#1273),
 .UNSPECIFIED.,.F.,.F.,(4,4),(0.,1.),.UNSPECIFIED.);
#147=B_SPLINE_CURVE_WITH_KNOTS('',3,(#1275,#1276,#1277,#1278),
 .UNSPECIFIED.,.F.,.F.,(4,4),(0.,1.),.UNSPECIFIED.);
#148=B_SPLINE_CURVE_WITH_KNOTS('',3,(#1281,#1282,#1283,#1284),
 .UNSPECIFIED.,.F.,.F.,(4,4),(0.,1.),.UNSPECIFIED.);
#149=B_SPLINE_CURVE_WITH_KNOTS('',1,(#1295,#1296),.UNSPECIFIED.,.F.,.F.,
(2,2),(0.,1.),.UNSPECIFIED.);
#150=B_SPLINE_CURVE_WITH_KNOTS('',1,(#1297,#1298),.UNSPECIFIED.,.F.,.F.,
(2,2),(0.,1.),.UNSPECIFIED.);
#151=B_SPLINE_CURVE_WITH_KNOTS('',1,(#1308,#1309),.UNSPECIFIED.,.F.,.F.,
(2,2),(0.,1.),.UNSPECIFIED.);
#152=B_SPLINE_CURVE_WITH_KNOTS('',1,(#1310,#1311),.UNSPECIFIED.,.F.,.F.,
(2,2),(0.,1.),.UNSPECIFIED.);
#153=LINE('',#1052,#195);
#154=LINE('',#1056,#196);
#155=LINE('',#1088,#197);
#156=LINE('',#1092,#198);
#157=LINE('',#1121,#199);
#158=LINE('',#1126,#200);
#159=LINE('',#1128,#201);
#160=LINE('',#1130,#202);
#161=LINE('',#1132,#203);
#162=LINE('',#1137,#204);
#163=LINE('',#1141,#205);
#164=LINE('',#1143,#206);
#165=LINE('',#1148,#207);
#166=LINE('',#1150,#208);
#167=LINE('',#1152,#209);
#168=LINE('',#1154,#210);
#169=LINE('',#1158,#211);
#170=LINE('',#1164,#212);
#171=LINE('',#1166,#213);
#172=LINE('',#1168,#214);
#173=LINE('',#1172,#215);
#174=LINE('',#1176,#216);
#175=LINE('',#1178,#217);
#176=LINE('',#1180,#218);
#177=LINE('',#1184,#219);
#178=LINE('',#1190,#220);
#179=LINE('',#1192,#221);
#180=LINE('',#1194,#222);
#181=LINE('',#1198,#223);
#182=LINE('',#1204,#224);
#183=LINE('',#1210,#225);
#184=LINE('',#1214,#226);
#185=LINE('',#1216,#227);
#186=LINE('',#1218,#228);
#187=LINE('',#1222,#229);
#188=LINE('',#1226,#230);
#189=LINE('',#1228,#231);
#190=LINE('',#1230,#232);
#191=LINE('',#1234,#233);
#192=LINE('',#1240,#234);
#193=LINE('',#1242,#235);
#194=LINE('',#1244,#236);
#195=VECTOR('',#853,1.);
#196=VECTOR('',#856,1.);
#197=VECTOR('',#861,1.);
#198=VECTOR('',#864,1.);
#199=VECTOR('',#867,1.);
#200=VECTOR('',#870,1.);
#201=VECTOR('',#871,1.);
#202=VECTOR('',#872,1.);
#203=VECTOR('',#873,1.);
#204=VECTOR('',#878,1.);
#205=VECTOR('',#881,1.);
#206=VECTOR('',#884,1.);
#207=VECTOR('',#887,1.);
#208=VECTOR('',#888,1.);
#209=VECTOR('',#889,1.);
#210=VECTOR('',#890,1.);
#211=VECTOR('',#895,1.);
#212=VECTOR('',#902,1.);
#213=VECTOR('',#903,1.);
#214=VECTOR('',#904,1.);
#215=VECTOR('',#909,1.);
#216=VECTOR('',#914,1.);
#217=VECTOR('',#915,1.);
#218=VECTOR('',#916,1.);
#219=VECTOR('',#921,1.);
#220=VECTOR('',#928,1.);
#221=VECTOR('',#929,1.);
#222=VECTOR('',#930,1.);
#223=VECTOR('',#935,1.);
#224=VECTOR('',#942,1.);
#225=VECTOR('',#949,1.);
#226=VECTOR('',#954,1.);
#227=VECTOR('',#955,1.);
#228=VECTOR('',#956,1.);
#229=VECTOR('',#961,1.);
#230=VECTOR('',#966,1.);
#231=VECTOR('',#967,1.);
#232=VECTOR('',#968,1.);
#233=VECTOR('',#973,1.);
#234=VECTOR('',#980,1.);
#235=VECTOR('',#981,1.);
#236=VECTOR('',#982,1.);
#237=ADVANCED_FACE('',(#295,#296),#274,.F.);
#238=ADVANCED_FACE('',(#297,#298),#275,.T.);
#239=ADVANCED_FACE('',(#299,#300),#276,.T.);
#240=ADVANCED_FACE('',(#119),#109,.F.);
#241=ADVANCED_FACE('',(#120),#277,.F.);
#242=ADVANCED_FACE('',(#121),#110,.F.);
#243=ADVANCED_FACE('',(#122),#278,.F.);
#244=ADVANCED_FACE('',(#301,#302),#111,.F.);
#245=ADVANCED_FACE('',(#123),#279,.T.);
#246=ADVANCED_FACE('',(#124),#112,.F.);
#247=ADVANCED_FACE('',(#125),#280,.T.);
#248=ADVANCED_FACE('',(#303,#304),#113,.F.);
#249=ADVANCED_FACE('',(#126),#281,.T.);
#250=ADVANCED_FACE('',(#127),#282,.F.);
#251=ADVANCED_FACE('',(#128),#283,.T.);
#252=ADVANCED_FACE('',(#305,#306),#114,.F.);
#253=ADVANCED_FACE('',(#129),#284,.T.);
#254=ADVANCED_FACE('',(#130),#115,.F.);
#255=ADVANCED_FACE('',(#131),#285,.T.);
#256=ADVANCED_FACE('',(#307,#308),#116,.F.);
#257=ADVANCED_FACE('',(#132),#286,.F.);
#258=ADVANCED_FACE('',(#133),#117,.F.);
#259=ADVANCED_FACE('',(#134),#118,.T.);
#260=ADVANCED_FACE('',(#309,#310),#287,.F.);
#261=ADVANCED_FACE('',(#311,#312),#288,.F.);
#262=ADVANCED_FACE('',(#135),#289,.T.);
#263=ADVANCED_FACE('',(#136),#290,.T.);
#264=ADVANCED_FACE('',(#137),#291,.T.);
#265=ADVANCED_FACE('',(#138),#292,.T.);
#266=ADVANCED_FACE('',(#313,#314),#293,.F.);
#267=ADVANCED_FACE('',(#315,#316),#294,.F.);
#268=ADVANCED_FACE('',(#317,#318),#105,.F.);
#269=ADVANCED_FACE('',(#319,#320),#106,.F.);
#270=ADVANCED_FACE('',(#139),#107,.F.);
#271=ADVANCED_FACE('',(#140),#103,.T.);
#272=ADVANCED_FACE('',(#141),#108,.F.);
#273=ADVANCED_FACE('',(#142),#104,.T.);
#274=CYLINDRICAL_SURFACE('',#767,2.);
#275=CYLINDRICAL_SURFACE('',#770,37.4831333152641);
#276=CYLINDRICAL_SURFACE('',#773,37.4831333152641);
#277=CYLINDRICAL_SURFACE('',#778,28.5);
#278=CYLINDRICAL_SURFACE('',#783,4.);
#279=CYLINDRICAL_SURFACE('',#788,0.999999999999971);
#280=CYLINDRICAL_SURFACE('',#792,1.);
#281=CYLINDRICAL_SURFACE('',#797,1.);
#282=CYLINDRICAL_SURFACE('',#800,4.);
#283=CYLINDRICAL_SURFACE('',#803,0.999999999999999);
#284=CYLINDRICAL_SURFACE('',#807,1.);
#285=CYLINDRICAL_SURFACE('',#811,0.999999999999955);
#286=CYLINDRICAL_SURFACE('',#816,4.);
#287=CYLINDRICAL_SURFACE('',#828,1.65);
#288=CYLINDRICAL_SURFACE('',#830,1.65);
#289=CYLINDRICAL_SURFACE('',#831,2.);
#290=CYLINDRICAL_SURFACE('',#832,2.);
#291=CYLINDRICAL_SURFACE('',#833,2.);
#292=CYLINDRICAL_SURFACE('',#834,2.);
#293=CYLINDRICAL_SURFACE('',#836,1.65);
#294=CYLINDRICAL_SURFACE('',#838,3.5);
#295=FACE_BOUND('',#321,.T.);
#296=FACE_BOUND('',#322,.T.);
#297=FACE_BOUND('',#323,.T.);
#298=FACE_BOUND('',#324,.T.);
#299=FACE_BOUND('',#325,.T.);
#300=FACE_BOUND('',#326,.T.);
#301=FACE_BOUND('',#331,.T.);
#302=FACE_BOUND('',#332,.T.);
#303=FACE_BOUND('',#336,.T.);
#304=FACE_BOUND('',#337,.T.);
#305=FACE_BOUND('',#341,.T.);
#306=FACE_BOUND('',#342,.T.);
#307=FACE_BOUND('',#346,.T.);
#308=FACE_BOUND('',#347,.T.);
#309=FACE_BOUND('',#351,.T.);
#310=FACE_BOUND('',#352,.T.);
#311=FACE_BOUND('',#353,.T.);
#312=FACE_BOUND('',#354,.T.);
#313=FACE_BOUND('',#359,.T.);
#314=FACE_BOUND('',#360,.T.);
#315=FACE_BOUND('',#361,.T.);
#316=FACE_BOUND('',#362,.T.);
#317=FACE_BOUND('',#363,.T.);
#318=FACE_BOUND('',#364,.T.);
#319=FACE_BOUND('',#365,.T.);
#320=FACE_BOUND('',#366,.T.);
#321=EDGE_LOOP('',(#371));
#322=EDGE_LOOP('',(#372));
#323=EDGE_LOOP('',(#373,#374,#375,#376));
#324=EDGE_LOOP('',(#377));
#325=EDGE_LOOP('',(#378,#379,#380,#381));
#326=EDGE_LOOP('',(#382));
#327=EDGE_LOOP('',(#383,#384,#385,#386,#387,#388));
#328=EDGE_LOOP('',(#389,#390,#391,#392));
#329=EDGE_LOOP('',(#393,#394,#395,#396,#397,#398));
#330=EDGE_LOOP('',(#399,#400,#401,#402));
#331=EDGE_LOOP('',(#403));
#332=EDGE_LOOP('',(#404,#405,#406,#407));
#333=EDGE_LOOP('',(#408,#409,#410,#411));
#334=EDGE_LOOP('',(#412,#413,#414,#415));
#335=EDGE_LOOP('',(#416,#417,#418,#419));
#336=EDGE_LOOP('',(#420));
#337=EDGE_LOOP('',(#421,#422,#423,#424));
#338=EDGE_LOOP('',(#425,#426,#427,#428));
#339=EDGE_LOOP('',(#429,#430,#431,#432));
#340=EDGE_LOOP('',(#433,#434,#435,#436));
#341=EDGE_LOOP('',(#437));
#342=EDGE_LOOP('',(#438,#439,#440,#441));
#343=EDGE_LOOP('',(#442,#443,#444,#445));
#344=EDGE_LOOP('',(#446,#447,#448,#449));
#345=EDGE_LOOP('',(#450,#451,#452,#453));
#346=EDGE_LOOP('',(#454));
#347=EDGE_LOOP('',(#455,#456,#457,#458));
#348=EDGE_LOOP('',(#459,#460,#461,#462));
#349=EDGE_LOOP('',(#463,#464,#465,#466,#467,#468,#469,#470,#471,#472,#473,
#474,#475,#476,#477,#478,#479,#480,#481,#482,#483,#484,#485,#486));
#350=EDGE_LOOP('',(#487,#488,#489,#490,#491,#492,#493,#494,#495,#496,#497,
#498,#499,#500,#501,#502,#503,#504,#505,#506,#507,#508,#509,#510));
#351=EDGE_LOOP('',(#511,#512));
#352=EDGE_LOOP('',(#513));
#353=EDGE_LOOP('',(#514,#515));
#354=EDGE_LOOP('',(#516));
#355=EDGE_LOOP('',(#517,#518,#519,#520,#521,#522));
#356=EDGE_LOOP('',(#523,#524,#525,#526));
#357=EDGE_LOOP('',(#527,#528,#529,#530,#531,#532));
#358=EDGE_LOOP('',(#533,#534,#535,#536));
#359=EDGE_LOOP('',(#537));
#360=EDGE_LOOP('',(#538));
#361=EDGE_LOOP('',(#539));
#362=EDGE_LOOP('',(#540));
#363=EDGE_LOOP('',(#541));
#364=EDGE_LOOP('',(#542));
#365=EDGE_LOOP('',(#543));
#366=EDGE_LOOP('',(#544));
#367=EDGE_LOOP('',(#545,#546,#547,#548));
#368=EDGE_LOOP('',(#549,#550,#551,#552));
#369=EDGE_LOOP('',(#553,#554,#555,#556));
#370=EDGE_LOOP('',(#557,#558,#559,#560));
#371=ORIENTED_EDGE('',*,*,#626,.T.);
#372=ORIENTED_EDGE('',*,*,#627,.F.);
#373=ORIENTED_EDGE('',*,*,#628,.T.);
#374=ORIENTED_EDGE('',*,*,#629,.T.);
#375=ORIENTED_EDGE('',*,*,#630,.F.);
#376=ORIENTED_EDGE('',*,*,#631,.T.);
#377=ORIENTED_EDGE('',*,*,#632,.F.);
#378=ORIENTED_EDGE('',*,*,#633,.F.);
#379=ORIENTED_EDGE('',*,*,#634,.T.);
#380=ORIENTED_EDGE('',*,*,#635,.T.);
#381=ORIENTED_EDGE('',*,*,#636,.F.);
#382=ORIENTED_EDGE('',*,*,#637,.F.);
#383=ORIENTED_EDGE('',*,*,#638,.T.);
#384=ORIENTED_EDGE('',*,*,#639,.T.);
#385=ORIENTED_EDGE('',*,*,#640,.T.);
#386=ORIENTED_EDGE('',*,*,#641,.T.);
#387=ORIENTED_EDGE('',*,*,#642,.T.);
#388=ORIENTED_EDGE('',*,*,#643,.F.);
#389=ORIENTED_EDGE('',*,*,#644,.T.);
#390=ORIENTED_EDGE('',*,*,#645,.T.);
#391=ORIENTED_EDGE('',*,*,#646,.F.);
#392=ORIENTED_EDGE('',*,*,#647,.T.);
#393=ORIENTED_EDGE('',*,*,#648,.T.);
#394=ORIENTED_EDGE('',*,*,#649,.T.);
#395=ORIENTED_EDGE('',*,*,#650,.T.);
#396=ORIENTED_EDGE('',*,*,#651,.F.);
#397=ORIENTED_EDGE('',*,*,#652,.T.);
#398=ORIENTED_EDGE('',*,*,#653,.T.);
#399=ORIENTED_EDGE('',*,*,#654,.T.);
#400=ORIENTED_EDGE('',*,*,#655,.F.);
#401=ORIENTED_EDGE('',*,*,#656,.F.);
#402=ORIENTED_EDGE('',*,*,#636,.T.);
#403=ORIENTED_EDGE('',*,*,#657,.T.);
#404=ORIENTED_EDGE('',*,*,#658,.T.);
#405=ORIENTED_EDGE('',*,*,#659,.F.);
#406=ORIENTED_EDGE('',*,*,#660,.F.);
#407=ORIENTED_EDGE('',*,*,#655,.T.);
#408=ORIENTED_EDGE('',*,*,#661,.T.);
#409=ORIENTED_EDGE('',*,*,#662,.F.);
#410=ORIENTED_EDGE('',*,*,#663,.F.);
#411=ORIENTED_EDGE('',*,*,#659,.T.);
#412=ORIENTED_EDGE('',*,*,#664,.T.);
#413=ORIENTED_EDGE('',*,*,#665,.F.);
#414=ORIENTED_EDGE('',*,*,#666,.F.);
#415=ORIENTED_EDGE('',*,*,#662,.T.);
#416=ORIENTED_EDGE('',*,*,#667,.T.);
#417=ORIENTED_EDGE('',*,*,#668,.F.);
#418=ORIENTED_EDGE('',*,*,#669,.F.);
#419=ORIENTED_EDGE('',*,*,#665,.T.);
#420=ORIENTED_EDGE('',*,*,#670,.F.);
#421=ORIENTED_EDGE('',*,*,#671,.T.);
#422=ORIENTED_EDGE('',*,*,#672,.F.);
#423=ORIENTED_EDGE('',*,*,#673,.F.);
#424=ORIENTED_EDGE('',*,*,#668,.T.);
#425=ORIENTED_EDGE('',*,*,#674,.T.);
#426=ORIENTED_EDGE('',*,*,#675,.F.);
#427=ORIENTED_EDGE('',*,*,#676,.F.);
#428=ORIENTED_EDGE('',*,*,#672,.T.);
#429=ORIENTED_EDGE('',*,*,#677,.T.);
#430=ORIENTED_EDGE('',*,*,#678,.F.);
#431=ORIENTED_EDGE('',*,*,#679,.F.);
#432=ORIENTED_EDGE('',*,*,#675,.T.);
#433=ORIENTED_EDGE('',*,*,#680,.T.);
#434=ORIENTED_EDGE('',*,*,#681,.F.);
#435=ORIENTED_EDGE('',*,*,#682,.F.);
#436=ORIENTED_EDGE('',*,*,#678,.T.);
#437=ORIENTED_EDGE('',*,*,#627,.T.);
#438=ORIENTED_EDGE('',*,*,#683,.T.);
#439=ORIENTED_EDGE('',*,*,#684,.F.);
#440=ORIENTED_EDGE('',*,*,#685,.F.);
#441=ORIENTED_EDGE('',*,*,#681,.T.);
#442=ORIENTED_EDGE('',*,*,#686,.T.);
#443=ORIENTED_EDGE('',*,*,#687,.F.);
#444=ORIENTED_EDGE('',*,*,#688,.F.);
#445=ORIENTED_EDGE('',*,*,#684,.T.);
#446=ORIENTED_EDGE('',*,*,#689,.T.);
#447=ORIENTED_EDGE('',*,*,#690,.F.);
#448=ORIENTED_EDGE('',*,*,#691,.F.);
#449=ORIENTED_EDGE('',*,*,#687,.T.);
#450=ORIENTED_EDGE('',*,*,#692,.T.);
#451=ORIENTED_EDGE('',*,*,#693,.F.);
#452=ORIENTED_EDGE('',*,*,#694,.F.);
#453=ORIENTED_EDGE('',*,*,#690,.T.);
#454=ORIENTED_EDGE('',*,*,#695,.F.);
#455=ORIENTED_EDGE('',*,*,#696,.T.);
#456=ORIENTED_EDGE('',*,*,#697,.F.);
#457=ORIENTED_EDGE('',*,*,#698,.F.);
#458=ORIENTED_EDGE('',*,*,#693,.T.);
#459=ORIENTED_EDGE('',*,*,#699,.T.);
#460=ORIENTED_EDGE('',*,*,#631,.F.);
#461=ORIENTED_EDGE('',*,*,#700,.F.);
#462=ORIENTED_EDGE('',*,*,#697,.T.);
#463=ORIENTED_EDGE('',*,*,#651,.T.);
#464=ORIENTED_EDGE('',*,*,#701,.T.);
#465=ORIENTED_EDGE('',*,*,#633,.T.);
#466=ORIENTED_EDGE('',*,*,#656,.T.);
#467=ORIENTED_EDGE('',*,*,#660,.T.);
#468=ORIENTED_EDGE('',*,*,#663,.T.);
#469=ORIENTED_EDGE('',*,*,#666,.T.);
#470=ORIENTED_EDGE('',*,*,#669,.T.);
#471=ORIENTED_EDGE('',*,*,#673,.T.);
#472=ORIENTED_EDGE('',*,*,#676,.T.);
#473=ORIENTED_EDGE('',*,*,#679,.T.);
#474=ORIENTED_EDGE('',*,*,#682,.T.);
#475=ORIENTED_EDGE('',*,*,#685,.T.);
#476=ORIENTED_EDGE('',*,*,#688,.T.);
#477=ORIENTED_EDGE('',*,*,#691,.T.);
#478=ORIENTED_EDGE('',*,*,#694,.T.);
#479=ORIENTED_EDGE('',*,*,#698,.T.);
#480=ORIENTED_EDGE('',*,*,#700,.T.);
#481=ORIENTED_EDGE('',*,*,#630,.T.);
#482=ORIENTED_EDGE('',*,*,#702,.T.);
#483=ORIENTED_EDGE('',*,*,#643,.T.);
#484=ORIENTED_EDGE('',*,*,#703,.T.);
#485=ORIENTED_EDGE('',*,*,#646,.T.);
#486=ORIENTED_EDGE('',*,*,#704,.T.);
#487=ORIENTED_EDGE('',*,*,#635,.F.);
#488=ORIENTED_EDGE('',*,*,#705,.T.);
#489=ORIENTED_EDGE('',*,*,#653,.F.);
#490=ORIENTED_EDGE('',*,*,#706,.T.);
#491=ORIENTED_EDGE('',*,*,#644,.F.);
#492=ORIENTED_EDGE('',*,*,#707,.T.);
#493=ORIENTED_EDGE('',*,*,#641,.F.);
#494=ORIENTED_EDGE('',*,*,#708,.T.);
#495=ORIENTED_EDGE('',*,*,#628,.F.);
#496=ORIENTED_EDGE('',*,*,#699,.F.);
#497=ORIENTED_EDGE('',*,*,#696,.F.);
#498=ORIENTED_EDGE('',*,*,#692,.F.);
#499=ORIENTED_EDGE('',*,*,#689,.F.);
#500=ORIENTED_EDGE('',*,*,#686,.F.);
#501=ORIENTED_EDGE('',*,*,#683,.F.);
#502=ORIENTED_EDGE('',*,*,#680,.F.);
#503=ORIENTED_EDGE('',*,*,#677,.F.);
#504=ORIENTED_EDGE('',*,*,#674,.F.);
#505=ORIENTED_EDGE('',*,*,#671,.F.);
#506=ORIENTED_EDGE('',*,*,#667,.F.);
#507=ORIENTED_EDGE('',*,*,#664,.F.);
#508=ORIENTED_EDGE('',*,*,#661,.F.);
#509=ORIENTED_EDGE('',*,*,#658,.F.);
#510=ORIENTED_EDGE('',*,*,#654,.F.);
#511=ORIENTED_EDGE('',*,*,#709,.T.);
#512=ORIENTED_EDGE('',*,*,#710,.T.);
#513=ORIENTED_EDGE('',*,*,#637,.T.);
#514=ORIENTED_EDGE('',*,*,#711,.T.);
#515=ORIENTED_EDGE('',*,*,#712,.T.);
#516=ORIENTED_EDGE('',*,*,#632,.T.);
#517=ORIENTED_EDGE('',*,*,#650,.F.);
#518=ORIENTED_EDGE('',*,*,#713,.T.);
#519=ORIENTED_EDGE('',*,*,#648,.F.);
#520=ORIENTED_EDGE('',*,*,#705,.F.);
#521=ORIENTED_EDGE('',*,*,#634,.F.);
#522=ORIENTED_EDGE('',*,*,#701,.F.);
#523=ORIENTED_EDGE('',*,*,#704,.F.);
#524=ORIENTED_EDGE('',*,*,#645,.F.);
#525=ORIENTED_EDGE('',*,*,#706,.F.);
#526=ORIENTED_EDGE('',*,*,#652,.F.);
#527=ORIENTED_EDGE('',*,*,#640,.F.);
#528=ORIENTED_EDGE('',*,*,#714,.T.);
#529=ORIENTED_EDGE('',*,*,#638,.F.);
#530=ORIENTED_EDGE('',*,*,#702,.F.);
#531=ORIENTED_EDGE('',*,*,#629,.F.);
#532=ORIENTED_EDGE('',*,*,#708,.F.);
#533=ORIENTED_EDGE('',*,*,#703,.F.);
#534=ORIENTED_EDGE('',*,*,#642,.F.);
#535=ORIENTED_EDGE('',*,*,#707,.F.);
#536=ORIENTED_EDGE('',*,*,#647,.F.);
#537=ORIENTED_EDGE('',*,*,#715,.T.);
#538=ORIENTED_EDGE('',*,*,#670,.T.);
#539=ORIENTED_EDGE('',*,*,#695,.T.);
#540=ORIENTED_EDGE('',*,*,#716,.F.);
#541=ORIENTED_EDGE('',*,*,#626,.F.);
#542=ORIENTED_EDGE('',*,*,#716,.T.);
#543=ORIENTED_EDGE('',*,*,#657,.F.);
#544=ORIENTED_EDGE('',*,*,#715,.F.);
#545=ORIENTED_EDGE('',*,*,#717,.F.);
#546=ORIENTED_EDGE('',*,*,#649,.F.);
#547=ORIENTED_EDGE('',*,*,#718,.F.);
#548=ORIENTED_EDGE('',*,*,#709,.F.);
#549=ORIENTED_EDGE('',*,*,#718,.T.);
#550=ORIENTED_EDGE('',*,*,#713,.F.);
#551=ORIENTED_EDGE('',*,*,#717,.T.);
#552=ORIENTED_EDGE('',*,*,#710,.F.);
#553=ORIENTED_EDGE('',*,*,#719,.F.);
#554=ORIENTED_EDGE('',*,*,#639,.F.);
#555=ORIENTED_EDGE('',*,*,#720,.F.);
#556=ORIENTED_EDGE('',*,*,#711,.F.);
#557=ORIENTED_EDGE('',*,*,#720,.T.);
#558=ORIENTED_EDGE('',*,*,#714,.F.);
#559=ORIENTED_EDGE('',*,*,#719,.T.);
#560=ORIENTED_EDGE('',*,*,#712,.F.);
#561=VERTEX_POINT('',#1045);
#562=VERTEX_POINT('',#1047);
#563=VERTEX_POINT('',#1050);
#564=VERTEX_POINT('',#1051);
#565=VERTEX_POINT('',#1053);
#566=VERTEX_POINT('',#1055);
#567=VERTEX_POINT('',#1083);
#568=VERTEX_POINT('',#1086);
#569=VERTEX_POINT('',#1087);
#570=VERTEX_POINT('',#1089);
#571=VERTEX_POINT('',#1091);
#572=VERTEX_POINT('',#1119);
#573=VERTEX_POINT('',#1122);
#574=VERTEX_POINT('',#1123);
#575=VERTEX_POINT('',#1125);
#576=VERTEX_POINT('',#1127);
#577=VERTEX_POINT('',#1129);
#578=VERTEX_POINT('',#1131);
#579=VERTEX_POINT('',#1135);
#580=VERTEX_POINT('',#1136);
#581=VERTEX_POINT('',#1138);
#582=VERTEX_POINT('',#1140);
#583=VERTEX_POINT('',#1144);
#584=VERTEX_POINT('',#1145);
#585=VERTEX_POINT('',#1147);
#586=VERTEX_POINT('',#1149);
#587=VERTEX_POINT('',#1151);
#588=VERTEX_POINT('',#1153);
#589=VERTEX_POINT('',#1157);
#590=VERTEX_POINT('',#1159);
#591=VERTEX_POINT('',#1163);
#592=VERTEX_POINT('',#1165);
#593=VERTEX_POINT('',#1167);
#594=VERTEX_POINT('',#1171);
#595=VERTEX_POINT('',#1173);
#596=VERTEX_POINT('',#1177);
#597=VERTEX_POINT('',#1179);
#598=VERTEX_POINT('',#1183);
#599=VERTEX_POINT('',#1185);
#600=VERTEX_POINT('',#1189);
#601=VERTEX_POINT('',#1191);
#602=VERTEX_POINT('',#1193);
#603=VERTEX_POINT('',#1197);
#604=VERTEX_POINT('',#1199);
#605=VERTEX_POINT('',#1203);
#606=VERTEX_POINT('',#1205);
#607=VERTEX_POINT('',#1209);
#608=VERTEX_POINT('',#1211);
#609=VERTEX_POINT('',#1215);
#610=VERTEX_POINT('',#1217);
#611=VERTEX_POINT('',#1221);
#612=VERTEX_POINT('',#1223);
#613=VERTEX_POINT('',#1227);
#614=VERTEX_POINT('',#1229);
#615=VERTEX_POINT('',#1233);
#616=VERTEX_POINT('',#1235);
#617=VERTEX_POINT('',#1239);
#618=VERTEX_POINT('',#1241);
#619=VERTEX_POINT('',#1243);
#620=VERTEX_POINT('',#1260);
#621=VERTEX_POINT('',#1261);
#622=VERTEX_POINT('',#1268);
#623=VERTEX_POINT('',#1269);
#624=VERTEX_POINT('',#1288);
#625=VERTEX_POINT('',#1291);
#626=EDGE_CURVE('',#561,#561,#721,.T.);
#627=EDGE_CURVE('',#562,#562,#722,.T.);
#628=EDGE_CURVE('',#563,#564,#723,.T.);
#629=EDGE_CURVE('',#564,#565,#153,.T.);
#630=EDGE_CURVE('',#566,#565,#724,.T.);
#631=EDGE_CURVE('',#566,#563,#154,.T.);
#632=EDGE_CURVE('',#567,#567,#143,.T.);
#633=EDGE_CURVE('',#568,#569,#725,.T.);
#634=EDGE_CURVE('',#568,#570,#155,.T.);
#635=EDGE_CURVE('',#570,#571,#726,.T.);
#636=EDGE_CURVE('',#569,#571,#156,.T.);
#637=EDGE_CURVE('',#572,#572,#144,.T.);
#638=EDGE_CURVE('',#573,#574,#157,.T.);
#639=EDGE_CURVE('',#574,#575,#727,.T.);
#640=EDGE_CURVE('',#575,#576,#158,.T.);
#641=EDGE_CURVE('',#576,#577,#159,.T.);
#642=EDGE_CURVE('',#577,#578,#160,.T.);
#643=EDGE_CURVE('',#573,#578,#161,.T.);
#644=EDGE_CURVE('',#579,#580,#728,.T.);
#645=EDGE_CURVE('',#580,#581,#162,.T.);
#646=EDGE_CURVE('',#582,#581,#729,.T.);
#647=EDGE_CURVE('',#582,#579,#163,.T.);
#648=EDGE_CURVE('',#583,#584,#164,.T.);
#649=EDGE_CURVE('',#584,#585,#730,.T.);
#650=EDGE_CURVE('',#585,#586,#165,.T.);
#651=EDGE_CURVE('',#587,#586,#166,.T.);
#652=EDGE_CURVE('',#587,#588,#167,.T.);
#653=EDGE_CURVE('',#588,#583,#168,.T.);
#654=EDGE_CURVE('',#571,#589,#731,.T.);
#655=EDGE_CURVE('',#590,#589,#169,.T.);
#656=EDGE_CURVE('',#569,#590,#732,.T.);
#657=EDGE_CURVE('',#591,#591,#733,.T.);
#658=EDGE_CURVE('',#589,#592,#170,.T.);
#659=EDGE_CURVE('',#593,#592,#171,.T.);
#660=EDGE_CURVE('',#590,#593,#172,.T.);
#661=EDGE_CURVE('',#592,#594,#734,.T.);
#662=EDGE_CURVE('',#595,#594,#173,.T.);
#663=EDGE_CURVE('',#593,#595,#735,.T.);
#664=EDGE_CURVE('',#594,#596,#174,.T.);
#665=EDGE_CURVE('',#597,#596,#175,.T.);
#666=EDGE_CURVE('',#595,#597,#176,.T.);
#667=EDGE_CURVE('',#596,#598,#736,.T.);
#668=EDGE_CURVE('',#599,#598,#177,.T.);
#669=EDGE_CURVE('',#597,#599,#737,.T.);
#670=EDGE_CURVE('',#600,#600,#738,.T.);
#671=EDGE_CURVE('',#598,#601,#178,.T.);
#672=EDGE_CURVE('',#602,#601,#179,.T.);
#673=EDGE_CURVE('',#599,#602,#180,.T.);
#674=EDGE_CURVE('',#601,#603,#739,.T.);
#675=EDGE_CURVE('',#604,#603,#181,.T.);
#676=EDGE_CURVE('',#602,#604,#740,.T.);
#677=EDGE_CURVE('',#603,#605,#741,.T.);
#678=EDGE_CURVE('',#606,#605,#182,.T.);
#679=EDGE_CURVE('',#604,#606,#742,.T.);
#680=EDGE_CURVE('',#605,#607,#743,.T.);
#681=EDGE_CURVE('',#608,#607,#183,.T.);
#682=EDGE_CURVE('',#606,#608,#744,.T.);
#683=EDGE_CURVE('',#607,#609,#184,.T.);
#684=EDGE_CURVE('',#610,#609,#185,.T.);
#685=EDGE_CURVE('',#608,#610,#186,.T.);
#686=EDGE_CURVE('',#609,#611,#745,.T.);
#687=EDGE_CURVE('',#612,#611,#187,.T.);
#688=EDGE_CURVE('',#610,#612,#746,.T.);
#689=EDGE_CURVE('',#611,#613,#188,.T.);
#690=EDGE_CURVE('',#614,#613,#189,.T.);
#691=EDGE_CURVE('',#612,#614,#190,.T.);
#692=EDGE_CURVE('',#613,#615,#747,.T.);
#693=EDGE_CURVE('',#616,#615,#191,.T.);
#694=EDGE_CURVE('',#614,#616,#748,.T.);
#695=EDGE_CURVE('',#617,#617,#749,.T.);
#696=EDGE_CURVE('',#615,#618,#192,.T.);
#697=EDGE_CURVE('',#619,#618,#193,.T.);
#698=EDGE_CURVE('',#616,#619,#194,.T.);
#699=EDGE_CURVE('',#618,#563,#750,.T.);
#700=EDGE_CURVE('',#619,#566,#751,.T.);
#701=EDGE_CURVE('',#586,#568,#752,.T.);
#702=EDGE_CURVE('',#565,#573,#753,.T.);
#703=EDGE_CURVE('',#578,#582,#754,.T.);
#704=EDGE_CURVE('',#581,#587,#755,.T.);
#705=EDGE_CURVE('',#570,#583,#756,.T.);
#706=EDGE_CURVE('',#588,#580,#757,.T.);
#707=EDGE_CURVE('',#579,#577,#758,.T.);
#708=EDGE_CURVE('',#576,#564,#759,.T.);
#709=EDGE_CURVE('',#620,#621,#760,.T.);
#710=EDGE_CURVE('',#621,#620,#145,.T.);
#711=EDGE_CURVE('',#622,#623,#761,.T.);
#712=EDGE_CURVE('',#623,#622,#146,.T.);
#713=EDGE_CURVE('',#585,#584,#147,.T.);
#714=EDGE_CURVE('',#575,#574,#148,.T.);
#715=EDGE_CURVE('',#624,#624,#762,.T.);
#716=EDGE_CURVE('',#625,#625,#763,.T.);
#717=EDGE_CURVE('',#585,#620,#149,.T.);
#718=EDGE_CURVE('',#621,#584,#150,.T.);
#719=EDGE_CURVE('',#575,#622,#151,.T.);
#720=EDGE_CURVE('',#623,#574,#152,.T.);
#721=CIRCLE('',#765,2.);
#722=CIRCLE('',#766,2.);
#723=CIRCLE('',#768,37.4831333152641);
#724=CIRCLE('',#769,37.4831333152641);
#725=CIRCLE('',#771,37.4831333152641);
#726=CIRCLE('',#772,37.4831333152641);
#727=CIRCLE('',#774,2.35);
#728=CIRCLE('',#776,28.5);
#729=CIRCLE('',#777,28.5);
#730=CIRCLE('',#779,2.35);
#731=CIRCLE('',#781,4.);
#732=CIRCLE('',#782,4.);
#733=CIRCLE('',#784,2.34999999999999);
#734=CIRCLE('',#786,0.999999999999971);
#735=CIRCLE('',#787,0.999999999999971);
#736=CIRCLE('',#790,1.);
#737=CIRCLE('',#791,1.);
#738=CIRCLE('',#793,1.65);
#739=CIRCLE('',#795,1.);
#740=CIRCLE('',#796,1.);
#741=CIRCLE('',#798,4.);
#742=CIRCLE('',#799,4.);
#743=CIRCLE('',#801,0.999999999999999);
#744=CIRCLE('',#802,0.999999999999999);
#745=CIRCLE('',#805,1.);
#746=CIRCLE('',#806,1.);
#747=CIRCLE('',#809,0.999999999999955);
#748=CIRCLE('',#810,0.999999999999955);
#749=CIRCLE('',#812,3.5);
#750=CIRCLE('',#814,4.);
#751=CIRCLE('',#815,4.);
#752=CIRCLE('',#817,2.);
#753=CIRCLE('',#818,2.);
#754=CIRCLE('',#819,2.);
#755=CIRCLE('',#820,2.);
#756=CIRCLE('',#822,2.);
#757=CIRCLE('',#823,2.);
#758=CIRCLE('',#824,2.);
#759=CIRCLE('',#825,2.);
#760=CIRCLE('',#827,1.65);
#761=CIRCLE('',#829,1.65);
#762=CIRCLE('',#835,1.65);
#763=CIRCLE('',#837,3.5);
#764=AXIS2_PLACEMENT_3D('',#1043,#843,#844);
#765=AXIS2_PLACEMENT_3D('',#1044,#845,#846);
#766=AXIS2_PLACEMENT_3D('',#1046,#847,#848);
#767=AXIS2_PLACEMENT_3D('',#1048,#849,#850);
#768=AXIS2_PLACEMENT_3D('',#1049,#851,#852);
#769=AXIS2_PLACEMENT_3D('',#1054,#854,#855);
#770=AXIS2_PLACEMENT_3D('',#1084,#857,#858);
#771=AXIS2_PLACEMENT_3D('',#1085,#859,#860);
#772=AXIS2_PLACEMENT_3D('',#1090,#862,#863);
#773=AXIS2_PLACEMENT_3D('',#1120,#865,#866);
#774=AXIS2_PLACEMENT_3D('',#1124,#868,#869);
#775=AXIS2_PLACEMENT_3D('',#1133,#874,#875);
#776=AXIS2_PLACEMENT_3D('',#1134,#876,#877);
#777=AXIS2_PLACEMENT_3D('',#1139,#879,#880);
#778=AXIS2_PLACEMENT_3D('',#1142,#882,#883);
#779=AXIS2_PLACEMENT_3D('',#1146,#885,#886);
#780=AXIS2_PLACEMENT_3D('',#1155,#891,#892);
#781=AXIS2_PLACEMENT_3D('',#1156,#893,#894);
#782=AXIS2_PLACEMENT_3D('',#1160,#896,#897);
#783=AXIS2_PLACEMENT_3D('',#1161,#898,#899);
#784=AXIS2_PLACEMENT_3D('',#1162,#900,#901);
#785=AXIS2_PLACEMENT_3D('',#1169,#905,#906);
#786=AXIS2_PLACEMENT_3D('',#1170,#907,#908);
#787=AXIS2_PLACEMENT_3D('',#1174,#910,#911);
#788=AXIS2_PLACEMENT_3D('',#1175,#912,#913);
#789=AXIS2_PLACEMENT_3D('',#1181,#917,#918);
#790=AXIS2_PLACEMENT_3D('',#1182,#919,#920);
#791=AXIS2_PLACEMENT_3D('',#1186,#922,#923);
#792=AXIS2_PLACEMENT_3D('',#1187,#924,#925);
#793=AXIS2_PLACEMENT_3D('',#1188,#926,#927);
#794=AXIS2_PLACEMENT_3D('',#1195,#931,#932);
#795=AXIS2_PLACEMENT_3D('',#1196,#933,#934);
#796=AXIS2_PLACEMENT_3D('',#1200,#936,#937);
#797=AXIS2_PLACEMENT_3D('',#1201,#938,#939);
#798=AXIS2_PLACEMENT_3D('',#1202,#940,#941);
#799=AXIS2_PLACEMENT_3D('',#1206,#943,#944);
#800=AXIS2_PLACEMENT_3D('',#1207,#945,#946);
#801=AXIS2_PLACEMENT_3D('',#1208,#947,#948);
#802=AXIS2_PLACEMENT_3D('',#1212,#950,#951);
#803=AXIS2_PLACEMENT_3D('',#1213,#952,#953);
#804=AXIS2_PLACEMENT_3D('',#1219,#957,#958);
#805=AXIS2_PLACEMENT_3D('',#1220,#959,#960);
#806=AXIS2_PLACEMENT_3D('',#1224,#962,#963);
#807=AXIS2_PLACEMENT_3D('',#1225,#964,#965);
#808=AXIS2_PLACEMENT_3D('',#1231,#969,#970);
#809=AXIS2_PLACEMENT_3D('',#1232,#971,#972);
#810=AXIS2_PLACEMENT_3D('',#1236,#974,#975);
#811=AXIS2_PLACEMENT_3D('',#1237,#976,#977);
#812=AXIS2_PLACEMENT_3D('',#1238,#978,#979);
#813=AXIS2_PLACEMENT_3D('',#1245,#983,#984);
#814=AXIS2_PLACEMENT_3D('',#1246,#985,#986);
#815=AXIS2_PLACEMENT_3D('',#1247,#987,#988);
#816=AXIS2_PLACEMENT_3D('',#1248,#989,#990);
#817=AXIS2_PLACEMENT_3D('',#1249,#991,#992);
#818=AXIS2_PLACEMENT_3D('',#1250,#993,#994);
#819=AXIS2_PLACEMENT_3D('',#1251,#995,#996);
#820=AXIS2_PLACEMENT_3D('',#1252,#997,#998);
#821=AXIS2_PLACEMENT_3D('',#1253,#999,#1000);
#822=AXIS2_PLACEMENT_3D('',#1254,#1001,#1002);
#823=AXIS2_PLACEMENT_3D('',#1255,#1003,#1004);
#824=AXIS2_PLACEMENT_3D('',#1256,#1005,#1006);
#825=AXIS2_PLACEMENT_3D('',#1257,#1007,#1008);
#826=AXIS2_PLACEMENT_3D('',#1258,#1009,#1010);
#827=AXIS2_PLACEMENT_3D('',#1259,#1011,#1012);
#828=AXIS2_PLACEMENT_3D('',#1266,#1013,#1014);
#829=AXIS2_PLACEMENT_3D('',#1267,#1015,#1016);
#830=AXIS2_PLACEMENT_3D('',#1274,#1017,#1018);
#831=AXIS2_PLACEMENT_3D('',#1279,#1019,#1020);
#832=AXIS2_PLACEMENT_3D('',#1280,#1021,#1022);
#833=AXIS2_PLACEMENT_3D('',#1285,#1023,#1024);
#834=AXIS2_PLACEMENT_3D('',#1286,#1025,#1026);
#835=AXIS2_PLACEMENT_3D('',#1287,#1027,#1028);
#836=AXIS2_PLACEMENT_3D('',#1289,#1029,#1030);
#837=AXIS2_PLACEMENT_3D('',#1290,#1031,#1032);
#838=AXIS2_PLACEMENT_3D('',#1292,#1033,#1034);
#839=AXIS2_PLACEMENT_3D('',#1293,#1035,#1036);
#840=AXIS2_PLACEMENT_3D('',#1294,#1037,#1038);
#841=AXIS2_PLACEMENT_3D('',#1299,#1039,#1040);
#842=AXIS2_PLACEMENT_3D('',#1312,#1041,#1042);
#843=DIRECTION('',(0.,0.,1.));
#844=DIRECTION('',(1.,0.,0.));
#845=DIRECTION('',(1.,0.,0.));
#846=DIRECTION('',(0.,0.,-1.));
#847=DIRECTION('',(1.,0.,7.58375263324476E-16));
#848=DIRECTION('',(0.,0.,1.));
#849=DIRECTION('',(-1.,0.,0.));
#850=DIRECTION('',(0.,0.,-1.));
#851=DIRECTION('',(0.,1.,0.));
#852=DIRECTION('',(-1.,0.,-6.12323399573677E-17));
#853=DIRECTION('',(0.,1.,0.));
#854=DIRECTION('',(0.,1.,0.));
#855=DIRECTION('',(-1.,0.,-6.12323399573677E-17));
#856=DIRECTION('',(0.,-1.,0.));
#857=DIRECTION('',(0.,-1.,0.));
#858=DIRECTION('',(0.,0.,1.));
#859=DIRECTION('',(0.,1.,0.));
#860=DIRECTION('',(-1.,0.,-6.12323399573677E-17));
#861=DIRECTION('',(0.,-1.,0.));
#862=DIRECTION('',(0.,1.,0.));
#863=DIRECTION('',(-1.,0.,-6.12323399573677E-17));
#864=DIRECTION('',(0.,-1.,0.));
#865=DIRECTION('',(0.,-1.,0.));
#866=DIRECTION('',(0.,0.,1.));
#867=DIRECTION('',(0.,-1.,0.));
#868=DIRECTION('',(4.8186763221578E-17,0.,1.));
#869=DIRECTION('',(-0.999999999999997,0.,0.));
#870=DIRECTION('',(0.,-1.,0.));
#871=DIRECTION('',(-1.,0.,4.8186763221578E-17));
#872=DIRECTION('',(0.,1.,0.));
#873=DIRECTION('',(-1.,0.,4.8186763221578E-17));
#874=DIRECTION('',(4.8186763221578E-17,0.,1.));
#875=DIRECTION('',(-1.,0.,4.81385764583564E-17));
#876=DIRECTION('',(0.,-1.,0.));
#877=DIRECTION('',(-1.,0.,6.12323399573677E-17));
#878=DIRECTION('',(0.,1.,0.));
#879=DIRECTION('',(0.,-1.,0.));
#880=DIRECTION('',(-1.,0.,6.12323399573677E-17));
#881=DIRECTION('',(0.,-1.,0.));
#882=DIRECTION('',(0.,-1.,0.));
#883=DIRECTION('',(0.,0.,1.));
#884=DIRECTION('',(0.,1.,0.));
#885=DIRECTION('',(-4.8186763221578E-17,0.,1.));
#886=DIRECTION('',(-1.,0.,0.));
#887=DIRECTION('',(0.,1.,0.));
#888=DIRECTION('',(-1.,0.,-4.8186763221578E-17));
#889=DIRECTION('',(0.,-1.,0.));
#890=DIRECTION('',(-1.,0.,-4.8186763221578E-17));
#891=DIRECTION('',(-4.8186763221578E-17,0.,1.));
#892=DIRECTION('',(-1.,0.,-4.81385764583564E-17));
#893=DIRECTION('',(0.,-1.,0.));
#894=DIRECTION('',(-1.,0.,0.));
#895=DIRECTION('',(0.,-1.,0.));
#896=DIRECTION('',(0.,-1.,0.));
#897=DIRECTION('',(-1.,0.,0.));
#898=DIRECTION('',(0.,-1.,0.));
#899=DIRECTION('',(0.,0.,1.));
#900=DIRECTION('',(1.,0.,-2.21974533908949E-15));
#901=DIRECTION('',(0.,0.,1.));
#902=DIRECTION('',(2.21974533908949E-15,0.,1.));
#903=DIRECTION('',(0.,-1.,0.));
#904=DIRECTION('',(2.21974533908949E-15,0.,1.));
#905=DIRECTION('',(1.,0.,-2.21974533908949E-15));
#906=DIRECTION('',(2.22044604925031E-15,0.,1.));
#907=DIRECTION('',(0.,1.,0.));
#908=DIRECTION('',(-1.,0.,0.));
#909=DIRECTION('',(0.,-1.,0.));
#910=DIRECTION('',(0.,1.,0.));
#911=DIRECTION('',(-1.,0.,0.));
#912=DIRECTION('',(0.,-1.,0.));
#913=DIRECTION('',(0.,0.,1.));
#914=DIRECTION('',(1.,0.,0.));
#915=DIRECTION('',(0.,-1.,0.));
#916=DIRECTION('',(1.,0.,0.));
#917=DIRECTION('',(0.,0.,-1.));
#918=DIRECTION('',(1.,0.,0.));
#919=DIRECTION('',(0.,1.,0.));
#920=DIRECTION('',(1.,0.,0.));
#921=DIRECTION('',(0.,-1.,0.));
#922=DIRECTION('',(0.,1.,0.));
#923=DIRECTION('',(1.,0.,0.));
#924=DIRECTION('',(0.,-1.,0.));
#925=DIRECTION('',(0.,0.,1.));
#926=DIRECTION('',(1.,0.,-7.58375263324476E-16));
#927=DIRECTION('',(0.,0.,-0.999999999999999));
#928=DIRECTION('',(-7.58375263324476E-16,0.,-1.));
#929=DIRECTION('',(0.,-1.,0.));
#930=DIRECTION('',(-7.58375263324476E-16,0.,-1.));
#931=DIRECTION('',(-1.,0.,7.58375263324476E-16));
#932=DIRECTION('',(-7.63278329429795E-16,0.,-1.));
#933=DIRECTION('',(0.,1.,0.));
#934=DIRECTION('',(-1.,0.,0.));
#935=DIRECTION('',(0.,-1.,0.));
#936=DIRECTION('',(0.,1.,0.));
#937=DIRECTION('',(-1.,0.,0.));
#938=DIRECTION('',(0.,-1.,0.));
#939=DIRECTION('',(0.,0.,1.));
#940=DIRECTION('',(0.,-1.,0.));
#941=DIRECTION('',(-1.,0.,0.));
#942=DIRECTION('',(0.,-1.,0.));
#943=DIRECTION('',(0.,-1.,0.));
#944=DIRECTION('',(-1.,0.,0.));
#945=DIRECTION('',(0.,-1.,0.));
#946=DIRECTION('',(0.,0.,1.));
#947=DIRECTION('',(0.,1.,0.));
#948=DIRECTION('',(-1.,0.,0.));
#949=DIRECTION('',(0.,-1.,0.));
#950=DIRECTION('',(0.,1.,0.));
#951=DIRECTION('',(-1.,0.,0.));
#952=DIRECTION('',(0.,-1.,0.));
#953=DIRECTION('',(0.,0.,1.));
#954=DIRECTION('',(-7.58375263324476E-16,0.,1.));
#955=DIRECTION('',(0.,-1.,0.));
#956=DIRECTION('',(-7.58375263324476E-16,0.,1.));
#957=DIRECTION('',(1.,0.,7.58375263324476E-16));
#958=DIRECTION('',(-7.63278329429795E-16,0.,1.));
#959=DIRECTION('',(0.,1.,0.));
#960=DIRECTION('',(-1.,0.,0.));
#961=DIRECTION('',(0.,-1.,0.));
#962=DIRECTION('',(0.,1.,0.));
#963=DIRECTION('',(-1.,0.,0.));
#964=DIRECTION('',(0.,-1.,0.));
#965=DIRECTION('',(0.,0.,1.));
#966=DIRECTION('',(1.,0.,0.));
#967=DIRECTION('',(0.,-1.,0.));
#968=DIRECTION('',(1.,0.,0.));
#969=DIRECTION('',(0.,0.,-1.));
#970=DIRECTION('',(1.,0.,0.));
#971=DIRECTION('',(0.,1.,0.));
#972=DIRECTION('',(1.,0.,0.));
#973=DIRECTION('',(0.,-1.,0.));
#974=DIRECTION('',(0.,1.,0.));
#975=DIRECTION('',(1.,0.,0.));
#976=DIRECTION('',(0.,-1.,0.));
#977=DIRECTION('',(0.,0.,0.999999999999998));
#978=DIRECTION('',(1.,0.,3.58023441788627E-15));
#979=DIRECTION('',(3.96508223080413E-15,0.,-1.));
#980=DIRECTION('',(3.58023441788627E-15,0.,-1.));
#981=DIRECTION('',(0.,-1.,0.));
#982=DIRECTION('',(3.58023441788627E-15,0.,-1.));
#983=DIRECTION('',(-1.,0.,-3.58023441788627E-15));
#984=DIRECTION('',(3.58046925441613E-15,0.,-1.));
#985=DIRECTION('',(0.,-1.,0.));
#986=DIRECTION('',(-1.,0.,0.));
#987=DIRECTION('',(0.,-1.,0.));
#988=DIRECTION('',(-1.,0.,0.));
#989=DIRECTION('',(0.,-1.,0.));
#990=DIRECTION('',(0.,0.,0.999999999999999));
#991=DIRECTION('',(0.,1.,0.));
#992=DIRECTION('',(0.,0.,1.));
#993=DIRECTION('',(0.,1.,0.));
#994=DIRECTION('',(0.,0.,1.));
#995=DIRECTION('',(0.,1.,0.));
#996=DIRECTION('',(0.,0.,1.));
#997=DIRECTION('',(0.,1.,0.));
#998=DIRECTION('',(0.,0.,1.));
#999=DIRECTION('',(0.,-1.,0.));
#1000=DIRECTION('',(0.,0.,1.));
#1001=DIRECTION('',(0.,-1.,0.));
#1002=DIRECTION('',(0.,0.,1.));
#1003=DIRECTION('',(0.,-1.,0.));
#1004=DIRECTION('',(0.,0.,1.));
#1005=DIRECTION('',(0.,-1.,0.));
#1006=DIRECTION('',(0.,0.,1.));
#1007=DIRECTION('',(0.,-1.,0.));
#1008=DIRECTION('',(0.,0.,1.));
#1009=DIRECTION('',(0.,-1.,0.));
#1010=DIRECTION('',(0.,0.,1.));
#1011=DIRECTION('',(0.,0.,-1.));
#1012=DIRECTION('',(-1.,0.,0.));
#1013=DIRECTION('',(0.,0.,-1.));
#1014=DIRECTION('',(1.,0.,0.));
#1015=DIRECTION('',(0.,0.,-1.));
#1016=DIRECTION('',(-1.,0.,0.));
#1017=DIRECTION('',(0.,0.,-1.));
#1018=DIRECTION('',(1.,0.,0.));
#1019=DIRECTION('',(0.,-1.,0.));
#1020=DIRECTION('',(0.,0.,1.));
#1021=DIRECTION('',(0.,-1.,0.));
#1022=DIRECTION('',(0.,0.,1.));
#1023=DIRECTION('',(0.,-1.,0.));
#1024=DIRECTION('',(0.,0.,1.));
#1025=DIRECTION('',(0.,-1.,0.));
#1026=DIRECTION('',(0.,0.,1.));
#1027=DIRECTION('',(-1.,0.,0.));
#1028=DIRECTION('',(0.,0.,0.999999999999999));
#1029=DIRECTION('',(1.,0.,0.));
#1030=DIRECTION('',(0.,0.,0.999999999999999));
#1031=DIRECTION('',(1.,0.,0.));
#1032=DIRECTION('',(0.,-1.,0.));
#1033=DIRECTION('',(-1.,0.,0.));
#1034=DIRECTION('',(0.,0.,-1.));
#1035=DIRECTION('',(1.,0.,0.));
#1036=DIRECTION('',(0.,0.,1.));
#1037=DIRECTION('',(-1.,0.,0.));
#1038=DIRECTION('',(2.77098543559417E-17,0.,-1.));
#1039=DIRECTION('',(0.,0.,-1.));
#1040=DIRECTION('',(1.,0.,3.4637317944927E-17));
#1041=DIRECTION('',(0.,0.,-1.));
#1042=DIRECTION('',(1.,0.,3.4637317944927E-17));
#1043=CARTESIAN_POINT('',(0.,0.,0.));
#1044=CARTESIAN_POINT('',(73.6339745962156,-223.,48.3729833462074));
#1045=CARTESIAN_POINT('',(73.6339745962156,-223.,46.3729833462074));
#1046=CARTESIAN_POINT('',(71.5,-223.,48.3729833462074));
#1047=CARTESIAN_POINT('',(71.5,-223.,50.3729833462074));
#1048=CARTESIAN_POINT('',(77.3,-223.,48.3729833462074));
#1049=CARTESIAN_POINT('',(70.5,-227.,3.67028648190031E-30));
#1050=CARTESIAN_POINT('',(79.5357526829999,-227.,36.3777467221586));
#1051=CARTESIAN_POINT('',(107.744204615017,-227.,4.22545923238855));
#1052=CARTESIAN_POINT('',(107.744204615017,-219.,4.22545923238855));
#1053=CARTESIAN_POINT('',(107.744204615017,-219.,4.22545923238855));
#1054=CARTESIAN_POINT('',(70.5,-219.,3.67028648190031E-30));
#1055=CARTESIAN_POINT('',(79.5357526829999,-219.,36.3777467221586));
#1056=CARTESIAN_POINT('',(79.5357526829999,-219.,36.3777467221586));
#1057=CARTESIAN_POINT('',(105.15,-223.358816212558,14.2955511656551));
#1058=CARTESIAN_POINT('',(105.15,-222.641183787443,14.2955511656551));
#1059=CARTESIAN_POINT('',(105.039033978205,-222.362318611635,14.5645747448001));
#1060=CARTESIAN_POINT('',(104.806341735934,-221.96620388466,15.1045232411278));
#1061=CARTESIAN_POINT('',(104.675572266328,-221.828326568617,15.3989300001259));
#1062=CARTESIAN_POINT('',(104.255924441282,-221.489955837814,16.3085515985958));
#1063=CARTESIAN_POINT('',(103.95132185917,-221.379251619628,16.9258564144226));
#1064=CARTESIAN_POINT('',(103.295850280539,-221.330018076419,18.163362955794));
#1065=CARTESIAN_POINT('',(102.945644933604,-221.392554229997,18.7805881775556));
#1066=CARTESIAN_POINT('',(102.428989360966,-221.728147385952,19.6376218671675));
#1067=CARTESIAN_POINT('',(102.257384273322,-221.881981567741,19.9129717057213));
#1068=CARTESIAN_POINT('',(101.967802234706,-222.331846524304,20.3675064883689));
#1069=CARTESIAN_POINT('',(101.847792529455,-222.65888809358,20.5499684518897));
#1070=CARTESIAN_POINT('',(101.852274486889,-223.362142916356,20.5431298575032));
#1071=CARTESIAN_POINT('',(101.97433191556,-223.682863767126,20.3574676604094));
#1072=CARTESIAN_POINT('',(102.267995016882,-224.129659129962,19.8960938800252));
#1073=CARTESIAN_POINT('',(102.439293142562,-224.280116565476,19.6208285485683));
#1074=CARTESIAN_POINT('',(102.952760032854,-224.608794036799,18.7681633191893));
#1075=CARTESIAN_POINT('',(103.303346262028,-224.670213434733,18.1495491452292));
#1076=CARTESIAN_POINT('',(103.951891641519,-224.619901094063,16.9244381225992));
#1077=CARTESIAN_POINT('',(104.260605675362,-224.507451164661,16.2987375944773));
#1078=CARTESIAN_POINT('',(104.67820119967,-224.16895228085,15.393062099124));
#1079=CARTESIAN_POINT('',(104.808781179628,-224.030492823648,15.098940686701));
#1080=CARTESIAN_POINT('',(105.039754826922,-223.635593194355,14.5628229539551));
#1081=CARTESIAN_POINT('',(105.15,-223.358816212558,14.2955511656551));
#1082=CARTESIAN_POINT('',(105.15,-222.641183787443,14.2955511656551));
#1083=CARTESIAN_POINT('',(105.15,-223.,14.2955511656551));
#1084=CARTESIAN_POINT('',(70.5,-219.,3.67028648190031E-30));
#1085=CARTESIAN_POINT('',(70.5,-219.,3.67028648190031E-30));
#1086=CARTESIAN_POINT('',(33.2557953849826,-219.,4.22545923238855));
#1087=CARTESIAN_POINT('',(61.4642473170001,-219.,36.3777467221586));
#1088=CARTESIAN_POINT('',(33.2557953849826,-219.,4.22545923238855));
#1089=CARTESIAN_POINT('',(33.2557953849826,-227.,4.22545923238855));
#1090=CARTESIAN_POINT('',(70.5,-227.,3.67028648190031E-30));
#1091=CARTESIAN_POINT('',(61.4642473170001,-227.,36.3777467221586));
#1092=CARTESIAN_POINT('',(61.4642473170001,-219.,36.3777467221586));
#1093=CARTESIAN_POINT('',(39.15,-223.357228845425,20.5466002815518));
#1094=CARTESIAN_POINT('',(39.15,-222.642771154574,20.5466002815517));
#1095=CARTESIAN_POINT('',(39.0291755689649,-222.324890575153,20.3628656731609));
#1096=CARTESIAN_POINT('',(38.7373234784735,-221.876086628848,19.904558999915));
#1097=CARTESIAN_POINT('',(38.5669364996984,-221.724721154384,19.6310113204127));
#1098=CARTESIAN_POINT('',(38.0490981108307,-221.390730047962,18.7715667192641));
#1099=CARTESIAN_POINT('',(37.7012688590543,-221.330041568814,18.1580061098852));
#1100=CARTESIAN_POINT('',(37.049619005226,-221.379374418608,16.9275503734925));
#1101=CARTESIAN_POINT('',(36.7458066079361,-221.489348265358,16.3120807784943));
#1102=CARTESIAN_POINT('',(36.3268510708912,-221.825983103131,15.4042929839246));
#1103=CARTESIAN_POINT('',(36.1963867520486,-221.963189505917,15.1107028263339));
#1104=CARTESIAN_POINT('',(35.9642379722861,-222.355160101183,14.5723149477328));
#1105=CARTESIAN_POINT('',(35.8521684797748,-222.635246686425,14.3008071631069));
#1106=CARTESIAN_POINT('',(35.8478914588338,-223.344863838373,14.2904404488285));
#1107=CARTESIAN_POINT('',(35.9582464629049,-223.631263180851,14.558100620024));
#1108=CARTESIAN_POINT('',(36.189911540471,-224.029157617108,15.0959882412336));
#1109=CARTESIAN_POINT('',(36.320844548936,-224.168047659292,15.3909556944177));
#1110=CARTESIAN_POINT('',(36.7391277495011,-224.507496290883,16.2982328378876));
#1111=CARTESIAN_POINT('',(37.0446121959497,-224.619430438327,16.9177488634125));
#1112=CARTESIAN_POINT('',(37.6981570950718,-224.670528887008,18.1524737092579));
#1113=CARTESIAN_POINT('',(38.0490662034228,-224.60904426222,18.7714669302026));
#1114=CARTESIAN_POINT('',(38.5659031416062,-224.276068092264,19.629319624773));
#1115=CARTESIAN_POINT('',(38.737557205599,-224.123398779911,19.9049188841932));
#1116=CARTESIAN_POINT('',(39.0283714180022,-223.676500897611,20.3616100161721));
#1117=CARTESIAN_POINT('',(39.15,-223.357228845425,20.5466002815518));
#1118=CARTESIAN_POINT('',(39.15,-222.642771154574,20.5466002815517));
#1119=CARTESIAN_POINT('',(39.15,-223.,20.5466002815518));
#1120=CARTESIAN_POINT('',(70.5,-219.,3.67028648190031E-30));
#1121=CARTESIAN_POINT('',(105.756953213073,-219.,2.));
#1122=CARTESIAN_POINT('',(105.756953213073,-219.,2.));
#1123=CARTESIAN_POINT('',(105.756953213073,-222.345277009721,2.));
#1124=CARTESIAN_POINT('',(103.5,-223.,2.));
#1125=CARTESIAN_POINT('',(105.756953213073,-223.654722990279,2.));
#1126=CARTESIAN_POINT('',(105.756953213073,-219.,2.));
#1127=CARTESIAN_POINT('',(105.756953213073,-227.,2.));
#1128=CARTESIAN_POINT('',(107.929737951659,-227.,2.));
#1129=CARTESIAN_POINT('',(100.736567265482,-227.,2.));
#1130=CARTESIAN_POINT('',(100.736567265482,-219.,2.));
#1131=CARTESIAN_POINT('',(100.736567265482,-219.,2.));
#1132=CARTESIAN_POINT('',(107.929737951659,-219.,2.));
#1133=CARTESIAN_POINT('',(107.929737951659,-219.,2.));
#1134=CARTESIAN_POINT('',(70.5,-227.,3.67028648190031E-30));
#1135=CARTESIAN_POINT('',(98.7538415431551,-227.,3.73770491803279));
#1136=CARTESIAN_POINT('',(42.246158456845,-227.,3.73770491803279));
#1137=CARTESIAN_POINT('',(42.246158456845,-219.,3.73770491803279));
#1138=CARTESIAN_POINT('',(42.246158456845,-219.,3.73770491803279));
#1139=CARTESIAN_POINT('',(70.5,-219.,3.67028648190031E-30));
#1140=CARTESIAN_POINT('',(98.7538415431551,-219.,3.73770491803279));
#1141=CARTESIAN_POINT('',(98.7538415431551,-219.,3.73770491803279));
#1142=CARTESIAN_POINT('',(70.5,-219.,3.67028648190031E-30));
#1143=CARTESIAN_POINT('',(35.2430467869272,-219.,2.));
#1144=CARTESIAN_POINT('',(35.2430467869272,-227.,2.));
#1145=CARTESIAN_POINT('',(35.2430467869272,-223.654722990279,2.));
#1146=CARTESIAN_POINT('',(37.5,-223.,2.));
#1147=CARTESIAN_POINT('',(35.2430467869272,-222.345277009721,2.));
#1148=CARTESIAN_POINT('',(35.2430467869272,-219.,2.));
#1149=CARTESIAN_POINT('',(35.2430467869272,-219.,2.));
#1150=CARTESIAN_POINT('',(42.070262048341,-219.,2.));
#1151=CARTESIAN_POINT('',(40.2634327345183,-219.,2.));
#1152=CARTESIAN_POINT('',(40.2634327345183,-219.,2.));
#1153=CARTESIAN_POINT('',(40.2634327345183,-227.,2.));
#1154=CARTESIAN_POINT('',(42.070262048341,-227.,2.));
#1155=CARTESIAN_POINT('',(42.070262048341,-219.,2.));
#1156=CARTESIAN_POINT('',(60.5,-227.,40.2597857626189));
#1157=CARTESIAN_POINT('',(64.5,-227.,40.259785762619));
#1158=CARTESIAN_POINT('',(64.5,-219.,40.259785762619));
#1159=CARTESIAN_POINT('',(64.5,-219.,40.259785762619));
#1160=CARTESIAN_POINT('',(60.5,-219.,40.2597857626189));
#1161=CARTESIAN_POINT('',(60.5,-219.,40.2597857626189));
#1162=CARTESIAN_POINT('',(64.5,-223.,48.3729833462074));
#1163=CARTESIAN_POINT('',(64.5,-223.,50.7229833462074));
#1164=CARTESIAN_POINT('',(64.5,-227.,40.259785762619));
#1165=CARTESIAN_POINT('',(64.5,-227.,52.3729833462074));
#1166=CARTESIAN_POINT('',(64.5,-219.,52.3729833462074));
#1167=CARTESIAN_POINT('',(64.5,-219.,52.3729833462074));
#1168=CARTESIAN_POINT('',(64.5,-219.,40.259785762619));
#1169=CARTESIAN_POINT('',(64.5,-219.,40.259785762619));
#1170=CARTESIAN_POINT('',(65.5,-227.,52.3729833462074));
#1171=CARTESIAN_POINT('',(65.5,-227.,53.3729833462074));
#1172=CARTESIAN_POINT('',(65.5,-219.,53.3729833462074));
#1173=CARTESIAN_POINT('',(65.5,-219.,53.3729833462074));
#1174=CARTESIAN_POINT('',(65.5,-219.,52.3729833462074));
#1175=CARTESIAN_POINT('',(65.5,-219.,52.3729833462074));
#1176=CARTESIAN_POINT('',(65.5,-227.,53.3729833462074));
#1177=CARTESIAN_POINT('',(68.5,-227.,53.3729833462074));
#1178=CARTESIAN_POINT('',(68.5,-219.,53.3729833462074));
#1179=CARTESIAN_POINT('',(68.5,-219.,53.3729833462074));
#1180=CARTESIAN_POINT('',(65.5,-219.,53.3729833462074));
#1181=CARTESIAN_POINT('',(65.5,-219.,53.3729833462074));
#1182=CARTESIAN_POINT('',(68.5,-227.,52.3729833462074));
#1183=CARTESIAN_POINT('',(69.5,-227.,52.3729833462074));
#1184=CARTESIAN_POINT('',(69.5,-219.,52.3729833462074));
#1185=CARTESIAN_POINT('',(69.5,-219.,52.3729833462074));
#1186=CARTESIAN_POINT('',(68.5,-219.,52.3729833462074));
#1187=CARTESIAN_POINT('',(68.5,-219.,52.3729833462074));
#1188=CARTESIAN_POINT('',(69.5,-223.,48.3729833462074));
#1189=CARTESIAN_POINT('',(69.5,-223.,46.7229833462074));
#1190=CARTESIAN_POINT('',(69.5,-227.,52.3729833462074));
#1191=CARTESIAN_POINT('',(69.5,-227.,46.0825756949558));
#1192=CARTESIAN_POINT('',(69.5,-219.,46.0825756949558));
#1193=CARTESIAN_POINT('',(69.5,-219.,46.0825756949558));
#1194=CARTESIAN_POINT('',(69.5,-219.,52.3729833462074));
#1195=CARTESIAN_POINT('',(69.5,-219.,52.3729833462074));
#1196=CARTESIAN_POINT('',(68.5,-227.,46.0825756949558));
#1197=CARTESIAN_POINT('',(68.9,-227.,45.1660605559647));
#1198=CARTESIAN_POINT('',(68.9,-219.,45.1660605559647));
#1199=CARTESIAN_POINT('',(68.9,-219.,45.1660605559647));
#1200=CARTESIAN_POINT('',(68.5,-219.,46.0825756949558));
#1201=CARTESIAN_POINT('',(68.5,-219.,46.0825756949558));
#1202=CARTESIAN_POINT('',(70.5,-227.,41.5));
#1203=CARTESIAN_POINT('',(72.1,-227.,45.1660605559647));
#1204=CARTESIAN_POINT('',(72.1,-219.,45.1660605559647));
#1205=CARTESIAN_POINT('',(72.1,-219.,45.1660605559647));
#1206=CARTESIAN_POINT('',(70.5,-219.,41.5));
#1207=CARTESIAN_POINT('',(70.5,-219.,41.5));
#1208=CARTESIAN_POINT('',(72.5,-227.,46.0825756949558));
#1209=CARTESIAN_POINT('',(71.5,-227.,46.0825756949558));
#1210=CARTESIAN_POINT('',(71.5,-219.,46.0825756949558));
#1211=CARTESIAN_POINT('',(71.5,-219.,46.0825756949558));
#1212=CARTESIAN_POINT('',(72.5,-219.,46.0825756949558));
#1213=CARTESIAN_POINT('',(72.5,-219.,46.0825756949558));
#1214=CARTESIAN_POINT('',(71.5,-227.,46.0825756949558));
#1215=CARTESIAN_POINT('',(71.5,-227.,52.3729833462074));
#1216=CARTESIAN_POINT('',(71.5,-219.,52.3729833462074));
#1217=CARTESIAN_POINT('',(71.5,-219.,52.3729833462074));
#1218=CARTESIAN_POINT('',(71.5,-219.,46.0825756949558));
#1219=CARTESIAN_POINT('',(71.5,-219.,46.0825756949558));
#1220=CARTESIAN_POINT('',(72.5,-227.,52.3729833462074));
#1221=CARTESIAN_POINT('',(72.5,-227.,53.3729833462074));
#1222=CARTESIAN_POINT('',(72.5,-219.,53.3729833462074));
#1223=CARTESIAN_POINT('',(72.5,-219.,53.3729833462074));
#1224=CARTESIAN_POINT('',(72.5,-219.,52.3729833462074));
#1225=CARTESIAN_POINT('',(72.5,-219.,52.3729833462074));
#1226=CARTESIAN_POINT('',(72.5,-227.,53.3729833462074));
#1227=CARTESIAN_POINT('',(75.5,-227.,53.3729833462074));
#1228=CARTESIAN_POINT('',(75.5,-219.,53.3729833462074));
#1229=CARTESIAN_POINT('',(75.5,-219.,53.3729833462074));
#1230=CARTESIAN_POINT('',(72.5,-219.,53.3729833462074));
#1231=CARTESIAN_POINT('',(72.5,-219.,53.3729833462074));
#1232=CARTESIAN_POINT('',(75.5,-227.,52.3729833462074));
#1233=CARTESIAN_POINT('',(76.5,-227.,52.3729833462074));
#1234=CARTESIAN_POINT('',(76.5,-219.,52.3729833462074));
#1235=CARTESIAN_POINT('',(76.5,-219.,52.3729833462074));
#1236=CARTESIAN_POINT('',(75.5,-219.,52.3729833462074));
#1237=CARTESIAN_POINT('',(75.5,-219.,52.3729833462074));
#1238=CARTESIAN_POINT('',(76.5,-223.,48.3729833462074));
#1239=CARTESIAN_POINT('',(76.5,-223.,44.8729833462074));
#1240=CARTESIAN_POINT('',(76.5,-227.,52.3729833462074));
#1241=CARTESIAN_POINT('',(76.5,-227.,40.259785762619));
#1242=CARTESIAN_POINT('',(76.5,-219.,40.259785762619));
#1243=CARTESIAN_POINT('',(76.5,-219.,40.259785762619));
#1244=CARTESIAN_POINT('',(76.5,-219.,52.3729833462074));
#1245=CARTESIAN_POINT('',(76.5,-219.,52.3729833462074));
#1246=CARTESIAN_POINT('',(80.5,-227.,40.2597857626189));
#1247=CARTESIAN_POINT('',(80.5,-219.,40.2597857626189));
#1248=CARTESIAN_POINT('',(80.5,-219.,40.2597857626189));
#1249=CARTESIAN_POINT('',(35.2430467869272,-219.,4.));
#1250=CARTESIAN_POINT('',(105.756953213073,-219.,4.));
#1251=CARTESIAN_POINT('',(100.736567265482,-219.,4.));
#1252=CARTESIAN_POINT('',(40.2634327345183,-219.,4.));
#1253=CARTESIAN_POINT('',(70.5,-219.,3.67028648190031E-30));
#1254=CARTESIAN_POINT('',(35.2430467869272,-227.,4.));
#1255=CARTESIAN_POINT('',(40.2634327345183,-227.,4.));
#1256=CARTESIAN_POINT('',(100.736567265482,-227.,4.));
#1257=CARTESIAN_POINT('',(105.756953213073,-227.,4.));
#1258=CARTESIAN_POINT('',(70.5,-227.,3.67028648190031E-30));
#1259=CARTESIAN_POINT('',(37.5,-223.,2.7));
#1260=CARTESIAN_POINT('',(35.9153307227361,-222.540300879166,2.7));
#1261=CARTESIAN_POINT('',(35.9153307227361,-223.459699120834,2.7));
#1262=CARTESIAN_POINT('',(35.9153307227361,-223.459699120834,2.7));
#1263=CARTESIAN_POINT('',(35.8288025253351,-223.161420160045,2.7));
#1264=CARTESIAN_POINT('',(35.8288025253351,-222.838579839955,2.7));
#1265=CARTESIAN_POINT('',(35.9153307227361,-222.540300879166,2.7));
#1266=CARTESIAN_POINT('',(37.5,-223.,58.7102816808282));
#1267=CARTESIAN_POINT('',(103.5,-223.,2.7));
#1268=CARTESIAN_POINT('',(105.084669277264,-223.459699120834,2.7));
#1269=CARTESIAN_POINT('',(105.084669277264,-222.540300879166,2.7));
#1270=CARTESIAN_POINT('',(105.084669277264,-222.540300879166,2.7));
#1271=CARTESIAN_POINT('',(105.171197474665,-222.838579839955,2.7));
#1272=CARTESIAN_POINT('',(105.171197474665,-223.161420160045,2.7));
#1273=CARTESIAN_POINT('',(105.084669277264,-223.459699120834,2.7));
#1274=CARTESIAN_POINT('',(103.5,-223.,58.7102816808282));
#1275=CARTESIAN_POINT('',(35.2430467869272,-222.345277009721,2.));
#1276=CARTESIAN_POINT('',(35.0471761273304,-222.781721546242,2.));
#1277=CARTESIAN_POINT('',(35.0471761273304,-223.218203539762,2.));
#1278=CARTESIAN_POINT('',(35.2430467869272,-223.654722990279,2.));
#1279=CARTESIAN_POINT('',(35.2430467869272,-219.,4.));
#1280=CARTESIAN_POINT('',(40.2634327345183,-219.,4.));
#1281=CARTESIAN_POINT('',(105.756953213073,-223.654722990279,2.));
#1282=CARTESIAN_POINT('',(105.95282387267,-223.218278453758,2.));
#1283=CARTESIAN_POINT('',(105.95282387267,-222.781796460238,2.));
#1284=CARTESIAN_POINT('',(105.756953213073,-222.345277009721,2.));
#1285=CARTESIAN_POINT('',(105.756953213073,-219.,4.));
#1286=CARTESIAN_POINT('',(100.736567265482,-219.,4.));
#1287=CARTESIAN_POINT('',(65.2,-223.,48.3729833462074));
#1288=CARTESIAN_POINT('',(65.2,-223.,50.0229833462074));
#1289=CARTESIAN_POINT('',(63.5,-223.,48.3729833462074));
#1290=CARTESIAN_POINT('',(74.5,-223.,48.3729833462074));
#1291=CARTESIAN_POINT('',(74.5,-226.5,48.3729833462074));
#1292=CARTESIAN_POINT('',(111.48264853438,-223.,48.3729833462074));
#1293=CARTESIAN_POINT('',(74.5,-223.,48.3729833462074));
#1294=CARTESIAN_POINT('',(65.2,-223.,48.3729833462074));
#1295=CARTESIAN_POINT('',(35.2430467869272,-222.345277009721,2.));
#1296=CARTESIAN_POINT('',(35.9153307227361,-222.540300879166,2.7));
#1297=CARTESIAN_POINT('',(35.9153307227361,-223.459699120834,2.7));
#1298=CARTESIAN_POINT('',(35.2430467869272,-223.654722990279,2.));
#1299=CARTESIAN_POINT('',(37.5,-223.,2.7));
#1300=CARTESIAN_POINT('',(35.2430467869272,-222.345277009721,2.));
#1301=CARTESIAN_POINT('',(35.0523703262129,-222.770147685571,2.00585517010515));
#1302=CARTESIAN_POINT('',(35.0523341540349,-223.229698773338,2.00585714846531));
#1303=CARTESIAN_POINT('',(35.2430467869272,-223.654722990279,2.));
#1304=CARTESIAN_POINT('',(35.9153307227361,-222.540300879166,2.7));
#1305=CARTESIAN_POINT('',(35.8283092316229,-222.838614332422,2.70380586056835));
#1306=CARTESIAN_POINT('',(35.8282927232566,-223.161277862131,2.70380714650245));
#1307=CARTESIAN_POINT('',(35.9153307227361,-223.459699120834,2.7));
#1308=CARTESIAN_POINT('',(105.756953213073,-223.654722990279,2.));
#1309=CARTESIAN_POINT('',(105.084669277264,-223.459699120834,2.7));
#1310=CARTESIAN_POINT('',(105.084669277264,-222.540300879166,2.7));
#1311=CARTESIAN_POINT('',(105.756953213073,-222.345277009721,2.));
#1312=CARTESIAN_POINT('',(103.5,-223.,2.7));
#1313=CARTESIAN_POINT('',(105.756953213073,-223.654722990279,2.));
#1314=CARTESIAN_POINT('',(105.947629673787,-223.229852314429,2.00585517010515));
#1315=CARTESIAN_POINT('',(105.947665845965,-222.770301226662,2.00585714846531));
#1316=CARTESIAN_POINT('',(105.756953213073,-222.345277009721,2.));
#1317=CARTESIAN_POINT('',(105.084669277264,-223.459699120834,2.7));
#1318=CARTESIAN_POINT('',(105.171690768377,-223.161385667578,2.70380586056835));
#1319=CARTESIAN_POINT('',(105.171707276743,-222.838722137869,2.70380714650245));
#1320=CARTESIAN_POINT('',(105.084669277264,-222.540300879166,2.7));
#1321=(
GEOMETRIC_REPRESENTATION_CONTEXT(3)
GLOBAL_UNCERTAINTY_ASSIGNED_CONTEXT((#1322))
GLOBAL_UNIT_ASSIGNED_CONTEXT((#1328,#1324,#1323))
REPRESENTATION_CONTEXT('\X2\041A04400435043F043B0435043D04380435\X0\4',
'TOP_LEVEL_ASSEMBLY_PART')
);
#1322=UNCERTAINTY_MEASURE_WITH_UNIT(LENGTH_MEASURE(0.0508),#1328,
'DISTANCE_ACCURACY_VALUE','Maximum Tolerance applied to model');
#1323=(
NAMED_UNIT(*)
SI_UNIT($,.STERADIAN.)
SOLID_ANGLE_UNIT()
);
#1324=(
CONVERSION_BASED_UNIT('DEGREE',#1326)
NAMED_UNIT(#1325)
PLANE_ANGLE_UNIT()
);
#1325=DIMENSIONAL_EXPONENTS(0.,0.,0.,0.,0.,0.,0.);
#1326=PLANE_ANGLE_MEASURE_WITH_UNIT(PLANE_ANGLE_MEASURE(0.0174532925),#1327);
#1327=(
NAMED_UNIT(*)
PLANE_ANGLE_UNIT()
SI_UNIT($,.RADIAN.)
);
#1328=(
LENGTH_UNIT()
NAMED_UNIT(*)
SI_UNIT(.MILLI.,.METRE.)
);
ENDSEC;
END-ISO-10303-21;
