ISO-10303-21;
HEADER;
/* Generated by software containing ST-Developer
 * from STEP Tools, Inc. (www.steptools.com) 
 */
/* OPTION: using custom schema-name function */

FILE_DESCRIPTION(
/* description */ (''),
/* implementation_level */ '2;1');

FILE_NAME(
/* name */ '\X2\041A04400435043F043B0435043D04380435\X0\6.stp',
/* time_stamp */ '2026-06-25T22:07:39+03:00',
/* author */ (''),
/* organization */ (''),
/* preprocessor_version */ 'ST-DEVELOPER v16',
/* originating_system */ 'SIEMENS PLM Software NX 10.0',
/* authorisation */ '');

FILE_SCHEMA (('AP203_CONFIGURATION_CONTROLLED_3D_DESIGN_OF_MECHANICAL_PARTS_AND_ASSEMBLIES_MIM_LF { 1 0 10303 403 2 1 2}'));
ENDSEC;

DATA;
#10=PROPERTY_DEFINITION_REPRESENTATION(#14,#12);
#11=PROPERTY_DEFINITION_REPRESENTATION(#15,#13);
#12=REPRESENTATION('',(#16),#1333);
#13=REPRESENTATION('',(#17),#1333);
#14=PROPERTY_DEFINITION('pmi validation property','',#89);
#15=PROPERTY_DEFINITION('pmi validation property','',#89);
#16=VALUE_REPRESENTATION_ITEM('number of annotations',COUNT_MEASURE(0.));
#17=VALUE_REPRESENTATION_ITEM('number of views',COUNT_MEASURE(0.));
#18=SHAPE_REPRESENTATION_RELATIONSHIP('None',
'relationship between Hi6C8432B1731q-None and Hi6C8432B1731q-None',#100,
#19);
#19=ADVANCED_BREP_SHAPE_REPRESENTATION('Hi6C8432B1731q-None',(#101),#1333);
#20=CC_DESIGN_APPROVAL(#32,(#90));
#21=CC_DESIGN_APPROVAL(#33,(#92));
#22=CC_DESIGN_APPROVAL(#34,(#39));
#23=APPROVAL_PERSON_ORGANIZATION(#77,#32,#26);
#24=APPROVAL_PERSON_ORGANIZATION(#78,#33,#27);
#25=APPROVAL_PERSON_ORGANIZATION(#79,#34,#28);
#26=APPROVAL_ROLE('approver');
#27=APPROVAL_ROLE('approver');
#28=APPROVAL_ROLE('approver');
#29=APPROVAL_DATE_TIME(#47,#32);
#30=APPROVAL_DATE_TIME(#48,#33);
#31=APPROVAL_DATE_TIME(#49,#34);
#32=APPROVAL(#35,' ');
#33=APPROVAL(#36,' ');
#34=APPROVAL(#37,' ');
#35=APPROVAL_STATUS('not_yet_approved');
#36=APPROVAL_STATUS('not_yet_approved');
#37=APPROVAL_STATUS('not_yet_approved');
#38=CC_DESIGN_SECURITY_CLASSIFICATION(#39,(#92));
#39=SECURITY_CLASSIFICATION(' ',' ',#40);
#40=SECURITY_CLASSIFICATION_LEVEL('confidential');
#41=CC_DESIGN_DATE_AND_TIME_ASSIGNMENT(#45,#43,(#90));
#42=CC_DESIGN_DATE_AND_TIME_ASSIGNMENT(#46,#44,(#39));
#43=DATE_TIME_ROLE('creation_date');
#44=DATE_TIME_ROLE('classification_date');
#45=DATE_AND_TIME(#60,#50);
#46=DATE_AND_TIME(#61,#51);
#47=DATE_AND_TIME(#62,#52);
#48=DATE_AND_TIME(#63,#53);
#49=DATE_AND_TIME(#64,#54);
#50=LOCAL_TIME(0,0,0.,#55);
#51=LOCAL_TIME(0,0,0.,#56);
#52=LOCAL_TIME(0,0,0.,#57);
#53=LOCAL_TIME(0,0,0.,#58);
#54=LOCAL_TIME(0,0,0.,#59);
#55=COORDINATED_UNIVERSAL_TIME_OFFSET(0,0,.BEHIND.);
#56=COORDINATED_UNIVERSAL_TIME_OFFSET(0,0,.BEHIND.);
#57=COORDINATED_UNIVERSAL_TIME_OFFSET(0,0,.BEHIND.);
#58=COORDINATED_UNIVERSAL_TIME_OFFSET(0,0,.BEHIND.);
#59=COORDINATED_UNIVERSAL_TIME_OFFSET(0,0,.BEHIND.);
#60=CALENDAR_DATE(0,1,1);
#61=CALENDAR_DATE(0,1,1);
#62=CALENDAR_DATE(0,1,1);
#63=CALENDAR_DATE(0,1,1);
#64=CALENDAR_DATE(0,1,1);
#65=CC_DESIGN_PERSON_AND_ORGANIZATION_ASSIGNMENT(#73,#69,(#90,#92));
#66=CC_DESIGN_PERSON_AND_ORGANIZATION_ASSIGNMENT(#74,#70,(#94));
#67=CC_DESIGN_PERSON_AND_ORGANIZATION_ASSIGNMENT(#75,#71,(#92));
#68=CC_DESIGN_PERSON_AND_ORGANIZATION_ASSIGNMENT(#76,#72,(#39));
#69=PERSON_AND_ORGANIZATION_ROLE('creator');
#70=PERSON_AND_ORGANIZATION_ROLE('design_owner');
#71=PERSON_AND_ORGANIZATION_ROLE('design_supplier');
#72=PERSON_AND_ORGANIZATION_ROLE('classification_officer');
#73=PERSON_AND_ORGANIZATION(#87,#80);
#74=PERSON_AND_ORGANIZATION(#87,#81);
#75=PERSON_AND_ORGANIZATION(#87,#82);
#76=PERSON_AND_ORGANIZATION(#87,#83);
#77=PERSON_AND_ORGANIZATION(#87,#84);
#78=PERSON_AND_ORGANIZATION(#87,#85);
#79=PERSON_AND_ORGANIZATION(#87,#86);
#80=ORGANIZATION(' ',' ',' ');
#81=ORGANIZATION(' ',' ',' ');
#82=ORGANIZATION(' ',' ',' ');
#83=ORGANIZATION(' ',' ',' ');
#84=ORGANIZATION(' ',' ',' ');
#85=ORGANIZATION(' ',' ',' ');
#86=ORGANIZATION(' ',' ',' ');
#87=PERSON(' ',' ',' ',(' '),$,$);
#88=SHAPE_DEFINITION_REPRESENTATION(#89,#100);
#89=PRODUCT_DEFINITION_SHAPE('','',#90);
#90=PRODUCT_DEFINITION(' ','',#92,#91);
#91=DESIGN_CONTEXT('',#99,'design');
#92=PRODUCT_DEFINITION_FORMATION_WITH_SPECIFIED_SOURCE(' ',' ',#94,
 .NOT_KNOWN.);
#93=PRODUCT_RELATED_PRODUCT_CATEGORY('detail','',(#94));
#94=PRODUCT('Hi6C8432B1731q','Hi6C8432B1731q',' ',(#97));
#95=PRODUCT_CATEGORY('part',' ');
#96=PRODUCT_CATEGORY(' ','');
#97=MECHANICAL_CONTEXT(' ',#99,'mechanical');
#98=APPLICATION_PROTOCOL_DEFINITION('international standard',
'config_control_design',2010,#99);
#99=APPLICATION_CONTEXT(
'configuration controlled 3D designs of mechanical parts and assemblie
s');
#100=SHAPE_REPRESENTATION('Hi6C8432B1731q-None',(#797),#1333);
#101=MANIFOLD_SOLID_BREP('',#102);
#102=CLOSED_SHELL('',(#155,#156,#157,#158,#159,#160,#161,#162,#163,#164,
#165,#166,#167,#168,#169,#170,#171,#172,#173,#174,#175,#176,#177,#178,#179,
#180,#181,#182,#183,#184,#185,#186,#187,#188,#189,#190,#191,#192,#193,#194));
#103=CONICAL_SURFACE('',#872,2.,45.0000000000001);
#104=CONICAL_SURFACE('',#873,2.,45.0000000000001);
#105=CONICAL_SURFACE('',#874,2.,45.);
#106=CONICAL_SURFACE('',#875,2.,45.);
#107=CONICAL_SURFACE('',#876,2.,45.);
#108=CONICAL_SURFACE('',#877,2.,45.);
#109=CONICAL_SURFACE('',#882,6.5,60.0000000000001);
#110=CONICAL_SURFACE('',#883,4.,60.0000000000002);
#111=CYLINDRICAL_SURFACE('',#810,4.);
#112=CYLINDRICAL_SURFACE('',#817,4.);
#113=CYLINDRICAL_SURFACE('',#826,30.);
#114=CYLINDRICAL_SURFACE('',#829,20.);
#115=CYLINDRICAL_SURFACE('',#833,25.);
#116=CYLINDRICAL_SURFACE('',#835,20.);
#117=CYLINDRICAL_SURFACE('',#837,4.);
#118=CYLINDRICAL_SURFACE('',#839,2.);
#119=CYLINDRICAL_SURFACE('',#841,2.);
#120=CYLINDRICAL_SURFACE('',#844,14.);
#121=CYLINDRICAL_SURFACE('',#846,2.);
#122=CYLINDRICAL_SURFACE('',#848,2.);
#123=CYLINDRICAL_SURFACE('',#850,2.);
#124=CYLINDRICAL_SURFACE('',#853,2.);
#125=CYLINDRICAL_SURFACE('',#867,4.);
#126=CYLINDRICAL_SURFACE('',#869,6.5);
#127=CYLINDRICAL_SURFACE('',#871,6.5);
#128=CYLINDRICAL_SURFACE('',#878,3.);
#129=CYLINDRICAL_SURFACE('',#879,3.);
#130=CYLINDRICAL_SURFACE('',#880,3.);
#131=CYLINDRICAL_SURFACE('',#881,3.);
#132=B_SPLINE_CURVE_WITH_KNOTS('',3,(#1150,#1151,#1152,#1153,#1154,#1155,
#1156,#1157,#1158,#1159,#1160,#1161,#1162,#1163,#1164,#1165,#1166,#1167),
 .UNSPECIFIED.,.T.,.F.,(2,2,2,2,2,2,2,2,2,2,2),(-0.125,0.,0.125,0.25,0.375,
0.5,0.625,0.75,0.875,1.,1.125),.UNSPECIFIED.);
#133=B_SPLINE_CURVE_WITH_KNOTS('',3,(#1248,#1249,#1250,#1251,#1252,#1253,
#1254,#1255,#1256,#1257,#1258,#1259,#1260,#1261,#1262,#1263,#1264,#1265),
 .UNSPECIFIED.,.T.,.F.,(2,2,2,2,2,2,2,2,2,2,2),(-0.125,0.,0.125,0.25,0.375,
0.5,0.625,0.75,0.875,1.,1.125),.UNSPECIFIED.);
#134=FACE_OUTER_BOUND('',#348,.T.);
#135=FACE_OUTER_BOUND('',#353,.T.);
#136=FACE_OUTER_BOUND('',#356,.T.);
#137=FACE_OUTER_BOUND('',#357,.T.);
#138=FACE_OUTER_BOUND('',#358,.T.);
#139=FACE_OUTER_BOUND('',#359,.T.);
#140=FACE_OUTER_BOUND('',#360,.T.);
#141=FACE_OUTER_BOUND('',#361,.T.);
#142=FACE_OUTER_BOUND('',#362,.T.);
#143=FACE_OUTER_BOUND('',#363,.T.);
#144=FACE_OUTER_BOUND('',#378,.T.);
#145=FACE_OUTER_BOUND('',#391,.T.);
#146=FACE_OUTER_BOUND('',#392,.T.);
#147=FACE_OUTER_BOUND('',#409,.T.);
#148=FACE_OUTER_BOUND('',#410,.T.);
#149=FACE_OUTER_BOUND('',#411,.T.);
#150=FACE_OUTER_BOUND('',#412,.T.);
#151=FACE_OUTER_BOUND('',#413,.T.);
#152=FACE_OUTER_BOUND('',#414,.T.);
#153=ELLIPSE('',#807,13.646462318226,6.5);
#154=ELLIPSE('',#830,13.646462318226,6.5);
#155=ADVANCED_FACE('',(#290,#291,#292,#293,#294),#195,.T.);
#156=ADVANCED_FACE('',(#134),#196,.F.);
#157=ADVANCED_FACE('',(#295,#296),#111,.F.);
#158=ADVANCED_FACE('',(#297,#298),#197,.T.);
#159=ADVANCED_FACE('',(#135),#112,.F.);
#160=ADVANCED_FACE('',(#299,#300),#198,.T.);
#161=ADVANCED_FACE('',(#136),#199,.F.);
#162=ADVANCED_FACE('',(#137),#200,.F.);
#163=ADVANCED_FACE('',(#138),#113,.F.);
#164=ADVANCED_FACE('',(#139),#201,.F.);
#165=ADVANCED_FACE('',(#140),#114,.T.);
#166=ADVANCED_FACE('',(#141),#202,.F.);
#167=ADVANCED_FACE('',(#142),#115,.T.);
#168=ADVANCED_FACE('',(#143),#116,.T.);
#169=ADVANCED_FACE('',(#301,#302),#117,.F.);
#170=ADVANCED_FACE('',(#303,#304),#118,.F.);
#171=ADVANCED_FACE('',(#305,#306),#119,.F.);
#172=ADVANCED_FACE('',(#307,#308),#120,.F.);
#173=ADVANCED_FACE('',(#309,#310),#121,.F.);
#174=ADVANCED_FACE('',(#311,#312),#122,.F.);
#175=ADVANCED_FACE('',(#313,#314),#123,.F.);
#176=ADVANCED_FACE('',(#144),#203,.F.);
#177=ADVANCED_FACE('',(#315,#316),#124,.F.);
#178=ADVANCED_FACE('',(#317,#318,#319,#320,#321,#322,#323,#324,#325,#326),
#204,.F.);
#179=ADVANCED_FACE('',(#145),#205,.T.);
#180=ADVANCED_FACE('',(#146),#125,.F.);
#181=ADVANCED_FACE('',(#327,#328),#126,.F.);
#182=ADVANCED_FACE('',(#329,#330),#127,.F.);
#183=ADVANCED_FACE('',(#331,#332),#103,.F.);
#184=ADVANCED_FACE('',(#333,#334),#104,.F.);
#185=ADVANCED_FACE('',(#335,#336),#105,.F.);
#186=ADVANCED_FACE('',(#337,#338),#106,.F.);
#187=ADVANCED_FACE('',(#339,#340),#107,.F.);
#188=ADVANCED_FACE('',(#341,#342),#108,.F.);
#189=ADVANCED_FACE('',(#147),#128,.T.);
#190=ADVANCED_FACE('',(#148),#129,.T.);
#191=ADVANCED_FACE('',(#149),#130,.T.);
#192=ADVANCED_FACE('',(#150),#131,.T.);
#193=ADVANCED_FACE('',(#151),#109,.F.);
#194=ADVANCED_FACE('',(#152),#110,.F.);
#195=PLANE('',#806);
#196=PLANE('',#808);
#197=PLANE('',#814);
#198=PLANE('',#821);
#199=PLANE('',#823);
#200=PLANE('',#824);
#201=PLANE('',#827);
#202=PLANE('',#831);
#203=PLANE('',#851);
#204=PLANE('',#864);
#205=PLANE('',#865);
#206=LINE('',#1109,#248);
#207=LINE('',#1112,#249);
#208=LINE('',#1114,#250);
#209=LINE('',#1116,#251);
#210=LINE('',#1124,#252);
#211=LINE('',#1126,#253);
#212=LINE('',#1128,#254);
#213=LINE('',#1130,#255);
#214=LINE('',#1132,#256);
#215=LINE('',#1136,#257);
#216=LINE('',#1140,#258);
#217=LINE('',#1142,#259);
#218=LINE('',#1144,#260);
#219=LINE('',#1146,#261);
#220=LINE('',#1172,#262);
#221=LINE('',#1174,#263);
#222=LINE('',#1176,#264);
#223=LINE('',#1178,#265);
#224=LINE('',#1182,#266);
#225=LINE('',#1189,#267);
#226=LINE('',#1192,#268);
#227=LINE('',#1194,#269);
#228=LINE('',#1198,#270);
#229=LINE('',#1202,#271);
#230=LINE('',#1204,#272);
#231=LINE('',#1208,#273);
#232=LINE('',#1210,#274);
#233=LINE('',#1212,#275);
#234=LINE('',#1215,#276);
#235=LINE('',#1218,#277);
#236=LINE('',#1219,#278);
#237=LINE('',#1221,#279);
#238=LINE('',#1225,#280);
#239=LINE('',#1227,#281);
#240=LINE('',#1230,#282);
#241=LINE('',#1231,#283);
#242=LINE('',#1233,#284);
#243=LINE('',#1238,#285);
#244=LINE('',#1240,#286);
#245=LINE('',#1244,#287);
#246=LINE('',#1290,#288);
#247=LINE('',#1292,#289);
#248=VECTOR('',#894,1.);
#249=VECTOR('',#895,1.);
#250=VECTOR('',#896,1.);
#251=VECTOR('',#897,1.);
#252=VECTOR('',#904,1.);
#253=VECTOR('',#905,1.);
#254=VECTOR('',#906,1.);
#255=VECTOR('',#907,1.);
#256=VECTOR('',#908,1.);
#257=VECTOR('',#911,1.);
#258=VECTOR('',#916,1.);
#259=VECTOR('',#917,1.);
#260=VECTOR('',#918,1.);
#261=VECTOR('',#919,1.);
#262=VECTOR('',#928,1.);
#263=VECTOR('',#929,1.);
#264=VECTOR('',#930,1.);
#265=VECTOR('',#931,1.);
#266=VECTOR('',#934,1.);
#267=VECTOR('',#945,1.);
#268=VECTOR('',#946,1.);
#269=VECTOR('',#947,1.);
#270=VECTOR('',#950,1.);
#271=VECTOR('',#953,1.);
#272=VECTOR('',#954,1.);
#273=VECTOR('',#959,1.);
#274=VECTOR('',#960,1.);
#275=VECTOR('',#961,1.);
#276=VECTOR('',#966,1.);
#277=VECTOR('',#967,1.);
#278=VECTOR('',#968,1.);
#279=VECTOR('',#971,1.);
#280=VECTOR('',#974,1.);
#281=VECTOR('',#977,1.);
#282=VECTOR('',#978,1.);
#283=VECTOR('',#979,1.);
#284=VECTOR('',#982,1.);
#285=VECTOR('',#989,1.);
#286=VECTOR('',#990,1.);
#287=VECTOR('',#997,1.);
#288=VECTOR('',#1032,1.);
#289=VECTOR('',#1033,1.);
#290=FACE_BOUND('',#343,.T.);
#291=FACE_BOUND('',#344,.T.);
#292=FACE_BOUND('',#345,.T.);
#293=FACE_BOUND('',#346,.T.);
#294=FACE_BOUND('',#347,.T.);
#295=FACE_BOUND('',#349,.T.);
#296=FACE_BOUND('',#350,.T.);
#297=FACE_BOUND('',#351,.T.);
#298=FACE_BOUND('',#352,.T.);
#299=FACE_BOUND('',#354,.T.);
#300=FACE_BOUND('',#355,.T.);
#301=FACE_BOUND('',#364,.T.);
#302=FACE_BOUND('',#365,.T.);
#303=FACE_BOUND('',#366,.T.);
#304=FACE_BOUND('',#367,.T.);
#305=FACE_BOUND('',#368,.T.);
#306=FACE_BOUND('',#369,.T.);
#307=FACE_BOUND('',#370,.T.);
#308=FACE_BOUND('',#371,.T.);
#309=FACE_BOUND('',#372,.T.);
#310=FACE_BOUND('',#373,.T.);
#311=FACE_BOUND('',#374,.T.);
#312=FACE_BOUND('',#375,.T.);
#313=FACE_BOUND('',#376,.T.);
#314=FACE_BOUND('',#377,.T.);
#315=FACE_BOUND('',#379,.T.);
#316=FACE_BOUND('',#380,.T.);
#317=FACE_BOUND('',#381,.T.);
#318=FACE_BOUND('',#382,.T.);
#319=FACE_BOUND('',#383,.T.);
#320=FACE_BOUND('',#384,.T.);
#321=FACE_BOUND('',#385,.T.);
#322=FACE_BOUND('',#386,.T.);
#323=FACE_BOUND('',#387,.T.);
#324=FACE_BOUND('',#388,.T.);
#325=FACE_BOUND('',#389,.T.);
#326=FACE_BOUND('',#390,.T.);
#327=FACE_BOUND('',#393,.T.);
#328=FACE_BOUND('',#394,.T.);
#329=FACE_BOUND('',#395,.T.);
#330=FACE_BOUND('',#396,.T.);
#331=FACE_BOUND('',#397,.T.);
#332=FACE_BOUND('',#398,.T.);
#333=FACE_BOUND('',#399,.T.);
#334=FACE_BOUND('',#400,.T.);
#335=FACE_BOUND('',#401,.T.);
#336=FACE_BOUND('',#402,.T.);
#337=FACE_BOUND('',#403,.T.);
#338=FACE_BOUND('',#404,.T.);
#339=FACE_BOUND('',#405,.T.);
#340=FACE_BOUND('',#406,.T.);
#341=FACE_BOUND('',#407,.T.);
#342=FACE_BOUND('',#408,.T.);
#343=EDGE_LOOP('',(#415));
#344=EDGE_LOOP('',(#416));
#345=EDGE_LOOP('',(#417));
#346=EDGE_LOOP('',(#418));
#347=EDGE_LOOP('',(#419,#420,#421,#422,#423,#424,#425,#426,#427,#428,#429,
#430,#431,#432));
#348=EDGE_LOOP('',(#433,#434,#435,#436,#437,#438));
#349=EDGE_LOOP('',(#439));
#350=EDGE_LOOP('',(#440));
#351=EDGE_LOOP('',(#441));
#352=EDGE_LOOP('',(#442,#443,#444,#445,#446,#447,#448,#449));
#353=EDGE_LOOP('',(#450,#451,#452,#453));
#354=EDGE_LOOP('',(#454,#455,#456,#457,#458,#459,#460,#461));
#355=EDGE_LOOP('',(#462));
#356=EDGE_LOOP('',(#463,#464,#465,#466,#467,#468));
#357=EDGE_LOOP('',(#469,#470,#471,#472,#473,#474));
#358=EDGE_LOOP('',(#475,#476,#477,#478));
#359=EDGE_LOOP('',(#479,#480,#481,#482));
#360=EDGE_LOOP('',(#483,#484,#485,#486));
#361=EDGE_LOOP('',(#487,#488,#489,#490,#491,#492));
#362=EDGE_LOOP('',(#493,#494,#495,#496));
#363=EDGE_LOOP('',(#497,#498,#499,#500));
#364=EDGE_LOOP('',(#501));
#365=EDGE_LOOP('',(#502));
#366=EDGE_LOOP('',(#503));
#367=EDGE_LOOP('',(#504));
#368=EDGE_LOOP('',(#505));
#369=EDGE_LOOP('',(#506));
#370=EDGE_LOOP('',(#507));
#371=EDGE_LOOP('',(#508));
#372=EDGE_LOOP('',(#509));
#373=EDGE_LOOP('',(#510));
#374=EDGE_LOOP('',(#511));
#375=EDGE_LOOP('',(#512));
#376=EDGE_LOOP('',(#513));
#377=EDGE_LOOP('',(#514));
#378=EDGE_LOOP('',(#515,#516,#517,#518));
#379=EDGE_LOOP('',(#519));
#380=EDGE_LOOP('',(#520));
#381=EDGE_LOOP('',(#521));
#382=EDGE_LOOP('',(#522));
#383=EDGE_LOOP('',(#523));
#384=EDGE_LOOP('',(#524));
#385=EDGE_LOOP('',(#525));
#386=EDGE_LOOP('',(#526));
#387=EDGE_LOOP('',(#527,#528,#529,#530,#531,#532,#533,#534,#535,#536,#537,
#538,#539,#540));
#388=EDGE_LOOP('',(#541));
#389=EDGE_LOOP('',(#542));
#390=EDGE_LOOP('',(#543));
#391=EDGE_LOOP('',(#544));
#392=EDGE_LOOP('',(#545,#546,#547,#548));
#393=EDGE_LOOP('',(#549,#550,#551,#552));
#394=EDGE_LOOP('',(#553));
#395=EDGE_LOOP('',(#554));
#396=EDGE_LOOP('',(#555,#556,#557,#558));
#397=EDGE_LOOP('',(#559));
#398=EDGE_LOOP('',(#560));
#399=EDGE_LOOP('',(#561));
#400=EDGE_LOOP('',(#562));
#401=EDGE_LOOP('',(#563));
#402=EDGE_LOOP('',(#564));
#403=EDGE_LOOP('',(#565));
#404=EDGE_LOOP('',(#566));
#405=EDGE_LOOP('',(#567));
#406=EDGE_LOOP('',(#568));
#407=EDGE_LOOP('',(#569));
#408=EDGE_LOOP('',(#570));
#409=EDGE_LOOP('',(#571,#572,#573,#574));
#410=EDGE_LOOP('',(#575,#576,#577,#578));
#411=EDGE_LOOP('',(#579,#580,#581,#582));
#412=EDGE_LOOP('',(#583,#584,#585,#586));
#413=EDGE_LOOP('',(#587,#588,#589,#590));
#414=EDGE_LOOP('',(#591,#592,#593,#594));
#415=ORIENTED_EDGE('',*,*,#663,.T.);
#416=ORIENTED_EDGE('',*,*,#664,.T.);
#417=ORIENTED_EDGE('',*,*,#665,.T.);
#418=ORIENTED_EDGE('',*,*,#666,.T.);
#419=ORIENTED_EDGE('',*,*,#667,.T.);
#420=ORIENTED_EDGE('',*,*,#668,.T.);
#421=ORIENTED_EDGE('',*,*,#669,.F.);
#422=ORIENTED_EDGE('',*,*,#670,.F.);
#423=ORIENTED_EDGE('',*,*,#671,.T.);
#424=ORIENTED_EDGE('',*,*,#672,.F.);
#425=ORIENTED_EDGE('',*,*,#673,.T.);
#426=ORIENTED_EDGE('',*,*,#674,.F.);
#427=ORIENTED_EDGE('',*,*,#675,.F.);
#428=ORIENTED_EDGE('',*,*,#676,.T.);
#429=ORIENTED_EDGE('',*,*,#677,.T.);
#430=ORIENTED_EDGE('',*,*,#678,.F.);
#431=ORIENTED_EDGE('',*,*,#679,.F.);
#432=ORIENTED_EDGE('',*,*,#680,.F.);
#433=ORIENTED_EDGE('',*,*,#681,.F.);
#434=ORIENTED_EDGE('',*,*,#682,.T.);
#435=ORIENTED_EDGE('',*,*,#683,.F.);
#436=ORIENTED_EDGE('',*,*,#684,.F.);
#437=ORIENTED_EDGE('',*,*,#685,.T.);
#438=ORIENTED_EDGE('',*,*,#678,.T.);
#439=ORIENTED_EDGE('',*,*,#686,.T.);
#440=ORIENTED_EDGE('',*,*,#687,.F.);
#441=ORIENTED_EDGE('',*,*,#688,.T.);
#442=ORIENTED_EDGE('',*,*,#689,.T.);
#443=ORIENTED_EDGE('',*,*,#690,.T.);
#444=ORIENTED_EDGE('',*,*,#691,.F.);
#445=ORIENTED_EDGE('',*,*,#692,.F.);
#446=ORIENTED_EDGE('',*,*,#693,.T.);
#447=ORIENTED_EDGE('',*,*,#694,.F.);
#448=ORIENTED_EDGE('',*,*,#695,.F.);
#449=ORIENTED_EDGE('',*,*,#682,.F.);
#450=ORIENTED_EDGE('',*,*,#691,.T.);
#451=ORIENTED_EDGE('',*,*,#696,.T.);
#452=ORIENTED_EDGE('',*,*,#675,.T.);
#453=ORIENTED_EDGE('',*,*,#697,.T.);
#454=ORIENTED_EDGE('',*,*,#698,.T.);
#455=ORIENTED_EDGE('',*,*,#699,.T.);
#456=ORIENTED_EDGE('',*,*,#700,.F.);
#457=ORIENTED_EDGE('',*,*,#701,.F.);
#458=ORIENTED_EDGE('',*,*,#702,.F.);
#459=ORIENTED_EDGE('',*,*,#703,.T.);
#460=ORIENTED_EDGE('',*,*,#704,.F.);
#461=ORIENTED_EDGE('',*,*,#705,.F.);
#462=ORIENTED_EDGE('',*,*,#706,.T.);
#463=ORIENTED_EDGE('',*,*,#704,.T.);
#464=ORIENTED_EDGE('',*,*,#707,.T.);
#465=ORIENTED_EDGE('',*,*,#708,.F.);
#466=ORIENTED_EDGE('',*,*,#709,.T.);
#467=ORIENTED_EDGE('',*,*,#670,.T.);
#468=ORIENTED_EDGE('',*,*,#710,.F.);
#469=ORIENTED_EDGE('',*,*,#711,.F.);
#470=ORIENTED_EDGE('',*,*,#712,.T.);
#471=ORIENTED_EDGE('',*,*,#692,.T.);
#472=ORIENTED_EDGE('',*,*,#697,.F.);
#473=ORIENTED_EDGE('',*,*,#674,.T.);
#474=ORIENTED_EDGE('',*,*,#713,.T.);
#475=ORIENTED_EDGE('',*,*,#672,.T.);
#476=ORIENTED_EDGE('',*,*,#714,.T.);
#477=ORIENTED_EDGE('',*,*,#715,.F.);
#478=ORIENTED_EDGE('',*,*,#716,.T.);
#479=ORIENTED_EDGE('',*,*,#717,.F.);
#480=ORIENTED_EDGE('',*,*,#718,.T.);
#481=ORIENTED_EDGE('',*,*,#702,.T.);
#482=ORIENTED_EDGE('',*,*,#719,.F.);
#483=ORIENTED_EDGE('',*,*,#701,.T.);
#484=ORIENTED_EDGE('',*,*,#720,.F.);
#485=ORIENTED_EDGE('',*,*,#721,.F.);
#486=ORIENTED_EDGE('',*,*,#719,.T.);
#487=ORIENTED_EDGE('',*,*,#722,.F.);
#488=ORIENTED_EDGE('',*,*,#680,.T.);
#489=ORIENTED_EDGE('',*,*,#723,.F.);
#490=ORIENTED_EDGE('',*,*,#724,.F.);
#491=ORIENTED_EDGE('',*,*,#720,.T.);
#492=ORIENTED_EDGE('',*,*,#700,.T.);
#493=ORIENTED_EDGE('',*,*,#679,.T.);
#494=ORIENTED_EDGE('',*,*,#685,.F.);
#495=ORIENTED_EDGE('',*,*,#725,.F.);
#496=ORIENTED_EDGE('',*,*,#723,.T.);
#497=ORIENTED_EDGE('',*,*,#695,.T.);
#498=ORIENTED_EDGE('',*,*,#726,.F.);
#499=ORIENTED_EDGE('',*,*,#727,.F.);
#500=ORIENTED_EDGE('',*,*,#683,.T.);
#501=ORIENTED_EDGE('',*,*,#728,.F.);
#502=ORIENTED_EDGE('',*,*,#729,.T.);
#503=ORIENTED_EDGE('',*,*,#730,.T.);
#504=ORIENTED_EDGE('',*,*,#663,.F.);
#505=ORIENTED_EDGE('',*,*,#731,.T.);
#506=ORIENTED_EDGE('',*,*,#664,.F.);
#507=ORIENTED_EDGE('',*,*,#732,.F.);
#508=ORIENTED_EDGE('',*,*,#733,.T.);
#509=ORIENTED_EDGE('',*,*,#734,.T.);
#510=ORIENTED_EDGE('',*,*,#665,.F.);
#511=ORIENTED_EDGE('',*,*,#735,.T.);
#512=ORIENTED_EDGE('',*,*,#666,.F.);
#513=ORIENTED_EDGE('',*,*,#736,.T.);
#514=ORIENTED_EDGE('',*,*,#688,.F.);
#515=ORIENTED_EDGE('',*,*,#694,.T.);
#516=ORIENTED_EDGE('',*,*,#737,.T.);
#517=ORIENTED_EDGE('',*,*,#738,.F.);
#518=ORIENTED_EDGE('',*,*,#726,.T.);
#519=ORIENTED_EDGE('',*,*,#739,.T.);
#520=ORIENTED_EDGE('',*,*,#706,.F.);
#521=ORIENTED_EDGE('',*,*,#740,.T.);
#522=ORIENTED_EDGE('',*,*,#741,.T.);
#523=ORIENTED_EDGE('',*,*,#742,.T.);
#524=ORIENTED_EDGE('',*,*,#743,.T.);
#525=ORIENTED_EDGE('',*,*,#744,.T.);
#526=ORIENTED_EDGE('',*,*,#745,.T.);
#527=ORIENTED_EDGE('',*,*,#708,.T.);
#528=ORIENTED_EDGE('',*,*,#746,.T.);
#529=ORIENTED_EDGE('',*,*,#717,.T.);
#530=ORIENTED_EDGE('',*,*,#721,.T.);
#531=ORIENTED_EDGE('',*,*,#724,.T.);
#532=ORIENTED_EDGE('',*,*,#725,.T.);
#533=ORIENTED_EDGE('',*,*,#684,.T.);
#534=ORIENTED_EDGE('',*,*,#727,.T.);
#535=ORIENTED_EDGE('',*,*,#738,.T.);
#536=ORIENTED_EDGE('',*,*,#747,.T.);
#537=ORIENTED_EDGE('',*,*,#711,.T.);
#538=ORIENTED_EDGE('',*,*,#748,.T.);
#539=ORIENTED_EDGE('',*,*,#715,.T.);
#540=ORIENTED_EDGE('',*,*,#749,.T.);
#541=ORIENTED_EDGE('',*,*,#686,.F.);
#542=ORIENTED_EDGE('',*,*,#733,.F.);
#543=ORIENTED_EDGE('',*,*,#729,.F.);
#544=ORIENTED_EDGE('',*,*,#732,.T.);
#545=ORIENTED_EDGE('',*,*,#669,.T.);
#546=ORIENTED_EDGE('',*,*,#750,.T.);
#547=ORIENTED_EDGE('',*,*,#705,.T.);
#548=ORIENTED_EDGE('',*,*,#710,.T.);
#549=ORIENTED_EDGE('',*,*,#681,.T.);
#550=ORIENTED_EDGE('',*,*,#677,.F.);
#551=ORIENTED_EDGE('',*,*,#751,.F.);
#552=ORIENTED_EDGE('',*,*,#689,.F.);
#553=ORIENTED_EDGE('',*,*,#687,.T.);
#554=ORIENTED_EDGE('',*,*,#728,.T.);
#555=ORIENTED_EDGE('',*,*,#722,.T.);
#556=ORIENTED_EDGE('',*,*,#699,.F.);
#557=ORIENTED_EDGE('',*,*,#752,.T.);
#558=ORIENTED_EDGE('',*,*,#667,.F.);
#559=ORIENTED_EDGE('',*,*,#740,.F.);
#560=ORIENTED_EDGE('',*,*,#736,.F.);
#561=ORIENTED_EDGE('',*,*,#741,.F.);
#562=ORIENTED_EDGE('',*,*,#739,.F.);
#563=ORIENTED_EDGE('',*,*,#742,.F.);
#564=ORIENTED_EDGE('',*,*,#731,.F.);
#565=ORIENTED_EDGE('',*,*,#743,.F.);
#566=ORIENTED_EDGE('',*,*,#730,.F.);
#567=ORIENTED_EDGE('',*,*,#744,.F.);
#568=ORIENTED_EDGE('',*,*,#735,.F.);
#569=ORIENTED_EDGE('',*,*,#745,.F.);
#570=ORIENTED_EDGE('',*,*,#734,.F.);
#571=ORIENTED_EDGE('',*,*,#746,.F.);
#572=ORIENTED_EDGE('',*,*,#707,.F.);
#573=ORIENTED_EDGE('',*,*,#703,.F.);
#574=ORIENTED_EDGE('',*,*,#718,.F.);
#575=ORIENTED_EDGE('',*,*,#749,.F.);
#576=ORIENTED_EDGE('',*,*,#714,.F.);
#577=ORIENTED_EDGE('',*,*,#671,.F.);
#578=ORIENTED_EDGE('',*,*,#709,.F.);
#579=ORIENTED_EDGE('',*,*,#747,.F.);
#580=ORIENTED_EDGE('',*,*,#737,.F.);
#581=ORIENTED_EDGE('',*,*,#693,.F.);
#582=ORIENTED_EDGE('',*,*,#712,.F.);
#583=ORIENTED_EDGE('',*,*,#748,.F.);
#584=ORIENTED_EDGE('',*,*,#713,.F.);
#585=ORIENTED_EDGE('',*,*,#673,.F.);
#586=ORIENTED_EDGE('',*,*,#716,.F.);
#587=ORIENTED_EDGE('',*,*,#676,.F.);
#588=ORIENTED_EDGE('',*,*,#696,.F.);
#589=ORIENTED_EDGE('',*,*,#690,.F.);
#590=ORIENTED_EDGE('',*,*,#751,.T.);
#591=ORIENTED_EDGE('',*,*,#668,.F.);
#592=ORIENTED_EDGE('',*,*,#752,.F.);
#593=ORIENTED_EDGE('',*,*,#698,.F.);
#594=ORIENTED_EDGE('',*,*,#750,.F.);
#595=VERTEX_POINT('',#1102);
#596=VERTEX_POINT('',#1104);
#597=VERTEX_POINT('',#1106);
#598=VERTEX_POINT('',#1108);
#599=VERTEX_POINT('',#1110);
#600=VERTEX_POINT('',#1111);
#601=VERTEX_POINT('',#1113);
#602=VERTEX_POINT('',#1115);
#603=VERTEX_POINT('',#1117);
#604=VERTEX_POINT('',#1119);
#605=VERTEX_POINT('',#1121);
#606=VERTEX_POINT('',#1123);
#607=VERTEX_POINT('',#1125);
#608=VERTEX_POINT('',#1127);
#609=VERTEX_POINT('',#1129);
#610=VERTEX_POINT('',#1131);
#611=VERTEX_POINT('',#1133);
#612=VERTEX_POINT('',#1135);
#613=VERTEX_POINT('',#1139);
#614=VERTEX_POINT('',#1141);
#615=VERTEX_POINT('',#1143);
#616=VERTEX_POINT('',#1145);
#617=VERTEX_POINT('',#1149);
#618=VERTEX_POINT('',#1168);
#619=VERTEX_POINT('',#1171);
#620=VERTEX_POINT('',#1173);
#621=VERTEX_POINT('',#1175);
#622=VERTEX_POINT('',#1177);
#623=VERTEX_POINT('',#1179);
#624=VERTEX_POINT('',#1181);
#625=VERTEX_POINT('',#1183);
#626=VERTEX_POINT('',#1190);
#627=VERTEX_POINT('',#1191);
#628=VERTEX_POINT('',#1193);
#629=VERTEX_POINT('',#1195);
#630=VERTEX_POINT('',#1197);
#631=VERTEX_POINT('',#1199);
#632=VERTEX_POINT('',#1201);
#633=VERTEX_POINT('',#1203);
#634=VERTEX_POINT('',#1206);
#635=VERTEX_POINT('',#1209);
#636=VERTEX_POINT('',#1211);
#637=VERTEX_POINT('',#1216);
#638=VERTEX_POINT('',#1217);
#639=VERTEX_POINT('',#1222);
#640=VERTEX_POINT('',#1224);
#641=VERTEX_POINT('',#1228);
#642=VERTEX_POINT('',#1229);
#643=VERTEX_POINT('',#1234);
#644=VERTEX_POINT('',#1239);
#645=VERTEX_POINT('',#1245);
#646=VERTEX_POINT('',#1266);
#647=VERTEX_POINT('',#1268);
#648=VERTEX_POINT('',#1271);
#649=VERTEX_POINT('',#1274);
#650=VERTEX_POINT('',#1277);
#651=VERTEX_POINT('',#1279);
#652=VERTEX_POINT('',#1282);
#653=VERTEX_POINT('',#1285);
#654=VERTEX_POINT('',#1288);
#655=VERTEX_POINT('',#1291);
#656=VERTEX_POINT('',#1295);
#657=VERTEX_POINT('',#1298);
#658=VERTEX_POINT('',#1300);
#659=VERTEX_POINT('',#1302);
#660=VERTEX_POINT('',#1304);
#661=VERTEX_POINT('',#1306);
#662=VERTEX_POINT('',#1308);
#663=EDGE_CURVE('',#595,#595,#753,.T.);
#664=EDGE_CURVE('',#596,#596,#754,.T.);
#665=EDGE_CURVE('',#597,#597,#755,.T.);
#666=EDGE_CURVE('',#598,#598,#756,.T.);
#667=EDGE_CURVE('',#599,#600,#206,.T.);
#668=EDGE_CURVE('',#600,#601,#207,.T.);
#669=EDGE_CURVE('',#602,#601,#208,.T.);
#670=EDGE_CURVE('',#603,#602,#209,.T.);
#671=EDGE_CURVE('',#603,#604,#757,.T.);
#672=EDGE_CURVE('',#605,#604,#758,.T.);
#673=EDGE_CURVE('',#605,#606,#759,.T.);
#674=EDGE_CURVE('',#607,#606,#210,.T.);
#675=EDGE_CURVE('',#608,#607,#211,.T.);
#676=EDGE_CURVE('',#608,#609,#212,.T.);
#677=EDGE_CURVE('',#609,#610,#213,.T.);
#678=EDGE_CURVE('',#611,#610,#214,.T.);
#679=EDGE_CURVE('',#612,#611,#760,.T.);
#680=EDGE_CURVE('',#599,#612,#215,.T.);
#681=EDGE_CURVE('',#613,#610,#153,.T.);
#682=EDGE_CURVE('',#613,#614,#216,.T.);
#683=EDGE_CURVE('',#615,#614,#217,.T.);
#684=EDGE_CURVE('',#616,#615,#218,.T.);
#685=EDGE_CURVE('',#616,#611,#219,.T.);
#686=EDGE_CURVE('',#617,#617,#761,.T.);
#687=EDGE_CURVE('',#618,#618,#132,.T.);
#688=EDGE_CURVE('',#619,#619,#762,.T.);
#689=EDGE_CURVE('',#613,#620,#220,.T.);
#690=EDGE_CURVE('',#620,#621,#221,.T.);
#691=EDGE_CURVE('',#622,#621,#222,.T.);
#692=EDGE_CURVE('',#623,#622,#223,.T.);
#693=EDGE_CURVE('',#623,#624,#763,.T.);
#694=EDGE_CURVE('',#625,#624,#224,.T.);
#695=EDGE_CURVE('',#614,#625,#764,.T.);
#696=EDGE_CURVE('',#621,#608,#765,.T.);
#697=EDGE_CURVE('',#607,#622,#766,.T.);
#698=EDGE_CURVE('',#626,#627,#225,.T.);
#699=EDGE_CURVE('',#627,#628,#226,.T.);
#700=EDGE_CURVE('',#629,#628,#227,.T.);
#701=EDGE_CURVE('',#630,#629,#767,.T.);
#702=EDGE_CURVE('',#631,#630,#228,.T.);
#703=EDGE_CURVE('',#631,#632,#768,.T.);
#704=EDGE_CURVE('',#633,#632,#229,.T.);
#705=EDGE_CURVE('',#626,#633,#230,.T.);
#706=EDGE_CURVE('',#634,#634,#769,.T.);
#707=EDGE_CURVE('',#632,#635,#231,.T.);
#708=EDGE_CURVE('',#636,#635,#232,.T.);
#709=EDGE_CURVE('',#636,#603,#233,.T.);
#710=EDGE_CURVE('',#633,#602,#770,.T.);
#711=EDGE_CURVE('',#637,#638,#234,.T.);
#712=EDGE_CURVE('',#637,#623,#235,.T.);
#713=EDGE_CURVE('',#606,#638,#236,.T.);
#714=EDGE_CURVE('',#604,#639,#237,.T.);
#715=EDGE_CURVE('',#640,#639,#771,.T.);
#716=EDGE_CURVE('',#640,#605,#238,.T.);
#717=EDGE_CURVE('',#641,#642,#239,.T.);
#718=EDGE_CURVE('',#641,#631,#240,.T.);
#719=EDGE_CURVE('',#642,#630,#241,.T.);
#720=EDGE_CURVE('',#643,#629,#242,.T.);
#721=EDGE_CURVE('',#642,#643,#772,.T.);
#722=EDGE_CURVE('',#599,#628,#154,.T.);
#723=EDGE_CURVE('',#644,#612,#243,.T.);
#724=EDGE_CURVE('',#643,#644,#244,.T.);
#725=EDGE_CURVE('',#644,#616,#773,.T.);
#726=EDGE_CURVE('',#645,#625,#245,.T.);
#727=EDGE_CURVE('',#615,#645,#774,.T.);
#728=EDGE_CURVE('',#646,#646,#133,.T.);
#729=EDGE_CURVE('',#647,#647,#775,.T.);
#730=EDGE_CURVE('',#648,#648,#776,.T.);
#731=EDGE_CURVE('',#649,#649,#777,.T.);
#732=EDGE_CURVE('',#650,#650,#778,.T.);
#733=EDGE_CURVE('',#651,#651,#779,.T.);
#734=EDGE_CURVE('',#652,#652,#780,.T.);
#735=EDGE_CURVE('',#653,#653,#781,.T.);
#736=EDGE_CURVE('',#654,#654,#782,.T.);
#737=EDGE_CURVE('',#624,#655,#246,.T.);
#738=EDGE_CURVE('',#645,#655,#247,.T.);
#739=EDGE_CURVE('',#656,#656,#783,.T.);
#740=EDGE_CURVE('',#657,#657,#784,.T.);
#741=EDGE_CURVE('',#658,#658,#785,.T.);
#742=EDGE_CURVE('',#659,#659,#786,.T.);
#743=EDGE_CURVE('',#660,#660,#787,.T.);
#744=EDGE_CURVE('',#661,#661,#788,.T.);
#745=EDGE_CURVE('',#662,#662,#789,.T.);
#746=EDGE_CURVE('',#635,#641,#790,.T.);
#747=EDGE_CURVE('',#655,#637,#791,.T.);
#748=EDGE_CURVE('',#638,#640,#792,.T.);
#749=EDGE_CURVE('',#639,#636,#793,.T.);
#750=EDGE_CURVE('',#601,#626,#794,.T.);
#751=EDGE_CURVE('',#620,#609,#795,.T.);
#752=EDGE_CURVE('',#627,#600,#796,.T.);
#753=CIRCLE('',#798,2.);
#754=CIRCLE('',#799,2.);
#755=CIRCLE('',#800,2.);
#756=CIRCLE('',#801,2.);
#757=CIRCLE('',#802,3.);
#758=CIRCLE('',#803,30.);
#759=CIRCLE('',#804,3.);
#760=CIRCLE('',#805,25.);
#761=CIRCLE('',#809,4.);
#762=CIRCLE('',#811,2.);
#763=CIRCLE('',#812,3.);
#764=CIRCLE('',#813,20.);
#765=CIRCLE('',#815,4.);
#766=CIRCLE('',#816,4.);
#767=CIRCLE('',#818,20.);
#768=CIRCLE('',#819,3.);
#769=CIRCLE('',#820,2.);
#770=CIRCLE('',#822,4.);
#771=CIRCLE('',#825,30.);
#772=CIRCLE('',#828,20.);
#773=CIRCLE('',#832,25.);
#774=CIRCLE('',#834,20.);
#775=CIRCLE('',#836,4.);
#776=CIRCLE('',#838,2.);
#777=CIRCLE('',#840,2.);
#778=CIRCLE('',#842,14.);
#779=CIRCLE('',#843,14.);
#780=CIRCLE('',#845,2.);
#781=CIRCLE('',#847,2.);
#782=CIRCLE('',#849,2.);
#783=CIRCLE('',#852,2.);
#784=CIRCLE('',#854,4.5);
#785=CIRCLE('',#855,4.5);
#786=CIRCLE('',#856,4.5);
#787=CIRCLE('',#857,4.5);
#788=CIRCLE('',#858,4.5);
#789=CIRCLE('',#859,4.5);
#790=CIRCLE('',#860,3.);
#791=CIRCLE('',#861,3.);
#792=CIRCLE('',#862,3.);
#793=CIRCLE('',#863,3.);
#794=CIRCLE('',#866,4.);
#795=CIRCLE('',#868,6.5);
#796=CIRCLE('',#870,6.5);
#797=AXIS2_PLACEMENT_3D('',#1100,#884,#885);
#798=AXIS2_PLACEMENT_3D('',#1101,#886,#887);
#799=AXIS2_PLACEMENT_3D('',#1103,#888,#889);
#800=AXIS2_PLACEMENT_3D('',#1105,#890,#891);
#801=AXIS2_PLACEMENT_3D('',#1107,#892,#893);
#802=AXIS2_PLACEMENT_3D('',#1118,#898,#899);
#803=AXIS2_PLACEMENT_3D('',#1120,#900,#901);
#804=AXIS2_PLACEMENT_3D('',#1122,#902,#903);
#805=AXIS2_PLACEMENT_3D('',#1134,#909,#910);
#806=AXIS2_PLACEMENT_3D('',#1137,#912,#913);
#807=AXIS2_PLACEMENT_3D('',#1138,#914,#915);
#808=AXIS2_PLACEMENT_3D('',#1147,#920,#921);
#809=AXIS2_PLACEMENT_3D('',#1148,#922,#923);
#810=AXIS2_PLACEMENT_3D('',#1169,#924,#925);
#811=AXIS2_PLACEMENT_3D('',#1170,#926,#927);
#812=AXIS2_PLACEMENT_3D('',#1180,#932,#933);
#813=AXIS2_PLACEMENT_3D('',#1184,#935,#936);
#814=AXIS2_PLACEMENT_3D('',#1185,#937,#938);
#815=AXIS2_PLACEMENT_3D('',#1186,#939,#940);
#816=AXIS2_PLACEMENT_3D('',#1187,#941,#942);
#817=AXIS2_PLACEMENT_3D('',#1188,#943,#944);
#818=AXIS2_PLACEMENT_3D('',#1196,#948,#949);
#819=AXIS2_PLACEMENT_3D('',#1200,#951,#952);
#820=AXIS2_PLACEMENT_3D('',#1205,#955,#956);
#821=AXIS2_PLACEMENT_3D('',#1207,#957,#958);
#822=AXIS2_PLACEMENT_3D('',#1213,#962,#963);
#823=AXIS2_PLACEMENT_3D('',#1214,#964,#965);
#824=AXIS2_PLACEMENT_3D('',#1220,#969,#970);
#825=AXIS2_PLACEMENT_3D('',#1223,#972,#973);
#826=AXIS2_PLACEMENT_3D('',#1226,#975,#976);
#827=AXIS2_PLACEMENT_3D('',#1232,#980,#981);
#828=AXIS2_PLACEMENT_3D('',#1235,#983,#984);
#829=AXIS2_PLACEMENT_3D('',#1236,#985,#986);
#830=AXIS2_PLACEMENT_3D('',#1237,#987,#988);
#831=AXIS2_PLACEMENT_3D('',#1241,#991,#992);
#832=AXIS2_PLACEMENT_3D('',#1242,#993,#994);
#833=AXIS2_PLACEMENT_3D('',#1243,#995,#996);
#834=AXIS2_PLACEMENT_3D('',#1246,#998,#999);
#835=AXIS2_PLACEMENT_3D('',#1247,#1000,#1001);
#836=AXIS2_PLACEMENT_3D('',#1267,#1002,#1003);
#837=AXIS2_PLACEMENT_3D('',#1269,#1004,#1005);
#838=AXIS2_PLACEMENT_3D('',#1270,#1006,#1007);
#839=AXIS2_PLACEMENT_3D('',#1272,#1008,#1009);
#840=AXIS2_PLACEMENT_3D('',#1273,#1010,#1011);
#841=AXIS2_PLACEMENT_3D('',#1275,#1012,#1013);
#842=AXIS2_PLACEMENT_3D('',#1276,#1014,#1015);
#843=AXIS2_PLACEMENT_3D('',#1278,#1016,#1017);
#844=AXIS2_PLACEMENT_3D('',#1280,#1018,#1019);
#845=AXIS2_PLACEMENT_3D('',#1281,#1020,#1021);
#846=AXIS2_PLACEMENT_3D('',#1283,#1022,#1023);
#847=AXIS2_PLACEMENT_3D('',#1284,#1024,#1025);
#848=AXIS2_PLACEMENT_3D('',#1286,#1026,#1027);
#849=AXIS2_PLACEMENT_3D('',#1287,#1028,#1029);
#850=AXIS2_PLACEMENT_3D('',#1289,#1030,#1031);
#851=AXIS2_PLACEMENT_3D('',#1293,#1034,#1035);
#852=AXIS2_PLACEMENT_3D('',#1294,#1036,#1037);
#853=AXIS2_PLACEMENT_3D('',#1296,#1038,#1039);
#854=AXIS2_PLACEMENT_3D('',#1297,#1040,#1041);
#855=AXIS2_PLACEMENT_3D('',#1299,#1042,#1043);
#856=AXIS2_PLACEMENT_3D('',#1301,#1044,#1045);
#857=AXIS2_PLACEMENT_3D('',#1303,#1046,#1047);
#858=AXIS2_PLACEMENT_3D('',#1305,#1048,#1049);
#859=AXIS2_PLACEMENT_3D('',#1307,#1050,#1051);
#860=AXIS2_PLACEMENT_3D('',#1309,#1052,#1053);
#861=AXIS2_PLACEMENT_3D('',#1310,#1054,#1055);
#862=AXIS2_PLACEMENT_3D('',#1311,#1056,#1057);
#863=AXIS2_PLACEMENT_3D('',#1312,#1058,#1059);
#864=AXIS2_PLACEMENT_3D('',#1313,#1060,#1061);
#865=AXIS2_PLACEMENT_3D('',#1314,#1062,#1063);
#866=AXIS2_PLACEMENT_3D('',#1315,#1064,#1065);
#867=AXIS2_PLACEMENT_3D('',#1316,#1066,#1067);
#868=AXIS2_PLACEMENT_3D('',#1317,#1068,#1069);
#869=AXIS2_PLACEMENT_3D('',#1318,#1070,#1071);
#870=AXIS2_PLACEMENT_3D('',#1319,#1072,#1073);
#871=AXIS2_PLACEMENT_3D('',#1320,#1074,#1075);
#872=AXIS2_PLACEMENT_3D('',#1321,#1076,#1077);
#873=AXIS2_PLACEMENT_3D('',#1322,#1078,#1079);
#874=AXIS2_PLACEMENT_3D('',#1323,#1080,#1081);
#875=AXIS2_PLACEMENT_3D('',#1324,#1082,#1083);
#876=AXIS2_PLACEMENT_3D('',#1325,#1084,#1085);
#877=AXIS2_PLACEMENT_3D('',#1326,#1086,#1087);
#878=AXIS2_PLACEMENT_3D('',#1327,#1088,#1089);
#879=AXIS2_PLACEMENT_3D('',#1328,#1090,#1091);
#880=AXIS2_PLACEMENT_3D('',#1329,#1092,#1093);
#881=AXIS2_PLACEMENT_3D('',#1330,#1094,#1095);
#882=AXIS2_PLACEMENT_3D('',#1331,#1096,#1097);
#883=AXIS2_PLACEMENT_3D('',#1332,#1098,#1099);
#884=DIRECTION('',(0.,0.,1.));
#885=DIRECTION('',(1.,0.,0.));
#886=DIRECTION('',(0.,-1.,0.));
#887=DIRECTION('',(0.,0.,-1.));
#888=DIRECTION('',(0.,-1.,0.));
#889=DIRECTION('',(0.,0.,-1.));
#890=DIRECTION('',(0.,-1.,0.));
#891=DIRECTION('',(0.,0.,-1.));
#892=DIRECTION('',(0.,-1.,0.));
#893=DIRECTION('',(0.,0.,-0.999999999999999));
#894=DIRECTION('',(-1.,0.,0.));
#895=DIRECTION('',(-0.499999999999997,0.,-0.86602540378444));
#896=DIRECTION('',(1.,0.,0.));
#897=DIRECTION('',(0.,0.,-1.));
#898=DIRECTION('',(0.,1.,0.));
#899=DIRECTION('',(1.,0.,0.));
#900=DIRECTION('',(0.,1.,0.));
#901=DIRECTION('',(6.12323399573676E-17,0.,-1.));
#902=DIRECTION('',(0.,1.,0.));
#903=DIRECTION('',(1.,0.,0.));
#904=DIRECTION('',(0.,0.,-1.));
#905=DIRECTION('',(-1.,0.,0.));
#906=DIRECTION('',(0.499999999999999,0.,-0.866025403784439));
#907=DIRECTION('',(1.,0.,0.));
#908=DIRECTION('',(-0.879275296415522,0.,0.476313922863269));
#909=DIRECTION('',(0.,-1.,0.));
#910=DIRECTION('',(0.,0.,-1.));
#911=DIRECTION('',(0.879275296415522,0.,0.476313922863269));
#912=DIRECTION('',(0.,1.,0.));
#913=DIRECTION('',(1.,0.,0.));
#914=DIRECTION('',(0.476313922863269,0.,0.879275296415522));
#915=DIRECTION('',(-0.879275296415522,0.,0.476313922863269));
#916=DIRECTION('',(-0.879275296415522,0.,0.476313922863269));
#917=DIRECTION('',(0.,1.,0.));
#918=DIRECTION('',(-0.879275296415522,0.,0.476313922863269));
#919=DIRECTION('',(0.,1.,0.));
#920=DIRECTION('',(-0.476313922863269,0.,-0.879275296415522));
#921=DIRECTION('',(0.879275296415522,0.,-0.476313922863269));
#922=DIRECTION('',(0.,-1.,0.));
#923=DIRECTION('',(0.,0.,-1.));
#924=DIRECTION('',(0.,1.,0.));
#925=DIRECTION('',(0.999999999999999,0.,0.));
#926=DIRECTION('',(0.,-1.,0.));
#927=DIRECTION('',(0.,0.,-1.));
#928=DIRECTION('',(-1.,0.,0.));
#929=DIRECTION('',(-0.499999999999999,0.,-0.866025403784439));
#930=DIRECTION('',(1.,0.,0.));
#931=DIRECTION('',(0.,0.,-1.));
#932=DIRECTION('',(0.,1.,0.));
#933=DIRECTION('',(1.,0.,0.));
#934=DIRECTION('',(-1.,0.,4.64734530254529E-16));
#935=DIRECTION('',(0.,-1.,0.));
#936=DIRECTION('',(0.,0.,-1.));
#937=DIRECTION('',(0.,1.,0.));
#938=DIRECTION('',(1.,0.,0.));
#939=DIRECTION('',(1.,0.,0.));
#940=DIRECTION('',(0.,1.,0.));
#941=DIRECTION('',(-1.,0.,0.));
#942=DIRECTION('',(0.,6.12323399573677E-17,-0.999999999999999));
#943=DIRECTION('',(-1.,0.,0.));
#944=DIRECTION('',(0.,1.,0.));
#945=DIRECTION('',(0.499999999999997,0.,-0.86602540378444));
#946=DIRECTION('',(1.,0.,0.));
#947=DIRECTION('',(0.879275296415522,0.,0.476313922863269));
#948=DIRECTION('',(0.,-1.,0.));
#949=DIRECTION('',(1.73472347597681E-16,0.,1.));
#950=DIRECTION('',(1.,0.,4.64734530254529E-16));
#951=DIRECTION('',(0.,1.,0.));
#952=DIRECTION('',(1.,0.,0.));
#953=DIRECTION('',(0.,0.,-1.));
#954=DIRECTION('',(-1.,0.,0.));
#955=DIRECTION('',(0.,-1.,0.));
#956=DIRECTION('',(0.,0.,-1.));
#957=DIRECTION('',(0.,1.,0.));
#958=DIRECTION('',(1.,0.,0.));
#959=DIRECTION('',(0.,-1.,0.));
#960=DIRECTION('',(0.,0.,-1.));
#961=DIRECTION('',(0.,1.,0.));
#962=DIRECTION('',(-1.,0.,0.));
#963=DIRECTION('',(0.,6.12323399573677E-17,-1.));
#964=DIRECTION('',(1.,0.,0.));
#965=DIRECTION('',(0.,-1.,0.));
#966=DIRECTION('',(0.,0.,-1.));
#967=DIRECTION('',(0.,1.,0.));
#968=DIRECTION('',(0.,-1.,0.));
#969=DIRECTION('',(1.,0.,0.));
#970=DIRECTION('',(0.,-1.,0.));
#971=DIRECTION('',(0.,-1.,0.));
#972=DIRECTION('',(0.,1.,0.));
#973=DIRECTION('',(6.12323399573676E-17,0.,-1.));
#974=DIRECTION('',(0.,1.,0.));
#975=DIRECTION('',(0.,1.,0.));
#976=DIRECTION('',(1.,0.,0.));
#977=DIRECTION('',(1.,0.,4.64734530254529E-16));
#978=DIRECTION('',(0.,1.,0.));
#979=DIRECTION('',(0.,1.,0.));
#980=DIRECTION('',(-4.64734530254529E-16,0.,1.));
#981=DIRECTION('',(-1.,0.,-4.64905891561784E-16));
#982=DIRECTION('',(0.,1.,0.));
#983=DIRECTION('',(0.,-1.,0.));
#984=DIRECTION('',(1.73472347597681E-16,0.,1.));
#985=DIRECTION('',(0.,1.,0.));
#986=DIRECTION('',(1.,0.,0.));
#987=DIRECTION('',(0.476313922863269,0.,-0.879275296415522));
#988=DIRECTION('',(-0.879275296415522,0.,-0.476313922863269));
#989=DIRECTION('',(0.,1.,0.));
#990=DIRECTION('',(0.879275296415522,0.,0.476313922863269));
#991=DIRECTION('',(-0.476313922863269,0.,0.879275296415522));
#992=DIRECTION('',(-0.879275296415522,0.,-0.476313922863269));
#993=DIRECTION('',(0.,-1.,0.));
#994=DIRECTION('',(0.,0.,-1.));
#995=DIRECTION('',(0.,1.,0.));
#996=DIRECTION('',(1.,0.,0.));
#997=DIRECTION('',(0.,1.,0.));
#998=DIRECTION('',(0.,-1.,0.));
#999=DIRECTION('',(0.,0.,-1.));
#1000=DIRECTION('',(0.,1.,0.));
#1001=DIRECTION('',(1.,0.,0.));
#1002=DIRECTION('',(0.,-1.,0.));
#1003=DIRECTION('',(0.,0.,-1.));
#1004=DIRECTION('',(0.,1.,0.));
#1005=DIRECTION('',(0.999999999999999,0.,0.));
#1006=DIRECTION('',(0.,-1.,0.));
#1007=DIRECTION('',(1.,0.,0.));
#1008=DIRECTION('',(0.,1.,0.));
#1009=DIRECTION('',(1.,0.,0.));
#1010=DIRECTION('',(0.,-1.,0.));
#1011=DIRECTION('',(1.,0.,0.));
#1012=DIRECTION('',(0.,1.,0.));
#1013=DIRECTION('',(1.,0.,0.));
#1014=DIRECTION('',(0.,-1.,0.));
#1015=DIRECTION('',(0.,0.,-1.));
#1016=DIRECTION('',(0.,-1.,0.));
#1017=DIRECTION('',(0.,0.,-1.));
#1018=DIRECTION('',(0.,1.,0.));
#1019=DIRECTION('',(1.,0.,0.));
#1020=DIRECTION('',(0.,-1.,0.));
#1021=DIRECTION('',(1.,0.,0.));
#1022=DIRECTION('',(0.,1.,0.));
#1023=DIRECTION('',(1.,0.,0.));
#1024=DIRECTION('',(0.,-1.,0.));
#1025=DIRECTION('',(1.,0.,0.));
#1026=DIRECTION('',(0.,1.,0.));
#1027=DIRECTION('',(1.,0.,0.));
#1028=DIRECTION('',(0.,-1.,0.));
#1029=DIRECTION('',(1.,0.,0.));
#1030=DIRECTION('',(0.,1.,0.));
#1031=DIRECTION('',(1.,0.,0.));
#1032=DIRECTION('',(0.,-1.,0.));
#1033=DIRECTION('',(-1.,0.,4.64734530254529E-16));
#1034=DIRECTION('',(-4.64734530254529E-16,0.,-1.));
#1035=DIRECTION('',(1.,0.,-4.64905891561784E-16));
#1036=DIRECTION('',(0.,-1.,0.));
#1037=DIRECTION('',(1.,0.,0.));
#1038=DIRECTION('',(0.,1.,0.));
#1039=DIRECTION('',(1.,0.,0.));
#1040=DIRECTION('',(0.,1.,0.));
#1041=DIRECTION('',(1.,0.,0.));
#1042=DIRECTION('',(0.,1.,0.));
#1043=DIRECTION('',(1.,0.,0.));
#1044=DIRECTION('',(0.,1.,0.));
#1045=DIRECTION('',(1.,0.,0.));
#1046=DIRECTION('',(0.,1.,0.));
#1047=DIRECTION('',(1.,0.,0.));
#1048=DIRECTION('',(0.,1.,0.));
#1049=DIRECTION('',(0.999999999999999,0.,0.));
#1050=DIRECTION('',(0.,1.,0.));
#1051=DIRECTION('',(1.,0.,0.));
#1052=DIRECTION('',(0.,-1.,0.));
#1053=DIRECTION('',(1.,0.,0.));
#1054=DIRECTION('',(0.,-1.,0.));
#1055=DIRECTION('',(1.,0.,0.));
#1056=DIRECTION('',(0.,-1.,0.));
#1057=DIRECTION('',(1.,0.,0.));
#1058=DIRECTION('',(0.,-1.,0.));
#1059=DIRECTION('',(1.,0.,0.));
#1060=DIRECTION('',(0.,1.,0.));
#1061=DIRECTION('',(1.,0.,0.));
#1062=DIRECTION('',(0.,-1.,0.));
#1063=DIRECTION('',(-1.,0.,0.));
#1064=DIRECTION('',(1.,0.,0.));
#1065=DIRECTION('',(0.,-1.,0.));
#1066=DIRECTION('',(-1.,0.,0.));
#1067=DIRECTION('',(0.,1.,0.));
#1068=DIRECTION('',(1.,0.,0.));
#1069=DIRECTION('',(0.,6.12323399573677E-17,-1.));
#1070=DIRECTION('',(-1.,0.,0.));
#1071=DIRECTION('',(0.,1.,0.));
#1072=DIRECTION('',(-1.,0.,0.));
#1073=DIRECTION('',(0.,-1.,0.));
#1074=DIRECTION('',(-1.,0.,0.));
#1075=DIRECTION('',(0.,1.,0.));
#1076=DIRECTION('',(0.,-1.,0.));
#1077=DIRECTION('',(-1.,-6.2325394346472E-17,0.));
#1078=DIRECTION('',(0.,-1.,0.));
#1079=DIRECTION('',(-1.,-6.2325394346472E-17,0.));
#1080=DIRECTION('',(0.,-1.,0.));
#1081=DIRECTION('',(-1.,-6.23253943464721E-17,0.));
#1082=DIRECTION('',(0.,-1.,0.));
#1083=DIRECTION('',(-1.,-6.23253943464721E-17,0.));
#1084=DIRECTION('',(0.,-1.,0.));
#1085=DIRECTION('',(-1.,-6.23253943464721E-17,0.));
#1086=DIRECTION('',(0.,-1.,0.));
#1087=DIRECTION('',(-1.,-6.23253943464721E-17,0.));
#1088=DIRECTION('',(0.,1.,0.));
#1089=DIRECTION('',(1.,0.,0.));
#1090=DIRECTION('',(0.,1.,0.));
#1091=DIRECTION('',(1.,0.,0.));
#1092=DIRECTION('',(0.,1.,0.));
#1093=DIRECTION('',(1.,0.,0.));
#1094=DIRECTION('',(0.,1.,0.));
#1095=DIRECTION('',(1.,0.,0.));
#1096=DIRECTION('',(1.,0.,0.));
#1097=DIRECTION('',(-5.98679130373846E-17,-1.,0.));
#1098=DIRECTION('',(1.,0.,0.));
#1099=DIRECTION('',(3.19755337742643E-17,-1.,0.));
#1100=CARTESIAN_POINT('',(0.,0.,0.));
#1101=CARTESIAN_POINT('',(51.3362321032632,0.,-25.));
#1102=CARTESIAN_POINT('',(51.3362321032632,0.,-27.));
#1103=CARTESIAN_POINT('',(78.,0.,-18.));
#1104=CARTESIAN_POINT('',(78.,0.,-20.));
#1105=CARTESIAN_POINT('',(78.,0.,18.));
#1106=CARTESIAN_POINT('',(78.,0.,16.));
#1107=CARTESIAN_POINT('',(51.3362321032632,0.,25.));
#1108=CARTESIAN_POINT('',(51.3362321032632,0.,23.));
#1109=CARTESIAN_POINT('',(104.55,0.,-32.5803989154981));
#1110=CARTESIAN_POINT('',(62.8429911688567,0.,-32.5803989154981));
#1111=CARTESIAN_POINT('',(14.9433756729741,0.,-32.5803989154981));
#1112=CARTESIAN_POINT('',(11.1905989232415,0.,-39.0803989154981));
#1113=CARTESIAN_POINT('',(13.5,0.,-35.0803989154981));
#1114=CARTESIAN_POINT('',(63.,0.,-35.0803989154981));
#1115=CARTESIAN_POINT('',(5.,0.,-35.0803989154981));
#1116=CARTESIAN_POINT('',(5.,0.,-29.5803989154981));
#1117=CARTESIAN_POINT('',(5.,0.,-32.0156211871643));
#1118=CARTESIAN_POINT('',(8.00000000000001,0.,-32.0156211871643));
#1119=CARTESIAN_POINT('',(7.27272727272728,0.,-29.1051101701493));
#1120=CARTESIAN_POINT('',(1.38777878078145E-14,0.,-1.39357569398976E-42));
#1121=CARTESIAN_POINT('',(7.27272727272728,0.,29.1051101701493));
#1122=CARTESIAN_POINT('',(8.00000000000001,0.,32.0156211871643));
#1123=CARTESIAN_POINT('',(5.,0.,32.0156211871643));
#1124=CARTESIAN_POINT('',(5.,0.,53.0803989154981));
#1125=CARTESIAN_POINT('',(5.,2.44929359829471E-16,35.0803989154981));
#1126=CARTESIAN_POINT('',(63.,0.,35.0803989154981));
#1127=CARTESIAN_POINT('',(13.556624327026,0.,35.0803989154981));
#1128=CARTESIAN_POINT('',(11.2472232502674,0.,39.0803989154981));
#1129=CARTESIAN_POINT('',(15.,0.,32.5803989154981));
#1130=CARTESIAN_POINT('',(104.55,0.,32.5803989154981));
#1131=CARTESIAN_POINT('',(62.8429911688568,0.,32.5803989154981));
#1132=CARTESIAN_POINT('',(82.4078480715817,0.,21.981882410388));
#1133=CARTESIAN_POINT('',(82.4078480715817,0.,21.981882410388));
#1134=CARTESIAN_POINT('',(70.5,0.,-1.39357569398976E-42));
#1135=CARTESIAN_POINT('',(82.4078480715817,0.,-21.981882410388));
#1136=CARTESIAN_POINT('',(29.4571550162051,0.,-50.6659048438085));
#1137=CARTESIAN_POINT('',(1.38777878078145E-14,0.,-1.39357569398976E-42));
#1138=CARTESIAN_POINT('',(50.8439939689754,0.,39.0803989154981));
#1139=CARTESIAN_POINT('',(38.844996769094,0.,45.5803989154981));
#1140=CARTESIAN_POINT('',(82.4078480715817,0.,21.981882410388));
#1141=CARTESIAN_POINT('',(29.4571550162051,0.,50.6659048438085));
#1142=CARTESIAN_POINT('',(29.4571550162051,-10.,50.6659048438085));
#1143=CARTESIAN_POINT('',(29.4571550162051,-10.,50.6659048438085));
#1144=CARTESIAN_POINT('',(82.4078480715817,-10.,21.981882410388));
#1145=CARTESIAN_POINT('',(82.4078480715817,-10.,21.981882410388));
#1146=CARTESIAN_POINT('',(82.4078480715817,-10.,21.981882410388));
#1147=CARTESIAN_POINT('',(82.4078480715817,-10.,21.981882410388));
#1148=CARTESIAN_POINT('',(34.5,-10.,39.));
#1149=CARTESIAN_POINT('',(34.5,-10.,35.));
#1150=CARTESIAN_POINT('',(38.5,-6.48605670051707,37.9130121515717));
#1151=CARTESIAN_POINT('',(38.5,-6.51294880211839,40.0869878484283));
#1152=CARTESIAN_POINT('',(38.0469075932206,-6.22462854461508,41.116118668852));
#1153=CARTESIAN_POINT('',(36.5856976926417,-5.54513658583952,42.5648810401496));
#1154=CARTESIAN_POINT('',(35.5522094996388,-5.18070707835643,43.0059984767096));
#1155=CARTESIAN_POINT('',(33.4026682672448,-5.18987171193842,42.9938742712832));
#1156=CARTESIAN_POINT('',(32.3766086272918,-5.56022444426902,42.5415591150525));
#1157=CARTESIAN_POINT('',(30.9346926797477,-6.23572221767351,41.0832704095384));
#1158=CARTESIAN_POINT('',(30.4886772530671,-6.51932256310928,40.0387834418404));
#1159=CARTESIAN_POINT('',(30.5117789907983,-6.47834521980252,37.8757783132918));
#1160=CARTESIAN_POINT('',(30.9697837416796,-6.16150713074024,36.8608796024211));
#1161=CARTESIAN_POINT('',(32.4234454846086,-5.43913239931512,35.4326222164655));
#1162=CARTESIAN_POINT('',(33.4392260442038,-5.05461464698265,34.9937208920857));
#1163=CARTESIAN_POINT('',(35.6076110496791,-5.06485256075084,35.0064162161744));
#1164=CARTESIAN_POINT('',(36.6158917398154,-5.4560269117027,35.4579352044969));
#1165=CARTESIAN_POINT('',(38.0453263120281,-6.17177247443401,36.8895777172797));
#1166=CARTESIAN_POINT('',(38.5,-6.48605670051707,37.9130121515717));
#1167=CARTESIAN_POINT('',(38.5,-6.51294880211839,40.0869878484283));
#1168=CARTESIAN_POINT('',(38.5,-6.49950275131773,39.));
#1169=CARTESIAN_POINT('',(34.5,-10.,39.));
#1170=CARTESIAN_POINT('',(10.,0.,48.0803989154981));
#1171=CARTESIAN_POINT('',(10.,0.,46.0803989154981));
#1172=CARTESIAN_POINT('',(104.55,0.,45.5803989154981));
#1173=CARTESIAN_POINT('',(15.,0.,45.5803989154981));
#1174=CARTESIAN_POINT('',(11.2472232502674,0.,39.0803989154981));
#1175=CARTESIAN_POINT('',(13.556624327026,0.,43.0803989154981));
#1176=CARTESIAN_POINT('',(63.,0.,43.0803989154981));
#1177=CARTESIAN_POINT('',(5.,0.,43.0803989154981));
#1178=CARTESIAN_POINT('',(5.,0.,53.0803989154981));
#1179=CARTESIAN_POINT('',(5.,0.,50.0803989154981));
#1180=CARTESIAN_POINT('',(8.00000000000001,0.,50.0803989154981));
#1181=CARTESIAN_POINT('',(8.00000000000001,0.,53.0803989154981));
#1182=CARTESIAN_POINT('',(19.9308765589398,0.,53.0803989154981));
#1183=CARTESIAN_POINT('',(19.9308765589398,0.,53.0803989154981));
#1184=CARTESIAN_POINT('',(19.9308765589398,0.,33.0803989154981));
#1185=CARTESIAN_POINT('',(1.38777878078145E-14,0.,-1.39357569398976E-42));
#1186=CARTESIAN_POINT('',(13.5566243270259,0.,39.0803989154981));
#1187=CARTESIAN_POINT('',(5.,0.,39.0803989154981));
#1188=CARTESIAN_POINT('',(63.,0.,39.0803989154981));
#1189=CARTESIAN_POINT('',(11.1905989232415,0.,-39.0803989154981));
#1190=CARTESIAN_POINT('',(13.5,0.,-43.0803989154981));
#1191=CARTESIAN_POINT('',(14.9433756729741,0.,-45.5803989154981));
#1192=CARTESIAN_POINT('',(104.55,0.,-45.5803989154981));
#1193=CARTESIAN_POINT('',(38.844996769094,0.,-45.5803989154981));
#1194=CARTESIAN_POINT('',(29.4571550162051,0.,-50.6659048438085));
#1195=CARTESIAN_POINT('',(29.4571550162051,0.,-50.6659048438085));
#1196=CARTESIAN_POINT('',(19.9308765589398,0.,-33.0803989154981));
#1197=CARTESIAN_POINT('',(19.9308765589398,0.,-53.0803989154981));
#1198=CARTESIAN_POINT('',(5.,0.,-53.0803989154981));
#1199=CARTESIAN_POINT('',(8.00000000000001,0.,-53.0803989154981));
#1200=CARTESIAN_POINT('',(8.00000000000001,0.,-50.0803989154981));
#1201=CARTESIAN_POINT('',(5.,0.,-50.0803989154981));
#1202=CARTESIAN_POINT('',(5.,0.,-29.5803989154981));
#1203=CARTESIAN_POINT('',(5.,2.44929359829471E-16,-43.0803989154981));
#1204=CARTESIAN_POINT('',(63.,0.,-43.0803989154981));
#1205=CARTESIAN_POINT('',(10.,0.,-48.0803989154981));
#1206=CARTESIAN_POINT('',(10.,0.,-50.0803989154981));
#1207=CARTESIAN_POINT('',(1.38777878078145E-14,0.,-1.39357569398976E-42));
#1208=CARTESIAN_POINT('',(5.,-10.,-50.0803989154981));
#1209=CARTESIAN_POINT('',(5.,-10.,-50.0803989154981));
#1210=CARTESIAN_POINT('',(5.,-10.,-29.5803989154981));
#1211=CARTESIAN_POINT('',(5.,-10.,-32.0156211871643));
#1212=CARTESIAN_POINT('',(5.,-10.,-32.0156211871643));
#1213=CARTESIAN_POINT('',(5.,0.,-39.0803989154981));
#1214=CARTESIAN_POINT('',(5.,-10.,-29.5803989154981));
#1215=CARTESIAN_POINT('',(5.,-10.,53.0803989154981));
#1216=CARTESIAN_POINT('',(5.,-10.,50.0803989154981));
#1217=CARTESIAN_POINT('',(5.,-10.,32.0156211871643));
#1218=CARTESIAN_POINT('',(5.,-10.,50.0803989154981));
#1219=CARTESIAN_POINT('',(5.,-10.,32.0156211871643));
#1220=CARTESIAN_POINT('',(5.,-10.,53.0803989154981));
#1221=CARTESIAN_POINT('',(7.27272727272728,-10.,-29.1051101701493));
#1222=CARTESIAN_POINT('',(7.27272727272728,-10.,-29.1051101701493));
#1223=CARTESIAN_POINT('',(1.38777878078145E-14,-10.,-1.39357569398976E-42));
#1224=CARTESIAN_POINT('',(7.27272727272728,-10.,29.1051101701493));
#1225=CARTESIAN_POINT('',(7.27272727272728,-10.,29.1051101701493));
#1226=CARTESIAN_POINT('',(1.38777878078145E-14,-10.,-1.39357569398976E-42));
#1227=CARTESIAN_POINT('',(5.,-10.,-53.0803989154981));
#1228=CARTESIAN_POINT('',(8.00000000000001,-10.,-53.0803989154981));
#1229=CARTESIAN_POINT('',(19.9308765589398,-10.,-53.0803989154981));
#1230=CARTESIAN_POINT('',(8.00000000000001,-10.,-53.0803989154981));
#1231=CARTESIAN_POINT('',(19.9308765589398,-10.,-53.0803989154981));
#1232=CARTESIAN_POINT('',(5.,-10.,-53.0803989154981));
#1233=CARTESIAN_POINT('',(29.4571550162051,-10.,-50.6659048438085));
#1234=CARTESIAN_POINT('',(29.4571550162051,-10.,-50.6659048438085));
#1235=CARTESIAN_POINT('',(19.9308765589398,-10.,-33.0803989154981));
#1236=CARTESIAN_POINT('',(19.9308765589398,-10.,-33.0803989154981));
#1237=CARTESIAN_POINT('',(50.8439939689753,0.,-39.0803989154981));
#1238=CARTESIAN_POINT('',(82.4078480715817,-10.,-21.981882410388));
#1239=CARTESIAN_POINT('',(82.4078480715817,-10.,-21.981882410388));
#1240=CARTESIAN_POINT('',(29.4571550162051,-10.,-50.6659048438085));
#1241=CARTESIAN_POINT('',(29.4571550162051,-10.,-50.6659048438085));
#1242=CARTESIAN_POINT('',(70.5,-10.,-1.39357569398976E-42));
#1243=CARTESIAN_POINT('',(70.5,-10.,-1.39357569398976E-42));
#1244=CARTESIAN_POINT('',(19.9308765589398,-10.,53.0803989154981));
#1245=CARTESIAN_POINT('',(19.9308765589398,-10.,53.0803989154981));
#1246=CARTESIAN_POINT('',(19.9308765589398,-10.,33.0803989154981));
#1247=CARTESIAN_POINT('',(19.9308765589398,-10.,33.0803989154981));
#1248=CARTESIAN_POINT('',(38.5,-6.51294880211839,-40.0869878484283));
#1249=CARTESIAN_POINT('',(38.5,-6.48605670051707,-37.9130121515717));
#1250=CARTESIAN_POINT('',(38.0453263120281,-6.17177247443401,-36.8895777172797));
#1251=CARTESIAN_POINT('',(36.6158917398154,-5.4560269117027,-35.4579352044969));
#1252=CARTESIAN_POINT('',(35.6076110496791,-5.06485256075084,-35.0064162161744));
#1253=CARTESIAN_POINT('',(33.4392260442038,-5.05461464698265,-34.9937208920857));
#1254=CARTESIAN_POINT('',(32.4234454846086,-5.43913239931512,-35.4326222164655));
#1255=CARTESIAN_POINT('',(30.9697837416796,-6.16150713074024,-36.8608796024211));
#1256=CARTESIAN_POINT('',(30.5117789907983,-6.47834521980252,-37.8757783132918));
#1257=CARTESIAN_POINT('',(30.4886772530671,-6.51932256310928,-40.0387834418403));
#1258=CARTESIAN_POINT('',(30.9346926797477,-6.23572221767351,-41.0832704095383));
#1259=CARTESIAN_POINT('',(32.3766086272918,-5.56022444426903,-42.5415591150524));
#1260=CARTESIAN_POINT('',(33.4026682672448,-5.18987171193842,-42.9938742712832));
#1261=CARTESIAN_POINT('',(35.5522094996388,-5.18070707835643,-43.0059984767096));
#1262=CARTESIAN_POINT('',(36.5856976926418,-5.54513658583952,-42.5648810401496));
#1263=CARTESIAN_POINT('',(38.0469075932206,-6.22462854461509,-41.116118668852));
#1264=CARTESIAN_POINT('',(38.5,-6.51294880211839,-40.0869878484283));
#1265=CARTESIAN_POINT('',(38.5,-6.48605670051707,-37.9130121515717));
#1266=CARTESIAN_POINT('',(38.5,-6.49950275131774,-39.));
#1267=CARTESIAN_POINT('',(34.5,-10.,-39.));
#1268=CARTESIAN_POINT('',(34.5,-10.,-43.));
#1269=CARTESIAN_POINT('',(34.5,-10.,-39.));
#1270=CARTESIAN_POINT('',(51.3362321032632,-7.5,-25.));
#1271=CARTESIAN_POINT('',(53.3362321032632,-7.5,-25.));
#1272=CARTESIAN_POINT('',(51.3362321032632,-10.,-25.));
#1273=CARTESIAN_POINT('',(78.,-7.5,-18.));
#1274=CARTESIAN_POINT('',(80.,-7.5,-18.));
#1275=CARTESIAN_POINT('',(78.,-10.,-18.));
#1276=CARTESIAN_POINT('',(70.5,-6.,-1.39357569398976E-42));
#1277=CARTESIAN_POINT('',(70.5,-6.,-14.));
#1278=CARTESIAN_POINT('',(70.5,-10.,-1.39357569398976E-42));
#1279=CARTESIAN_POINT('',(70.5,-10.,-14.));
#1280=CARTESIAN_POINT('',(70.5,-10.,-1.39357569398976E-42));
#1281=CARTESIAN_POINT('',(78.,-7.5,18.));
#1282=CARTESIAN_POINT('',(80.,-7.5,18.));
#1283=CARTESIAN_POINT('',(78.,-10.,18.));
#1284=CARTESIAN_POINT('',(51.3362321032632,-7.5,25.));
#1285=CARTESIAN_POINT('',(53.3362321032632,-7.5,25.));
#1286=CARTESIAN_POINT('',(51.3362321032632,-10.,25.));
#1287=CARTESIAN_POINT('',(10.,-7.5,48.0803989154981));
#1288=CARTESIAN_POINT('',(12.,-7.5,48.0803989154981));
#1289=CARTESIAN_POINT('',(10.,-10.,48.0803989154981));
#1290=CARTESIAN_POINT('',(8.00000000000001,-10.,53.0803989154981));
#1291=CARTESIAN_POINT('',(8.00000000000001,-10.,53.0803989154981));
#1292=CARTESIAN_POINT('',(19.9308765589398,-10.,53.0803989154981));
#1293=CARTESIAN_POINT('',(19.9308765589398,-10.,53.0803989154981));
#1294=CARTESIAN_POINT('',(10.,-7.5,-48.0803989154981));
#1295=CARTESIAN_POINT('',(12.,-7.5,-48.0803989154981));
#1296=CARTESIAN_POINT('',(10.,-10.,-48.0803989154981));
#1297=CARTESIAN_POINT('',(10.,-10.,48.0803989154981));
#1298=CARTESIAN_POINT('',(14.5,-10.,48.0803989154981));
#1299=CARTESIAN_POINT('',(10.,-10.,-48.0803989154981));
#1300=CARTESIAN_POINT('',(14.5,-10.,-48.0803989154981));
#1301=CARTESIAN_POINT('',(78.,-10.,-18.));
#1302=CARTESIAN_POINT('',(82.5,-10.,-18.));
#1303=CARTESIAN_POINT('',(51.3362321032632,-10.,-25.));
#1304=CARTESIAN_POINT('',(55.8362321032632,-10.,-25.));
#1305=CARTESIAN_POINT('',(51.3362321032632,-10.,25.));
#1306=CARTESIAN_POINT('',(55.8362321032632,-10.,25.));
#1307=CARTESIAN_POINT('',(78.,-10.,18.));
#1308=CARTESIAN_POINT('',(82.5,-10.,18.));
#1309=CARTESIAN_POINT('',(8.00000000000001,-10.,-50.0803989154981));
#1310=CARTESIAN_POINT('',(8.00000000000001,-10.,50.0803989154981));
#1311=CARTESIAN_POINT('',(8.00000000000001,-10.,32.0156211871643));
#1312=CARTESIAN_POINT('',(8.00000000000001,-10.,-32.0156211871643));
#1313=CARTESIAN_POINT('',(1.38777878078145E-14,-10.,-1.39357569398976E-42));
#1314=CARTESIAN_POINT('',(70.5,-6.,-1.39357569398976E-42));
#1315=CARTESIAN_POINT('',(13.5,0.,-39.0803989154981));
#1316=CARTESIAN_POINT('',(63.,0.,-39.0803989154981));
#1317=CARTESIAN_POINT('',(15.,0.,39.0803989154981));
#1318=CARTESIAN_POINT('',(104.55,0.,39.0803989154981));
#1319=CARTESIAN_POINT('',(14.9433756729741,0.,-39.0803989154981));
#1320=CARTESIAN_POINT('',(104.55,0.,-39.0803989154981));
#1321=CARTESIAN_POINT('',(10.,-7.5,48.0803989154981));
#1322=CARTESIAN_POINT('',(10.,-7.5,-48.0803989154981));
#1323=CARTESIAN_POINT('',(78.,-7.5,-18.));
#1324=CARTESIAN_POINT('',(51.3362321032632,-7.5,-25.));
#1325=CARTESIAN_POINT('',(51.3362321032632,-7.5,25.));
#1326=CARTESIAN_POINT('',(78.,-7.5,18.));
#1327=CARTESIAN_POINT('',(8.00000000000001,-10.,-50.0803989154981));
#1328=CARTESIAN_POINT('',(8.00000000000001,-10.,-32.0156211871643));
#1329=CARTESIAN_POINT('',(8.00000000000001,-10.,50.0803989154981));
#1330=CARTESIAN_POINT('',(8.00000000000001,-10.,32.0156211871643));
#1331=CARTESIAN_POINT('',(15.,0.,39.0803989154981));
#1332=CARTESIAN_POINT('',(13.5,0.,-39.0803989154981));
#1333=(
GEOMETRIC_REPRESENTATION_CONTEXT(3)
GLOBAL_UNCERTAINTY_ASSIGNED_CONTEXT((#1334))
GLOBAL_UNIT_ASSIGNED_CONTEXT((#1340,#1336,#1335))
REPRESENTATION_CONTEXT('\X2\041A04400435043F043B0435043D04380435\X0\6',
'TOP_LEVEL_ASSEMBLY_PART')
);
#1334=UNCERTAINTY_MEASURE_WITH_UNIT(LENGTH_MEASURE(0.0508),#1340,
'DISTANCE_ACCURACY_VALUE','Maximum Tolerance applied to model');
#1335=(
NAMED_UNIT(*)
SI_UNIT($,.STERADIAN.)
SOLID_ANGLE_UNIT()
);
#1336=(
CONVERSION_BASED_UNIT('DEGREE',#1338)
NAMED_UNIT(#1337)
PLANE_ANGLE_UNIT()
);
#1337=DIMENSIONAL_EXPONENTS(0.,0.,0.,0.,0.,0.,0.);
#1338=PLANE_ANGLE_MEASURE_WITH_UNIT(PLANE_ANGLE_MEASURE(0.0174532925),#1339);
#1339=(
NAMED_UNIT(*)
PLANE_ANGLE_UNIT()
SI_UNIT($,.RADIAN.)
);
#1340=(
LENGTH_UNIT()
NAMED_UNIT(*)
SI_UNIT(.MILLI.,.METRE.)
);
ENDSEC;
END-ISO-10303-21;
