ISO-10303-21;
HEADER;
/* Generated by software containing ST-Developer
 * from STEP Tools, Inc. (www.steptools.com) 
 */
/* OPTION: using custom schema-name function */

FILE_DESCRIPTION(
/* description */ (''),
/* implementation_level */ '2;1');

FILE_NAME(
/* name */ '\X2\0442043004400435043B043A0430\X0\.stp',
/* time_stamp */ '2026-06-27T14:43:36+03:00',
/* author */ (''),
/* organization */ (''),
/* preprocessor_version */ 'ST-DEVELOPER v16',
/* originating_system */ 'SIEMENS PLM Software NX 10.0',
/* authorisation */ '');

FILE_SCHEMA (('AP203_CONFIGURATION_CONTROLLED_3D_DESIGN_OF_MECHANICAL_PARTS_AND_ASSEMBLIES_MIM_LF { 1 0 10303 403 2 1 2}'));
ENDSEC;

DATA;
#10=PROPERTY_DEFINITION_REPRESENTATION(#14,#12);
#11=PROPERTY_DEFINITION_REPRESENTATION(#15,#13);
#12=REPRESENTATION('',(#16),#353);
#13=REPRESENTATION('',(#17),#353);
#14=PROPERTY_DEFINITION('pmi validation property','',#89);
#15=PROPERTY_DEFINITION('pmi validation property','',#89);
#16=VALUE_REPRESENTATION_ITEM('number of annotations',COUNT_MEASURE(0.));
#17=VALUE_REPRESENTATION_ITEM('number of views',COUNT_MEASURE(0.));
#18=SHAPE_REPRESENTATION_RELATIONSHIP('None',
'relationship between Hi1FC8ABD4agij-None and Hi1FC8ABD4agij-None',#100,
#19);
#19=ADVANCED_BREP_SHAPE_REPRESENTATION('Hi1FC8ABD4agij-None',(#101),#353);
#20=CC_DESIGN_APPROVAL(#32,(#90));
#21=CC_DESIGN_APPROVAL(#33,(#92));
#22=CC_DESIGN_APPROVAL(#34,(#39));
#23=APPROVAL_PERSON_ORGANIZATION(#77,#32,#26);
#24=APPROVAL_PERSON_ORGANIZATION(#78,#33,#27);
#25=APPROVAL_PERSON_ORGANIZATION(#79,#34,#28);
#26=APPROVAL_ROLE('approver');
#27=APPROVAL_ROLE('approver');
#28=APPROVAL_ROLE('approver');
#29=APPROVAL_DATE_TIME(#47,#32);
#30=APPROVAL_DATE_TIME(#48,#33);
#31=APPROVAL_DATE_TIME(#49,#34);
#32=APPROVAL(#35,' ');
#33=APPROVAL(#36,' ');
#34=APPROVAL(#37,' ');
#35=APPROVAL_STATUS('not_yet_approved');
#36=APPROVAL_STATUS('not_yet_approved');
#37=APPROVAL_STATUS('not_yet_approved');
#38=CC_DESIGN_SECURITY_CLASSIFICATION(#39,(#92));
#39=SECURITY_CLASSIFICATION(' ',' ',#40);
#40=SECURITY_CLASSIFICATION_LEVEL('confidential');
#41=CC_DESIGN_DATE_AND_TIME_ASSIGNMENT(#45,#43,(#90));
#42=CC_DESIGN_DATE_AND_TIME_ASSIGNMENT(#46,#44,(#39));
#43=DATE_TIME_ROLE('creation_date');
#44=DATE_TIME_ROLE('classification_date');
#45=DATE_AND_TIME(#60,#50);
#46=DATE_AND_TIME(#61,#51);
#47=DATE_AND_TIME(#62,#52);
#48=DATE_AND_TIME(#63,#53);
#49=DATE_AND_TIME(#64,#54);
#50=LOCAL_TIME(0,0,0.,#55);
#51=LOCAL_TIME(0,0,0.,#56);
#52=LOCAL_TIME(0,0,0.,#57);
#53=LOCAL_TIME(0,0,0.,#58);
#54=LOCAL_TIME(0,0,0.,#59);
#55=COORDINATED_UNIVERSAL_TIME_OFFSET(0,0,.BEHIND.);
#56=COORDINATED_UNIVERSAL_TIME_OFFSET(0,0,.BEHIND.);
#57=COORDINATED_UNIVERSAL_TIME_OFFSET(0,0,.BEHIND.);
#58=COORDINATED_UNIVERSAL_TIME_OFFSET(0,0,.BEHIND.);
#59=COORDINATED_UNIVERSAL_TIME_OFFSET(0,0,.BEHIND.);
#60=CALENDAR_DATE(0,1,1);
#61=CALENDAR_DATE(0,1,1);
#62=CALENDAR_DATE(0,1,1);
#63=CALENDAR_DATE(0,1,1);
#64=CALENDAR_DATE(0,1,1);
#65=CC_DESIGN_PERSON_AND_ORGANIZATION_ASSIGNMENT(#73,#69,(#90,#92));
#66=CC_DESIGN_PERSON_AND_ORGANIZATION_ASSIGNMENT(#74,#70,(#94));
#67=CC_DESIGN_PERSON_AND_ORGANIZATION_ASSIGNMENT(#75,#71,(#92));
#68=CC_DESIGN_PERSON_AND_ORGANIZATION_ASSIGNMENT(#76,#72,(#39));
#69=PERSON_AND_ORGANIZATION_ROLE('creator');
#70=PERSON_AND_ORGANIZATION_ROLE('design_owner');
#71=PERSON_AND_ORGANIZATION_ROLE('design_supplier');
#72=PERSON_AND_ORGANIZATION_ROLE('classification_officer');
#73=PERSON_AND_ORGANIZATION(#87,#80);
#74=PERSON_AND_ORGANIZATION(#87,#81);
#75=PERSON_AND_ORGANIZATION(#87,#82);
#76=PERSON_AND_ORGANIZATION(#87,#83);
#77=PERSON_AND_ORGANIZATION(#87,#84);
#78=PERSON_AND_ORGANIZATION(#87,#85);
#79=PERSON_AND_ORGANIZATION(#87,#86);
#80=ORGANIZATION(' ',' ',' ');
#81=ORGANIZATION(' ',' ',' ');
#82=ORGANIZATION(' ',' ',' ');
#83=ORGANIZATION(' ',' ',' ');
#84=ORGANIZATION(' ',' ',' ');
#85=ORGANIZATION(' ',' ',' ');
#86=ORGANIZATION(' ',' ',' ');
#87=PERSON(' ',' ',' ',(' '),$,$);
#88=SHAPE_DEFINITION_REPRESENTATION(#89,#100);
#89=PRODUCT_DEFINITION_SHAPE('','',#90);
#90=PRODUCT_DEFINITION(' ','',#92,#91);
#91=DESIGN_CONTEXT('',#99,'design');
#92=PRODUCT_DEFINITION_FORMATION_WITH_SPECIFIED_SOURCE(' ',' ',#94,
 .NOT_KNOWN.);
#93=PRODUCT_RELATED_PRODUCT_CATEGORY('detail','',(#94));
#94=PRODUCT('Hi1FC8ABD4agij','Hi1FC8ABD4agij',' ',(#97));
#95=PRODUCT_CATEGORY('part',' ');
#96=PRODUCT_CATEGORY(' ','');
#97=MECHANICAL_CONTEXT(' ',#99,'mechanical');
#98=APPLICATION_PROTOCOL_DEFINITION('international standard',
'config_control_design',2010,#99);
#99=APPLICATION_CONTEXT(
'configuration controlled 3D designs of mechanical parts and assemblie
s');
#100=SHAPE_REPRESENTATION('Hi1FC8ABD4agij-None',(#237),#353);
#101=MANIFOLD_SOLID_BREP('',#102);
#102=CLOSED_SHELL('',(#134,#135,#136,#137,#138,#139,#140,#141,#142,#143,
#144,#145,#146));
#103=CONICAL_SURFACE('',#247,31.5,45.0000000000001);
#104=CONICAL_SURFACE('',#251,33.5,44.9999999999998);
#105=CONICAL_SURFACE('',#255,34.5,45.);
#106=CONICAL_SURFACE('',#262,7.5,45.);
#107=CYLINDRICAL_SURFACE('',#245,31.5);
#108=CYLINDRICAL_SURFACE('',#253,34.5);
#109=CYLINDRICAL_SURFACE('',#261,7.5);
#110=TOROIDAL_SURFACE('',#243,31.,0.5);
#111=TOROIDAL_SURFACE('',#259,8.,0.5);
#112=FACE_BOUND('',#155,.T.);
#113=FACE_BOUND('',#156,.T.);
#114=FACE_BOUND('',#157,.T.);
#115=FACE_BOUND('',#158,.T.);
#116=FACE_BOUND('',#159,.T.);
#117=FACE_BOUND('',#160,.T.);
#118=FACE_BOUND('',#161,.T.);
#119=FACE_BOUND('',#162,.T.);
#120=FACE_BOUND('',#163,.T.);
#121=FACE_BOUND('',#164,.T.);
#122=FACE_BOUND('',#165,.T.);
#123=FACE_BOUND('',#166,.T.);
#124=FACE_BOUND('',#167,.T.);
#125=FACE_BOUND('',#168,.T.);
#126=FACE_BOUND('',#169,.T.);
#127=FACE_BOUND('',#170,.T.);
#128=FACE_BOUND('',#171,.T.);
#129=FACE_BOUND('',#172,.T.);
#130=FACE_BOUND('',#173,.T.);
#131=FACE_BOUND('',#174,.T.);
#132=FACE_BOUND('',#175,.T.);
#133=FACE_BOUND('',#176,.T.);
#134=ADVANCED_FACE('',(#151),#147,.F.);
#135=ADVANCED_FACE('',(#152),#148,.F.);
#136=ADVANCED_FACE('',(#112,#113),#110,.F.);
#137=ADVANCED_FACE('',(#114,#115),#107,.F.);
#138=ADVANCED_FACE('',(#116,#117),#103,.F.);
#139=ADVANCED_FACE('',(#118,#119),#149,.F.);
#140=ADVANCED_FACE('',(#120,#121),#104,.T.);
#141=ADVANCED_FACE('',(#122,#123),#108,.T.);
#142=ADVANCED_FACE('',(#124,#125),#105,.T.);
#143=ADVANCED_FACE('',(#126,#127),#150,.F.);
#144=ADVANCED_FACE('',(#128,#129),#111,.F.);
#145=ADVANCED_FACE('',(#130,#131),#109,.T.);
#146=ADVANCED_FACE('',(#132,#133),#106,.T.);
#147=PLANE('',#239);
#148=PLANE('',#241);
#149=PLANE('',#249);
#150=PLANE('',#257);
#151=FACE_OUTER_BOUND('',#153,.T.);
#152=FACE_OUTER_BOUND('',#154,.T.);
#153=EDGE_LOOP('',(#177));
#154=EDGE_LOOP('',(#178));
#155=EDGE_LOOP('',(#179));
#156=EDGE_LOOP('',(#180));
#157=EDGE_LOOP('',(#181));
#158=EDGE_LOOP('',(#182));
#159=EDGE_LOOP('',(#183));
#160=EDGE_LOOP('',(#184));
#161=EDGE_LOOP('',(#185));
#162=EDGE_LOOP('',(#186));
#163=EDGE_LOOP('',(#187));
#164=EDGE_LOOP('',(#188));
#165=EDGE_LOOP('',(#189));
#166=EDGE_LOOP('',(#190));
#167=EDGE_LOOP('',(#191));
#168=EDGE_LOOP('',(#192));
#169=EDGE_LOOP('',(#193));
#170=EDGE_LOOP('',(#194));
#171=EDGE_LOOP('',(#195));
#172=EDGE_LOOP('',(#196));
#173=EDGE_LOOP('',(#197));
#174=EDGE_LOOP('',(#198));
#175=EDGE_LOOP('',(#199));
#176=EDGE_LOOP('',(#200));
#177=ORIENTED_EDGE('',*,*,#213,.T.);
#178=ORIENTED_EDGE('',*,*,#214,.F.);
#179=ORIENTED_EDGE('',*,*,#215,.F.);
#180=ORIENTED_EDGE('',*,*,#214,.T.);
#181=ORIENTED_EDGE('',*,*,#216,.F.);
#182=ORIENTED_EDGE('',*,*,#215,.T.);
#183=ORIENTED_EDGE('',*,*,#217,.F.);
#184=ORIENTED_EDGE('',*,*,#216,.T.);
#185=ORIENTED_EDGE('',*,*,#218,.F.);
#186=ORIENTED_EDGE('',*,*,#217,.T.);
#187=ORIENTED_EDGE('',*,*,#219,.F.);
#188=ORIENTED_EDGE('',*,*,#218,.T.);
#189=ORIENTED_EDGE('',*,*,#220,.F.);
#190=ORIENTED_EDGE('',*,*,#219,.T.);
#191=ORIENTED_EDGE('',*,*,#221,.F.);
#192=ORIENTED_EDGE('',*,*,#220,.T.);
#193=ORIENTED_EDGE('',*,*,#222,.F.);
#194=ORIENTED_EDGE('',*,*,#221,.T.);
#195=ORIENTED_EDGE('',*,*,#223,.F.);
#196=ORIENTED_EDGE('',*,*,#222,.T.);
#197=ORIENTED_EDGE('',*,*,#224,.F.);
#198=ORIENTED_EDGE('',*,*,#223,.T.);
#199=ORIENTED_EDGE('',*,*,#213,.F.);
#200=ORIENTED_EDGE('',*,*,#224,.T.);
#201=VERTEX_POINT('',#317);
#202=VERTEX_POINT('',#320);
#203=VERTEX_POINT('',#323);
#204=VERTEX_POINT('',#326);
#205=VERTEX_POINT('',#329);
#206=VERTEX_POINT('',#332);
#207=VERTEX_POINT('',#335);
#208=VERTEX_POINT('',#338);
#209=VERTEX_POINT('',#341);
#210=VERTEX_POINT('',#344);
#211=VERTEX_POINT('',#347);
#212=VERTEX_POINT('',#350);
#213=EDGE_CURVE('',#201,#201,#225,.T.);
#214=EDGE_CURVE('',#202,#202,#226,.T.);
#215=EDGE_CURVE('',#203,#203,#227,.T.);
#216=EDGE_CURVE('',#204,#204,#228,.T.);
#217=EDGE_CURVE('',#205,#205,#229,.T.);
#218=EDGE_CURVE('',#206,#206,#230,.T.);
#219=EDGE_CURVE('',#207,#207,#231,.T.);
#220=EDGE_CURVE('',#208,#208,#232,.T.);
#221=EDGE_CURVE('',#209,#209,#233,.T.);
#222=EDGE_CURVE('',#210,#210,#234,.T.);
#223=EDGE_CURVE('',#211,#211,#235,.T.);
#224=EDGE_CURVE('',#212,#212,#236,.T.);
#225=CIRCLE('',#238,6.5);
#226=CIRCLE('',#240,31.);
#227=CIRCLE('',#242,31.5);
#228=CIRCLE('',#244,31.5);
#229=CIRCLE('',#246,32.5);
#230=CIRCLE('',#248,33.5);
#231=CIRCLE('',#250,34.5);
#232=CIRCLE('',#252,34.5);
#233=CIRCLE('',#254,33.5);
#234=CIRCLE('',#256,8.);
#235=CIRCLE('',#258,7.5);
#236=CIRCLE('',#260,7.5);
#237=AXIS2_PLACEMENT_3D('',#315,#263,#264);
#238=AXIS2_PLACEMENT_3D('',#316,#265,#266);
#239=AXIS2_PLACEMENT_3D('',#318,#267,#268);
#240=AXIS2_PLACEMENT_3D('',#319,#269,#270);
#241=AXIS2_PLACEMENT_3D('',#321,#271,#272);
#242=AXIS2_PLACEMENT_3D('',#322,#273,#274);
#243=AXIS2_PLACEMENT_3D('',#324,#275,#276);
#244=AXIS2_PLACEMENT_3D('',#325,#277,#278);
#245=AXIS2_PLACEMENT_3D('',#327,#279,#280);
#246=AXIS2_PLACEMENT_3D('',#328,#281,#282);
#247=AXIS2_PLACEMENT_3D('',#330,#283,#284);
#248=AXIS2_PLACEMENT_3D('',#331,#285,#286);
#249=AXIS2_PLACEMENT_3D('',#333,#287,#288);
#250=AXIS2_PLACEMENT_3D('',#334,#289,#290);
#251=AXIS2_PLACEMENT_3D('',#336,#291,#292);
#252=AXIS2_PLACEMENT_3D('',#337,#293,#294);
#253=AXIS2_PLACEMENT_3D('',#339,#295,#296);
#254=AXIS2_PLACEMENT_3D('',#340,#297,#298);
#255=AXIS2_PLACEMENT_3D('',#342,#299,#300);
#256=AXIS2_PLACEMENT_3D('',#343,#301,#302);
#257=AXIS2_PLACEMENT_3D('',#345,#303,#304);
#258=AXIS2_PLACEMENT_3D('',#346,#305,#306);
#259=AXIS2_PLACEMENT_3D('',#348,#307,#308);
#260=AXIS2_PLACEMENT_3D('',#349,#309,#310);
#261=AXIS2_PLACEMENT_3D('',#351,#311,#312);
#262=AXIS2_PLACEMENT_3D('',#352,#313,#314);
#263=DIRECTION('',(0.,0.,1.));
#264=DIRECTION('',(1.,0.,0.));
#265=DIRECTION('',(0.,-1.,0.));
#266=DIRECTION('',(0.,0.,1.));
#267=DIRECTION('',(0.,1.,0.));
#268=DIRECTION('',(0.,0.,-1.));
#269=DIRECTION('',(0.,-1.,0.));
#270=DIRECTION('',(0.,0.,1.));
#271=DIRECTION('',(0.,-1.,0.));
#272=DIRECTION('',(0.,0.,1.));
#273=DIRECTION('',(0.,-1.,0.));
#274=DIRECTION('',(0.,0.,1.));
#275=DIRECTION('',(0.,-1.,0.));
#276=DIRECTION('',(0.,0.,1.));
#277=DIRECTION('',(0.,-1.,0.));
#278=DIRECTION('',(0.,0.,1.));
#279=DIRECTION('',(0.,-1.,0.));
#280=DIRECTION('',(0.,0.,1.));
#281=DIRECTION('',(0.,-1.,0.));
#282=DIRECTION('',(0.,0.,1.));
#283=DIRECTION('',(0.,1.,0.));
#284=DIRECTION('',(0.,2.35444776186866E-17,-1.));
#285=DIRECTION('',(0.,-1.,0.));
#286=DIRECTION('',(0.,0.,1.));
#287=DIRECTION('',(0.,-1.,0.));
#288=DIRECTION('',(0.,0.,1.));
#289=DIRECTION('',(0.,-1.,0.));
#290=DIRECTION('',(0.,0.,1.));
#291=DIRECTION('',(0.,-1.,0.));
#292=DIRECTION('',(0.,2.68559028695009E-17,1.));
#293=DIRECTION('',(0.,-1.,0.));
#294=DIRECTION('',(0.,0.,1.));
#295=DIRECTION('',(0.,-1.,0.));
#296=DIRECTION('',(0.,0.,1.));
#297=DIRECTION('',(0.,-1.,0.));
#298=DIRECTION('',(0.,0.,1.));
#299=DIRECTION('',(0.,1.,0.));
#300=DIRECTION('',(0.,1.34149712980323E-17,-1.));
#301=DIRECTION('',(0.,-1.,0.));
#302=DIRECTION('',(0.,0.,1.));
#303=DIRECTION('',(0.,1.,0.));
#304=DIRECTION('',(0.,0.,-1.));
#305=DIRECTION('',(0.,-1.,0.));
#306=DIRECTION('',(0.,0.,1.));
#307=DIRECTION('',(0.,-1.,0.));
#308=DIRECTION('',(0.,0.,1.));
#309=DIRECTION('',(0.,-1.,0.));
#310=DIRECTION('',(0.,0.,1.));
#311=DIRECTION('',(0.,-1.,0.));
#312=DIRECTION('',(0.,0.,1.));
#313=DIRECTION('',(0.,1.,0.));
#314=DIRECTION('',(0.,-9.98649742994093E-17,-1.));
#315=CARTESIAN_POINT('',(0.,0.,0.));
#316=CARTESIAN_POINT('',(70.5,10.,5.0487097934142E-29));
#317=CARTESIAN_POINT('',(70.5,10.,6.5));
#318=CARTESIAN_POINT('',(70.5,10.,6.5));
#319=CARTESIAN_POINT('',(70.5,18.,5.0487097934142E-29));
#320=CARTESIAN_POINT('',(70.5,18.,31.));
#321=CARTESIAN_POINT('',(70.5,18.,5.0487097934142E-29));
#322=CARTESIAN_POINT('',(70.5,18.5,5.0487097934142E-29));
#323=CARTESIAN_POINT('',(70.5,18.5,31.5));
#324=CARTESIAN_POINT('',(70.5,18.5,5.0487097934142E-29));
#325=CARTESIAN_POINT('',(70.5,22.,5.0487097934142E-29));
#326=CARTESIAN_POINT('',(70.5,22.,31.5));
#327=CARTESIAN_POINT('',(70.5,10.,5.0487097934142E-29));
#328=CARTESIAN_POINT('',(70.5,23.,5.0487097934142E-29));
#329=CARTESIAN_POINT('',(70.5,23.,32.5));
#330=CARTESIAN_POINT('',(70.5,22.,5.0487097934142E-29));
#331=CARTESIAN_POINT('',(70.5,23.,5.0487097934142E-29));
#332=CARTESIAN_POINT('',(70.5,23.,33.5));
#333=CARTESIAN_POINT('',(70.5,23.,32.5));
#334=CARTESIAN_POINT('',(70.5,22.,5.0487097934142E-29));
#335=CARTESIAN_POINT('',(70.5,22.,34.5));
#336=CARTESIAN_POINT('',(70.5,23.,5.0487097934142E-29));
#337=CARTESIAN_POINT('',(70.5,16.,5.0487097934142E-29));
#338=CARTESIAN_POINT('',(70.5,16.,34.5));
#339=CARTESIAN_POINT('',(70.5,10.,5.0487097934142E-29));
#340=CARTESIAN_POINT('',(70.5,15.,5.0487097934142E-29));
#341=CARTESIAN_POINT('',(70.5,15.,33.5));
#342=CARTESIAN_POINT('',(70.5,16.,5.0487097934142E-29));
#343=CARTESIAN_POINT('',(70.5,15.,5.0487097934142E-29));
#344=CARTESIAN_POINT('',(70.5,15.,8.));
#345=CARTESIAN_POINT('',(70.5,15.,33.5));
#346=CARTESIAN_POINT('',(70.5,14.5,5.0487097934142E-29));
#347=CARTESIAN_POINT('',(70.5,14.5,7.5));
#348=CARTESIAN_POINT('',(70.5,14.5,5.0487097934142E-29));
#349=CARTESIAN_POINT('',(70.5,11.,5.0487097934142E-29));
#350=CARTESIAN_POINT('',(70.5,11.,7.5));
#351=CARTESIAN_POINT('',(70.5,10.,5.0487097934142E-29));
#352=CARTESIAN_POINT('',(70.5,11.,5.0487097934142E-29));
#353=(
GEOMETRIC_REPRESENTATION_CONTEXT(3)
GLOBAL_UNCERTAINTY_ASSIGNED_CONTEXT((#354))
GLOBAL_UNIT_ASSIGNED_CONTEXT((#360,#356,#355))
REPRESENTATION_CONTEXT('\X2\0442043004400435043B043A0430\X0\',
'TOP_LEVEL_ASSEMBLY_PART')
);
#354=UNCERTAINTY_MEASURE_WITH_UNIT(LENGTH_MEASURE(2.E-5),#360,
'DISTANCE_ACCURACY_VALUE','Maximum Tolerance applied to model');
#355=(
NAMED_UNIT(*)
SI_UNIT($,.STERADIAN.)
SOLID_ANGLE_UNIT()
);
#356=(
CONVERSION_BASED_UNIT('DEGREE',#358)
NAMED_UNIT(#357)
PLANE_ANGLE_UNIT()
);
#357=DIMENSIONAL_EXPONENTS(0.,0.,0.,0.,0.,0.,0.);
#358=PLANE_ANGLE_MEASURE_WITH_UNIT(PLANE_ANGLE_MEASURE(0.0174532925),#359);
#359=(
NAMED_UNIT(*)
PLANE_ANGLE_UNIT()
SI_UNIT($,.RADIAN.)
);
#360=(
LENGTH_UNIT()
NAMED_UNIT(*)
SI_UNIT(.MILLI.,.METRE.)
);
ENDSEC;
END-ISO-10303-21;
