ISO-10303-21;
HEADER;
/* Generated by software containing ST-Developer
 * from STEP Tools, Inc. (www.steptools.com) 
 */
/* OPTION: using custom schema-name function */

FILE_DESCRIPTION(
/* description */ (''),
/* implementation_level */ '2;1');

FILE_NAME(
/* name */ '\X2\043A0443043B0430043A\X0\ \X2\04400443043B04350432043E0439\X0\.
stp',
/* time_stamp */ '2026-04-20T13:17:53+03:00',
/* author */ (''),
/* organization */ (''),
/* preprocessor_version */ 'ST-DEVELOPER v16',
/* originating_system */ 'SIEMENS PLM Software NX 10.0',
/* authorisation */ '');

FILE_SCHEMA (('CONFIG_CONTROL_DESIGN'));
ENDSEC;

DATA;
#10=SHAPE_REPRESENTATION_RELATIONSHIP('None',
'relationship between \X2\043A0443043B0430043A\X0\ \X2\04400443043B0435
0432043E0439\X0\ \X2\043D043E0432044B0439\X0\-None and \X2\043A0443043B
0430043A\X0\ \X2\04400443043B04350432043E0439\X0\ \X2\043D043E0432044B
0439\X0\-None',#92,#11);
#11=ADVANCED_BREP_SHAPE_REPRESENTATION(
'\X2\043A0443043B0430043A\X0\ \X2\04400443043B04350432043E0439\X0\ \X2\043D
043E0432044B0439\X0\-None',(#93),#1714);
#12=CC_DESIGN_APPROVAL(#24,(#82));
#13=CC_DESIGN_APPROVAL(#25,(#84));
#14=CC_DESIGN_APPROVAL(#26,(#31));
#15=APPROVAL_PERSON_ORGANIZATION(#69,#24,#18);
#16=APPROVAL_PERSON_ORGANIZATION(#70,#25,#19);
#17=APPROVAL_PERSON_ORGANIZATION(#71,#26,#20);
#18=APPROVAL_ROLE('approver');
#19=APPROVAL_ROLE('approver');
#20=APPROVAL_ROLE('approver');
#21=APPROVAL_DATE_TIME(#39,#24);
#22=APPROVAL_DATE_TIME(#40,#25);
#23=APPROVAL_DATE_TIME(#41,#26);
#24=APPROVAL(#27,' ');
#25=APPROVAL(#28,' ');
#26=APPROVAL(#29,' ');
#27=APPROVAL_STATUS('not_yet_approved');
#28=APPROVAL_STATUS('not_yet_approved');
#29=APPROVAL_STATUS('not_yet_approved');
#30=CC_DESIGN_SECURITY_CLASSIFICATION(#31,(#84));
#31=SECURITY_CLASSIFICATION(' ',' ',#32);
#32=SECURITY_CLASSIFICATION_LEVEL('confidential');
#33=CC_DESIGN_DATE_AND_TIME_ASSIGNMENT(#37,#35,(#82));
#34=CC_DESIGN_DATE_AND_TIME_ASSIGNMENT(#38,#36,(#31));
#35=DATE_TIME_ROLE('creation_date');
#36=DATE_TIME_ROLE('classification_date');
#37=DATE_AND_TIME(#52,#42);
#38=DATE_AND_TIME(#53,#43);
#39=DATE_AND_TIME(#54,#44);
#40=DATE_AND_TIME(#55,#45);
#41=DATE_AND_TIME(#56,#46);
#42=LOCAL_TIME(0,0,0.,#47);
#43=LOCAL_TIME(0,0,0.,#48);
#44=LOCAL_TIME(0,0,0.,#49);
#45=LOCAL_TIME(0,0,0.,#50);
#46=LOCAL_TIME(0,0,0.,#51);
#47=COORDINATED_UNIVERSAL_TIME_OFFSET(0,0,.BEHIND.);
#48=COORDINATED_UNIVERSAL_TIME_OFFSET(0,0,.BEHIND.);
#49=COORDINATED_UNIVERSAL_TIME_OFFSET(0,0,.BEHIND.);
#50=COORDINATED_UNIVERSAL_TIME_OFFSET(0,0,.BEHIND.);
#51=COORDINATED_UNIVERSAL_TIME_OFFSET(0,0,.BEHIND.);
#52=CALENDAR_DATE(0,1,1);
#53=CALENDAR_DATE(0,1,1);
#54=CALENDAR_DATE(0,1,1);
#55=CALENDAR_DATE(0,1,1);
#56=CALENDAR_DATE(0,1,1);
#57=CC_DESIGN_PERSON_AND_ORGANIZATION_ASSIGNMENT(#65,#61,(#82,#84));
#58=CC_DESIGN_PERSON_AND_ORGANIZATION_ASSIGNMENT(#66,#62,(#86));
#59=CC_DESIGN_PERSON_AND_ORGANIZATION_ASSIGNMENT(#67,#63,(#84));
#60=CC_DESIGN_PERSON_AND_ORGANIZATION_ASSIGNMENT(#68,#64,(#31));
#61=PERSON_AND_ORGANIZATION_ROLE('creator');
#62=PERSON_AND_ORGANIZATION_ROLE('design_owner');
#63=PERSON_AND_ORGANIZATION_ROLE('design_supplier');
#64=PERSON_AND_ORGANIZATION_ROLE('classification_officer');
#65=PERSON_AND_ORGANIZATION(#79,#72);
#66=PERSON_AND_ORGANIZATION(#79,#73);
#67=PERSON_AND_ORGANIZATION(#79,#74);
#68=PERSON_AND_ORGANIZATION(#79,#75);
#69=PERSON_AND_ORGANIZATION(#79,#76);
#70=PERSON_AND_ORGANIZATION(#79,#77);
#71=PERSON_AND_ORGANIZATION(#79,#78);
#72=ORGANIZATION(' ',' ',' ');
#73=ORGANIZATION(' ',' ',' ');
#74=ORGANIZATION(' ',' ',' ');
#75=ORGANIZATION(' ',' ',' ');
#76=ORGANIZATION(' ',' ',' ');
#77=ORGANIZATION(' ',' ',' ');
#78=ORGANIZATION(' ',' ',' ');
#79=PERSON(' ',' ',' ',(' '),$,$);
#80=SHAPE_DEFINITION_REPRESENTATION(#81,#92);
#81=PRODUCT_DEFINITION_SHAPE('','',#82);
#82=PRODUCT_DEFINITION(' ','',#84,#83);
#83=DESIGN_CONTEXT('',#91,'design');
#84=PRODUCT_DEFINITION_FORMATION_WITH_SPECIFIED_SOURCE(' ',' ',#86,
 .NOT_KNOWN.);
#85=PRODUCT_RELATED_PRODUCT_CATEGORY('detail','',(#86));
#86=PRODUCT('\X2\043A0443043B0430043A\X0\ \X2\04400443043B04350432043E
0439\X0\ \X2\043D043E0432044B0439\X0\',
'\X2\043A0443043B0430043A\X0\ \X2\04400443043B04350432043E0439\X0\ \X2\043D
043E0432044B0439\X0\',' ',(#89));
#87=PRODUCT_CATEGORY('part',' ');
#88=PRODUCT_CATEGORY(' ','');
#89=MECHANICAL_CONTEXT(' ',#91,'mechanical');
#90=APPLICATION_PROTOCOL_DEFINITION('international standard',
'config_control_design',2010,#91);
#91=APPLICATION_CONTEXT(
'configuration controlled 3D designs of mechanical parts and assemblie
s');
#92=SHAPE_REPRESENTATION('\X2\043A0443043B0430043A\X0\ \X2\04400443043B
04350432043E0439\X0\ \X2\043D043E0432044B0439\X0\-None',(#970),#1714);
#93=MANIFOLD_SOLID_BREP('',#94);
#94=CLOSED_SHELL('',(#264,#265,#266,#267,#268,#269,#270,#271,#272,#273,
#274,#275,#276,#277,#278,#279,#280,#281,#282,#283,#284,#285,#286,#287,#288,
#289,#290,#291,#292,#293,#294,#295,#296,#297,#298,#299,#300,#301,#302,#303,
#304,#305,#306,#307,#308,#309,#310,#311,#312));
#95=CONICAL_SURFACE('',#1054,8.,45.);
#96=CONICAL_SURFACE('',#1055,5.,45.);
#97=CONICAL_SURFACE('',#1056,5.,44.9999999999999);
#98=CONICAL_SURFACE('',#1057,4.,44.9999999999999);
#99=CONICAL_SURFACE('',#1058,5.,44.9999999999999);
#100=CONICAL_SURFACE('',#1062,4.49255,44.9999999999999);
#101=ELLIPSE('',#1032,6.85529557251976,6.);
#102=ELLIPSE('',#1036,18.606708282705,9.);
#103=PLANE('',#976);
#104=PLANE('',#979);
#105=PLANE('',#982);
#106=PLANE('',#985);
#107=PLANE('',#988);
#108=PLANE('',#991);
#109=PLANE('',#993);
#110=PLANE('',#998);
#111=PLANE('',#999);
#112=PLANE('',#1008);
#113=PLANE('',#1017);
#114=PLANE('',#1020);
#115=PLANE('',#1023);
#116=PLANE('',#1033);
#117=PLANE('',#1037);
#118=PLANE('',#1042);
#119=FACE_OUTER_BOUND('',#401,.T.);
#120=FACE_OUTER_BOUND('',#404,.T.);
#121=FACE_OUTER_BOUND('',#415,.T.);
#122=FACE_OUTER_BOUND('',#420,.T.);
#123=FACE_OUTER_BOUND('',#421,.T.);
#124=FACE_OUTER_BOUND('',#422,.T.);
#125=FACE_OUTER_BOUND('',#423,.T.);
#126=FACE_OUTER_BOUND('',#424,.T.);
#127=FACE_OUTER_BOUND('',#425,.T.);
#128=FACE_OUTER_BOUND('',#430,.T.);
#129=FACE_OUTER_BOUND('',#431,.T.);
#130=FACE_OUTER_BOUND('',#432,.T.);
#131=FACE_OUTER_BOUND('',#437,.T.);
#132=FACE_OUTER_BOUND('',#438,.T.);
#133=FACE_OUTER_BOUND('',#439,.T.);
#134=FACE_OUTER_BOUND('',#440,.T.);
#135=FACE_OUTER_BOUND('',#441,.T.);
#136=FACE_OUTER_BOUND('',#442,.T.);
#137=FACE_OUTER_BOUND('',#443,.T.);
#138=FACE_OUTER_BOUND('',#444,.T.);
#139=FACE_OUTER_BOUND('',#445,.T.);
#140=FACE_OUTER_BOUND('',#446,.T.);
#141=FACE_OUTER_BOUND('',#447,.T.);
#142=FACE_OUTER_BOUND('',#458,.T.);
#143=FACE_OUTER_BOUND('',#463,.T.);
#144=FACE_OUTER_BOUND('',#464,.T.);
#145=FACE_OUTER_BOUND('',#465,.T.);
#146=FACE_OUTER_BOUND('',#466,.T.);
#147=FACE_OUTER_BOUND('',#467,.T.);
#148=LINE('',#1393,#206);
#149=LINE('',#1395,#207);
#150=LINE('',#1399,#208);
#151=LINE('',#1401,#209);
#152=LINE('',#1403,#210);
#153=LINE('',#1407,#211);
#154=LINE('',#1409,#212);
#155=LINE('',#1413,#213);
#156=LINE('',#1416,#214);
#157=LINE('',#1420,#215);
#158=LINE('',#1422,#216);
#159=LINE('',#1424,#217);
#160=LINE('',#1430,#218);
#161=LINE('',#1433,#219);
#162=LINE('',#1438,#220);
#163=LINE('',#1442,#221);
#164=LINE('',#1448,#222);
#165=LINE('',#1450,#223);
#166=LINE('',#1454,#224);
#167=LINE('',#1457,#225);
#168=LINE('',#1459,#226);
#169=LINE('',#1461,#227);
#170=LINE('',#1465,#228);
#171=LINE('',#1470,#229);
#172=LINE('',#1472,#230);
#173=LINE('',#1476,#231);
#174=LINE('',#1480,#232);
#175=LINE('',#1483,#233);
#176=LINE('',#1485,#234);
#177=LINE('',#1487,#235);
#178=LINE('',#1492,#236);
#179=LINE('',#1494,#237);
#180=LINE('',#1496,#238);
#181=LINE('',#1505,#239);
#182=LINE('',#1507,#240);
#183=LINE('',#1509,#241);
#184=LINE('',#1516,#242);
#185=LINE('',#1518,#243);
#186=LINE('',#1522,#244);
#187=LINE('',#1529,#245);
#188=LINE('',#1538,#246);
#189=LINE('',#1540,#247);
#190=LINE('',#1543,#248);
#191=LINE('',#1546,#249);
#192=LINE('',#1551,#250);
#193=LINE('',#1553,#251);
#194=LINE('',#1556,#252);
#195=LINE('',#1592,#253);
#196=LINE('',#1596,#254);
#197=LINE('',#1598,#255);
#198=LINE('',#1602,#256);
#199=LINE('',#1604,#257);
#200=LINE('',#1608,#258);
#201=LINE('',#1617,#259);
#202=LINE('',#1619,#260);
#203=LINE('',#1621,#261);
#204=LINE('',#1623,#262);
#205=LINE('',#1625,#263);
#206=VECTOR('',#1078,1.);
#207=VECTOR('',#1079,1.);
#208=VECTOR('',#1082,1.);
#209=VECTOR('',#1083,1.);
#210=VECTOR('',#1084,1.);
#211=VECTOR('',#1089,1.);
#212=VECTOR('',#1090,1.);
#213=VECTOR('',#1095,1.);
#214=VECTOR('',#1096,1.);
#215=VECTOR('',#1099,1.);
#216=VECTOR('',#1100,1.);
#217=VECTOR('',#1101,1.);
#218=VECTOR('',#1108,1.);
#219=VECTOR('',#1109,1.);
#220=VECTOR('',#1116,1.);
#221=VECTOR('',#1119,1.);
#222=VECTOR('',#1126,1.);
#223=VECTOR('',#1127,1.);
#224=VECTOR('',#1132,1.);
#225=VECTOR('',#1133,1.);
#226=VECTOR('',#1134,1.);
#227=VECTOR('',#1135,1.);
#228=VECTOR('',#1140,1.);
#229=VECTOR('',#1143,1.);
#230=VECTOR('',#1144,1.);
#231=VECTOR('',#1147,1.);
#232=VECTOR('',#1152,1.);
#233=VECTOR('',#1153,1.);
#234=VECTOR('',#1154,1.);
#235=VECTOR('',#1155,1.);
#236=VECTOR('',#1160,1.);
#237=VECTOR('',#1161,1.);
#238=VECTOR('',#1162,1.);
#239=VECTOR('',#1171,1.);
#240=VECTOR('',#1172,1.);
#241=VECTOR('',#1173,1.);
#242=VECTOR('',#1180,1.);
#243=VECTOR('',#1181,1.);
#244=VECTOR('',#1186,1.);
#245=VECTOR('',#1193,1.);
#246=VECTOR('',#1202,1.);
#247=VECTOR('',#1205,1.);
#248=VECTOR('',#1206,1.);
#249=VECTOR('',#1209,1.);
#250=VECTOR('',#1216,1.);
#251=VECTOR('',#1217,1.);
#252=VECTOR('',#1220,1.);
#253=VECTOR('',#1239,1.);
#254=VECTOR('',#1242,1.);
#255=VECTOR('',#1243,1.);
#256=VECTOR('',#1248,1.);
#257=VECTOR('',#1251,1.);
#258=VECTOR('',#1254,1.);
#259=VECTOR('',#1265,1.);
#260=VECTOR('',#1266,1.);
#261=VECTOR('',#1269,1.);
#262=VECTOR('',#1272,1.);
#263=VECTOR('',#1275,1.);
#264=ADVANCED_FACE('',(#357,#358,#359),#313,.F.);
#265=ADVANCED_FACE('',(#119),#103,.T.);
#266=ADVANCED_FACE('',(#360,#361),#104,.T.);
#267=ADVANCED_FACE('',(#120),#105,.T.);
#268=ADVANCED_FACE('',(#362,#363),#106,.T.);
#269=ADVANCED_FACE('',(#364,#365),#107,.F.);
#270=ADVANCED_FACE('',(#366,#367),#108,.F.);
#271=ADVANCED_FACE('',(#368,#369),#109,.T.);
#272=ADVANCED_FACE('',(#370,#371),#110,.T.);
#273=ADVANCED_FACE('',(#121),#111,.T.);
#274=ADVANCED_FACE('',(#372,#373),#112,.F.);
#275=ADVANCED_FACE('',(#374,#375),#113,.T.);
#276=ADVANCED_FACE('',(#122),#114,.T.);
#277=ADVANCED_FACE('',(#123),#115,.T.);
#278=ADVANCED_FACE('',(#124),#314,.F.);
#279=ADVANCED_FACE('',(#125),#315,.F.);
#280=ADVANCED_FACE('',(#126),#316,.T.);
#281=ADVANCED_FACE('',(#127),#317,.T.);
#282=ADVANCED_FACE('',(#376,#377),#318,.F.);
#283=ADVANCED_FACE('',(#378,#379),#319,.F.);
#284=ADVANCED_FACE('',(#128),#116,.T.);
#285=ADVANCED_FACE('',(#129),#320,.T.);
#286=ADVANCED_FACE('',(#130),#117,.T.);
#287=ADVANCED_FACE('',(#380,#381),#321,.F.);
#288=ADVANCED_FACE('',(#382,#383),#118,.T.);
#289=ADVANCED_FACE('',(#131),#322,.T.);
#290=ADVANCED_FACE('',(#132),#323,.T.);
#291=ADVANCED_FACE('',(#133),#324,.T.);
#292=ADVANCED_FACE('',(#134),#325,.T.);
#293=ADVANCED_FACE('',(#135),#326,.T.);
#294=ADVANCED_FACE('',(#136),#327,.F.);
#295=ADVANCED_FACE('',(#137),#328,.F.);
#296=ADVANCED_FACE('',(#138),#329,.F.);
#297=ADVANCED_FACE('',(#139),#330,.F.);
#298=ADVANCED_FACE('',(#140),#331,.T.);
#299=ADVANCED_FACE('',(#141),#332,.F.);
#300=ADVANCED_FACE('',(#384,#385),#95,.F.);
#301=ADVANCED_FACE('',(#386,#387),#96,.F.);
#302=ADVANCED_FACE('',(#388,#389),#97,.F.);
#303=ADVANCED_FACE('',(#390,#391),#98,.F.);
#304=ADVANCED_FACE('',(#392,#393),#99,.F.);
#305=ADVANCED_FACE('',(#142),#333,.F.);
#306=ADVANCED_FACE('',(#394,#395),#334,.F.);
#307=ADVANCED_FACE('',(#396,#397),#100,.F.);
#308=ADVANCED_FACE('',(#143),#335,.F.);
#309=ADVANCED_FACE('',(#144),#336,.F.);
#310=ADVANCED_FACE('',(#145),#337,.F.);
#311=ADVANCED_FACE('',(#146),#338,.F.);
#312=ADVANCED_FACE('',(#147),#339,.F.);
#313=CYLINDRICAL_SURFACE('',#973,8.);
#314=CYLINDRICAL_SURFACE('',#1024,8.99999999999999);
#315=CYLINDRICAL_SURFACE('',#1025,9.);
#316=CYLINDRICAL_SURFACE('',#1026,9.);
#317=CYLINDRICAL_SURFACE('',#1027,9.);
#318=CYLINDRICAL_SURFACE('',#1029,4.);
#319=CYLINDRICAL_SURFACE('',#1031,4.);
#320=CYLINDRICAL_SURFACE('',#1035,7.50000000000001);
#321=CYLINDRICAL_SURFACE('',#1040,4.);
#322=CYLINDRICAL_SURFACE('',#1043,6.);
#323=CYLINDRICAL_SURFACE('',#1044,6.);
#324=CYLINDRICAL_SURFACE('',#1045,6.);
#325=CYLINDRICAL_SURFACE('',#1046,10.);
#326=CYLINDRICAL_SURFACE('',#1047,10.);
#327=CYLINDRICAL_SURFACE('',#1048,6.);
#328=CYLINDRICAL_SURFACE('',#1049,6.);
#329=CYLINDRICAL_SURFACE('',#1050,6.);
#330=CYLINDRICAL_SURFACE('',#1051,6.);
#331=CYLINDRICAL_SURFACE('',#1052,6.);
#332=CYLINDRICAL_SURFACE('',#1053,9.);
#333=CYLINDRICAL_SURFACE('',#1059,6.);
#334=CYLINDRICAL_SURFACE('',#1061,3.49255);
#335=CYLINDRICAL_SURFACE('',#1063,4.);
#336=CYLINDRICAL_SURFACE('',#1064,4.);
#337=CYLINDRICAL_SURFACE('',#1065,4.);
#338=CYLINDRICAL_SURFACE('',#1066,4.);
#339=CYLINDRICAL_SURFACE('',#1067,4.);
#340=B_SPLINE_CURVE_WITH_KNOTS('',3,(#1327,#1328,#1329,#1330,#1331,#1332,
#1333,#1334,#1335,#1336,#1337,#1338,#1339,#1340,#1341,#1342,#1343,#1344,
#1345,#1346,#1347,#1348,#1349,#1350,#1351,#1352,#1353,#1354,#1355,#1356,
#1357,#1358,#1359,#1360,#1361,#1362,#1363,#1364,#1365,#1366,#1367,#1368,
#1369,#1370,#1371,#1372,#1373,#1374,#1375,#1376,#1377,#1378,#1379,#1380,
#1381,#1382,#1383,#1384,#1385,#1386,#1387),.UNSPECIFIED.,.T.,.F.,(1,3,3,
3,3,3,3,3,3,3,3,3,3,3,3,3,3,3,3,3,3,3,1),(-0.0109604071594808,0.,0.0501550026135586,
0.100095144712579,0.153179301971812,0.208933158692206,0.261488735962135,
0.310438864785047,0.360121029362606,0.413669089327285,0.469398426921593,
0.52120537771301,0.569097395943005,0.619115053430808,0.673791213355923,
0.728885582902427,0.77973215652909,0.828381984120013,0.879276757017504,
0.934134053301594,0.989039592840519,1.,1.05015500261356),.UNSPECIFIED.);
#341=B_SPLINE_CURVE_WITH_KNOTS('',3,(#1558,#1559,#1560,#1561,#1562,#1563),
 .UNSPECIFIED.,.F.,.F.,(4,2,4),(0.,0.5,1.),.UNSPECIFIED.);
#342=B_SPLINE_CURVE_WITH_KNOTS('',3,(#1564,#1565,#1566,#1567,#1568,#1569),
 .UNSPECIFIED.,.F.,.F.,(4,2,4),(0.,0.5,1.),.UNSPECIFIED.);
#343=B_SPLINE_CURVE_WITH_KNOTS('',3,(#1571,#1572,#1573,#1574,#1575,#1576),
 .UNSPECIFIED.,.F.,.F.,(4,2,4),(0.,0.5,1.),.UNSPECIFIED.);
#344=B_SPLINE_CURVE_WITH_KNOTS('',3,(#1577,#1578,#1579,#1580,#1581,#1582),
 .UNSPECIFIED.,.F.,.F.,(4,2,4),(0.,0.5,1.),.UNSPECIFIED.);
#345=B_SPLINE_CURVE_WITH_KNOTS('',3,(#1627,#1628,#1629,#1630,#1631,#1632),
 .UNSPECIFIED.,.F.,.F.,(4,2,4),(0.,0.5,1.),.UNSPECIFIED.);
#346=B_SPLINE_CURVE_WITH_KNOTS('',3,(#1633,#1634,#1635,#1636,#1637,#1638),
 .UNSPECIFIED.,.F.,.F.,(4,2,4),(0.,0.5,1.),.UNSPECIFIED.);
#347=B_SPLINE_CURVE_WITH_KNOTS('',3,(#1640,#1641,#1642,#1643),
 .UNSPECIFIED.,.F.,.F.,(4,4),(0.,1.),.UNSPECIFIED.);
#348=B_SPLINE_CURVE_WITH_KNOTS('',3,(#1644,#1645,#1646,#1647),
 .UNSPECIFIED.,.F.,.F.,(4,4),(0.,1.),.UNSPECIFIED.);
#349=B_SPLINE_CURVE_WITH_KNOTS('',3,(#1649,#1650,#1651,#1652,#1653,#1654),
 .UNSPECIFIED.,.F.,.F.,(4,2,4),(0.,0.5,1.),.UNSPECIFIED.);
#350=B_SPLINE_CURVE_WITH_KNOTS('',3,(#1656,#1657,#1658,#1659,#1660,#1661),
 .UNSPECIFIED.,.F.,.F.,(4,2,4),(0.,0.5,1.),.UNSPECIFIED.);
#351=B_SPLINE_CURVE_WITH_KNOTS('',3,(#1663,#1664,#1665,#1666,#1667,#1668),
 .UNSPECIFIED.,.F.,.F.,(4,2,4),(0.,0.5,1.),.UNSPECIFIED.);
#352=B_SPLINE_CURVE_WITH_KNOTS('',3,(#1670,#1671,#1672,#1673),
 .UNSPECIFIED.,.F.,.F.,(4,4),(0.,1.),.UNSPECIFIED.);
#353=B_SPLINE_CURVE_WITH_KNOTS('',3,(#1674,#1675,#1676,#1677,#1678,#1679),
 .UNSPECIFIED.,.F.,.F.,(4,2,4),(0.,0.5,1.),.UNSPECIFIED.);
#354=B_SPLINE_CURVE_WITH_KNOTS('',3,(#1681,#1682,#1683,#1684,#1685,#1686),
 .UNSPECIFIED.,.F.,.F.,(4,2,4),(0.,0.5,1.),.UNSPECIFIED.);
#355=B_SPLINE_CURVE_WITH_KNOTS('',3,(#1688,#1689,#1690,#1691,#1692,#1693),
 .UNSPECIFIED.,.F.,.F.,(4,2,4),(0.,0.5,1.),.UNSPECIFIED.);
#356=B_SPLINE_CURVE_WITH_KNOTS('',3,(#1700,#1701,#1702,#1703),
 .UNSPECIFIED.,.F.,.F.,(4,4),(0.,1.),.UNSPECIFIED.);
#357=FACE_BOUND('',#398,.T.);
#358=FACE_BOUND('',#399,.T.);
#359=FACE_BOUND('',#400,.T.);
#360=FACE_BOUND('',#402,.T.);
#361=FACE_BOUND('',#403,.T.);
#362=FACE_BOUND('',#405,.T.);
#363=FACE_BOUND('',#406,.T.);
#364=FACE_BOUND('',#407,.T.);
#365=FACE_BOUND('',#408,.T.);
#366=FACE_BOUND('',#409,.T.);
#367=FACE_BOUND('',#410,.T.);
#368=FACE_BOUND('',#411,.T.);
#369=FACE_BOUND('',#412,.T.);
#370=FACE_BOUND('',#413,.T.);
#371=FACE_BOUND('',#414,.T.);
#372=FACE_BOUND('',#416,.T.);
#373=FACE_BOUND('',#417,.T.);
#374=FACE_BOUND('',#418,.T.);
#375=FACE_BOUND('',#419,.T.);
#376=FACE_BOUND('',#426,.T.);
#377=FACE_BOUND('',#427,.T.);
#378=FACE_BOUND('',#428,.T.);
#379=FACE_BOUND('',#429,.T.);
#380=FACE_BOUND('',#433,.T.);
#381=FACE_BOUND('',#434,.T.);
#382=FACE_BOUND('',#435,.T.);
#383=FACE_BOUND('',#436,.T.);
#384=FACE_BOUND('',#448,.T.);
#385=FACE_BOUND('',#449,.T.);
#386=FACE_BOUND('',#450,.T.);
#387=FACE_BOUND('',#451,.T.);
#388=FACE_BOUND('',#452,.T.);
#389=FACE_BOUND('',#453,.T.);
#390=FACE_BOUND('',#454,.T.);
#391=FACE_BOUND('',#455,.T.);
#392=FACE_BOUND('',#456,.T.);
#393=FACE_BOUND('',#457,.T.);
#394=FACE_BOUND('',#459,.T.);
#395=FACE_BOUND('',#460,.T.);
#396=FACE_BOUND('',#461,.T.);
#397=FACE_BOUND('',#462,.T.);
#398=EDGE_LOOP('',(#468));
#399=EDGE_LOOP('',(#469));
#400=EDGE_LOOP('',(#470));
#401=EDGE_LOOP('',(#471,#472,#473,#474,#475,#476,#477));
#402=EDGE_LOOP('',(#478));
#403=EDGE_LOOP('',(#479,#480,#481,#482));
#404=EDGE_LOOP('',(#483,#484,#485,#486,#487,#488,#489));
#405=EDGE_LOOP('',(#490));
#406=EDGE_LOOP('',(#491,#492,#493,#494));
#407=EDGE_LOOP('',(#495));
#408=EDGE_LOOP('',(#496,#497,#498,#499));
#409=EDGE_LOOP('',(#500));
#410=EDGE_LOOP('',(#501,#502,#503,#504));
#411=EDGE_LOOP('',(#505));
#412=EDGE_LOOP('',(#506,#507,#508,#509));
#413=EDGE_LOOP('',(#510));
#414=EDGE_LOOP('',(#511,#512,#513,#514,#515,#516,#517));
#415=EDGE_LOOP('',(#518,#519,#520,#521));
#416=EDGE_LOOP('',(#522,#523,#524,#525,#526,#527,#528,#529,#530,#531,#532,
#533,#534,#535,#536,#537,#538,#539));
#417=EDGE_LOOP('',(#540));
#418=EDGE_LOOP('',(#541));
#419=EDGE_LOOP('',(#542,#543,#544,#545,#546,#547,#548,#549,#550,#551,#552,
#553,#554));
#420=EDGE_LOOP('',(#555,#556,#557,#558,#559,#560,#561));
#421=EDGE_LOOP('',(#562,#563,#564,#565,#566,#567,#568));
#422=EDGE_LOOP('',(#569,#570,#571,#572,#573,#574));
#423=EDGE_LOOP('',(#575,#576,#577,#578,#579,#580));
#424=EDGE_LOOP('',(#581,#582,#583,#584));
#425=EDGE_LOOP('',(#585,#586,#587,#588));
#426=EDGE_LOOP('',(#589));
#427=EDGE_LOOP('',(#590));
#428=EDGE_LOOP('',(#591));
#429=EDGE_LOOP('',(#592));
#430=EDGE_LOOP('',(#593,#594,#595,#596,#597));
#431=EDGE_LOOP('',(#598,#599,#600,#601));
#432=EDGE_LOOP('',(#602,#603,#604,#605,#606));
#433=EDGE_LOOP('',(#607));
#434=EDGE_LOOP('',(#608));
#435=EDGE_LOOP('',(#609));
#436=EDGE_LOOP('',(#610,#611,#612,#613,#614));
#437=EDGE_LOOP('',(#615,#616,#617,#618));
#438=EDGE_LOOP('',(#619,#620,#621,#622));
#439=EDGE_LOOP('',(#623,#624,#625,#626));
#440=EDGE_LOOP('',(#627,#628,#629,#630,#631,#632));
#441=EDGE_LOOP('',(#633,#634,#635,#636,#637,#638));
#442=EDGE_LOOP('',(#639,#640,#641,#642,#643,#644));
#443=EDGE_LOOP('',(#645,#646,#647,#648,#649,#650));
#444=EDGE_LOOP('',(#651,#652,#653,#654,#655,#656));
#445=EDGE_LOOP('',(#657,#658,#659,#660,#661,#662));
#446=EDGE_LOOP('',(#663,#664,#665,#666));
#447=EDGE_LOOP('',(#667,#668,#669,#670,#671,#672,#673));
#448=EDGE_LOOP('',(#674));
#449=EDGE_LOOP('',(#675));
#450=EDGE_LOOP('',(#676));
#451=EDGE_LOOP('',(#677));
#452=EDGE_LOOP('',(#678));
#453=EDGE_LOOP('',(#679));
#454=EDGE_LOOP('',(#680));
#455=EDGE_LOOP('',(#681));
#456=EDGE_LOOP('',(#682));
#457=EDGE_LOOP('',(#683));
#458=EDGE_LOOP('',(#684,#685,#686,#687,#688));
#459=EDGE_LOOP('',(#689));
#460=EDGE_LOOP('',(#690));
#461=EDGE_LOOP('',(#691));
#462=EDGE_LOOP('',(#692));
#463=EDGE_LOOP('',(#693,#694,#695,#696));
#464=EDGE_LOOP('',(#697,#698,#699,#700,#701));
#465=EDGE_LOOP('',(#702,#703,#704,#705));
#466=EDGE_LOOP('',(#706,#707,#708,#709));
#467=EDGE_LOOP('',(#710,#711,#712,#713));
#468=ORIENTED_EDGE('',*,*,#801,.T.);
#469=ORIENTED_EDGE('',*,*,#802,.F.);
#470=ORIENTED_EDGE('',*,*,#803,.F.);
#471=ORIENTED_EDGE('',*,*,#804,.F.);
#472=ORIENTED_EDGE('',*,*,#805,.T.);
#473=ORIENTED_EDGE('',*,*,#806,.T.);
#474=ORIENTED_EDGE('',*,*,#807,.T.);
#475=ORIENTED_EDGE('',*,*,#808,.F.);
#476=ORIENTED_EDGE('',*,*,#809,.T.);
#477=ORIENTED_EDGE('',*,*,#810,.F.);
#478=ORIENTED_EDGE('',*,*,#811,.T.);
#479=ORIENTED_EDGE('',*,*,#808,.T.);
#480=ORIENTED_EDGE('',*,*,#812,.T.);
#481=ORIENTED_EDGE('',*,*,#813,.F.);
#482=ORIENTED_EDGE('',*,*,#814,.T.);
#483=ORIENTED_EDGE('',*,*,#815,.T.);
#484=ORIENTED_EDGE('',*,*,#816,.T.);
#485=ORIENTED_EDGE('',*,*,#817,.F.);
#486=ORIENTED_EDGE('',*,*,#818,.F.);
#487=ORIENTED_EDGE('',*,*,#819,.T.);
#488=ORIENTED_EDGE('',*,*,#820,.T.);
#489=ORIENTED_EDGE('',*,*,#821,.T.);
#490=ORIENTED_EDGE('',*,*,#822,.T.);
#491=ORIENTED_EDGE('',*,*,#823,.T.);
#492=ORIENTED_EDGE('',*,*,#824,.T.);
#493=ORIENTED_EDGE('',*,*,#820,.F.);
#494=ORIENTED_EDGE('',*,*,#825,.T.);
#495=ORIENTED_EDGE('',*,*,#826,.F.);
#496=ORIENTED_EDGE('',*,*,#827,.T.);
#497=ORIENTED_EDGE('',*,*,#828,.F.);
#498=ORIENTED_EDGE('',*,*,#818,.T.);
#499=ORIENTED_EDGE('',*,*,#829,.T.);
#500=ORIENTED_EDGE('',*,*,#830,.F.);
#501=ORIENTED_EDGE('',*,*,#831,.F.);
#502=ORIENTED_EDGE('',*,*,#832,.T.);
#503=ORIENTED_EDGE('',*,*,#833,.F.);
#504=ORIENTED_EDGE('',*,*,#810,.T.);
#505=ORIENTED_EDGE('',*,*,#834,.T.);
#506=ORIENTED_EDGE('',*,*,#835,.T.);
#507=ORIENTED_EDGE('',*,*,#836,.T.);
#508=ORIENTED_EDGE('',*,*,#837,.F.);
#509=ORIENTED_EDGE('',*,*,#838,.T.);
#510=ORIENTED_EDGE('',*,*,#839,.T.);
#511=ORIENTED_EDGE('',*,*,#840,.F.);
#512=ORIENTED_EDGE('',*,*,#841,.T.);
#513=ORIENTED_EDGE('',*,*,#842,.F.);
#514=ORIENTED_EDGE('',*,*,#843,.T.);
#515=ORIENTED_EDGE('',*,*,#844,.T.);
#516=ORIENTED_EDGE('',*,*,#845,.F.);
#517=ORIENTED_EDGE('',*,*,#846,.F.);
#518=ORIENTED_EDGE('',*,*,#847,.F.);
#519=ORIENTED_EDGE('',*,*,#848,.T.);
#520=ORIENTED_EDGE('',*,*,#849,.T.);
#521=ORIENTED_EDGE('',*,*,#850,.T.);
#522=ORIENTED_EDGE('',*,*,#851,.T.);
#523=ORIENTED_EDGE('',*,*,#852,.T.);
#524=ORIENTED_EDGE('',*,*,#853,.F.);
#525=ORIENTED_EDGE('',*,*,#854,.T.);
#526=ORIENTED_EDGE('',*,*,#855,.T.);
#527=ORIENTED_EDGE('',*,*,#856,.T.);
#528=ORIENTED_EDGE('',*,*,#835,.F.);
#529=ORIENTED_EDGE('',*,*,#857,.T.);
#530=ORIENTED_EDGE('',*,*,#858,.T.);
#531=ORIENTED_EDGE('',*,*,#859,.T.);
#532=ORIENTED_EDGE('',*,*,#860,.T.);
#533=ORIENTED_EDGE('',*,*,#861,.T.);
#534=ORIENTED_EDGE('',*,*,#862,.T.);
#535=ORIENTED_EDGE('',*,*,#863,.T.);
#536=ORIENTED_EDGE('',*,*,#849,.F.);
#537=ORIENTED_EDGE('',*,*,#864,.T.);
#538=ORIENTED_EDGE('',*,*,#865,.T.);
#539=ORIENTED_EDGE('',*,*,#866,.T.);
#540=ORIENTED_EDGE('',*,*,#802,.T.);
#541=ORIENTED_EDGE('',*,*,#867,.T.);
#542=ORIENTED_EDGE('',*,*,#842,.T.);
#543=ORIENTED_EDGE('',*,*,#868,.T.);
#544=ORIENTED_EDGE('',*,*,#869,.T.);
#545=ORIENTED_EDGE('',*,*,#847,.T.);
#546=ORIENTED_EDGE('',*,*,#870,.T.);
#547=ORIENTED_EDGE('',*,*,#871,.T.);
#548=ORIENTED_EDGE('',*,*,#872,.T.);
#549=ORIENTED_EDGE('',*,*,#873,.T.);
#550=ORIENTED_EDGE('',*,*,#874,.T.);
#551=ORIENTED_EDGE('',*,*,#837,.T.);
#552=ORIENTED_EDGE('',*,*,#875,.T.);
#553=ORIENTED_EDGE('',*,*,#876,.T.);
#554=ORIENTED_EDGE('',*,*,#877,.T.);
#555=ORIENTED_EDGE('',*,*,#878,.T.);
#556=ORIENTED_EDGE('',*,*,#879,.T.);
#557=ORIENTED_EDGE('',*,*,#880,.F.);
#558=ORIENTED_EDGE('',*,*,#832,.F.);
#559=ORIENTED_EDGE('',*,*,#881,.F.);
#560=ORIENTED_EDGE('',*,*,#813,.T.);
#561=ORIENTED_EDGE('',*,*,#882,.T.);
#562=ORIENTED_EDGE('',*,*,#883,.F.);
#563=ORIENTED_EDGE('',*,*,#884,.T.);
#564=ORIENTED_EDGE('',*,*,#885,.T.);
#565=ORIENTED_EDGE('',*,*,#886,.T.);
#566=ORIENTED_EDGE('',*,*,#823,.F.);
#567=ORIENTED_EDGE('',*,*,#887,.F.);
#568=ORIENTED_EDGE('',*,*,#827,.F.);
#569=ORIENTED_EDGE('',*,*,#817,.T.);
#570=ORIENTED_EDGE('',*,*,#888,.T.);
#571=ORIENTED_EDGE('',*,*,#853,.T.);
#572=ORIENTED_EDGE('',*,*,#889,.T.);
#573=ORIENTED_EDGE('',*,*,#883,.T.);
#574=ORIENTED_EDGE('',*,*,#829,.F.);
#575=ORIENTED_EDGE('',*,*,#860,.F.);
#576=ORIENTED_EDGE('',*,*,#890,.T.);
#577=ORIENTED_EDGE('',*,*,#804,.T.);
#578=ORIENTED_EDGE('',*,*,#833,.T.);
#579=ORIENTED_EDGE('',*,*,#880,.T.);
#580=ORIENTED_EDGE('',*,*,#891,.T.);
#581=ORIENTED_EDGE('',*,*,#881,.T.);
#582=ORIENTED_EDGE('',*,*,#831,.T.);
#583=ORIENTED_EDGE('',*,*,#809,.F.);
#584=ORIENTED_EDGE('',*,*,#814,.F.);
#585=ORIENTED_EDGE('',*,*,#828,.T.);
#586=ORIENTED_EDGE('',*,*,#887,.T.);
#587=ORIENTED_EDGE('',*,*,#825,.F.);
#588=ORIENTED_EDGE('',*,*,#819,.F.);
#589=ORIENTED_EDGE('',*,*,#892,.T.);
#590=ORIENTED_EDGE('',*,*,#830,.T.);
#591=ORIENTED_EDGE('',*,*,#893,.T.);
#592=ORIENTED_EDGE('',*,*,#826,.T.);
#593=ORIENTED_EDGE('',*,*,#845,.T.);
#594=ORIENTED_EDGE('',*,*,#894,.T.);
#595=ORIENTED_EDGE('',*,*,#895,.T.);
#596=ORIENTED_EDGE('',*,*,#896,.F.);
#597=ORIENTED_EDGE('',*,*,#897,.F.);
#598=ORIENTED_EDGE('',*,*,#898,.F.);
#599=ORIENTED_EDGE('',*,*,#899,.F.);
#600=ORIENTED_EDGE('',*,*,#846,.T.);
#601=ORIENTED_EDGE('',*,*,#897,.T.);
#602=ORIENTED_EDGE('',*,*,#900,.F.);
#603=ORIENTED_EDGE('',*,*,#901,.T.);
#604=ORIENTED_EDGE('',*,*,#902,.T.);
#605=ORIENTED_EDGE('',*,*,#840,.T.);
#606=ORIENTED_EDGE('',*,*,#899,.T.);
#607=ORIENTED_EDGE('',*,*,#903,.T.);
#608=ORIENTED_EDGE('',*,*,#904,.T.);
#609=ORIENTED_EDGE('',*,*,#905,.T.);
#610=ORIENTED_EDGE('',*,*,#896,.T.);
#611=ORIENTED_EDGE('',*,*,#906,.T.);
#612=ORIENTED_EDGE('',*,*,#907,.T.);
#613=ORIENTED_EDGE('',*,*,#900,.T.);
#614=ORIENTED_EDGE('',*,*,#898,.T.);
#615=ORIENTED_EDGE('',*,*,#856,.F.);
#616=ORIENTED_EDGE('',*,*,#908,.T.);
#617=ORIENTED_EDGE('',*,*,#875,.F.);
#618=ORIENTED_EDGE('',*,*,#836,.F.);
#619=ORIENTED_EDGE('',*,*,#863,.F.);
#620=ORIENTED_EDGE('',*,*,#909,.T.);
#621=ORIENTED_EDGE('',*,*,#870,.F.);
#622=ORIENTED_EDGE('',*,*,#850,.F.);
#623=ORIENTED_EDGE('',*,*,#874,.F.);
#624=ORIENTED_EDGE('',*,*,#910,.T.);
#625=ORIENTED_EDGE('',*,*,#857,.F.);
#626=ORIENTED_EDGE('',*,*,#838,.F.);
#627=ORIENTED_EDGE('',*,*,#821,.F.);
#628=ORIENTED_EDGE('',*,*,#824,.F.);
#629=ORIENTED_EDGE('',*,*,#886,.F.);
#630=ORIENTED_EDGE('',*,*,#911,.T.);
#631=ORIENTED_EDGE('',*,*,#877,.F.);
#632=ORIENTED_EDGE('',*,*,#912,.T.);
#633=ORIENTED_EDGE('',*,*,#882,.F.);
#634=ORIENTED_EDGE('',*,*,#812,.F.);
#635=ORIENTED_EDGE('',*,*,#807,.F.);
#636=ORIENTED_EDGE('',*,*,#913,.T.);
#637=ORIENTED_EDGE('',*,*,#872,.F.);
#638=ORIENTED_EDGE('',*,*,#914,.T.);
#639=ORIENTED_EDGE('',*,*,#862,.F.);
#640=ORIENTED_EDGE('',*,*,#915,.T.);
#641=ORIENTED_EDGE('',*,*,#878,.F.);
#642=ORIENTED_EDGE('',*,*,#914,.F.);
#643=ORIENTED_EDGE('',*,*,#871,.F.);
#644=ORIENTED_EDGE('',*,*,#909,.F.);
#645=ORIENTED_EDGE('',*,*,#858,.F.);
#646=ORIENTED_EDGE('',*,*,#910,.F.);
#647=ORIENTED_EDGE('',*,*,#873,.F.);
#648=ORIENTED_EDGE('',*,*,#913,.F.);
#649=ORIENTED_EDGE('',*,*,#806,.F.);
#650=ORIENTED_EDGE('',*,*,#916,.T.);
#651=ORIENTED_EDGE('',*,*,#855,.F.);
#652=ORIENTED_EDGE('',*,*,#917,.T.);
#653=ORIENTED_EDGE('',*,*,#815,.F.);
#654=ORIENTED_EDGE('',*,*,#912,.F.);
#655=ORIENTED_EDGE('',*,*,#876,.F.);
#656=ORIENTED_EDGE('',*,*,#908,.F.);
#657=ORIENTED_EDGE('',*,*,#851,.F.);
#658=ORIENTED_EDGE('',*,*,#918,.T.);
#659=ORIENTED_EDGE('',*,*,#843,.F.);
#660=ORIENTED_EDGE('',*,*,#911,.F.);
#661=ORIENTED_EDGE('',*,*,#885,.F.);
#662=ORIENTED_EDGE('',*,*,#919,.T.);
#663=ORIENTED_EDGE('',*,*,#841,.F.);
#664=ORIENTED_EDGE('',*,*,#902,.F.);
#665=ORIENTED_EDGE('',*,*,#920,.T.);
#666=ORIENTED_EDGE('',*,*,#868,.F.);
#667=ORIENTED_EDGE('',*,*,#864,.F.);
#668=ORIENTED_EDGE('',*,*,#848,.F.);
#669=ORIENTED_EDGE('',*,*,#869,.F.);
#670=ORIENTED_EDGE('',*,*,#920,.F.);
#671=ORIENTED_EDGE('',*,*,#901,.F.);
#672=ORIENTED_EDGE('',*,*,#907,.F.);
#673=ORIENTED_EDGE('',*,*,#921,.T.);
#674=ORIENTED_EDGE('',*,*,#867,.F.);
#675=ORIENTED_EDGE('',*,*,#801,.F.);
#676=ORIENTED_EDGE('',*,*,#893,.F.);
#677=ORIENTED_EDGE('',*,*,#822,.F.);
#678=ORIENTED_EDGE('',*,*,#903,.F.);
#679=ORIENTED_EDGE('',*,*,#839,.F.);
#680=ORIENTED_EDGE('',*,*,#905,.F.);
#681=ORIENTED_EDGE('',*,*,#904,.F.);
#682=ORIENTED_EDGE('',*,*,#892,.F.);
#683=ORIENTED_EDGE('',*,*,#811,.F.);
#684=ORIENTED_EDGE('',*,*,#921,.F.);
#685=ORIENTED_EDGE('',*,*,#906,.F.);
#686=ORIENTED_EDGE('',*,*,#895,.F.);
#687=ORIENTED_EDGE('',*,*,#922,.T.);
#688=ORIENTED_EDGE('',*,*,#865,.F.);
#689=ORIENTED_EDGE('',*,*,#923,.T.);
#690=ORIENTED_EDGE('',*,*,#803,.T.);
#691=ORIENTED_EDGE('',*,*,#923,.F.);
#692=ORIENTED_EDGE('',*,*,#834,.F.);
#693=ORIENTED_EDGE('',*,*,#889,.F.);
#694=ORIENTED_EDGE('',*,*,#852,.F.);
#695=ORIENTED_EDGE('',*,*,#919,.F.);
#696=ORIENTED_EDGE('',*,*,#884,.F.);
#697=ORIENTED_EDGE('',*,*,#922,.F.);
#698=ORIENTED_EDGE('',*,*,#894,.F.);
#699=ORIENTED_EDGE('',*,*,#844,.F.);
#700=ORIENTED_EDGE('',*,*,#918,.F.);
#701=ORIENTED_EDGE('',*,*,#866,.F.);
#702=ORIENTED_EDGE('',*,*,#888,.F.);
#703=ORIENTED_EDGE('',*,*,#816,.F.);
#704=ORIENTED_EDGE('',*,*,#917,.F.);
#705=ORIENTED_EDGE('',*,*,#854,.F.);
#706=ORIENTED_EDGE('',*,*,#915,.F.);
#707=ORIENTED_EDGE('',*,*,#861,.F.);
#708=ORIENTED_EDGE('',*,*,#891,.F.);
#709=ORIENTED_EDGE('',*,*,#879,.F.);
#710=ORIENTED_EDGE('',*,*,#916,.F.);
#711=ORIENTED_EDGE('',*,*,#805,.F.);
#712=ORIENTED_EDGE('',*,*,#890,.F.);
#713=ORIENTED_EDGE('',*,*,#859,.F.);
#714=VERTEX_POINT('',#1324);
#715=VERTEX_POINT('',#1326);
#716=VERTEX_POINT('',#1388);
#717=VERTEX_POINT('',#1391);
#718=VERTEX_POINT('',#1392);
#719=VERTEX_POINT('',#1394);
#720=VERTEX_POINT('',#1396);
#721=VERTEX_POINT('',#1398);
#722=VERTEX_POINT('',#1400);
#723=VERTEX_POINT('',#1402);
#724=VERTEX_POINT('',#1406);
#725=VERTEX_POINT('',#1408);
#726=VERTEX_POINT('',#1410);
#727=VERTEX_POINT('',#1414);
#728=VERTEX_POINT('',#1415);
#729=VERTEX_POINT('',#1417);
#730=VERTEX_POINT('',#1419);
#731=VERTEX_POINT('',#1421);
#732=VERTEX_POINT('',#1423);
#733=VERTEX_POINT('',#1425);
#734=VERTEX_POINT('',#1429);
#735=VERTEX_POINT('',#1431);
#736=VERTEX_POINT('',#1432);
#737=VERTEX_POINT('',#1437);
#738=VERTEX_POINT('',#1439);
#739=VERTEX_POINT('',#1440);
#740=VERTEX_POINT('',#1445);
#741=VERTEX_POINT('',#1447);
#742=VERTEX_POINT('',#1449);
#743=VERTEX_POINT('',#1453);
#744=VERTEX_POINT('',#1455);
#745=VERTEX_POINT('',#1456);
#746=VERTEX_POINT('',#1458);
#747=VERTEX_POINT('',#1460);
#748=VERTEX_POINT('',#1464);
#749=VERTEX_POINT('',#1466);
#750=VERTEX_POINT('',#1467);
#751=VERTEX_POINT('',#1469);
#752=VERTEX_POINT('',#1471);
#753=VERTEX_POINT('',#1473);
#754=VERTEX_POINT('',#1475);
#755=VERTEX_POINT('',#1477);
#756=VERTEX_POINT('',#1481);
#757=VERTEX_POINT('',#1482);
#758=VERTEX_POINT('',#1484);
#759=VERTEX_POINT('',#1486);
#760=VERTEX_POINT('',#1490);
#761=VERTEX_POINT('',#1491);
#762=VERTEX_POINT('',#1493);
#763=VERTEX_POINT('',#1495);
#764=VERTEX_POINT('',#1497);
#765=VERTEX_POINT('',#1499);
#766=VERTEX_POINT('',#1502);
#767=VERTEX_POINT('',#1504);
#768=VERTEX_POINT('',#1506);
#769=VERTEX_POINT('',#1508);
#770=VERTEX_POINT('',#1510);
#771=VERTEX_POINT('',#1512);
#772=VERTEX_POINT('',#1515);
#773=VERTEX_POINT('',#1517);
#774=VERTEX_POINT('',#1521);
#775=VERTEX_POINT('',#1523);
#776=VERTEX_POINT('',#1526);
#777=VERTEX_POINT('',#1528);
#778=VERTEX_POINT('',#1530);
#779=VERTEX_POINT('',#1532);
#780=VERTEX_POINT('',#1535);
#781=VERTEX_POINT('',#1537);
#782=VERTEX_POINT('',#1541);
#783=VERTEX_POINT('',#1542);
#784=VERTEX_POINT('',#1544);
#785=VERTEX_POINT('',#1550);
#786=VERTEX_POINT('',#1552);
#787=VERTEX_POINT('',#1554);
#788=VERTEX_POINT('',#1587);
#789=VERTEX_POINT('',#1590);
#790=VERTEX_POINT('',#1593);
#791=VERTEX_POINT('',#1595);
#792=VERTEX_POINT('',#1597);
#793=VERTEX_POINT('',#1601);
#794=VERTEX_POINT('',#1605);
#795=VERTEX_POINT('',#1607);
#796=VERTEX_POINT('',#1611);
#797=VERTEX_POINT('',#1613);
#798=VERTEX_POINT('',#1616);
#799=VERTEX_POINT('',#1618);
#800=VERTEX_POINT('',#1706);
#801=EDGE_CURVE('',#714,#714,#924,.T.);
#802=EDGE_CURVE('',#715,#715,#925,.T.);
#803=EDGE_CURVE('',#716,#716,#340,.T.);
#804=EDGE_CURVE('',#717,#718,#926,.T.);
#805=EDGE_CURVE('',#717,#719,#148,.T.);
#806=EDGE_CURVE('',#719,#720,#149,.T.);
#807=EDGE_CURVE('',#720,#721,#927,.T.);
#808=EDGE_CURVE('',#722,#721,#150,.T.);
#809=EDGE_CURVE('',#722,#723,#151,.T.);
#810=EDGE_CURVE('',#718,#723,#152,.T.);
#811=EDGE_CURVE('',#724,#724,#928,.T.);
#812=EDGE_CURVE('',#721,#725,#153,.T.);
#813=EDGE_CURVE('',#726,#725,#154,.T.);
#814=EDGE_CURVE('',#726,#722,#929,.T.);
#815=EDGE_CURVE('',#727,#728,#155,.T.);
#816=EDGE_CURVE('',#728,#729,#156,.T.);
#817=EDGE_CURVE('',#730,#729,#930,.T.);
#818=EDGE_CURVE('',#731,#730,#157,.T.);
#819=EDGE_CURVE('',#731,#732,#158,.T.);
#820=EDGE_CURVE('',#732,#733,#159,.T.);
#821=EDGE_CURVE('',#733,#727,#931,.T.);
#822=EDGE_CURVE('',#734,#734,#932,.T.);
#823=EDGE_CURVE('',#735,#736,#160,.T.);
#824=EDGE_CURVE('',#736,#733,#161,.T.);
#825=EDGE_CURVE('',#732,#735,#933,.T.);
#826=EDGE_CURVE('',#737,#737,#934,.T.);
#827=EDGE_CURVE('',#738,#739,#162,.T.);
#828=EDGE_CURVE('',#731,#739,#935,.T.);
#829=EDGE_CURVE('',#730,#738,#163,.T.);
#830=EDGE_CURVE('',#740,#740,#936,.T.);
#831=EDGE_CURVE('',#741,#723,#937,.T.);
#832=EDGE_CURVE('',#741,#742,#164,.T.);
#833=EDGE_CURVE('',#718,#742,#165,.T.);
#834=EDGE_CURVE('',#743,#743,#938,.T.);
#835=EDGE_CURVE('',#744,#745,#166,.T.);
#836=EDGE_CURVE('',#745,#746,#167,.T.);
#837=EDGE_CURVE('',#747,#746,#168,.T.);
#838=EDGE_CURVE('',#747,#744,#169,.T.);
#839=EDGE_CURVE('',#748,#748,#939,.T.);
#840=EDGE_CURVE('',#749,#750,#170,.T.);
#841=EDGE_CURVE('',#749,#751,#940,.T.);
#842=EDGE_CURVE('',#752,#751,#171,.T.);
#843=EDGE_CURVE('',#752,#753,#172,.T.);
#844=EDGE_CURVE('',#753,#754,#941,.T.);
#845=EDGE_CURVE('',#755,#754,#173,.T.);
#846=EDGE_CURVE('',#750,#755,#942,.T.);
#847=EDGE_CURVE('',#756,#757,#174,.T.);
#848=EDGE_CURVE('',#756,#758,#175,.T.);
#849=EDGE_CURVE('',#758,#759,#176,.T.);
#850=EDGE_CURVE('',#759,#757,#177,.T.);
#851=EDGE_CURVE('',#760,#761,#943,.T.);
#852=EDGE_CURVE('',#761,#762,#178,.T.);
#853=EDGE_CURVE('',#763,#762,#179,.T.);
#854=EDGE_CURVE('',#763,#764,#180,.T.);
#855=EDGE_CURVE('',#764,#765,#944,.T.);
#856=EDGE_CURVE('',#765,#745,#945,.T.);
#857=EDGE_CURVE('',#744,#766,#946,.T.);
#858=EDGE_CURVE('',#766,#767,#947,.T.);
#859=EDGE_CURVE('',#767,#768,#181,.T.);
#860=EDGE_CURVE('',#768,#769,#182,.T.);
#861=EDGE_CURVE('',#769,#770,#183,.T.);
#862=EDGE_CURVE('',#770,#771,#948,.T.);
#863=EDGE_CURVE('',#771,#759,#949,.T.);
#864=EDGE_CURVE('',#758,#772,#950,.T.);
#865=EDGE_CURVE('',#772,#773,#184,.T.);
#866=EDGE_CURVE('',#773,#760,#185,.T.);
#867=EDGE_CURVE('',#774,#774,#951,.T.);
#868=EDGE_CURVE('',#751,#775,#186,.T.);
#869=EDGE_CURVE('',#775,#756,#952,.T.);
#870=EDGE_CURVE('',#757,#776,#953,.T.);
#871=EDGE_CURVE('',#776,#777,#954,.T.);
#872=EDGE_CURVE('',#777,#778,#187,.T.);
#873=EDGE_CURVE('',#778,#779,#955,.T.);
#874=EDGE_CURVE('',#779,#747,#956,.T.);
#875=EDGE_CURVE('',#746,#780,#957,.T.);
#876=EDGE_CURVE('',#780,#781,#958,.T.);
#877=EDGE_CURVE('',#781,#752,#188,.T.);
#878=EDGE_CURVE('',#782,#783,#189,.T.);
#879=EDGE_CURVE('',#783,#784,#190,.T.);
#880=EDGE_CURVE('',#742,#784,#959,.T.);
#881=EDGE_CURVE('',#726,#741,#191,.T.);
#882=EDGE_CURVE('',#725,#782,#960,.T.);
#883=EDGE_CURVE('',#785,#738,#961,.T.);
#884=EDGE_CURVE('',#785,#786,#192,.T.);
#885=EDGE_CURVE('',#786,#787,#193,.T.);
#886=EDGE_CURVE('',#787,#736,#962,.T.);
#887=EDGE_CURVE('',#739,#735,#194,.T.);
#888=EDGE_CURVE('',#729,#763,#341,.T.);
#889=EDGE_CURVE('',#762,#785,#342,.T.);
#890=EDGE_CURVE('',#768,#717,#343,.T.);
#891=EDGE_CURVE('',#784,#769,#344,.T.);
#892=EDGE_CURVE('',#788,#788,#963,.T.);
#893=EDGE_CURVE('',#789,#789,#964,.T.);
#894=EDGE_CURVE('',#754,#790,#195,.T.);
#895=EDGE_CURVE('',#790,#791,#101,.T.);
#896=EDGE_CURVE('',#792,#791,#196,.T.);
#897=EDGE_CURVE('',#755,#792,#197,.T.);
#898=EDGE_CURVE('',#793,#792,#965,.T.);
#899=EDGE_CURVE('',#750,#793,#198,.T.);
#900=EDGE_CURVE('',#794,#793,#199,.T.);
#901=EDGE_CURVE('',#794,#795,#102,.T.);
#902=EDGE_CURVE('',#795,#749,#200,.T.);
#903=EDGE_CURVE('',#796,#796,#966,.T.);
#904=EDGE_CURVE('',#797,#797,#967,.T.);
#905=EDGE_CURVE('',#798,#798,#968,.T.);
#906=EDGE_CURVE('',#791,#799,#201,.T.);
#907=EDGE_CURVE('',#799,#794,#202,.T.);
#908=EDGE_CURVE('',#765,#780,#203,.T.);
#909=EDGE_CURVE('',#771,#776,#204,.T.);
#910=EDGE_CURVE('',#779,#766,#205,.T.);
#911=EDGE_CURVE('',#787,#752,#345,.T.);
#912=EDGE_CURVE('',#781,#727,#346,.T.);
#913=EDGE_CURVE('',#720,#778,#347,.T.);
#914=EDGE_CURVE('',#777,#782,#348,.T.);
#915=EDGE_CURVE('',#770,#783,#349,.T.);
#916=EDGE_CURVE('',#719,#767,#350,.T.);
#917=EDGE_CURVE('',#764,#728,#351,.T.);
#918=EDGE_CURVE('',#760,#753,#352,.T.);
#919=EDGE_CURVE('',#786,#761,#353,.T.);
#920=EDGE_CURVE('',#795,#775,#354,.T.);
#921=EDGE_CURVE('',#799,#772,#355,.T.);
#922=EDGE_CURVE('',#790,#773,#356,.T.);
#923=EDGE_CURVE('',#800,#800,#969,.T.);
#924=CIRCLE('',#971,8.);
#925=CIRCLE('',#972,8.);
#926=CIRCLE('',#974,9.);
#927=CIRCLE('',#975,10.);
#928=CIRCLE('',#977,5.);
#929=CIRCLE('',#978,9.);
#930=CIRCLE('',#980,8.99999999999999);
#931=CIRCLE('',#981,10.);
#932=CIRCLE('',#983,4.99999999999999);
#933=CIRCLE('',#984,9.);
#934=CIRCLE('',#986,4.);
#935=CIRCLE('',#987,9.);
#936=CIRCLE('',#989,4.);
#937=CIRCLE('',#990,9.);
#938=CIRCLE('',#992,4.49255);
#939=CIRCLE('',#994,5.);
#940=CIRCLE('',#995,6.);
#941=CIRCLE('',#996,4.);
#942=CIRCLE('',#997,7.50000000000001);
#943=CIRCLE('',#1000,6.);
#944=CIRCLE('',#1001,6.);
#945=CIRCLE('',#1002,6.);
#946=CIRCLE('',#1003,6.);
#947=CIRCLE('',#1004,6.);
#948=CIRCLE('',#1005,6.);
#949=CIRCLE('',#1006,6.);
#950=CIRCLE('',#1007,9.);
#951=CIRCLE('',#1009,9.);
#952=CIRCLE('',#1010,9.);
#953=CIRCLE('',#1011,6.);
#954=CIRCLE('',#1012,6.);
#955=CIRCLE('',#1013,6.);
#956=CIRCLE('',#1014,6.);
#957=CIRCLE('',#1015,6.);
#958=CIRCLE('',#1016,6.);
#959=CIRCLE('',#1018,9.);
#960=CIRCLE('',#1019,10.);
#961=CIRCLE('',#1021,8.99999999999999);
#962=CIRCLE('',#1022,10.);
#963=CIRCLE('',#1028,4.);
#964=CIRCLE('',#1030,4.);
#965=CIRCLE('',#1034,7.50000000000001);
#966=CIRCLE('',#1038,4.);
#967=CIRCLE('',#1039,4.);
#968=CIRCLE('',#1041,5.);
#969=CIRCLE('',#1060,3.49255);
#970=AXIS2_PLACEMENT_3D('',#1322,#1068,#1069);
#971=AXIS2_PLACEMENT_3D('',#1323,#1070,#1071);
#972=AXIS2_PLACEMENT_3D('',#1325,#1072,#1073);
#973=AXIS2_PLACEMENT_3D('',#1389,#1074,#1075);
#974=AXIS2_PLACEMENT_3D('',#1390,#1076,#1077);
#975=AXIS2_PLACEMENT_3D('',#1397,#1080,#1081);
#976=AXIS2_PLACEMENT_3D('',#1404,#1085,#1086);
#977=AXIS2_PLACEMENT_3D('',#1405,#1087,#1088);
#978=AXIS2_PLACEMENT_3D('',#1411,#1091,#1092);
#979=AXIS2_PLACEMENT_3D('',#1412,#1093,#1094);
#980=AXIS2_PLACEMENT_3D('',#1418,#1097,#1098);
#981=AXIS2_PLACEMENT_3D('',#1426,#1102,#1103);
#982=AXIS2_PLACEMENT_3D('',#1427,#1104,#1105);
#983=AXIS2_PLACEMENT_3D('',#1428,#1106,#1107);
#984=AXIS2_PLACEMENT_3D('',#1434,#1110,#1111);
#985=AXIS2_PLACEMENT_3D('',#1435,#1112,#1113);
#986=AXIS2_PLACEMENT_3D('',#1436,#1114,#1115);
#987=AXIS2_PLACEMENT_3D('',#1441,#1117,#1118);
#988=AXIS2_PLACEMENT_3D('',#1443,#1120,#1121);
#989=AXIS2_PLACEMENT_3D('',#1444,#1122,#1123);
#990=AXIS2_PLACEMENT_3D('',#1446,#1124,#1125);
#991=AXIS2_PLACEMENT_3D('',#1451,#1128,#1129);
#992=AXIS2_PLACEMENT_3D('',#1452,#1130,#1131);
#993=AXIS2_PLACEMENT_3D('',#1462,#1136,#1137);
#994=AXIS2_PLACEMENT_3D('',#1463,#1138,#1139);
#995=AXIS2_PLACEMENT_3D('',#1468,#1141,#1142);
#996=AXIS2_PLACEMENT_3D('',#1474,#1145,#1146);
#997=AXIS2_PLACEMENT_3D('',#1478,#1148,#1149);
#998=AXIS2_PLACEMENT_3D('',#1479,#1150,#1151);
#999=AXIS2_PLACEMENT_3D('',#1488,#1156,#1157);
#1000=AXIS2_PLACEMENT_3D('',#1489,#1158,#1159);
#1001=AXIS2_PLACEMENT_3D('',#1498,#1163,#1164);
#1002=AXIS2_PLACEMENT_3D('',#1500,#1165,#1166);
#1003=AXIS2_PLACEMENT_3D('',#1501,#1167,#1168);
#1004=AXIS2_PLACEMENT_3D('',#1503,#1169,#1170);
#1005=AXIS2_PLACEMENT_3D('',#1511,#1174,#1175);
#1006=AXIS2_PLACEMENT_3D('',#1513,#1176,#1177);
#1007=AXIS2_PLACEMENT_3D('',#1514,#1178,#1179);
#1008=AXIS2_PLACEMENT_3D('',#1519,#1182,#1183);
#1009=AXIS2_PLACEMENT_3D('',#1520,#1184,#1185);
#1010=AXIS2_PLACEMENT_3D('',#1524,#1187,#1188);
#1011=AXIS2_PLACEMENT_3D('',#1525,#1189,#1190);
#1012=AXIS2_PLACEMENT_3D('',#1527,#1191,#1192);
#1013=AXIS2_PLACEMENT_3D('',#1531,#1194,#1195);
#1014=AXIS2_PLACEMENT_3D('',#1533,#1196,#1197);
#1015=AXIS2_PLACEMENT_3D('',#1534,#1198,#1199);
#1016=AXIS2_PLACEMENT_3D('',#1536,#1200,#1201);
#1017=AXIS2_PLACEMENT_3D('',#1539,#1203,#1204);
#1018=AXIS2_PLACEMENT_3D('',#1545,#1207,#1208);
#1019=AXIS2_PLACEMENT_3D('',#1547,#1210,#1211);
#1020=AXIS2_PLACEMENT_3D('',#1548,#1212,#1213);
#1021=AXIS2_PLACEMENT_3D('',#1549,#1214,#1215);
#1022=AXIS2_PLACEMENT_3D('',#1555,#1218,#1219);
#1023=AXIS2_PLACEMENT_3D('',#1557,#1221,#1222);
#1024=AXIS2_PLACEMENT_3D('',#1570,#1223,#1224);
#1025=AXIS2_PLACEMENT_3D('',#1583,#1225,#1226);
#1026=AXIS2_PLACEMENT_3D('',#1584,#1227,#1228);
#1027=AXIS2_PLACEMENT_3D('',#1585,#1229,#1230);
#1028=AXIS2_PLACEMENT_3D('',#1586,#1231,#1232);
#1029=AXIS2_PLACEMENT_3D('',#1588,#1233,#1234);
#1030=AXIS2_PLACEMENT_3D('',#1589,#1235,#1236);
#1031=AXIS2_PLACEMENT_3D('',#1591,#1237,#1238);
#1032=AXIS2_PLACEMENT_3D('',#1594,#1240,#1241);
#1033=AXIS2_PLACEMENT_3D('',#1599,#1244,#1245);
#1034=AXIS2_PLACEMENT_3D('',#1600,#1246,#1247);
#1035=AXIS2_PLACEMENT_3D('',#1603,#1249,#1250);
#1036=AXIS2_PLACEMENT_3D('',#1606,#1252,#1253);
#1037=AXIS2_PLACEMENT_3D('',#1609,#1255,#1256);
#1038=AXIS2_PLACEMENT_3D('',#1610,#1257,#1258);
#1039=AXIS2_PLACEMENT_3D('',#1612,#1259,#1260);
#1040=AXIS2_PLACEMENT_3D('',#1614,#1261,#1262);
#1041=AXIS2_PLACEMENT_3D('',#1615,#1263,#1264);
#1042=AXIS2_PLACEMENT_3D('',#1620,#1267,#1268);
#1043=AXIS2_PLACEMENT_3D('',#1622,#1270,#1271);
#1044=AXIS2_PLACEMENT_3D('',#1624,#1273,#1274);
#1045=AXIS2_PLACEMENT_3D('',#1626,#1276,#1277);
#1046=AXIS2_PLACEMENT_3D('',#1639,#1278,#1279);
#1047=AXIS2_PLACEMENT_3D('',#1648,#1280,#1281);
#1048=AXIS2_PLACEMENT_3D('',#1655,#1282,#1283);
#1049=AXIS2_PLACEMENT_3D('',#1662,#1284,#1285);
#1050=AXIS2_PLACEMENT_3D('',#1669,#1286,#1287);
#1051=AXIS2_PLACEMENT_3D('',#1680,#1288,#1289);
#1052=AXIS2_PLACEMENT_3D('',#1687,#1290,#1291);
#1053=AXIS2_PLACEMENT_3D('',#1694,#1292,#1293);
#1054=AXIS2_PLACEMENT_3D('',#1695,#1294,#1295);
#1055=AXIS2_PLACEMENT_3D('',#1696,#1296,#1297);
#1056=AXIS2_PLACEMENT_3D('',#1697,#1298,#1299);
#1057=AXIS2_PLACEMENT_3D('',#1698,#1300,#1301);
#1058=AXIS2_PLACEMENT_3D('',#1699,#1302,#1303);
#1059=AXIS2_PLACEMENT_3D('',#1704,#1304,#1305);
#1060=AXIS2_PLACEMENT_3D('',#1705,#1306,#1307);
#1061=AXIS2_PLACEMENT_3D('',#1707,#1308,#1309);
#1062=AXIS2_PLACEMENT_3D('',#1708,#1310,#1311);
#1063=AXIS2_PLACEMENT_3D('',#1709,#1312,#1313);
#1064=AXIS2_PLACEMENT_3D('',#1710,#1314,#1315);
#1065=AXIS2_PLACEMENT_3D('',#1711,#1316,#1317);
#1066=AXIS2_PLACEMENT_3D('',#1712,#1318,#1319);
#1067=AXIS2_PLACEMENT_3D('',#1713,#1320,#1321);
#1068=DIRECTION('',(0.,0.,1.));
#1069=DIRECTION('',(1.,0.,0.));
#1070=DIRECTION('',(1.,0.,0.));
#1071=DIRECTION('',(0.,0.,-1.));
#1072=DIRECTION('',(1.,0.,0.));
#1073=DIRECTION('',(0.,1.,-6.12323399573677E-17));
#1074=DIRECTION('',(1.,0.,0.));
#1075=DIRECTION('',(0.,0.,-1.));
#1076=DIRECTION('',(0.,-1.,8.67361737988404E-16));
#1077=DIRECTION('',(0.,-9.63735264431559E-16,-1.));
#1078=DIRECTION('',(0.,8.67361737988404E-16,1.));
#1079=DIRECTION('',(1.,0.,0.));
#1080=DIRECTION('',(0.,-1.,8.67361737988404E-16));
#1081=DIRECTION('',(0.,-8.67361737988404E-16,-1.));
#1082=DIRECTION('',(1.,0.,0.));
#1083=DIRECTION('',(0.,0.,-1.));
#1084=DIRECTION('',(-1.,-2.00617702540337E-31,-2.31296463463575E-16));
#1085=DIRECTION('',(0.,-1.,8.67361737988404E-16));
#1086=DIRECTION('',(0.,-8.67361737988404E-16,-1.));
#1087=DIRECTION('',(0.,0.,-1.));
#1088=DIRECTION('',(1.,0.,0.));
#1089=DIRECTION('',(0.,1.,0.));
#1090=DIRECTION('',(1.,0.,0.));
#1091=DIRECTION('',(0.,0.,1.));
#1092=DIRECTION('',(1.,0.,0.));
#1093=DIRECTION('',(0.,0.,1.));
#1094=DIRECTION('',(1.,0.,0.));
#1095=DIRECTION('',(-1.,0.,0.));
#1096=DIRECTION('',(0.,-1.04083408558608E-15,1.));
#1097=DIRECTION('',(0.,-1.,-1.04083408558608E-15));
#1098=DIRECTION('',(0.,9.6373526443156E-16,-1.));
#1099=DIRECTION('',(1.,-4.81482486096809E-31,4.62592926927148E-16));
#1100=DIRECTION('',(0.,0.,-1.));
#1101=DIRECTION('',(1.,0.,0.));
#1102=DIRECTION('',(0.,-1.,-1.04083408558608E-15));
#1103=DIRECTION('',(0.,1.04083408558608E-15,-1.));
#1104=DIRECTION('',(0.,-1.,-1.04083408558608E-15));
#1105=DIRECTION('',(0.,1.04083408558608E-15,-1.));
#1106=DIRECTION('',(0.,0.,1.));
#1107=DIRECTION('',(-1.,0.,0.));
#1108=DIRECTION('',(1.,0.,0.));
#1109=DIRECTION('',(0.,-1.,0.));
#1110=DIRECTION('',(0.,0.,-1.));
#1111=DIRECTION('',(-1.,0.,0.));
#1112=DIRECTION('',(0.,0.,-1.));
#1113=DIRECTION('',(-1.,0.,0.));
#1114=DIRECTION('',(-4.62592926927148E-16,0.,1.));
#1115=DIRECTION('',(-1.,0.,-8.67361737988404E-16));
#1116=DIRECTION('',(-1.,-4.81482486096809E-31,-4.62592926927148E-16));
#1117=DIRECTION('',(4.62592926927148E-16,0.,-1.));
#1118=DIRECTION('',(-1.,0.,-3.85494105772624E-16));
#1119=DIRECTION('',(0.,1.,0.));
#1120=DIRECTION('',(4.62592926927148E-16,0.,-1.));
#1121=DIRECTION('',(-1.,0.,-4.61436444609831E-16));
#1122=DIRECTION('',(2.31296463463575E-16,0.,-1.));
#1123=DIRECTION('',(1.,0.,0.));
#1124=DIRECTION('',(-2.31296463463575E-16,0.,1.));
#1125=DIRECTION('',(1.,0.,3.85494105772624E-16));
#1126=DIRECTION('',(1.,-2.00617702540337E-31,2.31296463463575E-16));
#1127=DIRECTION('',(0.,1.,0.));
#1128=DIRECTION('',(-2.31296463463575E-16,0.,1.));
#1129=DIRECTION('',(1.,0.,2.32452945780892E-16));
#1130=DIRECTION('',(0.,1.,-3.30423519233678E-16));
#1131=DIRECTION('',(0.,0.,-1.));
#1132=DIRECTION('',(0.,-3.30423519233678E-16,-1.));
#1133=DIRECTION('',(1.,0.,0.));
#1134=DIRECTION('',(0.,-3.30423519233678E-16,-1.));
#1135=DIRECTION('',(-1.,0.,0.));
#1136=DIRECTION('',(0.,-1.,3.30423519233678E-16));
#1137=DIRECTION('',(0.,-3.29597460435593E-16,-1.));
#1138=DIRECTION('',(0.,0.,1.));
#1139=DIRECTION('',(-1.,0.,0.));
#1140=DIRECTION('',(-0.875235784734314,0.48369651758154,0.));
#1141=DIRECTION('',(0.,0.,-1.));
#1142=DIRECTION('',(-1.,0.,0.));
#1143=DIRECTION('',(0.,1.,0.));
#1144=DIRECTION('',(-1.,0.,0.));
#1145=DIRECTION('',(0.,0.,1.));
#1146=DIRECTION('',(-1.,0.,0.));
#1147=DIRECTION('',(0.875235784734314,-0.48369651758154,0.));
#1148=DIRECTION('',(0.,0.,1.));
#1149=DIRECTION('',(1.,0.,0.));
#1150=DIRECTION('',(0.,0.,-1.));
#1151=DIRECTION('',(-1.,0.,0.));
#1152=DIRECTION('',(0.,-3.30423519233678E-16,1.));
#1153=DIRECTION('',(-1.,0.,0.));
#1154=DIRECTION('',(0.,-3.30423519233678E-16,1.));
#1155=DIRECTION('',(1.,0.,0.));
#1156=DIRECTION('',(0.,1.,3.30423519233678E-16));
#1157=DIRECTION('',(0.,-3.29597460435593E-16,1.));
#1158=DIRECTION('',(1.,0.,0.));
#1159=DIRECTION('',(0.,0.,-1.));
#1160=DIRECTION('',(0.,1.04083408558608E-15,1.));
#1161=DIRECTION('',(0.,1.,0.));
#1162=DIRECTION('',(0.,1.04083408558608E-15,-1.));
#1163=DIRECTION('',(1.,0.,0.));
#1164=DIRECTION('',(0.,0.,-1.));
#1165=DIRECTION('',(-1.,0.,0.));
#1166=DIRECTION('',(0.,0.,-1.));
#1167=DIRECTION('',(-1.,0.,0.));
#1168=DIRECTION('',(0.,0.,-1.));
#1169=DIRECTION('',(1.,0.,0.));
#1170=DIRECTION('',(0.,0.,-1.));
#1171=DIRECTION('',(0.,-8.67361737988404E-16,-1.));
#1172=DIRECTION('',(0.,1.,0.));
#1173=DIRECTION('',(0.,-8.67361737988404E-16,1.));
#1174=DIRECTION('',(1.,0.,0.));
#1175=DIRECTION('',(0.,0.,-1.));
#1176=DIRECTION('',(-1.,0.,0.));
#1177=DIRECTION('',(0.,0.,-1.));
#1178=DIRECTION('',(1.,0.,0.));
#1179=DIRECTION('',(0.,0.,-1.));
#1180=DIRECTION('',(0.,-1.,0.));
#1181=DIRECTION('',(0.,0.,-1.));
#1182=DIRECTION('',(1.,0.,0.));
#1183=DIRECTION('',(0.,0.,-1.));
#1184=DIRECTION('',(-1.,0.,0.));
#1185=DIRECTION('',(0.,0.,-1.));
#1186=DIRECTION('',(0.,0.,1.));
#1187=DIRECTION('',(-1.,0.,0.));
#1188=DIRECTION('',(0.,0.,-1.));
#1189=DIRECTION('',(1.,0.,0.));
#1190=DIRECTION('',(0.,0.,-1.));
#1191=DIRECTION('',(-1.,0.,0.));
#1192=DIRECTION('',(0.,0.,-1.));
#1193=DIRECTION('',(0.,-1.,0.));
#1194=DIRECTION('',(-1.,0.,0.));
#1195=DIRECTION('',(0.,0.,-1.));
#1196=DIRECTION('',(1.,0.,0.));
#1197=DIRECTION('',(0.,0.,-1.));
#1198=DIRECTION('',(1.,0.,0.));
#1199=DIRECTION('',(0.,0.,-1.));
#1200=DIRECTION('',(-1.,0.,0.));
#1201=DIRECTION('',(0.,0.,-1.));
#1202=DIRECTION('',(0.,1.,0.));
#1203=DIRECTION('',(1.,0.,0.));
#1204=DIRECTION('',(0.,0.,-1.));
#1205=DIRECTION('',(-1.,0.,0.));
#1206=DIRECTION('',(0.,8.67361737988404E-16,-1.));
#1207=DIRECTION('',(0.,1.,8.67361737988404E-16));
#1208=DIRECTION('',(0.,-9.63735264431559E-16,1.));
#1209=DIRECTION('',(0.,0.,-1.));
#1210=DIRECTION('',(0.,1.,8.67361737988404E-16));
#1211=DIRECTION('',(0.,-8.67361737988404E-16,1.));
#1212=DIRECTION('',(0.,1.,8.67361737988404E-16));
#1213=DIRECTION('',(0.,-8.67361737988404E-16,1.));
#1214=DIRECTION('',(0.,1.,-1.04083408558608E-15));
#1215=DIRECTION('',(0.,9.6373526443156E-16,1.));
#1216=DIRECTION('',(0.,-1.04083408558608E-15,-1.));
#1217=DIRECTION('',(1.,0.,0.));
#1218=DIRECTION('',(0.,1.,-1.04083408558608E-15));
#1219=DIRECTION('',(0.,1.04083408558608E-15,1.));
#1220=DIRECTION('',(0.,0.,-1.));
#1221=DIRECTION('',(0.,1.,-1.04083408558608E-15));
#1222=DIRECTION('',(0.,1.04083408558608E-15,1.));
#1223=DIRECTION('',(0.,-1.,0.));
#1224=DIRECTION('',(0.,0.,-1.));
#1225=DIRECTION('',(0.,-1.,0.));
#1226=DIRECTION('',(0.,0.,-1.));
#1227=DIRECTION('',(0.,0.,-1.));
#1228=DIRECTION('',(-1.,0.,0.));
#1229=DIRECTION('',(0.,0.,-1.));
#1230=DIRECTION('',(-1.,0.,0.));
#1231=DIRECTION('',(0.,0.,1.));
#1232=DIRECTION('',(1.,0.,0.));
#1233=DIRECTION('',(0.,0.,-1.));
#1234=DIRECTION('',(-1.,0.,0.));
#1235=DIRECTION('',(0.,0.,-1.));
#1236=DIRECTION('',(-1.,0.,0.));
#1237=DIRECTION('',(0.,0.,-1.));
#1238=DIRECTION('',(-1.,0.,0.));
#1239=DIRECTION('',(0.,0.,1.));
#1240=DIRECTION('',(0.48369651758154,0.875235784734314,0.));
#1241=DIRECTION('',(0.875235784734314,-0.48369651758154,0.));
#1242=DIRECTION('',(0.875235784734314,-0.48369651758154,0.));
#1243=DIRECTION('',(0.,0.,1.));
#1244=DIRECTION('',(-0.48369651758154,-0.875235784734314,0.));
#1245=DIRECTION('',(0.875235784734314,-0.48369651758154,0.));
#1246=DIRECTION('',(0.,0.,1.));
#1247=DIRECTION('',(1.,0.,0.));
#1248=DIRECTION('',(0.,0.,1.));
#1249=DIRECTION('',(0.,0.,1.));
#1250=DIRECTION('',(1.,0.,0.));
#1251=DIRECTION('',(-0.875235784734314,0.48369651758154,0.));
#1252=DIRECTION('',(-0.483696517581541,-0.875235784734314,0.));
#1253=DIRECTION('',(-0.875235784734314,0.48369651758154,0.));
#1254=DIRECTION('',(0.,0.,-1.));
#1255=DIRECTION('',(0.48369651758154,0.875235784734314,0.));
#1256=DIRECTION('',(-0.875235784734314,0.48369651758154,0.));
#1257=DIRECTION('',(0.,0.,-1.));
#1258=DIRECTION('',(-1.,0.,0.));
#1259=DIRECTION('',(0.,0.,1.));
#1260=DIRECTION('',(1.,0.,0.));
#1261=DIRECTION('',(0.,0.,1.));
#1262=DIRECTION('',(1.,0.,0.));
#1263=DIRECTION('',(0.,0.,-1.));
#1264=DIRECTION('',(1.,0.,0.));
#1265=DIRECTION('',(0.,1.,0.));
#1266=DIRECTION('',(1.,0.,0.));
#1267=DIRECTION('',(0.,0.,1.));
#1268=DIRECTION('',(1.,0.,0.));
#1269=DIRECTION('',(1.,0.,0.));
#1270=DIRECTION('',(1.,0.,0.));
#1271=DIRECTION('',(0.,0.,-1.));
#1272=DIRECTION('',(1.,0.,0.));
#1273=DIRECTION('',(1.,0.,0.));
#1274=DIRECTION('',(0.,0.,-1.));
#1275=DIRECTION('',(-1.,0.,0.));
#1276=DIRECTION('',(1.,0.,0.));
#1277=DIRECTION('',(0.,0.,-1.));
#1278=DIRECTION('',(0.,1.,0.));
#1279=DIRECTION('',(0.,0.,1.));
#1280=DIRECTION('',(0.,-1.,0.));
#1281=DIRECTION('',(0.,0.,-1.));
#1282=DIRECTION('',(1.,0.,0.));
#1283=DIRECTION('',(0.,0.,-1.));
#1284=DIRECTION('',(1.,0.,0.));
#1285=DIRECTION('',(0.,0.,-1.));
#1286=DIRECTION('',(1.,0.,0.));
#1287=DIRECTION('',(0.,0.,-1.));
#1288=DIRECTION('',(-1.,0.,0.));
#1289=DIRECTION('',(0.,0.,1.));
#1290=DIRECTION('',(0.,0.,1.));
#1291=DIRECTION('',(1.,0.,0.));
#1292=DIRECTION('',(-1.,0.,0.));
#1293=DIRECTION('',(0.,0.,1.));
#1294=DIRECTION('',(1.,0.,0.));
#1295=DIRECTION('',(0.,0.,-1.));
#1296=DIRECTION('',(0.,0.,-1.));
#1297=DIRECTION('',(-1.,0.,-2.07131161310664E-17));
#1298=DIRECTION('',(0.,0.,-1.));
#1299=DIRECTION('',(-1.,0.,-2.76174881747552E-17));
#1300=DIRECTION('',(0.,0.,1.));
#1301=DIRECTION('',(1.,0.,-1.03668733624112E-17));
#1302=DIRECTION('',(0.,0.,1.));
#1303=DIRECTION('',(1.,0.,2.76174881747552E-17));
#1304=DIRECTION('',(0.,-1.,0.));
#1305=DIRECTION('',(0.,0.,-1.));
#1306=DIRECTION('',(0.,-1.,0.));
#1307=DIRECTION('',(0.,0.,-1.));
#1308=DIRECTION('',(0.,1.,0.));
#1309=DIRECTION('',(0.,0.,1.));
#1310=DIRECTION('',(0.,-1.,0.));
#1311=DIRECTION('',(0.,-1.03617899962134E-17,-1.));
#1312=DIRECTION('',(0.,-1.04083408558608E-15,-1.));
#1313=DIRECTION('',(0.,1.,-1.73472347597681E-15));
#1314=DIRECTION('',(0.,0.,-1.));
#1315=DIRECTION('',(-1.,0.,0.));
#1316=DIRECTION('',(0.,1.04083408558608E-15,-1.));
#1317=DIRECTION('',(0.,1.,1.04083408558608E-15));
#1318=DIRECTION('',(0.,8.67361737988404E-16,-1.));
#1319=DIRECTION('',(0.,1.,8.67361737988404E-16));
#1320=DIRECTION('',(0.,-8.67361737988404E-16,-1.));
#1321=DIRECTION('',(0.,1.,-8.67361737988404E-16));
#1322=CARTESIAN_POINT('',(0.,0.,0.));
#1323=CARTESIAN_POINT('',(-1.,0.,0.));
#1324=CARTESIAN_POINT('',(-1.,0.,-8.));
#1325=CARTESIAN_POINT('',(-15.,0.,0.));
#1326=CARTESIAN_POINT('',(-15.,8.,-4.89858719658941E-16));
#1327=CARTESIAN_POINT('',(-7.5,-7.197367192071,3.49255));
#1328=CARTESIAN_POINT('',(-7.13038804695754,-7.197367192071,3.49255));
#1329=CARTESIAN_POINT('',(-6.75574646520275,-7.22758019925938,3.43189271085949));
#1330=CARTESIAN_POINT('',(-6.40816930793399,-7.27971076057541,3.31750075242835));
#1331=CARTESIAN_POINT('',(-6.06144851042133,-7.33171288274104,3.20339063262662));
#1332=CARTESIAN_POINT('',(-5.73211084373931,-7.40603685346963,3.0334833021649));
#1333=CARTESIAN_POINT('',(-5.44135694073011,-7.48599397160992,2.82132845606815));
#1334=CARTESIAN_POINT('',(-5.13253279762756,-7.57092039302358,2.59598827018315));
#1335=CARTESIAN_POINT('',(-4.85876080930148,-7.6639769742853,2.31701009322756));
#1336=CARTESIAN_POINT('',(-4.63902411846855,-7.74514541452933,2.00317810186597));
#1337=CARTESIAN_POINT('',(-4.40883485026859,-7.83017492776119,1.67441754687887));
#1338=CARTESIAN_POINT('',(-4.23166702313479,-7.90411155330937,1.29699758846637));
#1339=CARTESIAN_POINT('',(-4.12622306558379,-7.94886566125626,0.903069598259827));
#1340=CARTESIAN_POINT('',(-4.02678754821098,-7.99106957679219,0.531588534540493));
#1341=CARTESIAN_POINT('',(-3.9886771465894,-8.0081742695498,0.134302237993548));
#1342=CARTESIAN_POINT('',(-4.01650789746532,-7.99604975759415,-0.251372779111958));
#1343=CARTESIAN_POINT('',(-4.04249491810495,-7.9847284697194,-0.611497616361206));
#1344=CARTESIAN_POINT('',(-4.12624674315154,-7.94792809530837,-0.971184239666135));
#1345=CARTESIAN_POINT('',(-4.25941415521851,-7.89325605278951,-1.30250101155501));
#1346=CARTESIAN_POINT('',(-4.3946999237235,-7.83771431646604,-1.63908819461926));
#1347=CARTESIAN_POINT('',(-4.58392807958533,-7.76270838931564,-1.95517398451958));
#1348=CARTESIAN_POINT('',(-4.81268823377163,-7.68269087145965,-2.23075345423705));
#1349=CARTESIAN_POINT('',(-5.05894306898006,-7.59655392709754,-2.52740816293617));
#1350=CARTESIAN_POINT('',(-5.35755008272444,-7.50262599707427,-2.78520466090457));
#1351=CARTESIAN_POINT('',(-5.68816039433263,-7.42191735700182,-2.98582362939191));
#1352=CARTESIAN_POINT('',(-6.0313252604226,-7.3381438971601,-3.19406087741114));
#1353=CARTESIAN_POINT('',(-6.42015060526838,-7.2669916122357,-3.3464245351226));
#1354=CARTESIAN_POINT('',(-6.82067352319008,-7.22935536265821,-3.42584603279321));
#1355=CARTESIAN_POINT('',(-7.19327359815684,-7.19434296065433,-3.49973058386859));
#1356=CARTESIAN_POINT('',(-7.58707489255656,-7.18803892264486,-3.51215729591155));
#1357=CARTESIAN_POINT('',(-7.96438535671665,-7.21233306614668,-3.46153892697557));
#1358=CARTESIAN_POINT('',(-8.31433543817275,-7.23486553822189,-3.41459111074748));
#1359=CARTESIAN_POINT('',(-8.65932936516713,-7.28358381083285,-3.31285764209237));
#1360=CARTESIAN_POINT('',(-8.97485746702396,-7.34692446167349,-3.16586496150163));
#1361=CARTESIAN_POINT('',(-9.30452513629624,-7.41310355827357,-3.01228518801944));
#1362=CARTESIAN_POINT('',(-9.61065859855873,-7.49626854409489,-2.80585484916876));
#1363=CARTESIAN_POINT('',(-9.87482459187114,-7.57904257407596,-2.56088142254656));
#1364=CARTESIAN_POINT('',(-10.1629588041771,-7.66932682917226,-2.29368115035935));
#1365=CARTESIAN_POINT('',(-10.4090721563254,-7.76119654691549,-1.97293852023163));
#1366=CARTESIAN_POINT('',(-10.5932196841658,-7.83390723151676,-1.62169586790783));
#1367=CARTESIAN_POINT('',(-10.77842072841,-7.90703389726022,-1.26844374035358));
#1368=CARTESIAN_POINT('',(-10.9058061976586,-7.96236017616819,-0.873076011955122));
#1369=CARTESIAN_POINT('',(-10.9605118095547,-7.98606514383443,-0.471978302925832));
#1370=CARTESIAN_POINT('',(-11.0110859184012,-8.0079798537409,-0.101172484445623));
#1371=CARTESIAN_POINT('',(-11.0008934293308,-8.00339813002023,0.28510341337766));
#1372=CARTESIAN_POINT('',(-10.9311125860874,-7.97336993221232,0.652205430897777));
#1373=CARTESIAN_POINT('',(-10.8642009901278,-7.94457643322707,1.00421295517761));
#1374=CARTESIAN_POINT('',(-10.7412932854597,-7.89203718791161,1.34788510259678));
#1375=CARTESIAN_POINT('',(-10.5734531852893,-7.82612349632084,1.65885232023071));
#1376=CARTESIAN_POINT('',(-10.3978453231517,-7.75715927112016,1.98421132697677));
#1377=CARTESIAN_POINT('',(-10.1689566718061,-7.67214212229567,2.28230860032283));
#1378=CARTESIAN_POINT('',(-9.90295784274508,-7.58790490791168,2.53450174758076));
#1379=CARTESIAN_POINT('',(-9.61681847265155,-7.49728953359834,2.80579011585302));
#1380=CARTESIAN_POINT('',(-9.27944262551933,-7.40545528608061,3.03154003157822));
#1381=CARTESIAN_POINT('',(-8.91518817223312,-7.3351790748644,3.19298417466662));
#1382=CARTESIAN_POINT('',(-8.55138887613491,-7.26499067787363,3.35422658388046));
#1383=CARTESIAN_POINT('',(-8.1488325206972,-7.21533023874923,3.45543166166404));
#1384=CARTESIAN_POINT('',(-7.74599628746656,-7.20156987544711,3.48387590609262));
#1385=CARTESIAN_POINT('',(-7.66418589275918,-7.19877533846111,3.48965253359505));
#1386=CARTESIAN_POINT('',(-7.58206168134059,-7.197367192071,3.49255));
#1387=CARTESIAN_POINT('',(-7.5,-7.197367192071,3.49255));
#1388=CARTESIAN_POINT('',(-7.5,-7.197367192071,3.49255));
#1389=CARTESIAN_POINT('',(-15.,0.,0.));
#1390=CARTESIAN_POINT('',(-24.,-9.00000000000001,14.));
#1391=CARTESIAN_POINT('',(-19.,-9.,21.4833147735479));
#1392=CARTESIAN_POINT('',(-24.,-9.,23.));
#1393=CARTESIAN_POINT('',(-19.,-8.99999999999999,32.));
#1394=CARTESIAN_POINT('',(-19.,-9.,25.9582607431014));
#1395=CARTESIAN_POINT('',(0.,-9.,25.9582607431014));
#1396=CARTESIAN_POINT('',(-0.816745027517614,-9.,25.9582607431014));
#1397=CARTESIAN_POINT('',(-10.,-9.,22.));
#1398=CARTESIAN_POINT('',(-10.,-8.99999999999999,32.));
#1399=CARTESIAN_POINT('',(-39.,-8.99999999999999,32.));
#1400=CARTESIAN_POINT('',(-30.,-9.,32.));
#1401=CARTESIAN_POINT('',(-30.,-9.,40.));
#1402=CARTESIAN_POINT('',(-30.,-9.,23.));
#1403=CARTESIAN_POINT('',(-39.,-9.,23.));
#1404=CARTESIAN_POINT('',(-39.,-8.99999999999999,32.));
#1405=CARTESIAN_POINT('',(-30.,0.,32.));
#1406=CARTESIAN_POINT('',(-25.,0.,32.));
#1407=CARTESIAN_POINT('',(-10.,8.99999999999999,32.));
#1408=CARTESIAN_POINT('',(-10.,8.99999999999999,32.));
#1409=CARTESIAN_POINT('',(-39.,8.99999999999999,32.));
#1410=CARTESIAN_POINT('',(-29.9999999999723,9.,32.));
#1411=CARTESIAN_POINT('',(-30.,0.,32.));
#1412=CARTESIAN_POINT('',(-39.,8.99999999999999,32.));
#1413=CARTESIAN_POINT('',(-15.,-8.99999999999999,-27.9582607431014));
#1414=CARTESIAN_POINT('',(-1.96886502932388,-8.99999999999999,-27.9582607431014));
#1415=CARTESIAN_POINT('',(-19.,-8.99999999999999,-27.9582607431014));
#1416=CARTESIAN_POINT('',(-19.,-9.,-22.));
#1417=CARTESIAN_POINT('',(-19.,-9.,-21.4833147735479));
#1418=CARTESIAN_POINT('',(-24.,-9.00000000000001,-14.));
#1419=CARTESIAN_POINT('',(-24.,-9.,-23.));
#1420=CARTESIAN_POINT('',(-39.,-9.,-23.));
#1421=CARTESIAN_POINT('',(-30.,-9.,-23.));
#1422=CARTESIAN_POINT('',(-30.,-9.,40.));
#1423=CARTESIAN_POINT('',(-30.,-9.,-32.));
#1424=CARTESIAN_POINT('',(-39.,-8.99999999999999,-32.));
#1425=CARTESIAN_POINT('',(-10.,-8.99999999999999,-32.));
#1426=CARTESIAN_POINT('',(-10.,-9.,-22.));
#1427=CARTESIAN_POINT('',(-39.,-9.,-22.));
#1428=CARTESIAN_POINT('',(-30.,0.,-32.));
#1429=CARTESIAN_POINT('',(-35.,0.,-32.));
#1430=CARTESIAN_POINT('',(-39.,8.99999999999999,-32.));
#1431=CARTESIAN_POINT('',(-29.9999999999723,9.,-32.));
#1432=CARTESIAN_POINT('',(-10.,8.99999999999999,-32.));
#1433=CARTESIAN_POINT('',(-10.,-8.99999999999999,-32.));
#1434=CARTESIAN_POINT('',(-30.,0.,-32.));
#1435=CARTESIAN_POINT('',(-39.,-8.99999999999999,-32.));
#1436=CARTESIAN_POINT('',(-30.,0.,-23.));
#1437=CARTESIAN_POINT('',(-34.,0.,-23.));
#1438=CARTESIAN_POINT('',(-39.,9.,-23.));
#1439=CARTESIAN_POINT('',(-24.,9.00000000000002,-23.));
#1440=CARTESIAN_POINT('',(-29.9999999999723,9.,-23.));
#1441=CARTESIAN_POINT('',(-30.,0.,-23.));
#1442=CARTESIAN_POINT('',(-24.,10.,-23.));
#1443=CARTESIAN_POINT('',(-39.,10.,-23.));
#1444=CARTESIAN_POINT('',(-30.,0.,23.));
#1445=CARTESIAN_POINT('',(-26.,0.,23.));
#1446=CARTESIAN_POINT('',(-30.,0.,23.));
#1447=CARTESIAN_POINT('',(-29.9999999999723,9.,23.));
#1448=CARTESIAN_POINT('',(-39.,9.,23.));
#1449=CARTESIAN_POINT('',(-24.,9.,23.));
#1450=CARTESIAN_POINT('',(-24.,10.,23.));
#1451=CARTESIAN_POINT('',(-24.,10.,23.));
#1452=CARTESIAN_POINT('',(-7.5,-20.,0.));
#1453=CARTESIAN_POINT('',(-7.5,-20.,-4.49255));
#1454=CARTESIAN_POINT('',(-15.,-20.,20.));
#1455=CARTESIAN_POINT('',(-15.,-20.,14.));
#1456=CARTESIAN_POINT('',(-15.,-20.,-16.));
#1457=CARTESIAN_POINT('',(-15.,-20.,-16.));
#1458=CARTESIAN_POINT('',(0.,-20.,-16.));
#1459=CARTESIAN_POINT('',(0.,-20.,20.));
#1460=CARTESIAN_POINT('',(0.,-20.,14.));
#1461=CARTESIAN_POINT('',(-15.,-20.,14.));
#1462=CARTESIAN_POINT('',(-15.,-20.,20.));
#1463=CARTESIAN_POINT('',(-45.,41.3,-22.));
#1464=CARTESIAN_POINT('',(-50.,41.3,-22.));
#1465=CARTESIAN_POINT('',(0.,25.,-22.));
#1466=CARTESIAN_POINT('',(-3.09782089451076,26.7120017313061,-22.));
#1467=CARTESIAN_POINT('',(-41.3722761181384,47.8642683855074,-22.));
#1468=CARTESIAN_POINT('',(-6.,21.4605870229002,-22.));
#1469=CARTESIAN_POINT('',(0.,21.4605870229002,-22.));
#1470=CARTESIAN_POINT('',(0.,9.,-22.));
#1471=CARTESIAN_POINT('',(0.,15.,-22.));
#1472=CARTESIAN_POINT('',(-15.,15.,-22.));
#1473=CARTESIAN_POINT('',(-15.1868130000448,15.,-22.));
#1474=CARTESIAN_POINT('',(-19.,13.7918589058507,-22.));
#1475=CARTESIAN_POINT('',(-17.0652139296738,17.2928020447879,-22.));
#1476=CARTESIAN_POINT('',(-48.6277238818615,34.7357316144926,-22.));
#1477=CARTESIAN_POINT('',(-48.6277238818616,34.7357316144926,-22.));
#1478=CARTESIAN_POINT('',(-45.,41.3,-22.));
#1479=CARTESIAN_POINT('',(-15.,9.,-22.));
#1480=CARTESIAN_POINT('',(0.,20.,-22.));
#1481=CARTESIAN_POINT('',(0.,20.,-4.));
#1482=CARTESIAN_POINT('',(0.,20.,14.));
#1483=CARTESIAN_POINT('',(-15.,20.,-4.));
#1484=CARTESIAN_POINT('',(-15.,20.,-4.));
#1485=CARTESIAN_POINT('',(-15.,20.,-22.));
#1486=CARTESIAN_POINT('',(-15.,20.,14.));
#1487=CARTESIAN_POINT('',(-15.,20.,14.));
#1488=CARTESIAN_POINT('',(-15.,20.,-22.));
#1489=CARTESIAN_POINT('',(-15.,15.,-28.));
#1490=CARTESIAN_POINT('',(-15.,13.7918589058507,-22.122892284752));
#1491=CARTESIAN_POINT('',(-15.,13.,-22.3431457505076));
#1492=CARTESIAN_POINT('',(-15.,13.,-1.35308431126191E-14));
#1493=CARTESIAN_POINT('',(-15.,13.,-14.));
#1494=CARTESIAN_POINT('',(-15.,-9.,-14.));
#1495=CARTESIAN_POINT('',(-15.,-13.,-14.));
#1496=CARTESIAN_POINT('',(-15.,-13.,-1.35308431126191E-14));
#1497=CARTESIAN_POINT('',(-15.,-13.,-22.301406493609));
#1498=CARTESIAN_POINT('',(-15.,-15.,-27.9582607431014));
#1499=CARTESIAN_POINT('',(-15.,-14.5,-21.9791303715507));
#1500=CARTESIAN_POINT('',(-15.,-14.,-16.));
#1501=CARTESIAN_POINT('',(-15.,-14.,14.));
#1502=CARTESIAN_POINT('',(-15.,-14.5,19.9791303715507));
#1503=CARTESIAN_POINT('',(-15.,-15.,25.9582607431014));
#1504=CARTESIAN_POINT('',(-15.,-13.,20.301406493609));
#1505=CARTESIAN_POINT('',(-15.,-13.,1.12757025938493E-14));
#1506=CARTESIAN_POINT('',(-15.,-13.,14.));
#1507=CARTESIAN_POINT('',(-15.,-9.,14.));
#1508=CARTESIAN_POINT('',(-15.,13.,14.));
#1509=CARTESIAN_POINT('',(-15.,13.,1.12757025938493E-14));
#1510=CARTESIAN_POINT('',(-15.,13.,20.301406493609));
#1511=CARTESIAN_POINT('',(-15.,15.,25.9582607431014));
#1512=CARTESIAN_POINT('',(-15.,14.5,19.9791303715507));
#1513=CARTESIAN_POINT('',(-15.,14.,14.));
#1514=CARTESIAN_POINT('',(-15.,29.,-4.));
#1515=CARTESIAN_POINT('',(-15.,20.5147186257614,-7.));
#1516=CARTESIAN_POINT('',(-15.,0.,-7.));
#1517=CARTESIAN_POINT('',(-15.,13.7918589058507,-7.));
#1518=CARTESIAN_POINT('',(-15.,13.7918589058507,0.));
#1519=CARTESIAN_POINT('',(-15.,0.,0.));
#1520=CARTESIAN_POINT('',(0.,0.,0.));
#1521=CARTESIAN_POINT('',(0.,0.,-9.));
#1522=CARTESIAN_POINT('',(0.,21.4605870229002,0.));
#1523=CARTESIAN_POINT('',(0.,21.4605870229002,-8.91500274269903));
#1524=CARTESIAN_POINT('',(0.,29.,-4.));
#1525=CARTESIAN_POINT('',(0.,14.,14.));
#1526=CARTESIAN_POINT('',(0.,14.5,19.9791303715507));
#1527=CARTESIAN_POINT('',(0.,15.,25.9582607431014));
#1528=CARTESIAN_POINT('',(0.,10.4908790336006,22.));
#1529=CARTESIAN_POINT('',(0.,0.,22.));
#1530=CARTESIAN_POINT('',(0.,-10.4908790336006,22.));
#1531=CARTESIAN_POINT('',(0.,-15.,25.9582607431014));
#1532=CARTESIAN_POINT('',(0.,-14.5,19.9791303715507));
#1533=CARTESIAN_POINT('',(0.,-14.,14.));
#1534=CARTESIAN_POINT('',(0.,-14.,-16.));
#1535=CARTESIAN_POINT('',(0.,-14.5,-21.9791303715507));
#1536=CARTESIAN_POINT('',(0.,-15.,-27.9582607431014));
#1537=CARTESIAN_POINT('',(0.,-14.2935094358449,-22.));
#1538=CARTESIAN_POINT('',(0.,0.,-22.));
#1539=CARTESIAN_POINT('',(0.,0.,0.));
#1540=CARTESIAN_POINT('',(-15.,9.,25.9582607431014));
#1541=CARTESIAN_POINT('',(-0.816745027517619,9.,25.9582607431014));
#1542=CARTESIAN_POINT('',(-19.,9.,25.9582607431014));
#1543=CARTESIAN_POINT('',(-19.,9.,20.));
#1544=CARTESIAN_POINT('',(-19.,9.,21.4833147735479));
#1545=CARTESIAN_POINT('',(-24.,9.00000000000001,14.));
#1546=CARTESIAN_POINT('',(-29.9999999999723,9.,40.));
#1547=CARTESIAN_POINT('',(-10.,9.,22.));
#1548=CARTESIAN_POINT('',(-39.,9.,20.));
#1549=CARTESIAN_POINT('',(-24.,9.00000000000001,-14.));
#1550=CARTESIAN_POINT('',(-19.,9.,-21.4833147735479));
#1551=CARTESIAN_POINT('',(-19.,8.99999999999999,-32.));
#1552=CARTESIAN_POINT('',(-19.,8.99999999999999,-28.));
#1553=CARTESIAN_POINT('',(0.,8.99999999999999,-28.));
#1554=CARTESIAN_POINT('',(-1.99999999999999,8.99999999999999,-28.));
#1555=CARTESIAN_POINT('',(-10.,9.,-22.));
#1556=CARTESIAN_POINT('',(-29.9999999999723,9.,40.));
#1557=CARTESIAN_POINT('',(-39.,8.99999999999999,-32.));
#1558=CARTESIAN_POINT('',(-19.,-9.,-21.4833147735479));
#1559=CARTESIAN_POINT('',(-17.6177796656052,-9.,-20.5597799656304));
#1560=CARTESIAN_POINT('',(-16.599786137295,-9.64574125825513,-19.3249938189032));
#1561=CARTESIAN_POINT('',(-15.2985206873715,-11.1803491567127,-16.7208421778976));
#1562=CARTESIAN_POINT('',(-15.,-12.0941792300815,-15.3587318080839));
#1563=CARTESIAN_POINT('',(-15.,-13.,-14.));
#1564=CARTESIAN_POINT('',(-15.,13.,-14.));
#1565=CARTESIAN_POINT('',(-15.,12.0941792300832,-15.3587318080851));
#1566=CARTESIAN_POINT('',(-15.2985206873715,11.1803491567127,-16.7208421778976));
#1567=CARTESIAN_POINT('',(-16.599786137295,9.64574125825513,-19.3249938189032));
#1568=CARTESIAN_POINT('',(-17.6177796656052,9.,-20.5597799656304));
#1569=CARTESIAN_POINT('',(-19.,9.,-21.4833147735479));
#1570=CARTESIAN_POINT('',(-24.,10.,-14.));
#1571=CARTESIAN_POINT('',(-15.,-13.,14.));
#1572=CARTESIAN_POINT('',(-15.,-12.0941792299715,15.3587318080106));
#1573=CARTESIAN_POINT('',(-15.2985206873715,-11.1803491567127,16.7208421778976));
#1574=CARTESIAN_POINT('',(-16.599786137295,-9.64574125825513,19.3249938189032));
#1575=CARTESIAN_POINT('',(-17.6177796656052,-9.,20.5597799656304));
#1576=CARTESIAN_POINT('',(-19.,-9.,21.4833147735479));
#1577=CARTESIAN_POINT('',(-19.,9.,21.4833147735479));
#1578=CARTESIAN_POINT('',(-17.6177796656052,9.,20.5597799656304));
#1579=CARTESIAN_POINT('',(-16.599786137295,9.64574125825513,19.3249938189032));
#1580=CARTESIAN_POINT('',(-15.2985206873715,11.1803491567127,16.7208421778976));
#1581=CARTESIAN_POINT('',(-15.,12.0941792299764,15.3587318080138));
#1582=CARTESIAN_POINT('',(-15.,13.,14.));
#1583=CARTESIAN_POINT('',(-24.,10.,14.));
#1584=CARTESIAN_POINT('',(-30.,0.,40.));
#1585=CARTESIAN_POINT('',(-30.,0.,40.));
#1586=CARTESIAN_POINT('',(-30.,0.,31.));
#1587=CARTESIAN_POINT('',(-26.,0.,31.));
#1588=CARTESIAN_POINT('',(-30.,0.,40.));
#1589=CARTESIAN_POINT('',(-30.,0.,-31.));
#1590=CARTESIAN_POINT('',(-34.,0.,-31.));
#1591=CARTESIAN_POINT('',(-30.,0.,40.));
#1592=CARTESIAN_POINT('',(-17.0652139296738,17.2928020447879,-22.));
#1593=CARTESIAN_POINT('',(-17.0652139296738,17.2928020447879,-11.5296201364758));
#1594=CARTESIAN_POINT('',(-21.,19.4673501526705,-7.));
#1595=CARTESIAN_POINT('',(-21.,19.4673501526705,-13.));
#1596=CARTESIAN_POINT('',(-48.6277238818615,34.7357316144926,-13.));
#1597=CARTESIAN_POINT('',(-48.6277238818616,34.7357316144926,-13.));
#1598=CARTESIAN_POINT('',(-48.6277238818616,34.7357316144926,-22.));
#1599=CARTESIAN_POINT('',(-48.6277238818615,34.7357316144926,-22.));
#1600=CARTESIAN_POINT('',(-45.,41.3,-13.));
#1601=CARTESIAN_POINT('',(-41.3722761181384,47.8642683855074,-13.));
#1602=CARTESIAN_POINT('',(-41.3722761181384,47.8642683855074,-22.));
#1603=CARTESIAN_POINT('',(-45.,41.3,-22.));
#1604=CARTESIAN_POINT('',(0.,25.,-13.));
#1605=CARTESIAN_POINT('',(-7.23789196672702,29.,-13.));
#1606=CARTESIAN_POINT('',(-7.23789196672702,29.,-4.));
#1607=CARTESIAN_POINT('',(-3.09782089451076,26.7120017313061,-12.7043129494782));
#1608=CARTESIAN_POINT('',(-3.09782089451076,26.7120017313061,-22.));
#1609=CARTESIAN_POINT('',(0.,25.,-22.));
#1610=CARTESIAN_POINT('',(-45.,41.3,-21.));
#1611=CARTESIAN_POINT('',(-49.,41.3,-21.));
#1612=CARTESIAN_POINT('',(-45.,41.3,-14.));
#1613=CARTESIAN_POINT('',(-41.,41.3,-14.));
#1614=CARTESIAN_POINT('',(-45.,41.3,-22.));
#1615=CARTESIAN_POINT('',(-45.,41.3,-13.));
#1616=CARTESIAN_POINT('',(-40.,41.3,-13.));
#1617=CARTESIAN_POINT('',(-21.,41.3,-13.));
#1618=CARTESIAN_POINT('',(-21.,29.,-13.));
#1619=CARTESIAN_POINT('',(0.,29.,-13.));
#1620=CARTESIAN_POINT('',(-45.,41.3,-13.));
#1621=CARTESIAN_POINT('',(-15.,-14.5,-21.9791303715507));
#1622=CARTESIAN_POINT('',(-15.,-14.,-16.));
#1623=CARTESIAN_POINT('',(-15.,14.5,19.9791303715507));
#1624=CARTESIAN_POINT('',(-15.,14.,14.));
#1625=CARTESIAN_POINT('',(-15.,-14.5,19.9791303715507));
#1626=CARTESIAN_POINT('',(-15.,-14.,14.));
#1627=CARTESIAN_POINT('',(-1.99999999999999,8.99999999999999,-28.));
#1628=CARTESIAN_POINT('',(-1.00794088894056,9.,-26.6772545185874));
#1629=CARTESIAN_POINT('',(-0.411347292807101,9.51278944570615,-25.0832106740446));
#1630=CARTESIAN_POINT('',(0.0463873775072826,11.7228311616593,-22.720103784716));
#1631=CARTESIAN_POINT('',(-2.89685267960971E-16,13.3445108028159,-22.));
#1632=CARTESIAN_POINT('',(-2.87403541940031E-16,15.,-22.));
#1633=CARTESIAN_POINT('',(0.,-14.2935094358449,-22.));
#1634=CARTESIAN_POINT('',(-7.6232965252887E-18,-12.770887569257,-22.1805422803569));
#1635=CARTESIAN_POINT('',(0.0220777501440418,-11.3485709711066,-22.9682043996796));
#1636=CARTESIAN_POINT('',(-0.474999007974201,-9.43451203790314,-25.26401873331));
#1637=CARTESIAN_POINT('',(-1.05551837950188,-9.,-26.7271615119661));
#1638=CARTESIAN_POINT('',(-1.96886502932388,-9.,-27.9582607431014));
#1639=CARTESIAN_POINT('',(-10.,0.,-22.));
#1640=CARTESIAN_POINT('',(-0.816745027517614,-9.,25.9582607431014));
#1641=CARTESIAN_POINT('',(-0.227544249355291,-9.,24.5913015337366));
#1642=CARTESIAN_POINT('',(3.69723264040082E-16,-9.50846431367343,23.119134665154));
#1643=CARTESIAN_POINT('',(3.69723264040082E-16,-10.4908790336006,22.));
#1644=CARTESIAN_POINT('',(0.,10.4908790336006,22.));
#1645=CARTESIAN_POINT('',(0.,9.50873388372632,23.1188275797809));
#1646=CARTESIAN_POINT('',(-0.227302442895983,8.99999999999996,24.59074053725));
#1647=CARTESIAN_POINT('',(-0.816745027517609,8.99999999999996,25.9582607431014));
#1648=CARTESIAN_POINT('',(-10.,0.,22.));
#1649=CARTESIAN_POINT('',(-15.,13.,20.301406493609));
#1650=CARTESIAN_POINT('',(-15.,11.6350773854233,20.78397951189));
#1651=CARTESIAN_POINT('',(-15.6605883104292,10.5825119197666,21.7255067910566));
#1652=CARTESIAN_POINT('',(-17.1875412849933,9.29717507071839,23.7428161413297));
#1653=CARTESIAN_POINT('',(-18.1000757939975,9.,24.8560829120845));
#1654=CARTESIAN_POINT('',(-19.,9.,25.9582607431014));
#1655=CARTESIAN_POINT('',(-15.,15.,25.9582607431014));
#1656=CARTESIAN_POINT('',(-19.,-9.,25.9582607431014));
#1657=CARTESIAN_POINT('',(-18.100075793997,-9.,24.8560829120849));
#1658=CARTESIAN_POINT('',(-17.1875412849933,-9.29717507071839,23.7428161413297));
#1659=CARTESIAN_POINT('',(-15.6605883104292,-10.5825119197666,21.7255067910566));
#1660=CARTESIAN_POINT('',(-15.,-11.6350773854233,20.78397951189));
#1661=CARTESIAN_POINT('',(-15.,-13.,20.301406493609));
#1662=CARTESIAN_POINT('',(-15.,-15.,25.9582607431014));
#1663=CARTESIAN_POINT('',(-15.,-13.,-22.301406493609));
#1664=CARTESIAN_POINT('',(-15.,-11.6350773854233,-22.78397951189));
#1665=CARTESIAN_POINT('',(-15.6605883104292,-10.5825119197666,-23.7255067910566));
#1666=CARTESIAN_POINT('',(-17.1875412849933,-9.29717507071839,-25.7428161413297));
#1667=CARTESIAN_POINT('',(-18.1000757939662,-8.99999999999999,-26.8560829121101));
#1668=CARTESIAN_POINT('',(-19.,-8.99999999999999,-27.9582607431014));
#1669=CARTESIAN_POINT('',(-15.,-15.,-27.9582607431014));
#1670=CARTESIAN_POINT('',(-15.,13.7918589058507,-22.122892284752));
#1671=CARTESIAN_POINT('',(-15.,14.1930238969777,-22.0404258854962));
#1672=CARTESIAN_POINT('',(-15.0631134011611,14.6095739937604,-22.));
#1673=CARTESIAN_POINT('',(-15.1868130000448,15.,-22.));
#1674=CARTESIAN_POINT('',(-19.,8.99999999999999,-28.));
#1675=CARTESIAN_POINT('',(-18.1000757940114,8.99999999999999,-26.8978221689717));
#1676=CARTESIAN_POINT('',(-17.1875412849933,9.29717507071839,-25.7845553982283));
#1677=CARTESIAN_POINT('',(-15.6605883104292,10.5825119197666,-23.7672460479552));
#1678=CARTESIAN_POINT('',(-15.,11.6350773854233,-22.8257187687886));
#1679=CARTESIAN_POINT('',(-15.,13.,-22.3431457505076));
#1680=CARTESIAN_POINT('',(-39.,15.,-28.));
#1681=CARTESIAN_POINT('',(-3.09782089451076,26.7120017313061,-12.7043129494782));
#1682=CARTESIAN_POINT('',(-1.9737949709315,26.0908120651732,-12.541028277972));
#1683=CARTESIAN_POINT('',(-1.11221850080784,25.1150136374221,-12.2053096208089));
#1684=CARTESIAN_POINT('',(-0.125168029643046,23.1133396313818,-10.9114003440182));
#1685=CARTESIAN_POINT('',(-7.58941520739853E-16,22.1655921931341,-9.9964518094934));
#1686=CARTESIAN_POINT('',(-3.36843579468287E-16,21.4605870229002,-8.91500274269903));
#1687=CARTESIAN_POINT('',(-6.,21.4605870229002,0.));
#1688=CARTESIAN_POINT('',(-21.,29.,-13.));
#1689=CARTESIAN_POINT('',(-19.6501064910946,27.3467245833164,-13.));
#1690=CARTESIAN_POINT('',(-18.2813390836592,25.6768673492409,-12.5542523738335));
#1691=CARTESIAN_POINT('',(-15.9908922773204,22.6508836594828,-10.6262482585816));
#1692=CARTESIAN_POINT('',(-15.,21.2385820475761,-9.04739493687213));
#1693=CARTESIAN_POINT('',(-15.,20.5147186257614,-7.));
#1694=CARTESIAN_POINT('',(-45.,29.,-4.));
#1695=CARTESIAN_POINT('',(-1.,0.,0.));
#1696=CARTESIAN_POINT('',(-30.,0.,-32.));
#1697=CARTESIAN_POINT('',(-45.,41.3,-22.));
#1698=CARTESIAN_POINT('',(-45.,41.3,-14.));
#1699=CARTESIAN_POINT('',(-30.,0.,32.));
#1700=CARTESIAN_POINT('',(-17.0652139296738,17.2928020447879,-11.5296201364758));
#1701=CARTESIAN_POINT('',(-15.6015615645002,16.4839188108838,-10.2581760054529));
#1702=CARTESIAN_POINT('',(-15.,15.1018231380254,-8.60437237629187));
#1703=CARTESIAN_POINT('',(-15.,13.7918589058507,-7.));
#1704=CARTESIAN_POINT('',(-21.,0.,-7.));
#1705=CARTESIAN_POINT('',(-7.5,-19.,0.));
#1706=CARTESIAN_POINT('',(-7.5,-19.,-3.49255));
#1707=CARTESIAN_POINT('',(-7.5,-27.4,0.));
#1708=CARTESIAN_POINT('',(-7.5,-20.,0.));
#1709=CARTESIAN_POINT('',(-19.,13.,-32.));
#1710=CARTESIAN_POINT('',(-19.,13.7918589058507,0.));
#1711=CARTESIAN_POINT('',(-19.,-13.,-1.35308431126191E-14));
#1712=CARTESIAN_POINT('',(-19.,13.,20.));
#1713=CARTESIAN_POINT('',(-19.,-13.,1.12757025938493E-14));
#1714=(
GEOMETRIC_REPRESENTATION_CONTEXT(3)
GLOBAL_UNCERTAINTY_ASSIGNED_CONTEXT((#1715))
GLOBAL_UNIT_ASSIGNED_CONTEXT((#1721,#1717,#1716))
REPRESENTATION_CONTEXT('\X2\043A0443043B0430043A\X0\ \X2\04400443043B0435
0432043E0439\X0\','TOP_LEVEL_ASSEMBLY_PART')
);
#1715=UNCERTAINTY_MEASURE_WITH_UNIT(LENGTH_MEASURE(0.0508),#1721,
'DISTANCE_ACCURACY_VALUE','Maximum Tolerance applied to model');
#1716=(
NAMED_UNIT(*)
SI_UNIT($,.STERADIAN.)
SOLID_ANGLE_UNIT()
);
#1717=(
CONVERSION_BASED_UNIT('DEGREE',#1719)
NAMED_UNIT(#1718)
PLANE_ANGLE_UNIT()
);
#1718=DIMENSIONAL_EXPONENTS(0.,0.,0.,0.,0.,0.,0.);
#1719=PLANE_ANGLE_MEASURE_WITH_UNIT(PLANE_ANGLE_MEASURE(0.0174532925),#1720);
#1720=(
NAMED_UNIT(*)
PLANE_ANGLE_UNIT()
SI_UNIT($,.RADIAN.)
);
#1721=(
LENGTH_UNIT()
NAMED_UNIT(*)
SI_UNIT(.MILLI.,.METRE.)
);
ENDSEC;
END-ISO-10303-21;
